<?xml version="1.0" encoding="UTF-8"?>
<svg version="1.1" xmlns="http://www.w3.org/2000/svg" width="512" height="512">
<path d="M0 0 C1.36125 0.8353125 1.36125 0.8353125 2.75 1.6875 C12.52998993 11.73915632 13 21.24151363 13 35 C100.78 35 188.56 35 279 35 C279 30.71 279 26.42 279 22 C280.99885649 12.67200304 284.53076462 5.08181233 292.5625 -0.4375 C298.22688924 -3.98152963 302.98962968 -5.39083234 309.6875 -5.375 C310.39430908 -5.37338867 311.10111816 -5.37177734 311.8293457 -5.37011719 C319.86570909 -5.18303307 327.27703204 -2.88193929 333 3 C339.56889938 11.75853251 342.07755903 19.34600203 342.0234375 30.26953125 C342.02005371 31.15874268 342.01666992 32.0479541 342.01318359 32.96411133 C342.00883301 33.63595459 342.00448242 34.30779785 342 35 C342.8564209 34.98428955 343.7128418 34.9685791 344.59521484 34.95239258 C347.8194753 34.9007957 351.043523 34.86342454 354.26806641 34.83520508 C355.65485627 34.82026053 357.04160007 34.79989722 358.42822266 34.77368164 C368.7696345 34.5832802 378.91726486 34.76219133 387.40234375 41.421875 C394.0721416 48.01013498 397.04053825 55.43499311 397.25726891 64.68875313 C397.27084433 66.98477605 397.27343991 69.28087963 397.26742554 71.57693481 C397.27195665 72.84528919 397.27648776 74.11364357 397.28115618 75.42043293 C397.29335865 78.92947865 397.29312901 82.43842884 397.29076743 85.94749093 C397.29035859 89.73619818 397.30140453 93.52487508 397.31088257 97.31356812 C397.32747626 104.73051854 397.33299129 112.14743718 397.33410732 119.56440462 C397.33505817 125.59156442 397.33917025 131.61871373 397.34550858 137.64587021 C397.36311321 154.73382398 397.37234816 171.82175265 397.37084763 188.90971555 C397.37076772 189.83041274 397.3706878 190.75110993 397.37060547 191.69970703 C397.37052371 192.62152755 397.37044195 193.54334806 397.37035771 194.49310254 C397.36954407 209.44639859 397.38870324 224.3995941 397.4168822 239.35286106 C397.44558776 254.70659249 397.45942392 270.06027482 397.45769465 285.41403377 C397.45703015 294.0342559 397.46254924 302.65437249 397.48405075 311.27457047 C397.5022315 318.61033413 397.50663523 325.94594437 397.4930319 333.28172077 C397.48648766 337.02518888 397.48643727 340.76836233 397.5037384 344.51180267 C397.5222886 348.56710392 397.50995363 352.62171859 397.49447632 356.67703247 C397.50476344 357.8638874 397.51505057 359.05074232 397.52564943 360.27356255 C397.45884768 368.15744118 397.45884768 368.15744118 395.21909523 372.27018547 C393 374 393 374 389 374 C389 380.27 389 386.54 389 393 C390.98 393.66 392.96 394.32 395 395 C397.50564139 398.75846209 397.2956013 401.72296457 397.29052734 406.07641602 C397.29724457 406.89959824 397.30396179 407.72278046 397.31088257 408.57090759 C397.329913 411.29863494 397.33379022 414.02611659 397.3359375 416.75390625 C397.34236525 418.65380453 397.3490936 420.55370182 397.35610962 422.45359802 C397.36809735 426.44247733 397.37178924 430.43126996 397.37060547 434.42016602 C397.37040296 439.51204237 397.39762807 444.60335634 397.43214989 449.69509983 C397.45448519 453.62355558 397.45844087 457.55187783 397.45738602 461.48039055 C397.45973496 463.35612857 397.4685184 465.23187067 397.48405075 467.10754585 C397.57267375 478.92250399 397.45614439 488.61961488 389.875 498.3125 C382.63746686 505.63964128 375.32976479 507.52440431 365.21815085 507.66173842 C362.6122883 507.66900679 360.00717469 507.65213864 357.40136719 507.63491821 C355.5024478 507.64068382 353.603534 507.64862788 351.70463181 507.65855443 C346.50165479 507.67939056 341.29913745 507.66912714 336.09615898 507.65362334 C330.47915436 507.6423006 324.86222824 507.65977716 319.24523926 507.67352295 C308.24753158 507.69574993 297.24999458 507.69095649 286.25228024 507.67645974 C277.31380247 507.66516542 268.37537251 507.66363746 259.43688965 507.66907883 C257.52825359 507.67022807 257.52825359 507.67022807 255.58105922 507.67140054 C252.99611186 507.67299917 250.41116451 507.67462024 247.82621717 507.6762635 C224.28094472 507.69011308 200.73578658 507.67575329 177.19053334 507.64955051 C155.70639948 507.62582327 134.22241382 507.62794644 112.73828125 507.65185547 C88.58860574 507.6786412 64.43903559 507.68914615 40.28934097 507.67379415 C37.71393078 507.67220141 35.13852057 507.67062956 32.56311035 507.66907883 C31.29597663 507.66830745 30.0288429 507.66753607 28.72331119 507.66674132 C19.79611136 507.66242515 10.86896414 507.66970912 1.94177246 507.68147659 C-8.93829275 507.69550308 -19.8181776 507.69169832 -30.69822216 507.66507287 C-36.24886183 507.6519369 -41.79920085 507.64677888 -47.34983826 507.66331863 C-52.43266787 507.6782353 -57.51491861 507.67000121 -62.59769583 507.64343087 C-64.43470358 507.63785325 -66.2717604 507.64067019 -68.10873652 507.65280981 C-79.16748194 507.72027596 -87.74111897 507.11157497 -96.62109375 499.859375 C-97.22050781 499.16328125 -97.81992188 498.4671875 -98.4375 497.75 C-99.05496094 497.06421875 -99.67242187 496.3784375 -100.30859375 495.671875 C-106.00069165 486.68020072 -105.42724709 477.07355396 -105.38768005 466.85708618 C-105.39185587 465.10411468 -105.39733474 463.35114589 -105.40399987 461.59818208 C-105.41844073 456.79403002 -105.41421397 451.99004971 -105.40683305 447.18588829 C-105.40210033 441.99967721 -105.41461217 436.81350324 -105.42485046 431.62730408 C-105.4420418 421.4720512 -105.44287776 411.3168602 -105.43763756 401.16159655 C-105.43359521 392.90674987 -105.43504019 384.65192146 -105.44038582 376.39707565 C-105.44113424 375.22194249 -105.44188266 374.04680932 -105.44265376 372.83606606 C-105.44418525 370.44873791 -105.4457236 368.06140975 -105.44726873 365.67408161 C-105.46099502 343.2888159 -105.4555552 320.90358515 -105.44408352 298.51832025 C-105.43415128 278.04356632 -105.44709146 257.56890276 -105.47101771 237.09416278 C-105.49540602 216.06541456 -105.50501722 195.03670845 -105.49836498 174.00794637 C-105.49487214 162.20400768 -105.49710917 150.40013848 -105.51461601 138.59621048 C-105.52933461 128.54767843 -105.52997784 118.49926482 -105.5125451 108.45073511 C-105.50402994 103.32531121 -105.50189829 98.20009894 -105.51719666 93.07468605 C-105.53103813 88.37919122 -105.5262874 83.68408941 -105.50695742 78.98861735 C-105.50319546 77.29354824 -105.50612502 75.59844768 -105.51656907 73.90340658 C-105.57657171 63.41618403 -104.84408051 54.40680084 -99.3125 45.1875 C-88.73964506 35.18615073 -78.40903878 34.70187199 -64.5 34.875 C-63.09115219 34.88504931 -61.68229745 34.89417171 -60.2734375 34.90234375 C-56.8487795 34.92580031 -53.42448061 34.95862616 -50 35 C-50.00797607 34.34338379 -50.01595215 33.68676758 -50.02416992 33.01025391 C-50.10865038 21.06230383 -48.60145097 12.50979437 -40.6875 3.3125 C-28.99373861 -6.74957375 -13.12466407 -8.91437579 0 0 Z " fill="#FEF7E5" transform="translate(110,5)"/>
<path d="M0 0 C1.36125 0.8353125 1.36125 0.8353125 2.75 1.6875 C12.52998993 11.73915632 13 21.24151363 13 35 C100.78 35 188.56 35 279 35 C279 30.71 279 26.42 279 22 C280.99885649 12.67200304 284.53076462 5.08181233 292.5625 -0.4375 C298.22688924 -3.98152963 302.98962968 -5.39083234 309.6875 -5.375 C310.39430908 -5.37338867 311.10111816 -5.37177734 311.8293457 -5.37011719 C319.86570909 -5.18303307 327.27703204 -2.88193929 333 3 C339.56889938 11.75853251 342.07755903 19.34600203 342.0234375 30.26953125 C342.02005371 31.15874268 342.01666992 32.0479541 342.01318359 32.96411133 C342.00883301 33.63595459 342.00448242 34.30779785 342 35 C342.8564209 34.98428955 343.7128418 34.9685791 344.59521484 34.95239258 C347.8194753 34.9007957 351.043523 34.86342454 354.26806641 34.83520508 C355.65485627 34.82026053 357.04160007 34.79989722 358.42822266 34.77368164 C368.7696345 34.5832802 378.91726486 34.76219133 387.40234375 41.421875 C394.0721416 48.01013498 397.04053825 55.43499311 397.25726891 64.68875313 C397.27084433 66.98477605 397.27343991 69.28087963 397.26742554 71.57693481 C397.27195665 72.84528919 397.27648776 74.11364357 397.28115618 75.42043293 C397.29335865 78.92947865 397.29312901 82.43842884 397.29076743 85.94749093 C397.29035859 89.73619818 397.30140453 93.52487508 397.31088257 97.31356812 C397.32747626 104.73051854 397.33299129 112.14743718 397.33410732 119.56440462 C397.33505817 125.59156442 397.33917025 131.61871373 397.34550858 137.64587021 C397.36311321 154.73382398 397.37234816 171.82175265 397.37084763 188.90971555 C397.37076772 189.83041274 397.3706878 190.75110993 397.37060547 191.69970703 C397.37052371 192.62152755 397.37044195 193.54334806 397.37035771 194.49310254 C397.36954407 209.44639859 397.38870324 224.3995941 397.4168822 239.35286106 C397.44558776 254.70659249 397.45942392 270.06027482 397.45769465 285.41403377 C397.45703015 294.0342559 397.46254924 302.65437249 397.48405075 311.27457047 C397.5022315 318.61033413 397.50663523 325.94594437 397.4930319 333.28172077 C397.48648766 337.02518888 397.48643727 340.76836233 397.5037384 344.51180267 C397.5222886 348.56710392 397.50995363 352.62171859 397.49447632 356.67703247 C397.50476344 357.8638874 397.51505057 359.05074232 397.52564943 360.27356255 C397.45861397 368.18502371 397.45861397 368.18502371 395.18393898 372.22721672 C393 374 393 374 389.5625 374.6875 C385.63750713 373.93004524 384.44320822 372.85711153 382.0280968 369.75497794 C380.29982043 366.8047821 380.3863486 364.1586426 380.39872742 360.78665161 C380.39445529 360.08323761 380.39018317 359.37982361 380.38578159 358.65509403 C380.37757854 356.30993169 380.40498852 353.96657812 380.43237305 351.62158203 C380.43378411 349.93598981 380.43299039 348.25039451 380.43016052 346.56480408 C380.42872725 341.99685305 380.45810256 337.42955986 380.49303031 332.86176157 C380.52430859 328.08519237 380.52722571 323.30860771 380.53315735 318.5319519 C380.54869146 309.49030998 380.58971411 300.44897071 380.6399048 291.407462 C380.69581168 281.11251921 380.72328815 270.81756188 380.74838197 260.52250504 C380.80063031 239.34816784 380.88856424 218.174103 381 197 C380.18936625 197.00151888 379.37873251 197.00303776 378.5435341 197.00460267 C330.52815362 197.09406147 282.51278196 197.16271915 234.49733486 197.20426132 C228.73560917 197.20926431 222.97388364 197.21444158 217.2121582 197.21972656 C216.06507368 197.2207758 214.91798916 197.22182505 213.73614451 197.22290608 C195.14823256 197.24032439 176.56036996 197.27186992 157.97248731 197.30861118 C138.90802704 197.34598095 119.84359266 197.36822745 100.77909726 197.37635398 C89.00964839 197.38184998 77.24033899 197.39922573 65.47093304 197.43166587 C57.40670879 197.45276483 49.34255693 197.45921054 41.27830706 197.45400551 C36.62150414 197.45143652 31.96494539 197.45545046 27.30818558 197.4768219 C23.04750338 197.49623338 18.78723041 197.4973054 14.52652969 197.48359558 C12.98270115 197.48190022 11.43884745 197.48702028 9.89506868 197.49953273 C7.80031173 197.51552784 5.7070424 197.5069718 3.61230946 197.49219131 C1.86540608 197.49446964 1.86540608 197.49446964 0.08321172 197.49679399 C-3.70108184 196.88703557 -5.34998321 195.7363364 -8 193 C-8.33 191.68 -8.66 190.36 -9 189 C-15.27 189 -21.54 189 -28 189 C-28.66 190.65 -29.32 192.3 -30 194 C-32.19902903 196.21155733 -33.47142515 196.92577335 -36.56903076 197.36076355 C-37.53721741 197.35410172 -38.50540405 197.34743988 -39.50292969 197.34057617 C-41.15418854 197.34023628 -41.15418854 197.34023628 -42.83880615 197.33988953 C-44.02121887 197.32440567 -45.20363159 197.30892181 -46.421875 197.29296875 C-47.63699768 197.28872391 -48.85212036 197.28447906 -50.10406494 197.28010559 C-53.98626839 197.26330876 -57.86795336 197.22565338 -61.75 197.1875 C-64.38150292 197.17245452 -67.01301398 197.15876588 -69.64453125 197.14648438 C-76.09653117 197.11340185 -82.54822854 197.06319179 -89 197 C-88.96401694 233.33263713 -88.90710402 269.66518109 -88.82207905 305.99773733 C-88.81206146 310.28608886 -88.80221735 314.57444078 -88.79248047 318.86279297 C-88.7905391 319.71653493 -88.78859772 320.57027689 -88.78659752 321.44988982 C-88.75556739 335.27773263 -88.73859405 349.10555884 -88.72680578 362.93342991 C-88.71439946 377.11968197 -88.68690982 391.30584683 -88.64538693 405.49204385 C-88.62023662 414.24733098 -88.60688383 423.00247352 -88.60857043 431.75779729 C-88.60860016 437.75978381 -88.59399299 443.76162293 -88.56783572 449.76355202 C-88.55317242 453.22759329 -88.54500141 456.69133227 -88.55419731 460.15539932 C-88.56080304 463.91086051 -88.54299681 467.66543502 -88.51898193 471.42080688 C-88.53062256 473.06380813 -88.53062256 473.06380813 -88.54249835 474.74000132 C-88.4740236 480.77062211 -88.16636627 484.48842839 -84 489 C-80.38467051 491.45730151 -76.69779889 491.2805371 -72.48113441 491.25447559 C-71.71686008 491.25768207 -70.95258575 491.26088855 -70.1651516 491.26419219 C-67.58924324 491.27253201 -65.01356499 491.26655405 -62.43765259 491.26069641 C-60.57818999 491.26371528 -58.71872864 491.26760343 -56.8592695 491.27228898 C-51.73775953 491.28261186 -46.61631923 491.28037628 -41.49480343 491.27610838 C-35.97595391 491.27364891 -30.45712151 491.28264562 -24.9382782 491.29014587 C-14.12161488 491.30291673 -3.30497636 491.30468359 7.51169322 491.30234561 C16.30111927 491.30056492 25.09053778 491.30230674 33.87996292 491.30657005 C35.12937654 491.30716524 36.37879017 491.30776043 37.66606481 491.30837366 C40.20399129 491.30958537 42.74191776 491.3107995 45.27984424 491.31201603 C62.32887876 491.3198072 79.37791078 491.32371961 96.42694664 491.31969929 C97.09390124 491.31954291 97.76085585 491.31938654 98.44802119 491.31922542 C101.82853384 491.31841962 105.20904649 491.31757385 108.58955912 491.31671212 C109.26095837 491.31654103 109.93235761 491.31636994 110.62410229 491.31619367 C111.98183539 491.31584702 113.33956848 491.31549849 114.69730157 491.31514808 C135.82458474 491.30979063 156.95182618 491.31772102 178.07910156 491.33618164 C201.80750044 491.35689072 225.53587708 491.36759532 249.26428759 491.36360615 C261.83104651 491.36169103 274.3977674 491.36421189 286.9645195 491.37832069 C297.66290666 491.39020997 308.3612324 491.39166703 319.05962037 491.37953053 C324.52054998 491.37362451 329.9813671 491.37258984 335.44228935 491.38453293 C340.43865792 491.39533325 345.43481929 491.39235848 350.43117793 491.37827124 C352.24138183 491.3756081 354.05160166 491.37804117 355.86178999 491.38600711 C358.31792941 491.39606775 360.77334225 491.38773041 363.22945213 491.37473011 C363.93610646 491.38203946 364.64276078 491.3893488 365.37082887 491.39687964 C369.96513875 491.3462997 373.08963012 490.39741123 377 488 C380.45059672 483.94955401 380.41537921 479.8990352 380.35302734 474.80078125 C380.35626762 473.58278336 380.35626762 473.58278336 380.35957336 472.34017944 C380.36265384 470.58269199 380.35907369 468.8251829 380.34955978 467.06771851 C380.33580104 464.28489887 380.34227032 461.50279067 380.35440063 458.7199707 C380.38533861 450.81033617 380.38046768 442.9008684 380.36035156 434.99121094 C380.34943563 430.14826457 380.36261865 425.3058541 380.39024734 420.46298218 C380.39568751 418.61941868 380.39162498 416.77580155 380.37784958 414.93228149 C380.3588042 412.35399891 380.37019668 409.77747104 380.38818359 407.19921875 C380.37484482 406.43958832 380.36150604 405.67995789 380.34776306 404.89730835 C380.40941399 400.92063924 380.85196348 399.18387874 383.37808228 396.04614258 C386.12299495 393.90401483 387.53991021 393.08872025 391 393 C394.32544781 394.14015354 394.97788475 394.96682713 397 398 C397.20483871 400.72558439 397.29370519 403.34982682 397.29052734 406.07641602 C397.29724457 406.89959824 397.30396179 407.72278046 397.31088257 408.57090759 C397.329913 411.29863494 397.33379022 414.02611659 397.3359375 416.75390625 C397.34236525 418.65380453 397.3490936 420.55370182 397.35610962 422.45359802 C397.36809735 426.44247733 397.37178924 430.43126996 397.37060547 434.42016602 C397.37040296 439.51204237 397.39762807 444.60335634 397.43214989 449.69509983 C397.45448519 453.62355558 397.45844087 457.55187783 397.45738602 461.48039055 C397.45973496 463.35612857 397.4685184 465.23187067 397.48405075 467.10754585 C397.57267375 478.92250399 397.45614439 488.61961488 389.875 498.3125 C382.63746686 505.63964128 375.32976479 507.52440431 365.21815085 507.66173842 C362.6122883 507.66900679 360.00717469 507.65213864 357.40136719 507.63491821 C355.5024478 507.64068382 353.603534 507.64862788 351.70463181 507.65855443 C346.50165479 507.67939056 341.29913745 507.66912714 336.09615898 507.65362334 C330.47915436 507.6423006 324.86222824 507.65977716 319.24523926 507.67352295 C308.24753158 507.69574993 297.24999458 507.69095649 286.25228024 507.67645974 C277.31380247 507.66516542 268.37537251 507.66363746 259.43688965 507.66907883 C257.52825359 507.67022807 257.52825359 507.67022807 255.58105922 507.67140054 C252.99611186 507.67299917 250.41116451 507.67462024 247.82621717 507.6762635 C224.28094472 507.69011308 200.73578658 507.67575329 177.19053334 507.64955051 C155.70639948 507.62582327 134.22241382 507.62794644 112.73828125 507.65185547 C88.58860574 507.6786412 64.43903559 507.68914615 40.28934097 507.67379415 C37.71393078 507.67220141 35.13852057 507.67062956 32.56311035 507.66907883 C31.29597663 507.66830745 30.0288429 507.66753607 28.72331119 507.66674132 C19.79611136 507.66242515 10.86896414 507.66970912 1.94177246 507.68147659 C-8.93829275 507.69550308 -19.8181776 507.69169832 -30.69822216 507.66507287 C-36.24886183 507.6519369 -41.79920085 507.64677888 -47.34983826 507.66331863 C-52.43266787 507.6782353 -57.51491861 507.67000121 -62.59769583 507.64343087 C-64.43470358 507.63785325 -66.2717604 507.64067019 -68.10873652 507.65280981 C-79.16748194 507.72027596 -87.74111897 507.11157497 -96.62109375 499.859375 C-97.22050781 499.16328125 -97.81992188 498.4671875 -98.4375 497.75 C-99.05496094 497.06421875 -99.67242187 496.3784375 -100.30859375 495.671875 C-106.00069165 486.68020072 -105.42724709 477.07355396 -105.38768005 466.85708618 C-105.39185587 465.10411468 -105.39733474 463.35114589 -105.40399987 461.59818208 C-105.41844073 456.79403002 -105.41421397 451.99004971 -105.40683305 447.18588829 C-105.40210033 441.99967721 -105.41461217 436.81350324 -105.42485046 431.62730408 C-105.4420418 421.4720512 -105.44287776 411.3168602 -105.43763756 401.16159655 C-105.43359521 392.90674987 -105.43504019 384.65192146 -105.44038582 376.39707565 C-105.44113424 375.22194249 -105.44188266 374.04680932 -105.44265376 372.83606606 C-105.44418525 370.44873791 -105.4457236 368.06140975 -105.44726873 365.67408161 C-105.46099502 343.2888159 -105.4555552 320.90358515 -105.44408352 298.51832025 C-105.43415128 278.04356632 -105.44709146 257.56890276 -105.47101771 237.09416278 C-105.49540602 216.06541456 -105.50501722 195.03670845 -105.49836498 174.00794637 C-105.49487214 162.20400768 -105.49710917 150.40013848 -105.51461601 138.59621048 C-105.52933461 128.54767843 -105.52997784 118.49926482 -105.5125451 108.45073511 C-105.50402994 103.32531121 -105.50189829 98.20009894 -105.51719666 93.07468605 C-105.53103813 88.37919122 -105.5262874 83.68408941 -105.50695742 78.98861735 C-105.50319546 77.29354824 -105.50612502 75.59844768 -105.51656907 73.90340658 C-105.57657171 63.41618403 -104.84408051 54.40680084 -99.3125 45.1875 C-88.73964506 35.18615073 -78.40903878 34.70187199 -64.5 34.875 C-63.09115219 34.88504931 -61.68229745 34.89417171 -60.2734375 34.90234375 C-56.8487795 34.92580031 -53.42448061 34.95862616 -50 35 C-50.00797607 34.34338379 -50.01595215 33.68676758 -50.02416992 33.01025391 C-50.10865038 21.06230383 -48.60145097 12.50979437 -40.6875 3.3125 C-28.99373861 -6.74957375 -13.12466407 -8.91437579 0 0 Z " fill="#FC5C6E" transform="translate(110,5)"/>
<path d="M0 0 C1.36125 0.8353125 1.36125 0.8353125 2.75 1.6875 C12.52998993 11.73915632 13 21.24151363 13 35 C100.78 35 188.56 35 279 35 C279 30.71 279 26.42 279 22 C280.99885649 12.67200304 284.53076462 5.08181233 292.5625 -0.4375 C298.22688924 -3.98152963 302.98962968 -5.39083234 309.6875 -5.375 C310.39430908 -5.37338867 311.10111816 -5.37177734 311.8293457 -5.37011719 C319.86570909 -5.18303307 327.27703204 -2.88193929 333 3 C339.56889938 11.75853251 342.07755903 19.34600203 342.0234375 30.26953125 C342.02005371 31.15874268 342.01666992 32.0479541 342.01318359 32.96411133 C342.00883301 33.63595459 342.00448242 34.30779785 342 35 C342.8564209 34.98428955 343.7128418 34.9685791 344.59521484 34.95239258 C347.8194753 34.9007957 351.043523 34.86342454 354.26806641 34.83520508 C355.65485627 34.82026053 357.04160007 34.79989722 358.42822266 34.77368164 C368.7696345 34.5832802 378.91726486 34.76219133 387.40234375 41.421875 C394.0721416 48.01013498 397.04053825 55.43499311 397.25726891 64.68875313 C397.27084433 66.98477605 397.27343991 69.28087963 397.26742554 71.57693481 C397.27195665 72.84528919 397.27648776 74.11364357 397.28115618 75.42043293 C397.29335865 78.92947865 397.29312901 82.43842884 397.29076743 85.94749093 C397.29035859 89.73619818 397.30140453 93.52487508 397.31088257 97.31356812 C397.32747626 104.73051854 397.33299129 112.14743718 397.33410732 119.56440462 C397.33505817 125.59156442 397.33917025 131.61871373 397.34550858 137.64587021 C397.36311321 154.73382398 397.37234816 171.82175265 397.37084763 188.90971555 C397.37076772 189.83041274 397.3706878 190.75110993 397.37060547 191.69970703 C397.37052371 192.62152755 397.37044195 193.54334806 397.37035771 194.49310254 C397.36954407 209.44639859 397.38870324 224.3995941 397.4168822 239.35286106 C397.44558776 254.70659249 397.45942392 270.06027482 397.45769465 285.41403377 C397.45703015 294.0342559 397.46254924 302.65437249 397.48405075 311.27457047 C397.5022315 318.61033413 397.50663523 325.94594437 397.4930319 333.28172077 C397.48648766 337.02518888 397.48643727 340.76836233 397.5037384 344.51180267 C397.5222886 348.56710392 397.50995363 352.62171859 397.49447632 356.67703247 C397.50476344 357.8638874 397.51505057 359.05074232 397.52564943 360.27356255 C397.45861397 368.18502371 397.45861397 368.18502371 395.18393898 372.22721672 C393 374 393 374 389.5625 374.6875 C385.63750713 373.93004524 384.44320822 372.85711153 382.0280968 369.75497794 C380.29982043 366.8047821 380.3863486 364.1586426 380.39872742 360.78665161 C380.39445529 360.08323761 380.39018317 359.37982361 380.38578159 358.65509403 C380.37757854 356.30993169 380.40498852 353.96657812 380.43237305 351.62158203 C380.43378411 349.93598981 380.43299039 348.25039451 380.43016052 346.56480408 C380.42872725 341.99685305 380.45810256 337.42955986 380.49303031 332.86176157 C380.52430859 328.08519237 380.52722571 323.30860771 380.53315735 318.5319519 C380.54869146 309.49030998 380.58971411 300.44897071 380.6399048 291.407462 C380.69581168 281.11251921 380.72328815 270.81756188 380.74838197 260.52250504 C380.80063031 239.34816784 380.88856424 218.174103 381 197 C380.18936625 197.00151888 379.37873251 197.00303776 378.5435341 197.00460267 C330.52815362 197.09406147 282.51278196 197.16271915 234.49733486 197.20426132 C228.73560917 197.20926431 222.97388364 197.21444158 217.2121582 197.21972656 C216.06507368 197.2207758 214.91798916 197.22182505 213.73614451 197.22290608 C195.14823256 197.24032439 176.56036996 197.27186992 157.97248731 197.30861118 C138.90802704 197.34598095 119.84359266 197.36822745 100.77909726 197.37635398 C89.00964839 197.38184998 77.24033899 197.39922573 65.47093304 197.43166587 C57.40670879 197.45276483 49.34255693 197.45921054 41.27830706 197.45400551 C36.62150414 197.45143652 31.96494539 197.45545046 27.30818558 197.4768219 C23.04750338 197.49623338 18.78723041 197.4973054 14.52652969 197.48359558 C12.98270115 197.48190022 11.43884745 197.48702028 9.89506868 197.49953273 C7.80031173 197.51552784 5.7070424 197.5069718 3.61230946 197.49219131 C1.86540608 197.49446964 1.86540608 197.49446964 0.08321172 197.49679399 C-3.65578584 196.89433406 -5.32963386 195.63590938 -8 193 C-8.85917455 190.05506618 -8.3985621 188.13867651 -8 185 C-6.86956662 183.27697772 -6.86956662 183.27697772 -5 182 C-2.14594918 181.62740451 -2.14594918 181.62740451 1.41306591 181.63085651 C2.06992806 181.62739498 2.72679021 181.62393345 3.40355727 181.62036702 C5.62019069 181.61238159 7.8361796 181.6259212 10.05278015 181.63923645 C11.65166862 181.63792906 13.25055647 181.63530388 14.84944087 181.63146895 C19.25515361 181.62473888 23.66064888 181.63679115 28.06633389 181.65180314 C32.81274685 181.66472303 37.55914692 181.66037691 42.30557251 181.65809631 C50.53308215 181.65652101 58.76052058 181.66595703 66.98801231 181.68280983 C78.8836662 181.7071605 90.77928555 181.71500107 102.67496166 181.7187738 C121.97351286 181.72534447 141.27202608 181.74532231 160.57055664 181.77368164 C179.3205547 181.8012063 198.07054246 181.82244767 216.82055664 181.83520508 C218.55332532 181.83638733 218.55332532 181.83638733 220.32109942 181.83759347 C226.11612303 181.8415085 231.91114671 181.84529965 237.70617044 181.84902918 C285.80413988 181.88014425 333.90206809 181.93299678 382 182 C381.96281112 166.3270278 381.90291794 150.65431684 381.81609726 134.98155022 C381.7763112 127.7041678 381.74391659 120.42689346 381.72900391 113.14941406 C381.71598504 106.80532497 381.68901472 100.46147369 381.64538693 94.11751854 C381.62277696 90.75930456 381.60708901 87.40138385 381.60811615 84.04308701 C381.6057545 80.29121881 381.57873674 76.54028217 381.54589844 72.78857422 C381.5509288 71.67870651 381.55595917 70.56883881 381.56114197 69.42533875 C381.47825562 63.31073838 381.11531559 59.64021264 377 55 C373.02803572 51.81119235 369.7467875 51.59149769 364.73046875 51.48828125 C364.04946609 51.47033005 363.36846344 51.45237885 362.66682434 51.43388367 C360.5071112 51.38001369 358.34761601 51.34596218 356.1875 51.3125 C354.71676669 51.27930609 353.24606207 51.24481451 351.77539062 51.20898438 C348.18380313 51.12430284 344.59213924 51.05738039 341 51 C341.01957764 51.99362549 341.01957764 51.99362549 341.03955078 53.00732422 C341.15819547 63.31434641 339.29291633 71.36292357 332 79 C324.06984633 86.12289252 316.43542693 87.66370108 305.98828125 87.375 C297.95682903 86.84499608 291.83511611 82.69512542 286.46875 76.8984375 C280.05998658 68.61476989 280 61.69855989 280 51 C191.56 51 103.12 51 12 51 C12 54.96 12 58.92 12 63 C10.15679878 70.72105947 6.43452927 77.2698943 0 82 C-8.5914799 87.15805239 -17.14723307 88.07239331 -27 87 C-35.78058801 84.65316748 -41.90961588 78.32523816 -46.3828125 70.6171875 C-48.55323875 65.89688984 -49.17946281 61.86497792 -49.09375 56.67578125 C-49.08021484 55.60884033 -49.06667969 54.54189941 -49.05273438 53.44262695 C-49.03533203 52.63656006 -49.01792969 51.83049316 -49 51 C-53.4483207 51.01948672 -57.89476244 51.07140066 -62.34228516 51.15258789 C-63.85324404 51.17569667 -65.36436238 51.19014688 -66.87548828 51.19555664 C-69.05601535 51.2048997 -71.23405964 51.24599631 -73.4140625 51.29296875 C-74.7232666 51.3086792 -76.0324707 51.32438965 -77.38134766 51.34057617 C-82.05879484 52.19294325 -83.66740527 53.6771497 -87 57 C-88.2336477 59.4672954 -88.1383797 61.1116891 -88.15821838 63.87210083 C-88.17290161 65.41601501 -88.17290161 65.41601501 -88.18788147 66.99111938 C-88.19363693 68.12471893 -88.1993924 69.25831848 -88.20532227 70.42626953 C-88.22017166 72.21161102 -88.22017166 72.21161102 -88.23532104 74.03302002 C-88.26154205 77.30137972 -88.28339039 80.56973413 -88.30332303 83.83813715 C-88.3251681 87.25213424 -88.35256401 90.66608659 -88.37937927 94.08004761 C-88.4293262 100.54691217 -88.47425759 107.01380154 -88.51740164 113.48071468 C-88.56675694 120.84219823 -88.62168139 128.20363691 -88.67708123 135.56507707 C-88.79093197 150.71000956 -88.89776426 165.85498431 -89 181 C-88.32205887 180.99111755 -87.64411774 180.98223511 -86.94563293 180.9730835 C-79.88921541 180.8845851 -72.83295555 180.82425494 -65.77612305 180.78027344 C-63.14259437 180.76015902 -60.50911034 180.73286396 -57.87573242 180.69824219 C-54.09021993 180.64971912 -50.305298 180.62702888 -46.51953125 180.609375 C-45.34227982 180.58872986 -44.16502838 180.56808472 -42.95210266 180.54681396 C-34.77709906 180.54457019 -34.77709906 180.54457019 -30.7590332 182.89941406 C-28.87278062 185.15192166 -28.31826839 186.0953414 -28.375 189 C-28.35566406 189.99 -28.35566406 189.99 -28.3359375 191 C-29.4523979 194.36251604 -30.92477755 195.19772274 -34 197 C-38.17395889 197.56594379 -42.31430667 197.46437089 -46.51953125 197.390625 C-47.73323898 197.38496521 -48.94694672 197.37930542 -50.19743347 197.37347412 C-54.06952544 197.35110442 -57.94068824 197.30090382 -61.8125 197.25 C-64.43943975 197.22993591 -67.06639402 197.21168499 -69.69335938 197.1953125 C-76.12922266 197.15123746 -82.56454494 197.08431792 -89 197 C-88.96401694 233.33263713 -88.90710402 269.66518109 -88.82207905 305.99773733 C-88.81206146 310.28608886 -88.80221735 314.57444078 -88.79248047 318.86279297 C-88.7905391 319.71653493 -88.78859772 320.57027689 -88.78659752 321.44988982 C-88.75556739 335.27773263 -88.73859405 349.10555884 -88.72680578 362.93342991 C-88.71439946 377.11968197 -88.68690982 391.30584683 -88.64538693 405.49204385 C-88.62023662 414.24733098 -88.60688383 423.00247352 -88.60857043 431.75779729 C-88.60860016 437.75978381 -88.59399299 443.76162293 -88.56783572 449.76355202 C-88.55317242 453.22759329 -88.54500141 456.69133227 -88.55419731 460.15539932 C-88.56080304 463.91086051 -88.54299681 467.66543502 -88.51898193 471.42080688 C-88.53062256 473.06380813 -88.53062256 473.06380813 -88.54249835 474.74000132 C-88.4740236 480.77062211 -88.16636627 484.48842839 -84 489 C-80.38467051 491.45730151 -76.69779889 491.2805371 -72.48113441 491.25447559 C-71.71686008 491.25768207 -70.95258575 491.26088855 -70.1651516 491.26419219 C-67.58924324 491.27253201 -65.01356499 491.26655405 -62.43765259 491.26069641 C-60.57818999 491.26371528 -58.71872864 491.26760343 -56.8592695 491.27228898 C-51.73775953 491.28261186 -46.61631923 491.28037628 -41.49480343 491.27610838 C-35.97595391 491.27364891 -30.45712151 491.28264562 -24.9382782 491.29014587 C-14.12161488 491.30291673 -3.30497636 491.30468359 7.51169322 491.30234561 C16.30111927 491.30056492 25.09053778 491.30230674 33.87996292 491.30657005 C35.12937654 491.30716524 36.37879017 491.30776043 37.66606481 491.30837366 C40.20399129 491.30958537 42.74191776 491.3107995 45.27984424 491.31201603 C62.32887876 491.3198072 79.37791078 491.32371961 96.42694664 491.31969929 C97.09390124 491.31954291 97.76085585 491.31938654 98.44802119 491.31922542 C101.82853384 491.31841962 105.20904649 491.31757385 108.58955912 491.31671212 C109.26095837 491.31654103 109.93235761 491.31636994 110.62410229 491.31619367 C111.98183539 491.31584702 113.33956848 491.31549849 114.69730157 491.31514808 C135.82458474 491.30979063 156.95182618 491.31772102 178.07910156 491.33618164 C201.80750044 491.35689072 225.53587708 491.36759532 249.26428759 491.36360615 C261.83104651 491.36169103 274.3977674 491.36421189 286.9645195 491.37832069 C297.66290666 491.39020997 308.3612324 491.39166703 319.05962037 491.37953053 C324.52054998 491.37362451 329.9813671 491.37258984 335.44228935 491.38453293 C340.43865792 491.39533325 345.43481929 491.39235848 350.43117793 491.37827124 C352.24138183 491.3756081 354.05160166 491.37804117 355.86178999 491.38600711 C358.31792941 491.39606775 360.77334225 491.38773041 363.22945213 491.37473011 C363.93610646 491.38203946 364.64276078 491.3893488 365.37082887 491.39687964 C369.96513875 491.3462997 373.08963012 490.39741123 377 488 C380.45059672 483.94955401 380.41537921 479.8990352 380.35302734 474.80078125 C380.35626762 473.58278336 380.35626762 473.58278336 380.35957336 472.34017944 C380.36265384 470.58269199 380.35907369 468.8251829 380.34955978 467.06771851 C380.33580104 464.28489887 380.34227032 461.50279067 380.35440063 458.7199707 C380.38533861 450.81033617 380.38046768 442.9008684 380.36035156 434.99121094 C380.34943563 430.14826457 380.36261865 425.3058541 380.39024734 420.46298218 C380.39568751 418.61941868 380.39162498 416.77580155 380.37784958 414.93228149 C380.3588042 412.35399891 380.37019668 409.77747104 380.38818359 407.19921875 C380.37484482 406.43958832 380.36150604 405.67995789 380.34776306 404.89730835 C380.40941399 400.92063924 380.85196348 399.18387874 383.37808228 396.04614258 C386.12299495 393.90401483 387.53991021 393.08872025 391 393 C394.32544781 394.14015354 394.97788475 394.96682713 397 398 C397.20483871 400.72558439 397.29370519 403.34982682 397.29052734 406.07641602 C397.29724457 406.89959824 397.30396179 407.72278046 397.31088257 408.57090759 C397.329913 411.29863494 397.33379022 414.02611659 397.3359375 416.75390625 C397.34236525 418.65380453 397.3490936 420.55370182 397.35610962 422.45359802 C397.36809735 426.44247733 397.37178924 430.43126996 397.37060547 434.42016602 C397.37040296 439.51204237 397.39762807 444.60335634 397.43214989 449.69509983 C397.45448519 453.62355558 397.45844087 457.55187783 397.45738602 461.48039055 C397.45973496 463.35612857 397.4685184 465.23187067 397.48405075 467.10754585 C397.57267375 478.92250399 397.45614439 488.61961488 389.875 498.3125 C382.63746686 505.63964128 375.32976479 507.52440431 365.21815085 507.66173842 C362.6122883 507.66900679 360.00717469 507.65213864 357.40136719 507.63491821 C355.5024478 507.64068382 353.603534 507.64862788 351.70463181 507.65855443 C346.50165479 507.67939056 341.29913745 507.66912714 336.09615898 507.65362334 C330.47915436 507.6423006 324.86222824 507.65977716 319.24523926 507.67352295 C308.24753158 507.69574993 297.24999458 507.69095649 286.25228024 507.67645974 C277.31380247 507.66516542 268.37537251 507.66363746 259.43688965 507.66907883 C257.52825359 507.67022807 257.52825359 507.67022807 255.58105922 507.67140054 C252.99611186 507.67299917 250.41116451 507.67462024 247.82621717 507.6762635 C224.28094472 507.69011308 200.73578658 507.67575329 177.19053334 507.64955051 C155.70639948 507.62582327 134.22241382 507.62794644 112.73828125 507.65185547 C88.58860574 507.6786412 64.43903559 507.68914615 40.28934097 507.67379415 C37.71393078 507.67220141 35.13852057 507.67062956 32.56311035 507.66907883 C31.29597663 507.66830745 30.0288429 507.66753607 28.72331119 507.66674132 C19.79611136 507.66242515 10.86896414 507.66970912 1.94177246 507.68147659 C-8.93829275 507.69550308 -19.8181776 507.69169832 -30.69822216 507.66507287 C-36.24886183 507.6519369 -41.79920085 507.64677888 -47.34983826 507.66331863 C-52.43266787 507.6782353 -57.51491861 507.67000121 -62.59769583 507.64343087 C-64.43470358 507.63785325 -66.2717604 507.64067019 -68.10873652 507.65280981 C-79.16748194 507.72027596 -87.74111897 507.11157497 -96.62109375 499.859375 C-97.22050781 499.16328125 -97.81992188 498.4671875 -98.4375 497.75 C-99.05496094 497.06421875 -99.67242187 496.3784375 -100.30859375 495.671875 C-106.00069165 486.68020072 -105.42724709 477.07355396 -105.38768005 466.85708618 C-105.39185587 465.10411468 -105.39733474 463.35114589 -105.40399987 461.59818208 C-105.41844073 456.79403002 -105.41421397 451.99004971 -105.40683305 447.18588829 C-105.40210033 441.99967721 -105.41461217 436.81350324 -105.42485046 431.62730408 C-105.4420418 421.4720512 -105.44287776 411.3168602 -105.43763756 401.16159655 C-105.43359521 392.90674987 -105.43504019 384.65192146 -105.44038582 376.39707565 C-105.44113424 375.22194249 -105.44188266 374.04680932 -105.44265376 372.83606606 C-105.44418525 370.44873791 -105.4457236 368.06140975 -105.44726873 365.67408161 C-105.46099502 343.2888159 -105.4555552 320.90358515 -105.44408352 298.51832025 C-105.43415128 278.04356632 -105.44709146 257.56890276 -105.47101771 237.09416278 C-105.49540602 216.06541456 -105.50501722 195.03670845 -105.49836498 174.00794637 C-105.49487214 162.20400768 -105.49710917 150.40013848 -105.51461601 138.59621048 C-105.52933461 128.54767843 -105.52997784 118.49926482 -105.5125451 108.45073511 C-105.50402994 103.32531121 -105.50189829 98.20009894 -105.51719666 93.07468605 C-105.53103813 88.37919122 -105.5262874 83.68408941 -105.50695742 78.98861735 C-105.50319546 77.29354824 -105.50612502 75.59844768 -105.51656907 73.90340658 C-105.57657171 63.41618403 -104.84408051 54.40680084 -99.3125 45.1875 C-88.73964506 35.18615073 -78.40903878 34.70187199 -64.5 34.875 C-63.09115219 34.88504931 -61.68229745 34.89417171 -60.2734375 34.90234375 C-56.8487795 34.92580031 -53.42448061 34.95862616 -50 35 C-50.00797607 34.34338379 -50.01595215 33.68676758 -50.02416992 33.01025391 C-50.10865038 21.06230383 -48.60145097 12.50979437 -40.6875 3.3125 C-28.99373861 -6.74957375 -13.12466407 -8.91437579 0 0 Z " fill="#040302" transform="translate(110,5)"/>
<path d="M0 0 C14.43577797 9.94464705 20.23486992 28.7059682 24.125 45.125 C24.8125 48.9375 24.8125 48.9375 24.8125 52.9375 C25.89144531 52.41800781 26.97039062 51.89851563 28.08203125 51.36328125 C44.61848487 43.59107346 63.53495867 35.77476392 81.875 41.5625 C87.99555741 44.10073116 91.18706198 47.85694009 93.8125 53.9375 C96.03263763 67.95534572 88.36534736 81.63784264 80.56494141 92.70800781 C75.53037632 99.58143214 69.98131097 106.01448006 64.25 112.3125 C63.73727539 112.878479 63.22455078 113.44445801 62.69628906 114.02758789 C61.44483623 115.37237298 60.13353124 116.6609979 58.8125 117.9375 C58.1525 117.9375 57.4925 117.9375 56.8125 117.9375 C56.8125 118.5975 56.8125 119.2575 56.8125 119.9375 C57.39386719 120.19789063 57.97523438 120.45828125 58.57421875 120.7265625 C67.57581516 125.59653613 73.35556823 135.67602171 76.98046875 144.9140625 C78.94261438 152.04411282 78.89241278 159.53046985 75.8125 166.3125 C70.44590726 175.59851441 62.37607786 179.80626766 52.4921875 183.015625 C34.32857546 187.56616899 16.55562735 180.54488376 0.8125 171.9375 C0.8031543 172.82010498 0.79380859 173.70270996 0.78417969 174.61206055 C0.74003886 177.90206672 0.67837324 181.19079074 0.60498047 184.48022461 C0.57683986 185.90100192 0.55559092 187.32193378 0.54150391 188.74291992 C0.51997606 190.79165359 0.47328486 192.838543 0.421875 194.88671875 C0.40092773 196.11737061 0.37998047 197.34802246 0.35839844 198.6159668 C-0.28296465 202.51835714 -1.353173 204.21518793 -4.1875 206.9375 C-7.6875 207.5 -7.6875 207.5 -11.1875 206.9375 C-14.29169049 204.67851677 -15.1004709 203.46356675 -15.73339844 199.63769531 C-15.7543457 198.35991211 -15.77529297 197.08212891 -15.796875 195.765625 C-15.81341125 195.0832074 -15.82994751 194.40078979 -15.84698486 193.69769287 C-15.89539839 191.52753646 -15.91681865 189.35808028 -15.9375 187.1875 C-15.96566562 185.71220448 -15.99559389 184.23694149 -16.02734375 182.76171875 C-16.10115225 179.15379802 -16.15076894 175.54601028 -16.1875 171.9375 C-17.15373291 172.42379883 -18.11996582 172.91009766 -19.11547852 173.41113281 C-35.52489987 181.5699357 -53.40125438 187.74337746 -71.6875 182.3125 C-79.58618978 179.26219297 -86.55829579 174.13193202 -91.1875 166.9375 C-94.37819281 159.1137464 -94.58172621 149.80339862 -91.75 141.8125 C-87.8247782 133.36139968 -81.77469126 125.38471424 -74.1875 119.9375 C-75.56427688 116.8003666 -77.11255507 114.87123318 -79.625 112.5625 C-92.16507698 100.31882484 -107.77082971 81.43366114 -109.5234375 63.5 C-109.65477159 51.52233136 -109.65477159 51.52233136 -105.1875 46.9375 C-98.29848553 40.3480079 -91.92518855 39.35947956 -82.64453125 39.49609375 C-67.96553019 40.55383067 -53.4930714 47.04328881 -40.1875 52.9375 C-40.125625 51.638125 -40.06375 50.33875 -40 49 C-38.31179031 32.82512607 -31.51889526 12.24442762 -18.61328125 1.64453125 C-12.89673201 -2.2597786 -6.41158473 -2.13719491 0 0 Z " fill="#040302" transform="translate(170.1875,247.0625)"/>
<path d="M0 0 C3.08261456 -0.1746397 6.16395833 -0.28094067 9.25 -0.375 C10.12269531 -0.42527344 10.99539062 -0.47554687 11.89453125 -0.52734375 C14.39383132 -0.58457963 16.56353039 -0.56972743 19 0 C21.171875 2.8984375 21.171875 2.8984375 23 6 C26.5479171 7.22884281 26.5479171 7.22884281 30 8 C30.05733569 19.55217417 29.89763654 31.08186948 29.5625 42.62890625 C29.51745334 44.24128148 29.47261711 45.85366261 29.42797852 47.46604919 C29.31169254 51.64653489 29.19260886 55.82693602 29.07287598 60.00732422 C28.95048899 64.29845382 28.83083969 68.58965975 28.7109375 72.88085938 C28.47658813 81.25398187 28.23927343 89.62701677 28 98 C26.40969745 97.6924673 24.81996215 97.38200032 23.23046875 97.0703125 C22.34512451 96.89773926 21.45978027 96.72516602 20.54760742 96.54736328 C18 96 18 96 14.3125 94.875 C5.77898981 92.72427792 -4.30161978 92.54849724 -12.1953125 96.71875 C-15.67276317 99.18758943 -18.08502703 102.17005407 -20 106 C-20.95309518 115.88495862 -19.5102471 123.2314079 -15 132 C-14.5771875 132.89074219 -14.154375 133.78148437 -13.71875 134.69921875 C-7.67340521 146.73718731 1.54887301 156.80298035 10.78515625 166.4765625 C12.67876052 168.63400228 13.90868838 170.37345338 15 173 C14.5153125 173.36609375 14.030625 173.7321875 13.53125 174.109375 C5.76736238 180.38020731 -2.19338186 189.8794304 -4 200 C-4.77205337 208.21894795 -4.95270393 216.07155434 0 223 C6.28848435 230.1593946 13.75313026 234.01516302 23 236 C24.58692639 236.07866959 26.17678249 236.10784114 27.765625 236.09765625 C28.65507813 236.09443359 29.54453125 236.09121094 30.4609375 236.08789062 C31.38132812 236.07951172 32.30171875 236.07113281 33.25 236.0625 C34.18585938 236.05798828 35.12171875 236.05347656 36.0859375 236.04882812 C38.39069041 236.03706918 40.69531227 236.02063426 43 236 C43.12528076 236.68288086 43.25056152 237.36576172 43.37963867 238.06933594 C46.95295315 257.41871228 50.97974246 276.37869215 57.12084961 295.08764648 C59 300.8177884 59 300.8177884 59 303 C44.63108641 303.09351725 30.26222014 303.1637492 15.8930645 303.20724869 C9.22090676 303.228126 2.54899315 303.25644684 -4.12304688 303.30175781 C-10.56156296 303.3452094 -16.99988239 303.36913605 -23.43853378 303.37950897 C-25.89534476 303.38690148 -28.35214493 303.40133718 -30.80887222 303.42292023 C-34.2492832 303.45194397 -37.68888089 303.45595628 -41.12939453 303.45410156 C-42.14575485 303.46848267 -43.16211517 303.48286377 -44.20927429 303.49768066 C-49.95770064 303.46413366 -53.56285691 303.04091272 -58 299 C-62.13101397 294.12993179 -61.40888205 288.58853506 -61.36076355 282.5410614 C-61.36332682 281.3688933 -61.3658901 280.1967252 -61.36853105 278.98903686 C-61.37261745 275.73934964 -61.36324445 272.49002158 -61.34819686 269.24037683 C-61.33523987 265.73463799 -61.33962572 262.22891584 -61.34190369 258.72315979 C-61.34347664 252.65050478 -61.3340652 246.57794647 -61.31719017 240.50531578 C-61.29280765 231.72533054 -61.28499567 222.94539206 -61.2812262 214.16537664 C-61.27466054 199.92036456 -61.25469627 185.67540402 -61.22631836 171.43041992 C-61.19878075 157.59285744 -61.17754571 143.75530896 -61.16479492 129.91772461 C-61.16400675 129.06475749 -61.16321858 128.21179037 -61.16240653 127.33297577 C-61.15849141 123.05388465 -61.15470029 118.77479343 -61.15097082 114.49570215 C-61.11987135 78.99709802 -61.06703243 43.49855377 -61 8 C-60.32205887 7.99857498 -59.64411774 7.99714996 -58.94563293 7.99568176 C-51.8887182 7.97599354 -44.83266946 7.92173784 -37.77612305 7.84741211 C-35.14272271 7.82421678 -32.5092294 7.80983284 -29.87573242 7.80444336 C-26.08974157 7.79516572 -22.30521625 7.75419623 -18.51953125 7.70703125 C-17.34227982 7.7109639 -16.16502838 7.71489655 -14.95210266 7.71894836 C-8.28900322 7.80694421 -8.28900322 7.80694421 -2.7800293 4.58081055 C-1.02208489 2.16057431 -1.02208489 2.16057431 0 0 Z " fill="#FEE9B6" transform="translate(82,194)"/>
<path d="M0 0 C0.70744354 0.00141495 1.41488708 0.0028299 2.14376831 0.00428772 C4.40578419 0.00989025 6.66770148 0.02244307 8.9296875 0.03515625 C10.46223815 0.04017093 11.99479036 0.04473389 13.52734375 0.04882812 C17.28649638 0.05986048 21.04557522 0.07712673 24.8046875 0.09765625 C24.85802246 0.90299805 24.91135742 1.70833984 24.96630859 2.53808594 C25.04445801 3.60446289 25.12260742 4.67083984 25.203125 5.76953125 C25.27708496 6.82237305 25.35104492 7.87521484 25.42724609 8.95996094 C26.45341363 17.4905594 30.35469236 24.47106475 36.8046875 30.09765625 C44.66260999 36.06735337 53.38350537 36.13038149 62.8046875 35.09765625 C66.24523711 34.2656599 68.8717525 33.0627227 71.8046875 31.09765625 C72.51109375 30.63488281 73.2175 30.17210938 73.9453125 29.6953125 C80.89973363 24.42798242 84.0338451 17.16565743 85.328125 8.65625 C85.57681052 5.80980898 85.70270667 2.95311959 85.8046875 0.09765625 C91.0846875 0.09765625 96.3646875 0.09765625 101.8046875 0.09765625 C100.30220028 6.78372436 98.74028252 13.42574841 96.9296875 20.03515625 C87.20483388 56.12009464 81.71091184 92.98852501 77.8046875 130.09765625 C202.2146875 130.09765625 326.6246875 130.09765625 454.8046875 130.09765625 C454.8046875 90.49765625 454.8046875 50.89765625 454.8046875 10.09765625 C455.1346875 10.09765625 455.4646875 10.09765625 455.8046875 10.09765625 C455.8046875 50.02765625 455.8046875 89.95765625 455.8046875 131.09765625 C438.23532959 131.12738525 438.23532959 131.12738525 420.31103516 131.15771484 C382.87476449 131.22246221 345.43851906 131.29699049 308.00227956 131.37770786 C302.19162403 131.39022739 296.38096833 131.40266006 290.5703125 131.41503906 C288.83504756 131.41873805 288.83504756 131.41873805 287.06472676 131.42251177 C268.30992581 131.46228323 249.5551188 131.49501111 230.8003002 131.52515607 C211.56972124 131.55622175 192.3391681 131.59481003 173.10861814 131.64044631 C161.23327541 131.66838879 149.35795167 131.69039674 137.48258482 131.70491876 C129.34969549 131.71542515 121.21684282 131.73320929 113.08398105 131.75682329 C108.38510454 131.77024835 103.68627962 131.78036243 98.98738289 131.78186989 C94.69177568 131.78331844 90.39629295 131.79383465 86.10072391 131.81179066 C84.54081333 131.81666981 82.98088779 131.81812268 81.42097111 131.81593506 C79.31206605 131.81346152 77.20356444 131.82309127 75.09470558 131.83594322 C73.91985088 131.83822154 72.74499618 131.84049987 71.53453982 131.84284723 C68.6584379 131.81835286 68.6584379 131.81835286 66.8046875 134.09765625 C66.40704487 136.08586938 66.06693401 138.08709964 65.8046875 140.09765625 C65.4746875 139.43765625 65.1446875 138.77765625 64.8046875 138.09765625 C58.5346875 138.09765625 52.2646875 138.09765625 45.8046875 138.09765625 C45.4746875 138.75765625 45.1446875 139.41765625 44.8046875 140.09765625 C44.5365625 138.98390625 44.2684375 137.87015625 43.9921875 136.72265625 C43.14659731 132.87924674 43.14659731 132.87924674 39.8046875 131.09765625 C37.27962047 130.76943993 37.27962047 130.76943993 34.4152832 130.77880859 C33.31436844 130.7589389 32.21345367 130.73906921 31.07917786 130.71859741 C29.89160385 130.7070462 28.70402985 130.695495 27.48046875 130.68359375 C25.65566231 130.65454453 25.65566231 130.65454453 23.79399109 130.62490845 C19.90179493 130.56504604 16.00956931 130.51870007 12.1171875 130.47265625 C9.48110677 130.43448266 6.84503859 130.3954313 4.20898438 130.35546875 C-2.25900328 130.25933895 -8.72706632 130.17431086 -15.1953125 130.09765625 C-15.33561012 114.31182663 -15.44134545 98.52616592 -15.50618553 82.73986721 C-15.5370952 75.40961781 -15.57921936 68.07975627 -15.64794922 60.74975586 C-15.70784106 54.35926663 -15.74648268 47.96905835 -15.75984347 41.57829624 C-15.7676511 38.19573333 -15.78593732 34.81397401 -15.82969284 31.43166924 C-15.87325279 27.6511458 -15.87924624 23.87228676 -15.87646484 20.09155273 C-15.8980365 18.97592957 -15.91960815 17.8603064 -15.9418335 16.71087646 C-15.89176292 10.4207831 -15.18765135 6.83332452 -10.67917824 2.30490208 C-7.335757 -0.41524384 -4.10968444 -0.03075707 0 0 Z " fill="#F4465C" transform="translate(36.1953125,55.90234375)"/>
<path d="M0 0 C5.06231588 1.99572069 7.45849509 7.57760974 9.64453125 12.24609375 C14.34947968 23.3231097 17.1175422 34.39974539 18.29785156 46.37084961 C18.66727056 49.88689555 19.04104526 52.82640933 21.03125 55.80078125 C23.95160639 57.26095944 25.75400049 57.11254677 29.03125 56.80078125 C32.20896113 55.61071619 35.19643698 54.08755058 38.21875 52.55078125 C39.92021722 51.71666195 41.62333531 50.88590133 43.328125 50.05859375 C44.14216797 49.66317383 44.95621094 49.26775391 45.79492188 48.86035156 C50.10088101 46.82019189 54.47864316 45.19185556 59.03125 43.80078125 C59.9903125 43.50429688 60.949375 43.2078125 61.9375 42.90234375 C68.91335319 40.94263242 75.78615637 39.9277418 83.03125 40.80078125 C84.02125 41.46078125 85.01125 42.12078125 86.03125 42.80078125 C86.78861862 48.65582324 85.19505076 52.52670493 82.53125 57.55078125 C82.1695874 58.24961426 81.8079248 58.94844727 81.43530273 59.66845703 C75.15092772 71.51821465 66.59851772 81.54668403 56.90234375 90.73828125 C56.17337891 91.43864502 55.44441406 92.13900879 54.69335938 92.8605957 C53.23213386 94.2581572 51.75584679 95.64017094 50.26367188 97.00463867 C46.03295989 101.05957064 46.03295989 101.05957064 44.37890625 106.6015625 C45.05450684 109.91483726 45.29652786 110.93729802 48.03125 112.80078125 C49.42631453 113.59023637 50.84552674 114.33793963 52.28125 115.05078125 C60.47408021 119.51959773 64.95624138 125.53289186 69.03125 133.80078125 C69.36125 134.46078125 69.69125 135.12078125 70.03125 135.80078125 C70.42356417 140.50855125 70.50461758 142.87157822 68.34375 147.11328125 C63.76496888 152.43456742 58.2456821 154.38059234 51.40625 155.0625 C36.03667026 155.65520986 21.83562265 148.9902791 9.0859375 140.94140625 C7.03125 138.80078125 7.03125 138.80078125 6.54296875 135.78515625 C6.60097656 134.7178125 6.65898437 133.65046875 6.71875 132.55078125 C6.78642578 130.93429687 6.78642578 130.93429687 6.85546875 129.28515625 C6.91347656 128.4653125 6.97148437 127.64546875 7.03125 126.80078125 C13.09161819 128.54325678 18.24554347 131.557754 23.66601562 134.69921875 C28.30705369 137.26784359 31.58232216 138.40085305 37.03125 137.80078125 C39.11458333 136.88411458 39.11458333 136.88411458 40.03125 134.80078125 C40.94845924 131.38721781 40.94845924 131.38721781 40.03125 127.80078125 C38.57560122 126.4733819 38.57560122 126.4733819 36.64453125 125.4375 C35.91983643 125.01339844 35.1951416 124.58929688 34.44848633 124.15234375 C33.65079834 123.70632813 32.85311035 123.2603125 32.03125 122.80078125 C31.19553467 122.32898438 30.35981934 121.8571875 29.4987793 121.37109375 C26.85182791 119.89331313 24.19386608 118.43762678 21.53125 116.98828125 C20.15453125 116.23514648 20.15453125 116.23514648 18.75 115.46679688 C16.51157152 114.2426563 14.27198151 113.02069951 12.03125 111.80078125 C16.44725014 106.5700462 21.02245374 101.53043465 25.71875 96.55078125 C26.38197266 95.844375 27.04519531 95.13796875 27.72851562 94.41015625 C32.76641461 89.05263225 32.76641461 89.05263225 34.71435547 87.20019531 C36.43645911 85.37018084 36.46405001 84.28237834 36.46875 81.80078125 C36.34684465 78.92275495 36.23458688 78.05886267 34.40625 75.73828125 C31.18465014 74.46659709 29.36578118 74.9375824 26.03125 75.80078125 C23.63298668 77.53292331 23.63298668 77.53292331 21.54296875 79.8359375 C20.75470703 80.64482422 19.96644531 81.45371094 19.15429688 82.28710938 C18.35056641 83.13724609 17.54683594 83.98738281 16.71875 84.86328125 C15.09947514 86.54342157 13.47847972 88.22190597 11.85546875 89.8984375 C11.14479248 90.64617432 10.43411621 91.39391113 9.7019043 92.16430664 C8.03125 93.80078125 8.03125 93.80078125 7.03125 93.80078125 C7.00619385 92.51389404 6.9811377 91.22700684 6.95532227 89.90112305 C6.86123428 85.13197671 6.76101687 80.36297554 6.65893555 75.59399414 C6.61559197 73.52892449 6.57391648 71.46381913 6.53393555 69.39868164 C6.47621917 66.4323449 6.41252849 63.4661878 6.34765625 60.5 C6.33094376 59.57491135 6.31423126 58.64982269 6.29701233 57.69670105 C6.2670945 56.40570244 6.2670945 56.40570244 6.23657227 55.08862305 C6.21325584 53.95278023 6.21325584 53.95278023 6.18946838 52.79399109 C6.09492677 50.5915331 6.09492677 50.5915331 5.03125 47.80078125 C3.175 47.46046875 3.175 47.46046875 1.28125 47.11328125 C0.58515625 46.98566406 -0.1109375 46.85804688 -0.828125 46.7265625 C-3.75956047 46.82819986 -4.84701455 47.81917166 -6.96875 49.80078125 C-7.58116165 51.90278057 -7.58116165 51.90278057 -7.51464844 54.2722168 C-7.53436707 55.17292404 -7.55408569 56.07363129 -7.57440186 57.00163269 C-7.57563049 57.9704689 -7.57685913 58.93930511 -7.578125 59.9375 C-7.59466125 60.93207718 -7.61119751 61.92665436 -7.62823486 62.95137024 C-7.6768495 66.13040254 -7.69811594 69.30895605 -7.71875 72.48828125 C-7.74689837 74.64260239 -7.77682419 76.79690109 -7.80859375 78.95117188 C-7.88261161 84.23428768 -7.9341751 89.51726809 -7.96875 94.80078125 C-9.07436386 93.86913925 -10.17766914 92.93475724 -11.2800293 91.99926758 C-11.89468552 91.4792366 -12.50934174 90.95920563 -13.1426239 90.42341614 C-15.90558517 87.96834069 -18.33777305 85.25571706 -20.78125 82.48828125 C-25.10142077 77.28431865 -25.10142077 77.28431865 -31.40625 75.55078125 C-34.82650793 75.52804466 -34.82650793 75.52804466 -36.90625 76.92578125 C-38.49414858 79.72795521 -38.32325771 81.61406523 -37.96875 84.80078125 C-36.03438733 87.68567361 -36.03438733 87.68567361 -33.28125 90.36328125 C-32.79809326 90.86778809 -32.31493652 91.37229492 -31.81713867 91.89208984 C-29.03831793 94.77294644 -26.18643283 97.58081036 -23.34375 100.3984375 C-22.75037842 100.9874585 -22.15700684 101.57647949 -21.5456543 102.18334961 C-20.38177165 103.33273808 -19.21146251 104.47566003 -18.03442383 105.61157227 C-16.64270579 106.97160755 -15.30062529 108.38209056 -13.96875 109.80078125 C-13.96875 110.46078125 -13.96875 111.12078125 -13.96875 111.80078125 C-14.84200928 112.21440918 -15.71526855 112.62803711 -16.61499023 113.05419922 C-19.84762955 114.58736503 -23.07635807 116.12861438 -26.30395508 117.67236328 C-27.70263665 118.33994907 -29.10237547 119.0053244 -30.50317383 119.66845703 C-32.51403959 120.62086 -34.52099536 121.58109307 -36.52734375 122.54296875 C-37.15652206 122.83887909 -37.78570038 123.13478943 -38.4339447 123.43966675 C-41.82173241 124.93555158 -41.82173241 124.93555158 -43.96875 127.80078125 C-44.03825541 129.34102121 -44.05327357 130.88413113 -44.03125 132.42578125 C-44.02222656 133.24304688 -44.01320312 134.0603125 -44.00390625 134.90234375 C-43.99230469 135.52882813 -43.98070312 136.1553125 -43.96875 136.80078125 C-35.68456845 139.08148802 -29.99354641 135.55498478 -22.59375 131.86328125 C-20.25394407 130.72640486 -17.9128636 129.59214661 -15.5703125 128.4609375 C-14.54244629 127.95183838 -13.51458008 127.44273926 -12.45556641 126.91821289 C-9.96875 125.80078125 -9.96875 125.80078125 -7.96875 125.80078125 C-7.36338915 130.27372532 -7.14553065 134.3460183 -7.96875 138.80078125 C-13.1180481 145.20953971 -22.46139532 148.04504512 -29.96875 150.80078125 C-30.81050781 151.11015625 -31.65226562 151.41953125 -32.51953125 151.73828125 C-42.87870868 155.35964076 -53.55796295 156.74633327 -63.796875 152.05078125 C-67.42024148 149.96539047 -68.8987769 148.52673284 -70.96875 144.80078125 C-72.23726726 139.11703723 -71.29674831 134.71194263 -68.46875 129.67578125 C-63.22434091 121.85818078 -57.21642777 116.53309979 -48.97265625 112.02734375 C-46.82600909 110.95646384 -46.82600909 110.95646384 -45.96875 108.80078125 C-45.22970554 106.04030305 -45.22970554 106.04030305 -45.96875 102.80078125 C-48.25941874 99.93370498 -51.00927221 97.63030491 -53.78125 95.23828125 C-67.00759864 83.29889475 -86.38770067 64.87899368 -87.40625 45.80078125 C-87.261875 44.81078125 -87.1175 43.82078125 -86.96875 42.80078125 C-82.22361392 39.63735719 -77.52592012 40.29558397 -71.96875 40.80078125 C-59.63387241 43.3134415 -47.56547576 48.30918309 -36.46875 54.17578125 C-31.95519184 56.4902707 -29.00111201 57.76442504 -23.96875 56.80078125 C-20.10728417 53.73893517 -20.15723027 49.86047268 -19.59375 45.23828125 C-17.51132979 30.49756975 -14.54549855 13.0043655 -4.34375 1.48828125 C-1.96875 -0.19921875 -1.96875 -0.19921875 0 0 Z " fill="#FBA773" transform="translate(162.96875,261.19921875)"/>
<path d="M0 0 C2.09227849 -0.01183443 4.18154175 -0.06100161 6.27319336 -0.11157227 C14.42030873 -0.21080232 21.21705881 0.44702153 27.92749023 5.42553711 C34.67411951 12.56503053 34.17432328 20.08978912 34.22265625 29.31152344 C34.23414553 30.83700865 34.25454906 32.36245462 34.28417969 33.88769531 C34.62491764 51.43665163 34.62491764 51.43665163 28.51489258 57.92578125 C23.22735681 62.6926903 18.24222665 63.74645155 11.31811523 63.83178711 C10.59186951 63.84318726 9.86562378 63.8545874 9.11737061 63.86633301 C7.58440919 63.88516253 6.0513681 63.89827291 4.51831055 63.90600586 C2.19750106 63.92537014 -0.11972192 63.98743536 -2.43969727 64.05053711 C-9.80513432 64.16008394 -16.41320532 64.23814462 -22.34521484 59.27880859 C-29.32503783 51.78992714 -29.84383434 44.35823837 -29.66943359 34.51416016 C-29.63500677 32.36284965 -29.64884391 30.21563659 -29.66821289 28.06420898 C-29.6600294 19.43444197 -29.13200761 13.12983215 -23.32641602 6.40209961 C-22.76825195 5.95608398 -22.21008789 5.51006836 -21.63500977 5.05053711 C-21.07942383 4.58905273 -20.52383789 4.12756836 -19.95141602 3.65209961 C-13.73598883 -0.40537261 -7.14719813 0.01909462 0 0 Z " fill="#040403" transform="translate(339.072509765625,234.574462890625)"/>
<path d="M0 0 C1.47698573 -0.01148713 2.95393102 -0.03188726 4.43066406 -0.06152344 C19.74304345 -0.36862886 19.74304345 -0.36862886 26.54125977 4.29516602 C30.71863047 8.32181735 33.37008507 12.13663877 33.83178711 17.95874023 C33.85842369 19.42228055 33.87284179 20.8860773 33.87719727 22.34985352 C33.88385406 23.1290213 33.89051086 23.90818909 33.89736938 24.71096802 C33.90747718 26.35668585 33.91218698 28.00244452 33.91186523 29.64819336 C33.91623318 32.15490925 33.95255493 34.65985579 33.99047852 37.16625977 C33.99634832 38.76911836 34.00031662 40.37198528 34.00219727 41.97485352 C34.0165683 42.71879364 34.03093933 43.46273376 34.04574585 44.22921753 C33.99393333 50.1856222 32.06778962 53.69284027 27.97875977 57.90454102 C22.46507068 62.27953345 18.98897576 63.60878766 11.95922852 63.63110352 C11.22682449 63.63776031 10.49442047 63.64441711 9.73982239 63.65127563 C8.19245913 63.66138165 6.64505247 63.66609329 5.09765625 63.66577148 C2.74673364 63.67013267 0.39770836 63.70643627 -1.95288086 63.74438477 C-3.46133803 63.75025608 -4.96980406 63.75422337 -6.47827148 63.75610352 C-7.52081841 63.77766006 -7.52081841 63.77766006 -8.58442688 63.7996521 C-14.76720418 63.74263702 -18.94082177 61.67264281 -23.41967773 57.44360352 C-23.88631836 56.85836914 -24.35295898 56.27313477 -24.83374023 55.67016602 C-25.31584961 55.07977539 -25.79795898 54.48938477 -26.29467773 53.88110352 C-30.02050578 48.80497537 -28.76506511 41.28493075 -28.80883789 35.20288086 C-28.82533523 33.52500478 -28.85254269 31.84719715 -28.89086914 30.16967773 C-29.27262511 13.36245617 -29.27262511 13.36245617 -24.89331055 7.68603516 C-17.23287308 0.25895683 -10.16443824 0.05500359 0 0 Z " fill="#040403" transform="translate(421.458740234375,234.704833984375)"/>
<path d="M0 0 C0.75222839 -0.00902847 1.50445679 -0.01805695 2.27947998 -0.02735901 C3.86971065 -0.04184242 5.46000065 -0.05074351 7.05029297 -0.05444336 C9.46295904 -0.066301 11.87303257 -0.11546509 14.28515625 -0.16601562 C29.41259533 -0.32508118 29.41259533 -0.32508118 35.234375 5.37109375 C41.81412503 12.47029773 41.6368329 18.94280797 41.65991211 28.22265625 C41.67173024 30.46858396 41.72085799 32.71168947 41.77148438 34.95703125 C41.86545831 43.26200663 41.41137933 50.46933484 36.234375 57.37109375 C31.21113854 62.06509334 25.86982268 62.54471563 19.27734375 62.609375 C18.49676102 62.61744675 17.71617828 62.62551849 16.91194153 62.63383484 C15.26024586 62.64765695 13.60852185 62.65838748 11.95678711 62.66625977 C9.44133865 62.68346066 6.92720923 62.72735982 4.41210938 62.77148438 C2.80469713 62.78161317 1.19727375 62.79012869 -0.41015625 62.796875 C-1.53077202 62.82313713 -1.53077202 62.82313713 -2.67402649 62.84992981 C-8.65707569 62.82529774 -12.10764644 60.89359282 -16.375 56.84375 C-22.3026414 49.51539882 -22.13825125 42.8075224 -22.13623047 33.76147461 C-22.14059185 31.57520936 -22.17691364 29.39098525 -22.21484375 27.20507812 C-22.28070839 19.12475753 -22.28958753 12.06670747 -16.31787109 5.8684082 C-11.01992321 1.18458231 -6.94825493 0.05176342 0 0 Z " fill="#040303" transform="translate(331.765625,401.62890625)"/>
<path d="M0 0 C0.75697174 -0.00807175 1.51394348 -0.01614349 2.29385376 -0.02445984 C3.89249405 -0.03826092 5.49116332 -0.04900077 7.08984375 -0.05688477 C8.71916378 -0.06841604 10.3484457 -0.08888619 11.97753906 -0.1184082 C14.33945214 -0.16118263 16.70024721 -0.17726477 19.0625 -0.1875 C19.78456635 -0.20500809 20.50663269 -0.22251617 21.25057983 -0.24055481 C27.30200503 -0.21479859 30.78115623 1.91532231 35.02734375 6.0546875 C35.50558594 6.63089844 35.98382813 7.20710938 36.4765625 7.80078125 C37.21326172 8.66896484 37.21326172 8.66896484 37.96484375 9.5546875 C41.64054567 14.71503775 40.4673541 22.45217796 40.51416016 28.55151367 C40.53066941 30.12555783 40.55789317 31.69952858 40.59619141 33.27319336 C40.97774992 49.05478513 40.97774992 49.05478513 36.48876953 54.86499023 C31.44143095 60.09744131 26.94088758 62.41427382 19.61894226 62.59312439 C18.57973381 62.60116844 18.57973381 62.60116844 17.51953125 62.609375 C16.79091385 62.61840347 16.06229645 62.62743195 15.31159973 62.63673401 C13.77442504 62.65119387 12.2371894 62.66011262 10.69995117 62.66381836 C8.36855322 62.6756947 6.03982299 62.72489692 3.70898438 62.77539062 C-10.90251255 62.93407479 -10.90251255 62.93407479 -16.8359375 57.23828125 C-23.52319746 50.19906024 -23.20859638 42.82075823 -23.20654297 33.62866211 C-23.21090435 31.44239686 -23.24722614 29.25817275 -23.28515625 27.07226562 C-23.35601566 18.44031764 -22.96001815 12.0044885 -17.0546875 5.1796875 C-16.4875 4.72464844 -15.9203125 4.26960938 -15.3359375 3.80078125 C-14.76875 3.32769531 -14.2015625 2.85460937 -13.6171875 2.3671875 C-9.45705126 -0.26939008 -4.78059609 0.0486341 0 0 Z " fill="#040303" transform="translate(332.8359375,318.76171875)"/>
<path d="M0 0 C1.12197533 -0.00574036 1.12197533 -0.00574036 2.26661682 -0.01159668 C3.83897254 -0.01430257 5.41137429 -0.00703453 6.98364258 0.00976562 C9.36969025 0.03116734 11.75271744 0.00993792 14.13867188 -0.015625 C22.9552306 -0.03780589 30.01815269 -0.04155072 36.71801758 6.18139648 C42.24900122 12.75620398 41.78773911 20.59086517 41.61376953 28.72436523 C41.56642095 31.09301444 41.5726905 33.45716643 41.5859375 35.82617188 C41.55892949 44.58542427 41.45362856 51.6368302 35.30712891 58.30395508 C28.67451168 63.90271696 20.59693691 63.44301897 12.37597656 63.31347656 C9.94498356 63.28129735 7.52063416 63.31325914 5.08984375 63.3515625 C-2.4894289 63.37451113 -9.03100554 63.21702204 -15.33203125 58.50097656 C-20.1153797 53.04395517 -21.67830513 48.48855174 -21.66015625 41.2890625 C-21.6687265 40.52125458 -21.67729675 39.75344666 -21.68612671 38.96237183 C-21.69754847 37.34718751 -21.69866175 35.73190038 -21.68994141 34.11669922 C-21.68362517 31.6684295 -21.73057457 29.22501615 -21.78125 26.77734375 C-21.84650736 19.05193668 -21.85697016 12.67197639 -17.03271484 6.25341797 C-11.61207339 1.52460214 -7.14346864 -0.08211764 0 0 Z " fill="#050303" transform="translate(414.05859375,318.46875)"/>
<path d="M0 0 C2.31556081 0.04196359 4.62821331 0.04104955 6.9440918 0.03417969 C8.43434612 0.04467169 9.92458565 0.05760986 11.41479492 0.07324219 C12.09727798 0.0734436 12.77976105 0.07364502 13.48292542 0.07385254 C19.71889162 0.22549164 24.25724918 1.81697399 29.00463867 5.91699219 C33.37992266 11.02149017 34.71577725 14.69950185 34.68823242 21.40527344 C34.69347427 22.15608688 34.69871613 22.90690033 34.70411682 23.6804657 C34.71052076 25.26474781 34.7092211 26.84907756 34.70068359 28.43334961 C34.69220048 30.83697928 34.72090961 33.23820797 34.75268555 35.64160156 C34.81864181 50.00640682 34.81864181 50.00640682 30.25463867 56.54199219 C24.90948832 61.7500874 19.71017531 62.86123493 12.42651367 62.94824219 C11.30385101 62.96534241 11.30385101 62.96534241 10.1585083 62.98278809 C8.57846673 63.00162111 6.99834778 63.01472939 5.41821289 63.02246094 C3.02502031 63.04182725 0.63530372 63.10389202 -1.75708008 63.16699219 C-16.12542395 63.37280149 -16.12542395 63.37280149 -22.10205078 58.32324219 C-28.80375137 51.059001 -28.39883356 42.86809269 -28.32177734 33.42431641 C-28.30788917 31.04675771 -28.34206968 28.67312732 -28.38012695 26.29589844 C-28.45961329 12.1275982 -28.45961329 12.1275982 -24.3034668 7.03808594 C-23.78929199 6.544375 -23.27511719 6.05066406 -22.74536133 5.54199219 C-22.24665527 5.02765625 -21.74794922 4.51332031 -21.23413086 3.98339844 C-15.20654866 -0.91602667 -7.35333624 -0.1406141 0 0 Z " fill="#040302" transform="translate(420.745361328125,401.4580078125)"/>
<path d="M0 0 C0.71727778 1.64551962 1.38325228 3.31422289 2 5 C4.93321078 7.4129902 4.93321078 7.4129902 8.8125 6.625 C11.71154634 6.52337291 12.64717762 6.67670567 14.8203125 8.66796875 C18.99670795 14.20623228 20.84443915 18.9630071 20 26 C18.07020006 33.16607237 14.1288806 37.9140796 8 42 C-0.62593049 46.2504585 -10.3870636 47.53531111 -19.79296875 45.3515625 C-26.92138437 42.76543962 -32.50712117 38.45786418 -36.9375 32.3125 C-39.3449995 27.07264814 -40.08779677 21.49929804 -38.3515625 15.9140625 C-34.50089022 7.32410127 -27.75669748 3.26159071 -19.20703125 -0.09375 C-13.18379355 -1.79580986 -5.98494948 -2.18498156 0 0 Z " fill="#FEFCFD" transform="translate(186,109)"/>
<path d="M0 0 C21.95573394 -0.86100917 21.95573394 -0.86100917 31.875 6.75 C36.32582701 10.93777577 39.14667072 15.81987777 39.4375 22 C38.97946726 29.31421025 36.32253917 34.49968888 30.96484375 39.4609375 C22.29576313 46.25143007 12.71110674 46.81942893 2 46 C-5.95371141 44.19382203 -12.96426218 39.767995 -17.3828125 32.828125 C-19.74780505 28.03198625 -21.20206366 23.31332339 -20 18 C-18.20709292 13.88491438 -16.18409639 10.18409639 -13 7 C-10.90625 6.62109375 -10.90625 6.62109375 -8.5 6.4375 C-5.12355437 6.18963831 -5.12355437 6.18963831 -2 5 C-1.27840576 3.35636866 -0.60648579 1.68949614 0 0 Z " fill="#FEFCFD" transform="translate(326,109)"/>
<path d="M0 0 C4.9710149 2.53240382 8.49430567 5.98861134 11 11 C11.12359474 13.83500127 11.1884406 16.64441417 11.203125 19.48046875 C11.20882507 20.32668289 11.21452515 21.17289703 11.22039795 22.04475403 C11.22985499 23.83947498 11.23638472 25.63421334 11.24023438 27.42895508 C11.24990028 30.15933146 11.28089991 32.88894228 11.3125 35.61914062 C11.31903418 37.36457887 11.32428302 39.1100225 11.328125 40.85546875 C11.3404718 41.66614304 11.3528186 42.47681732 11.36553955 43.3120575 C11.3449461 48.62202473 10.50829205 52.29303087 8 57 C2.75041943 61.86546492 -0.91304207 62.46468697 -7.94140625 62.4140625 C-11.92221612 61.87515337 -13.85432794 60.53575893 -16.6953125 57.80078125 C-20.31555205 52.80398355 -20.32002539 47.90898989 -20.3359375 41.97265625 C-20.3425943 41.10611923 -20.3492511 40.23958221 -20.35610962 39.3467865 C-20.36620978 37.51872879 -20.37092746 35.69063441 -20.37060547 33.86254883 C-20.37498028 31.07506293 -20.41133105 28.28915938 -20.44921875 25.50195312 C-20.45508726 23.72135955 -20.45905643 21.9407585 -20.4609375 20.16015625 C-20.48249405 18.91770897 -20.48249405 18.91770897 -20.50448608 17.65016174 C-20.4623805 12.28376734 -19.54247145 9.26708629 -16 5 C-10.67166007 0.30598625 -7.02735501 -0.85323703 0 0 Z " fill="#F9EF97" transform="translate(425,15)"/>
<path d="M0 0 C4.9710149 2.53240382 8.49430567 5.98861134 11 11 C11.12367149 13.91939661 11.18845088 16.81394644 11.203125 19.734375 C11.20882507 20.60515686 11.21452515 21.47593872 11.22039795 22.37310791 C11.22985443 24.21910383 11.2363845 26.06511668 11.24023438 27.91113281 C11.2499137 30.72491302 11.28091969 33.53795463 11.3125 36.3515625 C11.31903277 38.145829 11.32428216 39.94010072 11.328125 41.734375 C11.3404718 42.57208435 11.3528186 43.4097937 11.36553955 44.27288818 C11.34666389 49.26632493 10.76550234 52.67303476 8 57 C2.82316998 61.67177343 -0.39353498 62.3478341 -7.234375 62.28515625 C-12.03009024 61.79068279 -14.67610045 59.46085468 -17.8125 56 C-20.52075869 51.4387222 -20.19137969 46.45488412 -20.23828125 41.2890625 C-20.246353 40.44330658 -20.25442474 39.59755066 -20.26274109 38.72616577 C-20.27654932 36.9392093 -20.28728601 35.15222682 -20.29516602 33.36523438 C-20.30669985 31.54191333 -20.32717385 29.71862642 -20.35668945 27.89550781 C-20.39941447 25.25562689 -20.41553995 22.61674645 -20.42578125 19.9765625 C-20.44328934 19.16700104 -20.46079742 18.35743958 -20.47883606 17.52334595 C-20.45854668 12.20096409 -19.50417716 9.23543149 -16 5 C-10.67166007 0.30598625 -7.02735501 -0.85323703 0 0 Z " fill="#F6E868" transform="translate(96,15)"/>
<path d="M0 0 C2.28855608 8.51507802 3.29820976 17.20281198 3 26 C11.28418155 28.28070677 16.97520359 24.75420353 24.375 21.0625 C26.71480593 19.92562361 29.0558864 18.79136536 31.3984375 17.66015625 C32.94023682 16.89650757 32.94023682 16.89650757 34.51318359 16.11743164 C37 15 37 15 39 15 C39.60536085 19.47294407 39.82321935 23.54523705 39 28 C33.8507019 34.40875846 24.50735468 37.24426387 17 40 C16.15824219 40.309375 15.31648438 40.61875 14.44921875 40.9375 C4.09004132 44.55885951 -6.58921295 45.94555202 -16.828125 41.25 C-20.45149148 39.16460922 -21.9300269 37.72595159 -24 34 C-25.26851726 28.31625598 -24.32799831 23.91116138 -21.5 18.875 C-15.78049548 10.34919654 -8.98257349 4.859425 0 0 Z " fill="#FA975A" transform="translate(116,372)"/>
<path d="M0 0 C4.78056377 1.02693592 9.40250606 2.33577399 14 4 C15.02641602 4.2784375 16.05283203 4.556875 17.11035156 4.84375 C20 7 20 7 20.6789856 9.28215027 C21.08752836 12.41447461 21.30198116 15.51301259 21.4609375 18.66796875 C21.54123199 19.81791824 21.62152649 20.96786774 21.70425415 22.15266418 C21.95478492 25.82974241 22.16531229 29.50788857 22.375 33.1875 C22.5377384 35.67920937 22.70307075 38.17075078 22.87109375 40.66210938 C23.27752637 46.77310858 23.65113791 52.88545888 24 59 C22.71194927 58.0417636 21.42496178 57.0820979 20.13842773 56.12182617 C19.42162338 55.58756516 18.70481903 55.05330414 17.96629333 54.50285339 C3.79986963 43.67534482 -9.35876615 25.92370155 -15 9 C-15.25 5.4375 -15.25 5.4375 -15 2 C-10.2604985 -1.15966767 -5.55095927 -0.51825604 0 0 Z " fill="#FB975A" transform="translate(91,302)"/>
<path d="M0 0 C1.19496094 -0.00386719 2.38992188 -0.00773438 3.62109375 -0.01171875 C4.87019531 -0.00011719 6.11929687 0.01148438 7.40625 0.0234375 C8.65535156 0.01183594 9.90445312 0.00023437 11.19140625 -0.01171875 C12.98384766 -0.00591797 12.98384766 -0.00591797 14.8125 0 C15.90884766 0.00338379 17.00519531 0.00676758 18.13476562 0.01025391 C20.90625 0.3984375 20.90625 0.3984375 22.7644043 1.54248047 C24.41879759 4.23153282 24.27807262 6.35081109 24.26953125 9.4921875 C24.26888672 10.68714844 24.26824219 11.88210938 24.26757812 13.11328125 C24.25146484 14.36238281 24.23535156 15.61148437 24.21875 16.8984375 C24.22197266 18.14753906 24.22519531 19.39664062 24.22851562 20.68359375 C24.17325255 29.99793367 24.17325255 29.99793367 21.90625 33.3984375 C19.15649414 33.78662109 19.15649414 33.78662109 15.69140625 33.796875 C13.82645508 33.80267578 13.82645508 33.80267578 11.92382812 33.80859375 C9.96606445 33.79119141 9.96606445 33.79119141 7.96875 33.7734375 C6.01678711 33.79083984 6.01678711 33.79083984 4.02539062 33.80859375 C2.78080078 33.80472656 1.53621094 33.80085938 0.25390625 33.796875 C-1.46300415 33.79179932 -1.46300415 33.79179932 -3.21459961 33.78662109 C-6.09375 33.3984375 -6.09375 33.3984375 -7.96557617 32.25439453 C-9.5988032 29.56757526 -9.48252787 27.43440924 -9.4921875 24.3046875 C-9.49605469 23.10972656 -9.49992187 21.91476562 -9.50390625 20.68359375 C-9.49230469 19.43449219 -9.48070312 18.18539063 -9.46875 16.8984375 C-9.48035156 15.64933594 -9.49195313 14.40023438 -9.50390625 13.11328125 C-9.50003906 11.91832031 -9.49617188 10.72335937 -9.4921875 9.4921875 C-9.48880371 8.39583984 -9.48541992 7.29949219 -9.48193359 6.16992188 C-9.09375 3.3984375 -9.09375 3.3984375 -7.94970703 1.54248047 C-5.2644724 -0.11274309 -3.13920733 0.00968891 0 0 Z " fill="#F9A672" transform="translate(334.09375,249.6015625)"/>
<path d="M0 0 C2.85742188 -0.37231445 2.85742188 -0.37231445 6.46875 -0.36328125 C7.76167969 -0.36263672 9.05460937 -0.36199219 10.38671875 -0.36132812 C11.06138184 -0.35302979 11.73604492 -0.34473145 12.43115234 -0.33618164 C14.49225951 -0.3125886 16.5520734 -0.31561974 18.61328125 -0.32226562 C28.7332276 -0.2667724 28.7332276 -0.2667724 31 2 C31.25878906 4.765625 31.25878906 4.765625 31.265625 8.25 C31.26949219 10.12171875 31.26949219 10.12171875 31.2734375 12.03125 C31.26570313 13.3409375 31.25796875 14.650625 31.25 16 C31.26160156 17.96453125 31.26160156 17.96453125 31.2734375 19.96875 C31.27085937 21.2165625 31.26828125 22.464375 31.265625 23.75 C31.26336914 24.89984375 31.26111328 26.0496875 31.25878906 27.234375 C31 30 31 30 29 32 C26.14257812 32.25878906 26.14257812 32.25878906 22.53125 32.265625 C21.23832031 32.26820313 19.94539063 32.27078125 18.61328125 32.2734375 C17.93861816 32.26924805 17.26395508 32.26505859 16.56884766 32.26074219 C14.50783843 32.2500407 12.44770081 32.26063943 10.38671875 32.2734375 C9.09378906 32.27085937 7.80085938 32.26828125 6.46875 32.265625 C5.27701172 32.26336914 4.08527344 32.26111328 2.85742188 32.25878906 C0 32 0 32 -2 30 C-2.25878906 27.34204102 -2.25878906 27.34204102 -2.265625 24.00390625 C-2.26820313 22.80572266 -2.27078125 21.60753906 -2.2734375 20.37304688 C-2.26570313 19.11556641 -2.25796875 17.85808594 -2.25 16.5625 C-2.25773437 15.30888672 -2.26546875 14.05527344 -2.2734375 12.76367188 C-2.27085937 11.56419922 -2.26828125 10.36472656 -2.265625 9.12890625 C-2.26336914 8.02619385 -2.26111328 6.92348145 -2.25878906 5.78735352 C-2 3 -2 3 0 0 Z " fill="#FCA873" transform="translate(327,417)"/>
<path d="M0 0 C1.29292969 -0.00257813 2.58585937 -0.00515625 3.91796875 -0.0078125 C4.59263184 -0.00362305 5.26729492 0.00056641 5.96240234 0.00488281 C8.02341157 0.0155843 10.08354919 0.00498557 12.14453125 -0.0078125 C13.43746094 -0.00523437 14.73039062 -0.00265625 16.0625 0 C17.25423828 0.00225586 18.44597656 0.00451172 19.67382812 0.00683594 C22.53125 0.265625 22.53125 0.265625 24.53125 2.265625 C24.79003906 5.03125 24.79003906 5.03125 24.796875 8.515625 C24.80074219 10.38734375 24.80074219 10.38734375 24.8046875 12.296875 C24.79695313 13.6065625 24.78921875 14.91625 24.78125 16.265625 C24.79285156 18.23015625 24.79285156 18.23015625 24.8046875 20.234375 C24.80210937 21.4821875 24.79953125 22.73 24.796875 24.015625 C24.79461914 25.16546875 24.79236328 26.3153125 24.79003906 27.5 C24.53125 30.265625 24.53125 30.265625 22.53125 32.265625 C18.39516547 32.66318952 14.25372431 32.59469122 10.10009766 32.58129883 C8.03885144 32.57813666 5.9790376 32.60160203 3.91796875 32.62695312 C2.62503906 32.62759766 1.33210938 32.62824219 0 32.62890625 C-1.19173828 32.63188721 -2.38347656 32.63486816 -3.61132812 32.63793945 C-4.55427734 32.51507568 -5.49722656 32.39221191 -6.46875 32.265625 C-8.80783019 28.75700472 -8.72588602 27.28631533 -8.734375 23.13671875 C-8.73695313 21.93724609 -8.73953125 20.73777344 -8.7421875 19.50195312 C-8.73445313 18.24833984 -8.72671875 16.99472656 -8.71875 15.703125 C-8.72648437 14.44564453 -8.73421875 13.18816406 -8.7421875 11.89257812 C-8.73960937 10.69439453 -8.73703125 9.49621094 -8.734375 8.26171875 C-8.73211914 7.16013428 -8.72986328 6.0585498 -8.72753906 4.92358398 C-8.18635165 -0.63481916 -4.72187844 0.00893811 0 0 Z " fill="#FCA873" transform="translate(333.46875,333.734375)"/>
<path d="M0 0 C1.14984375 -0.00257813 2.2996875 -0.00515625 3.484375 -0.0078125 C5.28648437 0.00378906 5.28648437 0.00378906 7.125 0.015625 C8.32640625 0.00789062 9.5278125 0.00015625 10.765625 -0.0078125 C12.49039062 -0.00394531 12.49039062 -0.00394531 14.25 0 C15.83167969 0.00338379 15.83167969 0.00338379 17.4453125 0.00683594 C20.125 0.265625 20.125 0.265625 23.125 2.265625 C23.49731445 5.12304687 23.49731445 5.12304687 23.48828125 8.734375 C23.48763672 10.02730469 23.48699219 11.32023437 23.48632812 12.65234375 C23.47802979 13.32700684 23.46973145 14.00166992 23.46118164 14.69677734 C23.4375886 16.75788451 23.44061974 18.8176984 23.44726562 20.87890625 C23.3917724 30.9988526 23.3917724 30.9988526 21.125 33.265625 C18.359375 33.52441406 18.359375 33.52441406 14.875 33.53125 C13.00328125 33.53511719 13.00328125 33.53511719 11.09375 33.5390625 C9.12921875 33.52746094 9.12921875 33.52746094 7.125 33.515625 C5.8153125 33.52335937 4.505625 33.53109375 3.15625 33.5390625 C1.9084375 33.53648437 0.660625 33.53390625 -0.625 33.53125 C-2.34976562 33.52786621 -2.34976562 33.52786621 -4.109375 33.52441406 C-6.875 33.265625 -6.875 33.265625 -8.875 31.265625 C-9.27256452 27.12954047 -9.20406622 22.98809931 -9.19067383 18.83447266 C-9.18751166 16.77322644 -9.21097703 14.7134126 -9.23632812 12.65234375 C-9.23697266 11.35941406 -9.23761719 10.06648438 -9.23828125 8.734375 C-9.24126221 7.54263672 -9.24424316 6.35089844 -9.24731445 5.12304688 C-9.12445068 4.18009766 -9.00158691 3.23714844 -8.875 2.265625 C-5.42139557 -0.03677795 -4.07000616 0.00870723 0 0 Z " fill="#FBA773" transform="translate(416.875,249.734375)"/>
<path d="M0 0 C1.87171875 -0.00386719 1.87171875 -0.00386719 3.78125 -0.0078125 C5.74578125 0.00378906 5.74578125 0.00378906 7.75 0.015625 C9.0596875 0.00789063 10.369375 0.00015625 11.71875 -0.0078125 C12.9665625 -0.00523437 14.214375 -0.00265625 15.5 0 C16.64984375 0.00225586 17.7996875 0.00451172 18.984375 0.00683594 C21.75 0.265625 21.75 0.265625 23.75 2.265625 C23.99291992 5.13891602 23.99291992 5.13891602 23.98046875 8.76953125 C23.97853516 10.06697266 23.97660156 11.36441406 23.97460938 12.70117188 C23.96530396 13.71618774 23.96530396 13.71618774 23.95581055 14.75170898 C23.93754052 16.82352971 23.93530095 18.89490397 23.93554688 20.96679688 C23.89008257 31.12554243 23.89008257 31.12554243 22.75 32.265625 C20.54349344 32.36574901 18.33377614 32.3964368 16.125 32.3984375 C15.46290527 32.39939423 14.80081055 32.40035095 14.11865234 32.40133667 C12.71647039 32.40201826 11.3142853 32.40016542 9.91210938 32.39599609 C7.75904287 32.39064746 5.60618498 32.3959417 3.453125 32.40234375 C2.09374954 32.40168296 0.7343742 32.40040179 -0.625 32.3984375 C-1.87023437 32.39730957 -3.11546875 32.39618164 -4.3984375 32.39501953 C-7.25 32.265625 -7.25 32.265625 -8.25 31.265625 C-8.46789186 27.14984911 -8.43579188 23.03097577 -8.43530273 18.90991211 C-8.43748734 16.84012236 -8.45563491 14.77086707 -8.47460938 12.70117188 C-8.47654297 11.40373047 -8.47847656 10.10628906 -8.48046875 8.76953125 C-8.48457764 7.57142822 -8.48868652 6.3733252 -8.49291992 5.13891602 C-8.01596263 -0.5026019 -4.85654611 0.00952798 0 0 Z " fill="#FEA974" transform="translate(416.25,416.734375)"/>
<path d="M0 0 C1.79715454 0.00616333 1.79715454 0.00616333 3.63061523 0.01245117 C4.92805664 0.01438477 6.22549805 0.01631836 7.56225586 0.01831055 C8.23893311 0.02451416 8.91561035 0.03071777 9.61279297 0.03710938 C11.68461369 0.0553794 13.75598795 0.05761897 15.82788086 0.05737305 C25.98662641 0.10283735 25.98662641 0.10283735 27.12670898 1.24291992 C27.34460085 5.35869581 27.31250087 9.47756915 27.31201172 13.59863281 C27.31419632 15.66842256 27.33234389 17.73767785 27.35131836 19.80737305 C27.35325195 21.10481445 27.35518555 22.40225586 27.35717773 23.73901367 C27.36128662 24.9371167 27.36539551 26.13521973 27.36962891 27.36962891 C27.12670898 30.24291992 27.12670898 30.24291992 25.12670898 32.24291992 C22.36108398 32.50170898 22.36108398 32.50170898 18.87670898 32.50854492 C17.00499023 32.51241211 17.00499023 32.51241211 15.09545898 32.51635742 C13.13092773 32.50475586 13.13092773 32.50475586 11.12670898 32.49291992 C9.81702148 32.5006543 8.50733398 32.50838867 7.15795898 32.51635742 C5.91014648 32.5137793 4.66233398 32.51120117 3.37670898 32.50854492 C1.65194336 32.50516113 1.65194336 32.50516113 -0.10766602 32.50170898 C-2.87329102 32.24291992 -2.87329102 32.24291992 -4.87329102 30.24291992 C-5.13208008 27.47729492 -5.13208008 27.47729492 -5.13891602 23.99291992 C-5.14149414 22.74510742 -5.14407227 21.49729492 -5.14672852 20.21166992 C-5.13899414 18.90198242 -5.13125977 17.59229492 -5.12329102 16.24291992 C-5.13102539 14.93323242 -5.13875977 13.62354492 -5.14672852 12.27416992 C-5.14415039 11.02635742 -5.14157227 9.77854492 -5.13891602 8.49291992 C-5.13666016 7.34307617 -5.1344043 6.19323242 -5.13208008 5.00854492 C-4.76681009 1.10498036 -3.89361377 0.32918223 0 0 Z " fill="#FEA974" transform="translate(412.873291015625,333.757080078125)"/>
<path d="M0 0 C2.16796875 1.27734375 2.16796875 1.27734375 4.1875 2.9375 C8.71308766 6.59777453 11.00053823 7.39996412 17 7 C20.39326461 5.64269415 22.78321898 4.18505697 25.5625 1.8125 C28 0 28 0 30.5 -0.5625 C34.29082295 0.29043516 35.74689043 1.88540736 38 5 C38.375 8.3125 38.375 8.3125 37 12 C31.12354995 19.17058961 24.49437027 22.21068423 15.4609375 23.30859375 C7.10885555 23.73524809 0.96470612 20.7948479 -5.5 15.6875 C-8.1976133 13.16287994 -9.01236703 11.96584344 -10.3125 8.375 C-10 5 -10 5 -7.875 2.0625 C-4.68301054 -0.22740548 -3.78924545 -0.45860762 0 0 Z " fill="#060202" transform="translate(242,101)"/>
<path d="M0 0 C0.60536085 4.47294407 0.82321935 8.54523705 0 13 C-5.14299006 19.40090755 -14.49138429 22.26120165 -22 25 C-23.00546875 25.37511719 -24.0109375 25.75023437 -25.046875 26.13671875 C-27.88086271 26.96517283 -30.07103073 27.17229231 -33 27 C-33.33951619 25.43883181 -33.67132544 23.87598662 -34 22.3125 C-34.185625 21.44238281 -34.37125 20.57226562 -34.5625 19.67578125 C-34.98972047 17.06287036 -35.07616201 14.64186962 -35 12 C-33.97495361 12.05414063 -32.94990723 12.10828125 -31.89379883 12.1640625 C-27.75575785 11.98970903 -25.40016343 11.16425349 -21.69921875 9.375 C-20.55775391 8.83359375 -19.41628906 8.2921875 -18.24023438 7.734375 C-16.48163086 6.87585938 -16.48163086 6.87585938 -14.6875 6 C-12.33988665 4.86935147 -9.98857364 3.74683879 -7.63671875 2.625 C-6.08537231 1.87089844 -6.08537231 1.87089844 -4.50268555 1.1015625 C-2 0 -2 0 0 0 Z " fill="#F9A672" transform="translate(155,387)"/>
<path d="M0 0 C2.46788657 1.66438862 3.78774669 2.96536301 4.39697266 5.93505859 C4.57633797 8.28231476 4.59463824 10.5838468 4.5625 12.9375 C4.58634766 13.73607422 4.61019531 14.53464844 4.63476562 15.35742188 C4.6239184 19.72162279 4.39869215 21.49048718 1.625 25.03515625 C-1 27 -1 27 -3.5625 27.5 C-6.45183375 26.90731615 -7.88353148 26.04088035 -10 24 C-11.27346955 20.17959134 -11.26233806 16.54535774 -11.3125 12.5625 C-11.34150391 11.79873047 -11.37050781 11.03496094 -11.40039062 10.24804688 C-11.44278647 6.50090642 -11.43713818 4.6078212 -9.19921875 1.49609375 C-5.97779109 -0.69539256 -3.80319481 -0.54331354 0 0 Z " fill="#050303" transform="translate(197,90)"/>
<path d="M0 0 C2.1953125 1.5 2.1953125 1.5 4 4 C4.34612503 6.98019513 4.4705768 9.53711928 4.375 12.5 C4.37371094 13.25925781 4.37242187 14.01851562 4.37109375 14.80078125 C4.25984889 21.85864977 4.25984889 21.85864977 2 25 C-1.09173752 26.54586876 -3.59429552 26.29359521 -7 26 C-9.1953125 24.54296875 -9.1953125 24.54296875 -11 22 C-11.58697897 18.9878711 -11.55865759 16.05997077 -11.5 13 C-11.51546875 12.19304687 -11.5309375 11.38609375 -11.546875 10.5546875 C-11.52159126 6.72420158 -11.46042207 4.64300324 -9.1875 1.46875 C-5.96971145 -0.69176517 -3.78357952 -0.54051136 0 0 Z " fill="#030102" transform="translate(322,90)"/>
</svg>
