<?xml version="1.0" encoding="UTF-8"?>
<svg version="1.1" xmlns="http://www.w3.org/2000/svg" width="512" height="512">
<path d="M0 0 C2.22292972 1.43344404 4.33765096 2.94773605 6.44921875 4.5390625 C7.31546875 5.1165625 8.18171875 5.6940625 9.07421875 6.2890625 C14.65896196 11.57987186 18.93104846 18.28080696 21.44921875 25.5390625 C21.44921875 26.5290625 21.44921875 27.5190625 21.44921875 28.5390625 C58.07921875 28.5390625 94.70921875 28.5390625 132.44921875 28.5390625 C133.93421875 24.0840625 133.93421875 24.0840625 135.44921875 19.5390625 C141.91006555 7.60490766 151.97335663 -0.17504636 164.6484375 -4.5703125 C177.47327718 -7.57551645 191.62690997 -6.45420904 203.11328125 0.046875 C213.34154578 6.69061178 219.82316469 15.30686305 224.44921875 26.5390625 C224.44921875 27.1990625 224.44921875 27.8590625 224.44921875 28.5390625 C225.60744141 28.51811523 226.76566406 28.49716797 227.95898438 28.47558594 C232.33499345 28.40213682 236.71095048 28.35688915 241.08740234 28.31933594 C242.96672789 28.29945568 244.84599358 28.27234163 246.72509766 28.23730469 C266.52747043 27.87783823 284.31651187 30.28934003 299.5078125 44.40234375 C312.8018658 59.03382695 316.76328035 74.51439198 316.70991516 93.89094543 C316.71293876 95.44933702 316.71682928 97.00772711 316.72150773 98.5661146 C316.73176973 102.83243374 316.72961049 107.09866866 316.72532713 111.36499465 C316.72285663 115.97248017 316.73187813 120.57994558 316.73936462 125.18742371 C316.75210484 134.20800898 316.75390614 143.22856447 316.75156436 152.24915723 C316.74978021 159.58293952 316.75153293 166.91671279 316.7557888 174.250494 C316.75638399 175.29489647 316.75697918 176.33929893 316.75759241 177.41534996 C316.75880418 179.53717338 316.76001831 181.6589968 316.76123478 183.78082021 C316.77210781 203.6733899 316.76994901 223.56594264 316.76384994 243.45851328 C316.75868156 261.64666116 316.76993456 279.83475547 316.78894816 298.02289275 C316.80833233 316.70912575 316.8165815 335.39533341 316.8128249 354.08157653 C316.81091367 364.56817906 316.81339284 375.05473601 316.82753944 385.54133034 C316.83946162 394.46919304 316.84084876 403.3969821 316.82874928 412.32484583 C316.82286636 416.87721689 316.8217449 421.4294533 316.83375168 425.98181534 C316.84462985 430.15487392 316.84148423 434.32768573 316.82748999 438.50073286 C316.82484837 440.00470497 316.82719269 441.50869654 316.83522586 443.01264951 C316.92433497 460.95054248 312.67368786 477.13880627 299.88671875 490.29296875 C289.54526323 499.82235485 277.30838849 506.65117678 262.99627018 506.67328358 C262.34721406 506.67563581 261.69815794 506.67798804 261.02943346 506.68041155 C258.84545698 506.68709058 256.66154015 506.68664366 254.47755432 506.68623352 C252.89944284 506.68953285 251.32133221 506.69325856 249.74322265 506.697375 C245.39915241 506.70739562 241.05509598 506.71111191 236.71101582 506.71376431 C232.02844284 506.71766726 227.34588081 506.72724572 222.66331482 506.73597717 C211.35002762 506.75574346 200.03673952 506.76580872 188.72343937 506.77470496 C183.39496563 506.77908823 178.06649289 506.784455 172.73801994 506.78969383 C155.0227164 506.80670747 137.30741347 506.82120088 119.592103 506.82844257 C114.99442608 506.83035246 110.39674917 506.83227279 105.79907227 506.83422852 C104.08498622 506.83495413 104.08498622 506.83495413 102.33627217 506.8356944 C83.8316126 506.84399179 65.32701772 506.86932321 46.82238639 506.90180919 C27.82103717 506.93489496 8.8197208 506.95289277 -10.18165737 506.95608681 C-20.84891811 506.95825067 -31.51608454 506.96698101 -42.18331718 506.99254799 C-51.26974817 507.01427582 -60.35606194 507.0222952 -69.44251596 507.01258121 C-74.07603061 507.00804235 -78.70930352 507.00989853 -83.34278488 507.02934265 C-87.59139731 507.0470171 -91.8395924 507.0459421 -96.08820952 507.03044536 C-97.61859886 507.02807574 -99.14901743 507.03235905 -100.67936223 507.04427401 C-117.7284658 507.16870582 -132.87854752 502.59712889 -145.48828125 490.73046875 C-155.52279647 480.06879633 -161.75408291 466.60114176 -161.84130859 451.90136719 C-161.84802582 451.18485992 -161.85474304 450.46835266 -161.86166382 449.73013306 C-161.88047682 447.39032849 -161.88455798 445.0508127 -161.88671875 442.7109375 C-161.8931532 441.07285447 -161.89988203 439.43477257 -161.90689087 437.79669189 C-161.91881799 434.37745495 -161.9225759 430.95831876 -161.92138672 427.5390625 C-161.9211826 423.15854222 -161.94859972 418.77866396 -161.98293114 414.39829636 C-162.00515308 411.02167789 -162.00922589 407.64521591 -162.00816727 404.2685318 C-162.0105259 402.65298478 -162.01936423 401.03743362 -162.034832 399.42195892 C-162.05441848 397.1672361 -162.04868677 394.91392499 -162.03662109 392.65917969 C-162.03947113 391.37758972 -162.04232117 390.09599976 -162.04525757 388.77557373 C-161.55078125 385.5390625 -161.55078125 385.5390625 -159.70791626 383.09405518 C-157.55078125 381.5390625 -157.55078125 381.5390625 -154.55078125 381.5390625 C-154.58383627 379.60083654 -154.6532803 377.66320582 -154.73828125 375.7265625 C-154.79048828 374.10814453 -154.79048828 374.10814453 -154.84375 372.45703125 C-155.26830881 369.33516464 -155.26830881 369.33516464 -158.0390625 367.71484375 C-159.28236328 367.13283203 -159.28236328 367.13283203 -160.55078125 366.5390625 C-162.16818964 364.92165411 -161.68042213 363.16022359 -161.68500233 360.92329025 C-161.68946017 359.91913157 -161.69391801 358.91497289 -161.69851094 357.88038516 C-161.69832658 356.76379055 -161.69814222 355.64719594 -161.69795227 354.49676514 C-161.70162896 353.32085288 -161.70530565 352.14494063 -161.70909375 350.93339467 C-161.71824272 347.65428933 -161.72283517 344.3752134 -161.72548306 341.09609747 C-161.72937806 337.56480978 -161.73895743 334.0335367 -161.74769592 330.5022583 C-161.76749075 321.96267898 -161.7775337 313.42309843 -161.78642371 304.88350189 C-161.79080465 300.86153516 -161.79617224 296.83956975 -161.80141258 292.81760406 C-161.81843347 279.44393055 -161.83292469 266.07025786 -161.84016132 252.69657516 C-161.84207124 249.22317249 -161.84399156 245.74976983 -161.84594727 242.27636719 C-161.84643101 241.41306444 -161.84691475 240.54976169 -161.84741315 239.66029826 C-161.85570219 225.69493936 -161.88101616 211.72966643 -161.91352794 197.76434502 C-161.94664167 183.42326149 -161.96461427 169.08222155 -161.96780556 154.7410996 C-161.96996747 146.69061413 -161.97866836 138.64025376 -162.00426674 130.5898056 C-162.02603335 123.72843805 -162.03399528 116.86722592 -162.02429996 110.00582775 C-162.01977141 106.50847857 -162.02155587 103.01144964 -162.0410614 99.5141449 C-162.05881552 95.7108839 -162.05165538 91.90842599 -162.03852844 88.10516357 C-162.04949769 87.01533763 -162.06046693 85.92551168 -162.07176858 84.8026607 C-161.94063878 68.9792993 -155.64006933 56.24866249 -144.96484375 44.859375 C-132.70369625 33.07438856 -118.13989327 28.14430513 -101.38671875 28.34375 C-100.46863434 28.3465799 -99.55054993 28.34940979 -98.60464478 28.35232544 C-95.71154989 28.36339851 -92.81878039 28.38847783 -89.92578125 28.4140625 C-87.94792118 28.42410898 -85.97005619 28.43323189 -83.9921875 28.44140625 C-79.17826266 28.46329545 -74.36457685 28.49773418 -69.55078125 28.5390625 C-69.41124023 27.60191406 -69.27169922 26.66476563 -69.12792969 25.69921875 C-67.46203746 16.57768366 -60.10837025 8.26028262 -52.86328125 2.9140625 C-37.40137117 -7.53254939 -16.44419752 -9.41826933 0 0 Z " fill="#F3F3F3" transform="translate(178.55078125,5.4609375)"/>
<path d="M0 0 C2.22292972 1.43344404 4.33765096 2.94773605 6.44921875 4.5390625 C7.31546875 5.1165625 8.18171875 5.6940625 9.07421875 6.2890625 C14.65896196 11.57987186 18.93104846 18.28080696 21.44921875 25.5390625 C21.44921875 26.5290625 21.44921875 27.5190625 21.44921875 28.5390625 C58.07921875 28.5390625 94.70921875 28.5390625 132.44921875 28.5390625 C133.93421875 24.0840625 133.93421875 24.0840625 135.44921875 19.5390625 C141.91006555 7.60490766 151.97335663 -0.17504636 164.6484375 -4.5703125 C177.47327718 -7.57551645 191.62690997 -6.45420904 203.11328125 0.046875 C213.34154578 6.69061178 219.82316469 15.30686305 224.44921875 26.5390625 C224.44921875 27.1990625 224.44921875 27.8590625 224.44921875 28.5390625 C225.60744141 28.51811523 226.76566406 28.49716797 227.95898438 28.47558594 C232.33499345 28.40213682 236.71095048 28.35688915 241.08740234 28.31933594 C242.96672789 28.29945568 244.84599358 28.27234163 246.72509766 28.23730469 C266.52747043 27.87783823 284.31651187 30.28934003 299.5078125 44.40234375 C312.8018658 59.03382695 316.76328035 74.51439198 316.70991516 93.89094543 C316.71293876 95.44933702 316.71682928 97.00772711 316.72150773 98.5661146 C316.73176973 102.83243374 316.72961049 107.09866866 316.72532713 111.36499465 C316.72285663 115.97248017 316.73187813 120.57994558 316.73936462 125.18742371 C316.75210484 134.20800898 316.75390614 143.22856447 316.75156436 152.24915723 C316.74978021 159.58293952 316.75153293 166.91671279 316.7557888 174.250494 C316.75638399 175.29489647 316.75697918 176.33929893 316.75759241 177.41534996 C316.75880418 179.53717338 316.76001831 181.6589968 316.76123478 183.78082021 C316.77210781 203.6733899 316.76994901 223.56594264 316.76384994 243.45851328 C316.75868156 261.64666116 316.76993456 279.83475547 316.78894816 298.02289275 C316.80833233 316.70912575 316.8165815 335.39533341 316.8128249 354.08157653 C316.81091367 364.56817906 316.81339284 375.05473601 316.82753944 385.54133034 C316.83946162 394.46919304 316.84084876 403.3969821 316.82874928 412.32484583 C316.82286636 416.87721689 316.8217449 421.4294533 316.83375168 425.98181534 C316.84462985 430.15487392 316.84148423 434.32768573 316.82748999 438.50073286 C316.82484837 440.00470497 316.82719269 441.50869654 316.83522586 443.01264951 C316.92433497 460.95054248 312.67368786 477.13880627 299.88671875 490.29296875 C289.54526323 499.82235485 277.30838849 506.65117678 262.99627018 506.67328358 C262.34721406 506.67563581 261.69815794 506.67798804 261.02943346 506.68041155 C258.84545698 506.68709058 256.66154015 506.68664366 254.47755432 506.68623352 C252.89944284 506.68953285 251.32133221 506.69325856 249.74322265 506.697375 C245.39915241 506.70739562 241.05509598 506.71111191 236.71101582 506.71376431 C232.02844284 506.71766726 227.34588081 506.72724572 222.66331482 506.73597717 C211.35002762 506.75574346 200.03673952 506.76580872 188.72343937 506.77470496 C183.39496563 506.77908823 178.06649289 506.784455 172.73801994 506.78969383 C155.0227164 506.80670747 137.30741347 506.82120088 119.592103 506.82844257 C114.99442608 506.83035246 110.39674917 506.83227279 105.79907227 506.83422852 C104.08498622 506.83495413 104.08498622 506.83495413 102.33627217 506.8356944 C83.8316126 506.84399179 65.32701772 506.86932321 46.82238639 506.90180919 C27.82103717 506.93489496 8.8197208 506.95289277 -10.18165737 506.95608681 C-20.84891811 506.95825067 -31.51608454 506.96698101 -42.18331718 506.99254799 C-51.26974817 507.01427582 -60.35606194 507.0222952 -69.44251596 507.01258121 C-74.07603061 507.00804235 -78.70930352 507.00989853 -83.34278488 507.02934265 C-87.59139731 507.0470171 -91.8395924 507.0459421 -96.08820952 507.03044536 C-97.61859886 507.02807574 -99.14901743 507.03235905 -100.67936223 507.04427401 C-117.7284658 507.16870582 -132.87854752 502.59712889 -145.48828125 490.73046875 C-155.52279647 480.06879633 -161.75408291 466.60114176 -161.84130859 451.90136719 C-161.84802582 451.18485992 -161.85474304 450.46835266 -161.86166382 449.73013306 C-161.88047682 447.39032849 -161.88455798 445.0508127 -161.88671875 442.7109375 C-161.8931532 441.07285447 -161.89988203 439.43477257 -161.90689087 437.79669189 C-161.91881799 434.37745495 -161.9225759 430.95831876 -161.92138672 427.5390625 C-161.9211826 423.15854222 -161.94859972 418.77866396 -161.98293114 414.39829636 C-162.00515308 411.02167789 -162.00922589 407.64521591 -162.00816727 404.2685318 C-162.0105259 402.65298478 -162.01936423 401.03743362 -162.034832 399.42195892 C-162.05441848 397.1672361 -162.04868677 394.91392499 -162.03662109 392.65917969 C-162.03947113 391.37758972 -162.04232117 390.09599976 -162.04525757 388.77557373 C-161.46508889 384.97817762 -160.60656416 383.79574326 -157.55078125 381.5390625 C-154.61328125 380.9765625 -154.61328125 380.9765625 -151.55078125 381.5390625 C-148.33634791 384.10138036 -146.73556213 385.59149011 -145.9384613 389.67909241 C-145.94386429 390.85757248 -145.94926727 392.03605255 -145.95483398 393.25024414 C-145.95077545 393.90469513 -145.94671692 394.55914612 -145.9425354 395.23342896 C-145.93703388 396.64876895 -145.94298273 398.0641905 -145.95919609 399.47944832 C-145.98473608 401.73105185 -145.97977821 403.98083457 -145.96730042 406.23252869 C-145.94657914 411.02240784 -145.96617059 415.8117209 -145.98828125 420.6015625 C-146.00949298 426.13280014 -146.01369275 431.66344322 -145.98777962 437.19466972 C-145.98446026 439.39275634 -146.00550416 441.58966428 -146.02818298 443.78761292 C-146.0521268 454.9592182 -144.10330919 464.52010472 -137.69921875 473.8203125 C-136.55078125 475.5390625 -136.55078125 475.5390625 -135.65234375 477.6328125 C-134.26792694 480.02854088 -133.05406026 480.44129427 -130.55078125 481.5390625 C-128.49621559 482.99963492 -126.4693031 484.49080522 -124.453125 486.00390625 C-116.32544344 490.30293566 -107.74878256 490.97967993 -98.71199036 490.93778992 C-97.57144768 490.94443674 -96.430905 490.95108357 -95.25580043 490.95793182 C-91.46186354 490.976476 -87.6682444 490.97396224 -83.87426758 490.97143555 C-81.1436027 490.97880565 -78.41296148 490.99065616 -75.68231201 491.00231934 C-69.81769537 491.02503805 -63.95313786 491.03697877 -58.08848 491.04144859 C-49.60934818 491.04792688 -41.13032295 491.07089364 -32.65123423 491.09779189 C-18.89209762 491.14099646 -5.13296551 491.17099929 8.6262207 491.19262695 C21.98626925 491.21365566 35.34628099 491.24094722 48.70629883 491.27661133 C49.53080664 491.27881015 50.35531446 491.28100898 51.20480736 491.28327443 C55.3414184 491.29434456 59.4780291 491.30553728 63.61463964 491.31679094 C97.8928016 491.40988635 132.17097908 491.48152582 166.44921875 491.5390625 C166.4403363 490.47798782 166.43145386 489.41691315 166.42230225 488.32368469 C166.34087407 478.27666812 166.28109001 468.22971935 166.24197006 458.18244648 C166.22118129 453.01821853 166.19302448 447.85425904 166.14746094 442.69018555 C166.10369039 437.69753097 166.08001631 432.70513304 166.06970978 427.71230125 C166.06237403 425.81669264 166.04805055 423.92109653 166.02629852 422.02559853 C165.81065182 402.43761239 169.7515523 387.07560543 183.41015625 372.4375 C213.04499237 343.90433065 267.79720034 356.5390625 300.44921875 356.5390625 C300.44921875 294.8290625 300.44921875 233.1190625 300.44921875 169.5390625 C264.47314694 169.69740848 264.47314694 169.69740848 228.49731445 169.89941406 C221.53747559 169.91748047 221.53747559 169.91748047 218.2787323 169.9208374 C216.0039202 169.92697767 213.72912108 169.94104181 211.45439148 169.96136475 C208.00753173 169.99061894 204.56146714 169.99468744 201.11450195 169.99316406 C199.59570796 170.01475271 199.59570796 170.01475271 198.04623127 170.0367775 C193.64439845 170.01071206 191.14706268 169.9630095 187.31974792 167.63787842 C185.27684722 165.34565407 184.80957881 164.49627622 184.94921875 161.4765625 C185.44921875 157.5390625 185.44921875 157.5390625 186.68980122 155.81551647 C188.96655693 154.16373467 190.29979956 154.16897564 193.09989929 154.17829895 C194.53228439 154.17211296 194.53228439 154.17211296 195.99360657 154.165802 C197.56237801 154.18198074 197.56237801 154.18198074 199.1628418 154.19848633 C200.26543335 154.19804825 201.3680249 154.19761017 202.50402832 154.19715881 C206.15651014 154.19925252 209.80853565 154.22261161 213.4609375 154.24609375 C215.99013518 154.25168762 218.51933611 154.2559587 221.04853821 154.25895691 C227.03028695 154.26924959 233.01183917 154.29290512 238.99350911 154.32300538 C245.80358309 154.35653077 252.61366488 154.37303069 259.42380083 154.38809168 C273.4323645 154.4194543 287.44078263 154.47222639 301.44921875 154.5390625 C301.41096394 145.24531006 301.35131864 135.95200041 301.26531601 126.65856647 C301.2260212 122.3419436 301.19374546 118.02551924 301.17822266 113.70874023 C301.1629362 109.53281401 301.12828274 105.3574342 301.08090973 101.18175316 C301.06621824 99.59883598 301.05818487 98.01584073 301.0573349 96.43285561 C301.04082825 81.08743204 298.33227704 68.70045457 288.13671875 56.8515625 C278.69531917 48.72756751 269.83070564 45.11853474 257.3828125 45.02734375 C256.00356346 45.00041695 256.00356346 45.00041695 254.59645081 44.97294617 C251.69325183 44.91926989 248.79021314 44.88508569 245.88671875 44.8515625 C243.90427477 44.81835166 241.92185183 44.78385858 239.93945312 44.74804688 C235.10949151 44.6635685 230.27957389 44.59655538 225.44921875 44.5390625 C225.4592115 45.48627419 225.4592115 45.48627419 225.46940613 46.45262146 C225.5360414 53.05552045 225.581136 59.6583231 225.61401367 66.26147461 C225.62905215 68.72212609 225.64948817 71.18275099 225.67553711 73.64331055 C225.71213731 77.19065942 225.7289951 80.73765227 225.7421875 84.28515625 C225.75767136 85.3761412 225.77315521 86.46712616 225.78910828 87.59117126 C225.79183011 100.08845371 221.37810313 111.66421823 212.69921875 120.8515625 C202.05216782 130.74824984 189.35023415 134.97459879 174.98828125 134.8125 C162.21660161 133.82572564 150.64650374 127.66450841 141.94140625 118.35546875 C124.43988616 97.05126236 131.44921875 72.62596296 131.44921875 44.5390625 C95.80921875 44.5390625 60.16921875 44.5390625 23.44921875 44.5390625 C23.44921875 60.3790625 23.44921875 76.2190625 23.44921875 92.5390625 C21.37506177 101.87276893 19.08491071 108.85402801 13.44921875 116.5390625 C12.74796875 117.5084375 12.04671875 118.4778125 11.32421875 119.4765625 C4.37638052 127.57175017 -6.07917932 132.90573684 -16.55078125 134.5390625 C-30.87402225 135.49603698 -41.89517615 133.35301181 -53.55078125 124.5390625 C-54.88109375 123.6109375 -54.88109375 123.6109375 -56.23828125 122.6640625 C-61.79157384 117.56103687 -65.48986331 111.37067645 -68.55078125 104.5390625 C-69.13859375 103.270625 -69.13859375 103.270625 -69.73828125 101.9765625 C-71.96977391 95.28208453 -71.68393635 88.32837825 -71.6484375 81.35546875 C-71.64702255 80.29996323 -71.6456076 79.2444577 -71.64414978 78.15696716 C-71.63857847 74.80513607 -71.62603127 71.45337321 -71.61328125 68.1015625 C-71.60826254 65.82096451 -71.60370028 63.54036547 -71.59960938 61.25976562 C-71.58861845 55.68617487 -71.57190901 50.11262356 -71.55078125 44.5390625 C-77.22543628 44.60831694 -82.89938084 44.69646429 -88.57348633 44.80151367 C-90.50048894 44.8346015 -92.42758471 44.86268278 -94.35473633 44.88549805 C-97.13793334 44.91934287 -99.92028896 44.9716711 -102.703125 45.02734375 C-103.97868507 45.03692863 -103.97868507 45.03692863 -105.28001404 45.04670715 C-116.87656431 45.32658043 -127.26685791 49.77100682 -135.30078125 58.1640625 C-142.38747337 66.44012952 -145.66709124 75.20134425 -145.75610352 85.96972656 C-145.77095291 87.08250977 -145.77095291 87.08250977 -145.78610229 88.21777344 C-145.81762272 90.66337929 -145.8424372 93.10900455 -145.8671875 95.5546875 C-145.8877652 97.2529144 -145.90876189 98.95113627 -145.93016052 100.64935303 C-145.98529692 105.1143384 -146.03474332 109.57936935 -146.08300781 114.04443359 C-146.13328447 118.60258022 -146.18893834 123.16066084 -146.24414062 127.71875 C-146.35161903 136.65879775 -146.45308684 145.59890286 -146.55078125 154.5390625 C-145.55269433 154.53735376 -145.55269433 154.53735376 -144.53444403 154.5356105 C-105.12849611 154.46852713 -65.72255553 154.41702858 -26.3165621 154.38586651 C-21.58872685 154.38211423 -16.86089172 154.37823128 -12.13305664 154.37426758 C-10.72117156 154.37308718 -10.72117156 154.37308718 -9.28076354 154.37188294 C5.97499689 154.35881658 21.23072352 154.33515599 36.48646388 154.30760411 C52.13149794 154.27958408 67.77651426 154.26289346 83.42157239 154.25679702 C93.08126763 154.2526735 102.74086737 154.23963349 112.40053322 154.2153131 C119.01776579 154.19949787 125.63494874 154.19465254 132.25219885 154.19855837 C136.07431401 154.20048651 139.89626188 154.19745875 143.71834755 154.18144608 C147.85562145 154.16423881 151.99253574 154.17007086 156.12983704 154.17829895 C157.34674722 154.16956043 158.56365741 154.1608219 159.81744367 154.15181857 C160.92068642 154.15779172 162.02392917 154.16376486 163.16060352 154.16991901 C164.11635959 154.16877985 165.07211567 154.16764069 166.05683404 154.16646701 C168.44921875 154.5390625 168.44921875 154.5390625 170.2485072 155.81604022 C171.93148328 158.23111259 171.90988395 160.62594736 172.04296875 163.50390625 C171.04396547 166.92812144 169.5333837 167.72947155 166.44921875 169.5390625 C162.29223827 170.14280002 158.15914473 170.06068925 153.96525574 170.02008057 C152.68283172 170.02349827 151.40040771 170.02691597 150.07912236 170.03043723 C146.52154553 170.03938181 142.96445033 170.02338121 139.40693486 170.00332499 C135.56990461 169.98605668 131.73290168 169.99189624 127.89584351 169.99493408 C121.24857838 169.99703184 114.60147025 169.9844782 107.95424461 169.96198273 C98.34349049 169.92947928 88.73281232 169.91905741 79.1220092 169.91403076 C63.52929447 169.90527551 47.93666343 169.87865368 32.34399414 169.84082031 C17.19686298 169.80410619 2.04975456 169.7757915 -13.09741211 169.75878906 C-14.03102811 169.75773817 -14.96464411 169.75668727 -15.9265515 169.75560454 C-20.61021249 169.7503844 -25.29387363 169.74532956 -29.97753489 169.74035692 C-68.83534227 169.69888771 -107.69305624 169.62843301 -146.55078125 169.5390625 C-146.5438678 171.03188515 -146.5438678 171.03188515 -146.53681469 172.55486584 C-146.4258742 196.75764762 -146.3436798 220.96039647 -146.29172039 245.16337872 C-146.26592607 256.86771868 -146.23075189 268.5718908 -146.17358398 280.27612305 C-146.12378684 290.47615873 -146.09149918 300.67607287 -146.08033878 310.87622672 C-146.07381381 316.27843857 -146.0584525 321.68030267 -146.02213097 327.08240318 C-145.98822996 332.1656132 -145.97771644 337.24833173 -145.98524284 342.33164406 C-145.98386566 344.19852493 -145.97389814 346.06542198 -145.95475388 347.9322052 C-145.92990733 350.47967596 -145.93584445 353.02528668 -145.94950867 355.57279968 C-145.93494446 356.31307944 -145.92038025 357.05335921 -145.90537471 357.81607169 C-145.9626382 361.76047839 -146.42369119 363.38443172 -148.96336079 366.47445393 C-152.80400692 369.5390625 -152.80400692 369.5390625 -155.55078125 369.5390625 C-157.79434419 368.39119309 -159.76035795 367.3294858 -161.55078125 365.5390625 C-161.65126902 364.00310501 -161.68185069 362.46252814 -161.68500233 360.92329025 C-161.68946017 359.91913157 -161.69391801 358.91497289 -161.69851094 357.88038516 C-161.69832658 356.76379055 -161.69814222 355.64719594 -161.69795227 354.49676514 C-161.70162896 353.32085288 -161.70530565 352.14494063 -161.70909375 350.93339467 C-161.71824272 347.65428933 -161.72283517 344.3752134 -161.72548306 341.09609747 C-161.72937806 337.56480978 -161.73895743 334.0335367 -161.74769592 330.5022583 C-161.76749075 321.96267898 -161.7775337 313.42309843 -161.78642371 304.88350189 C-161.79080465 300.86153516 -161.79617224 296.83956975 -161.80141258 292.81760406 C-161.81843347 279.44393055 -161.83292469 266.07025786 -161.84016132 252.69657516 C-161.84207124 249.22317249 -161.84399156 245.74976983 -161.84594727 242.27636719 C-161.84643101 241.41306444 -161.84691475 240.54976169 -161.84741315 239.66029826 C-161.85570219 225.69493936 -161.88101616 211.72966643 -161.91352794 197.76434502 C-161.94664167 183.42326149 -161.96461427 169.08222155 -161.96780556 154.7410996 C-161.96996747 146.69061413 -161.97866836 138.64025376 -162.00426674 130.5898056 C-162.02603335 123.72843805 -162.03399528 116.86722592 -162.02429996 110.00582775 C-162.01977141 106.50847857 -162.02155587 103.01144964 -162.0410614 99.5141449 C-162.05881552 95.7108839 -162.05165538 91.90842599 -162.03852844 88.10516357 C-162.04949769 87.01533763 -162.06046693 85.92551168 -162.07176858 84.8026607 C-161.94063878 68.9792993 -155.64006933 56.24866249 -144.96484375 44.859375 C-132.70369625 33.07438856 -118.13989327 28.14430513 -101.38671875 28.34375 C-100.46863434 28.3465799 -99.55054993 28.34940979 -98.60464478 28.35232544 C-95.71154989 28.36339851 -92.81878039 28.38847783 -89.92578125 28.4140625 C-87.94792118 28.42410898 -85.97005619 28.43323189 -83.9921875 28.44140625 C-79.17826266 28.46329545 -74.36457685 28.49773418 -69.55078125 28.5390625 C-69.41124023 27.60191406 -69.27169922 26.66476563 -69.12792969 25.69921875 C-67.46203746 16.57768366 -60.10837025 8.26028262 -52.86328125 2.9140625 C-37.40137117 -7.53254939 -16.44419752 -9.41826933 0 0 Z " fill="#020302" transform="translate(178.55078125,5.4609375)"/>
<path d="M0 0 C1.35444466 0.00212242 1.35444466 0.00212242 2.73625183 0.00428772 C5.60935838 0.00986802 8.48238591 0.02241691 11.35546875 0.03515625 C13.30794158 0.0401738 15.26041564 0.04473626 17.21289062 0.04882812 C21.9896136 0.059831 26.76627779 0.07708207 31.54296875 0.09765625 C31.5510556 0.6790184 31.55914246 1.26038055 31.56747437 1.85935974 C31.65393817 7.94347971 31.75345692 14.02728942 31.86035156 20.11108398 C31.89849098 22.37763229 31.93336932 24.64423802 31.96484375 26.91088867 C32.01082215 30.18038371 32.06876141 33.4494885 32.12890625 36.71875 C32.14045746 37.72223984 32.15200867 38.72572968 32.16390991 39.7596283 C32.43603457 52.91160765 35.78852196 64.80996366 44.91796875 74.66015625 C45.78421875 75.46453125 46.65046875 76.26890625 47.54296875 77.09765625 C48.42984375 77.92265625 49.31671875 78.74765625 50.23046875 79.59765625 C60.71101086 88.1603672 73.37308091 90.36247141 86.54296875 89.09765625 C97.3900781 87.03377382 106.14865461 82.31356085 113.54296875 74.09765625 C114.38859375 73.16953125 115.23421875 72.24140625 116.10546875 71.28515625 C118.90544432 67.86883386 120.73830134 64.10802828 122.54296875 60.09765625 C122.93484375 59.25203125 123.32671875 58.40640625 123.73046875 57.53515625 C129.79216686 39.35006191 126.14370596 19.26227024 126.54296875 0.09765625 C162.18296875 0.09765625 197.82296875 0.09765625 234.54296875 0.09765625 C234.87296875 17.25765625 235.20296875 34.41765625 235.54296875 52.09765625 C240.4878513 66.9323039 246.36397621 77.10988086 260.5078125 84.69140625 C273.18686489 90.56587068 286.38307134 90.67581774 299.54296875 86.09765625 C313.04374156 80.49065777 320.90426346 70.11231807 326.54296875 57.09765625 C327.39200591 53.61478558 327.68733489 50.33558696 327.74829102 46.7565918 C327.76823624 45.71589035 327.78818146 44.6751889 327.80873108 43.60295105 C327.82544357 42.49132095 327.84215607 41.37969086 327.859375 40.234375 C327.89054665 38.5136956 327.89054665 38.5136956 327.92234802 36.758255 C327.98763494 33.10061527 328.04663161 29.44290487 328.10546875 25.78515625 C328.14867379 23.30272712 328.19228872 20.82030509 328.23632812 18.33789062 C328.34329497 12.2578868 328.44509989 6.17781296 328.54296875 0.09765625 C334.28629898 -0.02722381 340.02881536 -0.11727915 345.77319336 -0.17700195 C347.72157584 -0.20193379 349.66986688 -0.23589224 351.61791992 -0.27954102 C366.37293082 -0.6015374 378.7385094 0.0798164 390.546875 10.08984375 C399.98444256 19.58281777 404.67941949 31.09267741 404.65649414 44.36645508 C404.65664017 45.07919586 404.65678619 45.79193665 404.65693665 46.52627563 C404.65624307 48.86911115 404.64847675 51.21186597 404.640625 53.5546875 C404.63875885 55.18421892 404.63733588 56.8137509 404.63633728 58.44328308 C404.63252763 62.72253989 404.62271063 67.00176251 404.6116333 71.28100586 C404.60138577 75.65152524 404.59683251 80.02205018 404.59179688 84.39257812 C404.58108693 92.96095315 404.5640292 101.52930044 404.54296875 110.09765625 C403.6721765 110.10262147 403.6721765 110.10262147 402.7837925 110.107687 C388.67126953 110.18883678 374.55885331 110.28090263 360.4464817 110.38518333 C353.62189612 110.43534787 346.79732278 110.48179022 339.97265625 110.51953125 C333.3914556 110.55593627 326.81038077 110.60263293 320.22929001 110.65571976 C317.71340613 110.67431014 315.19749397 110.68940074 312.68156815 110.70100021 C309.16859581 110.71778335 305.65592824 110.74679895 302.14306641 110.77880859 C300.56890205 110.78204887 300.56890205 110.78204887 298.9629364 110.78535461 C298.00938766 110.7965181 297.05583893 110.80768158 296.07339478 110.81918335 C295.2419375 110.82471411 294.41048023 110.83024487 293.55382729 110.83594322 C291.31448741 110.91951574 291.31448741 110.91951574 289.54296875 113.09765625 C289.14532612 115.08586938 288.80521526 117.08709964 288.54296875 119.09765625 C288.21296875 118.43765625 287.88296875 117.77765625 287.54296875 117.09765625 C283.58296875 117.09765625 279.62296875 117.09765625 275.54296875 117.09765625 C275.21296875 117.75765625 274.88296875 118.41765625 274.54296875 119.09765625 C274.23359375 117.96328125 273.92421875 116.82890625 273.60546875 115.66015625 C272.91372344 112.30990526 272.91372344 112.30990526 271.54296875 111.09765625 C269.86460495 110.99541127 268.18191795 110.96366365 266.50044918 110.95899105 C265.40118853 110.95351661 264.30192787 110.94804216 263.16935629 110.94240183 C261.94662041 110.94142372 260.72388454 110.94044561 259.46409607 110.93943787 C258.17692265 110.93449989 256.88974923 110.92956191 255.56357056 110.9244743 C251.97433738 110.91083966 248.38511372 110.90345952 244.79586136 110.89704764 C240.93148242 110.88906697 237.06712343 110.87536123 233.20275879 110.86233521 C226.50201985 110.84053922 219.80127893 110.8224062 213.10052299 110.80673027 C203.4122421 110.78405999 193.72398328 110.75591329 184.03572107 110.72641099 C168.31882703 110.67870014 152.60192398 110.63544546 136.88500977 110.5949707 C121.61351826 110.55563352 106.34203476 110.51421159 91.07055664 110.4699707 C89.65959532 110.46588429 89.65959532 110.46588429 88.22012972 110.46171533 C83.50141781 110.44803615 78.78270602 110.43431582 74.06399429 110.42057502 C34.89033576 110.30655539 -4.28333995 110.19975821 -43.45703125 110.09765625 C-43.55008823 100.37852945 -43.62097611 90.6595582 -43.66427994 80.9400816 C-43.68507328 76.42595771 -43.7132382 71.91214069 -43.75878906 67.39819336 C-43.80254374 63.0344781 -43.82623028 58.6710563 -43.83654022 54.30713844 C-43.84387884 52.64990437 -43.85820821 50.99268469 -43.87995148 49.33557701 C-44.06309475 34.78703222 -41.71131512 22.85892108 -31.421875 11.9375 C-21.9007101 2.95368479 -12.80715891 -0.07588978 0 0 Z " fill="#8CD26F" transform="translate(75.45703125,49.90234375)"/>
<path d="M0 0 C4.17884298 3.50241156 6.61199448 6.75862355 7.60546875 12.19140625 C8.12604101 23.0603241 5.19628903 34.20692071 3.171875 44.8203125 C2.90609842 46.23607588 2.64082252 47.65193332 2.37597656 49.06787109 C-18.63532328 161.23655512 -18.63532328 161.23655512 -54.828125 186.8203125 C-63.37805733 192.32451806 -72.17487669 196.54937712 -81.828125 199.8203125 C-82.51648438 200.05492187 -83.20484375 200.28953125 -83.9140625 200.53125 C-104.67932211 207.0145211 -130.93149218 203.65114289 -149.95263672 193.70996094 C-162.26980979 186.86677203 -162.26980979 186.86677203 -165.828125 182.8203125 C-169.17397464 184.27074159 -171.32866536 186.09770075 -173.8671875 188.69921875 C-174.98480469 189.83327148 -174.98480469 189.83327148 -176.125 190.99023438 C-176.89328125 191.77978516 -177.6615625 192.56933594 -178.453125 193.3828125 C-179.98475669 194.94879141 -181.51850695 196.51270189 -183.0546875 198.07421875 C-183.73096191 198.76845947 -184.40723633 199.4627002 -185.10400391 200.17797852 C-187.59356489 202.54944223 -188.7006463 202.8061482 -192.203125 203.1953125 C-195.828125 202.8203125 -195.828125 202.8203125 -198.265625 200.6328125 C-199.99334736 197.52291226 -200.27554031 196.3007874 -199.828125 192.8203125 C-198.24609375 190.53125 -198.24609375 190.53125 -196.015625 188.1953125 C-195.20738281 187.33421875 -194.39914063 186.473125 -193.56640625 185.5859375 C-191.64801182 183.6483865 -189.71904164 181.74689121 -187.74609375 179.8671875 C-187.23989502 179.37943848 -186.73369629 178.89168945 -186.2121582 178.38916016 C-184.76123182 177.00090928 -183.2911182 175.6327967 -181.8203125 174.265625 C-179.64579425 172.09815278 -179.64579425 172.09815278 -179.7578125 169.90625 C-181.3060878 166.88880835 -183.16947971 164.11579921 -185.078125 161.3203125 C-189.20101753 155.0968478 -192.28086977 148.85798604 -194.828125 141.8203125 C-195.27091797 140.66982422 -195.27091797 140.66982422 -195.72265625 139.49609375 C-203.66141627 117.71338767 -201.09000312 93.40265431 -191.7434082 72.57055664 C-188.49927567 65.76457163 -184.45144587 59.77244499 -179.828125 53.8203125 C-179.15265625 52.93730469 -178.4771875 52.05429687 -177.78125 51.14453125 C-155.17988028 23.82746221 -109.98769407 14.87018288 -77.03955078 7.54052734 C-74.11699537 6.88509641 -71.20437098 6.19913876 -68.29296875 5.49609375 C-57.87051607 3.00187296 -47.37961451 0.88945965 -36.84680176 -1.07907104 C-35.39774831 -1.35041278 -33.94923817 -1.62467536 -32.50134277 -1.90213013 C-9.25190861 -6.33490558 -9.25190861 -6.33490558 0 0 Z " fill="#8CD36F" transform="translate(351.828125,236.1796875)"/>
<path d="M0 0 C0.83007568 -0.00029205 1.66015137 -0.00058411 2.51538086 -0.00088501 C5.23700713 0.00049935 7.95835367 0.01601811 10.67993164 0.03173828 C12.57564647 0.03547159 14.47136324 0.03831706 16.36708069 0.04031372 C21.34011221 0.0479251 26.31302565 0.06755206 31.28601074 0.08972168 C36.36717126 0.11023398 41.44835097 0.11932693 46.52954102 0.12939453 C56.48727499 0.15080039 66.4449216 0.18490608 76.40258789 0.22705078 C76.49570515 10.69392666 76.56656312 21.16070226 76.60983658 31.62790966 C76.63061687 36.48947582 76.65875755 41.35075636 76.7043457 46.2121582 C76.74814736 50.91304095 76.77179667 55.61365082 76.78209686 60.31472206 C76.78942716 62.09868979 76.8037396 63.8826444 76.82550812 65.66649437 C77.00591593 81.07811749 75.2631396 95.56717866 64.36743164 107.44580078 C54.47813169 116.7944159 43.2873597 120.58563254 29.85351562 120.45410156 C28.65185509 120.45453964 28.65185509 120.45453964 27.42591858 120.45498657 C24.81255762 120.45360784 22.19949198 120.4381163 19.58618164 120.42236328 C17.7605861 120.41862796 15.93498853 120.41578344 14.10939026 120.41378784 C9.33037676 120.40619227 4.55148697 120.38657926 -0.22747803 120.36437988 C-5.11444425 120.34383316 -10.00143067 120.33476733 -14.88842773 120.32470703 C-24.45814321 120.30332914 -34.02776733 120.269243 -43.59741211 120.22705078 C-43.71369588 109.09102104 -43.80232441 97.95513776 -43.85647297 86.81862259 C-43.88247279 81.64644037 -43.91769371 76.47467612 -43.97460938 71.30273438 C-44.02927392 66.30358572 -44.05890481 61.30483696 -44.07179832 56.30541229 C-44.08097675 54.40616316 -44.09889895 52.50693381 -44.12606239 50.60785675 C-44.3328422 35.54044247 -42.4801291 23.58391104 -31.59741211 12.22705078 C-22.46098908 4.02628553 -12.21875181 -0.11415584 0 0 Z " fill="#E1E1E1" transform="translate(403.597412109375,376.77294921875)"/>
<path d="M0 0 C13.86 0 27.72 0 42 0 C42.00808685 3.52101883 42.01617371 7.04203766 42.02450562 10.66975403 C42.09962365 42.97848783 42.18452264 75.28718379 42.28005161 107.59586387 C42.29257007 111.83270786 42.30500291 116.06955209 42.31738281 120.30639648 C42.31984881 121.14985505 42.3223148 121.99331362 42.32485552 122.86233153 C42.36454969 136.50896019 42.3973118 150.15559709 42.42749982 163.80224971 C42.4586438 177.81109129 42.49726577 191.81989795 42.54279006 205.82870024 C42.57063313 214.46877395 42.59268425 223.10882219 42.60726251 231.74892863 C42.61782681 237.67849322 42.63567264 243.60800843 42.65916704 249.53753576 C42.67249747 252.95553712 42.6826916 256.37346945 42.68421364 259.79149818 C42.68754906 263.50556964 42.70306161 267.21940319 42.7215271 270.9334259 C42.71959237 272.00252302 42.71765763 273.07162013 42.71566427 274.17311412 C42.8482066 292.06386177 48.17691217 305.34283013 61 318 C62.33386781 319.33279864 63.66727647 320.66605714 65 322 C61.07146129 322.0751855 57.14321167 322.12908016 53.21411133 322.16479492 C51.23438764 322.1869747 49.25486336 322.22512997 47.27539062 322.26367188 C33.51972924 322.36814525 23.52373022 319.83975474 13.25 310.5 C12.5075 309.675 11.765 308.85 11 308 C10.175 307.154375 9.35 306.30875 8.5 305.4375 C2.51953043 298.18901948 -0.11527752 288.47513384 -0.1418457 279.27539062 C-0.14532013 278.60823532 -0.14879456 277.94108002 -0.15237427 277.25370789 C-0.15970841 275.80942105 -0.16506623 274.36512312 -0.16866493 272.92082214 C-0.17585062 270.63417487 -0.19153097 268.34773966 -0.21000671 266.06115723 C-0.26239017 259.56147086 -0.310479 253.06190487 -0.32592773 246.56201172 C-0.3360051 242.58252765 -0.36531613 238.60358397 -0.40724754 234.62431335 C-0.41955969 233.10930974 -0.42467839 231.59422986 -0.42244911 230.07917786 C-0.42009769 227.96040022 -0.44224398 225.84317695 -0.4699707 223.72460938 C-0.47583694 222.51977905 -0.48170319 221.31494873 -0.48774719 220.0736084 C-1.10143471 216.39137364 -2.06594652 215.23653806 -5 213 C-5.99 212.67 -6.98 212.34 -8 212 C-8 207.71 -8 203.42 -8 199 C-7.030625 198.54625 -6.06125 198.0925 -5.0625 197.625 C-1.92920418 196.34213779 -1.92920418 196.34213779 -1 194 C-0.89232204 191.45618577 -0.84510438 188.93901692 -0.84178162 186.39450073 C-0.83437465 185.20362372 -0.83437465 185.20362372 -0.82681805 183.98868859 C-0.81139334 181.31391307 -0.80306901 178.63916164 -0.79467773 175.96435547 C-0.78510311 174.05275254 -0.77509328 172.14115176 -0.76467896 170.22955322 C-0.73757873 165.02737185 -0.71659692 159.82518136 -0.69667697 154.6229682 C-0.67484892 149.19102143 -0.6474447 143.75910294 -0.62062073 138.32717896 C-0.57065073 128.03538091 -0.52572791 117.74356721 -0.48259836 107.45173848 C-0.43326274 95.73726512 -0.37833101 84.02282011 -0.32291877 72.30837417 C-0.20903262 48.2056079 -0.1029469 24.10281564 0 0 Z " fill="#E2E2E2" transform="translate(32,175)"/>
<path d="M0 0 C4.17884298 3.50241156 6.61199448 6.75862355 7.60546875 12.19140625 C8.12604101 23.0603241 5.19628903 34.20692071 3.171875 44.8203125 C2.90609842 46.23607588 2.64082252 47.65193332 2.37597656 49.06787109 C-18.63532328 161.23655512 -18.63532328 161.23655512 -54.828125 186.8203125 C-63.37805733 192.32451806 -72.17487669 196.54937712 -81.828125 199.8203125 C-82.51648438 200.05492187 -83.20484375 200.28953125 -83.9140625 200.53125 C-104.67932211 207.0145211 -130.93149218 203.65114289 -149.95263672 193.70996094 C-162.26980979 186.86677203 -162.26980979 186.86677203 -165.828125 182.8203125 C-169.17397464 184.27074159 -171.32866536 186.09770075 -173.8671875 188.69921875 C-174.98480469 189.83327148 -174.98480469 189.83327148 -176.125 190.99023438 C-176.89328125 191.77978516 -177.6615625 192.56933594 -178.453125 193.3828125 C-179.98475669 194.94879141 -181.51850695 196.51270189 -183.0546875 198.07421875 C-183.73096191 198.76845947 -184.40723633 199.4627002 -185.10400391 200.17797852 C-187.59356489 202.54944223 -188.7006463 202.8061482 -192.203125 203.1953125 C-195.828125 202.8203125 -195.828125 202.8203125 -198.265625 200.6328125 C-199.99334736 197.52291226 -200.27554031 196.3007874 -199.828125 192.8203125 C-198.24609375 190.53125 -198.24609375 190.53125 -196.015625 188.1953125 C-195.20738281 187.33421875 -194.39914063 186.473125 -193.56640625 185.5859375 C-191.64801182 183.6483865 -189.71904164 181.74689121 -187.74609375 179.8671875 C-187.23989502 179.37943848 -186.73369629 178.89168945 -186.2121582 178.38916016 C-184.76123182 177.00090928 -183.2911182 175.6327967 -181.8203125 174.265625 C-179.64579425 172.09815278 -179.64579425 172.09815278 -179.7578125 169.90625 C-181.3060878 166.88880835 -183.16947971 164.11579921 -185.078125 161.3203125 C-189.20101753 155.0968478 -192.28086977 148.85798604 -194.828125 141.8203125 C-195.27091797 140.66982422 -195.27091797 140.66982422 -195.72265625 139.49609375 C-203.66141627 117.71338767 -201.09000312 93.40265431 -191.7434082 72.57055664 C-188.49927567 65.76457163 -184.45144587 59.77244499 -179.828125 53.8203125 C-179.15265625 52.93730469 -178.4771875 52.05429687 -177.78125 51.14453125 C-155.17988028 23.82746221 -109.98769407 14.87018288 -77.03955078 7.54052734 C-74.11699537 6.88509641 -71.20437098 6.19913876 -68.29296875 5.49609375 C-57.87051607 3.00187296 -47.37961451 0.88945965 -36.84680176 -1.07907104 C-35.39774831 -1.35041278 -33.94923817 -1.62467536 -32.50134277 -1.90213013 C-9.25190861 -6.33490558 -9.25190861 -6.33490558 0 0 Z M-20.29296875 11.484375 C-21.15913818 11.63358398 -22.02530762 11.78279297 -22.91772461 11.93652344 C-23.85753174 12.10442383 -24.79733887 12.27232422 -25.765625 12.4453125 C-26.76924072 12.62352539 -27.77285645 12.80173828 -28.80688477 12.98535156 C-67.2322271 19.89682606 -107.04784065 27.31615706 -142.640625 44.0078125 C-143.45168701 44.38728027 -144.26274902 44.76674805 -145.09838867 45.15771484 C-163.56674998 54.28949937 -175.28303502 70.07298179 -182.0234375 89.21484375 C-188.10512596 109.18234537 -185.29387465 129.64722294 -175.90234375 148.06640625 C-173.60728692 152.34689472 -170.97821671 156.11895474 -167.828125 159.8203125 C-161.80156963 154.83410718 -156.31151285 149.41704275 -150.80859375 143.86328125 C-149.85961437 142.90988764 -148.91033427 141.95679327 -147.96076965 141.00398254 C-144.97620499 138.00808719 -141.99563944 135.00823307 -139.015625 132.0078125 C-135.54262191 128.51117976 -132.06798358 125.01620385 -128.58913612 121.5253849 C-127.20110566 120.13087491 -125.81613121 118.73332527 -124.43119812 117.33573914 C-123.59305069 116.49428848 -122.75490326 115.65283783 -121.89135742 114.78588867 C-121.1530217 114.04231613 -120.41468597 113.29874359 -119.65397644 112.53263855 C-117.828125 110.8203125 -117.828125 110.8203125 -115.828125 109.8203125 C-115.81932564 108.87190742 -115.81932564 108.87190742 -115.81034851 107.90434265 C-115.74650513 101.33444958 -115.66210919 94.7650505 -115.56567383 88.19555664 C-115.53238174 85.74249781 -115.5043633 83.28936159 -115.48168945 80.83618164 C-115.44822271 77.31362872 -115.39590985 73.79178785 -115.33984375 70.26953125 C-115.33345383 69.16945236 -115.3270639 68.06937347 -115.32048035 66.93595886 C-115.30068619 65.91512711 -115.28089203 64.89429535 -115.26049805 63.8425293 C-115.24939499 62.94318161 -115.23829193 62.04383392 -115.22685242 61.11723328 C-114.828125 58.8203125 -114.828125 58.8203125 -113.52375793 56.9947052 C-111.828125 55.8203125 -111.828125 55.8203125 -108.265625 56.0078125 C-104.828125 56.8203125 -104.828125 56.8203125 -102.828125 58.8203125 C-102.58269359 61.46819039 -102.45463114 64.01935073 -102.4140625 66.671875 C-102.39469635 67.44590668 -102.3753302 68.21993835 -102.3553772 69.01742554 C-102.2955267 71.49327525 -102.24917489 73.96917133 -102.203125 76.4453125 C-102.16495018 78.12241627 -102.12589875 79.79950034 -102.0859375 81.4765625 C-101.98982091 85.59098603 -101.90581061 89.70550136 -101.828125 93.8203125 C-101.168125 93.8203125 -100.508125 93.8203125 -99.828125 93.8203125 C-98.28753816 92.30234247 -98.28753816 92.30234247 -96.69262695 90.31811523 C-92.98235607 85.95752465 -89.04905441 81.89635442 -84.99609375 77.85546875 C-84.27827225 77.13669052 -83.56045074 76.41791229 -82.82087708 75.67735291 C-81.31874248 74.1745432 -79.81536603 72.67297384 -78.31079102 71.17260742 C-76.00094304 68.8681649 -73.69654409 66.55836861 -71.39257812 64.24804688 C-69.92740428 62.783533 -68.46192071 61.31932892 -66.99609375 59.85546875 C-66.30654099 59.16389175 -65.61698822 58.47231476 -64.90653992 57.75978088 C-64.26860001 57.12499313 -63.6306601 56.49020538 -62.97338867 55.83618164 C-62.41270187 55.27629044 -61.85201508 54.71639923 -61.27433777 54.13954163 C-58.89852992 51.97233983 -57.69284026 51.80801389 -54.390625 51.5078125 C-50.828125 51.8203125 -50.828125 51.8203125 -48.890625 53.5078125 C-47.62390921 56.26478216 -47.49723566 57.80774862 -47.828125 60.8203125 C-49.26609802 62.96311951 -49.26609802 62.96311951 -51.38452148 65.18530273 C-52.21192841 66.05895477 -53.03933533 66.93260681 -53.89181519 67.83273315 C-54.86861284 68.83052754 -55.84751218 69.82626733 -56.828125 70.8203125 C-57.36224628 71.36516926 -57.89636757 71.91002602 -58.44667435 72.47139359 C-62.21062509 76.30241807 -66.00829528 80.09873459 -69.8174305 83.88478279 C-71.96710279 86.02154207 -74.11350399 88.16154106 -76.25914001 90.30235291 C-80.80013883 94.83201663 -85.34510645 99.35768497 -89.890625 103.8828125 C-95.19180705 109.16039302 -100.49135012 114.43959857 -105.78674126 119.72299004 C-107.90536768 121.83511779 -110.02697099 123.9442244 -112.1486969 126.05323792 C-113.43399394 127.33490622 -114.71915291 128.616713 -116.00415039 129.89868164 C-116.59780899 130.48717392 -117.19146759 131.0756662 -117.80311584 131.68199158 C-119.16389175 133.04258781 -120.49913931 134.42864795 -121.828125 135.8203125 C-121.828125 136.1503125 -121.828125 136.4803125 -121.828125 136.8203125 C-120.8494043 136.83489502 -119.87068359 136.84947754 -118.86230469 136.86450195 C-115.22407874 136.92256356 -111.58646664 136.9997951 -107.94873047 137.08276367 C-106.37558978 137.11597622 -104.80233099 137.14401967 -103.22900391 137.16674805 C-100.96465828 137.20036278 -98.70139135 137.25267874 -96.4375 137.30859375 C-95.73631042 137.31498367 -95.03512085 137.3213736 -94.31268311 137.32795715 C-91.2678852 137.41922123 -89.08279607 137.68370743 -86.37988281 139.13354492 C-84.828125 140.8203125 -84.828125 140.8203125 -84.390625 144.3203125 C-84.828125 147.8203125 -84.828125 147.8203125 -86.06517029 149.52989197 C-88.37583261 151.22121511 -89.63227959 151.11533527 -92.47290039 150.96704102 C-93.41608627 150.92945679 -94.35927216 150.89187256 -95.33103943 150.85314941 C-96.35230423 150.80235229 -97.37356903 150.75155518 -98.42578125 150.69921875 C-124.77975725 148.38769636 -124.77975725 148.38769636 -147.77514648 158.32202148 C-150.86474789 161.95466684 -153.60880578 165.59174606 -155.828125 169.8203125 C-153.85283093 175.74619472 -146.38581669 178.4459207 -141.109375 181.28125 C-124.77448397 189.20847653 -103.45461627 191.32372422 -86.015625 185.6953125 C-83.59684213 184.79647461 -81.197929 183.84131649 -78.828125 182.8203125 C-77.73242188 182.35109375 -76.63671875 181.881875 -75.5078125 181.3984375 C-68.92742495 178.33088842 -63.27140714 174.61040078 -57.828125 169.8203125 C-56.70277344 168.85351562 -56.70277344 168.85351562 -55.5546875 167.8671875 C-22.48151536 137.39020294 -11.55892481 62.78736426 -7.625 19.58984375 C-7.52079876 15.51891265 -7.52079876 15.51891265 -9.015625 11.8203125 C-12.48669369 9.90524012 -16.51679518 10.82981108 -20.29296875 11.484375 Z " fill="#030403" transform="translate(351.828125,236.1796875)"/>
<path d="M0 0 C3.17105388 5.34072232 0.7389268 13.68399953 -0.3125 19.5 C-0.45558594 20.32242187 -0.59867188 21.14484375 -0.74609375 21.9921875 C-1.09556912 23.99584627 -1.45318156 25.99808298 -1.8125 28 C-2.1425 27.01 -2.4725 26.02 -2.8125 25 C-30.99691728 29.83094109 -59.49545981 36.12221757 -86.4296875 45.8203125 C-89.8125 47 -89.8125 47 -91.8125 47 C-91.4825 58.55 -91.1525 70.1 -90.8125 82 C-91.4725 82 -92.1325 82 -92.8125 82 C-92.8218457 80.95545654 -92.83119141 79.91091309 -92.84082031 78.8347168 C-92.88068874 74.959771 -92.94643741 71.08562186 -93.02001953 67.21118164 C-93.04824768 65.5342024 -93.0694531 63.85708965 -93.08349609 62.17993164 C-93.10490125 59.76899782 -93.15153426 57.35967216 -93.203125 54.94921875 C-93.20435364 54.19912033 -93.20558228 53.44902191 -93.20684814 52.67619324 C-93.29936407 49.38958638 -93.37638243 47.48459471 -95.62011719 44.99145508 C-98.92338973 43.49762548 -101.36802116 44.15512783 -104.8125 45 C-106.04476237 47.46452473 -105.91772892 49.04305421 -105.89086914 51.79760742 C-105.88499283 52.79592087 -105.87911652 53.79423431 -105.87306213 54.82279968 C-105.86467819 55.90608047 -105.85629425 56.98936127 -105.84765625 58.10546875 C-105.85137026 60.39128053 -105.85730017 62.67708959 -105.86523438 64.96289062 C-105.87578348 68.57338475 -105.87505947 72.18190705 -105.83666992 75.79223633 C-105.8035041 79.27273845 -105.82116421 82.7499733 -105.84765625 86.23046875 C-105.82510269 87.30362839 -105.80254913 88.37678802 -105.77931213 89.48246765 C-105.89630112 96.81070862 -105.89630112 96.81070862 -108.29977417 99.93058777 C-110.23608398 101.60498047 -110.23608398 101.60498047 -112.43479919 103.23143005 C-115.09338717 105.20892814 -117.33401138 107.39094886 -119.66796875 109.74194336 C-120.52825684 110.60230698 -121.38854492 111.46267059 -122.27490234 112.34910583 C-123.17418457 113.25354935 -124.0734668 114.15799286 -125 115.08984375 C-125.95241612 116.04412993 -126.90505695 116.99819188 -127.85791016 117.95204163 C-130.33916925 120.4370797 -132.81740791 122.92510796 -135.29498291 125.41381836 C-137.83412485 127.96327496 -140.37617646 130.50982688 -142.91796875 133.05664062 C-147.88562882 138.03495631 -152.85009686 143.01644371 -157.8125 148 C-163.23017108 142.77122647 -163.23017108 142.77122647 -164.9453125 139.546875 C-165.27515137 138.93239502 -165.60499023 138.31791504 -165.94482422 137.68481445 C-166.27240723 137.04632568 -166.59999023 136.40783691 -166.9375 135.75 C-167.28441895 135.08250732 -167.63133789 134.41501465 -167.98876953 133.72729492 C-170.43307333 128.93690115 -172.57343151 124.25439572 -173.8125 119 C-174.01488281 118.14921875 -174.21726563 117.2984375 -174.42578125 116.421875 C-178.83841916 94.44873931 -174.2855321 73.92631025 -162.01953125 55.2734375 C-160.37260907 53.08005373 -158.65066566 51.03467335 -156.8125 49 C-156.24402344 48.32839844 -155.67554688 47.65679687 -155.08984375 46.96484375 C-133.00382347 22.62801885 -87.7004041 15.24243253 -57.36669922 8.76318359 C-53.75307518 7.98723987 -50.14391461 7.19277527 -46.53515625 6.39453125 C-4.97495163 -2.7448009 -4.97495163 -2.7448009 0 0 Z " fill="#6BC546" transform="translate(342.8125,248)"/>
<path d="M0 0 C6.86735353 5.82453318 12.20273396 12.25328286 13.671875 21.3515625 C13.77896223 23.21947331 13.83982184 25.09036972 13.86474609 26.96118164 C13.88080902 28.06325455 13.89687195 29.16532745 13.91342163 30.30079651 C13.95824942 35.34139149 13.99895128 40.38185924 14.02197266 45.42260742 C14.03849659 48.07113453 14.06573884 50.7196177 14.10400391 53.36791992 C14.15912915 57.20775238 14.18070435 61.04654238 14.1953125 64.88671875 C14.21798187 66.05590347 14.24065125 67.2250882 14.26400757 68.42970276 C14.24024526 77.8022532 12.01577428 85.66522191 6.53125 93.3515625 C-1.85261919 101.30071254 -9.92864939 104.69315691 -21.4453125 104.5703125 C-30.66778103 103.87050459 -38.27709173 99.23413961 -44.55554199 92.58955383 C-51.02887853 84.41658196 -52.06466533 75.10077141 -51.921875 65.02734375 C-51.92191528 63.80049362 -51.92195557 62.57364349 -51.92199707 61.30961609 C-51.91667142 58.73557364 -51.89921706 56.16152995 -51.87011719 53.58764648 C-51.82812478 49.6640423 -51.82907043 45.74215146 -51.8359375 41.81835938 C-51.82544768 39.30467566 -51.81251071 36.79100072 -51.796875 34.27734375 C-51.79667358 33.11463455 -51.79647217 31.95192535 -51.79626465 30.75398254 C-51.63114252 19.32058177 -48.96880146 11.19110633 -41.078125 2.7265625 C-30.04557411 -7.97453836 -12.51712939 -8.86279967 0 0 Z " fill="#F2E54C" transform="translate(173.328125,20.6484375)"/>
<path d="M0 0 C9.00411875 4.8241245 14.09487933 11.87326054 17.56640625 21.375 C18.36197469 26.16606302 18.41014997 30.8383368 18.36328125 35.6875 C18.36733898 37.03166328 18.37317524 38.37582223 18.38067627 39.7199707 C18.38944796 42.51719689 18.37691171 45.31326205 18.34863281 48.11035156 C18.31444598 51.66110184 18.33417011 55.20913002 18.3700676 58.75978088 C18.39195216 61.52953892 18.38475761 64.29867205 18.36930084 67.06845093 C18.36346256 69.00243947 18.38139362 70.9364543 18.40008545 72.87036133 C18.23018821 83.66489746 15.10604404 92.18093457 7.37890625 99.875 C-0.36968897 106.08422489 -8.51852773 108.10719169 -18.359375 107.7578125 C-22.96738411 107.18400704 -26.4897166 105.78181476 -30.43359375 103.375 C-31.13226563 102.95089844 -31.8309375 102.52679688 -32.55078125 102.08984375 C-39.31968673 97.50486815 -43.77966455 91.07930084 -46.43359375 83.375 C-46.71447754 80.50071716 -46.71447754 80.50071716 -46.75585938 77.30639648 C-46.77507446 76.10421982 -46.79428955 74.90204315 -46.81408691 73.66343689 C-46.82258667 72.37071365 -46.83108643 71.07799042 -46.83984375 69.74609375 C-46.8454985 69.08163805 -46.85115326 68.41718235 -46.85697937 67.73259163 C-46.88690286 64.21095334 -46.90539544 60.68947737 -46.9140625 57.16772461 C-46.92497787 53.56211499 -46.97292825 49.95803679 -47.03000641 46.35290432 C-47.06761123 43.55326795 -47.07768893 40.7539861 -47.08073425 37.95411873 C-47.08959412 35.98896288 -47.12672511 34.02399824 -47.16467285 32.05918884 C-47.11760297 22.45855178 -44.97430744 14.42002681 -38.42321777 7.14134216 C-27.76713387 -2.95307368 -13.65562365 -5.72462826 0 0 Z " fill="#F2E54C" transform="translate(371.43359375,17.625)"/>
<path d="M0 0 C0.68100266 0.00141495 1.36200531 0.0028299 2.06364441 0.00428772 C4.22346522 0.00985327 6.38317964 0.02239922 8.54296875 0.03515625 C10.01367037 0.04017571 11.48437363 0.04473784 12.95507812 0.04882812 C16.54690915 0.05981137 20.13867855 0.07705203 23.73046875 0.09765625 C21.29084925 2.57824995 18.95719515 4.92674476 16.17578125 7.0234375 C7.76420455 14.15849697 3.82615935 25.61920327 1.73046875 36.09765625 C1.40046875 60.18765625 1.07046875 84.27765625 0.73046875 109.09765625 C90.16046875 109.09765625 179.59046875 109.09765625 271.73046875 109.09765625 C271.73046875 109.42765625 271.73046875 109.75765625 271.73046875 110.09765625 C168.44046875 110.09765625 65.15046875 110.09765625 -41.26953125 110.09765625 C-41.26953125 24.7118597 -41.26953125 24.7118597 -29.234375 11.9375 C-20.536159 3.73018861 -11.92125197 -0.04905865 0 0 Z " fill="#6AC145" transform="translate(73.26953125,49.90234375)"/>
<path d="M0 0 C7.4103849 2.02877973 12.27063573 6.80900896 16.4296875 13.1953125 C19.22296747 18.55759449 20.11239432 23.56904019 20.19287109 29.60961914 C20.20893402 30.71169205 20.22499695 31.81376495 20.24154663 32.94923401 C20.28637442 37.98982899 20.32707628 43.03029674 20.35009766 48.07104492 C20.36662159 50.71957203 20.39386384 53.3680552 20.43212891 56.01635742 C20.48725415 59.85618988 20.50882935 63.69497988 20.5234375 67.53515625 C20.54610687 68.70434097 20.56877625 69.8735257 20.59213257 71.07814026 C20.56828071 80.48601183 18.35548225 88.41320165 12.75390625 96.0703125 C12.03074219 96.74835938 11.30757812 97.42640625 10.5625 98.125 C9.48162109 99.18074219 9.48162109 99.18074219 8.37890625 100.2578125 C5.68729102 102.22901183 3.19794431 103.10733641 0 104 C-10.69387962 92.97569151 -13.31291178 81.58427306 -13.30078125 66.5390625 C-13.30506638 65.35331635 -13.3093515 64.16757019 -13.31376648 62.94589233 C-13.31949026 60.44635657 -13.32002449 57.94680416 -13.31567383 55.44726562 C-13.31251598 51.64423917 -13.33599165 47.84199286 -13.36132812 44.0390625 C-13.36360167 41.60156347 -13.36430436 39.16406237 -13.36328125 36.7265625 C-13.372491 35.60021393 -13.38170074 34.47386536 -13.39118958 33.31338501 C-13.33910071 24.32723388 -11.89243411 16.33752079 -7.0625 8.625 C-6.33740234 7.43777344 -6.33740234 7.43777344 -5.59765625 6.2265625 C-3.9233298 3.89314911 -2.0833878 1.97089386 0 0 Z " fill="#F8ED7E" transform="translate(167,18)"/>
<path d="M0 0 C5.34772947 1.06954589 9.42940677 5.09964619 13 9 C18.69974752 17.55924329 19.89463907 25.19756622 19.796875 35.3125 C19.80093273 36.65666328 19.80676899 38.00082223 19.81427002 39.3449707 C19.82304171 42.14219689 19.81050546 44.93826205 19.78222656 47.73535156 C19.74803973 51.28610184 19.76776386 54.83413002 19.80366135 58.38478088 C19.82554591 61.15453892 19.81835136 63.92367205 19.80289459 66.69345093 C19.79705631 68.62743947 19.81498737 70.5614543 19.8336792 72.49536133 C19.68047248 82.22945406 17.33707674 90.26232605 10.65350342 97.56323242 C6.90758824 101.15407804 4.23684948 103.30972986 -1 104 C-8.30775097 94.5572054 -13.0754175 86.55227773 -13.16113281 74.35864258 C-13.17074036 73.25011429 -13.1803479 72.141586 -13.19024658 70.99946594 C-13.19449646 69.80983749 -13.19874634 68.62020905 -13.203125 67.39453125 C-13.20882507 66.16014816 -13.21452515 64.92576508 -13.22039795 63.65397644 C-13.22983782 61.04235692 -13.2363779 58.43072553 -13.24023438 55.8190918 C-13.24677554 51.84472587 -13.28094859 47.87072933 -13.3125 43.89648438 C-13.3190324 41.35416972 -13.32428194 38.81185139 -13.328125 36.26953125 C-13.3404718 35.09002396 -13.3528186 33.91051666 -13.36553955 32.69526672 C-13.34000707 23.13013954 -11.85196678 15.07489725 -6.5 7 C-5.61828125 5.63875 -5.61828125 5.63875 -4.71875 4.25 C-3 2 -3 2 0 0 Z " fill="#F8ED7F" transform="translate(370,18)"/>
<path d="M0 0 C3.22165827 15.00026118 6.41705388 33.48632008 -1.98413086 47.25079346 C-7.83131543 55.41663374 -15.11471484 62.42550959 -22.4375 69.25 C-22.97356747 69.75043697 -23.50963493 70.25087395 -24.06194687 70.76647568 C-43.69030148 89 -43.69030148 89 -46 89 C-47.25357018 81.32934435 -47.16213694 73.75168996 -47 66 C-46.98324219 65.09765625 -46.96648437 64.1953125 -46.94921875 63.265625 C-45.87410306 44.95794067 -35.20896816 25.4465883 -22 13 C-6.4909026 0 -6.4909026 0 0 0 Z " fill="#8CD36F" transform="translate(235,302)"/>
</svg>
