<?xml version="1.0" encoding="UTF-8"?>
<svg version="1.1" xmlns="http://www.w3.org/2000/svg" width="512" height="512">
<path d="M0 0 C1.14764832 -0.01007584 1.14764832 -0.01007584 2.31848145 -0.02035522 C4.83510935 -0.03927297 7.35146957 -0.04325652 9.86816406 -0.04541016 C11.6292532 -0.0518434 13.39034128 -0.05857215 15.15142822 -0.06558228 C18.83990962 -0.07754021 22.52829747 -0.08126473 26.21679688 -0.08007812 C30.92185908 -0.07987525 35.62631514 -0.10715128 40.33123398 -0.14162254 C43.96887923 -0.16396434 47.60638041 -0.16791341 51.24408722 -0.16685867 C52.97748143 -0.16920469 54.71088021 -0.17797133 56.44420624 -0.19352341 C68.20300573 -0.28913458 78.56887265 0.1502988 87.60253906 8.58740234 C94.97370513 16.78594419 96.43102336 24.98156064 96.45263672 35.71191406 C96.46770515 37.42497993 96.46770515 37.42497993 96.483078 39.1726532 C96.51390974 42.93850208 96.53094542 46.70427985 96.54785156 50.47021484 C96.56656318 53.08481457 96.58613659 55.69940826 96.60653687 58.31399536 C96.65324883 64.48676423 96.69002949 70.65955039 96.72320974 76.83240521 C96.76148487 83.86269678 96.81088082 90.8928966 96.8611939 97.92311072 C96.96440086 112.37884557 97.05369766 126.83464617 97.13378906 141.29052734 C97.60949341 140.80664047 98.08519775 140.3227536 98.57531738 139.82420349 C100.76762062 137.5990888 102.96626679 135.38034283 105.16503906 133.16162109 C105.91301758 132.40055054 106.66099609 131.63947998 107.43164062 130.85534668 C136.29196536 101.79938526 178.86086747 85.47417595 219.5246582 85.04882812 C269.16098041 84.94206309 312.13107412 102.28139625 347.94628906 136.85302734 C357.72185816 147.02059922 366.47725373 158.84570041 373.13378906 171.29052734 C374.63691622 163.50481532 375.79329671 155.71760755 376.76611328 147.84936523 C376.91603729 146.65759171 377.0659613 145.46581818 377.22042847 144.2379303 C377.54350773 141.66876359 377.86536847 139.09944342 378.18612289 136.52998543 C378.69499367 132.45479071 379.21048689 128.38045006 379.72732544 124.30625916 C379.90514824 122.90387521 380.08296459 121.50149045 380.26077461 120.09910488 C380.3497477 119.39739788 380.43872078 118.69569088 380.53039002 117.97272003 C381.73016024 108.5061563 382.92446401 99.0389313 384.10595703 89.57006836 C384.906298 83.15631129 385.71541009 76.74372456 386.53424847 70.33230203 C386.96566788 66.95143434 387.39271265 63.57014833 387.80886459 60.18736458 C388.27555628 56.41041781 388.7574476 52.63568789 389.24267578 48.86108398 C389.3747644 47.76201721 389.50685303 46.66295044 389.64294434 45.53057861 C391.11615762 34.32374666 394.0285599 24.2282487 401.13378906 15.29052734 C401.61203125 14.67564453 402.09027344 14.06076172 402.58300781 13.42724609 C408.50257348 6.70250021 419.10467087 0.97112587 428.12573242 0.09765625 C442.33565173 -0.44805228 453.93647677 0.90010191 465.20800781 10.48193359 C473.14861397 17.93933856 479.61254536 27.79226351 480.38678873 38.93001157 C480.39834327 40.3127413 480.39908131 41.69558866 480.39105797 43.07834339 C480.39456404 43.84740337 480.39807012 44.61646334 480.40168244 45.40882817 C480.41099538 47.98899895 480.4060734 50.56894398 480.4012146 53.14912415 C480.40495091 55.01642468 480.40955235 56.88372365 480.41494524 58.75102013 C480.42719298 63.88501935 480.42691269 69.0189535 480.42455649 74.152964 C480.42414878 79.68887996 480.43518313 85.22477494 480.44467163 90.76068115 C480.46129216 101.60748513 480.46678165 112.45426736 480.46789639 123.30108301 C480.46884633 132.11665622 480.47295393 140.93222225 480.47929764 149.7477932 C480.49404582 170.66806256 480.50634707 191.58832804 480.50530052 212.5086031 C480.50526936 213.17761573 480.50523821 213.84662837 480.50520611 214.53591411 C480.50503989 217.92673432 480.50484181 221.31755452 480.50463669 224.70837472 C480.50457685 225.718515 480.50457685 225.718515 480.50451581 226.74906215 C480.50443494 228.11089529 480.50435134 229.47272842 480.50426503 230.83456156 C480.50303951 252.02262903 480.51805298 273.21063249 480.54541016 294.39868164 C480.57613452 318.20440132 480.59331711 342.01007928 480.59148371 365.81582421 C480.59081933 378.42011083 480.59633288 391.02432526 480.61783981 403.62859535 C480.63603255 414.35943215 480.64041458 425.09016403 480.62682097 435.82100955 C480.62028182 441.29653517 480.62020842 446.77185938 480.63752747 452.24736595 C480.65322109 457.26051673 480.6504324 462.27330579 480.6329592 467.28644755 C480.62988115 469.09933853 480.63355194 470.91225625 480.64467935 472.72511569 C480.74384474 490.0278748 480.74384474 490.0278748 476.13378906 497.29052734 C475.75552266 497.93837529 475.37725627 498.58622324 474.98752725 499.25370294 C470.84934366 506.10666994 463.7278577 510.25987895 456.13378906 512.29052734 C445.03401634 513.28904246 435.39930247 512.63999936 426.32128906 505.54052734 C420.90073152 500.47793115 416.60702328 493.65562419 415.94446635 486.14415956 C415.86555766 483.54228777 415.84988928 480.9468611 415.85531616 478.34378052 C415.84952376 477.34635074 415.84373136 476.34892097 415.83776343 475.32126606 C415.82076895 471.98172266 415.81788736 468.64231751 415.81494141 465.30273438 C415.80564287 462.90778769 415.79547431 460.51284425 415.78450012 458.11790466 C415.76001427 452.29136134 415.7445995 446.46484491 415.73318504 440.63826247 C415.71941099 433.8570776 415.69445092 427.07594785 415.66880174 420.29479919 C415.62335876 408.20224767 415.58673365 396.10968621 415.55566406 384.01708984 C415.5254683 372.27195492 415.49111332 360.52684428 415.45117188 348.78173828 C415.44747955 347.6953429 415.44747955 347.6953429 415.44371264 346.58700015 C415.43133784 342.9534944 415.41888134 339.31998895 415.40638423 335.68648362 C415.30285378 305.55453185 415.2137853 275.42255135 415.13378906 245.29052734 C414.32844727 244.96802002 413.52310547 244.6455127 412.69335938 244.31323242 C411.62698242 243.87906006 410.56060547 243.4448877 409.46191406 242.99755859 C407.88265137 242.35911011 407.88265137 242.35911011 406.27148438 241.70776367 C401.87145593 239.72035587 398.01438403 237.14217667 394.13378906 234.29052734 C394.37355469 236.07523437 394.37355469 236.07523437 394.61816406 237.89599609 C399.4397141 281.69174225 387.77863459 327.63191536 360.13378906 362.29052734 C349.68950504 375.20726457 338.49500953 386.40712788 325.13378906 396.29052734 C324.56450684 396.71479004 323.99522461 397.13905273 323.40869141 397.57617188 C288.31926528 423.35677522 241.47540642 433.55634335 198.57128906 427.16552734 C170.70604661 422.53572538 143.68059669 411.32995012 121.13378906 394.29052734 C120.25078125 393.63052734 119.36777344 392.97052734 118.45800781 392.29052734 C98.53632715 376.70734603 83.81001043 357.6225524 71.82128906 335.47802734 C71.33281494 334.58108154 71.33281494 334.58108154 70.83447266 333.66601562 C69.17098066 330.53020778 67.75095043 327.39819146 66.52368164 324.06518555 C66.2611409 323.35521927 65.99860016 322.64525299 65.72810364 321.91377258 C65.43391792 321.11026619 65.43391792 321.11026619 65.13378906 320.29052734 C65.1323225 321.24451259 65.13085594 322.19849783 65.12934494 323.18139172 C65.09276674 346.38289335 65.03333925 369.58425045 64.94988632 392.78563213 C64.91005946 404.00560944 64.8776855 415.22551624 64.86279297 426.44555664 C64.84979536 436.22377021 64.8228791 446.00182887 64.779176 455.77995521 C64.75651865 460.95849441 64.74088094 466.13684224 64.74190521 471.31543541 C64.7426493 476.18857486 64.72479978 481.06129059 64.69262123 485.93432045 C64.68409472 487.72375177 64.68239089 489.51323046 64.68798637 491.30267334 C64.6946066 493.74493821 64.67675464 496.18584716 64.652771 498.62797546 C64.66053141 499.33712764 64.66829183 500.04627982 64.67628741 500.77692145 C64.59351859 505.53345661 63.49317917 507.94554264 60.13378906 511.29052734 C57.66017514 512.52733431 55.9797513 512.43740501 53.21264648 512.4675293 C52.1878569 512.48036453 51.16306732 512.49319977 50.10722351 512.50642395 C48.44008049 512.51750435 48.44008049 512.51750435 46.73925781 512.52880859 C45.59975174 512.53688034 44.46024567 512.54495209 43.28620911 512.55326843 C40.87107875 512.56711721 38.45592876 512.5778358 36.04077148 512.58569336 C32.34679082 512.6029085 28.65370435 512.64678928 24.95996094 512.69091797 C22.61556649 512.7010444 20.27116442 512.70956066 17.92675781 512.71630859 C16.82140182 512.73381668 15.71604584 512.75132477 14.57719421 512.7693634 C6.89689241 512.74763816 6.89689241 512.74763816 2.95922852 510.38891602 C0.13710132 507.14480965 0.0090645 505.34697819 0.01074123 501.12495995 C0.00875019 500.02370824 0.00675914 498.92245654 0.00470775 497.78783357 C0.0076206 496.56801054 0.01053344 495.34818751 0.01353455 494.09140015 C0.01268012 492.8033723 0.0118257 491.51534446 0.01094538 490.18828547 C0.00870081 486.60129728 0.01272119 483.01433874 0.01772344 479.42735434 C0.0220283 475.56368604 0.02058149 471.70001951 0.01982117 467.83634949 C0.01929595 461.13834612 0.02244248 454.44035246 0.02805901 447.74235153 C0.03617437 438.05807966 0.03878926 428.3738125 0.040047 418.6895376 C0.04223746 402.97873204 0.04889739 387.26793165 0.05834961 371.55712891 C0.06752387 356.29248073 0.07460464 341.02783397 0.07885742 325.76318359 C0.07925151 324.35261635 0.07925151 324.35261635 0.07965355 322.91355281 C0.08095856 318.19611164 0.08222227 313.47867046 0.08346546 308.76122928 C0.09383789 269.604325 0.11145605 230.44742651 0.13378906 191.29052734 C-1.03180542 191.06901001 -1.03180542 191.06901001 -2.22094727 190.84301758 C-11.76662511 188.84930563 -18.83131071 182.67604468 -24.86621094 175.29052734 C-29.04841816 168.62054347 -32.10637643 161.45747572 -32.13363647 153.51116943 C-32.14216644 152.38146225 -32.15069641 151.25175507 -32.15948486 150.08781433 C-32.15857849 148.86274673 -32.15767212 147.63767914 -32.15673828 146.37548828 C-32.16345551 145.07394302 -32.17017273 143.77239777 -32.17709351 142.43141174 C-32.19471284 138.87127285 -32.19944723 135.31123019 -32.20072508 131.7510519 C-32.20214983 129.52271725 -32.20642562 127.29440681 -32.21171951 125.06607819 C-32.23020813 117.28036454 -32.23839182 109.49471924 -32.23681641 101.70898438 C-32.23561614 94.47100299 -32.25669875 87.23332034 -32.28830373 79.9954145 C-32.31452849 73.76587525 -32.32518108 67.53643319 -32.32390559 61.30683923 C-32.32339766 57.59308117 -32.32898599 53.87958861 -32.35026169 50.16588593 C-32.37337646 46.01810072 -32.36408547 41.87097678 -32.35205078 37.72314453 C-32.36328979 36.50617386 -32.37452881 35.28920319 -32.3861084 34.03535461 C-32.31461243 24.31117279 -30.34588103 16.07747209 -23.56933594 8.82177734 C-16.62900593 2.58184761 -9.30648445 -0.01186749 0 0 Z M64.13378906 191.29052734 C65.13378906 194.29052734 65.13378906 194.29052734 65.13378906 194.29052734 Z " fill="#292929" transform="translate(31.8662109375,-0.29052734375)"/>
<path d="M0 0 C0.71703094 -0.00894287 1.43406189 -0.01788574 2.17282104 -0.02709961 C29.84875294 -0.25828328 56.20391554 12.0262004 75.875 31.25 C95.08459026 50.71476382 106.6593918 77.12426829 107.0625 104.5625 C106.55020145 134.90973927 95.37771547 161.3912465 74.5 183.25 C51.13964398 205.7596988 23.06623302 213.31105985 -8.63671875 212.91015625 C-22.51160878 212.62757778 -34.95228011 209.04320318 -47.25 202.5625 C-48.12398437 202.13453125 -48.99796875 201.7065625 -49.8984375 201.265625 C-74.54810971 188.69358588 -92.39722608 166.93921314 -101.49609375 141.01171875 C-102.48397211 137.87439077 -103.40429448 134.74090986 -104.25 131.5625 C-104.60578125 130.45390625 -104.9615625 129.3453125 -105.328125 128.203125 C-106.99787714 121.39902626 -106.69210147 114.21653806 -106.6875 107.25 C-106.6875705 106.48928192 -106.68764099 105.72856384 -106.68771362 104.9447937 C-106.64463301 92.86966309 -105.83011614 81.86934153 -101.25 70.5625 C-100.93353516 69.77391602 -100.61707031 68.98533203 -100.29101562 68.17285156 C-88.73429011 40.24960144 -68.4804891 19.27851054 -40.63671875 7.32421875 C-39.17759367 6.72928267 -37.71537195 6.14187895 -36.25 5.5625 C-35.23220459 5.15378662 -35.23220459 5.15378662 -34.19384766 4.73681641 C-23.06280533 0.50134474 -11.77641113 0.07282896 0 0 Z " fill="#F5F9FC" transform="translate(256.25,149.4375)"/>
<path d="M0 0 C0.68030273 0.38945801 1.36060547 0.77891602 2.06152344 1.18017578 C10.91566058 6.32161688 18.59223254 11.88854324 26 19 C27.28780119 20.06718186 28.57936692 21.12984034 29.875 22.1875 C50.67992796 40.5275871 64.12848246 66.48118156 71 93 C71.30808594 94.13953125 71.61617188 95.2790625 71.93359375 96.453125 C74.78125265 107.29875413 75.24084664 117.7111582 75.25 128.875 C75.25067474 129.61265594 75.25134949 130.35031189 75.25204468 131.11032104 C75.23573479 142.3328925 74.75248594 153.0792056 72 164 C71.83902832 164.64001953 71.67805664 165.28003906 71.51220703 165.93945312 C65.519654 188.94256736 54.64938708 210.13527319 39 228 C37.98099609 229.20076172 37.98099609 229.20076172 36.94140625 230.42578125 C32.63632607 235.41900291 28.1163291 239.84623451 23 244 C21.58074219 245.15822266 21.58074219 245.15822266 20.1328125 246.33984375 C7.47229497 256.47615825 -5.99238699 263.92700406 -21 270 C-21.9075 270.38929688 -22.815 270.77859375 -23.75 271.1796875 C-32.76201878 274.81265757 -42.4713611 276.30281981 -52 278 C-53.40245972 278.26695679 -53.40245972 278.26695679 -54.83325195 278.53930664 C-60.41586841 279.35145661 -66.0420699 279.22521228 -71.67285156 279.24023438 C-73.83439443 279.24981993 -75.99493455 279.28083237 -78.15625 279.3125 C-116.86824398 279.6055444 -152.10285966 261.87038923 -180 236 C-198.77024163 217.49524976 -210.92626973 194.43680828 -218.25 169.3125 C-218.49645264 168.46985596 -218.74290527 167.62721191 -218.99682617 166.7590332 C-222.12398725 155.5983218 -223.33224415 144.82601954 -223.26074219 133.24682617 C-223.25006548 131.20005305 -223.2606806 129.15416785 -223.2734375 127.10742188 C-223.28890662 114.37375778 -222.00645236 101.9459497 -218.375 89.6875 C-218.11630127 88.80433105 -217.85760254 87.92116211 -217.59106445 87.01123047 C-205.62943474 47.69313882 -178.55123781 16.36457975 -142.76269531 -3.22460938 C-132.56436336 -8.57954012 -122.1189058 -12.10568941 -111 -15 C-109.88367188 -15.30808594 -108.76734375 -15.61617188 -107.6171875 -15.93359375 C-72.06733491 -25.43476919 -31.51600038 -18.10994052 0 0 Z M-110 29 C-110.78858398 29.31646484 -111.57716797 29.63292969 -112.38964844 29.95898438 C-140.31289856 41.51570989 -161.28398946 61.7695109 -173.23828125 89.61328125 C-173.83321733 91.07240633 -174.42062105 92.53462805 -175 94 C-175.40871338 95.01779541 -175.40871338 95.01779541 -175.82568359 96.05615234 C-184.11961801 117.85304823 -182.73408435 146.66335207 -174 168 C-173.70029297 168.75506836 -173.40058594 169.51013672 -173.09179688 170.28808594 C-162.14862866 197.25103013 -141.35319118 217.3954149 -114.92089844 229.1953125 C-110.07127976 231.2268762 -105.09496802 232.72783246 -100 234 C-98.09927734 234.53367187 -98.09927734 234.53367187 -96.16015625 235.078125 C-89.72602683 236.47711223 -83.1717269 236.37203596 -76.61865234 236.37060547 C-74.39991818 236.37495119 -72.18322412 236.41128509 -69.96484375 236.44921875 C-42.3451254 236.66605111 -16.96926166 223.54971579 2.6875 204.75 C23.69215078 182.95156881 33.78407866 154.32876441 33.3125 124.265625 C31.90225372 99.28076168 21.6595369 76.45236786 5 58 C4.18015625 57.08605469 3.3603125 56.17210937 2.515625 55.23046875 C-11.10961504 40.81915717 -28.95749809 31.27292376 -48 26 C-49.26328125 25.64421875 -50.5265625 25.2884375 -51.828125 24.921875 C-58.90238074 23.39944572 -66.17120444 23.55771446 -73.375 23.5625 C-74.51233078 23.56239426 -74.51233078 23.56239426 -75.67263794 23.56228638 C-87.72837278 23.60541134 -98.71151853 24.42732105 -110 29 Z " fill="#CBD0DE" transform="translate(330,126)"/>
<path d="M0 0 C7.1920175 4.10211368 10.86385813 9.26398677 13.109375 17.203125 C13.29120648 19.77855245 13.38023291 22.24239528 13.36385059 24.81470585 C13.36705707 25.56470373 13.37026355 26.31470161 13.37356719 27.08742669 C13.38187423 29.60271967 13.37594048 32.11777498 13.37007141 34.6330719 C13.37309176 36.45372532 13.37698065 38.27437748 13.38166398 40.09502739 C13.39196747 45.09993409 13.38975619 50.10476934 13.38548338 55.10968196 C13.38302048 60.50645848 13.39202481 65.90321761 13.39952087 71.29998779 C13.41228127 81.87273315 13.41405996 92.44545312 13.41172061 103.01820488 C13.40993907 111.60879308 13.41168357 120.19937358 13.41594505 128.78996086 C13.41654024 130.01163861 13.41713543 131.23331637 13.41774866 132.49201466 C13.41896038 134.9736538 13.42017451 137.45529294 13.42139103 139.93693208 C13.43227139 163.21760042 13.43010152 186.49825428 13.42400619 209.77892344 C13.41883455 231.09209297 13.4300981 252.40519778 13.44910441 273.718359 C13.46845962 295.58996744 13.47674301 317.46155424 13.47298115 339.33317131 C13.47106585 351.6176176 13.47358883 363.90202499 13.48769569 376.18646431 C13.49958085 386.64218862 13.50104655 397.09785009 13.48890553 407.55357523 C13.48299713 412.89085451 13.4819714 418.22801868 13.49390793 423.56529045 C13.50469999 428.44741922 13.50174355 433.32933582 13.48764624 438.21145438 C13.48498084 439.98120412 13.48742312 441.75097013 13.49538211 443.52070398 C13.50542613 445.91985674 13.49711994 448.3182631 13.48410511 450.71738529 C13.49141446 451.41005148 13.4987238 452.10271766 13.50625464 452.81637374 C13.44200074 458.50131918 11.75061701 461.56188299 7.796875 465.515625 C4.52654206 467.56908987 2.90902131 467.75724009 -0.890625 467.203125 C-4.14385548 465.84130759 -5.57736233 464.68179326 -7.51065636 461.72770214 C-9.35064251 457.02819454 -9.31141042 452.93775262 -9.28262329 447.93489075 C-9.28856455 446.9028257 -9.29450581 445.87076065 -9.30062711 444.80742091 C-9.31693297 441.35042676 -9.31196838 437.89379197 -9.30712891 434.43676758 C-9.31450808 431.95801889 -9.32321281 429.47927383 -9.33314514 427.00053406 C-9.35165093 421.66401947 -9.36110604 416.32760589 -9.36244583 410.99106789 C-9.36448658 403.27212527 -9.3839588 395.55330239 -9.40784375 387.83440002 C-9.44623091 375.30603513 -9.47205105 362.77767834 -9.48925781 350.24926758 C-9.50600047 338.08812316 -9.52618443 325.92699645 -9.55273438 313.76586914 C-9.5543678 313.01641881 -9.55600122 312.26696847 -9.55768414 311.49480752 C-9.57564517 303.31583584 -9.5949931 295.13686832 -9.61598778 286.95790386 C-9.6178292 286.23948042 -9.61967062 285.52105698 -9.62156784 284.78086313 C-9.62894673 281.90927253 -9.6363404 279.03768198 -9.64391164 276.16609188 C-9.6660551 267.75429751 -9.68385565 259.34252036 -9.69386445 250.93070235 C-9.70099082 245.03574351 -9.71268288 239.14079985 -9.72599602 233.24585152 C-9.73056654 230.82343561 -9.73340443 228.40101574 -9.73441887 225.97859573 C-9.73598306 222.68250651 -9.74354271 219.38648419 -9.75259399 216.09040833 C-9.75152574 215.1227206 -9.75045749 214.15503287 -9.74935687 213.15802127 C-9.75298121 212.27793263 -9.75660556 211.397844 -9.76033974 210.49108601 C-9.76188747 209.34939912 -9.76188747 209.34939912 -9.76346648 208.18464786 C-9.81972701 205.99111131 -9.81972701 205.99111131 -10.890625 203.203125 C-13.67645396 201.9568331 -16.36486459 201.27811591 -19.3828125 200.84765625 C-29.36343863 199.41983297 -36.93179922 195.35852513 -43.35546875 187.4921875 C-56.50155702 167.89013222 -49.99451279 143.26427635 -47.16918945 121.36621094 C-46.90147781 119.28739838 -46.63662872 117.20824609 -46.37304688 115.12890625 C-45.39629626 107.42981314 -44.39865056 99.73362874 -43.390625 92.03857422 C-42.88473723 88.15796048 -42.38645594 84.27644204 -41.890625 80.39453125 C-40.08446847 66.26510086 -38.24045667 52.14237431 -36.24780273 38.0378418 C-35.5576695 33.14345644 -34.87077677 28.25777665 -34.37109375 23.33984375 C-33.42850065 14.43366038 -31.71702693 8.50072676 -25.015625 2.390625 C-16.46412344 -3.59542609 -9.24200106 -4.52539362 0 0 Z " fill="#DFE1EA" transform="translate(477.890625,23.796875)"/>
<path d="M0 0 C7.26 0 14.52 0 22 0 C22 28.38 22 56.76 22 86 C28.93 86 35.86 86 43 86 C43 57.95 43 29.9 43 1 C48 1 48 1 50.75 3.375 C53.73835138 6.86140995 54.12554658 8.37556266 54.14044189 12.85623169 C54.14615204 13.88236069 54.15186218 14.90848969 54.15774536 15.9657135 C54.15942215 17.66128639 54.15942215 17.66128639 54.16113281 19.39111328 C54.16858017 21.17180962 54.16858017 21.17180962 54.17617798 22.98847961 C54.18830142 26.25119678 54.19574937 29.51387808 54.20018864 32.77661371 C54.2031197 34.81662301 54.20722471 36.85662668 54.21169281 38.89663315 C54.22537395 45.28358469 54.23503594 51.67052338 54.2388947 58.05748856 C54.24336838 65.42151548 54.26088139 72.78535614 54.2898953 80.14932644 C54.31155522 85.84541454 54.32160138 91.54145041 54.32293582 97.23757923 C54.32398135 100.63718949 54.32983433 104.0366248 54.34775543 107.43619156 C54.36483581 111.23511023 54.36293008 115.03357789 54.35644531 118.83251953 C54.3656601 119.95075607 54.37487488 121.06899261 54.3843689 122.22111511 C54.3408586 130.37016906 53.28900984 137.09589407 47.625 143.375 C47.06039062 144.02210938 46.49578125 144.66921875 45.9140625 145.3359375 C41.50483551 149.16926545 36.31376974 149.47658648 30.71875 150.14453125 C27.10350132 151.28208795 24.87707998 152.72623248 23 156 C22.23572627 160.1655734 22.32340912 164.29697282 22.36076355 168.52192688 C22.34823004 170.45168823 22.34823004 170.45168823 22.33544332 172.42043465 C22.31293163 175.98944081 22.32150433 179.55780062 22.3351289 183.12682688 C22.34438644 186.9761845 22.32485158 190.82540814 22.30880737 194.67472839 C22.28495615 201.3432584 22.27936142 208.01160358 22.28615379 214.68017006 C22.29594801 224.32176374 22.27822877 233.96315226 22.25378648 243.60471275 C22.21487854 259.24730325 22.19823286 274.88983514 22.19555664 290.5324707 C22.19290928 305.72813931 22.17979628 320.92373942 22.15258789 336.11938477 C22.15007782 337.52428926 22.15007782 337.52428926 22.14751705 338.95757566 C22.1390576 343.65622118 22.13039218 348.3548663 22.12162435 353.05351126 C22.04914884 392.03566403 22.01316027 431.01778506 22 470 C14.74 470 7.48 470 0 470 C-0.00054477 468.38633702 -0.00108953 466.77267405 -0.00165081 465.11011219 C-0.01568847 426.82338513 -0.0554114 388.53675854 -0.12685562 350.25009378 C-0.1356226 345.53985778 -0.14417236 340.82962141 -0.15258789 336.11938477 C-0.15426695 335.18164328 -0.15594602 334.24390179 -0.15767596 333.2777439 C-0.18436131 318.08477899 -0.19344214 302.89185181 -0.19604143 287.69886587 C-0.19909857 272.11478784 -0.22101756 256.53081908 -0.26052457 240.9467904 C-0.28431481 231.32700071 -0.29331151 221.70742898 -0.28351311 212.0876139 C-0.27820611 205.49505628 -0.29118495 198.90269435 -0.3186629 192.31019244 C-0.33398379 188.50395561 -0.34112737 184.6981566 -0.32659721 180.89190674 C-0.31106544 176.76818893 -0.33398099 172.64558651 -0.36076355 168.52192688 C-0.35009029 167.31473332 -0.33941703 166.10753976 -0.32842034 164.86376458 C-0.21568521 158.26084078 -0.21568521 158.26084078 -3.36295033 152.7620573 C-6.36127081 150.75860149 -8.23943043 150.32942656 -11.8125 150.0625 C-19.33580136 149.08160216 -23.21378882 145.85953253 -28.375 140.5625 C-32.64332035 133.83168714 -32.29177934 126.71393009 -32.2746582 118.99365234 C-32.27976913 117.80097244 -32.28488007 116.60829254 -32.29014587 115.37947083 C-32.30162539 112.12547319 -32.30412207 108.87163436 -32.30158257 105.6176219 C-32.30050925 102.89629809 -32.30540508 100.17499753 -32.310188 97.45367873 C-32.32125956 91.03420544 -32.32173284 84.6147907 -32.31567383 78.1953125 C-32.30962534 71.57925349 -32.32197245 64.96340668 -32.3432439 58.34738386 C-32.36086394 52.65717668 -32.36686092 46.96703706 -32.36360615 41.27680361 C-32.36179494 37.88240758 -32.36441383 34.4881632 -32.37832069 31.09379196 C-32.39063193 27.31154659 -32.38392559 23.52979582 -32.37231445 19.74755859 C-32.37995819 18.62639145 -32.38760193 17.5052243 -32.39547729 16.3500824 C-32.38846298 15.31838425 -32.38144867 14.2866861 -32.3742218 13.22372437 C-32.37438954 12.33038076 -32.37455729 11.43703716 -32.37473011 10.51662254 C-31.91056744 7.39938638 -30.84026214 5.54182196 -29 3 C-26 1 -26 1 -21 1 C-21 29.05 -21 57.1 -21 86 C-14.07 86 -7.14 86 0 86 C0 57.62 0 29.24 0 0 Z " fill="#DCDFE8" transform="translate(53,21)"/>
<path d="M0 0 C0.64807617 0.16097168 1.29615234 0.32194336 1.96386719 0.48779297 C23.93648865 6.16923831 42.68830671 17.36345958 59 33 C59.81984375 33.75667969 60.6396875 34.51335937 61.484375 35.29296875 C77.03473843 50.09478984 88.62990995 70.22689532 94 91 C94.19319824 91.72703125 94.38639648 92.4540625 94.58544922 93.203125 C103.04855217 126.14359429 97.30853747 160.44199537 80.84375 189.94140625 C75.51064732 198.78848124 69.07603493 206.50636301 62 214 C61.21367187 214.87398437 60.42734375 215.74796875 59.6171875 216.6484375 C41.59877303 235.87910004 15.04381922 248.54889298 -11 252 C-11.78503906 252.11085938 -12.57007813 252.22171875 -13.37890625 252.3359375 C-28.76363591 254.11758068 -43.9487215 253.55216781 -59 250 C-60.01964844 249.79503906 -61.03929687 249.59007812 -62.08984375 249.37890625 C-82.83684044 244.8953271 -104.70694589 232.72645495 -119 217 C-119.78375 216.236875 -120.5675 215.47375 -121.375 214.6875 C-122.674375 213.3571875 -122.674375 213.3571875 -124 212 C-124.64582031 211.3503125 -125.29164063 210.700625 -125.95703125 210.03125 C-149.07243406 185.74186 -158.91073871 152.49461668 -158.21875 119.6015625 C-157.99737131 112.93585024 -157.3959609 106.52925626 -156 100 C-155.78996338 98.96842773 -155.78996338 98.96842773 -155.57568359 97.91601562 C-149.40080737 68.44588986 -132.84037149 42.31313452 -109 24 C-108.15953125 23.33226562 -107.3190625 22.66453125 -106.453125 21.9765625 C-76.80151131 -0.75634133 -36.27723903 -9.11911625 0 0 Z M-66 24 C-66.78858398 24.31646484 -67.57716797 24.63292969 -68.38964844 24.95898438 C-96.31289856 36.51570989 -117.28398946 56.7695109 -129.23828125 84.61328125 C-129.83321733 86.07240633 -130.42062105 87.53462805 -131 89 C-131.40871338 90.01779541 -131.40871338 90.01779541 -131.82568359 91.05615234 C-140.11961801 112.85304823 -138.73408435 141.66335207 -130 163 C-129.70029297 163.75506836 -129.40058594 164.51013672 -129.09179688 165.28808594 C-118.14862866 192.25103013 -97.35319118 212.3954149 -70.92089844 224.1953125 C-66.07127976 226.2268762 -61.09496802 227.72783246 -56 229 C-54.09927734 229.53367187 -54.09927734 229.53367187 -52.16015625 230.078125 C-45.72602683 231.47711223 -39.1717269 231.37203596 -32.61865234 231.37060547 C-30.39991818 231.37495119 -28.18322412 231.41128509 -25.96484375 231.44921875 C1.6548746 231.66605111 27.03073834 218.54971579 46.6875 199.75 C67.69215078 177.95156881 77.78407866 149.32876441 77.3125 119.265625 C75.90225372 94.28076168 65.6595369 71.45236786 49 53 C48.18015625 52.08605469 47.3603125 51.17210937 46.515625 50.23046875 C32.89038496 35.81915717 15.04250191 26.27292376 -4 21 C-5.26328125 20.64421875 -6.5265625 20.2884375 -7.828125 19.921875 C-14.90238074 18.39944572 -22.17120444 18.55771446 -29.375 18.5625 C-30.51233078 18.56239426 -30.51233078 18.56239426 -31.67263794 18.56228638 C-43.72837278 18.60541134 -54.71151853 19.42732105 -66 24 Z " fill="#2B2B2B" transform="translate(286,131)"/>
<path d="M0 0 C7.1920175 4.10211368 10.86385813 9.26398677 13.109375 17.203125 C13.29120648 19.77855245 13.38023291 22.24239528 13.36385059 24.81470585 C13.36866031 25.93970267 13.36866031 25.93970267 13.37356719 27.08742669 C13.38187423 29.60271967 13.37594048 32.11777498 13.37007141 34.6330719 C13.37309176 36.45372532 13.37698065 38.27437748 13.38166398 40.09502739 C13.39196747 45.09993409 13.38975619 50.10476934 13.38548338 55.10968196 C13.38302048 60.50645848 13.39202481 65.90321761 13.39952087 71.29998779 C13.41228127 81.87273315 13.41405996 92.44545312 13.41172061 103.01820488 C13.40993907 111.60879308 13.41168357 120.19937358 13.41594505 128.78996086 C13.41654024 130.01163861 13.41713543 131.23331637 13.41774866 132.49201466 C13.41896038 134.9736538 13.42017451 137.45529294 13.42139103 139.93693208 C13.43227139 163.21760042 13.43010152 186.49825428 13.42400619 209.77892344 C13.41883455 231.09209297 13.4300981 252.40519778 13.44910441 273.718359 C13.46845962 295.58996744 13.47674301 317.46155424 13.47298115 339.33317131 C13.47106585 351.6176176 13.47358883 363.90202499 13.48769569 376.18646431 C13.49958085 386.64218862 13.50104655 397.09785009 13.48890553 407.55357523 C13.48299713 412.89085451 13.4819714 418.22801868 13.49390793 423.56529045 C13.50469999 428.44741922 13.50174355 433.32933582 13.48764624 438.21145438 C13.48498084 439.98120412 13.48742312 441.75097013 13.49538211 443.52070398 C13.50542613 445.91985674 13.49711994 448.3182631 13.48410511 450.71738529 C13.49141446 451.41005148 13.4987238 452.10271766 13.50625464 452.81637374 C13.44692936 458.06525393 11.82414736 460.94274326 8.734375 465.015625 C6.50487455 466.64487533 4.80853917 466.28664962 2.109375 466.203125 C2.10877791 465.32320633 2.10818082 464.44328765 2.10756564 463.53670478 C2.07166729 411.37900613 2.01502153 359.22136516 1.93145405 307.06371997 C1.92143666 300.80029272 1.91159252 294.5368652 1.90185547 288.2734375 C1.8999141 287.02650825 1.89797272 285.779579 1.89597252 284.49486402 C1.86495624 264.30801134 1.8479729 244.12117003 1.83618078 223.93429801 C1.82376731 203.21882031 1.79626144 182.50340225 1.75476193 161.7879622 C1.72963223 149.00669296 1.71625735 136.22552262 1.71794543 123.44422832 C1.7179752 114.67816183 1.70333753 105.91219604 1.67721072 97.1461688 C1.66257141 92.08955385 1.65435624 87.03314542 1.66357231 81.97651291 C1.67187549 77.34226738 1.66165973 72.70843631 1.63703838 68.07425216 C1.63136718 66.40245724 1.63235088 64.73062288 1.64086255 63.05884001 C1.70348403 49.60059103 0.35242233 38.30508915 -9.4765625 28.33203125 C-16.60711694 22.04375913 -23.54028424 20.26314671 -32.890625 19.203125 C-33.18871744 13.03962537 -31.6233664 9.95745879 -27.890625 5.203125 C-19.8824674 -3.33304299 -10.22949613 -5.00892569 0 0 Z " fill="#F0F4F7" transform="translate(477.890625,23.796875)"/>
<path d="M0 0 C6.6 0 13.2 0 20 0 C20 28.05 20 56.1 20 85 C13.4 85 6.8 85 0 85 C0 56.95 0 28.9 0 0 Z " fill="#F5F9FC" transform="translate(54,22)"/>
<path d="M0 0 C5 0 5 0 7.75 2.375 C10.73835138 5.86140995 11.12554658 7.37556266 11.14044189 11.85623169 C11.14900711 13.39542519 11.14900711 13.39542519 11.15774536 14.9657135 C11.15886322 16.09609543 11.15998108 17.22647736 11.16113281 18.39111328 C11.16609772 19.57824417 11.17106262 20.76537506 11.17617798 21.98847961 C11.18830142 25.25119678 11.19574937 28.51387808 11.20018864 31.77661371 C11.2031197 33.81662301 11.20722471 35.85662668 11.21169281 37.89663315 C11.22537395 44.28358469 11.23503594 50.67052338 11.2388947 57.05748856 C11.24336838 64.42151548 11.26088139 71.78535614 11.2898953 79.14932644 C11.31155522 84.84541454 11.32160138 90.54145041 11.32293582 96.23757923 C11.32398135 99.63718949 11.32983433 103.0366248 11.34775543 106.43619156 C11.36483581 110.23511023 11.36293008 114.03357789 11.35644531 117.83251953 C11.3656601 118.95075607 11.37487488 120.06899261 11.3843689 121.22111511 C11.34233829 129.09303766 10.44114586 135.91924549 4.9375 142 C4.43089844 142.5775 3.92429687 143.155 3.40234375 143.75 C2 145 2 145 0 145 C0 97.15 0 49.3 0 0 Z " fill="#F0F3F6" transform="translate(96,22)"/>
<path d="M0 0 C0 6.93 0 13.86 0 21 C-3.3 21 -6.6 21 -10 21 C-10.13559675 18.43571485 -10.23433188 15.87864784 -10.3125 13.3125 C-10.35439453 12.59126953 -10.39628906 11.87003906 -10.43945312 11.12695312 C-10.53338706 7.01264672 -10.30659001 5.41945855 -7.79296875 1.98046875 C-5 0 -5 0 0 0 Z " fill="#F4F8FB" transform="translate(32,22)"/>
</svg>
