<?xml version="1.0" encoding="UTF-8"?>
<svg version="1.1" xmlns="http://www.w3.org/2000/svg" width="512" height="512">
<path d="M0 0 C0.99660645 0.19335938 1.99321289 0.38671875 3.02001953 0.5859375 C41.63868568 8.21664208 77.76515454 23.93797736 109 48 C109.81210937 48.62003906 110.62421875 49.24007812 111.4609375 49.87890625 C128.52608372 63.20264029 144.88644896 78.81925144 157.72607422 96.28173828 C159.02250666 98.03035682 160.35288718 99.74828803 161.69140625 101.46484375 C169.55567241 111.6795598 175.9411092 122.63725258 182 134 C182.66346436 135.24064209 182.66346436 135.24064209 183.34033203 136.50634766 C194.85704842 158.40949262 202.5280584 182.70059889 207 207 C207.16081055 207.80066895 207.32162109 208.60133789 207.48730469 209.42626953 C212.9794441 237.50412453 212.73396692 270.98977935 207 299 C206.80664062 299.99660645 206.61328125 300.99321289 206.4140625 302.02001953 C198.29528127 343.10882055 180.92584885 380.20299494 155 413 C154.18789063 414.03769531 153.37578125 415.07539063 152.5390625 416.14453125 C139.87407313 431.70608759 125.32374403 446.30214417 109 458 C107.65474408 458.98930622 106.30970229 459.97890366 104.96484375 460.96875 C69.79113227 486.58315441 29.16060925 502.46036752 -14 508 C-14.66720566 508.08732895 -15.33441132 508.1746579 -16.02183533 508.26463318 C-21.7382048 508.96087492 -27.37742627 509.17456148 -33.1328125 509.203125 C-34.0791153 509.21018463 -35.02541809 509.21724426 -36.00039673 509.22451782 C-75.14550628 509.45028019 -75.14550628 509.45028019 -92 506 C-93.49490967 505.70996094 -93.49490967 505.70996094 -95.02001953 505.4140625 C-136.10882055 497.29528127 -173.20299494 479.92584885 -206 454 C-207.03769531 453.18789063 -208.07539063 452.37578125 -209.14453125 451.5390625 C-224.71123494 438.86988389 -239.27786525 424.31201036 -251 408 C-251.8637527 406.83011544 -252.72835469 405.6608575 -253.59375 404.4921875 C-268.73707742 383.8661757 -280.8192165 361.25702873 -289 337 C-289.41306396 335.77748535 -289.41306396 335.77748535 -289.83447266 334.53027344 C-293.07255506 324.75942323 -295.60485473 314.87781263 -297.75 304.8125 C-297.94875732 303.88783936 -298.14751465 302.96317871 -298.35229492 302.01049805 C-301.64499027 285.80388823 -302.37530278 269.8696298 -302.3125 253.375 C-302.31034485 252.35676147 -302.3081897 251.33852295 -302.30596924 250.28942871 C-302.25626609 235.6652116 -301.94207988 221.37195362 -299 207 C-298.70996094 205.50509033 -298.70996094 205.50509033 -298.4140625 203.97998047 C-288.81132755 155.38095381 -266.29733758 111.67946909 -232 76 C-231.32195312 75.23558594 -230.64390625 74.47117187 -229.9453125 73.68359375 C-227.00620988 70.45058087 -225.58308411 69.15548909 -221.25 68 C-218 68 -218 68 -215 69 C-212.27698324 67.21559147 -212.27698324 67.21559147 -209.5 64.75 C-208.5409375 63.94046875 -207.581875 63.1309375 -206.59375 62.296875 C-205.7378125 61.53890625 -204.881875 60.7809375 -204 60 C-203.38253906 59.45601562 -202.76507813 58.91203125 -202.12890625 58.3515625 C-201.75636719 57.90554687 -201.38382812 57.45953125 -201 57 C-201.30791692 55.328451 -201.64386903 53.66194453 -202 52 C-200.8290418 47.90772816 -199.36775355 46.11989759 -195.84375 43.80078125 C-194.57132446 42.95422974 -194.57132446 42.95422974 -193.27319336 42.09057617 C-192.35803955 41.50381104 -191.44288574 40.9170459 -190.5 40.3125 C-189.55455322 39.69673096 -188.60910645 39.08096191 -187.63500977 38.4465332 C-158.30848764 19.55355621 -126.36441997 6.41923253 -92 0 C-91.19498047 -0.16226074 -90.38996094 -0.32452148 -89.56054688 -0.49169922 C-61.48740438 -5.98057635 -28.00471547 -5.73283995 0 0 Z " fill="#E4F5FC" transform="translate(302,3)"/>
<path d="M0 0 C2.35165989 0.01076275 4.70256163 0.0000136 7.05419922 -0.01269531 C29.39287393 -0.0396836 29.39287393 -0.0396836 34.5078125 4.11914062 C36.22216797 6.26074219 36.22216797 6.26074219 36.78466797 9.76074219 C36.22216797 13.26074219 36.22216797 13.26074219 34.08544922 15.49389648 C30.54606898 17.67794277 28.93268968 17.53411874 24.84716797 17.03027344 C17.28557831 16.25540741 9.82185699 15.99053477 2.22216797 15.94824219 C1.55728363 15.94429443 0.89239929 15.94034668 0.20736694 15.9362793 C-11.41407273 15.90433843 -22.47728487 17.19704523 -33.79614258 19.89355469 C-35.77783203 20.26074219 -35.77783203 20.26074219 -39.77783203 20.26074219 C-39.77783203 20.92074219 -39.77783203 21.58074219 -39.77783203 22.26074219 C-39.26478516 22.38449219 -38.75173828 22.50824219 -38.22314453 22.63574219 C-25.91365716 25.95142902 -13.85289813 31.62322134 -3.03955078 38.32714844 C-0.12731779 39.52926188 1.24592611 39.21425046 4.22216797 38.26074219 C5.87183095 37.49956329 7.49744142 36.68443683 9.09716797 35.82324219 C19.75464268 30.40843125 30.80035336 29.55241461 42.22216797 33.26074219 C44.81715415 34.31507038 47.29787907 35.53643159 49.78466797 36.82324219 C50.48245361 37.179104 51.18023926 37.53496582 51.89916992 37.90161133 C56.92925611 40.50396848 61.82126126 43.29891981 66.64648438 46.26635742 C71.16475056 49.04348615 75.73436322 51.72211527 80.33154297 54.36621094 C82.286822 55.4953783 84.24176667 56.625123 86.19668579 57.75491333 C87.49003594 58.49998259 88.78506632 59.24214389 90.08187866 59.98117065 C108.71363001 70.60666528 108.71363001 70.60666528 113.59716797 79.38574219 C114.05865234 80.19269531 114.52013672 80.99964844 114.99560547 81.83105469 C115.40037109 82.63285156 115.80513672 83.43464844 116.22216797 84.26074219 C116.59857422 84.99550781 116.97498047 85.73027344 117.36279297 86.48730469 C119.77403466 94.26903923 119.75613205 105.88649084 116.65966797 113.44824219 C115.53857422 115.42089844 115.53857422 115.42089844 114.22216797 117.26074219 C113.49320312 118.27974609 113.49320312 118.27974609 112.74951172 119.31933594 C106.75432299 126.8168651 98.56193216 131.72826165 90.22216797 136.26074219 C90.87159335 140.15640121 92.03826519 143.5432702 93.54248047 147.19042969 C93.99494141 148.31578125 94.44740234 149.44113281 94.91357422 150.60058594 C95.86769364 152.95338723 96.83121917 155.30239642 97.80419922 157.64746094 C102.07061486 168.34406175 102.07061486 168.34406175 100.22216797 174.26074219 C99.09716797 176.19824219 99.09716797 176.19824219 97.22216797 177.26074219 C93.59448881 177.72244681 91.26877449 178.00336358 88.21826172 175.83886719 C85.32224395 172.09841371 84.18790108 168.03461137 82.72216797 163.57324219 C72.78271095 134.93437254 58.01257981 109.31568712 37.22216797 87.26074219 C36.57376953 86.54789062 35.92537109 85.83503906 35.25732422 85.10058594 C25.39676391 74.67223905 13.35132099 66.41911825 1.28466797 58.76074219 C0.52879395 58.28080811 -0.22708008 57.80087402 -1.00585938 57.30639648 C-6.43092524 53.93660279 -12.02604255 51.03181986 -17.77783203 48.26074219 C-17.88015137 48.81036621 -17.9824707 49.35999023 -18.08789062 49.92626953 C-19.23484193 55.60784813 -20.98076009 60.63110733 -23.40283203 65.88574219 C-23.75764648 66.66425537 -24.11246094 67.44276855 -24.47802734 68.24487305 C-37.94212288 97.43791308 -57.34835528 122.63001734 -83.13916016 142.0234375 C-84.5987222 143.12550252 -86.04112972 144.25020367 -87.48095703 145.37792969 C-112.20303283 164.26074219 -112.20303283 164.26074219 -121.77783203 164.26074219 C-104.30576768 195.98842269 -74.4422437 221.33422311 -41.77783203 236.26074219 C-41.05644043 236.59315918 -40.33504883 236.92557617 -39.59179688 237.26806641 C-20.9629675 245.75196101 -1.79829114 251.06846103 18.22216797 255.07324219 C18.9562085 255.22044708 19.69024902 255.36765198 20.4465332 255.51931763 C29.22034039 257.26236133 37.98207377 258.72196087 46.86108398 259.81323242 C66.95365219 262.48844689 93.05436506 270.66931053 106.22216797 287.26074219 C106.63547011 293.77025098 106.63547011 293.77025098 105.72607422 297.04980469 C102.79135638 309.92616358 106.01932947 323.8918039 112.66748047 335.06152344 C116.64534122 340.68849732 121.37211662 346.51010443 127.22216797 350.26074219 C130.67966746 350.92751097 130.67966746 350.92751097 134.22216797 350.26074219 C138.55892764 346.72447556 140.14328089 343.59115908 141.68701172 338.27246094 C141.88766739 337.61043167 142.08832306 336.9484024 142.2950592 336.26631165 C143.1444641 333.46246065 143.95698068 330.6483097 144.77172852 327.83422852 C148.24478076 315.9560853 152.0918439 306.74994359 163.22216797 300.26074219 C168.54814806 297.7341186 174.00271232 295.54994844 179.47241211 293.35986328 C181.34729145 292.60458126 183.21646577 291.83518571 185.08544922 291.06542969 C186.19186768 290.62183105 187.29828613 290.17823242 188.43823242 289.72119141 C191.3550406 288.19103737 192.61813047 287.10576764 194.22216797 284.26074219 C194.85640911 279.97961447 194.65449895 277.95247175 192.34716797 274.26074219 C184.21682538 265.72046636 172.10914188 258.89754436 160.22216797 258.26074219 C159.34173828 258.21046875 158.46130859 258.16019531 157.55419922 258.10839844 C150.99810214 257.89636425 145.38660405 258.71329701 139.10888672 260.60449219 C131.09335862 262.42669614 131.09335862 262.42669614 127.59301758 260.24560547 C125.89479661 258.77306257 124.37189935 257.2247621 122.84716797 255.57324219 C122.00581299 254.69236938 122.00581299 254.69236938 121.14746094 253.79370117 C108.93026295 240.6938587 99.03295585 223.90548398 95.22216797 206.26074219 C95.6754967 199.93356837 95.6754967 199.93356837 97.84716797 197.26074219 C101.33798584 195.79092414 103.61365753 196.27660298 107.22216797 197.26074219 C110.49762829 200.57755933 111.52897095 204.80282702 112.90966797 209.13574219 C117.37833998 222.38693137 124.26130578 234.29988 134.22216797 244.26074219 C137.4163846 244.05100462 137.4163846 244.05100462 141.09716797 243.38574219 C149.52282437 242.09659847 157.82825759 241.36680934 166.22216797 243.26074219 C168.49542435 236.06209697 169.97794281 228.73590062 171.34716797 221.32324219 C171.51764648 220.41880371 171.688125 219.51436523 171.86376953 218.58251953 C179.96548916 173.65260518 170.43402295 127.85336558 145.00732422 89.95996094 C139.20491101 82.03804055 132.74743341 74.59310567 126.22216797 67.26074219 C125.31724609 66.24367187 125.31724609 66.24367187 124.39404297 65.20605469 C107.7011696 47.58579946 85.37840116 35.76844189 63.27319336 26.51782227 C60.4775472 25.33473413 58.39095807 24.42953229 56.22216797 22.26074219 C55.55401652 15.35651056 55.55401652 15.35651056 57.78466797 11.69824219 C61.28043013 9.63663886 63.28153649 10.46061397 67.22216797 11.26074219 C69.95437012 12.1365059 72.58227631 13.20210831 75.22216797 14.32324219 C75.95910889 14.63269775 76.6960498 14.94215332 77.45532227 15.26098633 C124.09136986 35.24358081 158.57772712 73.00630179 178.22216797 119.26074219 C186.5294755 140.24695617 190.63032673 162.2088436 190.53466797 184.76074219 C190.53193375 185.79489761 190.53193375 185.79489761 190.52914429 186.84994507 C190.44925512 204.94835492 188.28294262 222.04088643 183.21044922 239.42480469 C182.38933419 242.61189937 181.98465655 245.012613 182.22216797 248.26074219 C182.86541016 248.55464844 183.50865234 248.84855469 184.17138672 249.15136719 C193.44663792 253.75591415 205.79230547 261.91986984 209.76904297 272.07324219 C211.4139074 280.01396701 211.15948202 287.11774904 206.99951172 294.16308594 C201.76974009 300.33536585 195.9231359 303.65997356 188.53466797 306.76074219 C186.75944781 307.53959565 184.98470639 308.31954124 183.21044922 309.10058594 C180.87456446 310.11578552 178.53758605 311.12712389 176.19238281 312.12060547 C174.52564477 312.8318253 172.87313155 313.57613536 171.22216797 314.32324219 C170.33529297 314.70609375 169.44841797 315.08894531 168.53466797 315.48339844 C160.99814077 321.27583066 159.36182734 334.25636363 156.92919922 342.90722656 C154.06854174 352.36979285 150.00737433 359.4801222 141.47216797 364.82324219 C135.43942215 367.37828748 128.90350878 367.27339065 122.65185547 365.55371094 C114.78984594 362.17886119 108.7236307 355.66021001 103.22216797 349.26074219 C103.22216797 348.60074219 103.22216797 347.94074219 103.22216797 347.26074219 C101.75070312 348.00517578 101.75070312 348.00517578 100.24951172 348.76464844 C96.64811554 350.58110657 93.038467 352.38045766 89.42382812 354.17041016 C88.04216324 354.85465449 86.6614745 355.54087723 85.28222656 356.22998047 C64.77559125 366.42583358 41.55955868 373.6997979 18.59716797 374.57324219 C12.73689018 374.91202092 8.89801677 375.99047341 3.84326172 378.86230469 C-20.33746122 391.76349517 -52.5339568 391.20378101 -78.11376953 383.56298828 C-80.33137884 382.85768634 -82.52498137 382.10886999 -84.71533203 381.32324219 C-85.68200806 380.98075439 -85.68200806 380.98075439 -86.66821289 380.63134766 C-90.98312319 378.95111362 -93.85800918 376.84969111 -96.77783203 373.26074219 C-96.84353259 369.45010977 -96.57913738 367.28641303 -94.21533203 364.26074219 C-90.61978639 362.78564654 -87.43007901 363.27768423 -83.77783203 364.26074219 C-82.09478507 365.00332291 -80.41178159 365.74600283 -78.72924805 366.48974609 C-75.30210337 367.84379625 -71.74366339 368.59271406 -68.15283203 369.38574219 C-67.41548828 369.55460937 -66.67814453 369.72347656 -65.91845703 369.89746094 C-63.87365255 370.36285551 -61.82819634 370.82049209 -59.77783203 371.26074219 C-58.97337646 371.43943848 -58.1689209 371.61813477 -57.34008789 371.80224609 C-31.37708384 376.44812714 -3.68296842 368.0545505 17.80810547 353.51074219 C20.02194352 351.83288598 22.12775174 350.08516001 24.22216797 348.26074219 C25.07681641 347.53757812 25.93146484 346.81441406 26.81201172 346.06933594 C31.70764944 341.8206988 35.73209942 337.72851625 39.22216797 332.26074219 C38.39716797 332.01324219 37.57216797 331.76574219 36.72216797 331.51074219 C32.69843326 330.07369408 29.00237773 328.23719704 25.22216797 326.26074219 C24.99142578 326.82277344 24.76068359 327.38480469 24.52294922 327.96386719 C16.28675819 342.50705134 -4.44534663 351.282368 -19.7578125 355.8515625 C-43.52218298 362.16538813 -67.60558441 358.25264138 -88.77783203 346.26074219 C-92.66599293 343.82403319 -96.24012248 341.17907357 -99.77783203 338.26074219 C-100.61572266 337.596875 -101.45361328 336.93300781 -102.31689453 336.24902344 C-118.74310566 322.49270731 -129.65541287 301.02344565 -132.46142578 279.94042969 C-133.6385059 266.25142388 -133.15737457 253.39936982 -128.77783203 240.26074219 C-130.01533203 239.88949219 -130.01533203 239.88949219 -131.27783203 239.51074219 C-135.30156674 238.07369408 -138.99762227 236.23719704 -142.77783203 234.26074219 C-142.91060547 235.246875 -143.04337891 236.23300781 -143.18017578 237.24902344 C-143.65764327 240.60813774 -144.28944779 243.9266807 -144.93408203 247.2578125 C-149.4822963 271.78099662 -146.1226416 295.01408741 -134.77783203 317.26074219 C-134.25576172 318.30230469 -133.73369141 319.34386719 -133.19580078 320.41699219 C-129.23225083 327.74618432 -124.15437112 333.84216531 -118.64501953 340.03417969 C-118.1690332 340.57034912 -117.69304687 341.10651855 -117.20263672 341.65893555 C-116.23920966 342.74204811 -115.27096362 343.82089033 -114.29833984 344.89575195 C-110.77783203 348.90370516 -110.77783203 348.90370516 -110.77783203 352.44824219 C-112.32020491 356.78616592 -112.32020491 356.78616592 -114.77783203 358.26074219 C-118.31426691 358.95416079 -120.63577124 358.99394522 -123.73095703 357.00683594 C-125.87146092 355.1907785 -127.82709208 353.27913786 -129.77783203 351.26074219 C-130.41591797 350.62007813 -131.05400391 349.97941406 -131.71142578 349.31933594 C-147.68450356 332.38208847 -158.44306577 309.94526274 -161.09033203 286.88574219 C-162.13190301 278.09235807 -164.60797218 271.33700651 -168.64892578 263.52246094 C-189.56058392 222.92588587 -189.40280126 171.9242877 -175.77783203 129.26074219 C-173.43046161 122.21718994 -170.94249875 115.24164017 -167.40283203 108.69824219 C-165.19988869 104.03816973 -165.31892774 100.76915969 -166.23876953 95.74121094 C-170.00820899 74.90003482 -169.4324519 52.77937093 -158.96533203 34.01074219 C-148.89984674 21.35698925 -135.95501426 15.09113284 -120.03564453 12.69824219 C-113.3160107 11.99765647 -106.55258015 12.11196258 -99.80444336 12.13037109 C-97.48105266 12.13570609 -95.15785729 12.13041379 -92.83447266 12.12402344 C-86.2632146 12.12362856 -79.8443882 12.18835246 -73.30908203 12.96777344 C-67.4322339 13.52819322 -63.02623077 12.19859937 -57.59033203 10.07324219 C-55.76425303 9.41390209 -53.93608648 8.7603171 -52.10595703 8.11230469 C-50.76114258 7.63325684 -50.76114258 7.63325684 -49.38916016 7.14453125 C-45.58685675 5.85766342 -41.74862465 4.85514134 -37.84033203 3.94824219 C-36.00148437 3.52091797 -36.00148437 3.52091797 -34.12548828 3.08496094 C-22.70457932 0.82133234 -11.61019017 -0.06308567 0 0 Z " fill="#030303" transform="translate(252.77783203125,68.7392578125)"/>
<path d="M0 0 C25.53356377 4.30919086 55.9373582 35.46601795 70.609375 55.58203125 C83.410977 73.66874635 93.34397964 93.20777615 101.125 113.92578125 C101.60876099 115.21379639 101.60876099 115.21379639 102.10229492 116.52783203 C102.6870108 118.13806674 103.2434919 119.75892574 103.7668457 121.39013672 C104.99761484 125.47129666 104.99761484 125.47129666 108.04296875 128.21875 C108.75066406 128.3115625 109.45835937 128.404375 110.1875 128.5 C111.445625 128.665 112.70375 128.83 114 129 C114.67668949 131.20528272 115.34093498 133.41438609 116 135.625 C116.37125 136.85476562 116.7425 138.08453125 117.125 139.3515625 C117.94539583 142.77232011 118.33396279 145.50623542 118 149 C117.319375 149.61875 116.63875 150.2375 115.9375 150.875 C113.62982251 152.93653621 113.62982251 152.93653621 113.9375 156.375 C117.11492298 173.3632021 125.84015684 189.03281068 137 202 C137.43280273 202.5067627 137.86560547 203.01352539 138.31152344 203.53564453 C143.31837862 209.76364757 143.31837862 209.76364757 150.4453125 212.35546875 C153.72112691 212.02788731 156.54386683 211.44703593 159.6875 210.5 C173.4315754 206.87500011 186.563684 209.42629294 199 216 C204.19975211 219.66271847 209.56976981 223.54681355 213 229 C213.50390911 232.95928584 213.55421172 235.12935994 211.38964844 238.52978516 C208.55125347 241.46387591 206.11108237 242.5730632 202.328125 244.0859375 C201.68687683 244.35080963 201.04562866 244.61568176 200.38494873 244.88858032 C197.66569338 246.01171511 194.93377636 247.10220648 192.20117188 248.19238281 C177.3670255 254.1255247 177.3670255 254.1255247 167.91748047 266.50976562 C165.51519725 273.030066 163.46001374 279.67612253 161.42993164 286.3203125 C160.81327756 288.32795687 160.175809 290.32803071 159.53515625 292.328125 C159.167854 293.5130957 158.80055176 294.69806641 158.42211914 295.91894531 C156.79394245 299.44642855 155.24401505 300.91400512 152 303 C148.8125 303.8125 148.8125 303.8125 145 303 C133.75430621 295.05661312 125.2694112 282.9798157 122.2734375 269.44140625 C121.47949651 262.35264742 120.94413793 253.88867217 123 247 C123.8482793 241.76668591 123.8482793 241.76668591 121.671875 237.20703125 C104.2651616 221.22649815 80.18964499 213.778253 57.1875 211.25 C-0.59988202 204.43379536 -54.95183726 181.79932388 -91.796875 135.53515625 C-94.25052799 132.39485496 -96.63116018 129.2046462 -99 126 C-99.57105469 125.25234375 -100.14210937 124.5046875 -100.73046875 123.734375 C-104 119.375 -104 119.375 -104 116 C-103.4423999 115.71914551 -102.8847998 115.43829102 -102.31030273 115.14892578 C-54.42519303 90.89894213 -18.21628227 53.77187536 -0.77734375 2.39453125 C-0.52082031 1.60433594 -0.26429688 0.81414062 0 0 Z " fill="#60A9B7" transform="translate(235,117)"/>
<path d="M0 0 C0.99660645 0.19335938 1.99321289 0.38671875 3.02001953 0.5859375 C41.63868568 8.21664208 77.76515454 23.93797736 109 48 C109.81210937 48.62003906 110.62421875 49.24007812 111.4609375 49.87890625 C128.52608372 63.20264029 144.88644896 78.81925144 157.72607422 96.28173828 C159.02250666 98.03035682 160.35288718 99.74828803 161.69140625 101.46484375 C169.55567241 111.6795598 175.9411092 122.63725258 182 134 C182.66346436 135.24064209 182.66346436 135.24064209 183.34033203 136.50634766 C194.85704842 158.40949262 202.5280584 182.70059889 207 207 C207.16081055 207.80066895 207.32162109 208.60133789 207.48730469 209.42626953 C212.9794441 237.50412453 212.73396692 270.98977935 207 299 C206.80664062 299.99660645 206.61328125 300.99321289 206.4140625 302.02001953 C198.29528127 343.10882055 180.92584885 380.20299494 155 413 C154.18789063 414.03769531 153.37578125 415.07539063 152.5390625 416.14453125 C139.87407313 431.70608759 125.32374403 446.30214417 109 458 C107.65474408 458.98930622 106.30970229 459.97890366 104.96484375 460.96875 C69.79113227 486.58315441 29.16060925 502.46036752 -14 508 C-14.66720566 508.08732895 -15.33441132 508.1746579 -16.02183533 508.26463318 C-21.7382048 508.96087492 -27.37742627 509.17456148 -33.1328125 509.203125 C-34.0791153 509.21018463 -35.02541809 509.21724426 -36.00039673 509.22451782 C-75.14550628 509.45028019 -75.14550628 509.45028019 -92 506 C-93.49490967 505.70996094 -93.49490967 505.70996094 -95.02001953 505.4140625 C-136.10882055 497.29528127 -173.20299494 479.92584885 -206 454 C-207.03769531 453.18789063 -208.07539063 452.37578125 -209.14453125 451.5390625 C-224.71123494 438.86988389 -239.27786525 424.31201036 -251 408 C-251.8637527 406.83011544 -252.72835469 405.6608575 -253.59375 404.4921875 C-268.73707742 383.8661757 -280.8192165 361.25702873 -289 337 C-289.41306396 335.77748535 -289.41306396 335.77748535 -289.83447266 334.53027344 C-293.07255506 324.75942323 -295.60485473 314.87781263 -297.75 304.8125 C-297.94875732 303.88783936 -298.14751465 302.96317871 -298.35229492 302.01049805 C-301.64499027 285.80388823 -302.37530278 269.8696298 -302.3125 253.375 C-302.31034485 252.35676147 -302.3081897 251.33852295 -302.30596924 250.28942871 C-302.25626609 235.6652116 -301.94207988 221.37195362 -299 207 C-298.70996094 205.50509033 -298.70996094 205.50509033 -298.4140625 203.97998047 C-288.81132755 155.38095381 -266.29733758 111.67946909 -232 76 C-231.32195312 75.23558594 -230.64390625 74.47117187 -229.9453125 73.68359375 C-227.10856158 70.56316774 -225.44098115 69.15206247 -221.375 67.75 C-218 68 -218 68 -215.0625 70.0625 C-213 73 -213 73 -212.25 75.8125 C-213.41258311 80.7534782 -216.5163535 83.42204158 -220 87 C-244.41757733 112.54183989 -262.50586109 142.54866497 -274 176 C-274.24830566 176.70672852 -274.49661133 177.41345703 -274.75244141 178.14160156 C-278.60414251 189.19755858 -281.06683729 200.4633838 -283 212 C-283.15243164 212.90717773 -283.30486328 213.81435547 -283.46191406 214.74902344 C-293.49438576 277.00235211 -277.96050085 341.83726158 -241.39331055 393.03710938 C-228.48956211 410.81477727 -213.39816159 427.53553128 -196 441 C-195.4524707 441.42394043 -194.90494141 441.84788086 -194.34082031 442.28466797 C-184.3509786 449.96074792 -173.88268651 456.66489143 -163 463 C-162.38753418 463.3619043 -161.77506836 463.72380859 -161.14404297 464.09667969 C-143.81504013 474.25020252 -124.49441204 481.34756718 -105 486 C-104.2889209 486.17724609 -103.5778418 486.35449219 -102.84521484 486.53710938 C-97.59074854 487.84277178 -92.31768535 488.98262757 -87 490 C-86.20770996 490.15243164 -85.41541992 490.30486328 -84.59912109 490.46191406 C-59.0578499 495.15182426 -32.54105088 494.02591299 -7 490 C-6.26652344 489.89316895 -5.53304688 489.78633789 -4.77734375 489.67626953 C20.30718831 485.99696317 44.70364178 476.87734377 67 465 C67.65178223 464.65743164 68.30356445 464.31486328 68.97509766 463.96191406 C123.13108659 435.32955332 164.48722398 384.46475327 182.8972168 326.18310547 C187.74555212 310.31512083 190.77762663 294.4213998 193 278 C193.17345947 276.74276123 193.34691895 275.48552246 193.52563477 274.19018555 C194.38609503 267.22376296 194.29043578 260.19723002 194.3125 253.1875 C194.31511841 252.39265198 194.31773682 251.59780396 194.32043457 250.77886963 C194.32566588 235.87376086 192.84477797 221.65314655 190 207 C189.77570313 205.7622583 189.77570313 205.7622583 189.546875 204.49951172 C178.28544561 142.67895663 139.06561177 88.9962325 88.22949219 53.52197266 C60.46966206 34.57160242 27.99861566 21.97084899 -5 16 C-5.80679199 15.85046875 -6.61358398 15.7009375 -7.44482422 15.546875 C-66.74543799 5.01463202 -130.19352324 19.57966894 -180 53 C-181.90345299 54.38542464 -183.80069873 55.77948164 -185.6875 57.1875 C-188.77502232 59.40350139 -189.98423088 59.99745659 -193.875 60.625 C-197.18279717 59.96344057 -198.75190602 59.50748944 -201 57 C-202.07645697 54.07818823 -202.15589429 52.52448034 -201.26757812 49.53588867 C-199.80711578 46.61412011 -198.55283957 45.58360973 -195.84375 43.80078125 C-194.57132446 42.95422974 -194.57132446 42.95422974 -193.27319336 42.09057617 C-192.35803955 41.50381104 -191.44288574 40.9170459 -190.5 40.3125 C-189.55455322 39.69673096 -188.60910645 39.08096191 -187.63500977 38.4465332 C-158.30848764 19.55355621 -126.36441997 6.41923253 -92 0 C-91.19498047 -0.16226074 -90.38996094 -0.32452148 -89.56054688 -0.49169922 C-61.48740438 -5.98057635 -28.00471547 -5.73283995 0 0 Z " fill="#010102" transform="translate(302,3)"/>
<path d="M0 0 C0.495 1.485 0.495 1.485 1 3 C2.27875 3.103125 3.5575 3.20625 4.875 3.3125 C10.13670594 3.88133308 14.99147146 5.3374613 20 7 C19.95875 8.051875 19.9175 9.10375 19.875 10.1875 C20.57802347 13.94497303 20.57802347 13.94497303 22.73046875 15.33203125 C25.44333077 16.69073434 28.18721504 17.86108094 31 19 C74.11260291 36.73293134 107.95426885 69.63068212 126.3125 112.625 C129.48771226 120.28543955 132.0209055 127.93881021 134 136 C134.41185547 137.63001953 134.41185547 137.63001953 134.83203125 139.29296875 C137.77481298 151.4265072 139.35012984 163.19477835 139.25 175.6875 C139.24395752 176.90920898 139.23791504 178.13091797 139.23168945 179.38964844 C139.12660722 189.04192883 138.5100072 198.46879781 137 208 C136.83927002 209.0506665 136.83927002 209.0506665 136.67529297 210.12255859 C135.32125946 218.75723228 133.37564697 226.91215548 130 235 C128.94683594 234.97679687 127.89367187 234.95359375 126.80859375 234.9296875 C125.35158664 234.90962134 123.89455137 234.89154321 122.4375 234.875 C121.67115234 234.86259277 120.90480469 234.85018555 120.11523438 234.83740234 C116.2452392 234.82224779 112.6363242 234.97265427 108.84765625 235.796875 C99.35958448 237.83897776 99.35958448 237.83897776 95.34765625 235.36328125 C92.86473615 232.72756606 90.94879335 230.05145049 89 227 C87.93845703 225.44345703 87.93845703 225.44345703 86.85546875 223.85546875 C80.58676151 214.23724817 76.55053829 204.04367886 72.9921875 193.1796875 C72.0831508 190.67447937 72.0831508 190.67447937 69 189 C67.34450469 188.61500109 65.6777567 188.27206865 64 188 C63.30081695 185.41932437 62.61538951 182.83627153 61.9375 180.25 C61.73833984 179.52039063 61.53917969 178.79078125 61.33398438 178.0390625 C60.36910353 174.31496101 59.7264473 171.65566535 61 168 C61.53625 167.4225 62.0725 166.845 62.625 166.25 C64.72787994 162.80892374 63.88935018 159.75535996 63 156 C61.05115841 150.51619915 58.70816252 145.195535 56.41796875 139.84765625 C55.74314453 138.22923828 55.74314453 138.22923828 55.0546875 136.578125 C54.63687012 135.60262695 54.21905273 134.62712891 53.78857422 133.62207031 C52.95089589 130.83672503 52.81918722 129.63372905 54 127 C56.625 125.140625 56.625 125.140625 60 123.25 C70.18247953 117.28979743 77.17450382 111.47648854 81 100 C82.46307503 86.72280804 80.8545241 76.79271126 72.7109375 65.953125 C70.01614004 62.80407463 66.85453311 60.66611369 63.3125 58.5625 C62.63823975 58.15128906 61.96397949 57.74007812 61.26928711 57.31640625 C52.37879268 51.94089473 43.3426635 46.80410737 34.328125 41.640625 C28.291606 38.17930164 22.29336354 34.65614084 16.33813477 31.05664062 C5.48571206 24.58271286 -5.77369334 21.89268972 -18.30078125 24.75390625 C-22.69713835 26.15000969 -26.69837687 27.57492771 -30.4375 30.3125 C-33 32 -33 32 -35.34814453 31.7487793 C-38.08865368 30.9749677 -40.44196812 29.97140317 -42.9921875 28.70703125 C-43.93827881 28.24401611 -44.88437012 27.78100098 -45.85913086 27.30395508 C-46.85436768 26.8117749 -47.84960449 26.31959473 -48.875 25.8125 C-57.78837205 21.46820886 -66.71321967 17.47704098 -76 14 C-76 13.34 -76 12.68 -76 12 C-74.10579701 11.53497472 -72.20949918 11.07848383 -70.3125 10.625 C-69.25675781 10.36976562 -68.20101562 10.11453125 -67.11328125 9.8515625 C-56.21307594 7.50014968 -45.70667156 6.70804057 -34.5625 6.8125 C-33.25990234 6.81314453 -31.95730469 6.81378906 -30.61523438 6.81445312 C-22.97862721 6.84866391 -15.49666335 7.2216464 -7.90600586 8.08081055 C-4.52520148 7.98679675 -3.34471874 7.39038834 -1 5 C-0.1957792 2.40144267 -0.1957792 2.40144267 0 0 Z " fill="#D1EDFB" transform="translate(289,77)"/>
<path d="M0 0 C1.06362762 0.00422974 1.06362762 0.00422974 2.14874268 0.00854492 C25.62950726 0.14855117 48.11234605 4.49217295 69.625 14.3125 C62.03835123 52.33294673 31.77150504 87.57966893 0.63378906 108.98974609 C-4.59189569 112.43077186 -10.06451516 115.43821387 -15.59033203 118.36523438 C-17.22396166 119.23233191 -18.84511554 120.12282917 -20.46484375 121.015625 C-21.34269531 121.48484375 -22.22054687 121.9540625 -23.125 122.4375 C-24.23101562 123.02917969 -24.23101562 123.02917969 -25.359375 123.6328125 C-27.375 124.3125 -27.375 124.3125 -29.40625 124.37890625 C-32.66933469 122.61140204 -33.68520293 119.38477968 -35.125 116.125 C-35.46426514 115.37831055 -35.80353027 114.63162109 -36.15307617 113.86230469 C-42.20181295 100.24882213 -47.79347811 86.02523379 -50.375 71.3125 C-50.67857422 69.78496094 -50.67857422 69.78496094 -50.98828125 68.2265625 C-53.78876962 52.18566991 -55.40856787 31.5284402 -47.125 16.875 C-40.19146286 7.13941393 -29.85019494 2.86549272 -18.34008789 0.70068359 C-12.25242306 -0.09630176 -6.12989055 -0.0350924 0 0 Z " fill="#F2F4F6" transform="translate(152.375,95.6875)"/>
<path d="M0 0 C2.90379032 2.90379032 3.93855534 6.55708756 5.4375 10.3125 C12.44666125 27.32915876 20.992321 43.23943579 32 58 C32.44843262 58.60392578 32.89686523 59.20785156 33.35888672 59.83007812 C39.63147141 68.20557111 46.41429391 76.02370009 53.64794922 83.58056641 C54.83335841 84.82505342 55.9985004 86.08878072 57.16015625 87.35546875 C79.17458085 110.64240344 109.9189714 125.37917474 140 135 C140.67853027 135.22494141 141.35706055 135.44988281 142.05615234 135.68164062 C160.242669 141.69386236 179.38342694 145.36827546 198.375 147.625 C210.62909984 149.10065204 221.66609865 151.69064597 232.9375 156.875 C233.62376465 157.19041748 234.3100293 157.50583496 235.01708984 157.83081055 C237.05750218 158.81929789 239.02773798 159.88195392 241 161 C241.75007324 161.40589355 242.50014648 161.81178711 243.27294922 162.22998047 C246.41427639 164.18595341 248.64852307 165.57736254 249.56420898 169.28369141 C249.64612807 172.01973664 249.49062314 174.64856378 249.25 177.375 C248.81789438 186.24904609 249.60800654 193.41381241 252.22265625 201.8828125 C253.00352569 205.0141382 253.15325541 206.08825782 252 209 C250.44384766 210.26098633 250.44384766 210.26098633 248.4140625 211.33203125 C247.65722168 211.73478271 246.90038086 212.13753418 246.12060547 212.55249023 C244.88528076 213.17619507 244.88528076 213.17619507 243.625 213.8125 C242.3568042 214.46617554 242.3568042 214.46617554 241.06298828 215.13305664 C232.31771662 219.52994447 223.26566595 222.88610339 214 226 C213.20440674 226.27448975 212.40881348 226.54897949 211.58911133 226.83178711 C210.4061145 227.23602905 210.4061145 227.23602905 209.19921875 227.6484375 C208.13707153 228.01267822 208.13707153 228.01267822 207.0534668 228.38427734 C204.05094266 229.28457052 201.11330738 229.66879709 198 230 C198.804375 229.071875 199.60875 228.14375 200.4375 227.1875 C203.21560158 223.93976696 205.96154511 220.66663507 208.6875 217.375 C209.43386719 216.47523438 210.18023437 215.57546875 210.94921875 214.6484375 C213.58788024 211.24079466 215.67889031 208.25767964 216.75 204.0625 C215.68954461 199.73230714 213.37206524 198.95952849 209.72851562 196.63500977 C204.87131335 193.72442605 199.88280622 191.0778842 194.875 188.4375 C186.43470997 183.94370589 178.05047989 179.37309943 169.75 174.625 C160.28441272 169.22095881 150.69708658 164.07480677 141.06539917 158.97583008 C131.61739727 153.97105096 122.2728547 148.81535476 112.98828125 143.51171875 C107.21586854 140.22373935 101.39610737 137.0601776 95.5 134 C88.6401835 130.43964136 81.89839266 126.70838632 75.1875 122.875 C64.83695179 116.96760532 54.35610512 111.33086548 43.81713867 105.76928711 C38.26403652 102.83481514 32.73188453 99.88402135 27.30078125 96.7265625 C26.06098511 96.00956177 26.06098511 96.00956177 24.79614258 95.27807617 C23.32256912 94.41774743 21.85671124 93.54398417 20.40112305 92.65356445 C17.34299694 90.87123524 15.28956976 89.99965527 11.71875 90.00390625 C8.39171625 91.22286258 7.64746913 91.87127524 6 95 C4.85335163 97.96273158 3.88431037 100.9682696 2.9375 104 C2.42855119 105.60504763 1.91691906 107.20924736 1.40234375 108.8125 C1.18054443 109.52019531 0.95874512 110.22789062 0.73022461 110.95703125 C-0.025686 113.07186241 -0.95710737 115.01300628 -2 117 C-5.45017006 105.05260962 -8.69117431 93.39442159 -10 81 C-10.17402344 79.80761719 -10.34804687 78.61523438 -10.52734375 77.38671875 C-12.57091021 61.00707668 -11.40765897 44.09628234 -8 28 C-7.8448291 27.2486377 -7.6896582 26.49727539 -7.52978516 25.72314453 C-5.67875973 16.90577265 -3.39737182 8.36693167 0 0 Z " fill="#D1EDFA" transform="translate(94,195)"/>
<path d="M0 0 C0.33 0 0.66 0 1 0 C0.58154816 5.75371282 -0.47761289 11.16110061 -1.875 16.75 C-14.55020597 68.23110331 -8.07571703 123.67253164 13 172 C13.34933594 172.80179688 13.69867188 173.60359375 14.05859375 174.4296875 C29.4610472 209.29677992 54.05416308 241.37962061 84 265 C84.96421875 265.78117187 85.9284375 266.56234375 86.921875 267.3671875 C137.55470514 307.59073022 203.41514237 325.58142003 267.48828125 318.69140625 C281.96460472 316.96576883 296.09190702 313.94830668 310.12890625 310.05078125 C313.0674295 309.2351133 315.99625677 308.54126858 319 308 C319.33 308.66 319.66 309.32 320 310 C256.38020524 333.64677426 190.99243402 336.6348696 128 309 C127.2687793 308.68450195 126.53755859 308.36900391 125.78417969 308.04394531 C67.90381004 282.87289677 23.39581604 233.05934934 -0.0546875 175.09765625 C-15.91277419 134.44055761 -20.0710325 89.97789095 -13 47 C-12.87141602 46.1642041 -12.74283203 45.3284082 -12.61035156 44.46728516 C-10.20112333 29.10155855 -5.16376997 14.63178355 0 0 Z " fill="#D0ECF9" transform="translate(31,168)"/>
<path d="M0 0 C3.44923307 3.44923307 5.93935604 6.11942195 8.625 10 C43.16786481 58.06521078 93.52540143 82.70605827 150.6875 93.1875 C151.37679596 93.31433167 152.06609192 93.44116333 152.77627563 93.57183838 C160.2856834 94.94226867 167.7700412 96.12081804 175.35546875 96.98046875 C181.70384966 97.72022473 187.59485589 99.00093496 193.625 101.125 C194.50961914 101.42921875 195.39423828 101.7334375 196.30566406 102.046875 C204.14931981 104.85245743 211.04239668 108.42238942 218 113 C218.95261719 113.56460938 219.90523437 114.12921875 220.88671875 114.7109375 C223.35054718 116.31827427 225.20911844 117.66701375 227 120 C227.38587039 122.56933214 227.05570361 124.53455702 226.5546875 127.08203125 C223.85402194 141.28905358 226.95624647 156.04166066 234.22265625 168.4296875 C238.46123373 174.55932263 243.72940926 179.7651825 249 185 C245.85714286 192.07142857 245.85714286 192.07142857 242 194 C238.875 194.75 238.875 194.75 235 194 C223.74951044 186.08364919 215.26532061 173.96133088 212.2734375 160.44140625 C211.47949651 153.35264742 210.94413793 144.88867217 213 138 C213.8482793 132.76668591 213.8482793 132.76668591 211.671875 128.20703125 C194.2651616 112.22649815 170.18964499 104.778253 147.1875 102.25 C89.40011798 95.43379536 35.04816274 72.79932388 -1.796875 26.53515625 C-4.25052799 23.39485496 -6.63116018 20.2046462 -9 17 C-9.57105469 16.25234375 -10.14210937 15.5046875 -10.73046875 14.734375 C-14 10.375 -14 10.375 -14 7 C-9.38 4.69 -4.76 2.38 0 0 Z " fill="#5493A0" transform="translate(145,226)"/>
<path d="M0 0 C3.38891322 0.68886787 6.18011613 1.98716486 9.25 3.5625 C10.14203125 4.01753906 11.0340625 4.47257812 11.953125 4.94140625 C12.96632813 5.46541016 12.96632813 5.46541016 14 6 C13.86722656 6.64066406 13.73445313 7.28132813 13.59765625 7.94140625 C13.42105469 8.80636719 13.24445313 9.67132813 13.0625 10.5625 C12.80146484 11.83287109 12.80146484 11.83287109 12.53515625 13.12890625 C7.99111162 37.50753984 11.65582016 62.47652166 25.31665039 83.44116211 C27.11392279 86.04096303 29.03431017 88.52594211 31 91 C31.68578125 91.87914062 32.3715625 92.75828125 33.078125 93.6640625 C46.40056162 109.60164408 67.41790495 120.54263047 88 123 C113.13348241 125.01009736 137.90295634 119.11225847 157.54833984 102.70703125 C163.52563832 97.9604998 163.52563832 97.9604998 168 92 C171.38891322 92.68886787 174.18011613 93.98716486 177.25 95.5625 C178.14203125 96.01753906 179.0340625 96.47257812 179.953125 96.94140625 C180.96632813 97.46541016 180.96632813 97.46541016 182 98 C177.44983967 111.79726034 160.0256266 121.36930489 147.71191406 127.82080078 C124.88519849 139.24429027 97.77190827 143.29839018 73 136 C69.26834608 134.71235217 65.55214962 133.3811571 61.89501953 131.89404297 C57.22603988 130.08039774 54.00608307 129.74847923 49 131 C48.01 131.66 47.02 132.32 46 133 C43.70342089 131.56988481 41.41287838 130.13141541 39.125 128.6875 C38.47402344 128.28337891 37.82304687 127.87925781 37.15234375 127.46289062 C34.05698379 125.50036859 32.058311 124.0874665 30 121 C30.268125 120.113125 30.53625 119.22625 30.8125 118.3125 C31.32056344 115.11755148 31.32056344 115.11755148 29.8671875 113.25390625 C27.95958247 111.12005039 25.98523576 109.0618589 24 107 C16.70159301 98.87491261 10.96556316 90.71663116 6 81 C5.45472656 79.93523437 4.90945312 78.87046875 4.34765625 77.7734375 C-7.25308401 53.03699898 -7.78611268 25.89728783 0 0 Z " fill="#FBC334" transform="translate(110,303)"/>
<path d="M0 0 C7.11500915 3.01834162 13.75657902 6.48440244 20.38208008 10.45654297 C21.39439697 11.056521 22.40671387 11.65649902 23.44970703 12.2746582 C25.5919666 13.54620882 27.732151 14.82126137 29.87036133 16.09960938 C32.70517681 17.78975568 35.54693231 19.46662831 38.39408875 21.13580322 C41.22736245 22.7985397 44.05427002 24.47203675 46.88208008 26.14404297 C48.46702271 27.07192627 48.46702271 27.07192627 50.08398438 28.01855469 C55.05951778 30.98271949 59.37604916 33.70870918 63.19458008 38.08154297 C63.95770508 38.88591797 64.72083008 39.69029297 65.50708008 40.51904297 C68.16587334 46.13205096 67.96464647 51.97651215 67.19458008 58.08154297 C63.85375254 66.22297312 57.69003767 70.00869282 50.30786133 74.29638672 C48.19458008 75.08154297 48.19458008 75.08154297 46.14379883 75.08544922 C43.08499154 73.51007152 42.25962127 71.10179789 40.69458008 68.08154297 C33.377629 54.58805898 24.37177907 42.49199102 13.62524414 31.54736328 C12.2604316 30.14901269 10.92583636 28.72135826 9.59301758 27.29248047 C3.55869879 20.96647255 -2.95217509 15.69282071 -9.96826172 10.49560547 C-13.50007593 7.87926556 -16.81057813 5.32660653 -19.80541992 2.08154297 C-13.61684114 -1.93267029 -6.93654576 -2.27093248 0 0 Z " fill="#F4F6F7" transform="translate(288.805419921875,115.91845703125)"/>
<path d="M0 0 C3.35595828 0.59927826 5.37801226 1.84622436 8 4 C7.34 4 6.68 4 6 4 C2.10609335 38.21075129 8.55744688 69.80981966 29.78369141 97.49658203 C32.28102301 100.58340821 35.13527038 103.25982384 38 106 C38 106.66 38 107.32 38 108 C38.88365234 108.39832031 38.88365234 108.39832031 39.78515625 108.8046875 C42.05812354 110.03136826 43.57793351 111.3441234 45.4375 113.125 C63.87671646 129.52297478 86.9989193 135.91055884 111 138 C111 138.33 111 138.66 111 139 C93.44444776 139.44615309 78.33163547 138.577733 61.89501953 131.89404297 C57.22603988 130.08039774 54.00608307 129.74847923 49 131 C48.01 131.66 47.02 132.32 46 133 C43.70342089 131.56988481 41.41287838 130.13141541 39.125 128.6875 C38.47402344 128.28337891 37.82304687 127.87925781 37.15234375 127.46289062 C34.05698379 125.50036859 32.058311 124.0874665 30 121 C30.268125 120.113125 30.53625 119.22625 30.8125 118.3125 C31.32056344 115.11755148 31.32056344 115.11755148 29.8671875 113.25390625 C27.95958247 111.12005039 25.98523576 109.0618589 24 107 C16.70159301 98.87491261 10.96556316 90.71663116 6 81 C5.45472656 79.93523437 4.90945312 78.87046875 4.34765625 77.7734375 C-7.25308401 53.03699898 -7.78611268 25.89728783 0 0 Z " fill="#F5A70A" transform="translate(110,303)"/>
<path d="M0 0 C5.3479658 3.14848926 9.32044039 7.82531815 12.125 13.3125 C13.60208525 21.68264973 13.48793709 29.23562175 8.6875 36.5 C4.05386176 41.86094348 -1.52633315 44.71964671 -8.46875 45.8515625 C-14.93304525 46.28403296 -20.012001 44.09066061 -25.3125 40.5 C-30.1088409 36.15856978 -32.98369915 31.73448279 -33.6484375 25.1953125 C-33.78213563 12.97530364 -33.78213563 12.97530364 -29.3125 7.5 C-21.24994903 -0.6803753 -11.33934728 -5.00525876 0 0 Z " fill="#030303" transform="translate(172.3125,113.5)"/>
<path d="M0 0 C3.75636093 0.59077541 6.6017136 1.65975166 9.9296875 3.484375 C10.87972656 4.00169189 11.82976562 4.51900879 12.80859375 5.05200195 C13.82050781 5.61234131 14.83242187 6.17268066 15.875 6.75 C17.44314453 7.60887817 17.44314453 7.60887817 19.04296875 8.48510742 C30.08647383 14.55324895 41.0547059 20.75679683 52 27 C52 27.99 52 28.98 52 30 C49.97485352 31.63476562 49.97485352 31.63476562 47.12890625 33.40625 C46.08677979 34.06302734 45.04465332 34.71980469 43.97094727 35.39648438 C42.83494285 36.09789061 41.69879089 36.79905795 40.5625 37.5 C39.41852045 38.21572869 38.27521148 38.93253028 37.13256836 39.65039062 C35.40850573 40.73306841 33.68388812 41.81475299 31.95655823 42.89221191 C26.22680337 46.46733385 20.57949418 50.16483637 14.95336914 53.90039062 C10.218993 57 10.218993 57 8 57 C-1.57324613 38.07688349 -4.48101911 20.76472246 0 0 Z " fill="#FBDC7B" transform="translate(137,318)"/>
<path d="M0 0 C4.15612792 1.56014497 8.0473987 3.51764014 11.9609375 5.59765625 C12.6285611 5.95081406 13.29618469 6.30397186 13.98403931 6.66783142 C15.39842046 7.41713639 16.81209247 8.16778126 18.22509766 8.91967773 C20.33113676 10.03918364 22.44076284 11.1516887 24.55078125 12.26367188 C33.89046546 17.21021496 42.99205439 22.47339785 52 28 C47.34837571 37.91216046 34.7950299 43.90698888 25 48 C17.13077084 50.81055645 9.39328697 53.15497592 1 53 C0.2886929 35.32326197 -0.16109319 17.69298938 0 0 Z " fill="#FBDD7B" transform="translate(213,359)"/>
<path d="M0 0 C2.22825644 2.22825644 2.69239369 3.65761628 3.625 6.625 C3.88539062 7.44226563 4.14578125 8.25953125 4.4140625 9.1015625 C4.60742188 9.72804687 4.80078125 10.35453125 5 11 C4.34 11 3.68 11 3 11 C2.1789959 47.31679443 2.1789959 47.31679443 10.265625 82.546875 C11.09945207 85.33221222 11.48936151 87.11820443 11 90 C10.24074219 90.74121094 9.48148438 91.48242188 8.69921875 92.24609375 C5.17090318 95.84589473 4.21311169 99.30809482 2.8125 104.0625 C2.32157034 105.65834184 1.82816173 107.25342363 1.33203125 108.84765625 C1.12296143 109.54898682 0.9138916 110.25031738 0.69848633 110.97290039 C-0.03213591 113.09326267 -0.95583925 115.01762397 -2 117 C-5.45017006 105.05260962 -8.69117431 93.39442159 -10 81 C-10.17402344 79.80761719 -10.34804687 78.61523438 -10.52734375 77.38671875 C-12.57091021 61.00707668 -11.40765897 44.09628234 -8 28 C-7.8448291 27.2486377 -7.6896582 26.49727539 -7.52978516 25.72314453 C-5.67875973 16.90577265 -3.39737182 8.36693167 0 0 Z " fill="#AEE0F5" transform="translate(94,195)"/>
<path d="M0 0 C0.67508229 17.0099191 1.15780239 33.97487508 1 51 C-7.47793971 50.00868768 -14.45986075 47.99771742 -22 44 C-22.84433594 43.5565625 -23.68867188 43.113125 -24.55859375 42.65625 C-31.03427098 39.01936419 -37.03044357 34.55110027 -42 29 C-42 28.01 -42 27.02 -42 26 C-39.6604354 24.24687799 -37.35965141 22.71205315 -34.875 21.1875 C-34.1317749 20.71973145 -33.3885498 20.25196289 -32.62280273 19.77001953 C-30.98491267 18.73935788 -29.34438056 17.71288664 -27.70166016 16.68994141 C-24.80390537 14.87733896 -21.92220161 13.0410912 -19.04296875 11.19921875 C-15.16745298 8.72066198 -11.29185009 6.2423115 -7.41015625 3.7734375 C-6.60715088 3.26216309 -5.80414551 2.75088867 -4.97680664 2.22412109 C-1.38512166 0 -1.38512166 0 0 0 Z " fill="#FCDD7B" transform="translate(198,360)"/>
<path d="M0 0 C0 0.33 0 0.66 0 1 C-1.98 1.33 -3.96 1.66 -6 2 C-5.21238281 2.58265625 -4.42476563 3.1653125 -3.61328125 3.765625 C4.23033961 9.64135152 11.53326747 15.90340341 18.61181641 22.67919922 C19.77164751 23.7827318 20.9518289 24.86482443 22.13671875 25.94140625 C35.05064753 38.04313825 45.83450094 54.40617902 54 70 C54 70.66 54 71.32 54 72 C54.66 72.33 55.32 72.66 56 73 C51.66281971 76.01193075 51.66281971 76.01193075 49.046875 75.96484375 C45.86785044 74.46633408 45.09739862 72.08269909 43.5 69 C36.18304892 55.50651601 27.177199 43.41044806 16.43066406 32.46582031 C15.06585152 31.06746972 13.73125628 29.63981529 12.3984375 28.2109375 C6.36411871 21.88492959 -0.14675517 16.61127774 -7.1628418 11.4140625 C-10.69465601 8.79772259 -14.00515821 6.24506356 -17 3 C-11.42531458 -0.61601216 -6.39432346 -0.30720059 0 0 Z " fill="#E3E7EB" transform="translate(286,115)"/>
<path d="M0 0 C0.33 0 0.66 0 1 0 C1.53293835 1.74635165 2.05090663 3.49727652 2.5625 5.25 C2.85253906 6.22453125 3.14257812 7.1990625 3.44140625 8.203125 C4.01784672 11.08935842 4.03957738 12.30057633 3 15 C1.44384766 16.26098633 1.44384766 16.26098633 -0.5859375 17.33203125 C-1.34277832 17.73478271 -2.09961914 18.13753418 -2.87939453 18.55249023 C-4.11471924 19.17619507 -4.11471924 19.17619507 -5.375 19.8125 C-6.22046387 20.24828369 -7.06592773 20.68406738 -7.93701172 21.13305664 C-16.68228338 25.52994447 -25.73433405 28.88610339 -35 32 C-36.19338989 32.41173462 -36.19338989 32.41173462 -37.41088867 32.83178711 C-38.19955322 33.10128174 -38.98821777 33.37077637 -39.80078125 33.6484375 C-40.50887939 33.89126465 -41.21697754 34.1340918 -41.9465332 34.38427734 C-44.94905734 35.28457052 -47.88669262 35.66879709 -51 36 C-50.195625 35.071875 -49.39125 34.14375 -48.5625 33.1875 C-45.78439842 29.93976696 -43.03845489 26.66663507 -40.3125 23.375 C-39.19294922 22.02535156 -39.19294922 22.02535156 -38.05078125 20.6484375 C-35.93389056 18.10024096 -35.93389056 18.10024096 -34.6640625 15.26171875 C-33 13 -33 13 -29.84765625 11.99609375 C-27.97400391 11.71958984 -27.97400391 11.71958984 -26.0625 11.4375 C-24.71119444 11.21457887 -23.36092193 10.98531111 -22.01171875 10.75 C-21.33802246 10.63269531 -20.66432617 10.51539063 -19.97021484 10.39453125 C-15.17254524 9.43380832 -10.5746439 7.70685354 -6 6 C-5.08089844 5.67386719 -4.16179687 5.34773438 -3.21484375 5.01171875 C-0.80004326 4.22152163 -0.80004326 4.22152163 -0.1875 1.875 C-0.0946875 0.946875 -0.0946875 0.946875 0 0 Z " fill="#AEE0F5" transform="translate(343,389)"/>
<path d="M0 0 C2.9375 1.5 2.9375 1.5 5 4 C5.65466318 6.80241781 5.61113838 9.19222271 5 12 C2.87051297 15.32199976 1.3367893 15.89590149 -2.4375 17.0625 C-6 17 -6 17 -8.9375 15.0625 C-11.76620649 10.86229946 -11.71373503 8.99614519 -11 4 C-8.1553332 -0.55146687 -5.11689336 -0.71816047 0 0 Z " fill="#E2E6EA" transform="translate(165,127)"/>
<path d="M0 0 C0.33 0 0.66 0 1 0 C0.85831863 1.43791516 0.71148957 2.8753237 0.5625 4.3125 C0.48128906 5.11300781 0.40007813 5.91351563 0.31640625 6.73828125 C0 9 0 9 -1 12 C-1.99 12.33 -2.98 12.66 -4 13 C-3.52343588 11.20763933 -3.04366502 9.41613103 -2.5625 7.625 C-2.29566406 6.62726563 -2.02882813 5.62953125 -1.75390625 4.6015625 C-1 2 -1 2 0 0 Z " fill="#BDD6E3" transform="translate(31,168)"/>
</svg>
