<?xml version="1.0" encoding="UTF-8"?>
<svg version="1.1" xmlns="http://www.w3.org/2000/svg" width="512" height="511">
<path d="M0 0 C0.81645996 0.39525879 1.63291992 0.79051758 2.47412109 1.19775391 C48.34762263 23.68544835 89.97785841 60.38993485 107.26464844 109.74169922 C108.7506664 114.30533341 110.01664229 118.92513544 111.25 123.5625 C111.49637207 124.48353516 111.74274414 125.40457031 111.99658203 126.35351562 C115.46285646 139.96948235 116.40954732 153.33444421 116.375 167.3125 C116.37418427 168.56015137 116.37418427 168.56015137 116.37335205 169.83300781 C116.33039408 184.18990642 115.2203694 197.96909069 112 212 C111.78569336 212.94182129 111.57138672 213.88364258 111.35058594 214.85400391 C102.91204786 250.73928629 85.54257878 288.14034966 64 318 C63.28585937 319.00675781 62.57171875 320.01351563 61.8359375 321.05078125 C49.72736189 337.67255323 35.57488035 353.72231085 19 366 C17.95457031 366.78890625 16.90914063 367.5778125 15.83203125 368.390625 C-18.33302182 393.76925799 -60.54690323 407.33241828 -103.23779297 401.23095703 C-138.38308737 395.01379624 -176.66643533 373.942628 -197.75 344.75 C-209.15253541 327.41979276 -215.45250618 308.21617073 -221.4375 288.5 C-227.82573533 267.54831832 -235.4583956 247.72976964 -250 231 C-250.68707031 230.18015625 -251.37414062 229.3603125 -252.08203125 228.515625 C-272.61670731 204.68800088 -302.85951836 192.54647889 -331 180.0625 C-356.82425697 168.59734095 -379.2349826 154.71221112 -390.9375 127.765625 C-399.32326991 105.93795921 -398.52532139 80.73970693 -389.26391602 59.47924805 C-385.69453721 51.63142771 -381.44005725 44.71282536 -376 38 C-375.25492187 37.05382812 -374.50984375 36.10765625 -373.7421875 35.1328125 C-367.11357975 26.84143535 -360.15288821 19.95611963 -351.875 13.3203125 C-350.01876595 11.82221056 -348.18343375 10.29765581 -346.375 8.7421875 C-280.00678318 -47.94733104 -162.30895981 -40.75136956 0 0 Z " fill="#FB4D50" transform="translate(396,72)"/>
<path d="M0 0 C1.71780781 0.03186075 3.43571209 0.05844315 5.15362549 0.08398438 C77.42550478 1.38642485 156.34868174 19.59130837 208.82110596 71.84570312 C226.6016366 90.51272746 244.61797028 118.75958591 246.18829346 145.19335938 C245.9422852 148.92448457 244.60419563 150.4337072 242.00079346 153.03710938 C241.34079346 153.03710938 240.68079346 153.03710938 240.00079346 153.03710938 C240.19203181 156.45700655 240.4353509 159.87126564 240.68829346 163.28710938 C240.74178955 164.25519531 240.79528564 165.22328125 240.85040283 166.22070312 C241.15735972 171.99287396 241.15735972 171.99287396 244.55548096 176.40429688 C245.36243408 176.943125 246.16938721 177.48195312 247.00079346 178.03710938 C247.88198561 181.67279727 247.33534821 185.32950943 247.00079346 189.03710938 C246.91700439 190.06964844 246.83321533 191.1021875 246.74688721 192.16601562 C242.23188063 232.42086374 218.77924037 271.3263976 188.00079346 297.03710938 C160.27230594 318.99059796 124.08614217 328.85658218 89.00079346 326.03710938 C88.34079346 325.70710938 87.68079346 325.37710937 87.00079346 325.03710938 C85.80454346 324.95460938 84.60829346 324.87210937 83.37579346 324.78710938 C66.67740648 322.99704229 49.60447894 314.95668171 37.00079346 304.03710938 C35.45391846 302.89242187 35.45391846 302.89242187 33.87579346 301.72460938 C21.03513767 289.72138766 15.96434498 272.30930926 11.91998291 255.78344727 C0.59611519 209.61032313 -19.46571283 171.56542666 -60.78094482 145.93164062 C-66.4234336 142.52952784 -72.2202525 139.43409527 -78.06170654 136.39257812 C-78.93077637 135.93955322 -79.79984619 135.48652832 -80.69525146 135.01977539 C-82.41594807 134.12691416 -84.14000058 133.24048564 -85.86761475 132.36108398 C-86.64967285 131.95768799 -87.43173096 131.55429199 -88.23748779 131.13867188 C-88.93914062 130.78111816 -89.64079346 130.42356445 -90.3637085 130.05517578 C-91.99920654 129.03710938 -91.99920654 129.03710938 -92.99920654 127.03710938 C-93.35326376 123.2132914 -93.49979551 120.87142432 -91.49920654 117.53710938 C-87.92990217 115.39552675 -84.88927736 116.13886458 -80.99920654 117.03710938 C-78.27656636 118.0605418 -75.74835083 119.35216454 -73.18670654 120.72460938 C-72.49093506 121.08619141 -71.79516357 121.44777344 -71.07830811 121.8203125 C-69.04570532 122.8812091 -67.02244534 123.95849703 -64.99920654 125.03710938 C-63.98987061 125.55917969 -62.98053467 126.08125 -61.94061279 126.61914062 C-48.45386912 133.72463838 -36.47933073 142.71456473 -25.27264404 152.99023438 C-23.55592244 154.53587376 -21.76212013 155.99648251 -19.93670654 157.41210938 C-15.38101693 161.48315115 -11.74407975 166.2250112 -7.99920654 171.03710938 C-7.32631592 171.89433594 -6.65342529 172.7515625 -5.96014404 173.63476562 C11.02174386 196.0630359 20.30790669 222.96511495 27.12579346 249.97460938 C32.3265277 270.51977387 37.85371131 287.16269365 56.81329346 298.72460938 C80.66921932 312.01746359 109.34460856 313.25140891 135.31329346 305.91210938 C147.56863103 302.24072674 159.30179308 297.05355444 170.00079346 290.03710938 C168.76329346 288.55210937 168.76329346 288.55210937 167.50079346 287.03710938 C159.41883223 276.18537419 154.72866315 263.36604882 150.66940308 250.587677 C149.91645341 248.21838575 149.14759544 245.8547567 148.37457275 243.49194336 C147.358916 240.38528105 146.34774104 237.27724195 145.34161377 234.16748047 C135.73507945 204.51937925 124.84804366 176.94384161 103.00079346 154.03710938 C102.49008301 153.50013428 101.97937256 152.96315918 101.45318604 152.40991211 C97.24066341 148.07674159 92.77267014 144.34217016 87.93829346 140.72460938 C87.18862305 140.1604834 86.43895264 139.59635742 85.66656494 139.01513672 C84.148391 137.87638532 82.628001 136.74058168 81.10528564 135.60791016 C79.29064675 134.25345695 77.49154012 132.88164354 75.69610596 131.50195312 C57.61044619 117.99408504 35.4955405 104.20202506 14.00079346 97.03710938 C13.66048096 97.87242187 13.66048096 97.87242187 13.31329346 98.72460938 C9.13532733 106.08578778 0.9557081 111.28130449 -6.93670654 113.91210938 C-17.07490318 116.56026275 -27.9613537 115.56796541 -37.12420654 110.41210938 C-48.33520238 103.16726773 -53.61764241 94.95879556 -56.48358154 82.12304688 C-56.9469767 79.34969709 -57.10339397 76.8397512 -56.99920654 74.03710938 C-57.78037842 73.93914062 -58.56155029 73.84117187 -59.36639404 73.74023438 C-68.91544968 72.50672608 -78.42463593 71.06712076 -87.93035889 69.53417969 C-103.78094287 67.03365365 -119.60590851 65.69139512 -135.62420654 64.91210938 C-137.32475246 64.82536009 -139.02527353 64.73812237 -140.72576904 64.65039062 C-144.81665228 64.44036817 -148.907808 64.23683076 -152.99920654 64.03710938 C-150.91482772 75.56992411 -147.52678352 84.62677173 -137.99920654 92.03710938 C-130.91978982 96.5682736 -123.48493579 100.43293956 -115.88983154 104.02929688 C-113.99920654 105.03710938 -113.99920654 105.03710938 -111.99920654 107.03710938 C-111.5708657 110.892177 -111.44023453 113.16511303 -113.56170654 116.47460938 C-116.94493624 118.64334636 -119.00467723 118.36055304 -122.99920654 118.03710938 C-125.86238245 117.14829264 -128.49969023 115.92147033 -131.18670654 114.59960938 C-131.92848145 114.2405249 -132.67025635 113.88144043 -133.43450928 113.51147461 C-149.98988404 105.22931619 -160.70586905 93.75166562 -167.37420654 76.47460938 C-169.49766754 64.79557392 -167.28966002 54.57224829 -160.90155029 44.60742188 C-145.33530171 23.57540633 -118.56841235 14.0924241 -93.99920654 8.03710938 C-93.15825439 7.82602539 -92.31730225 7.61494141 -91.4508667 7.39746094 C-61.30324709 0.00839167 -30.85230584 -0.57445761 0 0 Z " fill="#030202" transform="translate(226.99920654296875,73.962890625)"/>
<path d="M0 0 C0.81645996 0.39525879 1.63291992 0.79051758 2.47412109 1.19775391 C48.34762263 23.68544835 89.97785841 60.38993485 107.26464844 109.74169922 C108.7506664 114.30533341 110.01664229 118.92513544 111.25 123.5625 C111.49637207 124.48353516 111.74274414 125.40457031 111.99658203 126.35351562 C115.46285646 139.96948235 116.40954732 153.33444421 116.375 167.3125 C116.37418427 168.56015137 116.37418427 168.56015137 116.37335205 169.83300781 C116.33039408 184.18990642 115.2203694 197.96909069 112 212 C111.78569336 212.94182129 111.57138672 213.88364258 111.35058594 214.85400391 C102.91204786 250.73928629 85.54257878 288.14034966 64 318 C63.28585937 319.00675781 62.57171875 320.01351563 61.8359375 321.05078125 C49.72736189 337.67255323 35.57488035 353.72231085 19 366 C17.95457031 366.78890625 16.90914063 367.5778125 15.83203125 368.390625 C-18.33302182 393.76925799 -60.54690323 407.33241828 -103.23779297 401.23095703 C-138.38308737 395.01379624 -176.66643533 373.942628 -197.75 344.75 C-209.15253541 327.41979276 -215.45250618 308.21617073 -221.4375 288.5 C-227.82573533 267.54831832 -235.4583956 247.72976964 -250 231 C-250.68707031 230.18015625 -251.37414062 229.3603125 -252.08203125 228.515625 C-272.61670731 204.68800088 -302.85951836 192.54647889 -331 180.0625 C-356.82425697 168.59734095 -379.2349826 154.71221112 -390.9375 127.765625 C-399.32326991 105.93795921 -398.52532139 80.73970693 -389.26391602 59.47924805 C-385.69453721 51.63142771 -381.44005725 44.71282536 -376 38 C-375.25492187 37.05382812 -374.50984375 36.10765625 -373.7421875 35.1328125 C-367.11357975 26.84143535 -360.15288821 19.95611963 -351.875 13.3203125 C-350.01876595 11.82221056 -348.18343375 10.29765581 -346.375 8.7421875 C-280.00678318 -47.94733104 -162.30895981 -40.75136956 0 0 Z M-249.8125 -13.3125 C-250.58037842 -13.18405701 -251.34825684 -13.05561401 -252.1394043 -12.92327881 C-281.6518069 -7.93071075 -313.15527214 0.67633718 -336 21 C-337.15435547 22.01320313 -337.15435547 22.01320313 -338.33203125 23.046875 C-349.54260129 33.51262011 -356.41706707 46.63280782 -357.203125 61.9609375 C-357.53603769 80.66766216 -354.93192044 98.56986927 -342 113 C-341.36578125 113.73863281 -340.7315625 114.47726563 -340.078125 115.23828125 C-325.00909329 131.6385996 -300.99293275 139.08767163 -280.8125 147.0625 C-259.74691667 155.39122121 -240.36598747 164.19290804 -223 179 C-222.18015625 179.67417969 -221.3603125 180.34835938 -220.515625 181.04296875 C-198.91325035 199.4586577 -187.050607 227.11920167 -180 254 C-171.39367798 287.81292689 -171.39367798 287.81292689 -153 317 C-152.44570312 317.63808594 -151.89140625 318.27617187 -151.3203125 318.93359375 C-133.24328705 338.35125985 -99.17686854 348.04950106 -73.24047852 349.16113281 C-31.87940219 349.61090869 3.1711286 340.85026247 35 313 C35.49242187 312.56929199 35.98484375 312.13858398 36.4921875 311.69482422 C74.12372557 278.56426643 96.48212541 230.70476084 101 181 C103.29018862 141.04667997 92.28200225 102.30237352 67 71 C66.53029785 70.4121875 66.0605957 69.824375 65.57666016 69.21875 C60.80475595 63.28356195 55.97537933 57.57971459 50.0703125 52.7265625 C47.57399483 50.64472777 45.24131645 48.41583881 42.875 46.1875 C21.71286164 26.97297602 -4.79766824 14.71963115 -31 4 C-32.155 3.52691406 -33.31 3.05382812 -34.5 2.56640625 C-42.21578108 -0.37523529 -50.14595423 -2.46356984 -58.125 -4.5625 C-59.19057129 -4.84367676 -60.25614258 -5.12485352 -61.35400391 -5.41455078 C-77.77027733 -9.61701899 -94.22050375 -12.52537522 -111.05639648 -14.38305664 C-113.82975415 -14.68940592 -116.60138916 -15.00874416 -119.37304688 -15.33007812 C-121.19262298 -15.53720949 -123.01228188 -15.74361518 -124.83203125 -15.94921875 C-125.63244339 -16.04087814 -126.43285553 -16.13253754 -127.25752258 -16.22697449 C-139.51050984 -17.56933078 -151.7475612 -18.15645489 -164.0703125 -18.16796875 C-165.35324188 -18.17129715 -166.63617126 -18.17462555 -167.95797729 -18.17805481 C-170.65200645 -18.18397547 -173.34600388 -18.18590217 -176.04003906 -18.18530273 C-178.75267232 -18.1852217 -181.46513588 -18.19214073 -184.17773438 -18.20581055 C-206.41345785 -18.31586491 -227.89437496 -17.01083618 -249.8125 -13.3125 Z " fill="#020101" transform="translate(396,72)"/>
<path d="M0 0 C1.91796638 -0.0049926 1.91796638 -0.0049926 3.87467957 -0.01008606 C6.56807295 -0.01602158 9.26143454 -0.0179321 11.95483398 -0.01733398 C14.66063199 -0.01725329 17.36625864 -0.02411405 20.07202148 -0.0378418 C37.24092703 -0.12350476 54.15170404 0.38854036 71.23046875 2.16796875 C72.78892206 2.32148295 74.34743137 2.47443002 75.90600586 2.62670898 C80.03966064 3.03969669 84.16703803 3.49667243 88.29296875 3.98046875 C89.00894226 4.06411682 89.72491577 4.14776489 90.46258545 4.23394775 C102.31715272 5.63976842 113.91896894 7.63294681 125.51171875 10.50585938 C128.31637161 11.18888906 131.12982041 11.81446912 133.94921875 12.43359375 C177.12963608 22.19559215 220.33967369 42.88708791 251.23046875 75.16796875 C252.02066406 75.956875 252.81085938 76.74578125 253.625 77.55859375 C283.20845291 107.18639966 298.13695715 146.21184659 298.54296875 187.85546875 C298.39120955 230.32213572 282.37702011 274.49644505 255.23046875 307.16796875 C254.73724121 307.76270996 254.24401367 308.35745117 253.73583984 308.97021484 C241.471629 323.67418398 228.30334449 335.60190153 212.23046875 346.16796875 C211.31007813 346.77511719 210.3896875 347.38226563 209.44140625 348.0078125 C188.48892702 361.02195805 164.11396656 367.55772913 139.60229492 367.48364258 C137.43031305 367.48048669 135.25970527 367.50403466 133.08789062 367.52929688 C123.14426999 367.57375011 113.92980508 366.29116923 104.23046875 364.16796875 C102.70481655 363.87039207 101.17886091 363.57435727 99.65234375 363.28125 C80.68242884 359.14419409 63.14161814 351.75711927 48.23046875 339.16796875 C47.63621094 338.67039062 47.04195312 338.1728125 46.4296875 337.66015625 C36.33683847 328.42577944 30.70888151 315.81056759 26.23046875 303.16796875 C25.82441406 302.06839844 25.41835937 300.96882813 25 299.8359375 C22.08595662 291.58419653 19.93242553 283.2099806 17.79296875 274.73046875 C8.12697181 236.6874953 -10.54752535 203.86476082 -44.80378723 183.32583618 C-57.57459875 175.80354101 -70.86105542 170.0558502 -84.64453125 164.66796875 C-95.28176715 160.493275 -105.84916037 156.26520737 -116.18359375 151.37890625 C-116.95379852 151.01502808 -117.7240033 150.6511499 -118.51754761 150.27624512 C-135.41366784 142.14933507 -148.97114944 130.56612996 -156.01953125 112.85546875 C-161.95344121 95.15263736 -161.90318613 75.24441059 -154.26953125 58.16796875 C-150.55083663 51.10984935 -145.39641981 45.72999404 -139.76953125 40.16796875 C-139.12242187 39.51054688 -138.4753125 38.853125 -137.80859375 38.17578125 C-104.54348418 6.65382153 -43.18891416 0.04032306 0 0 Z M-129.28125 60.08984375 C-137.13104462 69.80042171 -140.89689415 80.68645088 -139.76953125 93.16796875 C-136.52125773 108.17655786 -127.77362051 119.4624422 -115.14453125 127.73046875 C-102.38302656 136.01515318 -102.38302656 136.01515318 -87.76953125 138.16796875 C-86.77953125 137.50796875 -85.78953125 136.84796875 -84.76953125 136.16796875 C-84.76953125 135.50796875 -84.76953125 134.84796875 -84.76953125 134.16796875 C-83.57714844 134.60109375 -82.38476562 135.03421875 -81.15625 135.48046875 C-79.58993305 136.04321736 -78.02352186 136.60570373 -76.45703125 137.16796875 C-75.67134766 137.45414062 -74.88566406 137.7403125 -74.07617188 138.03515625 C-73.31884766 138.30585938 -72.56152344 138.5765625 -71.78125 138.85546875 C-71.08475342 139.10683594 -70.38825684 139.35820312 -69.6706543 139.6171875 C-67.61916325 140.30710411 -67.61916325 140.30710411 -64.76953125 140.16796875 C-64.85203125 141.24046875 -64.93453125 142.31296875 -65.01953125 143.41796875 C-65.12515057 147.09178741 -65.12515057 147.09178741 -63.2265625 149.16015625 C-60.10499991 151.7110039 -56.83654903 153.32614382 -53.20703125 155.04296875 C-51.7623695 155.74736364 -50.3183602 156.45309821 -48.875 157.16015625 C-48.17165527 157.50272461 -47.46831055 157.84529297 -46.74365234 158.19824219 C-9.77410262 176.35840191 16.01786588 204.64433467 30.23046875 243.16796875 C30.60848633 244.18648926 30.60848633 244.18648926 30.99414062 245.22558594 C34.52189187 254.88795915 37.16995222 264.69455486 39.66796875 274.66796875 C43.4380648 289.59576369 47.33747897 304.04966097 57.23046875 316.16796875 C57.95234375 317.17859375 58.67421875 318.18921875 59.41796875 319.23046875 C69.2220316 330.45770201 85.01646537 338.25095738 99.23046875 342.16796875 C100.38546875 342.53921875 101.54046875 342.91046875 102.73046875 343.29296875 C106.28092243 344.18058217 109.67446333 344.61505263 113.3125 344.921875 C115.23046875 345.16796875 115.23046875 345.16796875 117.23046875 346.16796875 C152.0275089 348.96427296 189.07824387 339.66285672 215.96484375 316.84765625 C217.65102098 315.340316 219.32117533 313.81480761 220.97265625 312.26953125 C222.98230906 310.39895476 225.04807252 308.66023164 227.16796875 306.91796875 C252.65465312 284.55942874 272.36427937 245.35161354 275.05859375 211.828125 C275.1153125 210.95027344 275.17203125 210.07242188 275.23046875 209.16796875 C275.3078125 208.19730469 275.38515625 207.22664062 275.46484375 206.2265625 C275.51125 205.25847656 275.55765625 204.29039062 275.60546875 203.29296875 C275.65445312 202.40867187 275.7034375 201.524375 275.75390625 200.61328125 C275.47312064 197.92110306 275.47312064 197.92110306 272.7890625 196.51953125 C268.78566517 192.84007294 269.20687192 188.64607193 268.91796875 183.41796875 C268.84513672 182.43441406 268.77230469 181.45085937 268.69726562 180.4375 C268.52086876 178.01498312 268.36607791 175.5930543 268.23046875 173.16796875 C268.84921875 172.89984375 269.46796875 172.63171875 270.10546875 172.35546875 C272.52999205 171.21240027 272.52999205 171.21240027 274.23046875 168.16796875 C273.09196809 134.01294908 249.11102957 103.08485875 225.48046875 80.54296875 C179.29141504 38.40022883 110.15624804 26.11906308 50.23046875 21.16796875 C49.1955127 21.08119873 49.1955127 21.08119873 48.13964844 20.99267578 C-8.06042317 16.59837784 -87.1954669 16.48142016 -129.28125 60.08984375 Z " fill="#F0E5D4" transform="translate(198.76953125,53.83203125)"/>
<path d="M0 0 C3.75114268 -0.277548 7.49982072 -0.45692785 11.25869751 -0.590271 C12.78044495 -0.65520825 14.30136647 -0.74455086 15.82015991 -0.85943604 C27.67767161 -1.72193678 27.67767161 -1.72193678 31.57946777 1.60839844 C34.82510652 5.4423292 36.92628205 9.79264794 39.06005859 14.31152344 C39.87202439 15.77306187 40.6883815 17.23219042 41.51318359 18.68652344 C42.12284226 19.88949345 42.72218721 21.09775749 43.31005859 22.31152344 C43.63522461 22.97394043 43.96039063 23.63635742 44.29541016 24.31884766 C47.98077178 31.99149974 51.06074002 39.9271287 53.00537109 48.22558594 C53.31216797 49.49144531 53.61896484 50.75730469 53.93505859 52.06152344 C54.17998047 53.21136719 54.42490234 54.36121094 54.67724609 55.54589844 C55.86870642 58.707158 55.86870642 58.707158 59.69287109 59.70214844 C60.80404297 59.90324219 61.91521484 60.10433594 63.06005859 60.31152344 C63.80811577 67.33791759 64.19800813 74.24544153 64.06005859 81.31152344 C63.29693359 81.55902344 62.53380859 81.80652344 61.74755859 82.06152344 C58.59830469 83.5262927 57.77394926 84.30745397 56.06005859 87.31152344 C55.55910621 90.22642179 55.18406227 93.06457268 54.87255859 95.99902344 C50.33831778 131.01686464 32.60747662 163.26037501 7.06005859 187.31152344 C-8.74380063 176.3455803 -13.53555026 150.25634002 -18.37744141 132.74902344 C-26.09977067 105.18493108 -38.34001779 77.47204035 -57.98681641 56.41699219 C-59.58054865 54.69894883 -61.05453066 52.96287008 -62.50244141 51.12402344 C-68.34882353 44.37819791 -75.66692758 39.07396715 -82.66015625 33.57470703 C-85.94790645 30.97526845 -89.05331859 28.36580364 -91.93994141 25.31152344 C-69.07364451 13.6172117 -46.48417812 5.82785181 -20.93994141 2.31152344 C-19.25578125 2.03115234 -19.25578125 2.03115234 -17.53759766 1.74511719 C-11.7062436 0.88455617 -5.8743334 0.46447202 0 0 Z " fill="#FB4D50" transform="translate(403.93994140625,166.6884765625)"/>
<path d="M0 0 C1.10722412 0.35529785 1.10722412 0.35529785 2.23681641 0.71777344 C28.39825972 9.22622411 53.94414364 21.28843995 74.109375 40.28515625 C75.8955419 42.06012733 75.8955419 42.06012733 78 43 C78 43.66 78 44.32 78 45 C77.39341553 45.01458252 76.78683105 45.02916504 76.16186523 45.04418945 C38.12022609 46.05382876 -6.08779502 51.4602783 -38.15625 73.89453125 C-41.57682934 76.05765564 -41.57682934 76.05765564 -45.0390625 75.5859375 C-48.55498714 73.70273776 -51.98606016 71.72511885 -55.375 69.625 C-65.47000056 63.51525862 -76.01947883 58.35105016 -86.61254883 53.16992188 C-87.40040771 52.78384766 -88.1882666 52.39777344 -89 52 C-89.74983154 51.69255859 -90.49966309 51.38511719 -91.2722168 51.06835938 C-91.84238525 50.71580078 -92.41255371 50.36324219 -93 50 C-93.5309158 47.24889085 -93.82731774 44.77506027 -94 42 C-95.16683269 29.52466817 -98.65354535 21.71095774 -108 13 C-115.77952926 6.6857413 -125.00501346 4.35084445 -134.91796875 4.65625 C-145.9523947 5.8869591 -154.70349484 10.78172986 -161.875 19.1875 C-163.58809677 21.45483396 -165.29573915 23.7260291 -167 26 C-175.15916751 25.08809304 -183.24952937 23.98893094 -191.33789062 22.58032227 C-213.46851703 18.72780597 -235.54496655 16.5591362 -258 16 C-242.92651204 -4.6325048 -205.70114731 -10.69361519 -182.35302734 -14.61206055 C-122.97817875 -23.70395902 -57.12236058 -18.50837639 0 0 Z " fill="#FA4D50" transform="translate(341,107)"/>
<path d="M0 0 C0.33 0 0.66 0 1 0 C1.01417969 1.15113281 1.02835938 2.30226562 1.04296875 3.48828125 C1.5850438 25.15061086 6.92001451 45.14333325 21 62 C21.54269531 62.65742188 22.08539063 63.31484375 22.64453125 63.9921875 C34.89070122 77.44747299 54.85823972 85.43071728 71.4631958 92.07217407 C73.68907559 92.96314815 75.91019411 93.865179 78.13037109 94.77026367 C81.07933781 95.97221077 84.02926483 97.17172041 86.98046875 98.36816406 C122.99880767 112.9812581 152.32558703 130.57035379 169.16992188 167.19677734 C169.88051669 168.74044009 170.61735958 170.27197362 171.359375 171.80078125 C176.31015548 182.65070601 178.90256023 194.52148516 182 206 C187.63866124 226.8868719 193.74637061 246.3070897 208 263 C208.65226563 263.84175781 209.30453125 264.68351562 209.9765625 265.55078125 C226.28508432 285.29101905 255.93630428 294.07462634 280 299 C281.19544434 299.24556641 281.19544434 299.24556641 282.41503906 299.49609375 C317.99058722 306.48698507 355.04977188 300.64871476 386.59326172 282.80786133 C388.36630982 281.81770938 390.18022704 280.90140269 392 280 C392.66 280.33 393.32 280.66 394 281 C375.57851681 298.98382376 354.29718471 310.86982239 330 319 C328.78328613 319.41306396 328.78328613 319.41306396 327.54199219 319.83447266 C315.75345712 323.67019551 304.18544586 324.44432133 291.875 324.4375 C291.1679895 324.43790283 290.460979 324.43830566 289.73254395 324.4387207 C261.33949031 324.3429377 232.11518669 312.81067927 210 295 C209.46810059 294.58572754 208.93620117 294.17145508 208.38818359 293.74462891 C183.83222866 274.5698286 174.06139448 248.57773859 166 219.3125 C158.5811948 192.48833888 146.16083323 170.14940429 127 150 C126.42894531 149.36449219 125.85789063 148.72898437 125.26953125 148.07421875 C107.44157073 128.87135125 81.00229656 118.34087241 57.578125 107.859375 C51.65870775 105.20979129 45.75642715 102.52655833 39.87890625 99.78515625 C38.85455475 99.31193939 38.85455475 99.31193939 37.80950928 98.8291626 C21.82024002 91.32688782 7.44244268 80.8207119 -1 65 C-1.61294922 63.87658203 -1.61294922 63.87658203 -2.23828125 62.73046875 C-9.43530968 48.20555683 -9.66905974 25.67600185 -4.93359375 10.359375 C-3.50711047 6.75437122 -1.88914381 3.38743028 0 0 Z " fill="#E63841" transform="translate(23,134)"/>
<path d="M0 0 C7.09100348 4.57920388 11.90680344 10.33839607 17 17 C17.87612207 18.10300759 18.75242977 19.20586776 19.62890625 20.30859375 C44.98242541 52.84954501 54.88461794 94.71016979 50.17749023 135.41381836 C45.45057692 171.33519774 31.23238823 207.03926522 8 235 C7.50677246 235.59474121 7.01354492 236.18948242 6.50537109 236.80224609 C-5.75883975 251.50621523 -18.92712426 263.43393278 -35 274 C-35.92039062 274.60714844 -36.84078125 275.21429688 -37.7890625 275.83984375 C-58.74154173 288.8539893 -83.11650219 295.38976038 -107.62817383 295.31567383 C-109.8001557 295.31251794 -111.97076348 295.33606591 -114.14257812 295.36132812 C-124.08619876 295.40578136 -133.30066367 294.12320048 -143 292 C-144.5256522 291.70242332 -146.05160784 291.40638852 -147.578125 291.11328125 C-170.959647 286.01411954 -195.66864012 275.61927913 -209.4375 255.0625 C-210.2999779 253.71361159 -211.1572788 252.36131886 -212 251 C-210 250 -210 250 -207.19140625 250.85546875 C-205.99386719 251.29503906 -204.79632813 251.73460937 -203.5625 252.1875 C-197.41392541 254.35359635 -191.25479978 255.9772792 -184.875 257.3125 C-184.07006104 257.48354248 -183.26512207 257.65458496 -182.43579102 257.83081055 C-179.32937583 258.4604672 -176.54445594 259.02100275 -173.3671875 258.8984375 C-169.81803216 259.05071149 -167.35693288 260.64511269 -164.25 262.3125 C-158.94274615 265.08707714 -153.76276777 267.36509003 -148 269 C-146.845 269.37125 -145.69 269.7425 -144.5 270.125 C-140.94954632 271.01261342 -137.55600542 271.44708388 -133.91796875 271.75390625 C-132 272 -132 272 -130 273 C-95.20295985 275.79630421 -58.15222488 266.49488797 -31.265625 243.6796875 C-29.58219071 242.17479927 -27.91459008 240.65195523 -26.265625 239.109375 C-24.21202601 237.19740352 -22.09906029 235.41211677 -19.9375 233.625 C-14.97608698 229.28003509 -11.00939393 224.21422016 -7 219 C-6.21753906 218.00613281 -5.43507813 217.01226562 -4.62890625 215.98828125 C12.16969807 194.04821411 25.20602307 164.76587023 27 137 C27.07734375 136.02933594 27.1546875 135.05867187 27.234375 134.05859375 C27.36739069 131.28373876 27.42918863 128.74588423 27 126 C25.37064759 124.62131719 23.70250393 123.28725907 22 122 C21.11048713 118.69251553 21.08097517 115.41048372 21 112 C20.92652344 111.03578125 20.85304688 110.0715625 20.77734375 109.078125 C20.63043138 106.29055686 20.57228259 103.75990288 21 101 C22.64646685 99.31337542 24.31183067 97.64488294 26 96 C26.05468531 92.60951107 25.75153673 90.25512227 25 87 C24.63841797 85.35644531 24.63841797 85.35644531 24.26953125 83.6796875 C21.83718397 73.67413669 18.10385943 64.41812685 14 55 C14.66 55 15.32 55 16 55 C12.80184234 38.71689531 9.14657498 23.19279945 2.74072266 7.84423828 C1.70603485 5.26809072 0.84026366 2.64496788 0 0 Z " fill="#E2D3BE" transform="translate(446,126)"/>
<path d="M0 0 C4.67655589 -0.34885367 9.34543183 -0.60116939 14.03198242 -0.76904297 C15.62088891 -0.83903032 17.20890661 -0.93428366 18.79467773 -1.05615234 C31.54660524 -2.0108421 31.54660524 -2.0108421 35.57440186 1.29040527 C38.85266117 5.10213271 40.90683413 9.46146028 43 14 C43.8099281 15.46266862 44.62582657 16.92208557 45.453125 18.375 C46.06278366 19.57797001 46.66212862 20.78623406 47.25 22 C47.57516602 22.66241699 47.90033203 23.32483398 48.23535156 24.00732422 C51.92071319 31.6799763 55.00068143 39.61560526 56.9453125 47.9140625 C57.25210938 49.17992187 57.55890625 50.44578125 57.875 51.75 C58.24238281 53.47476563 58.24238281 53.47476563 58.6171875 55.234375 C59.80864783 58.39563456 59.80864783 58.39563456 63.6328125 59.390625 C64.74398437 59.59171875 65.85515625 59.7928125 67 60 C67.74805717 67.02639415 68.13794954 73.93391809 68 81 C67.236875 81.2475 66.47375 81.495 65.6875 81.75 C62.5382461 83.21476926 61.71389066 83.99593054 60 87 C59.49904762 89.91489836 59.12400368 92.75304925 58.8125 95.6875 C54.27825918 130.70534121 36.54741803 162.94885157 11 187 C-3.06555045 177.2402303 -9.26957744 153.71888171 -12.69287109 137.77246094 C-13 135 -13 135 -11.734375 132.859375 C-11.07953125 132.16328125 -10.4246875 131.4671875 -9.75 130.75 C15.87633942 100.78551935 26.42975869 59.75776626 24 21 C23.47863897 16.30857829 22.6612016 11.70755881 21.65625 7.09765625 C21 4 21 4 21 1 C14.07 1 7.14 1 0 1 C0 0.67 0 0.34 0 0 Z " fill="#E83841" transform="translate(400,167)"/>
<path d="M0 0 C0.235979 0.74983154 0.47195801 1.49966309 0.71508789 2.2722168 C8.37411593 26.62275069 8.37411593 26.62275069 22 48 C-1.81147243 64.3377986 -32.81366613 73.23052099 -61.609375 68.08984375 C-80.79860122 64.2093193 -99.08572623 57.46973139 -111 41 C-112.86662073 37.74479556 -114.50578891 34.44099573 -116 31 C-113.00606873 29.50303436 -111.03559905 30.63261955 -107.8125 31.4375 C-78.78293181 37.8420877 -47.17611157 30.01435462 -22 15 C-15.95238336 11.12091189 -10.17464802 6.88430862 -4.7265625 2.19921875 C-2 0 -2 0 0 0 Z " fill="#E83841" transform="translate(376,316)"/>
<path d="M0 0 C7.54315493 3.00706852 11.59218624 7.78134302 14.8828125 14.95703125 C17.03503999 20.95383604 16.01098726 26.45391737 13.83203125 32.33203125 C11.17295793 37.91106809 7.02086812 42.32894101 1.328125 44.8359375 C-5.25410168 46.57291399 -12.60567537 46.92779191 -18.99609375 44.3984375 C-24.19525622 41.15004956 -28.8164477 36.62838231 -30.8125 30.69140625 C-31.90990881 24.54591689 -32.05538807 17.89024285 -29.953125 12.00390625 C-29.375625 11.17890625 -28.798125 10.35390625 -28.203125 9.50390625 C-27.625625 8.63765625 -27.048125 7.77140625 -26.453125 6.87890625 C-19.36734183 -0.60053155 -9.89245545 -2.22755646 0 0 Z " fill="#EFE5D4" transform="translate(217.203125,127.49609375)"/>
</svg>
