<?xml version="1.0" encoding="UTF-8"?>
<svg version="1.1" xmlns="http://www.w3.org/2000/svg" width="512" height="512">
<path d="M0 0 C0.73299316 0.0105542 1.46598633 0.0211084 2.22119141 0.03198242 C38.98649511 0.84165877 75.68731956 10.45327633 108 28 C108.64308105 28.33966797 109.28616211 28.67933594 109.94873047 29.02929688 C129.98260871 39.61546427 147.60162421 53.42894805 164 69 C164.53415527 69.50547363 165.06831055 70.01094727 165.61865234 70.53173828 C173.37591585 77.92476772 180.31301503 85.66562298 186.70898438 94.26464844 C187.55007113 95.39521664 188.39744514 96.52114296 189.25195312 97.64160156 C211.87528948 127.31008149 226.10181643 162.49279624 233 199 C233.16226074 199.79390137 233.32452148 200.58780273 233.49169922 201.40576172 C238.8043213 228.03466313 238.44627182 259.43364915 233 286 C232.69400879 287.49490967 232.69400879 287.49490967 232.38183594 289.02001953 C223.36363858 331.64970793 205.10421256 370.41869064 176 403 C175.52062988 403.54108398 175.04125977 404.08216797 174.54736328 404.63964844 C162.59418625 418.07859788 149.50180018 429.40029063 135 440 C134.40944824 440.43666992 133.81889648 440.87333984 133.21044922 441.32324219 C103.09731295 463.35553974 66.61212629 476.2274929 30 482 C29.26233398 482.11859375 28.52466797 482.2371875 27.76464844 482.359375 C-32.23579077 491.52724566 -97.54785788 475.3291033 -146.48828125 439.77734375 C-153.89038259 434.27836353 -160.93890358 428.49474139 -167.6640625 422.18359375 C-169.70509858 420.27566872 -171.79357411 418.47702181 -173.9375 416.6875 C-185.15636536 406.85959152 -194.25247527 395.00248411 -203 383 C-203.43521973 382.41089844 -203.87043945 381.82179688 -204.31884766 381.21484375 C-217.76384488 362.84054711 -227.82578579 341.54384303 -235 320 C-235.27779297 319.17483887 -235.55558594 318.34967773 -235.84179688 317.49951172 C-243.8750815 293.27207038 -247.42949046 268.40857548 -247.3125 242.9375 C-247.31034485 242.08660797 -247.3081897 241.23571594 -247.30596924 240.35903931 C-247.03185525 172.60931137 -219.06487004 112.74466074 -171.47460938 65.29150391 C-126.37603481 21.10708963 -62.41629285 -0.93077981 0 0 Z M-145 103 C-145.72703125 103.67417969 -146.4540625 104.34835938 -147.203125 105.04296875 C-174.35140917 130.92212581 -191.24175012 167.88534681 -199 204 C-199.17789063 204.82016602 -199.35578125 205.64033203 -199.5390625 206.48535156 C-204.38178852 230.07442373 -204.11274337 257.49424274 -199 281 C-198.80132324 281.91604004 -198.60264648 282.83208008 -198.39794922 283.77587891 C-192.34897787 310.68587203 -180.95728449 343.04271551 -161 363 C-156.65776257 362.4445667 -153.61233631 359.76903053 -150.2277832 357.18701172 C-149.22006835 356.42221166 -149.22006835 356.42221166 -148.19199562 355.6419611 C-139.24474091 348.75975669 -130.69559753 341.43025427 -122.3125 333.875 C-121.49894295 333.14326191 -120.68538589 332.41152382 -119.8471756 331.65761185 C-97.57895338 311.37142894 -84.68493732 293.05901595 -83.13989449 262.40852356 C-82.47884937 243.42364794 -83.62657526 224.17310269 -85.73097229 205.30055237 C-87.2495262 191.51965794 -86.78410157 180.04405765 -79 168 C-76.17418899 164.49247583 -73.10883203 161.25614596 -70 158 C-68.49549721 156.31651326 -66.99545087 154.62903272 -65.5 152.9375 C-62.56426721 149.64824965 -59.52162374 146.58348415 -56.3125 143.5625 C-47.66570398 134.99128786 -44.17836606 125.11003528 -43.5625 113.1875 C-43.55395823 108.96238835 -43.55395823 108.96238835 -46.25 105.8125 C-47.1575 105.214375 -48.065 104.61625 -49 104 C-52.77220405 99.01056717 -53.69277831 93.85001362 -53.453125 87.6875 C-52.52489271 82.18212225 -49.83726207 78.38914937 -45.4375 75.0625 C-41.04353181 73.14718053 -37.30278964 72.86709248 -32.5065918 72.83886719 C-31.18809738 72.82925964 -29.86960297 72.8196521 -28.51115417 72.80975342 C-27.07384413 72.8049049 -25.63653207 72.80062621 -24.19921875 72.796875 C-22.71954854 72.79111864 -21.23987833 72.78536097 -19.76020813 72.77960205 C-16.65922703 72.76910776 -13.55827174 72.76325492 -10.45727539 72.75976562 C-6.49630496 72.75428626 -2.5356792 72.73026382 1.4251833 72.70179367 C4.48193844 72.6831097 7.53861153 72.67795863 10.59541893 72.67642975 C12.05497304 72.67341532 13.51452613 72.6654279 14.97402382 72.65224457 C30.98227767 72.51797398 30.98227767 72.51797398 37.8125 78.4375 C42.11234101 83.47445662 42.49035526 87.42011858 42.38671875 93.94921875 C41.81326102 98.47316307 40.05871858 101.65955734 37 105 C36.29230469 105.474375 35.58460938 105.94875 34.85546875 106.4375 C32.8247634 107.83429224 32.8247634 107.83429224 32.50390625 110.05859375 C32.91325626 126.67820397 39.05446024 137.73343417 50.8046875 148.9453125 C51.52914062 149.62335938 52.25359375 150.30140625 53 151 C59.97678561 145.26393792 66.33486648 138.90407972 72.75 132.55859375 C73.35161957 131.96354601 73.95323914 131.36849827 74.5730896 130.75541878 C77.7460085 127.61488773 80.9149859 124.47043082 84.08154297 121.32348633 C86.70016314 118.72278566 89.32706827 116.13089939 91.96142578 113.54614258 C95.15336141 110.41420716 98.3305006 107.26797163 101.49743652 104.11076546 C102.70445351 102.91232149 103.91660855 101.71902957 105.13391113 100.53103447 C106.8288357 98.87480377 108.50407136 97.20085393 110.17578125 95.52124023 C110.68266983 95.03435226 111.18955841 94.54746429 111.71180725 94.04582214 C113.26957599 92.52300424 113.26957599 92.52300424 115 90 C114.88083913 87.04313858 114.63608637 85.67144914 112.59912109 83.52124023 C111.99664551 83.12106689 111.39416992 82.72089355 110.7734375 82.30859375 C110.0832251 81.84477295 109.3930127 81.38095215 108.68188477 80.90307617 C107.92061279 80.41943604 107.15934082 79.9357959 106.375 79.4375 C105.57956787 78.92227783 104.78413574 78.40705566 103.96459961 77.8762207 C23.83602282 27.04361939 -76.74820684 37.79186789 -145 103 Z M148 121 C146.35382996 122.03966442 146.35382996 122.03966442 144.72265625 123.71582031 C141.05267935 127.10402074 137.24744025 130.19813825 133.30859375 133.26074219 C124.59663447 140.11258922 116.211777 147.30713084 108 154.75 C107.26285137 155.4174889 106.52570274 156.0849778 105.76621628 156.77269363 C86.66680411 174.27071951 74.02440161 189.95285374 72.70472336 216.5134697 C72.09025813 235.70053246 74.05553201 255.05898343 77 274 C83.9162848 272.71471326 90.66277985 271.08054253 97.43359375 269.1796875 C99.4015185 268.63868884 101.36962313 268.09834411 103.33789062 267.55859375 C106.39161829 266.71792915 109.44396755 265.87318431 112.4934082 265.01708984 C115.47009058 264.18345579 118.45124825 263.36779409 121.43359375 262.5546875 C122.32976913 262.29847626 123.22594452 262.04226501 124.14927673 261.77828979 C131.76227117 259.72733774 140.78498029 257.94382509 148 262 C150.27374802 265.85096971 150.2579645 269.49833574 150.2746582 273.89819336 C150.2823246 274.90895683 150.2823246 274.90895683 150.29014587 275.94013977 C150.30399034 278.15679934 150.30308909 280.37314621 150.30078125 282.58984375 C150.30467093 284.13774225 150.30900617 285.6856397 150.31376648 287.23353577 C150.32121755 290.47400374 150.32094546 293.71436274 150.31567383 296.95483398 C150.30987974 301.09862049 150.3268138 305.24195995 150.3500185 309.38567257 C150.36478057 312.58137094 150.36562421 315.77696224 150.36250877 318.97268867 C150.36302071 320.50004525 150.36823453 322.02740801 150.37832069 323.55473137 C150.39071672 325.6942503 150.38387556 327.83290605 150.37231445 329.97241211 C150.37294388 331.1875499 150.3735733 332.40268768 150.3742218 333.65464783 C149.6958721 339.71874843 147.02497626 343.4119117 142.5 347.3125 C141.60925781 348.0859375 140.71851563 348.859375 139.80078125 349.65625 C136.20703607 352.66356814 132.56247282 355.605364 128.91796875 358.55078125 C125.09834696 361.75680918 121.4753559 365.14989784 117.83666992 368.55786133 C113.64493156 372.46166977 109.27487537 376.07752742 104.8046875 379.66015625 C101.63031962 382.30841024 98.63260779 385.10367506 95.625 387.9375 C74.4329919 407.75188538 74.4329919 407.75188538 60.05650806 407.28810978 C56.98699577 406.99877421 54.31303306 406.34833576 51.35368347 405.49961853 C45.33333888 403.94652834 39.78485897 403.58234851 33.59106445 403.63110352 C32.52112244 403.62733704 31.45118042 403.62357056 30.34881592 403.61968994 C28.04907922 403.61330359 25.74931608 403.61354365 23.44957924 403.61987495 C19.80403317 403.62905545 16.1589937 403.61868338 12.51347351 403.60325623 C2.15701991 403.56333837 -8.1993904 403.56195708 -18.5559082 403.56420898 C-24.91111092 403.56426015 -31.26603737 403.54506637 -37.62116432 403.51487541 C-41.20243539 403.50408487 -44.78317204 403.51615661 -48.36442566 403.52870178 C-50.56937177 403.51979538 -52.77431357 403.5097203 -54.97924805 403.49829102 C-55.96597 403.50803452 -56.95269196 403.51777802 -57.96931458 403.52781677 C-65.95626561 403.44547707 -71.65999203 401.24808229 -78.25 396.8125 C-84.32207417 390.60242415 -86.99711801 383.93454483 -87.31640625 375.359375 C-87.35830078 374.28945313 -87.40019531 373.21953125 -87.44335938 372.1171875 C-87.48267578 371.00601563 -87.52199219 369.89484375 -87.5625 368.75 C-87.60568359 367.62335938 -87.64886719 366.49671875 -87.69335938 365.3359375 C-87.79932015 362.55741046 -87.90139142 359.77879609 -88 357 C-95.28925417 363.13328272 -102.05634043 369.72764435 -108.82763672 376.42260742 C-110.28405671 377.85725804 -111.74671705 379.28559926 -113.21533203 380.70776367 C-115.34557383 382.7714206 -117.45574729 384.85380842 -119.5625 386.94140625 C-120.22378906 387.57486465 -120.88507813 388.20832306 -121.56640625 388.86097717 C-125.13421379 392.22784466 -125.13421379 392.22784466 -126.02587891 396.82104492 C-123.74123514 401.67360218 -118.35684466 404.16856114 -114 407 C-113.44473633 407.3614209 -112.88947266 407.7228418 -112.31738281 408.09521484 C-89.39173377 422.84618026 -63.84977816 432.42637801 -37 437 C-35.18048828 437.33644531 -35.18048828 437.33644531 -33.32421875 437.6796875 C16.07174831 445.42599383 69.15224407 431.76585835 109.5 402.609375 C117.13114931 396.96430235 124.26201376 390.85254899 131.25 384.4375 C131.8167041 383.91945801 132.3834082 383.40141602 132.96728516 382.86767578 C160.38545555 357.32165358 178.33057658 321.96832831 186.75 285.8125 C187.04837769 284.53161499 187.04837769 284.53161499 187.3527832 283.22485352 C190.35735215 269.60182084 191.37957294 256.27012379 191.3125 242.375 C191.31067719 241.58763458 191.30885437 240.80026917 191.30697632 239.98904419 C191.25829185 227.46222916 190.66712494 215.28032528 188 203 C187.83371094 202.2255957 187.66742188 201.45119141 187.49609375 200.65332031 C181.75691574 174.92267223 171.36703284 150.45783856 156 129 C155.25943359 127.89205078 155.25943359 127.89205078 154.50390625 126.76171875 C152.00797078 122.95990475 152.00797078 122.95990475 148 121 Z " fill="#F9637C" transform="translate(261,14)"/>
<path d="M0 0 C0.72058594 -0.01933594 1.44117188 -0.03867188 2.18359375 -0.05859375 C8.25504255 1.20753761 11.90113181 5.60631093 15.25 10.5 C15.67079834 11.10505371 16.09159668 11.71010742 16.52514648 12.33349609 C34.6299742 38.86591617 45.11056213 67.11817408 51.5625 98.4375 C51.71380371 99.1701709 51.86510742 99.9028418 52.02099609 100.65771484 C61.34897463 148.74226106 47.2428729 204.82880224 20.5078125 245.15234375 C1.98320314 272.17083391 -20.97368024 295.25902957 -49.61816406 311.40820312 C-51.3786934 312.40422992 -53.12329846 313.4282426 -54.8671875 314.453125 C-66.11295556 320.903671 -78.23616616 325.1591395 -90.4375 329.4375 C-91.66726563 329.87191406 -92.89703125 330.30632812 -94.1640625 330.75390625 C-144.33141526 347.28191007 -201.86201731 339.87287741 -248.61328125 316.9296875 C-281.48944192 300.28167425 -281.48944192 300.28167425 -285.4375 288.4375 C-286.04306958 284.02549306 -285.7489586 281.39877898 -283.0937891 277.89872456 C-278.67977166 272.26202739 -273.56408736 267.28731529 -268.49937439 262.2454071 C-267.38364077 261.12736627 -266.26834305 260.00889028 -265.15344149 258.89001971 C-262.10270425 255.83096209 -259.04579567 252.77813859 -255.98779428 249.72634494 C-252.6856087 246.42869398 -249.38919513 243.12528162 -246.09202576 239.82261658 C-239.63838222 233.36008908 -233.1793547 226.90296884 -226.71836775 220.44778385 C-221.46840575 215.20234107 -216.22040209 209.95494646 -210.97378731 204.70615578 C-210.22669633 203.95875833 -209.47960535 203.21136088 -208.70987524 202.44131503 C-207.19215863 200.92295896 -205.67444651 199.40459841 -204.15673883 197.88623343 C-189.93276213 183.65655667 -175.70266675 169.4330115 -161.47046579 155.21156112 C-149.25604827 143.00608432 -137.04689169 130.79536557 -124.84155273 118.58081055 C-110.66585986 104.39441883 -96.48693368 90.21127171 -82.30281836 76.0333007 C-80.79100702 74.52212646 -79.27919986 73.01094804 -77.76739693 71.4997654 C-77.02356064 70.75623766 -76.27972436 70.01270993 -75.51334758 69.24665105 C-70.26893677 64.00396793 -65.02685205 58.75896589 -59.78565788 53.51306725 C-53.40169111 47.12349618 -47.01418315 40.73749087 -40.62208407 34.35605492 C-37.36024819 31.09948096 -34.10004249 27.84131782 -30.8441391 24.57881165 C-27.86490499 21.59362715 -24.88110974 18.61308293 -21.89357681 15.63620446 C-20.81252275 14.55738822 -19.73315857 13.47687545 -18.65564596 12.39452203 C-17.19254741 10.92535457 -15.72344404 9.4624641 -14.25266933 8.00098705 C-13.43762446 7.18626688 -12.62257958 6.37154671 -11.78283638 5.53213805 C-8.14160595 2.280127 -4.97099915 0.00886096 0 0 Z M-0.4375 10.4375 C-2.08367004 11.47716442 -2.08367004 11.47716442 -3.71484375 13.15332031 C-7.38482065 16.54152074 -11.19005975 19.63563825 -15.12890625 22.69824219 C-23.84086553 29.55008922 -32.225723 36.74463084 -40.4375 44.1875 C-41.17464863 44.8549889 -41.91179726 45.5224778 -42.67128372 46.21019363 C-61.77069589 63.70821951 -74.41309839 79.39035374 -75.73277664 105.9509697 C-76.34724187 125.13803246 -74.38196799 144.49648343 -71.4375 163.4375 C-64.5212152 162.15221326 -57.77472015 160.51804253 -51.00390625 158.6171875 C-49.0359815 158.07618884 -47.06787687 157.53584411 -45.09960938 156.99609375 C-42.04588171 156.15542915 -38.99353245 155.31068431 -35.9440918 154.45458984 C-32.96740942 153.62095579 -29.98625175 152.80529409 -27.00390625 151.9921875 C-26.10773087 151.73597626 -25.21155548 151.47976501 -24.28822327 151.21578979 C-16.67522883 149.16483774 -7.65251971 147.38132509 -0.4375 151.4375 C1.83624802 155.28846971 1.8204645 158.93583574 1.8371582 163.33569336 C1.8448246 164.34645683 1.8448246 164.34645683 1.85264587 165.37763977 C1.86649034 167.59429934 1.86558909 169.81064621 1.86328125 172.02734375 C1.86717093 173.57524225 1.87150617 175.1231397 1.87626648 176.67103577 C1.88371755 179.91150374 1.88344546 183.15186274 1.87817383 186.39233398 C1.87237974 190.53612049 1.8893138 194.67945995 1.9125185 198.82317257 C1.92728057 202.01887094 1.92812421 205.21446224 1.92500877 208.41018867 C1.92552071 209.93754525 1.93073453 211.46490801 1.94082069 212.99223137 C1.95321672 215.1317503 1.94637556 217.27040605 1.93481445 219.40991211 C1.93544388 220.6250499 1.9360733 221.84018768 1.9367218 223.09214783 C1.2583721 229.15624843 -1.41252374 232.8494117 -5.9375 236.75 C-6.82824219 237.5234375 -7.71898437 238.296875 -8.63671875 239.09375 C-12.23046393 242.10106814 -15.87502718 245.042864 -19.51953125 247.98828125 C-23.33915304 251.19430918 -26.9621441 254.58739784 -30.60083008 257.99536133 C-34.79256844 261.89916977 -39.16262463 265.51502742 -43.6328125 269.09765625 C-46.80718038 271.74591024 -49.80489221 274.54117506 -52.8125 277.375 C-74.0045081 297.18938538 -74.0045081 297.18938538 -88.38099194 296.72560978 C-91.45050423 296.43627421 -94.12446694 295.78583576 -97.08381653 294.93711853 C-103.10416112 293.38402834 -108.65264103 293.01984851 -114.84643555 293.06860352 C-115.91637756 293.06483704 -116.98631958 293.06107056 -118.08868408 293.05718994 C-120.38842078 293.05080359 -122.68818392 293.05104365 -124.98792076 293.05737495 C-128.63346683 293.06655545 -132.2785063 293.05618338 -135.92402649 293.04075623 C-146.28048009 293.00083837 -156.6368904 292.99945708 -166.9934082 293.00170898 C-173.34861092 293.00176015 -179.70353737 292.98256637 -186.05866432 292.95237541 C-189.63993539 292.94158487 -193.22067204 292.95365661 -196.80192566 292.96620178 C-199.00687177 292.95729538 -201.21181357 292.9472203 -203.41674805 292.93579102 C-204.40347 292.94553452 -205.39019196 292.95527802 -206.40681458 292.96531677 C-214.39376561 292.88297707 -220.09749203 290.68558229 -226.6875 286.25 C-232.75957417 280.03992415 -235.43461801 273.37204483 -235.75390625 264.796875 C-235.79580078 263.72695313 -235.83769531 262.65703125 -235.88085938 261.5546875 C-235.92017578 260.44351563 -235.95949219 259.33234375 -236 258.1875 C-236.04318359 257.06085938 -236.08636719 255.93421875 -236.13085938 254.7734375 C-236.23682015 251.99491046 -236.33889142 249.21629609 -236.4375 246.4375 C-243.72675417 252.57078272 -250.49384043 259.16514435 -257.26513672 265.86010742 C-258.72155671 267.29475804 -260.18421705 268.72309926 -261.65283203 270.14526367 C-263.78307383 272.2089206 -265.89324729 274.29130842 -268 276.37890625 C-268.66128906 277.01236465 -269.32257813 277.64582306 -270.00390625 278.29847717 C-273.57171379 281.66534466 -273.57171379 281.66534466 -274.46337891 286.25854492 C-272.17873514 291.11110218 -266.79434466 293.60606114 -262.4375 296.4375 C-261.88223633 296.7989209 -261.32697266 297.1603418 -260.75488281 297.53271484 C-237.82923377 312.28368026 -212.28727816 321.86387801 -185.4375 326.4375 C-183.61798828 326.77394531 -183.61798828 326.77394531 -181.76171875 327.1171875 C-132.36575169 334.86349383 -79.28525593 321.20335835 -38.9375 292.046875 C-31.30635069 286.40180235 -24.17548624 280.29004899 -17.1875 273.875 C-16.6207959 273.35695801 -16.0540918 272.83891602 -15.47021484 272.30517578 C11.94795555 246.75915358 29.89307658 211.40582831 38.3125 175.25 C38.61087769 173.96911499 38.61087769 173.96911499 38.9152832 172.66235352 C41.91985215 159.03932084 42.94207294 145.70762379 42.875 131.8125 C42.87317719 131.02513458 42.87135437 130.23776917 42.86947632 129.42654419 C42.82079185 116.89972916 42.22962494 104.71782528 39.5625 92.4375 C39.39621094 91.6630957 39.22992188 90.88869141 39.05859375 90.09082031 C33.31941574 64.36017223 22.92953284 39.89533856 7.5625 18.4375 C6.82193359 17.32955078 6.82193359 17.32955078 6.06640625 16.19921875 C3.57047078 12.39740475 3.57047078 12.39740475 -0.4375 10.4375 Z " fill="#040202" transform="translate(409.4375,124.5625)"/>
<path d="M0 0 C0.81581543 0.29245605 1.63163086 0.58491211 2.47216797 0.88623047 C21.96997694 8.01166308 48.58605196 18.43737664 61.8125 35.3125 C63.35845617 38.81124291 63.39969115 41.20293409 63 45 C61.09157386 49.50397253 58.78837004 52.58603685 55.34166622 56.03027058 C54.87450112 56.50119681 54.40733602 56.97212304 53.92601439 57.45731977 C52.36191251 59.03035066 50.7873647 60.59247917 49.21263123 62.15486145 C48.07650808 63.29300942 46.94104292 64.43181452 45.80617958 65.57121867 C42.68810655 68.69793912 39.56075202 71.8152293 36.43179905 74.93105686 C33.05827021 78.2936896 29.69340165 81.66496886 26.32745361 85.03518677 C19.73397488 91.63430009 13.13254902 98.22540819 6.52845555 104.81389687 C-1.15705204 112.48187731 -8.83450631 120.15789975 -16.51158284 127.83431967 C-30.20470143 141.52575006 -43.90487174 155.21010222 -57.60913086 168.89038086 C-70.91796838 182.17594661 -84.22223904 195.46606243 -97.52124023 208.76147461 C-98.34074504 209.58075665 -99.16024985 210.40003869 -100.00458813 211.24414746 C-101.6554096 212.89452634 -103.30623079 214.5449055 -104.95705169 216.19528494 C-105.77131986 217.00933354 -106.58558802 217.82338214 -107.42453098 218.66209888 C-108.23669592 219.47404783 -109.04886085 220.28599678 -109.88563684 221.12255024 C-122.5466615 233.77987757 -135.21151549 246.43337285 -147.87689992 259.08633742 C-152.47296541 263.6779628 -157.06852885 268.27008999 -161.6637475 272.86256287 C-168.94966126 280.14405105 -176.23723204 287.42387218 -183.52822942 294.70027039 C-186.86129663 298.02671547 -190.19357494 301.35394055 -193.52372551 304.68330574 C-196.56796683 307.72676346 -199.61449201 310.76791477 -202.66291904 313.80717977 C-203.76937958 314.91112025 -204.87498965 316.01591389 -205.97969312 317.12161265 C-207.47335281 318.61635868 -208.97000867 320.10803669 -210.46750736 321.59893513 C-211.30050643 322.4306877 -212.1335055 323.26244027 -212.99174696 324.11939746 C-216.75259407 327.64119401 -220.2005945 327.47878635 -225.1953125 327.375 C-229.98398685 326.73473156 -232.05256967 324.71465731 -235 321 C-249.93108432 300.66671432 -260.72427133 278.10538807 -268 254 C-268.29366455 253.03199463 -268.29366455 253.03199463 -268.59326172 252.04443359 C-282.60792653 205.00656732 -277.73351458 153.24087794 -257 109 C-256.67918457 108.30616211 -256.35836914 107.61232422 -256.02783203 106.89746094 C-245.98099112 85.35466645 -232.3993301 67.09643234 -216 50 C-215.21753906 49.17628906 -214.43507812 48.35257813 -213.62890625 47.50390625 C-208.13428088 41.85257142 -202.26355387 36.7800316 -196 32 C-195.11127197 31.32130859 -195.11127197 31.32130859 -194.20458984 30.62890625 C-166.87188566 10.01941896 -134.8696312 -3.8183239 -101 -9 C-99.82050781 -9.20496094 -98.64101562 -9.40992188 -97.42578125 -9.62109375 C-65.01855048 -14.45053718 -30.7771468 -11.07566837 0 0 Z M-208 57 C-208.72703125 57.67417969 -209.4540625 58.34835938 -210.203125 59.04296875 C-237.35140917 84.92212581 -254.24175012 121.88534681 -262 158 C-262.17789063 158.82016602 -262.35578125 159.64033203 -262.5390625 160.48535156 C-267.38178852 184.07442373 -267.11274337 211.49424274 -262 235 C-261.80132324 235.91604004 -261.60264648 236.83208008 -261.39794922 237.77587891 C-255.34897787 264.68587203 -243.95728449 297.04271551 -224 317 C-219.65776257 316.4445667 -216.61233631 313.76903053 -213.2277832 311.18701172 C-212.22006835 310.42221166 -212.22006835 310.42221166 -211.19199562 309.6419611 C-202.24474091 302.75975669 -193.69559753 295.43025427 -185.3125 287.875 C-184.49894295 287.14326191 -183.68538589 286.41152382 -182.8471756 285.65761185 C-160.57895338 265.37142894 -147.68493732 247.05901595 -146.13989449 216.40852356 C-145.47884937 197.42364794 -146.62657526 178.17310269 -148.73097229 159.30055237 C-150.2495262 145.51965794 -149.78410157 134.04405765 -142 122 C-139.17418899 118.49247583 -136.10883203 115.25614596 -133 112 C-131.49549721 110.31651326 -129.99545087 108.62903272 -128.5 106.9375 C-125.56426721 103.64824965 -122.52162374 100.58348415 -119.3125 97.5625 C-110.66570398 88.99128786 -107.17836606 79.11003528 -106.5625 67.1875 C-106.55395823 62.96238835 -106.55395823 62.96238835 -109.25 59.8125 C-110.1575 59.214375 -111.065 58.61625 -112 58 C-115.77220405 53.01056717 -116.69277831 47.85001362 -116.453125 41.6875 C-115.52489271 36.18212225 -112.83726207 32.38914937 -108.4375 29.0625 C-104.04353181 27.14718053 -100.30278964 26.86709248 -95.5065918 26.83886719 C-94.18809738 26.82925964 -92.86960297 26.8196521 -91.51115417 26.80975342 C-90.07384413 26.8049049 -88.63653207 26.80062621 -87.19921875 26.796875 C-85.71954854 26.79111864 -84.23987833 26.78536097 -82.76020813 26.77960205 C-79.65922703 26.76910776 -76.55827174 26.76325492 -73.45727539 26.75976562 C-69.49630496 26.75428626 -65.5356792 26.73026382 -61.5748167 26.70179367 C-58.51806156 26.6831097 -55.46138847 26.67795863 -52.40458107 26.67642975 C-50.94502696 26.67341532 -49.48547387 26.6654279 -48.02597618 26.65224457 C-32.01772233 26.51797398 -32.01772233 26.51797398 -25.1875 32.4375 C-20.88765899 37.47445662 -20.50964474 41.42011858 -20.61328125 47.94921875 C-21.18673898 52.47316307 -22.94128142 55.65955734 -26 59 C-26.70769531 59.474375 -27.41539062 59.94875 -28.14453125 60.4375 C-30.1752366 61.83429224 -30.1752366 61.83429224 -30.49609375 64.05859375 C-30.08674374 80.67820397 -23.94553976 91.73343417 -12.1953125 102.9453125 C-11.47085938 103.62335938 -10.74640625 104.30140625 -10 105 C-3.02321439 99.26393792 3.33486648 92.90407972 9.75 86.55859375 C10.35161957 85.96354601 10.95323914 85.36849827 11.5730896 84.75541878 C14.7460085 81.61488773 17.9149859 78.47043082 21.08154297 75.32348633 C23.70016314 72.72278566 26.32706827 70.13089939 28.96142578 67.54614258 C32.15336141 64.41420716 35.3305006 61.26797163 38.49743652 58.11076546 C39.70445351 56.91232149 40.91660855 55.71902957 42.13391113 54.53103447 C43.8288357 52.87480377 45.50407136 51.20085393 47.17578125 49.52124023 C47.68266983 49.03435226 48.18955841 48.54746429 48.71180725 48.04582214 C50.26957599 46.52300424 50.26957599 46.52300424 52 44 C51.88083913 41.04313858 51.63608637 39.67144914 49.59912109 37.52124023 C48.99664551 37.12106689 48.39416992 36.72089355 47.7734375 36.30859375 C47.0832251 35.84477295 46.3930127 35.38095215 45.68188477 34.90307617 C44.92061279 34.41943604 44.15934082 33.9357959 43.375 33.4375 C42.57956787 32.92227783 41.78413574 32.40705566 40.96459961 31.8762207 C-39.16397718 -18.95638061 -139.74820684 -8.20813211 -208 57 Z " fill="#020202" transform="translate(324,60)"/>
<path d="M0 0 C0.73299316 0.0105542 1.46598633 0.0211084 2.22119141 0.03198242 C38.98649511 0.84165877 75.68731956 10.45327633 108 28 C108.64308105 28.33966797 109.28616211 28.67933594 109.94873047 29.02929688 C129.98260871 39.61546427 147.60162421 53.42894805 164 69 C164.53415527 69.50547363 165.06831055 70.01094727 165.61865234 70.53173828 C173.37591585 77.92476772 180.31301503 85.66562298 186.70898438 94.26464844 C187.55007113 95.39521664 188.39744514 96.52114296 189.25195312 97.64160156 C211.87528948 127.31008149 226.10181643 162.49279624 233 199 C233.16226074 199.79390137 233.32452148 200.58780273 233.49169922 201.40576172 C238.8043213 228.03466313 238.44627182 259.43364915 233 286 C232.69400879 287.49490967 232.69400879 287.49490967 232.38183594 289.02001953 C223.36363858 331.64970793 205.10421256 370.41869064 176 403 C175.52062988 403.54108398 175.04125977 404.08216797 174.54736328 404.63964844 C162.59418625 418.07859788 149.50180018 429.40029063 135 440 C134.40944824 440.43666992 133.81889648 440.87333984 133.21044922 441.32324219 C103.09731295 463.35553974 66.61212629 476.2274929 30 482 C29.26233398 482.11859375 28.52466797 482.2371875 27.76464844 482.359375 C-32.23579077 491.52724566 -97.54785788 475.3291033 -146.48828125 439.77734375 C-153.89038259 434.27836353 -160.93890358 428.49474139 -167.6640625 422.18359375 C-169.70509858 420.27566872 -171.79357411 418.47702181 -173.9375 416.6875 C-185.15636536 406.85959152 -194.25247527 395.00248411 -203 383 C-203.43521973 382.41089844 -203.87043945 381.82179688 -204.31884766 381.21484375 C-217.76384488 362.84054711 -227.82578579 341.54384303 -235 320 C-235.27779297 319.17483887 -235.55558594 318.34967773 -235.84179688 317.49951172 C-243.8750815 293.27207038 -247.42949046 268.40857548 -247.3125 242.9375 C-247.31034485 242.08660797 -247.3081897 241.23571594 -247.30596924 240.35903931 C-247.03185525 172.60931137 -219.06487004 112.74466074 -171.47460938 65.29150391 C-126.37603481 21.10708963 -62.41629285 -0.93077981 0 0 Z M-115 38 C-115.9892749 38.51965332 -115.9892749 38.51965332 -116.99853516 39.04980469 C-127.35315754 44.51856635 -136.74221605 50.84323409 -146 58 C-147.33804688 59.01707031 -147.33804688 59.01707031 -148.703125 60.0546875 C-155.85243402 65.61269871 -162.43620922 71.77334749 -169 78 C-169.87914062 78.825 -170.75828125 79.65 -171.6640625 80.5 C-178.52139387 87.11786901 -184.30351384 94.38886728 -190 102 C-190.64219482 102.85102295 -190.64219482 102.85102295 -191.29736328 103.71923828 C-213.36367492 133.12117641 -227.56061691 166.85958636 -234 203 C-234.16371094 203.91007813 -234.32742187 204.82015625 -234.49609375 205.7578125 C-239.94153398 237.35036659 -238.44782031 272.21647211 -229 303 C-228.76442383 303.80598633 -228.52884766 304.61197266 -228.28613281 305.44238281 C-215.9300217 347.65780384 -192.572915 388.88768023 -158 417 C-156.85092062 417.97189786 -155.70255672 418.94464191 -154.5546875 419.91796875 C-125.89425166 443.98310593 -92.06541268 460.40122146 -55.625 468.8125 C-54.36175903 469.10483521 -54.36175903 469.10483521 -53.07299805 469.40307617 C-37.58924317 472.78804966 -22.47395983 473.40390397 -6.6875 473.375 C-5.09285919 473.37468277 -5.09285919 473.37468277 -3.46600342 473.37435913 C12.67151354 473.34230589 28.22517524 472.71350521 44 469 C44.81339844 468.81276367 45.62679688 468.62552734 46.46484375 468.43261719 C51.72188072 467.18309978 56.86511881 465.67838796 62 464 C62.82226074 463.7328418 63.64452148 463.46568359 64.49169922 463.19042969 C74.97781539 459.74169763 85.09191015 455.89303452 95 451 C96.19109375 450.45214844 97.3821875 449.90429688 98.609375 449.33984375 C114.20613457 442.04957932 128.96022076 432.22869879 142 421 C143.15044084 420.03183769 144.30153809 419.06445508 145.453125 418.09765625 C154.56610133 410.4122494 154.56610133 410.4122494 163 402 C163.51046875 401.44828125 164.0209375 400.8965625 164.546875 400.328125 C190.94165486 370.91679887 211.41865055 335.23753558 220.125 296.4375 C220.28097656 295.77298828 220.43695313 295.10847656 220.59765625 294.42382812 C234.61242578 233.55803154 222.97115945 170.58582071 190.37109375 117.6640625 C186.894849 112.19834053 183.03190574 107.06931215 179 102 C178.35546875 101.16339844 177.7109375 100.32679687 177.046875 99.46484375 C171.72669991 92.64161106 165.94931178 86.272189 160 80 C159.2881958 79.24517334 159.2881958 79.24517334 158.56201172 78.47509766 C150.96886223 70.47540205 142.83176622 63.59120105 134 57 C133.45682129 56.58540527 132.91364258 56.17081055 132.35400391 55.74365234 C115.12947067 42.61053135 96.03722396 33.0572549 76 25 C75.32388672 24.72575195 74.64777344 24.45150391 73.95117188 24.16894531 C13.37489629 -0.04196095 -58.28824457 7.76705311 -115 38 Z " fill="#020101" transform="translate(261,14)"/>
<path d="M0 0 C0.6461879 -0.0087616 1.29237579 -0.01752319 1.95814514 -0.02655029 C4.08281674 -0.04846176 6.2053874 -0.03402484 8.33007812 -0.01708984 C9.81311439 -0.02046045 11.29614796 -0.02531511 12.7791748 -0.03158569 C15.88283669 -0.03894569 18.9857776 -0.02828105 22.08935547 -0.00488281 C26.06101619 0.02360611 30.03098759 0.00719721 34.00258636 -0.02274513 C37.06366629 -0.04084271 40.12434791 -0.03504918 43.18544006 -0.02210617 C44.6494212 -0.01877887 46.1134389 -0.02283551 47.57737732 -0.03450394 C49.62677287 -0.04725532 51.6734616 -0.02778482 53.72265625 0 C54.88671997 0.00397797 56.05078369 0.00795593 57.25012207 0.01205444 C61.31912532 0.84243476 62.85127825 2.39649716 65.36132812 5.64697266 C65.24487821 9.0822451 64.89878393 11.57206105 63.36132812 14.64697266 C62.24105225 14.67670166 62.24105225 14.67670166 61.09814453 14.70703125 C57.72717208 14.80205477 54.35683883 14.91182525 50.98632812 15.02197266 C49.81070313 15.05291016 48.63507813 15.08384766 47.42382812 15.11572266 C46.30234375 15.15439453 45.18085938 15.19306641 44.02539062 15.23291016 C42.98850098 15.26433105 41.95161133 15.29575195 40.88330078 15.328125 C38.19322977 15.40651738 38.19322977 15.40651738 36.36132812 17.64697266 C36.85632813 20.61697266 36.85632813 20.61697266 37.36132812 23.64697266 C43.30132812 23.97697266 49.24132812 24.30697266 55.36132812 24.64697266 C55.44769531 26.02369141 55.5340625 27.40041016 55.62304688 28.81884766 C57.12266408 49.57581334 63.38264498 61.27966433 78.36132812 75.64697266 C77.05771334 78.50744558 75.65925175 80.61585553 73.47558594 82.87084961 C72.89448059 83.47439774 72.31337524 84.07794586 71.71466064 84.69978333 C71.08759216 85.33848862 70.46052368 85.97719391 69.81445312 86.63525391 C68.84122101 87.62914375 68.84122101 87.62914375 67.84832764 88.64311218 C66.47603333 90.0386432 65.10073456 91.43122528 63.72265625 92.82104492 C61.61688311 94.95384638 59.53630926 97.10939325 57.45507812 99.26611328 C56.11803315 100.61980675 54.77953882 101.97207052 53.43945312 103.32275391 C52.82048157 103.97158035 52.20151001 104.6204068 51.56378174 105.28889465 C49.88950394 106.94645921 48.35688244 108.39444968 46.36132812 109.64697266 C42.89255251 109.60461982 40.67703349 108.75894283 37.43164062 107.60791016 C24.55161837 103.57675815 12.32154455 108.08357808 0.86132812 113.83447266 C-0.09773438 114.34365234 -1.05679688 114.85283203 -2.04492188 115.37744141 C-9.5705562 119.06092206 -19.27111288 119.35381997 -27.22753906 116.82373047 C-29.89738302 115.77328395 -32.48526396 114.62891313 -35.07617188 113.39697266 C-35.91092041 113.00203613 -36.74566895 112.60709961 -37.60571289 112.20019531 C-43.40609118 109.24285511 -43.40609118 109.24285511 -44.41186523 106.66601562 C-45.05079048 100.97827424 -41.09334373 94.60952564 -37.82617188 90.20166016 C-35.50235202 87.60496752 -33.08743874 85.12652011 -30.63867188 82.64697266 C-8.79774726 59.97613677 -8.79774726 59.97613677 -2.07617188 29.95947266 C-2.02654297 29.03585938 -1.97691406 28.11224609 -1.92578125 27.16064453 C-1.74732222 22.12777302 -1.74732222 22.12777302 -4.1862793 17.9609375 C-6.04245562 16.60630526 -6.04245562 16.60630526 -7.98681641 15.57348633 C-9.63867188 14.64697266 -9.63867188 14.64697266 -11.07617188 12.64697266 C-11.81296979 10.02724675 -12.10177582 8.35943863 -11.63867188 5.64697266 C-7.99961818 1.13400984 -5.7561224 0.01967045 0 0 Z " fill="#9AE3F7" transform="translate(228.638671875,96.35302734375)"/>
<path d="M0 0 C0 25.41 0 50.82 0 77 C-7.59 78.98 -15.18 80.96 -23 83 C-29.45293809 84.89207898 -29.45293809 84.89207898 -35.89892578 86.80761719 C-43.18751757 88.9579897 -50.57006056 90.76775634 -57.9375 92.625 C-75.3448639 95.6801311 -75.3448639 95.6801311 -90 104 C-91.83623085 107.75336823 -92.2654473 110.82731454 -92.31884766 114.98364258 C-92.33871735 116.16448929 -92.35858704 117.345336 -92.37905884 118.56196594 C-92.39638565 120.45908577 -92.39638565 120.45908577 -92.4140625 122.39453125 C-92.43342865 123.69702316 -92.4527948 124.99951508 -92.4727478 126.34147644 C-92.52394518 129.7920735 -92.56363676 133.24270944 -92.60089111 136.69348145 C-92.64100888 140.21957926 -92.69206562 143.74551708 -92.7421875 147.27148438 C-92.83879973 154.1808725 -92.92325122 161.09036346 -93 168 C-99.11968467 168.1489439 -105.23830161 168.25749806 -111.359375 168.32958984 C-113.43898918 168.35965889 -115.51847762 168.40052616 -117.59765625 168.45263672 C-120.5966705 168.5258885 -123.59400062 168.55955528 -126.59375 168.5859375 C-127.51490601 168.61690521 -128.43606201 168.64787292 -129.38513184 168.67977905 C-134.6450739 168.68248689 -139.39022051 168.15364242 -143.39962101 164.48999405 C-146.78147553 159.22824187 -146.39323692 152.37890957 -145.59905219 146.34451032 C-143.71246949 138.96099235 -137.11335967 133.79817427 -131.79711914 128.73779297 C-130.37617809 127.32029803 -128.95919937 125.8988218 -127.54588318 124.47372437 C-123.72164814 120.64010437 -119.84465281 116.86434229 -115.95514226 113.09711981 C-111.89035575 109.14160228 -107.87654839 105.1350016 -103.85679626 101.13381958 C-96.24747411 93.57516091 -88.59305507 86.06394059 -80.92144817 78.56856358 C-72.18758758 70.03045398 -63.50845823 61.4375783 -54.83212864 52.84107757 C-42.06372513 40.19380006 -29.27587485 27.56616414 -16.43491554 14.99252701 C-15.0428898 13.62911359 -13.65166099 12.26488598 -12.2612648 10.89981079 C-10.37231016 9.04590764 -8.48022276 7.19526814 -6.58705139 5.34567261 C-6.02966768 4.79765421 -5.47228397 4.24963581 -4.89800984 3.68501079 C-1.11464641 0 -1.11464641 0 0 0 Z " fill="#D6E2EC" transform="translate(328,215)"/>
<path d="M0 0 C6.19685164 1.08438621 12.33598102 2.23928091 18.44140625 3.76953125 C19.41080139 4.01140419 19.41080139 4.01140419 20.39978027 4.25816345 C22.45501948 4.77238993 24.50881709 5.29209615 26.5625 5.8125 C27.9947021 6.17288412 29.42691245 6.53323542 30.85913086 6.89355469 C40.29657926 9.27604236 49.69102378 11.78543489 59.05175781 14.453125 C63.70532246 15.75938876 68.38450881 16.97283727 73.05859375 18.203125 C75.05566279 18.74416363 77.03711773 19.34570591 79 20 C79 41.12 79 62.24 79 84 C72 84 72 84 69 83 C69.2165625 82.38253906 69.433125 81.76507813 69.65625 81.12890625 C72.12532476 73.61880384 73.75379758 67.04023217 70.125 59.6875 C69.42617224 58.45290429 68.71791299 57.22359623 68 56 C67.6596875 55.28585937 67.319375 54.57171875 66.96875 53.8359375 C65.66116925 51.35786109 64.60645772 51.02886489 62 50 C60.80375 49.46375 59.6075 48.9275 58.375 48.375 C52.20305415 46.13795643 45.90056338 45.85045598 39.8125 48.5 C34.48682898 51.53552446 30.5031707 56.19863642 27.625 61.5625 C26.82410482 64.6859912 26.37648817 67.79985053 26 71 C21.05623217 70.22974683 16.19036477 69.22767521 11.3125 68.125 C10.17458008 67.88330078 10.17458008 67.88330078 9.01367188 67.63671875 C2.18306401 66.08129348 2.18306401 66.08129348 0 63 C-0.36076355 60.24751282 -0.36076355 60.24751282 -0.34057617 56.8762207 C-0.34034958 55.61513992 -0.34012299 54.35405914 -0.33988953 53.05476379 C-0.32456963 51.67843268 -0.30892164 50.30210518 -0.29296875 48.92578125 C-0.2873726 47.51759798 -0.28310259 46.10940886 -0.28010559 44.70121765 C-0.26865818 40.99718056 -0.23919235 37.2934971 -0.20599365 33.58959961 C-0.17529026 29.80913069 -0.16159971 26.02860457 -0.14648438 22.24804688 C-0.11432216 14.83187014 -0.06312755 7.41598464 0 0 Z " fill="#F0C44A" transform="translate(245,327)"/>
<path d="M0 0 C1.01964844 -0.00257813 2.03929687 -0.00515625 3.08984375 -0.0078125 C5.85838725 0.11588064 8.36789535 0.49973262 11.0625 1.125 C9.710851 4.14086857 8.20613498 6.22799124 5.86753845 8.55374146 C5.20993027 9.21265381 4.55232208 9.87156616 3.87478638 10.55044556 C3.15419037 11.26227997 2.43359436 11.97411438 1.69116211 12.70751953 C0.93169785 13.46566956 0.17223358 14.22381958 -0.61024475 15.00494385 C-3.12231946 17.51052585 -5.64128741 20.00906237 -8.16015625 22.5078125 C-9.90418817 24.24557516 -11.64770669 25.98385322 -13.39073181 27.72262573 C-17.98105929 32.29964408 -22.57691864 36.87106405 -27.17437744 41.44091797 C-34.53855636 48.76198873 -41.89602837 56.08978481 -49.25030327 63.42080307 C-51.82556614 65.98581036 -54.4041975 68.54739589 -56.98316956 71.1086731 C-58.55407913 72.67275754 -60.12488077 74.23695039 -61.69555664 75.80126953 C-62.41817688 76.5171524 -63.14079712 77.23303528 -63.88531494 77.97061157 C-64.86749748 78.95052063 -64.86749748 78.95052063 -65.86952209 79.95022583 C-66.44120149 80.51838579 -67.01288088 81.08654575 -67.60188389 81.67192268 C-69.04259242 83.10516484 -69.04259242 83.10516484 -69.9375 85.125 C-70.5975 85.125 -71.2575 85.125 -71.9375 85.125 C-71.9375 58.065 -71.9375 31.005 -71.9375 3.125 C-67.55349112 4.58633629 -64.04689245 5.99999069 -60.0625 8.125 C-54.27122845 10.85030426 -49.35970589 11.43807719 -43.0625 11.375 C-42.29808594 11.38273438 -41.53367188 11.39046875 -40.74609375 11.3984375 C-32.02908117 11.36883814 -25.33181387 9.12445005 -17.6875 5.0625 C-16.30921537 4.33877248 -14.92906131 3.61859164 -13.546875 2.90234375 C-12.94842773 2.58515381 -12.34998047 2.26796387 -11.73339844 1.94116211 C-7.82815864 0.16639095 -4.25927574 -0.01074218 0 0 Z " fill="#D5E1EC" transform="translate(254.9375,211.875)"/>
<path d="M0 0 C0.66 0 1.32 0 2 0 C2 12.87 2 25.74 2 39 C-1.63 39 -5.26 39 -9 39 C-13.90946693 41.32083891 -16.35714805 44.30159653 -19 49 C-20.88847019 55.0934638 -21.0214317 61.59897126 -18.1875 67.375 C-16.67715635 70.09477593 -14.89481054 72.53511752 -13 75 C-18.68579059 80.30872245 -24.36683484 85.56664182 -30.4375 90.4375 C-35.20927904 94.27552084 -39.67953498 98.35670408 -44.14404297 102.54077148 C-48.49411528 106.59368639 -53.00239344 110.36430637 -57.66015625 114.0625 C-60.04987142 115.96993867 -60.04987142 115.96993867 -62.18359375 118.25 C-64 120 -64 120 -66 120 C-66 99.54 -66 79.08 -66 58 C-62.4851979 59.75740105 -60.03287173 61.57370262 -57 64 C-52.20849632 66.85451283 -47.42083547 66.81634775 -42 66 C-34.77843099 63.07914224 -30.39449272 59.14449963 -27.10546875 52.078125 C-23.40906987 42.82868853 -24.44435296 33.37749371 -27 24 C-26.11699219 23.24976563 -25.23398437 22.49953125 -24.32421875 21.7265625 C-23.11163197 20.69311557 -21.89941933 19.65922956 -20.6875 18.625 C-20.05682617 18.08713867 -19.42615234 17.54927734 -18.77636719 16.99511719 C-13.76998313 12.70573418 -8.91054336 8.28270056 -4.109375 3.765625 C-2 2 -2 2 0 2 C0 1.34 0 0.68 0 0 Z " fill="#EFC34A" transform="translate(400,287)"/>
<path d="M0 0 C-0.88300781 0.75023437 -1.76601563 1.50046875 -2.67578125 2.2734375 C-8.4200367 7.16800339 -14.13398434 12.07665588 -19.6875 17.1875 C-23.16136309 20.37736844 -26.69910025 23.42048894 -30.375 26.375 C-34.63229545 29.81007101 -38.68388944 33.40245595 -42.6875 37.125 C-43.51713257 37.89094482 -43.51713257 37.89094482 -44.36352539 38.67236328 C-46.72150822 40.85467268 -49.04803274 43.04803274 -51.3203125 45.3203125 C-54.45304839 48.35476648 -56.20991071 49.84752663 -60.5625 50.6875 C-66.3885958 50.11609445 -72.05047305 48.24631181 -77.6640625 46.65039062 C-82.11331354 45.41159414 -86.59061392 44.27879312 -91.0625 43.125 C-102.40178686 40.18076411 -113.70517666 37.10995136 -125 34 C-125 33.34 -125 32.68 -125 32 C-120.64281464 30.83172231 -116.28292682 29.67438166 -111.92016602 28.52709961 C-110.43629794 28.13524161 -108.95321399 27.74040175 -107.47094727 27.3425293 C-105.34069549 26.77127664 -103.20785765 26.21079296 -101.07421875 25.65234375 C-100.41161545 25.47219223 -99.74901215 25.29204071 -99.06632996 25.10643005 C-95.81962707 24.26786997 -94.25594853 23.91468382 -91 25 C-90.443125 25.763125 -89.88625 26.52625 -89.3125 27.3125 C-85.717724 31.49021264 -81.15934016 33.28021995 -76 35 C-67.25614044 35.64651568 -58.62472642 35.90770637 -51 31 C-48.09499179 28.32715433 -45.76718401 25.53436802 -44 22 C-43.92966231 20.12620395 -43.9156978 18.24998898 -43.9375 16.375 C-43.94652344 15.37210937 -43.95554687 14.36921875 -43.96484375 13.3359375 C-43.97644531 12.56507813 -43.98804688 11.79421875 -44 11 C-40.05471623 9.6518205 -36.10773003 8.44769857 -32.078125 7.37890625 C-30.96953125 7.08306641 -29.8609375 6.78722656 -28.71875 6.48242188 C-27.00171875 6.02706055 -27.00171875 6.02706055 -25.25 5.5625 C-22.98399199 4.96107664 -20.71836087 4.35823133 -18.453125 3.75390625 C-17.36580078 3.46402832 -16.27847656 3.17415039 -15.15820312 2.87548828 C-11.37781487 1.82752351 -7.64387039 0.65716343 -3.91699219 -0.56665039 C-2 -1 -2 -1 0 0 Z " fill="#F6D782" transform="translate(387,287)"/>
<path d="M0 0 C4.63887984 2.61464137 8.04312519 6.14875038 10.4375 10.9375 C10.8337444 16.78210492 10.39676533 20.70946458 7.4375 25.9375 C3.24637663 30.26273932 -0.20356346 32.13451587 -6.1875 32.4375 C-10.93853774 32.40894809 -13.54258862 31.83879439 -17.1875 28.75 C-21.22262218 24.55581699 -22.60577801 21.33836517 -22.9375 15.5625 C-22.79615501 10.83529523 -21.71630891 7.49768205 -18.5625 3.9375 C-12.58258199 -1.18629092 -7.65122521 -2.28194436 0 0 Z " fill="#060401" transform="translate(275.5625,341.0625)"/>
<path d="M0 0 C0.79173866 0.31593864 0.79173866 0.31593864 1.59947205 0.63825989 C7.67031784 2.88302597 13.0645116 3.46679793 19.50390625 3.51171875 C20.4677977 3.52966995 21.43168915 3.54762115 22.42478943 3.56611633 C25.47064988 3.61982853 28.51635721 3.65398881 31.5625 3.6875 C33.64129717 3.72070762 35.72007424 3.75520042 37.79882812 3.79101562 C42.8657742 3.87553221 47.93267794 3.94252865 53 4 C53.2578125 4.7940625 53.515625 5.588125 53.78125 6.40625 C54.83088134 9.38624799 54.83088134 9.38624799 58.5 10.5 C60.32751707 11.02085742 62.16239455 11.51593664 64 12 C65.53316799 12.42879346 67.06566379 12.85999415 68.59765625 13.29296875 C73.05949948 14.54962713 77.52813152 15.77952241 82 17 C82 17.33 82 17.66 82 18 C73.15911374 18.13949056 64.31861067 18.24586727 55.476861 18.31087303 C51.37048829 18.34208503 47.26487263 18.38436844 43.15893555 18.45263672 C39.1907001 18.51819681 35.2231892 18.55378211 31.25445366 18.56926346 C29.74621625 18.58028478 28.23801509 18.60180686 26.73008919 18.63438034 C18.70842049 18.80064839 12.25060717 18.72586491 5.65745544 13.63980103 C2.23631898 10.25510487 0.16810107 6.9751876 -0.25 2.0625 C-0.1675 1.381875 -0.085 0.70125 0 0 Z " fill="#C4D4E2" transform="translate(184,390)"/>
<path d="M0 0 C4.39148352 1.52747253 4.39148352 1.52747253 5.875 4 C6.0625 7.6875 6.0625 7.6875 5.875 11 C6.761875 10.9175 7.64875 10.835 8.5625 10.75 C12.67336847 11.06025422 14.14013033 11.94338095 16.875 15 C17.56051032 18.65605504 17.35991197 20.2629338 15.3125 23.375 C12.05817497 25.54455002 9.70369586 25.29451507 5.875 25 C5.99875 26.60875 5.99875 26.60875 6.125 28.25 C5.875 32 5.875 32 4.25 34.4375 C1.1379338 36.48491197 -0.46894496 36.68551032 -4.125 36 C-7.18161905 33.26513033 -8.06474578 31.79836847 -8.375 27.6875 C-8.2925 26.800625 -8.21 25.91375 -8.125 25 C-9.1975 25.103125 -10.27 25.20625 -11.375 25.3125 C-15.125 25 -15.125 25 -17.625 22.875 C-19.125 20 -19.125 20 -19.125 16.875 C-17.96397552 13.53705462 -17.28752443 12.5385254 -14.125 11 C-10.875 10.8125 -10.875 10.8125 -8.125 11 C-8.228125 10.113125 -8.33125 9.22625 -8.4375 8.3125 C-8.125 5 -8.125 5 -6 2.0625 C-3.125 0 -3.125 0 0 0 Z " fill="#F5C74B" transform="translate(435.125,19)"/>
<path d="M0 0 C1.99375759 1.99375759 2.64570975 3.27941316 3.75 5.8125 C7.04418414 12.52242489 12.26200071 15.43956027 19 18 C19 18.66 19 19.32 19 20 C18.33613281 20.29132813 17.67226562 20.58265625 16.98828125 20.8828125 C8.67353862 24.74279521 4.83930944 28.51310544 1 37 C0.34 37 -0.32 37 -1 37 C-1.27972656 36.33613281 -1.55945313 35.67226563 -1.84765625 34.98828125 C-5.30741388 27.36791477 -8.6275944 23.66946396 -16.4375 20.6875 C-17.283125 20.460625 -18.12875 20.23375 -19 20 C-19 19.34 -19 18.68 -19 18 C-18.40832031 17.76925781 -17.81664063 17.53851563 -17.20703125 17.30078125 C-8.21697802 13.59036776 -4.35319446 8.50262237 0 0 Z " fill="#87D047" transform="translate(115,475)"/>
<path d="M0 0 C4.77655522 2.43510658 7.56489342 5.22344478 10 10 C10.64935383 14.54547679 10.32414711 16.44287215 8 20.4375 C7.34 21.283125 6.68 22.12875 6 23 C-12.1412037 21.8587963 -12.1412037 21.8587963 -17 17 C-17.47624937 12.87250546 -17.27363346 10.53674256 -15.375 6.8125 C-10.88210183 1.49196269 -7.082843 -1.01183471 0 0 Z " fill="#E6AE10" transform="translate(298,383)"/>
<path d="M0 0 C0.66 0.33 1.32 0.66 2 1 C2.74000202 8.97557735 2.05350202 14.24983775 -2.296875 21.0390625 C-5.04670954 24.2051564 -7.25404516 24.90330215 -11.375 25.4375 C-16.18085073 24.85748353 -17.6577228 23.42379616 -21 20 C-21 19.34 -21 18.68 -21 18 C-19.42713316 16.58561594 -17.78860004 15.24395599 -16.125 13.9375 C-10.55880618 9.4903205 -5.25050133 4.81770513 0 0 Z " fill="#E5AD10" transform="translate(364,319)"/>
<path d="M0 0 C0.66 0 1.32 0 2 0 C2.1959375 0.53109375 2.391875 1.0621875 2.59375 1.609375 C4.85858492 6.95907127 7.04092873 9.14141508 12.390625 11.40625 C12.92171875 11.6021875 13.4528125 11.798125 14 12 C14 12.66 14 13.32 14 14 C13.46890625 14.1959375 12.9378125 14.391875 12.390625 14.59375 C7.04092873 16.85858492 4.85858492 19.04092873 2.59375 24.390625 C2.3978125 24.92171875 2.201875 25.4528125 2 26 C1.34 26 0.68 26 0 26 C-1.0078125 24.390625 -1.0078125 24.390625 -2.125 22.25 C-4.94208567 17.47871976 -7.93874559 16.05881535 -13 14 C-13 13.34 -13 12.68 -13 12 C-11.783125 11.505 -10.56625 11.01 -9.3125 10.5 C-4.980856 8.38401107 -3.20324506 5.81600801 -1.0078125 1.609375 C-0.67523438 1.07828125 -0.34265625 0.5471875 0 0 Z " fill="#F5C84B" transform="translate(62,52)"/>
<path d="M0 0 C0.875 2.6875 0.875 2.6875 1 6 C-3.8433164 10.95339177 -7.49182858 12.16319156 -14.25 12.3125 C-20.10659158 12.29286897 -23.33150564 11.47422836 -28 8 C-27.67 7.34 -27.34 6.68 -27 6 C-24.26795873 5.24225074 -21.58117159 4.589177 -18.8125 4 C-12.69402257 2.6682544 -12.69402257 2.6682544 -6.69921875 0.875 C-4 0 -4 0 0 0 Z " fill="#E8BD47" transform="translate(333,301)"/>
<path d="M0 0 C3.49796235 0.78704153 4.54210936 1.51689234 6.5 4.5625 C7.18530346 8.03587566 7.24909094 11.09655685 6.5 14.5625 C4.71509709 17.21106561 3.39372831 17.94868998 0.5 19.5625 C-2.31865188 19.64303291 -3.13657466 18.87400744 -5.25 17.0625 C-7.15184388 13.25881225 -7.16734432 9.72969452 -6.5 5.5625 C-4.65778609 2.2192229 -3.75145726 0.84407788 0 0 Z " fill="#E0A910" transform="translate(395.5,334.4375)"/>
<path d="M0 0 C1.9375 1 1.9375 1 3 3 C3.52960415 6.58042244 3.65886567 9.75978228 1.9375 13 C-1.17909511 14.60856522 -3.56262469 14.42213381 -7 14 C-9.4375 12.375 -9.4375 12.375 -11 10 C-11.60605429 6.36367425 -11.47161336 4.71685231 -9.4375 1.625 C-6.1005787 -0.5996142 -3.93094707 -0.50030235 0 0 Z " fill="#70D6F9" transform="translate(66,447)"/>
<path d="M0 0 C2.375 1.5625 2.375 1.5625 4 4 C4.42213381 7.43737531 4.60856522 9.82090489 3 12.9375 C-0.24021772 14.65886567 -3.41957756 14.52960415 -7 14 C-9 12.9375 -9 12.9375 -10 11 C-10.50030235 7.06905293 -10.5996142 4.8994213 -8.375 1.5625 C-5.28314769 -0.47161336 -3.63632575 -0.60605429 0 0 Z " fill="#FC657D" transform="translate(383,0)"/>
<path d="M0 0 C2.5 0.5 2.5 0.5 4.875 2.0625 C6.5 4.5 6.5 4.5 6.375 8.125 C5.5 11.5 5.5 11.5 3.5 13.5 C-2.55240175 14.05021834 -2.55240175 14.05021834 -5.4375 12.375 C-7.02990283 9.56487736 -6.95319325 7.67235276 -6.5 4.5 C-4.51677007 1.7087875 -3.37013879 0.67402776 0 0 Z " fill="#E3AB10" transform="translate(269.5,349.5)"/>
</svg>
