<?xml version="1.0" encoding="UTF-8"?>
<svg version="1.1" xmlns="http://www.w3.org/2000/svg" width="512" height="512">
<path d="M0 0 C0.63309082 0.45358887 1.26618164 0.90717773 1.91845703 1.37451172 C8.8361311 6.39380378 15.26831174 11.88844292 21.5234375 17.7109375 C23.61682183 19.64583216 25.75082207 21.48576906 27.9375 23.3125 C71.22489485 61.23296175 96.56307514 121.49419175 101 178 C101.33539191 184.35099 101.34170656 190.70437354 101.3125 197.0625 C101.31034485 197.91305969 101.3081897 198.76361938 101.30596924 199.63995361 C101.0712891 257.61679916 80.48887288 313.49591035 42 357 C41.25234375 357.85851562 40.5046875 358.71703125 39.734375 359.6015625 C30.59684154 369.9552425 20.95781537 379.57091125 10 388 C9.46600586 388.41572266 8.93201172 388.83144531 8.38183594 389.25976562 C-23.91778099 414.27668063 -61.76666755 430.28403224 -102 437 C-103.06734375 437.1846582 -103.06734375 437.1846582 -104.15625 437.37304688 C-140.39015289 443.44797702 -178.01407139 439.47912472 -213 429 C-213.8259668 428.75443359 -214.65193359 428.50886719 -215.50292969 428.25585938 C-260.07827639 414.6590333 -302.77547293 385.25222506 -331 348 C-331.40992188 347.47180664 -331.81984375 346.94361328 -332.2421875 346.39941406 C-356.26049749 315.39945036 -371.730395 279.47287452 -379 241 C-379.16226074 240.20609863 -379.32452148 239.41219727 -379.49169922 238.59423828 C-384.8043213 211.96533687 -384.44627182 180.56635085 -379 154 C-378.69400879 152.50509033 -378.69400879 152.50509033 -378.38183594 150.97998047 C-369.35095395 108.29033092 -351.0565492 69.67280332 -322 37 C-321.56365234 36.50193848 -321.12730469 36.00387695 -320.67773438 35.49072266 C-309.68497848 22.96305232 -297.55325913 11.71428179 -284 2 C-283.37770508 1.54834473 -282.75541016 1.09668945 -282.11425781 0.63134766 C-250.93045049 -21.78441527 -214.77926591 -35.78630495 -177 -42 C-176.28328125 -42.11859375 -175.5665625 -42.2371875 -174.828125 -42.359375 C-114.33611267 -51.76924359 -49.53507879 -35.53628966 0 0 Z M-285 63 C-288.19105301 66.5355145 -291.11369324 70.21406516 -294 74 C-295.21236328 75.50626953 -295.21236328 75.50626953 -296.44921875 77.04296875 C-315.40251477 100.71183026 -327.93626082 129.38639006 -334 159 C-334.16371094 159.77085937 -334.32742188 160.54171875 -334.49609375 161.3359375 C-339.38288124 185.32562153 -339.19278363 213.09070688 -334 237 C-333.83371094 237.7744043 -333.66742188 238.54880859 -333.49609375 239.34667969 C-327.74826741 265.11610111 -317.31953651 289.47552536 -302 311 C-301.52949219 311.75023437 -301.05898438 312.50046875 -300.57421875 313.2734375 C-298.39669502 316.83850896 -298.39669502 316.83850896 -294.76960754 318.55053711 C-290.55911356 317.71358344 -288.26222549 314.91651166 -285.3737793 311.94140625 C-284.40708061 310.97580276 -284.40708061 310.97580276 -283.42085266 309.99069214 C-281.29324292 307.85959851 -279.18388948 305.71134163 -277.07421875 303.5625 C-275.60272114 302.08167723 -274.13011584 300.60195442 -272.65644836 299.12329102 C-268.7803448 295.2280948 -264.91948952 291.31811738 -261.06158447 287.40490723 C-257.12239499 283.41457522 -253.16901704 279.43835621 -249.21679688 275.4609375 C-241.46388578 267.65439856 -233.72700492 259.83217609 -226 252 C-227.253708 248.19993284 -228.59681564 244.47272683 -230.0625 240.75 C-232.38824116 234.32360996 -233.84066319 228.42731917 -232.1875 221.6875 C-226.87901097 215.16564205 -217.86338325 213.05786413 -210 211 C-210.99 210.0409375 -210.99 210.0409375 -212 209.0625 C-213.00194364 208.04357427 -214.00165884 207.02245568 -215 206 C-215.61617188 205.3915625 -216.23234375 204.783125 -216.8671875 204.15625 C-225.57955428 195.07098036 -232.34571694 182.22915708 -233.16015625 169.49609375 C-232.97961143 165.1124655 -232.65475515 163.65674226 -229.42578125 160.41796875 C-225.94698621 157.70778707 -222.31595953 156.42610722 -218.125 155.1875 C-217.09246094 154.86362305 -217.09246094 154.86362305 -216.0390625 154.53320312 C-214.36326629 154.00951681 -212.68214187 153.50293046 -211 153 C-212.41701534 149.71772977 -214.11942949 147.77106229 -216.75 145.375 C-225.59670499 136.73664132 -232.66262996 123.40224282 -233.0703125 110.83203125 C-232.8407073 107.2326321 -232.18108326 105.21876725 -229.87890625 102.4375 C-226.66314285 99.71479124 -223.98550443 98.57277518 -220 97.25 C-218.80375 96.84265625 -217.6075 96.4353125 -216.375 96.015625 C-200.47275527 91.23022728 -183.73962978 93.59356448 -169.0847168 101.03393555 C-160.39360214 105.74691916 -154.03621719 112.42073633 -148.27734375 120.34765625 C-147.85582031 120.89292969 -147.43429688 121.43820313 -147 122 C-146.67 122 -146.34 122 -146 122 C-145.10387923 118.4001986 -144.95339611 115.58203866 -146 112 C-148.48231715 109.62157654 -150.98058032 107.76632232 -153.7956543 105.82275391 C-164.78041541 98.1475902 -171.58802845 85.32686493 -174.49609375 72.3984375 C-176.96696435 55.73442646 -174.33174912 40.22324624 -165 26 C-159.99809597 19.49842277 -152.42880077 9.9821779 -143.75 8.65625 C-135.48524673 8.18666175 -131.15220781 10.67231489 -125 16 C-124.37351562 16.5053125 -123.74703125 17.010625 -123.1015625 17.53125 C-112.47197444 26.95839597 -106.58597781 42.20788673 -105.66015625 56.08203125 C-105.0783231 71.38787955 -109.43897851 87.56415279 -119.72265625 99.2890625 C-123.51507618 103.2837012 -127.42803717 106.76848336 -132.1875 109.5625 C-135.21867092 111.66667581 -135.21867092 111.66667581 -135.421875 114.515625 C-135.43604499 117.05205305 -135.30779696 119.48388202 -135 122 C-132.39527192 119.49946104 -130.02411585 116.87210241 -127.6875 114.125 C-118.32919237 103.48877222 -105.35620524 95.49370922 -91 94 C-89.40323547 94.20849235 -87.81117738 94.45486304 -86.22436523 94.72900391 C-77.80394509 95.94217943 -70.3132651 96.17917362 -63.20533848 90.88418102 C-56.25969082 85.2211041 -50.17230624 78.61829277 -44.1114502 72.04046631 C-41.94574519 69.71816973 -39.72554599 67.45215712 -37.50145721 65.18592548 C-34.84418599 62.47376982 -32.21722466 59.73308131 -29.59375 56.98828125 C-29.09443466 56.47010645 -28.59511932 55.95193165 -28.08067322 55.41805458 C-26.67969842 53.95240939 -25.30305444 52.46362221 -23.92773438 50.97387695 C-22.74939026 49.71145927 -22.74939026 49.71145927 -21.54724121 48.42353821 C-19.73509418 46.1002123 -19.73509418 46.1002123 -20.13098145 43.30924988 C-22.01662035 38.29852671 -27.68972218 35.80117587 -32 33 C-32.55526367 32.6385791 -33.11052734 32.2771582 -33.68261719 31.90478516 C-114.62434969 -20.17525388 -218.44219207 -4.17785156 -285 63 Z M10.44393635 78.18692017 C9.88625159 78.7473703 9.32856684 79.30782043 8.75398254 79.88525391 C8.11038284 80.52472961 7.46678314 81.16420532 6.80368042 81.82305908 C6.10381012 82.53371521 5.40393982 83.24437134 4.68286133 83.9765625 C3.94115189 84.71783386 3.19944244 85.45910522 2.43525696 86.22283936 C-0.0229924 88.68318446 -2.47043619 91.15399739 -4.91796875 93.625 C-6.61696618 95.32959056 -8.31662566 97.03352147 -10.016922 98.73681641 C-14.49683377 103.22819912 -18.96766509 107.72851727 -23.43670654 112.23071289 C-27.99600625 116.82066488 -32.56377839 121.40216779 -37.13085938 125.984375 C-46.09558272 134.98130218 -55.05103291 143.98740184 -64 153 C-62.60601235 155.78797531 -61.09352143 155.8126244 -58.1875 156.8125 C-53.8633884 158.49272622 -51.26443079 159.76649895 -49 164 C-46.0904018 173.50468744 -50.85328698 183.75898378 -55.26171875 192.10546875 C-59.46429446 199.10346561 -64.46731015 205.10048261 -71 210 C-66.8044838 212.7970108 -62.22903518 213.95972443 -57.4453125 215.48828125 C-53.66917081 217.14515975 -51.62646191 218.84631092 -49 222 C-46.12432855 231.30364292 -50.45452911 241.41412158 -54.6875 249.75 C-58.40870539 256.16718072 -63.36850381 261.6009837 -68.76953125 266.65625 C-70.22511207 267.94216848 -70.22511207 267.94216848 -70 270 C-68.97519531 270.31453125 -67.95039063 270.6290625 -66.89453125 270.953125 C-65.53367287 271.38484559 -64.17300573 271.81716934 -62.8125 272.25 C-61.80219727 272.55744141 -61.80219727 272.55744141 -60.77148438 272.87109375 C-55.68409624 274.50898457 -51.57191845 276.49922065 -48.625 281.1875 C-46.45808024 290.93863893 -51.04301782 302.24027215 -56.015625 310.5078125 C-64.53351541 323.75511852 -76.75426502 333.16132708 -92.1171875 337.1796875 C-107.18868703 340.36380712 -120.75567631 338.49914475 -135 333 C-135.01458252 334.20124512 -135.02916504 335.40249023 -135.04418945 336.64013672 C-135.10205992 341.08705773 -135.17929262 345.53346634 -135.26245117 349.97998047 C-135.29575369 351.90632831 -135.32376889 353.83277499 -135.34643555 355.75927734 C-135.37988424 358.5248435 -135.43219336 361.28949953 -135.48828125 364.0546875 C-135.49467117 364.9193161 -135.5010611 365.7839447 -135.50764465 366.67477417 C-135.56762695 369.10107422 -135.56762695 369.10107422 -136 373 C-139 375 -139 375 -141.625 374.6875 C-144 374 -144 374 -145 373 C-145.16029688 370.04470496 -145.25957328 367.11017543 -145.31640625 364.15234375 C-145.3475779 362.82270348 -145.3475779 362.82270348 -145.37937927 361.46620178 C-145.444974 358.623383 -145.50380552 355.78046883 -145.5625 352.9375 C-145.6056758 351.01496394 -145.64928978 349.09243766 -145.69335938 347.16992188 C-145.80066543 342.44671332 -145.90190451 337.72340847 -146 333 C-147.07813965 333.35006104 -148.1562793 333.70012207 -149.26708984 334.06079102 C-150.70661645 334.52127528 -152.1462374 334.9814647 -153.5859375 335.44140625 C-154.64735962 335.78733826 -154.64735962 335.78733826 -155.73022461 336.14025879 C-171.51027578 341.15375981 -187.83284895 339.09289188 -202.55078125 331.72265625 C-210.42665494 327.30089824 -217.77543907 321.42526023 -223 314 C-226.05531463 315.36921094 -228.20111699 316.93341573 -230.59106445 319.26879883 C-231.61651115 320.2654229 -231.61651115 320.2654229 -232.66267395 321.28218079 C-233.38887436 321.99988144 -234.11507477 322.71758209 -234.86328125 323.45703125 C-235.61465866 324.19700851 -236.36603607 324.93698578 -237.1401825 325.6993866 C-238.72394923 327.2642829 -240.30484326 328.83209115 -241.88305664 330.40258789 C-244.30712721 332.8071704 -246.75166698 335.18960789 -249.19726562 337.57226562 C-250.73308402 339.09503086 -252.26763375 340.61907694 -253.80078125 342.14453125 C-254.53710281 342.85615921 -255.27342438 343.56778717 -256.03205872 344.30097961 C-256.69992905 344.97485214 -257.36779938 345.64872467 -258.0559082 346.34301758 C-258.65007034 346.92988846 -259.24423248 347.51675934 -259.85639954 348.12141418 C-261.26059873 350.01132569 -261.26059873 350.01132569 -260.77354431 352.63514709 C-259.86532816 355.4117141 -259.11089617 356.13546594 -256.703125 357.7265625 C-256.00276123 358.19545898 -255.30239746 358.66435547 -254.58081055 359.14746094 C-253.81164307 359.63504883 -253.04247559 360.12263672 -252.25 360.625 C-251.44796143 361.14352539 -250.64592285 361.66205078 -249.81958008 362.19628906 C-204.31473505 391.07461669 -150.52705643 401.75828187 -97.578125 390.37890625 C-61.06928825 381.77966289 -29.37428294 364.14810817 -2.39697266 338.33398438 C-1.20568754 337.19641327 -0.00070236 336.07321776 1.20703125 334.953125 C11.82347414 324.83399002 20.24835361 312.3771144 28 300 C28.37866211 299.40058594 28.75732422 298.80117188 29.14746094 298.18359375 C55.59120417 255.70847453 62.57025604 201.70332872 51.74609375 153.25 C45.61003712 127.35321343 34.21856132 96.21856132 15 77 C12.07137187 76.69676056 12.07137187 76.69676056 10.44393635 78.18692017 Z M-155.125 160.5 C-155.78371094 160.73847656 -156.44242188 160.97695312 -157.12109375 161.22265625 C-158.74842576 161.8122693 -160.3743492 162.40576733 -162 163 C-161.24332031 163.74636719 -160.48664063 164.49273437 -159.70703125 165.26171875 C-157.60107724 167.39198392 -155.61573636 169.525522 -153.6875 171.8125 C-153.17574219 172.41707031 -152.66398438 173.02164063 -152.13671875 173.64453125 C-151.76160156 174.09183594 -151.38648438 174.53914063 -151 175 C-148.3094472 173.77992056 -148.3094472 173.77992056 -146 172 C-145.92728259 169.64686445 -145.91629132 167.29166332 -145.9375 164.9375 C-145.94652344 163.64714844 -145.95554688 162.35679687 -145.96484375 161.02734375 C-145.97644531 160.02832031 -145.98804688 159.02929688 -146 158 C-149.23216123 158 -152.12126134 159.39962049 -155.125 160.5 Z M-135 158 C-134.67 158.66 -134.34 159.32 -134 160 C-133.67 159.34 -133.34 158.68 -133 158 C-133.66 158 -134.32 158 -135 158 Z M-132.84375 220.96875 C-135.48545562 224.68245211 -135.58465288 227.43711903 -135.3125 231.8125 C-135.28994141 232.50537109 -135.26738281 233.19824219 -135.24414062 233.91210938 C-135.18562661 235.60901573 -135.0959548 237.30479861 -135 239 C-129.26679594 233.35461307 -124.11676972 227.20214511 -119 221 C-120.7198286 220.52712243 -122.45171216 220.09794389 -124.1875 219.6875 C-125.15042969 219.44386719 -126.11335937 219.20023437 -127.10546875 218.94921875 C-130.17966364 218.73547012 -130.17966364 218.73547012 -132.84375 220.96875 Z M-147 236 C-147 239 -147 239 -147 239 Z M-155.125 277.5 C-155.78371094 277.73847656 -156.44242188 277.97695313 -157.12109375 278.22265625 C-158.74842576 278.8122693 -160.3743492 279.40576733 -162 280 C-161.27167969 280.70769531 -160.54335937 281.41539062 -159.79296875 282.14453125 C-157.11542097 284.88199618 -154.70985371 287.70403605 -152.3125 290.6875 C-149.28629616 294.46089323 -149.28629616 294.46089323 -146 298 C-146 290.41 -146 282.82 -146 275 C-149.23216123 275 -152.12126134 276.39962049 -155.125 277.5 Z M-135 275 C-135 282.59 -135 290.18 -135 298 C-133.68 296.35 -132.36 294.7 -131 293 C-129.49201124 291.28031785 -127.97100131 289.57197099 -126.4375 287.875 C-125.29087891 286.60269531 -125.29087891 286.60269531 -124.12109375 285.3046875 C-122.45116333 283.4902143 -120.7627278 281.72330577 -119 280 C-121.29032311 279.16280617 -123.58210957 278.3301071 -125.875 277.5 C-126.52597656 277.26152344 -127.17695313 277.02304687 -127.84765625 276.77734375 C-131.33457589 275.45122467 -131.33457589 275.45122467 -135 275 Z " fill="#FA647D" transform="translate(397,59)"/>
<path d="M0 0 C9.37415809 4.78273372 14.5376225 14.51440619 19.87841797 23.18115234 C20.90926235 24.85285253 21.955846 26.51482027 23.00390625 28.17578125 C50.49280935 73.65742092 56.68199801 131.04249284 44.3125 182.1875 C39.91661487 199.30283152 33.39491777 215.47146983 25 231 C24.68063477 231.5986084 24.36126953 232.1972168 24.03222656 232.81396484 C-2.51335327 282.25342292 -48.74399761 316.03941734 -101.86767578 332.09716797 C-109.17298766 334.20278319 -116.49662948 335.79581897 -124 337 C-124.99 337.17136475 -124.99 337.17136475 -126 337.34619141 C-178.09036465 346.06667656 -232.83141899 332.53608957 -276.08203125 302.859375 C-288.17421048 294.224231 -288.17421048 294.224231 -289.40625 287.921875 C-289.69911692 281.13712478 -287.32176346 278.00258614 -283 273 C-279.44487777 269.17892149 -275.76543486 265.49052641 -272.06860352 261.8079071 C-270.9535846 260.68986398 -269.83899952 259.57138807 -268.72480869 258.45251971 C-265.67600464 255.39346235 -262.62102922 252.34063523 -259.56495333 249.28884494 C-256.26481095 245.99117451 -252.9704238 242.68776287 -249.67526245 239.38511658 C-243.22538267 232.9225026 -236.7700503 226.465362 -230.31262946 220.01028385 C-225.06523096 214.76466943 -219.8196039 209.51728987 -214.57522583 204.26865578 C-213.82842357 203.52125833 -213.08162131 202.77386088 -212.31218868 202.00381503 C-210.79504109 200.48545568 -209.27789469 198.96709514 -207.76074946 197.44873343 C-193.54172757 183.21884176 -179.31619944 168.99546821 -165.08869231 154.77406112 C-152.06923216 141.75977444 -139.05801349 128.73728366 -126.05064356 115.71091416 C-112.69259785 102.33350627 -99.32901759 88.96165063 -85.95940685 75.5958007 C-78.45415159 68.09245932 -70.95112322 60.58692289 -63.45388794 53.07556725 C-57.07435724 46.68414275 -50.68962891 40.29796735 -44.29808545 33.91855492 C-41.03687056 30.66324162 -37.7781281 27.40555012 -34.52584457 24.14131165 C-31.54930873 21.15396158 -28.5659497 18.17360811 -25.5769757 15.19870446 C-24.49637468 14.12076258 -23.41830489 13.04027607 -22.34302914 11.95702203 C-20.8815778 10.48548135 -19.41118857 9.02348339 -17.93821716 7.56348705 C-17.12355201 6.74876688 -16.30888685 5.93404671 -15.46953487 5.09463805 C-10.61533557 0.97734832 -6.3733374 -0.79666717 0 0 Z M-6.55606365 12.18692017 C-7.11374841 12.7473703 -7.67143316 13.30782043 -8.24601746 13.88525391 C-8.88961716 14.52472961 -9.53321686 15.16420532 -10.19631958 15.82305908 C-10.89618988 16.53371521 -11.59606018 17.24437134 -12.31713867 17.9765625 C-13.05884811 18.71783386 -13.80055756 19.45910522 -14.56474304 20.22283936 C-17.0229924 22.68318446 -19.47043619 25.15399739 -21.91796875 27.625 C-23.61696618 29.32959056 -25.31662566 31.03352147 -27.016922 32.73681641 C-31.49683377 37.22819912 -35.96766509 41.72851727 -40.43670654 46.23071289 C-44.99600625 50.82066488 -49.56377839 55.40216779 -54.13085938 59.984375 C-63.09558272 68.98130218 -72.05103291 77.98740184 -81 87 C-79.60601235 89.78797531 -78.09352143 89.8126244 -75.1875 90.8125 C-70.8633884 92.49272622 -68.26443079 93.76649895 -66 98 C-63.0904018 107.50468744 -67.85328698 117.75898378 -72.26171875 126.10546875 C-76.46429446 133.10346561 -81.46731015 139.10048261 -88 144 C-83.8044838 146.7970108 -79.22903518 147.95972443 -74.4453125 149.48828125 C-70.66917081 151.14515975 -68.62646191 152.84631092 -66 156 C-63.12432855 165.30364292 -67.45452911 175.41412158 -71.6875 183.75 C-75.40870539 190.16718072 -80.36850381 195.6009837 -85.76953125 200.65625 C-87.22511207 201.94216848 -87.22511207 201.94216848 -87 204 C-85.97519531 204.31453125 -84.95039063 204.6290625 -83.89453125 204.953125 C-82.53367287 205.38484559 -81.17300573 205.81716934 -79.8125 206.25 C-78.80219727 206.55744141 -78.80219727 206.55744141 -77.77148438 206.87109375 C-72.68409624 208.50898457 -68.57191845 210.49922065 -65.625 215.1875 C-63.45808024 224.93863893 -68.04301782 236.24027215 -73.015625 244.5078125 C-81.53351541 257.75511852 -93.75426502 267.16132708 -109.1171875 271.1796875 C-124.18868703 274.36380712 -137.75567631 272.49914475 -152 267 C-152.01458252 268.20124512 -152.02916504 269.40249023 -152.04418945 270.64013672 C-152.10205992 275.08705773 -152.17929262 279.53346634 -152.26245117 283.97998047 C-152.29575369 285.90632831 -152.32376889 287.83277499 -152.34643555 289.75927734 C-152.37988424 292.5248435 -152.43219336 295.28949953 -152.48828125 298.0546875 C-152.49467117 298.9193161 -152.5010611 299.7839447 -152.50764465 300.67477417 C-152.56762695 303.10107422 -152.56762695 303.10107422 -153 307 C-156 309 -156 309 -158.625 308.6875 C-161 308 -161 308 -162 307 C-162.16029688 304.04470496 -162.25957328 301.11017543 -162.31640625 298.15234375 C-162.3475779 296.82270348 -162.3475779 296.82270348 -162.37937927 295.46620178 C-162.444974 292.623383 -162.50380552 289.78046883 -162.5625 286.9375 C-162.6056758 285.01496394 -162.64928978 283.09243766 -162.69335938 281.16992188 C-162.80066543 276.44671332 -162.90190451 271.72340847 -163 267 C-164.07813965 267.35006104 -165.1562793 267.70012207 -166.26708984 268.06079102 C-167.70661645 268.52127528 -169.1462374 268.9814647 -170.5859375 269.44140625 C-171.64735962 269.78733826 -171.64735962 269.78733826 -172.73022461 270.14025879 C-188.51027578 275.15375981 -204.83284895 273.09289188 -219.55078125 265.72265625 C-227.42665494 261.30089824 -234.77543907 255.42526023 -240 248 C-243.05531463 249.36921094 -245.20111699 250.93341573 -247.59106445 253.26879883 C-248.61651115 254.2654229 -248.61651115 254.2654229 -249.66267395 255.28218079 C-250.38887436 255.99988144 -251.11507477 256.71758209 -251.86328125 257.45703125 C-252.61465866 258.19700851 -253.36603607 258.93698578 -254.1401825 259.6993866 C-255.72394923 261.2642829 -257.30484326 262.83209115 -258.88305664 264.40258789 C-261.30712721 266.8071704 -263.75166698 269.18960789 -266.19726562 271.57226562 C-267.73308402 273.09503086 -269.26763375 274.61907694 -270.80078125 276.14453125 C-271.53710281 276.85615921 -272.27342438 277.56778717 -273.03205872 278.30097961 C-273.69992905 278.97485214 -274.36779938 279.64872467 -275.0559082 280.34301758 C-275.65007034 280.92988846 -276.24423248 281.51675934 -276.85639954 282.12141418 C-278.26059873 284.01132569 -278.26059873 284.01132569 -277.77354431 286.63514709 C-276.86532816 289.4117141 -276.11089617 290.13546594 -273.703125 291.7265625 C-273.00276123 292.19545898 -272.30239746 292.66435547 -271.58081055 293.14746094 C-270.81164307 293.63504883 -270.04247559 294.12263672 -269.25 294.625 C-268.44796143 295.14352539 -267.64592285 295.66205078 -266.81958008 296.19628906 C-221.31473505 325.07461669 -167.52705643 335.75828187 -114.578125 324.37890625 C-78.06928825 315.77966289 -46.37428294 298.14810817 -19.39697266 272.33398438 C-18.20568754 271.19641327 -17.00070236 270.07321776 -15.79296875 268.953125 C-5.17652586 258.83399002 3.24835361 246.3771144 11 234 C11.37866211 233.40058594 11.75732422 232.80117188 12.14746094 232.18359375 C38.59120417 189.70847453 45.57025604 135.70332872 34.74609375 87.25 C28.61003712 61.35321343 17.21856132 30.21856132 -2 11 C-4.92862813 10.69676056 -4.92862813 10.69676056 -6.55606365 12.18692017 Z M-149.84375 154.96875 C-152.48545562 158.68245211 -152.58465288 161.43711903 -152.3125 165.8125 C-152.28994141 166.50537109 -152.26738281 167.19824219 -152.24414062 167.91210938 C-152.18562661 169.60901573 -152.0959548 171.30479861 -152 173 C-146.26679594 167.35461307 -141.11676972 161.20214511 -136 155 C-137.7198286 154.52712243 -139.45171216 154.09794389 -141.1875 153.6875 C-142.15042969 153.44386719 -143.11335937 153.20023438 -144.10546875 152.94921875 C-147.17966364 152.73547012 -147.17966364 152.73547012 -149.84375 154.96875 Z M-164 170 C-164 173 -164 173 -164 173 Z M-172.125 211.5 C-172.78371094 211.73847656 -173.44242187 211.97695313 -174.12109375 212.22265625 C-175.74842576 212.8122693 -177.3743492 213.40576733 -179 214 C-178.27167969 214.70769531 -177.54335937 215.41539062 -176.79296875 216.14453125 C-174.11542097 218.88199618 -171.70985371 221.70403605 -169.3125 224.6875 C-166.28629616 228.46089323 -166.28629616 228.46089323 -163 232 C-163 224.41 -163 216.82 -163 209 C-166.23216123 209 -169.12126134 210.39962049 -172.125 211.5 Z M-152 209 C-152 216.59 -152 224.18 -152 232 C-150.68 230.35 -149.36 228.7 -148 227 C-146.49201124 225.28031785 -144.97100131 223.57197099 -143.4375 221.875 C-142.29087891 220.60269531 -142.29087891 220.60269531 -141.12109375 219.3046875 C-139.45116333 217.4902143 -137.7627278 215.72330577 -136 214 C-138.29032311 213.16280617 -140.58210957 212.3301071 -142.875 211.5 C-143.52597656 211.26152344 -144.17695313 211.02304687 -144.84765625 210.77734375 C-148.33457589 209.45122467 -148.33457589 209.45122467 -152 209 Z " fill="#030101" transform="translate(414,125)"/>
<path d="M0 0 C3.61034771 3.47647246 4.9962381 5.63289413 5.37646484 10.67089844 C4.94295131 17.06522299 1.9165618 20.94332538 -2.51066494 25.37025833 C-2.97554248 25.83919659 -3.44042001 26.30813486 -3.91938475 26.79128337 C-5.47572708 28.35755508 -7.04250951 29.91293539 -8.60948181 31.46856689 C-9.74005316 32.60187938 -10.86996818 33.73584694 -11.9992829 34.87041163 C-15.10208646 37.98380267 -18.21417693 41.08776301 -21.32787502 44.19025326 C-24.68506834 47.53860699 -28.03361226 50.89559126 -31.383255 54.25149536 C-37.94522808 60.82295939 -44.51522176 67.38634789 -51.08801263 73.94699004 C-58.73870424 81.58406634 -66.38176528 89.22876011 -74.02459354 96.87370428 C-87.65864746 110.51094844 -101.3001188 124.14074907 -114.94555664 137.76660156 C-128.19350965 150.99554467 -141.43548051 164.23043931 -154.67114258 177.47167969 C-169.07821032 191.88480146 -183.48838133 206.29480649 -197.90416247 220.69921374 C-199.44043294 222.2342769 -200.97670274 223.76934072 -202.51297188 225.30440521 C-203.64684948 226.43737751 -203.64684948 226.43737751 -204.8036337 227.59323813 C-210.13697668 232.92269771 -215.46817572 238.25429624 -220.79862785 243.58664703 C-227.29129308 250.08143154 -233.78760517 256.57254236 -240.28859203 263.05899766 C-243.60697809 266.37012673 -246.92374252 269.68283828 -250.23622513 272.99987411 C-253.26610427 276.03381676 -256.30053254 279.06312931 -259.3387242 282.08874711 C-260.43936374 283.1864484 -261.53830883 284.28585172 -262.63541674 285.38708273 C-264.12258561 286.87933405 -265.61572451 288.36534186 -267.11056423 289.84990311 C-267.9397661 290.67823819 -268.76896796 291.50657328 -269.62329715 292.36000943 C-273.02246262 295.37873674 -275.71015439 296.65377772 -280.24853516 296.73339844 C-280.97814453 296.76175781 -281.70775391 296.79011719 -282.45947266 296.81933594 C-288.86247918 295.5967554 -292.55997621 290.74545674 -296.12353516 285.73339844 C-296.59315674 285.08097168 -297.06277832 284.42854492 -297.54663086 283.75634766 C-303.00242659 275.99947424 -307.5232796 267.77209984 -311.87353516 259.35839844 C-312.40889893 258.34253662 -312.40889893 258.34253662 -312.95507812 257.30615234 C-322.53206434 238.96638118 -328.42935762 218.70907687 -331.87353516 198.35839844 C-332.09783203 197.11960937 -332.32212891 195.88082031 -332.55322266 194.60449219 C-335.85789818 172.53559741 -335.36211027 148.17393377 -330.87353516 126.35839844 C-330.70724609 125.51631836 -330.54095703 124.67423828 -330.36962891 123.80664062 C-326.52138499 104.7435805 -320.16989349 86.37673817 -310.90332031 69.26171875 C-309.84785234 67.31092967 -308.82004216 65.34693325 -307.79150391 63.38183594 C-302.41834898 53.3024287 -296.00313257 44.26691622 -288.87353516 35.35839844 C-288.40657227 34.77429199 -287.93960938 34.19018555 -287.45849609 33.58837891 C-253.65700703 -8.29711945 -203.50363706 -35.53659898 -150.06103516 -42.01660156 C-99.12883669 -47.12475754 -39.40949936 -34.53081492 0 0 Z M-270.87353516 30.35839844 C-274.06458816 33.89391294 -276.98722839 37.57246359 -279.87353516 41.35839844 C-281.08589844 42.86466797 -281.08589844 42.86466797 -282.32275391 44.40136719 C-301.27604993 68.0702287 -313.80979598 96.7447885 -319.87353516 126.35839844 C-320.03724609 127.12925781 -320.20095703 127.90011719 -320.36962891 128.69433594 C-325.25641639 152.68401997 -325.06631878 180.44910531 -319.87353516 204.35839844 C-319.70724609 205.13280273 -319.54095703 205.90720703 -319.36962891 206.70507812 C-313.62180257 232.47449955 -303.19307167 256.8339238 -287.87353516 278.35839844 C-287.40302734 279.10863281 -286.93251953 279.85886719 -286.44775391 280.63183594 C-284.27023017 284.1969074 -284.27023017 284.1969074 -280.6431427 285.90893555 C-276.43264871 285.07198188 -274.13576065 282.2749101 -271.24731445 279.29980469 C-270.28061577 278.3342012 -270.28061577 278.3342012 -269.29438782 277.34909058 C-267.16677808 275.21799695 -265.05742464 273.06974007 -262.94775391 270.92089844 C-261.4762563 269.44007567 -260.003651 267.96035286 -258.52998352 266.48168945 C-254.65387996 262.58649324 -250.79302468 258.67651582 -246.93511963 254.76330566 C-242.99593014 250.77297365 -239.04255219 246.79675465 -235.09033203 242.81933594 C-227.33742094 235.012797 -219.60054007 227.19057453 -211.87353516 219.35839844 C-213.12724316 215.55833128 -214.47035079 211.83112526 -215.93603516 208.10839844 C-218.26177631 201.6820084 -219.71419835 195.78571761 -218.06103516 189.04589844 C-212.75254613 182.52404049 -203.7369184 180.41626256 -195.87353516 178.35839844 C-196.86353516 177.39933594 -196.86353516 177.39933594 -197.87353516 176.42089844 C-198.87547879 175.40197271 -199.875194 174.38085412 -200.87353516 173.35839844 C-201.48970703 172.74996094 -202.10587891 172.14152344 -202.74072266 171.51464844 C-211.45308943 162.4293788 -218.2192521 149.58755551 -219.03369141 136.85449219 C-218.85314659 132.47086394 -218.5282903 131.0151407 -215.29931641 127.77636719 C-211.82052137 125.06618551 -208.18949468 123.78450566 -203.99853516 122.54589844 C-202.96599609 122.22202148 -202.96599609 122.22202148 -201.91259766 121.89160156 C-200.23680144 121.36791525 -198.55567702 120.86132889 -196.87353516 120.35839844 C-198.2905505 117.07612821 -199.99296464 115.12946073 -202.62353516 112.73339844 C-211.47024015 104.09503976 -218.53616512 90.76064126 -218.94384766 78.19042969 C-218.71424246 74.59103054 -218.05461841 72.57716569 -215.75244141 69.79589844 C-212.53667801 67.07318967 -209.85903959 65.93117362 -205.87353516 64.60839844 C-204.67728516 64.20105469 -203.48103516 63.79371094 -202.24853516 63.37402344 C-186.34629043 58.58862572 -169.61316494 60.95196291 -154.95825195 68.39233398 C-146.2671373 73.1053176 -139.90975235 79.77913477 -134.15087891 87.70605469 C-133.72935547 88.25132812 -133.30783203 88.79660156 -132.87353516 89.35839844 C-132.54353516 89.35839844 -132.21353516 89.35839844 -131.87353516 89.35839844 C-130.97741438 85.75859704 -130.82693127 82.9404371 -131.87353516 79.35839844 C-134.3558523 76.97997498 -136.85411548 75.12472075 -139.66918945 73.18115234 C-150.65395057 65.50598864 -157.46156361 52.68526336 -160.36962891 39.75683594 C-162.84049951 23.0928249 -160.20528428 7.58164468 -150.87353516 -6.64160156 C-145.87163113 -13.14317879 -138.30233593 -22.65942367 -129.62353516 -23.98535156 C-121.35878188 -24.45493982 -117.02574296 -21.96928667 -110.87353516 -16.64160156 C-110.24705078 -16.13628906 -109.62056641 -15.63097656 -108.97509766 -15.11035156 C-98.3455096 -5.68320559 -92.45951297 9.56628517 -91.53369141 23.44042969 C-90.95185826 38.74627799 -95.31251367 54.92255123 -105.59619141 66.64746094 C-109.38861134 70.64209964 -113.30157233 74.1268818 -118.06103516 76.92089844 C-121.09220607 79.02507425 -121.09220607 79.02507425 -121.29541016 81.87402344 C-121.30958015 84.41045149 -121.18133211 86.84228046 -120.87353516 89.35839844 C-118.26880707 86.85785948 -115.897651 84.23050085 -113.56103516 81.48339844 C-104.20272753 70.84717065 -91.2297404 62.85210765 -76.87353516 61.35839844 C-75.27677063 61.56689078 -73.68471254 61.81326147 -72.09790039 62.08740234 C-63.67748025 63.30057786 -56.18680025 63.53757206 -49.07887363 58.24257946 C-42.13322598 52.57950254 -36.04584139 45.9766912 -29.98498535 39.39886475 C-27.81928035 37.07656817 -25.59908115 34.81055556 -23.37499237 32.54432392 C-20.71772115 29.83216826 -18.09075982 27.09147975 -15.46728516 24.34667969 C-14.96796982 23.82850489 -14.46865448 23.31033009 -13.95420837 22.77645302 C-12.55323358 21.31080783 -11.17658959 19.82202065 -9.80126953 18.33227539 C-8.62292542 17.06985771 -8.62292542 17.06985771 -7.42077637 15.78193665 C-5.60862934 13.45861074 -5.60862934 13.45861074 -6.0045166 10.66764832 C-7.8901555 5.65692515 -13.56325733 3.15957431 -17.87353516 0.35839844 C-18.42879883 -0.00302246 -18.9840625 -0.36444336 -19.55615234 -0.73681641 C-100.49788484 -52.81685544 -204.31572723 -36.81945312 -270.87353516 30.35839844 Z M-140.99853516 127.85839844 C-141.65724609 128.096875 -142.31595703 128.33535156 -142.99462891 128.58105469 C-144.62196091 129.17066773 -146.24788435 129.76416577 -147.87353516 130.35839844 C-147.11685547 131.10476562 -146.36017578 131.85113281 -145.58056641 132.62011719 C-143.4746124 134.75038235 -141.48927151 136.88392043 -139.56103516 139.17089844 C-139.04927734 139.77546875 -138.53751953 140.38003906 -138.01025391 141.00292969 C-137.63513672 141.45023438 -137.26001953 141.89753906 -136.87353516 142.35839844 C-134.18298235 141.138319 -134.18298235 141.138319 -131.87353516 139.35839844 C-131.80081774 137.00526289 -131.78982648 134.65006175 -131.81103516 132.29589844 C-131.82005859 131.00554687 -131.82908203 129.71519531 -131.83837891 128.38574219 C-131.84998047 127.38671875 -131.86158203 126.38769531 -131.87353516 125.35839844 C-135.10569639 125.35839844 -137.99479649 126.75801893 -140.99853516 127.85839844 Z M-120.87353516 125.35839844 C-120.54353516 126.01839844 -120.21353516 126.67839844 -119.87353516 127.35839844 C-119.54353516 126.69839844 -119.21353516 126.03839844 -118.87353516 125.35839844 C-119.53353516 125.35839844 -120.19353516 125.35839844 -120.87353516 125.35839844 Z " fill="#020101" transform="translate(382.87353515625,91.6416015625)"/>
<path d="M0 0 C0.63309082 0.45358887 1.26618164 0.90717773 1.91845703 1.37451172 C8.8361311 6.39380378 15.26831174 11.88844292 21.5234375 17.7109375 C23.61682183 19.64583216 25.75082207 21.48576906 27.9375 23.3125 C71.22489485 61.23296175 96.56307514 121.49419175 101 178 C101.33539191 184.35099 101.34170656 190.70437354 101.3125 197.0625 C101.31034485 197.91305969 101.3081897 198.76361938 101.30596924 199.63995361 C101.0712891 257.61679916 80.48887288 313.49591035 42 357 C41.25234375 357.85851562 40.5046875 358.71703125 39.734375 359.6015625 C30.59684154 369.9552425 20.95781537 379.57091125 10 388 C9.46600586 388.41572266 8.93201172 388.83144531 8.38183594 389.25976562 C-23.91778099 414.27668063 -61.76666755 430.28403224 -102 437 C-103.06734375 437.1846582 -103.06734375 437.1846582 -104.15625 437.37304688 C-140.39015289 443.44797702 -178.01407139 439.47912472 -213 429 C-213.8259668 428.75443359 -214.65193359 428.50886719 -215.50292969 428.25585938 C-260.07827639 414.6590333 -302.77547293 385.25222506 -331 348 C-331.40992188 347.47180664 -331.81984375 346.94361328 -332.2421875 346.39941406 C-356.26049749 315.39945036 -371.730395 279.47287452 -379 241 C-379.16226074 240.20609863 -379.32452148 239.41219727 -379.49169922 238.59423828 C-384.8043213 211.96533687 -384.44627182 180.56635085 -379 154 C-378.69400879 152.50509033 -378.69400879 152.50509033 -378.38183594 150.97998047 C-369.35095395 108.29033092 -351.0565492 69.67280332 -322 37 C-321.56365234 36.50193848 -321.12730469 36.00387695 -320.67773438 35.49072266 C-309.68497848 22.96305232 -297.55325913 11.71428179 -284 2 C-283.37770508 1.54834473 -282.75541016 1.09668945 -282.11425781 0.63134766 C-250.93045049 -21.78441527 -214.77926591 -35.78630495 -177 -42 C-176.28328125 -42.11859375 -175.5665625 -42.2371875 -174.828125 -42.359375 C-114.33611267 -51.76924359 -49.53507879 -35.53628966 0 0 Z M-189 -29 C-189.95406738 -28.78037598 -190.90813477 -28.56075195 -191.89111328 -28.33447266 C-232.6985222 -18.60596434 -269.76268229 0.90891032 -300 30 C-300.94045166 30.89960449 -300.94045166 30.89960449 -301.89990234 31.81738281 C-343.44085995 71.7602247 -369.95801228 128.04358391 -372 186 C-372.03254883 186.82580566 -372.06509766 187.65161133 -372.09863281 188.50244141 C-373.95444667 242.21794258 -357.49544315 296.72601134 -324 339 C-323.36835938 339.82371094 -322.73671875 340.64742188 -322.0859375 341.49609375 C-316.47334906 348.71392868 -310.28083868 355.36690021 -304 362 C-303.360625 362.68191406 -302.72125 363.36382812 -302.0625 364.06640625 C-297.11517028 369.19212526 -291.57007735 373.57455897 -286 378 C-285.05640625 378.77214844 -284.1128125 379.54429687 -283.140625 380.33984375 C-237.76349776 416.60627835 -177.30544309 434.10711218 -119.546875 428.4296875 C-113.67399748 427.76914822 -107.83473861 426.93676996 -102 426 C-101.2884375 425.88785156 -100.576875 425.77570313 -99.84375 425.66015625 C-63.55327942 419.73368827 -27.71635146 403.89881474 1 381 C2.34578125 379.94232422 2.34578125 379.94232422 3.71875 378.86328125 C46.10492571 344.94216074 73.0624207 299.50418438 86 247 C86.24153809 246.03980957 86.48307617 245.07961914 86.73193359 244.09033203 C100.2141474 187.61785258 86.02419556 124.87317191 56.70996094 75.84228516 C41.52763331 51.4069283 21.27107834 28.90821426 -2 12 C-3.04414063 11.23429687 -4.08828125 10.46859375 -5.1640625 9.6796875 C-33.32067593 -10.37229278 -64.95823217 -23.84951039 -99 -30 C-99.68447205 -30.12494843 -100.36894409 -30.24989685 -101.07415771 -30.37863159 C-114.30439098 -32.73856479 -127.19961176 -33.52862188 -140.625 -33.4375 C-142.06084442 -33.43293793 -142.06084442 -33.43293793 -143.5256958 -33.42828369 C-158.98732764 -33.35590832 -173.87947319 -32.48691946 -189 -29 Z " fill="#020101" transform="translate(397,59)"/>
<path d="M0 0 C6.75248536 4.7941576 12.03644583 10.76680767 16 18 C16.72896484 19.23556641 16.72896484 19.23556641 17.47265625 20.49609375 C22.72864818 30.81774922 22.8601046 43.99032859 20.11328125 55.1484375 C16.43965461 66.40120749 8.89609401 76.40260399 -1 83 C-4.40990251 83.54962244 -5.6453383 83.24937151 -8.5 81.2421875 C-18.49659878 71.77665803 -27.62575767 61.53515774 -28.37109375 47.05859375 C-28.7094636 31.63194241 -27.07580493 19.64604439 -16 8 C-5.85959569 -1.77408428 -5.85959569 -1.77408428 0 0 Z " fill="#F3C64B" transform="translate(260,78)"/>
<path d="M0 0 C-0.67282025 11.66221771 -5.82371646 21.75430828 -14 30 C-26.5194629 40.68869949 -38.89278659 44.52691335 -55.2265625 44.328125 C-62.03128609 43.7364099 -68.30946372 41.79369085 -74 38 C-73.79525013 26.12450735 -67.5644106 15.55399924 -59.44140625 7.18359375 C-42.14132145 -8.28960209 -20.40799244 -9.93864407 0 0 Z " fill="#F2C54B" transform="translate(339,344)"/>
<path d="M0 0 C0.37641341 5.15766461 -0.87348226 9.10387549 -2.9375 13.75 C-3.40458374 14.80453369 -3.40458374 14.80453369 -3.88110352 15.88037109 C-6.87671695 22.29249967 -10.75920233 27.22484812 -16 32 C-16.95519531 32.87205078 -16.95519531 32.87205078 -17.9296875 33.76171875 C-30.48333729 44.10155063 -45.45402374 45.16623761 -61 44 C-66.01594725 42.92003585 -70.32972362 41.67027638 -74 38 C-73.55892548 25.42937631 -66.09175152 14.30570946 -57.1796875 5.84765625 C-40.38002589 -8.39291712 -19.33169217 -9.02145634 0 0 Z " fill="#F2C54B" transform="translate(339,285)"/>
<path d="M0 0 C6.53571642 5.38782952 11.11749265 11.50963212 15 19 C15.32871094 19.6290625 15.65742188 20.258125 15.99609375 20.90625 C18.05381119 25.23828672 18.58627349 29.28351775 19 34 C17.79443396 34.63032133 16.58536811 35.2539497 15.375 35.875 C14.70210938 36.22304687 14.02921875 36.57109375 13.3359375 36.9296875 C3.09847015 41.62043341 -9.89523623 41.70485063 -20.79296875 39.08984375 C-23.70367145 37.91878484 -26.31243016 36.6142456 -29 35 C-29.80308594 34.54238281 -30.60617188 34.08476562 -31.43359375 33.61328125 C-43.57051319 26.14283337 -51.19486591 15.66105516 -55 2 C-55.25 -1.6875 -55.25 -1.6875 -55 -4 C-36.4304263 -12.8549356 -17.29375939 -11.98286724 0 0 Z " fill="#F2C54B" transform="translate(229,172)"/>
<path d="M0 0 C2.13647461 0.62329102 2.13647461 0.62329102 3.90234375 1.50390625 C4.56113525 1.82858887 5.21992676 2.15327148 5.89868164 2.48779297 C6.5714917 2.84244629 7.24430176 3.19709961 7.9375 3.5625 C8.64189209 3.92746582 9.34628418 4.29243164 10.07202148 4.66845703 C23.01137401 11.57204301 29.99222843 21.39749047 35.15234375 35.01953125 C35.95953072 37.85770477 36.17861183 40.07184844 36 43 C21.71099262 49.95871282 8.2866541 50.76141685 -7 46 C-16.96048205 42.31360969 -25.75181523 35.30360027 -31 26 C-28.67077892 20.44613951 -23.99927413 16.51298508 -19.83422852 12.29882812 C-18.3186474 10.75625688 -16.82877595 9.19140121 -15.33789062 7.625 C-14.36869007 6.63914555 -13.3980328 5.65472068 -12.42578125 4.671875 C-11.11734253 3.32754395 -11.11734253 3.32754395 -9.7824707 1.95605469 C-6.24615609 -0.52994625 -4.24159721 -0.48085223 0 0 Z " fill="#F2C64B" transform="translate(212,339)"/>
<path d="M0 0 C3.69052496 2.87497175 6.63170098 6.20159781 9.45703125 9.9140625 C7.85216565 13.84353748 5.1511878 16.57595324 2.22265625 19.5546875 C1.70701111 20.08173279 1.19136597 20.60877808 0.66009521 21.15179443 C-0.42982917 22.26055956 -1.52264998 23.36648399 -2.61816406 24.46972656 C-4.28763911 26.15867071 -5.9345808 27.86772719 -7.58203125 29.578125 C-8.64580831 30.65495847 -9.71087109 31.73052363 -10.77734375 32.8046875 C-11.26507263 33.31710999 -11.75280151 33.82953247 -12.25531006 34.35748291 C-14.7620509 36.83245372 -16.1851641 37.87142555 -19.72680664 38.29345703 C-29.99094302 36.91066831 -38.87159947 29.39440097 -45.54296875 21.9140625 C-50.90470535 14.30765006 -56.26222098 5.50409227 -55.54296875 -4.0859375 C-54.38796875 -4.7046875 -53.23296875 -5.3234375 -52.04296875 -5.9609375 C-51.39328125 -6.30898437 -50.74359375 -6.65703125 -50.07421875 -7.015625 C-32.79351091 -14.32259097 -15.11163462 -10.04492258 0 0 Z " fill="#F2C64B" transform="translate(229.54296875,231.0859375)"/>
<path d="M0 0 C5.86074027 1.94365447 5.86074027 1.94365447 8.5078125 3.22583008 C9.2709375 3.58805664 10.0340625 3.9502832 10.8203125 4.32348633 C11.3771875 4.60063477 11.9340625 4.8777832 12.5078125 5.16333008 C11.83535295 16.81929561 6.68855154 26.9271284 -1.4921875 35.16333008 C-14.37339081 46.01658884 -25.72722016 49.91656995 -42.4921875 49.16333008 C-44.86944663 48.93377478 -47.14261504 48.60045984 -49.4921875 48.16333008 C-49.4921875 44.17801748 -48.23646482 43.49681892 -45.48828125 40.67602539 C-44.61316895 39.77209045 -43.73805664 38.86815552 -42.83642578 37.93682861 C-41.86835197 36.9542102 -40.89941733 35.97243923 -39.9296875 34.99145508 C-38.9399334 33.9844439 -37.95018742 32.97742475 -36.96044922 31.97039795 C-34.8813232 29.8597421 -32.79528214 27.75617396 -30.70556641 25.65600586 C-28.03279526 22.96679313 -25.38897048 20.25092484 -22.75105286 17.52757645 C-20.71576418 15.43632943 -18.66054129 13.36556505 -16.59939575 11.29982758 C-15.61592238 10.30728771 -14.6399418 9.30726374 -13.67184448 8.29972076 C-5.12502289 -0.56996824 -5.12502289 -0.56996824 0 0 Z " fill="#F2C54B" transform="translate(326.4921875,221.836669921875)"/>
<path d="M0 0 C0 0.66 0 1.32 0 2 C-1.43771362 3.40905762 -1.43771362 3.40905762 -3.44482422 5.06054688 C-8.21568023 9.11981359 -12.53357808 13.52904513 -16.8828125 18.03125 C-18.5602908 19.74567971 -20.23870347 21.45919559 -21.91796875 23.171875 C-24.538062 25.84775693 -27.15233115 28.52835245 -29.75146484 31.22460938 C-32.27929062 33.84296857 -34.82862461 36.43863502 -37.3828125 39.03125 C-38.15795197 39.84565552 -38.93309143 40.66006104 -39.73171997 41.49914551 C-45.17499847 46.97026171 -45.17499847 46.97026171 -49.41357422 47.12304688 C-52 46 -52 46 -54 44 C-53.56077891 31.482199 -46.11665204 20.29448575 -37.25 11.84765625 C-26.76597133 3.23837576 -13.45887901 -0.97098125 0 0 Z " fill="#F0C44A" transform="translate(319,162)"/>
<path d="M0 0 C2.375 1.5625 2.375 1.5625 4 4 C4.25 7.75 4.25 7.75 4 11 C5.0725 10.9175 6.145 10.835 7.25 10.75 C11 11 11 11 13.5 12.5625 C15 15 15 15 15.0625 18.5625 C14 22 14 22 11.75 23.9375 C8.92630625 25.02847258 6.99509228 25.2567222 4 25 C4.061875 25.9075 4.12375 26.815 4.1875 27.75 C4 31 4 31 3 33.375 C0.29455964 35.5731703 -1.7087924 35.5712063 -5.125 35.3828125 C-7 35 -7 35 -9 33.375 C-10.23318878 30.44617664 -10.2145758 28.14711179 -10 25 C-11.258125 24.9175 -12.51625 24.835 -13.8125 24.75 C-16.64452231 24.3784226 -17.77553683 24.17684977 -20.0625 22.375 C-21.4252316 18.92274662 -20.91899141 16.54468114 -20 13 C-16.3558226 10.5705484 -14.28758728 10.83820425 -10 11 C-10.0825 9.9275 -10.165 8.855 -10.25 7.75 C-10 4 -10 4 -8.375 1.5625 C-5.28314769 -0.47161336 -3.63632575 -0.60605429 0 0 Z " fill="#87D046" transform="translate(438,20)"/>
<path d="M0 0 C0.66 0 1.32 0 2 0 C2.30292969 0.67546875 2.60585937 1.3509375 2.91796875 2.046875 C6.98310381 10.70248566 11.49930616 14.03441578 20 18 C18.67424249 20.65151502 17.5608416 20.63983232 14.8125 21.625 C8.15050809 24.44679912 5.03924033 29.66707131 2 36 C1.34 36 0.68 36 0 36 C-0.268125 35.41992188 -0.53625 34.83984375 -0.8125 34.2421875 C-4.40208409 27.08663501 -8.7229522 22.96031357 -16 19.625 C-16.66 19.41875 -17.32 19.2125 -18 19 C-16.67212466 16.34424932 -15.48954754 16.28413384 -12.75 15.25 C-6.69820138 12.64676599 -3.840288 9.1762906 -1.1875 3.125 C-0.795625 2.09375 -0.40375 1.0625 0 0 Z " fill="#70D6F9" transform="translate(115,476)"/>
<path d="M0 0 C3.17476348 6.37295696 5.59524765 11.84937514 6 19 C4.79443396 19.63032133 3.58536811 20.2539497 2.375 20.875 C1.70210937 21.22304688 1.02921875 21.57109375 0.3359375 21.9296875 C-5.77015414 24.72746193 -10.75781332 25.26219845 -17.375 25.125 C-18.20644531 25.11597656 -19.03789062 25.10695313 -19.89453125 25.09765625 C-21.92981337 25.0742622 -23.96494564 25.03839725 -26 25 C-21.19509514 19.22636432 -16.0577806 13.87456107 -10.75 8.5625 C-9.9353125 7.73556641 -9.120625 6.90863281 -8.28125 6.05664062 C-7.50265625 5.27611328 -6.7240625 4.49558594 -5.921875 3.69140625 C-5.21643555 2.98185791 -4.51099609 2.27230957 -3.78417969 1.54125977 C-2 0 -2 0 0 0 Z " fill="#F1C54A" transform="translate(242,304)"/>
<path d="M0 0 C0.98484375 0.00902344 1.9696875 0.01804687 2.984375 0.02734375 C4.10585937 0.04474609 4.10585937 0.04474609 5.25 0.0625 C5.25 0.7225 5.25 1.3825 5.25 2.0625 C3.9921875 3.296875 3.9921875 3.296875 2.125 4.8125 C-2.89614063 9.04795856 -7.43706489 13.72179058 -12.00048828 18.43847656 C-12.58556152 19.03499023 -13.17063477 19.63150391 -13.7734375 20.24609375 C-14.56113525 21.05904907 -14.56113525 21.05904907 -15.36474609 21.88842773 C-16.75 23.0625 -16.75 23.0625 -18.75 23.0625 C-19.4289678 21.35901829 -20.09261957 19.64942821 -20.75 17.9375 C-21.12125 16.98617188 -21.4925 16.03484375 -21.875 15.0546875 C-22.79513131 11.90816704 -22.90476539 9.32224596 -22.75 6.0625 C-20.66780951 5.24707569 -18.58420239 4.43526811 -16.5 3.625 C-15.33984375 3.17253906 -14.1796875 2.72007812 -12.984375 2.25390625 C-8.38792181 0.5607683 -4.91310466 -0.05848934 0 0 Z " fill="#EBC049" transform="translate(196.75,278.9375)"/>
<path d="M0 0 C2 1 2 1 3.3125 3.8125 C5.78723068 8.48699128 9.22840388 10.87929061 14 13 C13 15 13 15 10.1875 16.3125 C5.51300872 18.78723068 3.12070939 22.22840388 1 27 C0.608125 26.46375 0.21625 25.9275 -0.1875 25.375 C-0.785625 24.59125 -1.38375 23.8075 -2 23 C-3.1446875 21.4840625 -3.1446875 21.4840625 -4.3125 19.9375 C-7.05433055 16.94061544 -9.28668801 15.55440967 -13 14 C-11.48065294 10.96130589 -9.01995228 10.35589694 -6 9 C-5.34 9 -4.68 9 -4 9 C-3.71125 8.2575 -3.4225 7.515 -3.125 6.75 C-2.17697356 4.43260203 -1.15154089 2.22082885 0 0 Z " fill="#FC647C" transform="translate(63,52)"/>
<path d="M0 0 C2.46324069 3.69486103 2.38991688 5.63293092 2 10 C0.39746471 12.67089215 -0.89976136 12.96731349 -3.875 13.9375 C-7 14 -7 14 -9.875 12.5 C-12 10 -12 10 -12.625 6.5 C-12 3 -12 3 -9.9375 0.5 C-6.12009638 -1.44931249 -4.07839612 -1.15426305 0 0 Z " fill="#87D147" transform="translate(68,448)"/>
<path d="M0 0 C2 2 2 2 2.375 5.375 C2 9 2 9 0.375 11.4375 C-2.71685231 13.47161336 -4.36367425 13.60605429 -8 13 C-10.375 11.4375 -10.375 11.4375 -12 9 C-12.73134328 3.04477612 -12.73134328 3.04477612 -10.6875 0.125 C-6.61845593 -2.58769604 -4.31172181 -1.74303648 0 0 Z " fill="#F5C84B" transform="translate(386,2)"/>
</svg>
