<?xml version="1.0" encoding="UTF-8"?>
<svg version="1.1" xmlns="http://www.w3.org/2000/svg" width="512" height="512">
<path d="M0 0 C0.91297852 0.16628906 1.82595703 0.33257812 2.76660156 0.50390625 C44.3986228 8.16363077 83.16052206 26.40624883 116 53 C116.54446777 53.44005371 117.08893555 53.88010742 117.64990234 54.33349609 C131.72173929 65.81174863 144.93680647 78.57719064 156 93 C156.75925781 93.93070312 157.51851563 94.86140625 158.30078125 95.8203125 C184.1596216 128.07168914 200.62794761 167.52514646 208 208 C208.16371094 208.83563477 208.32742188 209.67126953 208.49609375 210.53222656 C213.78656862 238.24163521 213.41678597 270.35093304 208 298 C207.83371094 298.91297852 207.66742188 299.82595703 207.49609375 300.76660156 C199.83636923 342.3986228 181.59375117 381.16052206 155 414 C154.55994629 414.54446777 154.11989258 415.08893555 153.66650391 415.64990234 C142.18825137 429.72173929 129.42280936 442.93680647 115 454 C114.06929688 454.75925781 113.13859375 455.51851563 112.1796875 456.30078125 C79.92831086 482.1596216 40.47485354 498.62794761 0 506 C-0.83563477 506.16371094 -1.67126953 506.32742188 -2.53222656 506.49609375 C-30.24163521 511.78656862 -62.35093304 511.41678597 -90 506 C-90.91297852 505.83371094 -91.82595703 505.66742188 -92.76660156 505.49609375 C-134.3986228 497.83636923 -173.16052206 479.59375117 -206 453 C-206.54446777 452.55994629 -207.08893555 452.11989258 -207.64990234 451.66650391 C-221.72173929 440.18825137 -234.93680647 427.42280936 -246 413 C-246.75925781 412.06929688 -247.51851562 411.13859375 -248.30078125 410.1796875 C-274.1596216 377.92831086 -290.62794761 338.47485354 -298 298 C-298.16371094 297.16436523 -298.32742188 296.32873047 -298.49609375 295.46777344 C-303.78656862 267.75836479 -303.41678597 235.64906696 -298 208 C-297.83371094 207.08702148 -297.66742188 206.17404297 -297.49609375 205.23339844 C-289.83636923 163.6013772 -271.59375117 124.83947794 -245 92 C-244.55994629 91.45553223 -244.11989258 90.91106445 -243.66650391 90.35009766 C-232.18825137 76.27826071 -219.42280936 63.06319353 -205 52 C-204.06929688 51.24074219 -203.13859375 50.48148438 -202.1796875 49.69921875 C-169.92831086 23.8403784 -130.47485354 7.37205239 -90 0 C-89.16436523 -0.16371094 -88.32873047 -0.32742188 -87.46777344 -0.49609375 C-59.75836479 -5.78656862 -27.64906696 -5.41678597 0 0 Z M-201 93 C-201.49741699 93.47018555 -201.99483398 93.94037109 -202.50732422 94.42480469 C-210.51338763 102.02194934 -217.40749721 110.15944153 -224 119 C-224.42522949 119.55913086 -224.85045898 120.11826172 -225.28857422 120.69433594 C-232.54470107 130.25200244 -238.47860829 140.35557576 -244 151 C-244.39074707 151.74878418 -244.78149414 152.49756836 -245.18408203 153.26904297 C-261.06090068 184.08326297 -268.44818607 217.84937555 -268.375 252.375 C-268.37478851 253.29797882 -268.37457703 254.22095764 -268.37435913 255.17190552 C-268.34023384 270.12994107 -267.38124099 284.3773738 -264 299 C-263.81276367 299.83885742 -263.62552734 300.67771484 -263.43261719 301.54199219 C-255.25140764 337.44605688 -238.55838182 369.79923117 -215 398 C-211.57317121 396.52122394 -209.34962891 394.59673853 -206.72259521 391.96310425 C-205.45222412 390.69685715 -205.45222412 390.69685715 -204.15618896 389.4050293 C-203.23549622 388.477146 -202.31480347 387.5492627 -201.36621094 386.59326172 C-200.38084147 385.60732795 -199.39503107 384.62183467 -198.40881348 383.63674927 C-195.73521735 380.96372691 -193.06783214 378.28458338 -190.40151501 375.60430288 C-187.61307269 372.80335733 -184.81896487 370.00807521 -182.02545166 367.21218872 C-176.73750411 361.91802522 -171.45467545 356.61878415 -166.17366433 351.31770241 C-160.16070616 345.28238886 -154.14206738 339.25275394 -148.1229434 333.22359061 C-135.74229475 320.82203735 -123.36880304 308.41336738 -111 296 C-111.33 295.34 -111.66 294.68 -112 294 C-114.16769714 293.25099541 -114.16769714 293.25099541 -116.8203125 292.703125 C-117.82368652 292.46980469 -118.82706055 292.23648437 -119.86083984 291.99609375 C-120.9380127 291.74988281 -122.01518555 291.50367188 -123.125 291.25 C-140.90799041 286.98607317 -155.80172772 280.75870659 -170 269 C-170.79148437 268.37867188 -171.58296875 267.75734375 -172.3984375 267.1171875 C-191.02071821 251.6671565 -201.75907373 226.91405803 -204.4375 203.25 C-206.83135777 177.24766496 -200.24049069 151.63077718 -184 131 C-182.13083845 128.82723687 -180.23965414 126.69000268 -178.28515625 124.59375 C-176.79076161 123.08174492 -176.79076161 123.08174492 -177 121 C-176.41089844 120.73445313 -175.82179688 120.46890625 -175.21484375 120.1953125 C-172.94187646 118.96863174 -171.42206649 117.6558766 -169.5625 115.875 C-148.03781296 96.67081826 -121.71906174 92.82073525 -94 94 C-88.84879815 94.44989981 -83.95595857 95.52805063 -79 97 C-77.85144531 97.3403125 -76.70289063 97.680625 -75.51953125 98.03125 C-48.72377631 106.83429491 -27.62212005 124.68863985 -14.75 149.8125 C-9.07522724 161.29076597 -5.8961721 173.56765148 -3 186 C0.40890785 184.52630723 2.62521822 182.62192589 5.23944092 180.00106812 C6.07794083 179.16531754 6.91644073 178.32956696 7.78034973 177.4684906 C8.69169174 176.54995804 9.60303375 175.63142548 10.54199219 174.68505859 C11.51750956 173.70897691 12.49346788 172.73333574 13.46983337 171.75810242 C16.11657103 169.1119385 18.75709755 166.45965413 21.3965559 163.80623198 C24.15697073 161.03331342 26.92305155 158.26605875 29.6885376 155.49819946 C34.92336137 150.25715988 40.15306606 145.01104297 45.38095307 139.76308501 C51.33345265 133.7882296 57.29163323 127.81905321 63.25029898 121.85034823 C75.50653378 109.57320914 87.75561142 97.28895352 100 85 C98.9168309 81.7504927 98.35349249 81.21960047 95.74609375 79.21484375 C95.06482422 78.68922852 94.38355469 78.16361328 93.68164062 77.62207031 C92.94107422 77.06616211 92.20050781 76.51025391 91.4375 75.9375 C90.67244141 75.35967773 89.90738281 74.78185547 89.11914062 74.18652344 C70.62530945 60.4036723 50.60346363 49.98615753 29 42 C28.31663574 41.74734375 27.63327148 41.4946875 26.92919922 41.234375 C17.13009927 37.67016587 7.20215502 35.07116441 -3 33 C-3.7007666 32.84756836 -4.4015332 32.69513672 -5.12353516 32.53808594 C-75.45038709 17.72064228 -150.05814308 44.23774492 -201 93 Z M118.92514038 111.82089233 C118.07256149 112.66783157 117.2199826 113.51477081 116.34156799 114.38737488 C115.3947666 115.33806536 114.44806905 116.28885927 113.50146484 117.23974609 C112.50652378 118.23197878 111.51115737 119.22378512 110.51539612 120.2151947 C107.80634429 122.91510202 105.10368934 125.62133021 102.40237379 128.3289752 C99.57996084 131.1564375 96.75268765 133.97903287 93.92617798 136.80239868 C89.17959965 141.54533424 84.43726342 146.29248081 79.69726562 151.04199219 C74.21034256 156.53980039 68.71625136 162.03036623 63.21838033 167.51722467 C58.505568 172.22097295 53.79664968 176.92859285 49.0909878 181.63949454 C46.27727935 184.45632756 43.46222167 187.27177642 40.64365768 190.08375168 C37.99456228 192.72708705 35.35037431 195.37523377 32.70995903 198.02723885 C31.73772132 199.00213035 30.76376046 199.97530673 29.78800011 200.94667244 C28.46102472 202.26821944 27.14075463 203.59648931 25.82089233 204.92514038 C25.07868124 205.66810553 24.33647015 206.41107067 23.57176781 207.17654991 C21.78236712 208.85125364 21.78236712 208.85125364 22 211 C22.61294922 211.1451001 23.22589844 211.2902002 23.85742188 211.43969727 C54.39884189 218.76952385 79.92122094 231.25847264 98 258 C98.53625 258.79148437 99.0725 259.58296875 99.625 260.3984375 C113.97299658 282.8919113 118.09628613 310.94851581 112.5078125 336.81738281 C108.59037252 353.6548412 100.6171894 368.21893634 89 381 C88.43925781 381.63035156 87.87851562 382.26070313 87.30078125 382.91015625 C70.81805799 400.43053279 46.36658569 411.52010395 22.3984375 412.3359375 C9.0583942 412.50733799 -3.29733002 412.26513007 -16 408 C-16.96268799 407.67854004 -16.96268799 407.67854004 -17.94482422 407.35058594 C-43.21267951 398.6905627 -63.52982597 380.67342426 -75.2890625 356.7734375 C-80.75265606 345.05538766 -83.41833556 332.59102266 -86 320 C-89.02909794 319.68520585 -89.02909794 319.68520585 -90.94649792 321.57735443 C-91.68854127 322.32216316 -92.43058462 323.06697189 -93.19511414 323.83435059 C-94.47604446 325.10909492 -94.47604446 325.10909492 -95.78285217 326.40959167 C-96.72606081 327.3634183 -97.66912542 328.31738736 -98.61206055 329.27148438 C-99.60692003 330.26718975 -100.60243993 331.26223563 -101.59857178 332.25666809 C-104.30548039 334.96271386 -107.00302212 337.67792818 -109.69902015 340.39483833 C-112.51639194 343.23092873 -115.34222775 346.05855937 -118.16719055 348.88708496 C-123.51738952 354.24661857 -128.85989354 359.61375558 -134.19969922 364.9836421 C-140.27838766 371.09583041 -146.36556867 377.19953045 -152.45349061 383.3025198 C-164.97849095 395.8589013 -177.49274518 408.42594359 -190 421 C-188.9168309 424.2495073 -188.35349249 424.78039953 -185.74609375 426.78515625 C-185.06482422 427.31077148 -184.38355469 427.83638672 -183.68164062 428.37792969 C-182.94107422 428.93383789 -182.20050781 429.48974609 -181.4375 430.0625 C-180.28991211 430.9292334 -180.28991211 430.9292334 -179.11914062 431.81347656 C-160.62530945 445.5963277 -140.60346363 456.01384247 -119 464 C-118.31663574 464.25265625 -117.63327148 464.5053125 -116.92919922 464.765625 C-107.13009927 468.32983413 -97.20215502 470.92883559 -87 473 C-86.2992334 473.15243164 -85.5984668 473.30486328 -84.87646484 473.46191406 C-30.32411349 484.95576556 29.8407533 470.90602371 76.22802734 441.15600586 C88.70968037 432.8653577 100.18676268 423.3505814 111 413 C111.49741699 412.52981445 111.99483398 412.05962891 112.50732422 411.57519531 C120.51338763 403.97805066 127.40749721 395.84055847 134 387 C134.63784424 386.16130371 134.63784424 386.16130371 135.28857422 385.30566406 C142.54470107 375.74799756 148.47860829 365.64442424 154 355 C154.39074707 354.25121582 154.78149414 353.50243164 155.18408203 352.73095703 C171.06090068 321.91673703 178.44818607 288.15062445 178.375 253.625 C178.37468277 252.24053177 178.37468277 252.24053177 178.37435913 250.82809448 C178.34023384 235.87005893 177.38124099 221.6226262 174 207 C173.81276367 206.16114258 173.62552734 205.32228516 173.43261719 204.45800781 C165.60268482 170.0955585 149.67967562 133.75545635 125 108 C121.96681567 108 121.0431027 109.70507958 118.92514038 111.82089233 Z " fill="#E76E54" transform="translate(301,3)"/>
<path d="M0 0 C2.08620763 0.76685191 4.03711153 1.6277372 6.01739693 2.63592529 C9.09953818 4.12464315 12.31489134 4.90085233 15.61108398 5.80664062 C37.7029499 13.56354979 55.92411036 28.08556758 68.92358398 47.55664062 C69.45725586 48.34554687 69.99092773 49.13445312 70.54077148 49.94726562 C84.90634958 72.42604586 89.01797625 100.51392307 83.43139648 126.37402344 C79.51757495 143.19592946 71.55032366 157.80068523 59.92358398 170.55664062 C58.97225586 171.61238281 58.97225586 171.61238281 58.00170898 172.68945312 C41.08227514 190.51778217 16.9455728 202.05443581 -7.67797852 202.89257812 C-21.01802182 203.06397861 -33.37374603 202.82177069 -46.07641602 198.55664062 C-46.71820801 198.34233398 -47.36 198.12802734 -48.02124023 197.90722656 C-73.58920168 189.14434828 -94.14704543 170.71115131 -106.07641602 146.55664062 C-110.22779426 137.89076122 -112.84280294 129.19632158 -115.01391602 119.86914062 C-115.23781006 118.91201172 -115.4617041 117.95488281 -115.69238281 116.96875 C-115.9888269 115.61426758 -115.9888269 115.61426758 -116.29125977 114.23242188 C-116.46778076 113.42716064 -116.64430176 112.62189941 -116.82617188 111.79223633 C-117.10854548 109.26960699 -116.93184735 107.94701032 -116.07641602 105.55664062 C-114.34820652 103.39783478 -114.34820652 103.39783478 -112.05311584 101.02453613 C-111.18585373 100.12135651 -110.31859161 99.21817688 -109.42504883 98.28762817 C-108.4562833 97.29439367 -107.48728115 96.30138991 -106.51806641 95.30859375 C-105.50231156 94.25766629 -104.48705994 93.20625225 -103.47227478 92.15438843 C-100.13566021 88.70301958 -96.78192489 85.26858664 -93.42407227 81.83789062 C-92.85221467 81.25354689 -92.28035707 80.66920315 -91.69117045 80.06715202 C-86.29292305 74.5540041 -80.88670507 69.04875488 -75.46485233 63.558815 C-68.53922033 56.54484079 -61.65240313 49.49704568 -54.81322104 42.39872408 C-49.99634555 37.40565185 -45.13774348 32.45565905 -40.24683183 27.53509855 C-37.32891757 24.59714603 -34.43244917 21.64366788 -31.5797596 18.64222717 C-10.91579712 -3.04995916 -10.91579712 -3.04995916 0 0 Z " fill="#EBCD92" transform="translate(331.076416015625,213.443359375)"/>
<path d="M0 0 C1.72283203 0.51046875 1.72283203 0.51046875 3.48046875 1.03125 C30.63978963 9.95373499 52.1875417 28.33745695 65.25 53.8125 C68.70838213 60.82202749 71.50195955 68.0616204 73.38046837 75.66118622 C74.00481235 78.14644334 74.00481235 78.14644334 75.09140968 81.08057404 C77.8624369 90.16562029 77.8624369 90.16562029 75.59438705 94.98970032 C73.15151105 98.03481112 70.50602718 100.74983792 67.69287109 103.44335938 C66.6534075 104.49933109 65.61761184 105.55892399 64.58522034 106.62181091 C61.78182849 109.48540724 58.92802053 112.29309293 56.06001616 115.09179115 C53.06085339 118.032837 50.10510222 121.01698057 47.14273071 123.99499512 C42.16294721 128.98738934 37.14987371 133.9443167 32.11523438 138.88134766 C26.30019775 144.58444201 20.54041932 150.33907707 14.80741632 156.12454557 C9.28290926 161.69730139 3.72226339 167.23257195 -1.85606003 172.75141907 C-4.22582207 175.09707448 -6.58242347 177.45487364 -8.92930984 179.82341003 C-11.69587681 182.61200612 -14.49274365 185.36619846 -17.31598091 188.09736824 C-18.34492377 189.10279106 -19.36311437 190.11935864 -20.36919594 191.14765739 C-27.9617889 198.88721214 -27.9617889 198.88721214 -32.96590805 199.16412354 C-35.7867326 198.67409557 -38.30357959 197.95026628 -41 197 C-42.59920241 196.61342905 -44.2016597 196.23977455 -45.80859375 195.88671875 C-62.90634831 191.54210344 -77.32936647 185.34521648 -91 174 C-91.79148438 173.36707031 -92.58296875 172.73414063 -93.3984375 172.08203125 C-113.23666139 155.40415533 -124.32309064 130.19723349 -126.66967773 104.73022461 C-128.41279445 79.22889161 -121.48805275 55.32596944 -106 35 C-105.39542969 34.16855469 -104.79085937 33.33710938 -104.16796875 32.48046875 C-80.8680534 1.58791296 -36.62127815 -10.8767389 0 0 Z " fill="#EBCD92" transform="translate(222,99)"/>
<path d="M0 0 C2.07973018 0.76470115 4.02471656 1.62617235 6.00000191 2.62930298 C8.77271279 3.95641923 11.63578852 4.75500575 14.58772182 5.58750153 C17.48686458 6.40566891 20.23419487 7.33099344 22.97827148 8.57617188 C23.30827148 9.56617188 23.63827148 10.55617187 23.97827148 11.57617188 C23.33084944 12.21944585 23.33084944 12.21944585 22.67034817 12.87571526 C12.13589059 23.34372436 1.60989057 33.8201808 -8.90691471 44.30592155 C-13.99310581 49.37668819 -19.08205161 54.44462966 -24.17773438 59.50585938 C-28.62262049 63.92070707 -33.062087 68.34092329 -37.49530786 72.76748574 C-39.83968625 75.10797617 -42.18735789 77.44499449 -44.53996468 79.77721786 C-47.17518677 82.39052138 -49.80072655 85.01320911 -52.42431641 87.63818359 C-53.19396225 88.39704361 -53.96360809 89.15590363 -54.75657654 89.9377594 C-65.45567894 100.69773577 -71.88923624 111.19919525 -72.39672852 126.63867188 C-72.28924984 138.40758692 -67.23564402 148.17794532 -59.17797852 156.47460938 C-50.7246162 164.42479537 -41.23720406 166.57528891 -30.02172852 168.57617188 C-29.27407227 168.71023438 -28.52641602 168.84429687 -27.75610352 168.98242188 C-25.50541505 169.30141709 -23.29273877 169.45789009 -21.02172852 169.57617188 C-19.13454102 169.69025391 -19.13454102 169.69025391 -17.20922852 169.80664062 C11.19349538 170.97084442 35.19387245 159.110534 56.13061523 140.68164062 C70.6215741 127.0515308 78.46138593 108.61508734 82.97827148 89.57617188 C83.63827148 89.57617188 84.29827148 89.57617188 84.97827148 89.57617188 C87.42102928 117.50601708 82.24483087 143.28214944 64.41577148 165.57617188 C62.9572899 167.26096957 61.47939612 168.92925456 59.97827148 170.57617188 C59.02694336 171.63191406 59.02694336 171.63191406 58.05639648 172.70898438 C41.13696264 190.53731342 17.0002603 202.07396706 -7.62329102 202.91210938 C-20.96333432 203.08350986 -33.31905853 202.84130194 -46.02172852 198.57617188 C-46.66352051 198.36186523 -47.3053125 198.14755859 -47.96655273 197.92675781 C-73.53451418 189.16387953 -94.09235793 170.73068256 -106.02172852 146.57617188 C-110.17310676 137.91029247 -112.78811544 129.21585283 -114.95922852 119.88867188 C-115.18312256 118.93154297 -115.4070166 117.97441406 -115.63769531 116.98828125 C-115.9341394 115.63379883 -115.9341394 115.63379883 -116.23657227 114.25195312 C-116.41309326 113.44669189 -116.58961426 112.64143066 -116.77148438 111.81176758 C-117.05385798 109.28913824 -116.87715985 107.96654157 -116.02172852 105.57617188 C-114.29351902 103.41736603 -114.29351902 103.41736603 -111.99842834 101.04406738 C-111.13116623 100.14088776 -110.26390411 99.23770813 -109.37036133 98.30715942 C-108.4015958 97.31392492 -107.43259365 96.32092116 -106.46337891 95.328125 C-105.44762406 94.27719754 -104.43237244 93.2257835 -103.41758728 92.17391968 C-100.08097271 88.72255083 -96.72723739 85.28811789 -93.36938477 81.85742188 C-92.79752717 81.27307814 -92.22566957 80.6887344 -91.63648295 80.08668327 C-86.23823555 74.57353535 -80.83201757 69.06828613 -75.41016483 63.57834625 C-68.48453283 56.56437204 -61.59771563 49.51657693 -54.75853354 42.41825533 C-49.94165805 37.4251831 -45.08305598 32.4751903 -40.19214433 27.5546298 C-37.27423007 24.61667728 -34.37776167 21.66319913 -31.5250721 18.66175842 C-10.86102009 -3.03029001 -10.86102009 -3.03029001 0 0 Z " fill="#E5BD76" transform="translate(331.021728515625,213.423828125)"/>
<path d="M0 0 C3.87199441 3.2389932 5.20636953 6.6536569 6.5625 11.375 C6.75779297 12.00277344 6.95308594 12.63054687 7.15429688 13.27734375 C7.55950377 14.62627354 7.93391836 15.98477865 8.27945518 17.3502121 C8.99209491 20.10116481 8.99209491 20.10116481 10.10514259 23.12177277 C12.86279798 32.16658034 12.86279798 32.16658034 10.59383774 36.98805237 C8.15185101 40.03461924 5.50639868 42.74948221 2.69287109 45.44335938 C1.6534075 46.49933109 0.61761184 47.55892399 -0.41477966 48.62181091 C-3.21817151 51.48540724 -6.07197947 54.29309293 -8.93998384 57.09179115 C-11.93914661 60.032837 -14.89489778 63.01698057 -17.85726929 65.99499512 C-22.83705279 70.98738934 -27.85012629 75.9443167 -32.88476562 80.88134766 C-38.69980225 86.58444201 -44.45958068 92.33907707 -50.19258368 98.12454557 C-55.71709074 103.69730139 -61.27773661 109.23257195 -66.85606003 114.75141907 C-69.22582207 117.09707448 -71.58242347 119.45487364 -73.92930984 121.82341003 C-76.69587681 124.61200612 -79.49274365 127.36619846 -82.31598091 130.09736824 C-83.34492377 131.10279106 -84.36311437 132.11935864 -85.36919594 133.14765739 C-92.9617889 140.88721214 -92.9617889 140.88721214 -97.96590805 141.16412354 C-100.7867326 140.67409557 -103.30357959 139.95026628 -106 139 C-107.59920241 138.61342905 -109.2016597 138.23977455 -110.80859375 137.88671875 C-127.90634831 133.54210344 -142.32936647 127.34521648 -156 116 C-156.79148438 115.36707031 -157.58296875 114.73414063 -158.3984375 114.08203125 C-178.5245197 97.16215457 -189.22139312 71.943472 -191.68066406 46.20507812 C-192.19312951 39.22787473 -191.62036342 32.83045502 -190 26 C-188.36055341 29.0498002 -187.3145357 32.06510831 -186.3125 35.375 C-180.03323877 54.16711634 -169.55724382 68.25208641 -151.91015625 77.64453125 C-134.28512813 86.25795165 -113.61400229 88.47778744 -94.74609375 82.25610352 C-85.16889216 78.77827676 -77.04987465 74.17772888 -69.38427734 67.52270508 C-68.77721136 66.99838048 -68.17014538 66.47405588 -67.54468346 65.93384266 C-61.27069349 60.45570993 -55.38767856 54.6238776 -49.5390625 48.69921875 C-48.41290892 47.56676397 -47.28621798 46.43484333 -46.1590271 45.30342102 C-43.2349097 42.36620122 -40.31646628 39.42341816 -37.39978027 36.4788208 C-32.71480933 31.75018704 -28.02268945 27.02867182 -23.32734299 22.31034279 C-21.70757584 20.68050269 -20.091343 19.04722168 -18.47549438 17.41349792 C-13.63966482 12.53834657 -8.77188775 7.76469102 -3.5352478 3.31745911 C-2.30888354 2.26506563 -1.14269448 1.14269448 0 0 Z " fill="#E5BD76" transform="translate(287,157)"/>
<path d="M0 0 C10.56 0 21.12 0 32 0 C32 10.56 32 21.12 32 32 C21.44 32 10.88 32 0 32 C0 21.44 0 10.88 0 0 Z " fill="#FFFFFF" transform="translate(352,272)"/>
<path d="M0 0 C10.56 0 21.12 0 32 0 C32 10.56 32 21.12 32 32 C21.44 32 10.88 32 0 32 C0 21.44 0 10.88 0 0 Z " fill="#FFFFFF" transform="translate(192,128)"/>
</svg>
