<?xml version="1.0" encoding="UTF-8"?>
<svg version="1.1" xmlns="http://www.w3.org/2000/svg" width="512" height="512">
<path d="M0 0 C1.43883545 0.30599121 1.43883545 0.30599121 2.90673828 0.61816406 C40.04273686 8.74443609 74.19490909 25.11983286 103 50 C103.91007812 50.77988281 104.82015625 51.55976562 105.7578125 52.36328125 C108.22066132 54.52916276 110.61995399 56.74344694 113 59 C113.49564453 59.46841309 113.99128906 59.93682617 114.50195312 60.41943359 C122.84733145 68.36173927 130.13206378 76.76105198 137 86 C137.4237793 86.55768066 137.84755859 87.11536133 138.28417969 87.68994141 C145.5421633 97.24916887 151.47749079 107.35342137 157 118 C157.39074707 118.74878418 157.78149414 119.49756836 158.18408203 120.26904297 C173.69877379 150.38043591 181.477304 183.75510462 181.3125 217.5625 C181.30976578 218.73696182 181.30976578 218.73696182 181.30697632 219.93515015 C181.25545901 233.1512691 180.41697954 245.98383314 178 259 C177.83902832 259.90862793 177.67805664 260.81725586 177.51220703 261.75341797 C169.90572587 303.73154889 151.95074961 341.01425495 124 373 C123.27683594 373.84691406 122.55367188 374.69382812 121.80859375 375.56640625 C117.53176434 380.51279799 113.0007139 384.80008185 108 389 C107.08863281 389.81082031 106.17726563 390.62164062 105.23828125 391.45703125 C68.5575834 423.8640205 17.22196381 443.91744247 -31.8203125 444.203125 C-33.0396624 444.21371445 -33.0396624 444.21371445 -34.28364563 444.22451782 C-94.54105298 444.62864813 -149.22332814 428.00195373 -195 388 C-195.84691406 387.27683594 -196.69382812 386.55367188 -197.56640625 385.80859375 C-202.51279799 381.53176434 -206.80008185 377.0007139 -211 372 C-211.81082031 371.08863281 -212.62164062 370.17726563 -213.45703125 369.23828125 C-221.237757 360.42654561 -227.71011559 350.91601347 -234 341 C-234.65871094 339.97261719 -235.31742188 338.94523437 -235.99609375 337.88671875 C-250.55544885 314.11428445 -259.16517305 286.29088003 -264 259 C-264.16226074 258.12617676 -264.32452148 257.25235352 -264.49169922 256.35205078 C-268.9669871 231.48164288 -269.25507653 203.7625576 -264 179 C-263.79600586 178.01531738 -263.59201172 177.03063477 -263.38183594 176.01611328 C-255.42702564 138.44787164 -239.14867813 104.11596035 -214 75 C-213.22011719 74.08992188 -212.44023437 73.17984375 -211.63671875 72.2421875 C-209.47083724 69.77933868 -207.25655306 67.38004601 -205 65 C-204.53158691 64.50435547 -204.06317383 64.00871094 -203.58056641 63.49804688 C-195.63826073 55.15266855 -187.23894802 47.86793622 -178 41 C-177.44231934 40.5762207 -176.88463867 40.15244141 -176.31005859 39.71582031 C-149.38700168 19.27409458 -117.876025 6.87156144 -85 0 C-84.17999512 -0.18079102 -83.35999023 -0.36158203 -82.51513672 -0.54785156 C-56.85414484 -6.02757091 -25.5958949 -5.53025112 0 0 Z M-190 74.625 C-203.29420066 87.95538671 -213.63513565 102.72396406 -223 119 C-223.36432129 119.6202002 -223.72864258 120.24040039 -224.10400391 120.87939453 C-237.449365 143.71868684 -245.29503145 169.90529345 -249 196 C-249.18304688 197.28390625 -249.36609375 198.5678125 -249.5546875 199.890625 C-255.15538954 252.8914277 -240.84582384 306.0649963 -207.5390625 347.83203125 C-206.06125043 349.65058237 -204.56829282 351.45456424 -203.0625 353.25 C-202.60174072 353.79946289 -202.14098145 354.34892578 -201.66625977 354.91503906 C-199.55699809 357.37538873 -197.71792404 359.18805064 -195 361 C-184.77 350.77 -174.54 340.54 -164 330 C-168.85133533 320.25108817 -168.85133533 320.25108817 -173.9375 310.625 C-183.89079998 290.55829334 -189.30986329 267.3544281 -190 245 C-190.05994141 243.51306641 -190.05994141 243.51306641 -190.12109375 241.99609375 C-190.45985959 226.07409924 -187.91233429 211.13059904 -183.51904297 195.88769531 C-182.89322299 193.61166518 -182.41198903 191.3238033 -182 189 C-182.47308594 188.65710938 -182.94617188 188.31421875 -183.43359375 187.9609375 C-191.87527802 181.27999439 -200.49891287 169.89086619 -202 159 C-202.98669452 147.45394309 -202.62205268 136.93307902 -196 127 C-195.55704398 124.90524671 -195.16875479 122.79872806 -194.8125 120.6875 C-192.35621646 108.79908764 -186.97518223 98.31493894 -178 90 C-174.80732485 88.40366243 -171.47306385 88.63067624 -168 89 C-166 90 -166 90 -165 92 C-164.28043288 96.24544599 -164.0187746 98.5530196 -166.46484375 102.16015625 C-167.6663655 103.51917133 -168.90247033 104.84862817 -170.17578125 106.140625 C-173.74612224 109.53283621 -173.74612224 109.53283621 -175 114 C-174.13117188 114.09796875 -173.26234375 114.1959375 -172.3671875 114.296875 C-164.03098586 115.3785298 -159.22613437 116.70054439 -153.25 122.8125 C-148.56352318 129.45167549 -148.72301878 135.29941626 -150 143 C-150.31567045 144.33762515 -150.6430289 145.67279974 -151 147 C-150.11699219 146.48050781 -149.23398438 145.96101562 -148.32421875 145.42578125 C-108.56639253 122.22953796 -66.19552019 124.33809784 -22.37817383 133.57275391 C-19.91058644 134.08841109 -19.91058644 134.08841109 -17 134 C-16.5875 133.0821875 -16.175 132.164375 -15.75 131.21875 C-9.39882924 117.52106181 -1.88126522 110.8978282 12 105 C17.88517084 103.13238121 23.96709387 102.98354694 29.5 105.75 C32.36753339 108.33078005 33.73872532 110.2739066 34.31884766 114.10644531 C34.365979 115.20617676 34.365979 115.20617676 34.4140625 116.328125 C34.45273437 117.12734375 34.49140625 117.9265625 34.53125 118.75 C34.57765625 119.9875 34.57765625 119.9875 34.625 121.25 C34.66367187 122.09046875 34.70234375 122.9309375 34.7421875 123.796875 C34.83615836 125.86423382 34.91915564 127.93208627 35 130 C42.02305029 124.25911114 48.3234361 117.80306544 54.71484375 111.3828125 C55.93773316 110.15805511 57.1608457 108.93352047 58.38417053 107.709198 C61.58385956 104.50571366 64.78053248 101.29923634 67.9765625 98.09210205 C71.246212 94.81217384 74.5187384 91.53511874 77.79101562 88.2578125 C84.19681119 81.84133235 90.59942049 75.421683 97 69 C96.21300217 68.04506149 95.42600433 67.09012299 94.61515808 66.10624695 C94.1724718 65.56909404 93.72978552 65.03194113 93.2736845 64.47851086 C91.79121748 62.75764232 90.21976872 61.34836426 88.42578125 59.95703125 C87.76763428 59.44615967 87.1094873 58.93528809 86.43139648 58.40893555 C85.73216064 57.88211182 85.0329248 57.35528809 84.3125 56.8125 C83.57136963 56.25151611 82.83023926 55.69053223 82.06665039 55.11254883 C6.17828098 -1.3593656 -101.27757903 -0.78931883 -190 74.625 Z M109 81 C86.56 103.44 64.12 125.88 41 149 C43.68160761 151.68160761 45.75519846 153.64621379 48.75 155.75 C56.43338152 161.49830765 61.47416782 167.44216282 66.07470703 175.84985352 C75.66358357 193.21710304 91.90246658 199.09490936 109.828125 205.04296875 C112.16233439 206.07153224 113.40830142 207.02020208 115 209 C115.954184 211.86255201 116.13669797 213.69374628 116.16113281 216.66748047 C116.17074036 217.61211151 116.1803479 218.55674255 116.19024658 219.52999878 C116.1966214 221.0581572 116.1966214 221.0581572 116.203125 222.6171875 C116.20882507 223.66649445 116.21452515 224.71580139 116.22039795 225.79690552 C116.22984686 228.01775097 116.2363815 230.23861044 116.24023438 232.45947266 C116.24994208 235.85474112 116.28096784 239.24940482 116.3125 242.64453125 C116.31902995 244.80207974 116.32428045 246.95963256 116.328125 249.1171875 C116.3404718 250.13191132 116.3528186 251.14663513 116.36553955 252.19210815 C116.33701605 261.23013375 116.33701605 261.23013375 113 265 C110.91308594 266.49462891 110.91308594 266.49462891 108.484375 267.7265625 C107.57437744 268.19545898 106.66437988 268.66435547 105.72680664 269.14746094 C104.74446045 269.63504883 103.76211426 270.12263672 102.75 270.625 C101.73091553 271.14352539 100.71183105 271.66205078 99.66186523 272.19628906 C90.63362161 276.76064092 81.50702594 281.12209841 72.36328125 285.44921875 C67.46636723 287.76945451 62.5983525 290.14253678 57.75 292.5625 C57.10039307 292.88508789 56.45078613 293.20767578 55.78149414 293.54003906 C50.61353271 295.71176381 50.61353271 295.71176381 47.35571289 299.80566406 C47.16609985 300.89959473 47.16609985 300.89959473 46.97265625 302.015625 C46.82248047 302.84433105 46.67230469 303.67303711 46.51757812 304.52685547 C46.36740234 305.42549316 46.21722656 306.32413086 46.0625 307.25 C45.89556641 308.17570801 45.72863281 309.10141602 45.55664062 310.05517578 C44.66150878 315.04293761 43.82653212 320.04019692 42.99609375 325.0390625 C42.82907959 326.01584961 42.66206543 326.99263672 42.48999023 327.99902344 C42.17079068 329.87255144 41.86368942 331.74819364 41.57055664 333.62597656 C40.42931455 340.32709996 38.5780249 345.27465939 33.8125 350.3125 C27.3473277 354.19160338 19.80547681 354.3217078 12.4375 354.25 C11.63892578 354.25773437 10.84035156 354.26546875 10.01757812 354.2734375 C2.25588156 354.2481345 -4.92800369 353.24399682 -11 348 C-15.38608978 341.07845683 -15.75721387 334.75636893 -16.125 326.6875 C-16.24474051 324.35765546 -16.37198965 322.02818108 -16.5078125 319.69921875 C-16.55566895 318.67658936 -16.60352539 317.65395996 -16.65283203 316.6003418 C-16.83698833 313.76816197 -16.83698833 313.76816197 -19 311 C-24.88117968 311.59421389 -24.88117968 311.59421389 -30.72094727 312.49194336 C-39.48444398 314.07149036 -47.99756279 314.27624795 -56.8671875 314.20581055 C-59.26052436 314.18741913 -61.65347434 314.18530265 -64.046875 314.18554688 C-76.61302545 314.15441995 -76.61302545 314.15441995 -82.484375 313.42578125 C-85.84206649 312.69123797 -85.84206649 312.69123797 -88 314 C-88.70497175 316.39952885 -88.70497175 316.39952885 -89.18359375 319.3203125 C-89.38919922 320.4134375 -89.59480469 321.5065625 -89.80664062 322.6328125 C-90.01482422 323.78523437 -90.22300781 324.93765625 -90.4375 326.125 C-93.83097412 344.88009986 -93.83097412 344.88009986 -101 351 C-107.32252171 355.07904627 -115.59126972 354.18308335 -122.8125 354.1875 C-123.85470703 354.19974609 -124.89691406 354.21199219 -125.97070312 354.22460938 C-134.99310997 354.24160072 -142.7150383 353.76020227 -150 348 C-151.32 346.68 -152.64 345.36 -154 344 C-168.355 358.355 -168.355 358.355 -183 373 C-178.9539293 377.98311389 -178.9539293 377.98311389 -174.42578125 382.04296875 C-173.76763428 382.55384033 -173.1094873 383.06471191 -172.43139648 383.59106445 C-171.73216064 384.11788818 -171.0329248 384.64471191 -170.3125 385.1875 C-169.20080444 386.02897583 -169.20080444 386.02897583 -168.06665039 386.88745117 C-122.89279855 420.50332559 -67.2655263 434.19369832 -11.5625 426.8125 C30.47180118 420.58519612 68.42926025 401.26219072 99 372 C99.55300781 371.47954102 100.10601562 370.95908203 100.67578125 370.42285156 C115.49036894 356.43594117 126.86367218 340.61683136 137 323 C137.36432129 322.3797998 137.72864258 321.75959961 138.10400391 321.12060547 C165.02020281 275.0561393 171.14379583 217.28264204 158.08178711 165.96044922 C150.555794 138.43013244 134.12520871 97.75013914 109 81 Z M-178 132 C-177.72965366 134.43717258 -177.72965366 134.43717258 -177 137 C-173.53076119 139.31282587 -172.07794425 139.42478586 -168 139 C-166.12109566 137.62493901 -166.12109566 137.62493901 -165 136 C-166.3089572 132.87802522 -166.3089572 132.87802522 -169 131 C-173.65275976 130.6947378 -173.65275976 130.6947378 -178 132 Z M6.375 127.25 C0.71494756 133.80374493 -1.7451364 139.74898723 -3.6171875 148.2421875 C-5 151 -5 151 -7.9609375 152.546875 C-13.10598434 153.59127837 -17.83197061 151.81243503 -22.75 150.375 C-59.51895787 140.51064132 -101.17869472 137.03831496 -135.41796875 156.69921875 C-154.22958742 168.25962936 -165.91334263 188.93374653 -171 210 C-178.84834942 246.84707357 -171.11397853 284.74516124 -152 317 C-147.14301649 312.9302632 -142.50695012 308.69429834 -137.97010803 304.27204895 C-137.29850802 303.62035364 -136.62690802 302.96865834 -135.93495649 302.29721469 C-133.70185339 300.1285975 -131.47200214 297.95667237 -129.24243164 295.78442383 C-127.63550829 294.22145581 -126.02858487 292.65848788 -124.42166138 291.09552002 C-110.26479375 277.31406385 -96.17836067 263.46086528 -82.11826808 249.58074938 C-79.68958116 247.18316235 -77.26036305 244.78611418 -74.83081055 242.3894043 C-74.105543 241.67391207 -74.105543 241.67391207 -73.36562359 240.94396546 C-65.54429069 233.23089288 -57.67517079 225.56842993 -49.78676993 217.92403094 C-41.66311526 210.04956691 -33.59365513 202.12297009 -25.56767935 194.14873904 C-21.06939174 189.68263414 -16.55107485 185.24263732 -11.97297859 180.85825539 C10.18542342 161.71789191 10.18542342 161.71789191 20.38946629 135.76365948 C20.14298941 130.67036082 19.46515305 125.88668731 18 121 C13.60579794 121 9.58472932 124.49880344 6.375 127.25 Z M-186 152 C-184.68011529 160.31527369 -181.49323081 167.37371281 -175 173 C-174.34 173 -173.68 173 -173 173 C-171.72123357 171.31451105 -171.72123357 171.31451105 -170.4375 169.125 C-166.864337 163.54802847 -162.52437629 158.81594721 -158 154 C-158.66 153.67 -159.32 153.34 -160 153 C-161.2065625 153.4640625 -161.2065625 153.4640625 -162.4375 153.9375 C-170.64224636 156.38452962 -178.20261599 155.2344704 -186 152 Z M22.21567279 167.39708328 C21.570732 168.0507626 20.92579121 168.70444191 20.26130676 169.37792969 C19.22840666 170.40698488 19.22840666 170.40698488 18.17463988 171.45682907 C15.85507589 173.77142779 13.54643829 176.09663147 11.23754883 178.421875 C9.58259909 180.07767042 7.92698953 181.73280659 6.27076721 183.3873291 C1.76434511 187.89288751 -2.73274254 192.40766152 -7.22826934 196.92408752 C-11.4481852 201.16081449 -15.67497899 205.39066351 -19.90176252 209.62053633 C-28.27493991 218.00028378 -36.64139236 226.38671243 -45.00366211 234.77734375 C-53.12808148 242.92928934 -61.25563771 251.07808618 -69.38745117 259.22265625 C-69.88847826 259.72447151 -70.38950535 260.22628676 -70.90571507 260.74330854 C-73.41917553 263.26068405 -75.93269799 265.77799764 -78.44625127 268.29528046 C-99.30712017 289.18726254 -120.15698751 310.09020338 -141 331 C-138.62370911 335.14670039 -138.62370911 335.14670039 -135 338 C-131.19264032 338.2414344 -127.3766629 338.18519537 -123.5625 338.1875 C-122.49966797 338.19974609 -121.43683594 338.21199219 -120.34179688 338.22460938 C-119.32279297 338.22654297 -118.30378906 338.22847656 -117.25390625 338.23046875 C-116.31877197 338.23457764 -115.3836377 338.23868652 -114.42016602 338.24291992 C-111.73938224 338.16485344 -111.73938224 338.16485344 -109 336 C-108.20074695 333.43464327 -108.20074695 333.43464327 -107.7890625 330.3984375 C-107.59570312 329.26792969 -107.40234375 328.13742187 -107.203125 326.97265625 C-106.82157595 324.59828681 -106.44388992 322.22329297 -106.0703125 319.84765625 C-104.8011224 312.47466378 -103.35289172 305.73212793 -97.45068359 300.67163086 C-89.80832426 295.68753117 -80.67391338 297.02948423 -72.0625 298 C-57.8578027 299.39634382 -44.77683431 298.66147815 -30.7800293 296.03222656 C-22.77479964 294.54173491 -16.86283669 293.91616774 -9.62890625 298.125 C-8.01452536 299.15773924 -8.01452536 299.15773924 -6 299 C-1.55914946 307.59333416 -0.60378786 315.751821 -0.37866211 325.31079102 C-0.25365165 329.58597441 -0.11888728 333.16187322 2 337 C5.40691491 338.70345745 9.18267517 338.22662366 12.9375 338.25 C13.76185547 338.270625 14.58621094 338.29125 15.43554688 338.3125 C16.62567383 338.32023437 16.62567383 338.32023437 17.83984375 338.328125 C18.92833618 338.34214355 18.92833618 338.34214355 20.03881836 338.35644531 C22.60809601 337.88947838 23.34757648 336.99436419 25 335 C25.6675417 333.07209951 25.6675417 333.07209951 25.93554688 330.91503906 C26.06578247 330.09698792 26.19601807 329.27893677 26.3302002 328.43609619 C26.45842163 327.5548407 26.58664307 326.67358521 26.71875 325.765625 C26.86276245 324.85423767 27.0067749 323.94285034 27.15515137 323.00384521 C27.61506822 320.08756844 28.05899517 317.16919227 28.5 314.25 C28.94202131 311.34528855 29.38776794 308.4413833 29.84484863 305.53900146 C30.12887809 303.73396446 30.40431975 301.92754825 30.6697998 300.11968994 C30.8000354 299.28903015 30.930271 298.45837036 31.06445312 297.60253906 C31.17309692 296.88100647 31.28174072 296.15947388 31.39367676 295.41607666 C32.62355837 290.51524482 33.6864715 286.95985313 37.86637878 283.90541077 C39.6151104 283.04936501 39.6151104 283.04936501 41.39916992 282.17602539 C42.36543053 281.69169037 42.36543053 281.69169037 43.35121155 281.1975708 C45.46787248 280.14305039 47.59834227 279.1204939 49.73046875 278.09765625 C51.20686989 277.36972152 52.68230693 276.63982841 54.15681458 275.9080658 C58.02883903 273.99299213 61.91334389 272.10471643 65.80108643 270.22180176 C70.46911384 267.95410916 75.12090613 265.6533299 79.77544403 263.35811615 C86.83820798 259.87995935 93.92023969 256.44436417 101 253 C101 241.78 101 230.56 101 219 C98.504375 218.175 96.00875 217.35 93.4375 216.5 C74.60932508 209.9778575 61.26929129 201.25935519 51.5859375 183.390625 C46.59514917 174.4127823 39.34663856 167.38719769 30 163 C26.04580716 163 24.91996809 164.72011138 22.21567279 167.39708328 Z " fill="#FA8711" transform="translate(299,35)"/>
<path d="M0 0 C2.59648168 3.4078822 3.01001469 5.40913302 2.9375 9.6875 C2 13 2 13 0.3125 14.9375 C-2.76819895 16.35295627 -4.64720251 16.55879958 -8 16 C-10.4375 14.0625 -10.4375 14.0625 -12 11 C-12.301869 6.79592197 -11.96850518 3.26650677 -9.375 -0.125 C-5.80657913 -1.43968137 -3.61089966 -1.11609626 0 0 Z " fill="#FC6318" transform="translate(337,232)"/>
</svg>
