<?xml version="1.0" encoding="UTF-8"?>
<svg version="1.1" xmlns="http://www.w3.org/2000/svg" width="512" height="512">
<path d="M0 0 C0.88171875 0.84046875 1.7634375 1.6809375 2.671875 2.546875 C3.47109375 3.30484375 4.2703125 4.0628125 5.09375 4.84375 C10.77764728 10.37085011 15.7629043 16.32940108 20.671875 22.546875 C21.44144531 23.48789063 22.21101563 24.42890625 23.00390625 25.3984375 C51.28476183 60.76092897 67.18689746 103.90838492 72.671875 148.546875 C72.80464844 149.61164063 72.93742187 150.67640625 73.07421875 151.7734375 C79.38060818 215.87399851 58.72689829 279.65229353 18.27392578 329.26123047 C7.84287277 341.9247337 -3.36713711 353.45190837 -16.328125 363.546875 C-17.26398438 364.31128906 -18.19984375 365.07570313 -19.1640625 365.86328125 C-54.5086028 394.16617149 -97.69421865 410.06246069 -142.328125 415.546875 C-143.39289063 415.67964844 -144.45765625 415.81242187 -145.5546875 415.94921875 C-207.42063483 422.03576074 -271.40661569 403.0584353 -319.703125 363.984375 C-326.46749097 358.40953016 -332.98347284 352.59470132 -339.328125 346.546875 C-340.12734375 345.78890625 -340.9265625 345.0309375 -341.75 344.25 C-347.43389728 338.72289989 -352.4191543 332.76434892 -357.328125 326.546875 C-358.09769531 325.60585938 -358.86726563 324.66484375 -359.66015625 323.6953125 C-387.94101183 288.33282103 -403.84314746 245.18536508 -409.328125 200.546875 C-409.52728516 198.94972656 -409.52728516 198.94972656 -409.73046875 197.3203125 C-415.66363945 137.01328973 -397.78573034 73.99134142 -360.328125 26.296875 C-359.00431364 24.70557186 -357.67010207 23.12288889 -356.328125 21.546875 C-355.42792186 20.46262429 -354.52821897 19.37795813 -353.62890625 18.29296875 C-343.53290924 6.21032384 -332.76797476 -4.76405892 -320.328125 -14.453125 C-319.39226562 -15.21753906 -318.45640625 -15.98195312 -317.4921875 -16.76953125 C-282.1476472 -45.07242149 -238.96203135 -60.96871069 -194.328125 -66.453125 C-192.73097656 -66.65228516 -192.73097656 -66.65228516 -191.1015625 -66.85546875 C-120.43610845 -73.8077304 -51.40977879 -48.07509044 0 0 Z M-314.890625 42.296875 C-350.27471474 81.34980716 -367.47683009 133.19137327 -365.328125 185.546875 C-363.13091729 224.62360372 -349.66799178 266.00343402 -323.328125 295.546875 C-319.03744954 293.89450849 -316.1851697 290.6563543 -313.03125 287.4453125 C-312.43761658 286.84884918 -311.84398315 286.25238586 -311.23236084 285.6378479 C-309.34285873 283.7371769 -307.46044108 281.82966026 -305.578125 279.921875 C-304.29603435 278.62975032 -303.01348739 277.33807824 -301.73046875 276.046875 C-298.59104068 272.88543021 -295.45794699 269.7178289 -292.328125 266.546875 C-293.52557736 262.95451791 -294.65693914 262.29296707 -297.640625 260.046875 C-319.60392276 242.84860304 -319.60392276 242.84860304 -322.10546875 228.859375 C-322.90817801 220.52246481 -321.16588176 213.40117166 -316.328125 206.546875 C-306.02107323 194.2632294 -293.00820415 184.35043057 -278.98828125 176.66796875 C-278.16650391 176.11302734 -278.16650391 176.11302734 -277.328125 175.546875 C-277.328125 174.886875 -277.328125 174.226875 -277.328125 173.546875 C-279.67710311 172.0154633 -282.03405598 170.58469494 -284.453125 169.171875 C-292.86316346 164.08647382 -300.11965093 158.19792359 -307.328125 151.546875 C-308.30265625 150.66644531 -309.2771875 149.78601563 -310.28125 148.87890625 C-317.71914976 141.86509727 -321.73205263 135.41226609 -322.35546875 125.0859375 C-322.24076902 114.43524844 -318.03099999 107.27662714 -310.828125 99.671875 C-287.52501059 77.38771807 -257.89017607 62.63696133 -226.328125 56.546875 C-224.67490234 56.20849609 -224.67490234 56.20849609 -222.98828125 55.86328125 C-185.91305382 49.59034312 -144.43416829 56.7510767 -112.50268555 76.87817383 C-110.43656529 78.17896979 -110.43656529 78.17896979 -107.328125 79.546875 C-103.30347273 78.31298445 -100.61542296 75.10191678 -97.73339844 72.17919922 C-97.18661438 71.63270721 -96.63983032 71.08621521 -96.07647705 70.52316284 C-94.27536851 68.72066407 -92.48144253 66.91119104 -90.6875 65.1015625 C-89.43812005 63.84845133 -88.18829699 62.59578181 -86.93804932 61.34353638 C-83.65225628 58.05011545 -80.3725143 54.75073209 -77.09399414 51.45007324 C-73.74598247 48.08158506 -70.39228593 44.7187674 -67.0390625 41.35546875 C-60.46317204 34.75814324 -53.89365984 28.15450517 -47.328125 21.546875 C-52.45043615 10.42439054 -68.97716311 3.93002487 -79.328125 -1.453125 C-79.95025879 -1.78054687 -80.57239258 -2.10796875 -81.21337891 -2.4453125 C-98.96755907 -11.66979911 -118.60665881 -17.41650738 -138.328125 -20.453125 C-139.06659668 -20.56881836 -139.80506836 -20.68451172 -140.56591797 -20.80371094 C-205.71979557 -30.56882401 -270.20640549 -5.01206228 -314.890625 42.296875 Z M-17.85009766 55.84179688 C-18.90260505 56.89462203 -19.94959859 57.9529769 -20.9921875 59.015625 C-21.54425873 59.57052612 -22.09632996 60.12542725 -22.66513062 60.69714355 C-24.43252828 62.47576309 -26.19285783 64.26120092 -27.953125 66.046875 C-29.14797937 67.25175657 -30.34328617 68.45618967 -31.5390625 69.66015625 C-34.47403091 72.61721163 -37.40267728 75.58040159 -40.328125 78.546875 C-37.26364642 78.6503543 -37.26364642 78.6503543 -34.078125 77.859375 C-29.56355964 77.48316122 -27.24075258 78.32204755 -23.328125 80.546875 C-20.7479911 84.10966784 -21.03232307 88.04148876 -21.03759766 92.26538086 C-21.03088043 93.03821915 -21.02416321 93.81105743 -21.01724243 94.60731506 C-20.99826416 97.15884857 -20.99433853 99.71011908 -20.9921875 102.26171875 C-20.98576008 104.03764453 -20.97903176 105.81356925 -20.97201538 107.5894928 C-20.96004351 111.31090755 -20.95633453 115.03222946 -20.95751953 118.75366211 C-20.95772286 123.5198044 -20.93040608 128.28535136 -20.89597511 133.0513525 C-20.87372842 136.71882354 -20.86968128 140.38615072 -20.87073898 144.05368233 C-20.86838022 145.81074643 -20.8595412 147.56781433 -20.84407425 149.32481194 C-20.82445633 151.78328963 -20.83023471 154.24047569 -20.84228516 156.69897461 C-20.83104614 157.42277313 -20.81980713 158.14657166 -20.80822754 158.89230347 C-20.85251499 162.45170093 -21.25807508 164.4355778 -23.17098999 167.47486877 C-25.88906346 170.08567669 -27.74319032 170.47668284 -31.453125 170.921875 C-43.902318 169.71711439 -54.29472762 157.61766958 -63.0390625 149.58984375 C-67.64703075 145.10710316 -67.64703075 145.10710316 -73.515625 143.234375 C-79.25463951 144.47123158 -83.2474628 149.64822795 -87.328125 153.546875 C-94.54438704 160.03432537 -101.90049335 165.41187037 -110.24853516 170.32397461 C-111.97151955 171.34982077 -113.65444471 172.44241593 -115.328125 173.546875 C-115.328125 174.206875 -115.328125 174.866875 -115.328125 175.546875 C-112.95872201 177.10113036 -110.5828703 178.55289495 -108.140625 179.984375 C-99.15274395 185.41927961 -91.37027624 191.74335992 -83.76953125 198.984375 C-80.56699983 202.00868797 -77.92088227 204.27743988 -73.890625 206.109375 C-67.87989381 205.16031218 -64.55990768 200.68206921 -60.328125 196.546875 C-40.12044729 178.90186184 -40.12044729 178.90186184 -31.953125 178.296875 C-28.0793888 178.56402922 -26.36786928 179.20192941 -23.328125 181.546875 C-20.88707858 185.20844463 -21.04589488 187.93521492 -21.06933594 192.16772461 C-21.06407898 193.32917244 -21.06407898 193.32917244 -21.05871582 194.51408386 C-21.04990715 197.07588647 -21.05574513 199.63741329 -21.0625 202.19921875 C-21.06115296 203.97896884 -21.05921211 205.75871858 -21.05670166 207.53846741 C-21.05375146 211.27006531 -21.0580442 215.00156751 -21.06738281 218.7331543 C-21.07876902 223.51607108 -21.07222251 228.2987632 -21.06023788 233.08167171 C-21.05300943 236.75767203 -21.05531189 240.43361913 -21.06049347 244.10962105 C-21.06182767 245.87307321 -21.06019029 247.63653021 -21.05553436 249.39997673 C-21.05045388 251.86565817 -21.05820106 254.33097645 -21.06933594 256.79663086 C-21.06528748 257.5255957 -21.06123901 258.25456055 -21.05706787 259.00561523 C-21.087625 262.65912921 -21.16699673 265.51990467 -23.328125 268.546875 C-26.61896793 270.74077029 -28.42080058 271.24041818 -32.328125 271.546875 C-45.35275307 268.12408201 -58.36905877 255.86440113 -67.52734375 246.234375 C-69.32970823 244.2534212 -69.32970823 244.2534212 -72.578125 243.859375 C-78.00009608 244.85340303 -80.43612224 247.80431475 -84.328125 251.546875 C-120.1993787 283.56257899 -163.56760284 296.90328264 -211.328125 294.546875 C-222.30229202 293.67315235 -232.84511813 291.42885497 -243.359375 288.21875 C-246.43006663 287.523804 -247.45768006 287.47341473 -250.328125 288.546875 C-252.37311535 290.15826383 -252.37311535 290.15826383 -254.36230469 292.24047852 C-255.14281189 293.02121231 -255.92331909 293.80194611 -256.72747803 294.6063385 C-257.55991028 295.45425461 -258.39234253 296.30217072 -259.25 297.17578125 C-260.10998596 298.04001205 -260.96997192 298.90424286 -261.85601807 299.79466248 C-264.60383075 302.55928112 -267.34103536 305.33414362 -270.078125 308.109375 C-271.93811325 309.98440751 -273.79878207 311.85876518 -275.66015625 313.73242188 C-280.22407473 318.32943517 -284.77932438 322.93490455 -289.328125 327.546875 C-284.20581385 338.66935946 -267.67908689 345.16372513 -257.328125 350.546875 C-256.70599121 350.87429688 -256.08385742 351.20171875 -255.44287109 351.5390625 C-237.68869093 360.76354911 -218.04959119 366.51025738 -198.328125 369.546875 C-197.58965332 369.66256836 -196.85118164 369.77826172 -196.09033203 369.89746094 C-146.62712339 377.3108927 -94.33054878 364.40640133 -53.8359375 335.1640625 C-9.67379046 302.501729 18.37022042 256.28109376 27.07421875 202.03955078 C34.14064117 153.35864916 22.19749241 100.1866555 -7.328125 60.546875 C-10.16572673 56.90173253 -10.16572673 56.90173253 -13.328125 53.546875 C-15.64989309 53.32253197 -15.64989309 53.32253197 -17.85009766 55.84179688 Z " fill="#F9647C" transform="translate(424.328125,81.453125)"/>
<path d="M0 0 C0.67788574 0.13390137 1.35577148 0.26780273 2.05419922 0.40576172 C6.77390108 1.36932372 11.38998147 2.61470387 16 4 C16.88381348 4.26409668 17.76762695 4.52819336 18.67822266 4.80029297 C42.40490237 12.01764014 73.21036013 22.8994789 90 42.3125 C91.4535144 46.21881995 91.82097766 49.90157611 91 54 C87.63951443 61.30451019 81.93977886 66.47898599 76.31584167 72.06510925 C75.20304685 73.18136294 74.09090649 74.29826939 72.97936326 75.4157694 C69.93021386 78.47742699 66.87179684 81.52967615 63.81174362 84.58043039 C60.51041719 87.87496598 57.21773912 91.17812581 53.92393494 94.48017883 C47.47280801 100.94464488 41.0135975 107.40097504 34.55145165 113.8544242 C29.29962224 119.09947819 24.05072865 124.34745332 18.80391884 129.59752846 C18.05713432 130.34477267 17.31034981 131.09201689 16.54093546 131.86190486 C15.02386501 133.3799345 13.50680128 134.89797086 11.98974422 136.41601387 C-2.2357086 150.65002112 -16.47034188 164.87481891 -30.70812955 179.09648655 C-42.92432297 191.29927676 -55.13262936 203.50991122 -67.33520508 215.72631836 C-81.50602806 229.91319621 -95.68170558 244.09519412 -109.86516398 258.26944047 C-111.37760612 259.78092697 -112.890042 261.29241973 -114.40247154 262.80391884 C-115.14661638 263.54760085 -115.89076122 264.29128286 -116.6574559 265.05750069 C-121.90082613 270.29828076 -127.14070731 275.54253379 -132.37925148 280.78813744 C-138.76345941 287.18075951 -145.15298554 293.56800808 -151.54938678 299.9484305 C-154.81271761 303.20387756 -158.07360474 306.46167612 -161.32803345 309.72602463 C-164.30777693 312.71471307 -167.29436808 315.69637629 -170.28655084 318.67260937 C-171.3672219 319.74993183 -172.44537786 320.82978441 -173.52073012 321.912416 C-185.66384673 334.13140147 -185.66384673 334.13140147 -192.4765625 335.49609375 C-193.18554688 335.47675781 -193.89453125 335.45742188 -194.625 335.4375 C-195.69621094 335.43556641 -195.69621094 335.43556641 -196.7890625 335.43359375 C-203.24434636 334.16762819 -206.19207966 329.53195626 -209.6875 324.4375 C-210.20932861 323.6837207 -210.73115723 322.92994141 -211.26879883 322.15332031 C-240.86765686 278.65708084 -254.70376058 222.22960551 -245.54638672 169.95483398 C-245.07769241 167.62334754 -244.54950387 165.31377273 -244 163 C-243.77425293 162.0188623 -243.54850586 161.03772461 -243.31591797 160.02685547 C-233.96574418 120.29313824 -215.10101568 86.38197366 -187 57 C-186.04480469 55.98292969 -186.04480469 55.98292969 -185.0703125 54.9453125 C-180.12537302 49.81109304 -174.60487587 45.38978374 -169 41 C-168.46407227 40.57702637 -167.92814453 40.15405273 -167.37597656 39.71826172 C-141.77745758 19.67526095 -112.47194278 7.34470882 -81 0 C-79.8241333 -0.2777124 -79.8241333 -0.2777124 -78.62451172 -0.56103516 C-54.04180469 -6.05612211 -24.55134738 -5.0464523 0 0 Z M-186.5625 71.75 C-221.94658974 110.80293216 -239.14870509 162.64449827 -237 215 C-234.80279229 254.07672872 -221.33986678 295.45655902 -195 325 C-190.70932454 323.34763349 -187.8570447 320.1094793 -184.703125 316.8984375 C-184.10949158 316.30197418 -183.51585815 315.70551086 -182.90423584 315.0909729 C-181.01473373 313.1903019 -179.13231608 311.28278526 -177.25 309.375 C-175.96790935 308.08287532 -174.68536239 306.79120324 -173.40234375 305.5 C-170.26291568 302.33855521 -167.12982199 299.1709539 -164 296 C-165.19745236 292.40764291 -166.32881414 291.74609207 -169.3125 289.5 C-191.27579776 272.30172804 -191.27579776 272.30172804 -193.77734375 258.3125 C-194.58005301 249.97558981 -192.83775676 242.85429666 -188 236 C-177.69294823 223.7163544 -164.68007915 213.80355557 -150.66015625 206.12109375 C-149.83837891 205.56615234 -149.83837891 205.56615234 -149 205 C-149 204.34 -149 203.68 -149 203 C-151.34897811 201.4685883 -153.70593098 200.03781994 -156.125 198.625 C-164.53503846 193.53959882 -171.79152593 187.65104859 -179 181 C-179.97453125 180.11957031 -180.9490625 179.23914063 -181.953125 178.33203125 C-189.39102476 171.31822227 -193.40392763 164.86539109 -194.02734375 154.5390625 C-193.91264402 143.88837344 -189.70287499 136.72975214 -182.5 129.125 C-159.19688559 106.84084307 -129.56205107 92.09008633 -98 86 C-96.34677734 85.66162109 -96.34677734 85.66162109 -94.66015625 85.31640625 C-57.58492882 79.04346812 -16.10604329 86.2042017 15.82543945 106.33129883 C17.89155971 107.63209479 17.89155971 107.63209479 21 109 C25.02465227 107.76610945 27.71270204 104.55504178 30.59472656 101.63232422 C31.14151062 101.08583221 31.68829468 100.53934021 32.25164795 99.97628784 C34.05275649 98.17378907 35.84668247 96.36431604 37.640625 94.5546875 C38.89000495 93.30157633 40.13982801 92.04890681 41.39007568 90.79666138 C44.67586872 87.50324045 47.9556107 84.20385709 51.23413086 80.90319824 C54.58214253 77.53471006 57.93583907 74.1718924 61.2890625 70.80859375 C67.86495296 64.21126824 74.43446516 57.60763017 81 51 C75.87768885 39.87751554 59.35096189 33.38314987 49 28 C48.37786621 27.67257813 47.75573242 27.34515625 47.11474609 27.0078125 C29.36056593 17.78332589 9.72146619 12.03661762 -10 9 C-10.73847168 8.88430664 -11.47694336 8.76861328 -12.23779297 8.64941406 C-77.39167057 -1.11569901 -141.87828049 24.44106272 -186.5625 71.75 Z " fill="#040202" transform="translate(296,52)"/>
<path d="M0 0 C0.72058594 -0.00773437 1.44117188 -0.01546875 2.18359375 -0.0234375 C7.14270539 0.80715263 10.377487 2.82748949 13.421875 6.75390625 C14.40189748 8.13690512 15.3646188 9.53227718 16.3125 10.9375 C17.0873877 12.06490601 17.0873877 12.06490601 17.87792969 13.21508789 C27.04808006 26.79158277 34.34070189 41.2409949 40.5625 56.375 C41.25279297 58.03982422 41.25279297 58.03982422 41.95703125 59.73828125 C44.8539985 67.27039611 46.83001915 74.98296015 48.75 82.8125 C49.12535889 84.33049194 49.12535889 84.33049194 49.50830078 85.87915039 C52.91878964 100.30397328 53.9732589 114.36957613 53.9375 129.125 C53.93668427 130.39908722 53.93668427 130.39908722 53.93585205 131.69891357 C53.76919181 188.65271734 31.18130284 240.63044397 -8.93701172 280.87939453 C-49.38900876 320.58156229 -104.03021766 339.15488893 -160.08056641 338.66088867 C-175.82432203 338.4494238 -190.27501324 336.53121464 -205.4375 332.375 C-206.63503906 332.08882813 -207.83257812 331.80265625 -209.06640625 331.5078125 C-232.79668627 325.72243679 -254.57122371 314.38971267 -274.4375 300.375 C-275.06664307 299.94364746 -275.69578613 299.51229492 -276.34399414 299.06787109 C-280.50889627 296.17890302 -282.83542128 294.27547608 -284.4375 289.375 C-285.37440571 282.86350534 -284.29997404 279.77374462 -280.4375 274.375 C-278.91286181 272.67886087 -277.33931824 271.02577519 -275.72696781 269.41278553 C-275.26630115 268.94921199 -274.80563448 268.48563844 -274.33100823 268.00801721 C-272.79266943 266.46240409 -271.24734089 264.92398127 -269.70191956 263.38545227 C-268.58378635 262.26501363 -267.46608935 261.14413955 -266.34879059 260.02286881 C-263.28214552 256.94787866 -260.20929847 253.8791527 -257.13538253 250.8114332 C-253.81953342 247.50010866 -250.50944387 244.18303527 -247.1986084 240.86669922 C-240.71394863 234.37314418 -234.22389089 227.88501025 -227.73188467 221.39880077 C-222.45660969 216.12804135 -217.18328859 210.85533454 -211.91135979 205.58122826 C-211.16122247 204.83078447 -210.41108514 204.08034068 -209.63821639 203.30715617 C-208.1143797 201.78268004 -206.59054751 200.25819942 -205.06671976 198.73371436 C-190.77646555 184.43775657 -176.48008654 170.1479364 -162.18160885 155.86020418 C-149.90918179 143.59671448 -137.64201056 131.32798789 -125.37866211 119.05541992 C-111.14072406 104.8067829 -96.89955235 90.56139077 -82.65319198 76.32117432 C-81.13460912 74.80322856 -79.61603043 73.28527862 -78.09745598 71.76732445 C-77.35026561 71.02044263 -76.60307524 70.27356081 -75.83324273 69.50404621 C-70.56430892 64.23684031 -65.29770169 58.96731494 -60.03198433 53.69689369 C-53.61686111 47.27616588 -47.19819611 40.85900432 -40.77494068 34.44641153 C-37.49691652 31.17364944 -34.22052271 27.89929783 -30.94843102 24.62060356 C-27.95431374 21.620536 -24.9556353 18.62510836 -21.95321917 15.63334682 C-20.86672174 14.54908729 -19.78191439 13.46313108 -18.69895834 12.37533442 C-17.22849039 10.8987979 -15.75201747 9.42853719 -14.27387333 7.95969105 C-13.45470655 7.14084897 -12.63553976 6.32200689 -11.79154974 5.47835141 C-8.13254723 2.20902029 -4.9980375 -0.05345495 0 0 Z M-2.95947266 12.66992188 C-4.01198005 13.72274703 -5.05897359 14.7811019 -6.1015625 15.84375 C-6.65363373 16.39865112 -7.20570496 16.95355225 -7.77450562 17.52526855 C-9.54190328 19.30388809 -11.30223283 21.08932592 -13.0625 22.875 C-14.25735437 24.07988157 -15.45266117 25.28431467 -16.6484375 26.48828125 C-19.58340591 29.44533663 -22.51205228 32.40852659 -25.4375 35.375 C-22.37302142 35.4784793 -22.37302142 35.4784793 -19.1875 34.6875 C-14.67293464 34.31128622 -12.35012758 35.15017255 -8.4375 37.375 C-5.8573661 40.93779284 -6.14169807 44.86961376 -6.14697266 49.09350586 C-6.14025543 49.86634415 -6.13353821 50.63918243 -6.12661743 51.43544006 C-6.10763916 53.98697357 -6.10371353 56.53824408 -6.1015625 59.08984375 C-6.09513508 60.86576953 -6.08840676 62.64169425 -6.08139038 64.4176178 C-6.06941851 68.13903255 -6.06570953 71.86035446 -6.06689453 75.58178711 C-6.06709786 80.3479294 -6.03978108 85.11347636 -6.00535011 89.8794775 C-5.98310342 93.54694854 -5.97905628 97.21427572 -5.98011398 100.88180733 C-5.97775522 102.63887143 -5.9689162 104.39593933 -5.95344925 106.15293694 C-5.93383133 108.61141463 -5.93960971 111.06860069 -5.95166016 113.52709961 C-5.94042114 114.25089813 -5.92918213 114.97469666 -5.91760254 115.72042847 C-5.96188999 119.27982593 -6.36745008 121.2637028 -8.28036499 124.30299377 C-10.99843846 126.91380169 -12.85256532 127.30480784 -16.5625 127.75 C-29.011693 126.54523939 -39.40410262 114.44579458 -48.1484375 106.41796875 C-52.75640575 101.93522816 -52.75640575 101.93522816 -58.625 100.0625 C-64.36401451 101.29935658 -68.3568378 106.47635295 -72.4375 110.375 C-79.65376204 116.86245037 -87.00986835 122.23999537 -95.35791016 127.15209961 C-97.08089455 128.17794577 -98.76381971 129.27054093 -100.4375 130.375 C-100.4375 131.035 -100.4375 131.695 -100.4375 132.375 C-98.06809701 133.92925536 -95.6922453 135.38101995 -93.25 136.8125 C-84.26211895 142.24740461 -76.47965124 148.57148492 -68.87890625 155.8125 C-65.67637483 158.83681297 -63.03025727 161.10556488 -59 162.9375 C-52.98926881 161.98843718 -49.66928268 157.51019421 -45.4375 153.375 C-25.22982229 135.72998684 -25.22982229 135.72998684 -17.0625 135.125 C-13.1887638 135.39215422 -11.47724428 136.03005441 -8.4375 138.375 C-5.99645358 142.03656963 -6.15526988 144.76333992 -6.17871094 148.99584961 C-6.17345398 150.15729744 -6.17345398 150.15729744 -6.16809082 151.34220886 C-6.15928215 153.90401147 -6.16512013 156.46553829 -6.171875 159.02734375 C-6.17052796 160.80709384 -6.16858711 162.58684358 -6.16607666 164.36659241 C-6.16312646 168.09819031 -6.1674192 171.82969251 -6.17675781 175.5612793 C-6.18814402 180.34419608 -6.18159751 185.1268882 -6.16961288 189.90979671 C-6.16238443 193.58579703 -6.16468689 197.26174413 -6.16986847 200.93774605 C-6.17120267 202.70119821 -6.16956529 204.46465521 -6.16490936 206.22810173 C-6.15982888 208.69378317 -6.16757606 211.15910145 -6.17871094 213.62475586 C-6.17466248 214.3537207 -6.17061401 215.08268555 -6.16644287 215.83374023 C-6.197 219.48725421 -6.27637173 222.34802967 -8.4375 225.375 C-11.72834293 227.56889529 -13.53017558 228.06854318 -17.4375 228.375 C-30.46212807 224.95220701 -43.47843377 212.69252613 -52.63671875 203.0625 C-54.43908323 201.0815462 -54.43908323 201.0815462 -57.6875 200.6875 C-63.10947108 201.68152803 -65.54549724 204.63243975 -69.4375 208.375 C-105.3087537 240.39070399 -148.67697784 253.73140764 -196.4375 251.375 C-207.41166702 250.50127735 -217.95449313 248.25697997 -228.46875 245.046875 C-231.53944163 244.351929 -232.56705506 244.30153973 -235.4375 245.375 C-237.48249035 246.98638883 -237.48249035 246.98638883 -239.47167969 249.06860352 C-240.25218689 249.84933731 -241.03269409 250.63007111 -241.83685303 251.4344635 C-242.66928528 252.28237961 -243.50171753 253.13029572 -244.359375 254.00390625 C-245.21936096 254.86813705 -246.07934692 255.73236786 -246.96539307 256.62278748 C-249.71320575 259.38740612 -252.45041036 262.16226862 -255.1875 264.9375 C-257.04748825 266.81253251 -258.90815707 268.68689018 -260.76953125 270.56054688 C-265.33344973 275.15756017 -269.88869938 279.76302955 -274.4375 284.375 C-269.31518885 295.49748446 -252.78846189 301.99185013 -242.4375 307.375 C-241.81536621 307.70242188 -241.19323242 308.02984375 -240.55224609 308.3671875 C-222.79806593 317.59167411 -203.15896619 323.33838238 -183.4375 326.375 C-182.69902832 326.49069336 -181.96055664 326.60638672 -181.19970703 326.72558594 C-131.73649839 334.1390177 -79.43992378 321.23452633 -38.9453125 291.9921875 C5.21683454 259.329854 33.26084542 213.10921876 41.96484375 158.86767578 C49.03126617 110.18677416 37.08811741 57.0147805 7.5625 17.375 C4.72489827 13.72985753 4.72489827 13.72985753 1.5625 10.375 C-0.75926809 10.15065697 -0.75926809 10.15065697 -2.95947266 12.66992188 Z " fill="#030202" transform="translate(409.4375,124.625)"/>
<path d="M0 0 C0.88171875 0.84046875 1.7634375 1.6809375 2.671875 2.546875 C3.47109375 3.30484375 4.2703125 4.0628125 5.09375 4.84375 C10.77764728 10.37085011 15.7629043 16.32940108 20.671875 22.546875 C21.44144531 23.48789063 22.21101563 24.42890625 23.00390625 25.3984375 C51.28476183 60.76092897 67.18689746 103.90838492 72.671875 148.546875 C72.80464844 149.61164063 72.93742187 150.67640625 73.07421875 151.7734375 C79.38060818 215.87399851 58.72689829 279.65229353 18.27392578 329.26123047 C7.84287277 341.9247337 -3.36713711 353.45190837 -16.328125 363.546875 C-17.26398438 364.31128906 -18.19984375 365.07570313 -19.1640625 365.86328125 C-54.5086028 394.16617149 -97.69421865 410.06246069 -142.328125 415.546875 C-143.39289063 415.67964844 -144.45765625 415.81242187 -145.5546875 415.94921875 C-207.42063483 422.03576074 -271.40661569 403.0584353 -319.703125 363.984375 C-326.46749097 358.40953016 -332.98347284 352.59470132 -339.328125 346.546875 C-340.12734375 345.78890625 -340.9265625 345.0309375 -341.75 344.25 C-347.43389728 338.72289989 -352.4191543 332.76434892 -357.328125 326.546875 C-358.09769531 325.60585938 -358.86726563 324.66484375 -359.66015625 323.6953125 C-387.94101183 288.33282103 -403.84314746 245.18536508 -409.328125 200.546875 C-409.52728516 198.94972656 -409.52728516 198.94972656 -409.73046875 197.3203125 C-415.66363945 137.01328973 -397.78573034 73.99134142 -360.328125 26.296875 C-359.00431364 24.70557186 -357.67010207 23.12288889 -356.328125 21.546875 C-355.42792186 20.46262429 -354.52821897 19.37795813 -353.62890625 18.29296875 C-343.53290924 6.21032384 -332.76797476 -4.76405892 -320.328125 -14.453125 C-319.39226562 -15.21753906 -318.45640625 -15.98195312 -317.4921875 -16.76953125 C-282.1476472 -45.07242149 -238.96203135 -60.96871069 -194.328125 -66.453125 C-192.73097656 -66.65228516 -192.73097656 -66.65228516 -191.1015625 -66.85546875 C-120.43610845 -73.8077304 -51.40977879 -48.07509044 0 0 Z M-260.328125 -38.453125 C-261.06144043 -38.14294434 -261.79475586 -37.83276367 -262.55029297 -37.51318359 C-281.39846222 -29.41459508 -298.47169456 -18.40498346 -314.328125 -5.453125 C-314.95444824 -4.94249512 -315.58077148 -4.43186523 -316.22607422 -3.90576172 C-328.45648607 6.14676438 -339.66779611 16.9626914 -349.328125 29.546875 C-349.84101074 30.20510254 -350.35389648 30.86333008 -350.88232422 31.54150391 C-369.42988952 55.45260758 -382.67369806 81.5755185 -391.328125 110.546875 C-391.69164062 111.74401123 -391.69164062 111.74401123 -392.0625 112.96533203 C-401.75664314 145.59554857 -402.25662429 183.12089235 -396.328125 216.546875 C-396.12388916 217.70219727 -395.91965332 218.85751953 -395.70922852 220.04785156 C-394.04592119 228.90431892 -391.75776762 237.38255337 -388.890625 245.921875 C-388.67736572 246.56007172 -388.46410645 247.19826843 -388.24438477 247.85580444 C-383.71859097 261.29783617 -377.97831191 274.01461476 -371.328125 286.546875 C-370.68641357 287.75802979 -370.68641357 287.75802979 -370.03173828 288.99365234 C-356.54165441 314.02067426 -336.66424046 337.06245675 -314.328125 354.546875 C-313.34328125 355.33707031 -312.3584375 356.12726563 -311.34375 356.94140625 C-285.95259991 377.12637092 -256.75664182 391.48319666 -225.328125 399.546875 C-224.19503906 399.84078125 -223.06195313 400.1346875 -221.89453125 400.4375 C-183.89620141 409.74321343 -138.60298765 408.66601454 -101.328125 396.546875 C-100.39258789 396.2468457 -99.45705078 395.94681641 -98.49316406 395.63769531 C-77.26437699 388.71184626 -56.55103842 379.59570714 -38.328125 366.546875 C-37.70035156 366.09876465 -37.07257813 365.6506543 -36.42578125 365.18896484 C-18.46011134 352.2531572 -2.02645789 338.02901312 11.671875 320.546875 C12.45046875 319.58523438 13.2290625 318.62359375 14.03125 317.6328125 C53.2136759 268.34281813 68.03020397 206.71808737 61.95336914 144.68774414 C59.34776731 123.26411236 53.11521787 102.36086151 44.671875 82.546875 C44.36169434 81.81355957 44.05151367 81.08024414 43.73193359 80.32470703 C35.63408712 61.47826477 24.62681679 44.39911334 11.671875 28.546875 C11.15592773 27.91523437 10.63998047 27.28359375 10.10839844 26.6328125 C0.32168786 14.75205655 -10.17664247 4.04878615 -22.328125 -5.453125 C-23.59650581 -6.47376991 -24.86472459 -7.4946162 -26.1328125 -8.515625 C-36.30237636 -16.60283238 -46.90018532 -23.29139087 -58.328125 -29.453125 C-58.99102539 -29.81744629 -59.65392578 -30.18176758 -60.33691406 -30.55712891 C-72.46387114 -37.18002628 -85.32933705 -41.84262121 -98.328125 -46.453125 C-100.06642578 -47.08734375 -100.06642578 -47.08734375 -101.83984375 -47.734375 C-109.17271521 -50.21534652 -116.74638679 -51.64239254 -124.328125 -53.140625 C-125.40884277 -53.35557617 -126.48956055 -53.57052734 -127.60302734 -53.79199219 C-171.6489332 -62.12770488 -219.35551236 -55.91280261 -260.328125 -38.453125 Z " fill="#030101" transform="translate(424.328125,81.453125)"/>
<path d="M0 0 C0.64718994 0.39566162 1.29437988 0.79132324 1.96118164 1.19897461 C10.77188551 6.70954106 19.14472034 13.01602632 26.375 20.5 C31.7733695 26.03503708 36.04687742 29.37032832 44 29.75 C53.06299442 29.31734449 57.64557539 24.65585783 63.65625 18.3828125 C66.51063797 15.63308542 69.54395033 13.22086111 72.6875 10.8125 C73.2343042 10.39202393 73.7811084 9.97154785 74.34448242 9.53833008 C82.82122053 3.125 82.82122053 3.125 87 3.125 C87 27.215 87 51.305 87 76.125 C77.13362965 73.65840741 68.71554345 64.4465364 61.1640625 57.859375 C54.68580207 52.23790425 50.40238766 48.54295051 41.58984375 48.75 C34.90867334 49.71740929 30.62289276 54.39713156 26.13671875 59.0546875 C-2.01620102 86.33265364 -42.26832574 100.73083986 -81.10571289 100.48339844 C-94.89842124 100.13751598 -108.7533625 97.99203082 -122 94.125 C-122 90.41112055 -121.28730042 90.02076244 -118.75579834 87.43255615 C-118.03584183 86.68968857 -117.31588531 85.94682098 -116.57411194 85.18144226 C-115.37291969 83.96579338 -115.37291969 83.96579338 -114.14746094 82.72558594 C-113.31151901 81.86832413 -112.47557709 81.01106232 -111.61430359 80.12782288 C-108.83014833 77.2791821 -106.03382996 74.44295731 -103.234375 71.609375 C-102.26769892 70.6292371 -101.30109818 69.64902488 -100.33457184 68.66873932 C-96.3038521 64.58259107 -92.26925765 60.5003426 -88.22376633 56.42881393 C-82.45374879 50.62162764 -76.70696759 44.79359368 -70.9921453 38.93206382 C-66.95990671 34.79997145 -62.9022542 30.69391726 -58.82570291 26.60554147 C-56.3995974 24.17116623 -53.9850006 21.72770279 -51.59703827 19.25585175 C-38.07707145 5.32652286 -19.93145261 -12.350293 0 0 Z " fill="#808081" transform="translate(307,266.875)"/>
<path d="M0 0 C0.97839844 0.53238281 1.95679688 1.06476563 2.96484375 1.61328125 C4.9899899 2.72102683 7.0014297 3.84527049 9 5 C9 5.66 9 6.32 9 7 C7.7096405 8.27035522 7.7096405 8.27035522 5.81713867 9.81396484 C-0.48963341 15.18261008 -6.23481785 21.11132859 -12.07421875 26.9765625 C-13.32854048 28.23275379 -14.58308649 29.48872116 -15.83784485 30.74447632 C-19.12109191 34.03151663 -22.40132637 37.32154696 -25.6809082 40.61224365 C-29.01527255 43.95685166 -32.35247713 47.29862303 -35.68945312 50.640625 C-41.07803847 56.03796551 -46.46493201 61.43698731 -51.84947205 66.83836365 C-54.12493082 69.12074656 -56.40228941 71.4011004 -58.68458557 73.676651 C-60.87671144 75.87628895 -63.01810367 78.11766134 -65.14727783 80.37812805 C-67.26905995 82.62147016 -69.41603148 84.84006908 -71.56396484 87.05834961 C-72.68904927 88.22888705 -73.80594994 89.40734523 -74.91455078 90.59350586 C-84.13247554 100.43676723 -84.13247554 100.43676723 -88.60498047 101.78564453 C-90.89275525 101.80807838 -92.78596622 101.55038609 -95 101 C-95.98226562 100.90203125 -96.96453125 100.8040625 -97.9765625 100.703125 C-106.1335032 99.30754223 -114.04202795 97.23953858 -122 95 C-120.82823701 92.0326997 -119.61899032 89.08375181 -118.37890625 86.14453125 C-113.56953529 74.7881692 -113.56953529 74.7881692 -110 63 C-109.79632813 62.23816406 -109.59265625 61.47632813 -109.3828125 60.69140625 C-103.6681537 35.60170563 -111.13291013 11.48105878 -122 -11 C-114.76829828 -13.57399553 -107.52158173 -15.46814468 -100 -17 C-98.97648437 -17.20882812 -97.95296875 -17.41765625 -96.8984375 -17.6328125 C-64.00919405 -23.3144093 -28.90584223 -16.31388689 0 0 Z " fill="#808081" transform="translate(302,164)"/>
<path d="M0 0 C5.17528937 9.08187916 9.53900305 17.75448113 12 28 C12.22429687 28.92683594 12.44859375 29.85367188 12.6796875 30.80859375 C17.25667256 53.41137612 12.51989138 76.18964286 1 96 C0.01 96.66 -0.98 97.32 -2 98 C-22.31135332 88.07112505 -46.7325933 75.85635947 -58.4375 55.5 C-59.87423151 49.11452663 -59.44356792 43.62698961 -56 38 C-45.83139928 23.59448231 -18.32770233 0 0 0 Z " fill="#595B5E" transform="translate(171,157)"/>
<path d="M0 0 C5.03587106 2.03901984 8.46209059 3.77025973 11.0859375 8.66015625 C14.19806793 16.21980399 16.7962876 24.93442391 16.0859375 33.16015625 C14.51837158 35.4828949 14.51837158 35.4828949 12.29394531 37.71264648 C11.05200409 38.97811562 11.05200409 38.97811562 9.78497314 40.26914978 C8.87882263 41.16001785 7.97267212 42.05088593 7.0390625 42.96875 C6.11631531 43.89486588 5.19356812 44.82098175 4.24285889 45.77516174 C2.29179012 47.73055668 0.33057302 49.6749762 -1.63867188 51.61206055 C-4.16406022 54.09758507 -6.6640364 56.60697854 -9.15717697 59.12480068 C-11.53766788 61.5228624 -13.93740055 63.90123533 -16.3359375 66.28125 C-17.68301788 67.63880653 -17.68301788 67.63880653 -19.05731201 69.02378845 C-20.3181662 70.2561599 -20.3181662 70.2561599 -21.60449219 71.51342773 C-22.71035675 72.60880104 -22.71035675 72.60880104 -23.83856201 73.7263031 C-25.9140625 75.16015625 -25.9140625 75.16015625 -28.04864502 74.97938538 C-34.96568025 71.94165426 -40.76415777 65.49824675 -46.3515625 60.47265625 C-46.85945313 60.02164551 -47.36734375 59.57063477 -47.890625 59.10595703 C-53.39694524 54.0701836 -55.94348179 49.30026681 -56.2890625 41.91015625 C-56.11034144 33.469023 -50.35487567 28.11821162 -44.61889648 22.44238281 C-38.55198938 16.67986212 -31.83770306 11.83412725 -24.9140625 7.16015625 C-24.24697266 6.70737305 -23.57988281 6.25458984 -22.89257812 5.78808594 C-20.91669643 4.46670315 -18.92203138 3.18213854 -16.9140625 1.91015625 C-16.31561523 1.51489746 -15.71716797 1.11963867 -15.10058594 0.71240234 C-9.61725968 -2.63545766 -5.89805591 -1.69984185 0 0 Z " fill="#595B5E" transform="translate(167.9140625,263.83984375)"/>
<path d="M0 0 C-25.71193464 26.17461727 -65.46292341 39.01332318 -101.5 39.375 C-116.16872313 39.28154238 -130.91586882 37.11151656 -145 33 C-145 27.38323786 -139.05035107 22.91362145 -135.30761719 18.98266602 C-134.1962925 17.79700577 -133.10599655 16.59123727 -132.0390625 15.36547852 C-123.23235171 5.26487132 -123.23235171 5.26487132 -116.0612793 4.67724609 C-113.06019546 4.96066851 -110.1368434 5.52851803 -107.18066406 6.10864258 C-101.22839953 7.26601119 -95.364059 7.27366694 -89.31640625 7.265625 C-87.641763 7.2689257 -87.641763 7.2689257 -85.93328857 7.27229309 C-83.6361053 7.27306011 -81.33891602 7.26916087 -79.04174805 7.26074219 C-75.57127371 7.25002709 -72.10131806 7.26069558 -68.63085938 7.2734375 C-51.96076573 7.28471883 -35.58624211 6.53216046 -19.25 3 C-18.03570312 2.7525 -18.03570312 2.7525 -16.796875 2.5 C-13.17536531 1.74747851 -9.64089179 0.91448115 -6.109375 -0.1875 C-3 -1 -3 -1 0 0 Z " fill="#A8A8AD" transform="translate(330,328)"/>
<path d="M0 0 C0 24.09 0 48.18 0 73 C-4.99150642 72.00169872 -6.65395039 71.11357807 -10.5625 68.125 C-11.07844727 67.73151367 -11.59439453 67.33802734 -12.12597656 66.93261719 C-16.02558106 63.90221587 -19.64977609 60.62639363 -23.25 57.25 C-31.80368208 49.13113779 -31.80368208 49.13113779 -42.9375 46.3125 C-51.474019 46.72002226 -56.25978738 51.09870109 -61.9375 57.0625 C-70.91483701 66.33751485 -82.17107897 73.77063545 -93.5 79.875 C-94.44286865 80.3846228 -94.44286865 80.3846228 -95.40478516 80.90454102 C-96.90209444 81.67406699 -98.44804418 82.34766692 -100 83 C-100.66 82.67 -101.32 82.34 -102 82 C-95.19658789 74.96411425 -88.36582405 67.9560504 -81.49956894 60.98144722 C-78.31151327 57.74136899 -75.13335554 54.49273594 -71.9765625 51.22216797 C-68.92532756 48.06167273 -65.84976195 44.92679368 -62.75635529 41.80758286 C-61.58501129 40.6178686 -60.42245103 39.41943504 -59.26934052 38.21203995 C-52.99530672 31.65486539 -48.06216906 26.75431336 -38.50154114 26.19197083 C-32.60939904 25.73980181 -28.60379751 20.82975675 -24.5625 16.9375 C-19.91726478 12.56916779 -15.0647245 8.60305266 -9.9375 4.8125 C-8.97275757 4.09018188 -8.97275757 4.09018188 -7.98852539 3.35327148 C-3.37202258 0 -3.37202258 0 0 0 Z " fill="#7E7E7F" transform="translate(394,169)"/>
<path d="M0 0 C0.70640625 0.10957031 1.4128125 0.21914062 2.140625 0.33203125 C5.04675649 0.78109428 7.95350945 1.22597562 10.86035156 1.67041016 C13.12379942 2.01906997 15.38608169 2.37479629 17.6484375 2.73046875 C29.07165516 4.5065568 40.49301381 5.89355902 52 7 C47.10987101 12.85993608 41.95973661 18.4542466 36.64233398 23.92749023 C35.66872933 24.93801965 34.70420447 25.95737279 33.7487793 26.98510742 C25.8164425 35.50502473 25.8164425 35.50502473 21.49316406 36.68310547 C19.20969472 36.70644506 17.22928013 36.47363522 15 36 C14.01773438 35.90203125 13.03546875 35.8040625 12.0234375 35.703125 C3.8664968 34.30754223 -4.04202795 32.23953858 -12 30 C-10.81650687 27.01477106 -9.60740155 24.04113745 -8.37890625 21.07421875 C-8.08306641 20.35943359 -7.78722656 19.64464844 -7.48242188 18.90820312 C-6.87385612 17.43911764 -6.26449357 15.97036194 -5.65429688 14.50195312 C-3.66970436 9.70190832 -1.80026486 4.87227645 0 0 Z " fill="#A8A8AD" transform="translate(192,229)"/>
<path d="M0 0 C3.93792318 2.56821077 6.74612583 5.61725165 8.875 9.875 C9.44235892 14.52548294 9.3348631 17.97230577 7.1875 22.1875 C3.16318724 26.86440402 -0.09235139 29.51821781 -6.3125 30.25 C-11.27779323 29.7616105 -14.35006095 28.08029735 -18.125 24.875 C-21.74102678 20.01596402 -21.96369918 14.72683289 -21.125 8.875 C-17.0804593 0.13879209 -9.09890332 -3.2756052 0 0 Z " fill="#020202" transform="translate(162.125,177.125)"/>
<path d="M0 0 C3.00617269 3.00617269 2.59585316 5.82381598 3 10 C3.9075 9.938125 4.815 9.87625 5.75 9.8125 C9 10 9 10 11.375 11 C13.5731703 13.70544036 13.5712063 15.7087924 13.3828125 19.125 C13 21 13 21 11.375 23 C8.44617664 24.23318878 6.14711179 24.2145758 3 24 C2.9175 25.258125 2.835 26.51625 2.75 27.8125 C2.3784226 30.64452231 2.17684977 31.77553683 0.375 34.0625 C-3.07725338 35.4252316 -5.45531886 34.91899141 -9 34 C-11.4294516 30.3558226 -11.16179575 28.28758728 -11 24 C-12.60875 24.12375 -12.60875 24.12375 -14.25 24.25 C-18 24 -18 24 -20.4375 22.375 C-22.47161336 19.28314769 -22.60605429 17.63632575 -22 14 C-20.4375 11.625 -20.4375 11.625 -18 10 C-14.25 9.75 -14.25 9.75 -11 10 C-11.0825 8.741875 -11.165 7.48375 -11.25 6.1875 C-11.2293363 2.30272391 -11.2293363 2.30272391 -9.4375 -0.0625 C-5.9788559 -1.39274773 -3.5559841 -0.85607025 0 0 Z " fill="#87D047" transform="translate(439,20)"/>
<path d="M0 0 C3.46674195 2.33803527 5.86828237 4.76445593 7.4375 8.6875 C8.18667823 15.05551495 7.76586375 18.81476196 4.09375 24.078125 C1.50567284 27.27008683 -0.5386143 28.57737085 -4.640625 29.12109375 C-10.36844388 29.40405486 -13.91758357 28.78885296 -18.3125 24.8125 C-22.43702838 20.36235096 -23.04398092 16.3810384 -22.8359375 10.5078125 C-21.99405342 6.17273774 -19.73333864 3.50366435 -16.3125 0.8125 C-11.10813333 -2.32697625 -5.59673172 -2.00637552 0 0 Z " fill="#020202" transform="translate(163.3125,278.1875)"/>
<path d="M0 0 C0.66 0 1.32 0 2 0 C2.391875 1.216875 2.78375 2.43375 3.1875 3.6875 C6.29161735 11.775292 12.49535006 14.57554808 20 18 C18.62541393 20.74917214 17.03486983 21.01411102 14.25 22.25 C8.22613471 25.18448295 5.17124839 27.98821843 2.6875 34.375 C2.460625 35.24125 2.23375 36.1075 2 37 C-1 36 -1 36 -1.921875 34.36328125 C-2.19515625 33.68652344 -2.4684375 33.00976562 -2.75 32.3125 C-5.50081229 26.46439907 -9.46398113 23.01440755 -15.4375 20.625 C-16.7059375 20.315625 -16.7059375 20.315625 -18 20 C-17.505 18.515 -17.505 18.515 -17 17 C-15.14453125 16.11328125 -15.14453125 16.11328125 -12.8125 15.3125 C-6.45509826 12.68045469 -3.42779526 8.11518966 -0.625 2 C-0.315625 1.01 -0.315625 1.01 0 0 Z " fill="#F5C84B" transform="translate(115,475)"/>
<path d="M0 0 C0.66 0 1.32 0 2 0 C3.0078125 1.609375 3.0078125 1.609375 4.125 3.75 C6.94208567 8.52128024 9.93874559 9.94118465 15 12 C14 14 14 14 11.1875 15.375 C6.12871846 17.95398667 3.79238288 20.62285136 2 26 C1.34 26 0.68 26 0 26 C-0.1959375 25.46890625 -0.391875 24.9378125 -0.59375 24.390625 C-2.85858492 19.04092873 -5.04092873 16.85858492 -10.390625 14.59375 C-10.92171875 14.3978125 -11.4528125 14.201875 -12 14 C-12 13.34 -12 12.68 -12 12 C-10.35546875 10.8515625 -10.35546875 10.8515625 -8.1875 9.625 C-3.8257467 7.00486551 -1.63097275 4.89291826 0 0 Z " fill="#6FD6F9" transform="translate(62,52)"/>
<path d="M0 0 C-10.45097562 10.13942892 -23.57306617 19.21576879 -37 25 C-37.66 24.67 -38.32 24.34 -39 24 C-18.42672869 1.08612898 -18.42672869 1.08612898 -4.95703125 -0.9609375 C-2 -1 -2 -1 0 0 Z " fill="#A4A4A8" transform="translate(331,227)"/>
<path d="M0 0 C2 3 2 3 1.8125 6.5 C1 10 1 10 -0.1875 11.9375 C-2.92243127 13.54073557 -4.8903393 13.38077478 -8 13 C-10.3125 11.875 -10.3125 11.875 -12 10 C-12.9220483 6.90455213 -13.24273921 4.87386117 -12.375 1.75 C-8.78844011 -2.81471259 -4.89081062 -2.28237829 0 0 Z " fill="#FC647D" transform="translate(68,448)"/>
<path d="M0 0 C2.5 2.125 2.5 2.125 4 5 C3.936318 8.18409977 3.51040601 10.14932332 1.875 12.875 C-1.12446786 14.67468071 -3.59386668 14.36494286 -7 14 C-9.71983633 12.3680982 -9.96240047 11.13593678 -10.8125 8.0625 C-11.00755889 4.87653809 -10.81274484 3.57600582 -9 1 C-5.87139505 -0.56430248 -3.44397075 -0.35627284 0 0 Z " fill="#F5C84B" transform="translate(384,0)"/>
<path d="M0 0 C7.425 0.99 7.425 0.99 15 2 C15 5 15 5 12.8125 7.48046875 C11.884375 8.37378906 10.95625 9.26710938 10 10.1875 C9.071875 11.08855469 8.14375 11.98960937 7.1875 12.91796875 C6.465625 13.60503906 5.74375 14.29210937 5 15 C4.34 14.67 3.68 14.34 3 14 C1.75498373 9.37973321 0.93082238 4.696422 0 0 Z " fill="#7E7E7F" transform="translate(189,272)"/>
<path d="M0 0 C2.4375 0.75 2.4375 0.75 4.4375 2.75 C4.80546448 5.62012296 4.81259409 7.15774618 3.25 9.625 C1.4375 10.75 1.4375 10.75 -1.125 10.5625 C-3.5625 9.75 -3.5625 9.75 -5.5625 7.75 C-5.875 4.75 -5.875 4.75 -5.5625 1.75 C-2.5625 -0.25 -2.5625 -0.25 0 0 Z " fill="#787878" transform="translate(156.5625,186.25)"/>
<path d="M0 0 C0.99 0.103125 1.98 0.20625 3 0.3125 C5 3.3125 5 3.3125 4.625 6.5 C4.41875 7.428125 4.2125 8.35625 4 9.3125 C0.625 9.9375 0.625 9.9375 -3 10.3125 C-5 8.3125 -5 8.3125 -5.25 5.3125 C-4.90578549 1.18192588 -4.11441953 0.42858537 0 0 Z " fill="#7B7B7C" transform="translate(156,286.6875)"/>
</svg>
