<?xml version="1.0" encoding="UTF-8"?>
<svg version="1.1" xmlns="http://www.w3.org/2000/svg" width="512" height="512">
<path d="M0 0 C6.07707408 -0.10420354 12.15368748 -0.18467866 18.23147607 -0.23241532 C20.13692939 -0.25010807 22.04233356 -0.27451406 23.94760871 -0.30601013 C26.56752315 -0.34754598 29.18637871 -0.3635624 31.80657864 -0.37279844 C32.57976948 -0.39029681 33.35296032 -0.40779518 34.14958119 -0.42582381 C37.63611702 -0.41193998 39.61051107 -0.21833093 42.46004295 1.86807394 C44.62491251 4.97842556 44.53274159 7.8561097 44.4822073 11.51155519 C44.48761028 12.25673906 44.49301327 13.00192293 44.49857998 13.76968813 C44.51107096 16.22897173 44.4945749 18.68708542 44.47659206 21.14632082 C44.47674704 22.85738101 44.47823587 24.56844156 44.48100185 26.27949953 C44.48238601 29.86400815 44.46982535 33.44811672 44.44705105 37.03255129 C44.41866619 41.62611736 44.42140343 46.21901873 44.43414116 50.81263399 C44.44109777 54.34541417 44.4333093 57.87804084 44.42088413 61.41080141 C44.41636944 63.10447015 44.41603299 64.79815536 44.41994953 66.49182558 C44.42286163 68.85942253 44.40635589 71.22610508 44.38455105 73.59358644 C44.3890527 74.29292803 44.39355434 74.99226961 44.39819241 75.71280336 C44.35201472 78.73210096 44.12296371 80.79658778 42.64274502 83.45625734 C38.99951527 86.95497792 34.29638351 86.1886789 29.57888699 86.15388918 C28.70195029 86.15038674 27.8250136 86.14688431 26.92150307 86.14327574 C14.41392939 86.06593724 1.90990689 85.73571229 -10.59372044 85.43147707 C-13.3334414 85.36619362 -16.07317768 85.30156225 -18.81291294 85.23688173 C-24.53391474 85.10144882 -30.25487113 84.96422057 -35.97580051 84.82576418 C-41.77328865 84.68546507 -47.57081094 84.54672118 -53.36837864 84.40974855 C-115.02533233 82.95297113 -115.02533233 82.95297113 -142.01950169 82.05257082 C-142.35837268 96.78620752 -142.45943454 109.92117162 -138.01950169 124.05257082 C-131.9666166 144.11066701 -133.45235806 166.35113994 -140.01950169 186.05257082 C-139.12489231 185.71483644 -138.23028294 185.37710207 -137.30856419 185.02913332 C-136.09942356 184.58311769 -134.89028294 184.13710207 -133.64450169 183.67757082 C-131.86946262 183.01628176 -131.86946262 183.01628176 -130.05856419 182.34163332 C-121.94863139 179.60027629 -113.92574894 178.66234189 -105.39450169 178.67757082 C-104.44027317 178.67918215 -103.48604465 178.68079348 -102.50290012 178.68245363 C-93.87018611 178.83004613 -86.18714137 180.34563519 -78.01950169 183.05257082 C-77.10168919 183.35292238 -76.18387669 183.65327394 -75.23825169 183.96272707 C-68.38254776 186.46853025 -62.22723646 190.25539972 -56.01950169 194.05257082 C-50.50023603 188.03748461 -45.21035172 181.91353956 -40.16012669 175.49788332 C-36.63591168 171.47204647 -34.58063213 169.30039436 -29.15622044 168.43928957 C-24.08350616 168.71853245 -21.35456473 171.46399183 -17.83200169 174.86507082 C-16.51769765 176.06906984 -15.20257953 177.27218074 -13.88668919 178.47444582 C-12.91167454 179.38226809 -12.91167454 179.38226809 -11.91696262 180.30843019 C-9.17022014 182.83322797 -6.32139121 185.22572928 -3.45700169 187.61507082 C-2.39126433 188.51275713 -1.3261627 189.41119871 -0.26168919 190.31038332 C0.26843777 190.75801027 0.79856472 191.20563723 1.34475613 191.66682863 C4.21247964 194.09626126 7.06546486 196.54283698 9.91799831 198.99007082 C10.49799587 199.48756838 11.07799343 199.98506594 11.67556667 200.49763918 C14.63690762 203.03880372 17.59635314 205.58216023 20.55471706 208.12678957 C21.73821271 209.14383082 22.92180565 210.16075888 24.10549831 211.17757082 C24.67864773 211.67039553 25.25179714 212.16322023 25.84231472 212.67097902 C28.704921 215.12609252 31.58223541 217.55997529 34.49221706 219.95882082 C35.0482864 220.41756594 35.60435574 220.87631105 36.17727566 221.34895754 C37.69866716 222.60000205 39.22421451 223.84598774 40.75002956 225.09163332 C43.02016437 227.0874436 43.80205402 228.00600451 44.30227566 230.93977785 C44.59212521 235.61703436 44.19351438 238.40597194 41.20706081 242.10725832 C40.02876092 243.40128409 38.82745023 244.67468341 37.60549831 245.92757082 C36.40928655 247.21579887 35.2139389 248.50482999 34.01956081 249.79475832 C33.48540554 250.35018312 32.95125027 250.90560793 32.40090847 251.47786379 C30.77406049 253.20470268 30.77406049 253.20470268 28.98049831 256.05257082 C29.72815456 256.00616457 30.47581081 255.95975832 31.24612331 255.91194582 C32.23096706 255.87585207 33.21581081 255.83975832 34.23049831 255.80257082 C35.20502956 255.75616457 36.17956081 255.70975832 37.18362331 255.66194582 C40.78313033 256.16467026 41.71760509 257.26287867 43.98049831 260.05257082 C44.48843288 262.42213869 44.48843288 262.42213869 44.49807644 265.08284426 C44.51068508 266.08619814 44.52329372 267.08955202 44.53628445 268.12331057 C44.52413906 269.75118502 44.52413906 269.75118502 44.51174831 271.41194582 C44.51557522 272.54795229 44.51940212 273.68395876 44.52334499 274.85438967 C44.52607057 277.2720215 44.51866448 279.6896825 44.50198269 282.10725832 C44.48097864 285.71995466 44.50155466 289.33056989 44.52737331 292.94319582 C44.55509439 315.49835981 41.36841267 336.72868701 33.98049831 358.05257082 C33.75668484 358.70451418 33.53287136 359.35645754 33.30227566 360.02815676 C24.36920079 385.4463907 9.26023138 407.48682638 -9.01950169 427.05257082 C-9.7787595 427.86596926 -10.53801731 428.67936769 -11.32028294 429.51741457 C-32.48945125 451.44881153 -60.91919609 467.47054923 -90.01950169 476.05257082 C-90.67950169 476.05257082 -91.33950169 476.05257082 -92.01950169 476.05257082 C-91.9933176 476.96546877 -91.96713352 477.87836672 -91.94015598 478.81892824 C-91.85471626 482.22029426 -91.79215169 485.6205134 -91.74484348 489.02254152 C-91.71976525 490.49212607 -91.68569313 491.96158669 -91.64230442 493.43074465 C-91.5813467 495.54848763 -91.55322853 497.66457658 -91.53122044 499.78303957 C-91.50503635 501.05558596 -91.47885227 502.32813234 -91.45187473 503.63924074 C-92.19705828 508.12027782 -93.4235446 509.30732709 -97.01950169 512.05257082 C-100.12402451 512.77356309 -103.14972304 512.71932856 -106.32554722 512.67403078 C-107.26621412 512.6804196 -108.20688103 512.68680842 -109.17605299 512.69339085 C-112.33011176 512.70865929 -115.48291816 512.68816677 -118.63693333 512.66780519 C-120.89716604 512.6713058 -123.1573963 512.67696368 -125.41761875 512.68462038 C-131.55805447 512.69888576 -137.69804334 512.68178973 -143.83843637 512.65833521 C-150.2587702 512.638254 -156.67908497 512.6441043 -163.09944248 512.64644289 C-173.88091138 512.64638929 -184.66216487 512.62674077 -195.44357395 512.59456301 C-206.53769417 512.56146422 -217.63163191 512.54730607 -228.72580051 512.55354738 C-242.09484952 512.56103149 -255.4637818 512.55366821 -268.83282375 512.53189516 C-273.94000908 512.52370984 -279.04715417 512.52101369 -284.15434551 512.5225873 C-290.16505781 512.52346465 -296.17555128 512.50929018 -302.18620586 512.48336077 C-304.39533522 512.47618375 -306.60448783 512.47412268 -308.81362629 512.4774785 C-311.82280347 512.48117847 -314.83133678 512.46649722 -317.8404398 512.44698 C-318.72029594 512.45230793 -319.60015208 512.45763585 -320.50667053 512.46312523 C-324.03232723 512.42351213 -326.38376576 512.39108531 -329.53069305 510.71542025 C-332.604885 507.28185719 -332.13563457 503.57606379 -332.11715794 499.19710207 C-332.11503551 498.20464731 -332.11503551 498.20464731 -332.11287022 497.19214296 C-332.10728165 495.08307254 -332.09473133 492.97410905 -332.08200169 490.86507082 C-332.0769852 489.43343173 -332.07242256 488.00179097 -332.06832981 486.57014894 C-332.05731599 483.06425494 -332.04005923 479.55842332 -332.01950169 476.05257082 C-332.73380344 475.86501223 -333.4481052 475.67745363 -334.18405247 475.48421144 C-380.18507166 463.2090277 -419.71330043 430.57008354 -443.41159153 389.64876223 C-453.52840205 371.66753711 -460.4654658 353.15011481 -465.01950169 333.05257082 C-465.16955662 332.3912163 -465.31961155 331.72986177 -465.4742136 331.04846621 C-469.1404284 313.84054953 -468.51270481 296.11181141 -468.46554661 278.61531496 C-468.4540076 274.12633587 -468.47439839 269.6381378 -468.50346375 265.149261 C-468.52196004 261.63923764 -468.52150786 258.1293975 -468.51582623 254.61933756 C-468.51567498 252.96544525 -468.52155212 251.31153892 -468.5341177 249.65769434 C-468.66252038 230.01785892 -464.12586549 212.83320086 -450.27902317 198.16487551 C-437.15304614 184.88484295 -420.59578263 178.85449164 -402.08200169 178.67757082 C-392.966092 178.7452106 -383.62885602 179.74954323 -375.13668919 183.23616457 C-372.21337515 184.39952424 -370.17754027 185.07453215 -367.01950169 185.05257082 C-363.18956008 183.16618167 -359.88413756 180.9070404 -356.42965794 178.41975832 C-345.30697302 170.44172309 -329.58252659 168.67782327 -316.29684544 170.58772707 C-308.1991317 171.93043315 -300.62257048 173.87925609 -293.01950169 177.05257082 C-292.51436966 174.34055132 -292.01712329 171.62748803 -291.53122044 168.91194582 C-291.16270624 166.85276728 -290.78235521 164.79569447 -290.39450169 162.74007082 C-288.80097908 147.07043182 -292.17616557 132.83262011 -296.15231419 117.80647707 C-297.70071046 111.10373463 -298.213311 104.5911948 -298.20700169 97.74007082 C-298.20764622 97.00603029 -298.20829075 96.27198977 -298.20895481 95.51570559 C-298.15126727 89.53127918 -297.35733122 83.88654585 -296.01950169 78.05257082 C-297.3356345 78.06417238 -298.65176731 78.07577394 -300.00778294 78.08772707 C-325.39453791 78.25194885 -325.39453791 78.25194885 -329.64450169 75.11507082 C-331.90994264 71.71690938 -332.15612222 69.74609258 -332.19650364 65.67244387 C-332.20933887 64.54755053 -332.22217411 63.42265718 -332.23539829 62.26367617 C-332.24278522 61.04287859 -332.25017216 59.82208101 -332.25778294 58.56428957 C-332.26585468 57.31380327 -332.27392643 56.06331697 -332.28224277 54.77493715 C-332.29609364 52.12436124 -332.30710705 49.47391013 -332.3146677 46.82332277 C-332.32572381 43.43366333 -332.36011389 40.0446619 -332.3998394 36.65523481 C-332.43232474 33.41665172 -332.43678632 30.17801077 -332.44528294 26.93928957 C-332.46279102 25.72456469 -332.48029911 24.5098398 -332.49833775 23.25830507 C-332.49394939 21.55678034 -332.49394939 21.55678034 -332.48947239 19.82088137 C-332.49533863 18.82541796 -332.50120487 17.82995455 -332.50724888 16.80432558 C-331.88425623 13.2895478 -330.45485442 11.61151851 -328.01950169 9.05257082 C-325.05539819 7.57051907 -322.00767502 7.81812093 -318.75192356 7.74300051 C-317.98223932 7.72152043 -317.21255508 7.70004036 -316.41954708 7.67790937 C-313.77588516 7.60544173 -311.1320941 7.53997714 -308.48825169 7.47444582 C-306.53439509 7.42263757 -304.58054812 7.3704652 -302.62670994 7.31796694 C-297.10651702 7.17116572 -291.58617235 7.03097784 -286.06577396 6.89214373 C-282.51359459 6.80242162 -278.96145898 6.71113217 -275.40933323 6.61931276 C-257.36141411 6.15304208 -239.31311311 5.70296158 -221.26469028 5.2566976 C-214.44502921 5.08801844 -207.62539022 4.91846051 -200.80575657 4.74867678 C-171.96431143 4.03091212 -143.12262618 3.32350184 -114.2807343 2.62392485 C-106.04932153 2.42405286 -97.81797035 2.22176284 -89.58664036 2.0185132 C-79.35674723 1.76601159 -69.1267636 1.51757701 -58.89666069 1.2737183 C-53.60274383 1.1474415 -48.30887767 1.01963245 -43.01511097 0.88719797 C-30.64124059 0.57860762 -18.2674119 0.30316508 -5.89132881 0.0997858 C-3.92753626 0.06749959 -1.96376033 0.03418991 0 0 Z " fill="#020100" transform="translate(468.0195016860962,-0.05257081985473633)"/>
<path d="M0 0 C157.08 0 314.16 0 476 0 C473.37024941 42.07600938 456.56876221 77.36246535 428 108 C426.97132813 109.10988281 426.97132813 109.10988281 425.921875 110.2421875 C404.50661886 132.52991703 369.69896901 153.96286728 338.12983704 154.88215637 C334.22890576 154.94500767 330.33203922 154.92221166 326.4309082 154.88989258 C324.25998717 154.89776588 322.08907527 154.90862446 319.91818237 154.92219543 C314.08958216 154.94953955 308.2618836 154.93351837 302.43330789 154.90734696 C296.29587357 154.88569383 290.15849517 154.89943999 284.02104187 154.90763855 C273.723439 154.91576512 263.42619293 154.89528179 253.12866211 154.85766602 C241.26603729 154.81470635 229.40411073 154.81829709 217.54145747 154.8465336 C206.06977534 154.87266663 194.59834986 154.86470162 183.12666893 154.84183311 C178.27102035 154.83279239 173.41560018 154.83560092 168.55996132 154.84833717 C162.83276088 154.86188754 157.1063775 154.84535796 151.37929916 154.80669975 C149.29215129 154.79726147 147.20492842 154.79771801 145.11779213 154.80944061 C131.65289064 154.87695164 120.47173402 153.16755898 108 148 C106.93076451 147.56016187 105.86152903 147.12032373 104.75989246 146.66715717 C102.25755031 145.59804016 99.81600734 144.45204898 97.375 143.25 C96.49875977 142.82299805 95.62251953 142.39599609 94.71972656 141.95605469 C53.80280126 121.63919888 22.82971324 86.21886548 8 43 C3.3355348 28.76065986 0 15.07369907 0 0 Z " fill="#E84E4E" transform="translate(18,307)"/>
<path d="M0 0 C157.08 0 314.16 0 476 0 C473.37024941 42.07600938 456.56876221 77.36246535 428 108 C426.97132813 109.10988281 426.97132813 109.10988281 425.921875 110.2421875 C404.50372661 132.53292712 369.60262158 154.07233838 338.00871277 154.84178162 C334.05265819 154.88689639 330.10107538 154.84546896 326.14526367 154.79467773 C323.94515039 154.79269714 321.7450325 154.79382336 319.54492188 154.79777527 C313.6430426 154.79976202 307.74218424 154.75896362 301.84053969 154.70975757 C295.64670264 154.66563196 289.45283535 154.6618578 283.25886536 154.65357971 C271.56144799 154.63192967 259.86449532 154.57463228 248.16728145 154.50413328 C238.81897008 154.44902896 229.47074666 154.41047458 220.12231445 154.38452148 C219.46173163 154.38268242 218.80114881 154.38084336 218.12054833 154.37894856 C214.80578439 154.36981167 211.4910197 154.36098198 208.17625463 154.35226524 C180.78391336 154.27933933 153.39198286 154.15642473 126 154 C126 153.67 126 153.34 126 153 C126.70547502 153.00590778 127.41095003 153.01181557 128.13780308 153.01790237 C145.41223516 153.15835914 162.68566861 153.23091541 179.96067142 153.23059464 C188.31535213 153.23202746 196.66884079 153.25530376 205.02319336 153.33251953 C212.31656791 153.39987095 219.60865717 153.4236768 226.90231794 153.39809489 C230.75442123 153.38602813 234.60387532 153.39378511 238.45558357 153.4539566 C258.20995293 153.74499974 273.2460325 151.32669874 290 140 C290.73190615 139.5182708 291.46381229 139.0365416 292.21789742 138.54021454 C296.28928841 135.85004936 300.16293811 133.01627306 304 130 C304.89976562 129.32066406 305.79953125 128.64132812 306.7265625 127.94140625 C347.31930752 96.26948573 366.87907091 50.84650363 374 1 C250.58 1 127.16 1 0 1 C0 0.67 0 0.34 0 0 Z " fill="#DD4342" transform="translate(18,307)"/>
<path d="M0 0 C157.74 0 315.48 0 478 0 C478 5.61 478 11.22 478 17 C320.26 17 162.52 17 0 17 C0 11.39 0 5.78 0 0 Z " fill="#E84E4E" transform="translate(17,273)"/>
<path d="M0 0 C0 5.61 0 11.22 0 17 C-112.53 17 -225.06 17 -341 17 C-341 14.36 -341 11.72 -341 9 C-333.3769555 8.10337014 -325.80136321 7.76371606 -318.13110352 7.58276367 C-316.86662636 7.54994923 -315.6021492 7.51713478 -314.29935455 7.48332596 C-310.81241839 7.3929481 -307.32538185 7.30720066 -303.83830953 7.22226214 C-300.06209551 7.12946628 -296.28599208 7.03235291 -292.50987244 6.93580627 C-285.10900819 6.74727398 -277.70804886 6.56276428 -270.30704921 6.37963253 C-261.6652075 6.1656523 -253.02346779 5.94767947 -244.38172746 5.72964978 C-226.97158268 5.29060124 -209.5613044 4.85702196 -192.15097237 4.42547035 C-179.68328032 4.11641403 -167.21562121 3.80606472 -154.74798644 3.49470699 C-134.0421956 2.97762758 -113.33634196 2.46312663 -92.63042396 1.95116454 C-87.20918991 1.81710247 -81.78796393 1.68271955 -76.36674374 1.54809791 C-67.75353438 1.33422722 -59.14030123 1.12137001 -50.52701682 0.91054136 C-46.58676381 0.81408316 -42.64652304 0.71718649 -38.70631218 0.61902046 C-35.08799496 0.52889814 -31.46964596 0.44018251 -27.8512677 0.35254633 C-25.93524779 0.3058003 -24.0192629 0.25762555 -22.10328007 0.20938396 C-14.73307711 0.03266572 -7.37235525 -0.02725568 0 0 Z " fill="#E64E4E" transform="translate(495,17)"/>
<path d="M0 0 C3.63177507 2.04046726 6.58268448 4.28618385 9.625 7.125 C13.16500368 10.37087874 16.76303365 13.48290252 20.5 16.5 C24.0947765 19.4081338 27.58260628 22.38541332 31 25.5 C37.7457678 31.64327499 44.87446321 37.30724619 52 43 C50.5632102 47.57924236 47.95412752 50.54940425 44.6875 53.9375 C43.73170101 54.94531526 42.77726862 55.95442836 41.82421875 56.96484375 C41.40229248 57.4043335 40.98036621 57.84382324 40.5456543 58.29663086 C38.80025085 60.13578362 38.80025085 60.13578362 36.95523071 63.06388855 C35.38863145 64.93144033 34.46488101 65.86571921 32.10699558 66.54679394 C29.77525142 66.73852567 27.50962132 66.74241509 25.1706543 66.68115234 C24.29210281 66.6820285 23.41355133 66.68290466 22.50837708 66.68380737 C19.61274407 66.67963668 16.71944554 66.6330102 13.82421875 66.5859375 C11.81355556 66.5747435 9.80287597 66.56620428 7.79219055 66.56021118 C2.50636416 66.53732905 -2.77846914 66.47841054 -8.06390381 66.4119873 C-13.45978359 66.35055183 -18.85582423 66.32319343 -24.25195312 66.29296875 C-34.83507116 66.22866719 -45.41745292 66.12629466 -56 66 C-55.05263689 64.72393944 -54.10347472 63.4492144 -53.15356445 62.17504883 C-52.62519485 61.46504227 -52.09682526 60.75503571 -51.55244446 60.02351379 C-49.5694537 57.43880995 -47.41530716 55.06308873 -45.1875 52.6875 C-41.00682 48.15634383 -37.08577455 43.47973824 -33.21484375 38.68359375 C-31.04367173 36.05291443 -28.79758643 33.52057576 -26.5 31 C-22.69078183 26.81642763 -19.10836481 22.49175738 -15.55078125 18.09375 C-10.51973946 11.93580412 -5.22941513 5.9891756 0 0 Z " fill="#3C4C62" transform="translate(439,190)"/>
<path d="M0 0 C67.32 0 134.64 0 204 0 C204 5.61 204 11.22 204 17 C136.68 17 69.36 17 0 17 C0 11.39 0 5.78 0 0 Z " fill="#DF4242" transform="translate(154,478)"/>
<path d="M0 0 C5.61 0 11.22 0 17 0 C17 7.86977968 17 7.86977968 15.72265625 12.06640625 C15.45646484 12.96423828 15.19027344 13.86207031 14.91601562 14.78710938 C14.63435547 15.70298828 14.35269531 16.61886719 14.0625 17.5625 C8.19279238 36.99654355 8.50921585 55.95981066 14.3125 75.4375 C20.38826598 96.13987087 18.06178769 113.3746959 12.17797852 133.86230469 C10.20510988 141.08536921 9.49047002 147.7723512 9.5625 155.25 C9.56789795 156.33611572 9.5732959 157.42223145 9.57885742 158.54125977 C9.76844855 168.64204574 11.75019726 177.24117839 14.93359375 186.8046875 C16.9815999 193.09569203 17.25534726 198.36097131 17 205 C11.39 205 5.78 205 0 205 C-0.04125 203.47375 -0.0825 201.9475 -0.125 200.375 C-0.70871441 192.96359585 -2.74559449 186.03508469 -4.82861328 178.91943359 C-10.91382594 157.92526336 -7.56178502 139.5160197 -1.75610352 118.83642578 C2.39214149 103.27481438 0.36827462 87.24498527 -4 72 C-8.68772015 55.45140404 -10.15899367 39.66918544 -5 23 C-4.2606469 20.23682443 -3.56783297 17.46264562 -2.875 14.6875 C-2.70452148 14.02911133 -2.53404297 13.37072266 -2.35839844 12.69238281 C-1.27426739 8.43129518 -0.62789555 4.39526882 0 0 Z " fill="#F9B02F" transform="translate(298,51)"/>
<path d="M0 0 C5.61 0 11.22 0 17 0 C16.44400708 8.67348948 14.75510375 16.02720604 11.875 24.1875 C9.59060201 31.53020781 9.78486579 39.06496625 9.75 46.6875 C9.729375 47.79544922 9.70875 48.90339844 9.6875 50.04492188 C9.64073651 60.04646373 11.72687583 68.6655961 15.1875 78 C17.31189431 85.31281889 17.40418355 92.47629402 17.4375 100.0625 C17.4523645 101.81916992 17.4523645 101.81916992 17.4675293 103.61132812 C17.36500283 114.14426256 15.35730343 123.95425863 11.6484375 133.8046875 C6.07914645 152.6597572 9.83896321 174.92837023 16.47265625 192.96484375 C17.50408217 196.94538379 17.17243026 200.91915055 17 205 C11.39 205 5.78 205 0 205 C-0.226875 202.710625 -0.45375 200.42125 -0.6875 198.0625 C-1.5653343 190.2966683 -3.52111875 183.07732893 -5.87890625 175.64453125 C-7.85649374 169.21564928 -8.18278389 163.50465705 -8.1875 156.8125 C-8.19974609 155.91724609 -8.21199219 155.02199219 -8.22460938 154.09960938 C-8.24131066 146.38918165 -7.13870067 139.27826867 -4.7109375 131.95703125 C2.13719237 111.23447483 1.38586672 86.50286827 -6.0703125 66.06640625 C-11.61805992 47.76816371 -6.89572136 28.21278249 -1.8671875 10.4375 C-0.79528647 6.44221742 -0.79528647 6.44221742 0 0 Z " fill="#FAB12F" transform="translate(230,51)"/>
<path d="M0 0 C5.61 0 11.22 0 17 0 C16.58963423 7.59176677 15.26054454 14.27449522 13.03515625 21.54296875 C12.69355469 22.68378906 12.35195313 23.82460937 12 25 C11.63519531 26.20269531 11.27039063 27.40539062 10.89453125 28.64453125 C9.54319703 34.19972036 9.61715493 39.81108258 9.625 45.5 C9.62588623 46.65258301 9.62677246 47.80516602 9.62768555 48.99267578 C9.75630216 58.30921919 11.24624025 66.14007733 14 75 C16.61580221 83.71636298 17.57776823 91.84496235 17.5625 100.9375 C17.56431274 102.8237207 17.56431274 102.8237207 17.56616211 104.74804688 C17.38185372 115.45017525 15.34843121 124.95077813 11.66430664 134.96484375 C6.69052529 150.20241865 9.2193227 169.0411065 14 184 C16.03043641 191.21272181 17.37560449 197.48791015 17 205 C11.39 205 5.78 205 0 205 C-0.20625 202.81375 -0.4125 200.6275 -0.625 198.375 C-1.38269186 191.39865501 -3.10001264 184.95503695 -5.125 178.25 C-10.40617747 160.26460462 -8.83194673 142.76002254 -2.90234375 125.10546875 C-0.57325621 117.08977788 -0.63991265 108.78340164 -0.5625 100.5 C-0.55224289 99.47786911 -0.55224289 99.47786911 -0.54177856 98.43508911 C-0.48048999 86.00842199 -2.57896695 74.98406835 -6.35595703 63.12109375 C-10.93456323 48.04189334 -8.05537267 29.8050608 -2.6953125 15.3046875 C-1.19638543 10.33633372 -0.70162707 5.12727475 0 0 Z " fill="#FAB12F" transform="translate(264,51)"/>
<path d="M0 0 C5.28 0 10.56 0 16 0 C15.95359375 2.11277344 15.9071875 4.22554688 15.859375 6.40234375 C15.58816247 22.16785423 15.89759375 36.28266798 20.78637695 51.43774414 C22.94741663 58.62373501 23.57610222 65.32420436 23.5625 72.8125 C23.56431274 74.5617981 23.56431274 74.5617981 23.56616211 76.34643555 C23.36932692 87.03001068 21.11386796 96.6591291 17.66430664 106.7277832 C12.25942094 125.2148362 15.82041258 145.54690523 21.46875 163.41796875 C23.0214868 168.48082653 23.30671081 172.7256694 23 178 C17.39 178 11.78 178 6 178 C5.82984375 176.77925781 5.6596875 175.55851563 5.484375 174.30078125 C4.21352375 165.54919688 2.7856617 157.23019248 -0.1328125 148.859375 C-5.07816738 132.55306972 -2.71326394 114.34015354 2.58984375 98.53125 C8.0977317 81.75132367 6.60456388 59.40109632 0.91015625 42.828125 C-1.91230661 34.59175652 -2.36841832 27.18661892 -2.375 18.5 C-2.37653076 17.3651416 -2.37806152 16.2302832 -2.37963867 15.06103516 C-2.30307961 9.31525608 -1.86896048 5.60688145 0 0 Z " fill="#FAB12F" transform="translate(190,78)"/>
<path d="M0 0 C10.52806257 8.25979654 18.14612174 18.05555153 24.21875 29.9375 C24.55366455 30.59129639 24.8885791 31.24509277 25.23364258 31.91870117 C27.28418417 36.1618904 28.21359673 39.86916261 28.65625 44.5625 C25.35625 44.5625 22.05625 44.5625 18.65625 44.5625 C18.43710938 43.74007812 18.21796875 42.91765625 17.9921875 42.0703125 C15.82608645 34.44493238 13.17418985 28.07784484 8.65625 21.5625 C7.934375 20.510625 7.2125 19.45875 6.46875 18.375 C-3.39440432 8.51184568 -15.72156245 4.23216556 -29.46875 4.0625 C-42.83931968 4.24198007 -52.3028972 9.23215359 -62.15625 18.21484375 C-68.92691134 25.42630336 -72.73870991 34.93225949 -74.34375 44.5625 C-80.28375 44.5625 -86.22375 44.5625 -92.34375 44.5625 C-95.73766474 37.77467052 -93.7514222 25.68413719 -91.78125 18.6875 C-86.95621268 5.09584557 -78.25997209 -5.09471237 -65.34375 -11.4375 C-44.26829642 -20.90721394 -17.55174344 -13.11290346 0 0 Z " fill="#DCDCDA" transform="translate(110.34375,211.4375)"/>
<path d="M0 0 C53.79 0 107.58 0 163 0 C163 5.61 163 11.22 163 17 C147.47026988 17.09849723 131.9883729 17.04419569 116.46826172 16.42382812 C105.09270323 15.99126359 93.71678461 15.80444547 82.33483887 15.61834717 C54.5376842 15.16140353 26.77489789 14.18466225 -1 13 C-0.67 8.71 -0.34 4.42 0 0 Z " fill="#C93838" transform="translate(332,51)"/>
<path d="M0 0 C157.74 0 315.48 0 478 0 C478 5.61 478 11.22 478 17 C444.34 17 410.68 17 376 17 C376 11.72 376 6.44 376 1 C252.25 1 128.5 1 1 1 C1 6.28 1 11.56 1 17 C0.67 17 0.34 17 0 17 C0 11.39 0 5.78 0 0 Z " fill="#DA4242" transform="translate(17,273)"/>
<path d="M0 0 C0.46148437 0.85980469 0.92296875 1.71960938 1.3984375 2.60546875 C14.64146812 26.79409358 33.34633587 45.03307452 57 59 C55.63408831 62.54243452 54.09068516 65.92627929 52.375 69.3125 C51.70597656 70.63701172 51.70597656 70.63701172 51.0234375 71.98828125 C50.68570313 72.65214844 50.34796875 73.31601562 50 74 C37.20854565 71.25548009 25.3517448 59.64577975 16 51 C15.18015625 50.25105469 14.3603125 49.50210938 13.515625 48.73046875 C2.00204668 37.72724408 -8.64882283 23.65656269 -15 9 C-14 6 -14 6 -11.34765625 4.39453125 C-10.26355469 3.87246094 -9.17945313 3.35039062 -8.0625 2.8125 C-6.98097656 2.28269531 -5.89945313 1.75289063 -4.78515625 1.20703125 C-2 0 -2 0 0 0 Z " fill="#030101" transform="translate(66,356)"/>
<path d="M0 0 C0.5053125 0.42152344 1.010625 0.84304687 1.53125 1.27734375 C0.15940653 5.34233256 -1.68943459 7.95130936 -4.59375 11.08984375 C-5.31820312 11.88003906 -6.04265625 12.67023438 -6.7890625 13.484375 C-7.34335937 14.07605469 -7.89765625 14.66773438 -8.46875 15.27734375 C-9.44457031 14.85582031 -10.42039062 14.43429688 -11.42578125 14 C-12.71090988 13.44655044 -13.99606766 12.89316856 -15.28125 12.33984375 C-15.92384766 12.06205078 -16.56644531 11.78425781 -17.22851562 11.49804688 C-27.75395393 6.97156304 -41.5469394 6.12191226 -52.59375 9.77734375 C-58.2902064 12.31518811 -66.60595182 16.55174738 -69.46875 22.27734375 C-70.12875 22.27734375 -70.78875 22.27734375 -71.46875 22.27734375 C-71.97655894 20.070793 -72.47466365 17.8620077 -72.96875 15.65234375 C-73.2471875 14.42257813 -73.525625 13.1928125 -73.8125 11.92578125 C-74.94609881 5.62351166 -74.94609881 5.62351166 -74.46875 2.27734375 C-68.63774236 -3.4295999 -60.16707924 -6.4292917 -52.46875 -8.72265625 C-51.36273438 -9.06103516 -51.36273438 -9.06103516 -50.234375 -9.40625 C-33.58472089 -13.81172417 -14.07378575 -9.82047392 0 0 Z " fill="#AB534A" transform="translate(398.46875,206.72265625)"/>
<path d="M0 0 C7.00471619 4.13068812 12.08838711 9.56841615 15.5 16.9375 C15.5 18.5875 15.5 20.2375 15.5 21.9375 C-3.64 21.9375 -22.78 21.9375 -42.5 21.9375 C-38.78949434 10.80598303 -35.90075968 5.77786682 -25.76953125 0.06640625 C-18.22589482 -3.68593614 -7.60490103 -3.57395195 0 0 Z " fill="#F68300" transform="translate(95.5,234.0625)"/>
<path d="M0 0 C2 2 2 2 2.22705078 3.97119141 C2.21657715 4.75671387 2.20610352 5.54223633 2.1953125 6.3515625 C2.18886719 7.20234375 2.18242187 8.053125 2.17578125 8.9296875 C2.15902344 9.81914062 2.14226562 10.70859375 2.125 11.625 C2.11597656 12.5221875 2.10695312 13.419375 2.09765625 14.34375 C2.0740497 16.56276586 2.0411231 18.78125077 2 21 C0.8759375 20.67386719 -0.248125 20.34773438 -1.40625 20.01171875 C-6.14528726 18.8300882 -10.63776349 18.73835675 -15.5 18.8125 C-16.30308594 18.81314453 -17.10617188 18.81378906 -17.93359375 18.81445312 C-21.84459429 18.84297744 -25.47213293 19.06179163 -29.31640625 19.79296875 C-33 20 -33 20 -35.43359375 18.15625 C-36.09488281 17.2796875 -36.75617188 16.403125 -37.4375 15.5 C-41.48789731 10.48992667 -45.7716344 6.73278111 -51 3 C-50 0 -50 0 -47.63671875 -1.3515625 C-46.66347656 -1.77179688 -45.69023438 -2.19203125 -44.6875 -2.625 C-43.72199219 -3.05039063 -42.75648437 -3.47578125 -41.76171875 -3.9140625 C-28.47011907 -9.14046238 -12.50679965 -6.05243991 0 0 Z " fill="#D1D1CF" transform="translate(169,194)"/>
<path d="M0 0 C1.09441406 -0.02416992 1.09441406 -0.02416992 2.2109375 -0.04882812 C7.40278355 -0.0534637 10.98138524 0.99069262 15.625 3.3125 C14.04958807 6.89069624 11.86813686 9.62729973 9.375 12.625 C8.62734375 13.52863281 7.8796875 14.43226563 7.109375 15.36328125 C6.28953125 16.33652344 5.4696875 17.30976563 4.625 18.3125 C4.24649902 18.93954834 3.86799805 19.56659668 3.47802734 20.21264648 C2.00682773 22.42392615 0.82949988 23.81036772 -1.375 25.3125 C-6.02793579 26.17170689 -10.53908837 25.97327758 -15.25 25.75 C-17.14105469 25.70262695 -17.14105469 25.70262695 -19.0703125 25.65429688 C-22.17426335 25.57199515 -25.2734281 25.4570621 -28.375 25.3125 C-28.52483026 18.47260162 -26.53921711 14.69198863 -22.375 9.3125 C-15.45723919 2.69814976 -9.61019812 -0.04200261 0 0 Z " fill="#AC544A" transform="translate(362.375,230.6875)"/>
<path d="M0 0 C10.40155782 -0.58692176 18.84720554 0.08397635 27 7.0625 C32.08494466 12.60209854 32 19.84066352 32 27 C24.74 27 17.48 27 10 27 C8.49091626 23.22729066 7.25970446 19.63237725 6.125 15.75 C4.4703215 10.28209625 2.49480857 5.13558998 0 0 Z " fill="#F58300" transform="translate(147,229)"/>
<path d="M0 0 C19.47 0 38.94 0 59 0 C58.67 3.3 58.34 6.6 58 10 C52.15080057 10.02502455 46.30163342 10.04301096 40.45239258 10.05493164 C38.46931413 10.05990981 36.48623925 10.06669476 34.50317383 10.07543945 C22.95389605 10.12503221 11.51161302 10.00017639 0 9 C0 6.03 0 3.06 0 0 Z " fill="#C53836" transform="translate(154,51)"/>
<path d="M0 0 C2.59947787 2.59947787 3.0684435 4.92738453 4.125 8.4375 C4.47820313 9.59121094 4.83140625 10.74492187 5.1953125 11.93359375 C6 15 6 15 6 18 C3.92085336 18.70005949 1.83648414 19.38462244 -0.25 20.0625 C-1.41015625 20.44535156 -2.5703125 20.82820313 -3.765625 21.22265625 C-6.80077085 21.95211763 -8.15703213 22.11889082 -11 21 C-11.67321284 18.75194998 -12.33834123 16.50147776 -13 14.25 C-13.37125 12.99703125 -13.7425 11.7440625 -14.125 10.453125 C-15 7 -15 7 -15 3 C-12.54407842 2.44428052 -10.08647254 1.90502511 -7.625 1.375 C-6.92632812 1.21515625 -6.22765625 1.0553125 -5.5078125 0.890625 C-3.68829213 0.50572646 -1.84365147 0.24443918 0 0 Z " fill="#050202" transform="translate(53,323)"/>
</svg>
