<?xml version="1.0" encoding="UTF-8"?>
<svg version="1.1" xmlns="http://www.w3.org/2000/svg" width="512" height="512">
<path d="M0 0 C1.30703349 -0.00551503 1.30703349 -0.00551503 2.6404717 -0.01114148 C5.5776421 -0.02220691 8.51477717 -0.02602699 11.45196533 -0.02983093 C13.55087396 -0.03609342 15.64978146 -0.04274002 17.74868774 -0.04974365 C23.46366209 -0.0671732 29.17862805 -0.07771069 34.8936224 -0.08594918 C38.46197341 -0.09109509 42.0303218 -0.097171 45.59867096 -0.10346031 C56.75686834 -0.12251765 67.91505907 -0.13674775 79.07326961 -0.14507228 C91.96530263 -0.15484835 104.85716412 -0.18117537 117.74913669 -0.22157317 C127.70587778 -0.2517055 137.66256962 -0.26653841 147.61935544 -0.26985329 C153.56978788 -0.27220703 159.52003719 -0.28120965 165.47042084 -0.30631447 C171.06824674 -0.32954972 176.66576834 -0.33384665 182.26362991 -0.32355309 C184.31874477 -0.32305651 186.37387436 -0.3294126 188.42894363 -0.34310913 C191.23408302 -0.36075923 194.03812221 -0.35375574 196.84326172 -0.34057617 C198.06399419 -0.35703004 198.06399419 -0.35703004 199.30938792 -0.37381631 C204.56263794 -0.31420247 207.47950328 0.72032703 211.67559814 4.14717102 C218.48706806 11.14784843 218.02132287 19.85649018 217.99127197 29.05317688 C217.98811077 31.07659267 218.01162661 33.09854449 218.03692627 35.1217804 C218.0411481 43.6118875 217.4639287 49.66592548 212.92559814 56.95967102 C209.40455325 60.38290911 205.60096366 62.14717102 200.67559814 62.14717102 C200.67559814 70.06717102 200.67559814 77.98717102 200.67559814 86.14717102 C203.97559814 86.80717102 207.27559814 87.46717102 210.67559814 88.14717102 C213.60711384 89.38107977 216.31976928 90.61093992 219.11309814 92.08467102 C219.80596924 92.43207336 220.49884033 92.77947571 221.21270752 93.1374054 C224.47393616 94.81055748 227.32413017 96.31210172 229.67559814 99.14717102 C230.05623035 101.47325672 230.38829759 103.80772366 230.67559814 106.14717102 C231.98218293 109.4040726 233.75159541 111.39100385 236.30059814 113.77217102 C238.21466064 115.56123352 238.21466064 115.56123352 239.67559814 117.14717102 C239.67559814 117.80717102 239.67559814 118.46717102 239.67559814 119.14717102 C240.89247314 119.04404602 242.10934814 118.94092102 243.36309814 118.83467102 C246.72474425 118.54978576 247.5698585 119.06036503 250.24981689 121.26045227 C261.30807746 134.41996041 262.82560044 154.33866721 262.82276917 170.78327942 C262.82644585 171.93855464 262.83012254 173.09382985 262.83391064 174.28411341 C262.84298726 177.47320224 262.84763606 180.66226083 262.85029995 183.85136032 C262.85422384 187.29805539 262.86380049 190.74473585 262.87251282 194.19142151 C262.89221696 202.50562167 262.90233498 210.81982294 262.91124061 219.13404059 C262.91563277 223.05698204 262.9209971 226.97992215 262.92622948 230.90286255 C262.94323445 243.95598317 262.957727 257.00910298 262.96497822 270.06223297 C262.96688785 273.44471233 262.96880823 276.82719169 262.97076416 280.20967102 C262.9712479 281.05028464 262.97173164 281.89089825 262.97223004 282.75698501 C262.98052451 296.36421424 263.00585485 309.97135541 263.03834484 323.57854623 C263.07148497 337.57295207 263.08943318 351.56731325 263.09262246 365.56175852 C263.09478095 373.40935136 263.10343242 381.2568157 263.12908363 389.10437012 C263.15088579 395.78944791 263.15879457 402.47436595 263.14911685 409.15947527 C263.1445996 412.56415967 263.14852872 415.96825028 263.1658783 419.37293243 C263.24656912 436.15452859 263.11221576 452.16637881 255.11309814 467.39717102 C254.7764917 468.05137024 254.43988525 468.70556946 254.09307861 469.3795929 C250.3322486 476.31589656 245.38797954 481.76465954 239.67559814 487.14717102 C238.48837158 488.27058899 238.48837158 488.27058899 237.27716064 489.41670227 C221.54103201 503.08779077 201.70597817 505.60184645 181.80059814 508.27217102 C180.62755127 508.43096741 179.45450439 508.58976379 178.24591064 508.75337219 C153.10852749 511.91718081 128.02883759 512.47473553 102.73248291 512.40791321 C98.3128568 512.39634972 93.89346925 512.40322152 89.4738512 512.41505814 C86.01901966 512.42230007 82.56424451 512.41998099 79.10941124 512.41480255 C77.47848163 512.41348128 75.84754668 512.41505951 74.21662331 512.41976166 C57.70879447 512.45705321 57.70879447 512.45705321 50.67559814 510.14717102 C48.67559814 507.14717102 48.67559814 507.14717102 48.67559814 503.14717102 C46.09051144 503.01190486 43.51251062 502.9129945 40.92559814 502.83467102 C40.19598877 502.79277649 39.46637939 502.75088196 38.71466064 502.7077179 C36.26824521 502.59944018 36.26824521 502.59944018 32.67559814 503.14717102 C30.5106484 505.56164973 30.5106484 505.56164973 28.67559814 508.14717102 C24.41880586 509.23678192 20.81486675 509.11934832 16.49200439 508.51045227 C15.32435547 508.34770813 14.15670654 508.18496399 12.95367432 508.01728821 C11.72753418 507.83327454 10.50139404 507.64926086 9.23809814 507.45967102 C7.34764771 507.17784973 7.34764771 507.17784973 5.41900635 506.89033508 C-17.97890749 503.2839181 -35.70869031 496.23905641 -51.13690186 477.83467102 C-65.20516112 458.48223633 -65.91607982 438.55639309 -65.82611084 415.53022766 C-65.82769189 412.75744549 -65.83525303 409.98468648 -65.84248352 407.21191406 C-65.85633362 400.49596554 -65.84892098 393.78020653 -65.83380794 387.06426723 C-65.81684366 379.22352447 -65.82017121 371.38282756 -65.82390202 363.54207211 C-65.82976564 349.54003908 -65.81566865 335.53809628 -65.79095459 321.53608704 C-65.76704287 307.98689898 -65.75995049 294.43783146 -65.77044678 280.8886261 C-65.78188842 266.0928351 -65.78374573 251.2970997 -65.76934868 236.50130934 C-65.76782304 234.91979214 -65.76630268 233.33827494 -65.76478767 231.75675774 C-65.76402986 230.97886233 -65.76327205 230.20096692 -65.76249127 229.39949893 C-65.7577731 223.95005076 -65.75958227 218.50062764 -65.76385307 213.05117989 C-65.76880957 206.39816108 -65.76266393 199.74525561 -65.74295878 193.09226257 C-65.7331714 189.70573025 -65.72952658 186.31951094 -65.73585129 182.93294907 C-65.78251579 154.34716269 -62.7575652 127.97497885 -42.32440186 106.14717102 C-33.15177846 97.16382398 -16.77514694 86.14717102 -3.32440186 86.14717102 C-3.32440186 78.22717102 -3.32440186 70.30717102 -3.32440186 62.14717102 C-6.29440186 61.65217102 -6.29440186 61.65217102 -9.32440186 61.14717102 C-15.05214675 58.16874367 -17.90405787 54.46962643 -19.91717529 48.34321594 C-20.81909002 43.47947316 -20.55053142 38.45380861 -20.56463623 33.52241516 C-20.57428905 31.4834988 -20.60531358 29.44561454 -20.63690186 27.40693665 C-20.70048042 11.2977175 -20.70048042 11.2977175 -15.57049561 4.99092102 C-14.97365967 4.54748352 -14.37682373 4.10404602 -13.76190186 3.64717102 C-13.16248779 3.18310852 -12.56307373 2.71904602 -11.94549561 2.24092102 C-8.09775292 -0.35514633 -4.49656473 -0.0010076 0 0 Z " fill="#010201" transform="translate(157.32440185546875,-0.1471710205078125)"/>
<path d="M0 0 C1.02081665 0.00112793 2.0416333 0.00225586 3.09338379 0.00341797 C5.59741595 0.00634752 8.10144039 0.01044921 10.60546875 0.015625 C10.67422268 33.15455956 10.72704204 66.29347553 10.75866474 99.4324652 C10.7624166 103.34999645 10.76629959 107.26752756 10.77026367 111.18505859 C10.7710506 111.96492732 10.77183753 112.74479604 10.77264831 113.54829715 C10.78568153 126.15505426 10.80932382 138.76177009 10.83692714 151.36850275 C10.86503946 164.31624986 10.8816573 177.26397544 10.88773423 190.21175182 C10.89183862 198.19315209 10.90477452 206.17443565 10.92921815 214.15579997 C10.94703777 220.28886826 10.94881973 226.42184863 10.94479179 232.55493927 C10.94561391 235.06143027 10.95153829 237.56792588 10.96308517 240.07439041 C11.05877797 261.92685838 9.7717 280.13929375 -5.86450195 296.83056641 C-22.63566125 313.54282048 -47.19372292 314.25861982 -69.39453125 317.015625 C-70.2963916 317.13180176 -71.19825195 317.24797852 -72.12744141 317.36767578 C-92.23295728 319.93632946 -112.52423531 320.12989235 -132.765625 319.97265625 C-134.25748682 319.96235437 -135.7493488 319.95207508 -137.24121094 319.94181824 C-143.33538154 319.89728866 -149.42935981 319.8477177 -155.52319336 319.76879883 C-159.32146011 319.72035749 -163.11945103 319.69133508 -166.91798592 319.67505455 C-168.3465777 319.66520167 -169.77513967 319.64805974 -171.20355034 319.62327003 C-173.17770865 319.58959865 -175.15227113 319.58286323 -177.12670898 319.57739258 C-178.2444017 319.56549393 -179.36209442 319.55359528 -180.51365662 319.54133606 C-184.0591038 320.12503601 -185.18750422 321.24474232 -187.39453125 324.015625 C-187.72453125 324.675625 -188.05453125 325.335625 -188.39453125 326.015625 C-199.91617134 326.20013525 -199.91617134 326.20013525 -205.39453125 325.015625 C-205.66265625 324.066875 -205.93078125 323.118125 -206.20703125 322.140625 C-207.14439713 318.76295227 -207.14439713 318.76295227 -210.39453125 317.015625 C-212.37926996 316.61682486 -214.38251715 316.3071641 -216.390625 316.05078125 C-217.59009766 315.89029297 -218.78957031 315.72980469 -220.02539062 315.56445312 C-221.28158203 315.40396484 -222.53777344 315.24347656 -223.83203125 315.078125 C-244.48127565 312.43022717 -261.5075015 308.07505219 -275.4765625 291.65234375 C-287.41299539 275.24278734 -287.83433554 258.25684862 -287.73510742 238.78393555 C-287.73426005 236.44707246 -287.73473844 234.11020857 -287.73643494 231.77334595 C-287.73729201 225.4622627 -287.71971283 219.15135218 -287.69871306 212.8403089 C-287.68180735 206.90311799 -287.67883815 200.96593329 -287.67575745 195.02872155 C-287.66921109 183.27831133 -287.64929954 171.52796401 -287.62084961 159.77758789 C-287.59326181 148.37134106 -287.57205142 136.9651114 -287.55932617 125.55883789 C-287.558538 124.85433534 -287.55774983 124.1498328 -287.55693778 123.42398169 C-287.55302232 119.88927516 -287.54923128 116.3545685 -287.54550207 112.81986177 C-287.51446277 83.55174233 -287.46145191 54.28368434 -287.39453125 25.015625 C-283.86996473 26.18104517 -280.39365723 27.3712258 -276.9609375 28.78515625 C-276.14560547 29.11708984 -275.33027344 29.44902344 -274.49023438 29.79101562 C-272.8356492 30.46841326 -271.18196033 31.14800544 -269.52929688 31.83007812 C-261.93220921 34.91509969 -254.18797909 37.48058034 -246.39453125 40.015625 C-246.38240097 40.96378082 -246.38240097 40.96378082 -246.37002563 41.93109131 C-246.28276866 48.61699775 -246.183242 55.30264781 -246.07714844 61.98828125 C-246.03928384 64.4706587 -246.00436414 66.95308315 -245.97265625 69.43554688 C-246.13910207 93.92365205 -246.13910207 93.92365205 -242.39453125 118.015625 C-240.08453125 118.675625 -237.77453125 119.335625 -235.39453125 120.015625 C-235.05604473 121.91054506 -234.72396214 123.80660966 -234.39453125 125.703125 C-234.20890625 126.75886719 -234.02328125 127.81460938 -233.83203125 128.90234375 C-233.43861854 131.70189669 -233.11764749 134.20228822 -233.39453125 137.015625 C-234.63203125 137.94375 -234.63203125 137.94375 -235.89453125 138.890625 C-238.72294622 140.79642608 -238.72294622 140.79642608 -238.69140625 144.01171875 C-238.51028962 148.8691661 -237.31305027 153.50409683 -236.14453125 158.203125 C-235.91999268 159.12988037 -235.6954541 160.05663574 -235.46411133 161.01147461 C-233.97168115 167.04713868 -232.26000865 172.90736369 -230.09375 178.73828125 C-229.39453125 181.015625 -229.39453125 181.015625 -229.39453125 185.015625 C-230.99584961 186.33666992 -230.99584961 186.33666992 -233.234375 187.49609375 C-234.04624268 187.93300537 -234.85811035 188.36991699 -235.69458008 188.82006836 C-236.56493896 189.27647705 -237.43529785 189.73288574 -238.33203125 190.203125 C-251.55503878 197.53108334 -259.50547107 205.34844447 -264.39453125 220.015625 C-265.64992365 232.83969671 -265.13010375 245.06126237 -257.375 255.81640625 C-249.46272492 265.16979623 -239.4099224 271.98709376 -227.0390625 273.3984375 C-203.62888668 274.17791061 -183.31724449 258.4835338 -165.39453125 245.015625 C-164.76434082 244.54237793 -164.13415039 244.06913086 -163.48486328 243.58154297 C-156.28444062 238.13181131 -149.44578543 232.41265356 -142.828125 226.265625 C-140.78448976 224.37616449 -138.70648807 222.56220582 -136.58203125 220.765625 C-127.53970013 212.90029152 -119.13350272 204.15480157 -111.39453125 195.015625 C-109.91913822 193.34561685 -108.43989096 191.67900676 -106.95703125 190.015625 C-106.27769531 189.2525 -105.59835937 188.489375 -104.8984375 187.703125 C-104.40214844 187.14625 -103.90585937 186.589375 -103.39453125 186.015625 C-101.18484653 190.43499444 -104.70409595 196.92371563 -106.16357422 201.34570312 C-107.04039965 203.94854309 -107.93233461 206.54560446 -108.83203125 209.140625 C-109.12013672 209.97513184 -109.40824219 210.80963867 -109.70507812 211.66943359 C-111.43422984 216.57933474 -113.35437008 221.34388826 -115.52270508 226.07666016 C-120.17535631 236.42428157 -119.36543146 247.34830287 -115.70703125 257.87890625 C-110.5298506 270.25175167 -102.47907378 277.40205571 -90.39453125 283.015625 C-79.24426198 286.83449012 -67.59473657 285.8190097 -57.01953125 280.9140625 C-36.33980047 270.08514942 -30.23911565 245.82289674 -23.62109375 224.95727539 C-12.79509691 189.61011281 -9.16331308 152.26884565 -9.20703125 115.390625 C-9.20694061 114.20305099 -9.20694061 114.20305099 -9.20684814 112.9914856 C-9.21889822 101.78645543 -9.52901545 90.63385067 -10.26953125 79.453125 C-10.34792236 78.26702637 -10.42631348 77.08092773 -10.50708008 75.85888672 C-11.66972057 60.29087419 -13.75968487 44.85571073 -25.94921875 33.765625 C-37.79035801 25.29145505 -50.03589646 22.50854799 -64.39453125 24.015625 C-76.90017007 27.15965821 -86.05304411 35.1307751 -92.578125 45.984375 C-95.18830166 50.80316267 -96.44842191 55.63774036 -97.39453125 61.015625 C-98.09835937 61.07878906 -98.8021875 61.14195312 -99.52734375 61.20703125 C-111.2255278 62.65785042 -122.08376954 67.33562449 -130.16796875 76.0859375 C-134.19146913 81.38001695 -137.56185804 87.0731766 -140.9140625 92.80859375 C-142.96436309 96.30551717 -144.99174036 99.7476209 -147.39453125 103.015625 C-148.05453125 103.015625 -148.71453125 103.015625 -149.39453125 103.015625 C-150.61282266 96.37614759 -150.52142535 89.81640689 -150.4921875 83.08203125 C-150.49006508 81.23242043 -150.49006508 81.23242043 -150.48789978 79.34544373 C-150.48232066 75.42297905 -150.46977193 71.50057231 -150.45703125 67.578125 C-150.45144823 64.91211021 -150.44745112 62.24609596 -150.44335938 59.58007812 C-150.43235806 53.05857412 -150.4156407 46.5371037 -150.39453125 40.015625 C-149.61037338 39.73179962 -148.82621552 39.44797424 -148.01829529 39.1555481 C-135.6226617 34.66507546 -123.32143715 30.12727945 -111.26953125 24.765625 C-95.52879283 17.79861051 -79.83706027 12.88338127 -63.13623047 8.72070312 C-60.40033987 8.01711879 -57.68888036 7.24830162 -54.97265625 6.47265625 C-49.05014543 4.84704439 -43.08503962 3.82356527 -37.01953125 2.890625 C-35.35893677 2.63297363 -35.35893677 2.63297363 -33.66479492 2.37011719 C-22.36103753 0.65427162 -11.42354799 -0.02401554 0 0 Z " fill="#E0F1C4" transform="translate(394.39453125,176.984375)"/>
<path d="M0 0 C56.76 0 113.52 0 172 0 C172.33 10.89 172.66 21.78 173 33 C176.70727172 36.9419305 176.70727172 36.9419305 181.16015625 38.2734375 C181.94874023 38.45567871 182.73732422 38.63791992 183.54980469 38.82568359 C184.79358887 39.09759521 184.79358887 39.09759521 186.0625 39.375 C193.03810908 41.01919411 198.60586392 43.16591906 204.76953125 46.90234375 C208.11682974 48.54961324 210.51520868 48.06677285 214 47 C214.62648438 46.72929688 215.25296875 46.45859375 215.8984375 46.1796875 C218 46 218 46 220.32421875 47.73046875 C221.10410156 48.54128906 221.88398438 49.35210937 222.6875 50.1875 C223.47511719 50.98542969 224.26273437 51.78335938 225.07421875 52.60546875 C226.89831001 54.87355788 227.83297438 56.11107536 228 59 C227.34 59.66 226.68 60.32 226 61 C225.18128534 67.43275803 226.88578014 71.3276562 229.6875 77.06640625 C233.07362223 84.63479254 234.06445064 91.82000837 234 100 C232.88367188 100.06993164 231.76734375 100.13986328 230.6171875 100.21191406 C198.27331955 102.26900446 166.60453719 105.34671205 135.79272461 116.12158203 C132.34273685 117.20673422 130.46799235 116.9895698 127 116 C124.08203125 114.390625 124.08203125 114.390625 120.8125 112.25 C113.45547981 107.60412414 105.71703453 103.80619467 97.875 100.0625 C96.6888208 99.49499023 95.5026416 98.92748047 94.28051758 98.34277344 C88.31988848 95.46845475 88.31988848 95.46845475 82.19384766 92.98413086 C80 92 80 92 79.03125 89.53125 C78.8559375 88.5309375 78.680625 87.530625 78.5 86.5 C75.77089424 73.93411742 69.18666012 64.26064472 58.75 56.625 C47.54693728 49.84926447 34.82633046 48.38559713 22 50 C17.61337964 51.12908629 13.91889977 52.74871715 10 55 C9.19304687 55.44601563 8.38609375 55.89203125 7.5546875 56.3515625 C0.50624311 60.6284152 -5.41009981 66.54307766 -9 74 C-10.1152002 74.029729 -10.1152002 74.029729 -11.25292969 74.06005859 C-26.58247295 74.48758515 -41.76755914 75.19246382 -57 77 C-52.39901961 62.04681373 -42.41504412 51.82332158 -28.9609375 44.30078125 C-22.22267163 40.9818091 -15.53158316 38.8835151 -8.2043457 37.37988281 C-3.81380824 36.48827836 -3.81380824 36.48827836 -1 33 C-0.67 22.11 -0.34 11.22 0 0 Z " fill="#EBF1F2" transform="translate(170,62)"/>
<path d="M0 0 C6.24203587 4.93529191 10.17557672 10.74226977 11.28125 18.70703125 C12.42327301 50.02056527 -26.47680336 86.97890158 -46.16015625 108.52734375 C-47.03542969 109.49542969 -47.91070312 110.46351563 -48.8125 111.4609375 C-57.15009621 120.65921727 -65.75575429 129.41061298 -75.16015625 137.52734375 C-75.78607666 138.07060303 -76.41199707 138.6138623 -77.05688477 139.17358398 C-122.72737281 178.54263278 -122.72737281 178.54263278 -145.16796875 177.87109375 C-154.26249871 176.82629135 -161.03438615 171.46424826 -166.76953125 164.6015625 C-171.32250311 157.81047246 -171.05364956 150.4254874 -170.16015625 142.52734375 C-168.34487669 134.48672312 -164.02053048 128.72706576 -157.13012695 124.19091797 C-154.97724651 122.97737154 -152.79978815 121.836388 -150.59765625 120.71484375 C-135.52802118 112.68822162 -122.22568864 102.29707493 -109.640625 90.78515625 C-108.05682408 89.34352329 -106.45661545 87.91957909 -104.8359375 86.51953125 C-93.15228036 76.36150868 -82.69687916 64.7008758 -73.16015625 52.52734375 C-72.08236446 51.179421 -71.0042096 49.83178851 -69.92578125 48.484375 C-60.87634062 37.09777769 -52.67052975 25.27892966 -44.91796875 12.9765625 C-39.64736947 4.74253288 -34.37035394 -2.33850112 -24.578125 -5.03515625 C-15.11415778 -6.74753804 -7.92041244 -5.39963018 0 0 Z " fill="#1DAE7A" transform="translate(314.16015625,258.47265625)"/>
<path d="M0 0 C1.02081665 0.00112793 2.0416333 0.00225586 3.09338379 0.00341797 C5.59741595 0.00634752 8.10144039 0.01044921 10.60546875 0.015625 C10.67422268 33.15455956 10.72704204 66.29347553 10.75866474 99.4324652 C10.7624166 103.34999645 10.76629959 107.26752756 10.77026367 111.18505859 C10.7710506 111.96492732 10.77183753 112.74479604 10.77264831 113.54829715 C10.78568153 126.15505426 10.80932382 138.76177009 10.83692714 151.36850275 C10.86503946 164.31624986 10.8816573 177.26397544 10.88773423 190.21175182 C10.89183862 198.19315209 10.90477452 206.17443565 10.92921815 214.15579997 C10.94703777 220.28886826 10.94881973 226.42184863 10.94479179 232.55493927 C10.94561391 235.06143027 10.95153829 237.56792588 10.96308517 240.07439041 C11.05877797 261.92685838 9.7717 280.13929375 -5.86450195 296.83056641 C-15.32960789 306.26242811 -27.31768844 311.05022969 -40.39453125 313.015625 C-41.38453125 312.685625 -42.37453125 312.355625 -43.39453125 312.015625 C-42.97042969 311.63792969 -42.54632813 311.26023437 -42.109375 310.87109375 C-32.88018571 302.20985457 -28.0176047 292.02468869 -24.39453125 280.015625 C-24.04414795 278.86344482 -23.69376465 277.71126465 -23.33276367 276.52416992 C-22.0140813 271.16849524 -22.21997324 265.90393211 -22.33984375 260.421875 C-22.36515657 258.15104798 -22.38987697 255.8802143 -22.4140625 253.609375 C-22.46340011 250.0726987 -22.51913629 246.53638187 -22.58642578 243 C-22.83228367 229.18549662 -22.42496958 217.24730532 -18.39453125 204.015625 C-15.45830309 192.68508817 -13.59168239 181.36770648 -12.4387207 169.72851562 C-12.20626248 167.38286759 -11.95892609 165.03915618 -11.70898438 162.6953125 C-10.05538296 146.92968065 -9.18824061 131.2413682 -9.20703125 115.390625 C-9.20697083 114.598909 -9.2069104 113.80719299 -9.20684814 112.9914856 C-9.21889822 101.78645543 -9.52901545 90.63385067 -10.26953125 79.453125 C-10.34792236 78.26702637 -10.42631348 77.08092773 -10.50708008 75.85888672 C-11.66972057 60.29087419 -13.75968487 44.85571073 -25.94921875 33.765625 C-37.79035801 25.29145505 -50.03589646 22.50854799 -64.39453125 24.015625 C-76.90017007 27.15965821 -86.05304411 35.1307751 -92.578125 45.984375 C-95.18830166 50.80316267 -96.44842191 55.63774036 -97.39453125 61.015625 C-98.09835937 61.07878906 -98.8021875 61.14195312 -99.52734375 61.20703125 C-111.2255278 62.65785042 -122.08376954 67.33562449 -130.16796875 76.0859375 C-134.19146913 81.38001695 -137.56185804 87.0731766 -140.9140625 92.80859375 C-142.96436309 96.30551717 -144.99174036 99.7476209 -147.39453125 103.015625 C-148.05453125 103.015625 -148.71453125 103.015625 -149.39453125 103.015625 C-150.61282266 96.37614759 -150.52142535 89.81640689 -150.4921875 83.08203125 C-150.49077255 81.84895737 -150.4893576 80.61588348 -150.48789978 79.34544373 C-150.48232066 75.42297905 -150.46977193 71.50057231 -150.45703125 67.578125 C-150.45144823 64.91211021 -150.44745112 62.24609596 -150.44335938 59.58007812 C-150.43235806 53.05857412 -150.4156407 46.5371037 -150.39453125 40.015625 C-149.61037338 39.73179962 -148.82621552 39.44797424 -148.01829529 39.1555481 C-135.6226617 34.66507546 -123.32143715 30.12727945 -111.26953125 24.765625 C-95.52879283 17.79861051 -79.83706027 12.88338127 -63.13623047 8.72070312 C-60.40033987 8.01711879 -57.68888036 7.24830162 -54.97265625 6.47265625 C-49.05014543 4.84704439 -43.08503962 3.82356527 -37.01953125 2.890625 C-35.91246826 2.71885742 -34.80540527 2.54708984 -33.66479492 2.37011719 C-22.36103753 0.65427162 -11.42354799 -0.02401554 0 0 Z " fill="#B8E671" transform="translate(394.39453125,176.984375)"/>
<path d="M0 0 C7.38600639 4.37005378 12.39560612 10.22230645 14.9128418 18.40185547 C16.20774273 23.70506119 16.73583948 29.07365069 17.25 34.5 C17.34430801 35.48018097 17.34430801 35.48018097 17.44052124 36.48016357 C22.92043565 95.12338755 17.01606992 156.44290976 -6.0625 210.9375 C-6.32740234 211.57389404 -6.59230469 212.21028809 -6.86523438 212.8659668 C-10.45441908 221.01512729 -15.96696349 226.23295337 -24.125 229.8125 C-30.72367739 232.09181414 -37.62916743 232.09833303 -44.125 229.5 C-52.85393832 225.05731455 -57.77333349 219.05687465 -61.6875 210.25 C-63.9446303 200.65719621 -61.46686617 193.32967479 -57.75 184.4375 C-56.82462065 182.12900583 -55.90272936 179.81911031 -54.984375 177.5078125 C-54.32018555 175.84540527 -54.32018555 175.84540527 -53.64257812 174.14941406 C-48.8840337 161.9599822 -45.09903793 149.11464575 -43.9765625 136.046875 C-42.81122966 123.59967073 -40.00741405 116.54923207 -32.01953125 107.05224609 C-29.04962316 103.31694503 -26.54245161 99.28274548 -24 95.25 C-23.50443604 94.4854248 -23.00887207 93.72084961 -22.49829102 92.93310547 C-14.54634774 80.35371422 -11.07112889 66.65201636 -14.0859375 51.88671875 C-17.8175233 40.61222663 -26.34445072 30.96823121 -36.9375 25.625 C-38.0925 25.109375 -39.2475 24.59375 -40.4375 24.0625 C-40.19918901 16.5557037 -38.53646342 11.67135976 -33.4375 6.0625 C-23.82058441 -1.91177473 -11.97981743 -5.43010416 0 0 Z " fill="#0B6741" transform="translate(352.4375,216.9375)"/>
<path d="M0 0 C56.76 0 113.52 0 172 0 C172.33 10.89 172.66 21.78 173 33 C176.70727172 36.9419305 176.70727172 36.9419305 181.16015625 38.2734375 C181.94874023 38.45567871 182.73732422 38.63791992 183.54980469 38.82568359 C184.79358887 39.09759521 184.79358887 39.09759521 186.0625 39.375 C193.03810908 41.01919411 198.60586392 43.16591906 204.76953125 46.90234375 C208.11682974 48.54961324 210.51520868 48.06677285 214 47 C214.62648438 46.72929688 215.25296875 46.45859375 215.8984375 46.1796875 C218 46 218 46 220.32421875 47.73046875 C221.10410156 48.54128906 221.88398438 49.35210937 222.6875 50.1875 C223.47511719 50.98542969 224.26273438 51.78335938 225.07421875 52.60546875 C226.89831001 54.87355788 227.83297438 56.11107536 228 59 C227.01 59.99 227.01 59.99 226 61 C225.18128534 67.43275803 226.88578014 71.3276562 229.6875 77.06640625 C233.05281143 84.58827793 234.16637692 91.84753081 234 100 C229.98000517 100.28752483 225.95982309 100.57225991 221.93945312 100.85449219 C220.57383992 100.95074402 219.20827876 101.04773737 217.84277344 101.14550781 C215.87188584 101.28649101 213.90078784 101.42452298 211.9296875 101.5625 C210.74616699 101.64628906 209.56264648 101.73007813 208.34326172 101.81640625 C205.2201862 101.98790857 202.12691932 102.03330939 199 102 C198.70867187 101.18917969 198.41734375 100.37835938 198.1171875 99.54296875 C191.21936314 80.91016647 182.08682744 67.08567266 164 58 C159.72158171 56.15950925 155.39101865 54.54872415 151 53 C143.29933615 50.06578153 143.29933615 50.06578153 141 47 C139.44867453 42.3460236 139.7681597 37.54569658 139.671875 32.6640625 C138.80271405 27.92410336 137.94291706 26.79462318 134 24 C129.71779467 23.2374649 125.4715571 23.310265 121.1315918 23.34057617 C119.17002892 23.32485062 119.17002892 23.32485062 117.1688385 23.30880737 C113.59056209 23.28068178 110.01288554 23.28312863 106.43453193 23.29110122 C102.69217079 23.29422784 98.95000019 23.26918746 95.2077179 23.24714661 C88.12465669 23.20970335 81.04178747 23.19755847 73.95863706 23.1945222 C65.89328585 23.18983166 57.82812701 23.15690854 49.76286066 23.12162435 C33.17524564 23.04968827 16.58776608 23.01417428 0 23 C0 15.41 0 7.82 0 0 Z " fill="#CAE4E6" transform="translate(170,62)"/>
<path d="M0 0 C1.17550415 0.10610596 1.17550415 0.10610596 2.37475586 0.21435547 C11.93199273 0.994734 21.42036957 1.15426972 31.00463867 1.13037109 C33.56239729 1.12500022 36.11998096 1.13035679 38.67773438 1.13671875 C47.83847145 1.1400387 56.87656726 0.90522929 66 0 C66.029729 1.92525513 66.029729 1.92525513 66.06005859 3.8894043 C66.13749558 8.7596851 66.22596894 13.62971906 66.31738281 18.49975586 C66.3551138 20.58727056 66.39005112 22.67483806 66.421875 24.76245117 C66.65859349 40.1158645 67.62041499 55.24353641 69.40991211 70.49316406 C70.01564035 76.23612836 68.65398618 79.05124297 65.0625 83.5625 C63.39769122 85.39586418 61.71011633 87.20882311 60 89 C58.5602188 90.62297916 57.12267321 92.24794465 55.6875 93.875 C54.12719299 95.58533653 52.56450056 97.2934986 51 99 C50.01529184 100.08954274 49.03093497 101.17940304 48.046875 102.26953125 C42.63992148 108.23170116 37.2116633 113.86385437 31 119 C29.90730523 119.94091253 28.81631018 120.88380078 27.7265625 121.828125 C26.54710997 122.84402286 25.36742153 123.8596469 24.1875 124.875 C23.62361572 125.36436035 23.05973145 125.8537207 22.47875977 126.35791016 C19.99169282 128.4787809 18.13279625 129.95573458 15 131 C12.05335681 122.12714704 9.79122174 113.21280373 7.83911133 104.07348633 C7.64341553 103.20103271 7.44771973 102.3285791 7.24609375 101.4296875 C7.07779053 100.64835449 6.9094873 99.86702148 6.73608398 99.06201172 C5.88477857 96.67722713 4.97131086 95.56966346 3 94 C0.39388923 93.27802838 0.39388923 93.27802838 -2 93 C-2.33848652 91.10507994 -2.67056911 89.20901534 -3 87.3125 C-3.2784375 85.72888672 -3.2784375 85.72888672 -3.5625 84.11328125 C-3.95068074 81.35095938 -4.08259976 78.78257957 -4 76 C-5.32 75.67 -6.64 75.34 -8 75 C-6.88625 74.896875 -5.7725 74.79375 -4.625 74.6875 C-3.42875 74.460625 -2.2325 74.23375 -1 74 C1.42267086 70.36599371 1.23882584 68.62853637 1.1875 64.3125 C1.18105469 63.13300781 1.17460937 61.95351563 1.16796875 60.73828125 C1.06202649 57.02613137 1.06202649 57.02613137 0.49560547 53.48510742 C-0.18672286 48.16060588 -0.12450245 42.86022953 -0.09765625 37.5 C-0.0962413 36.42371338 -0.09482635 35.34742676 -0.09336853 34.23852539 C-0.0878038 30.82565445 -0.07525787 27.41285087 -0.0625 24 C-0.05748044 21.6757822 -0.05291833 19.35156337 -0.04882812 17.02734375 C-0.03784593 11.3515398 -0.0211432 5.67577471 0 0 Z " fill="#148D5D" transform="translate(163,221)"/>
<path d="M0 0 C0.79015849 0.00223072 1.58031698 0.00446144 2.39441967 0.00675976 C3.64420998 0.00441978 3.64420998 0.00441978 4.91924858 0.00203252 C7.73301134 -0.00198104 10.54672089 0.00121353 13.36048412 0.00434887 C15.36883609 0.00299499 17.37718781 0.00121513 19.38553905 -0.00096118 C24.85645304 -0.00553706 30.32734826 -0.00374533 35.7982626 -0.0005821 C41.51000299 0.00194071 47.22174172 -0.00039581 52.93348217 -0.00196826 C62.5273165 -0.00379019 72.12114315 -0.00138304 81.71497631 0.00337231 C92.82408769 0.00881497 103.93318071 0.00705233 115.04229164 0.00154591 C124.56157082 -0.00298456 134.08084445 -0.0036361 143.60012436 -0.00101542 C149.29379674 0.00054772 154.98746048 0.00074011 160.68113232 -0.00255191 C166.03261586 -0.00542967 171.38407564 -0.0034567 176.7355566 0.00234234 C178.70568203 0.00367046 180.67580945 0.00327496 182.6459341 0.00107968 C185.32335392 -0.00162983 188.00069627 0.00174683 190.67811108 0.00675976 C191.46826957 0.00452904 192.25842806 0.00229832 193.07253075 0 C198.42211553 0.01959357 198.42211553 0.01959357 199.53626537 1.13374341 C199.63638939 3.34024997 199.66707717 5.54996727 199.66907787 7.75874341 C199.6700346 8.42083813 199.67099133 9.08293286 199.67197704 9.76509106 C199.67265864 11.16727302 199.67080579 12.56945811 199.66663647 13.97163403 C199.66128784 16.12470054 199.66658207 18.27755843 199.67298412 20.43061841 C199.67232334 21.78999387 199.67104217 23.1493692 199.66907787 24.50874341 C199.66794994 25.75397778 199.66682201 26.99921216 199.6656599 28.28218091 C199.53626537 31.13374341 199.53626537 31.13374341 198.53626537 32.13374341 C195.90831953 32.23376878 193.30658755 32.26814758 190.67811108 32.26072705 C189.42832077 32.26306703 189.42832077 32.26306703 188.15328217 32.26545429 C185.33951941 32.26946786 182.52580986 32.26627328 179.71204662 32.26313794 C177.70369466 32.26449182 175.69534294 32.26627168 173.68699169 32.268448 C168.21607771 32.27302387 162.74518248 32.27123214 157.27426815 32.26806891 C151.56252776 32.2655461 145.85078903 32.26788262 140.13904858 32.26945508 C130.54521425 32.271277 120.9513876 32.26886985 111.35755444 32.2641145 C100.24844306 32.25867184 89.13935004 32.26043448 78.03023911 32.2659409 C68.51095993 32.27047137 58.99168629 32.27112291 49.47240639 32.26850224 C43.77873401 32.26693909 38.08507026 32.2667467 32.39139843 32.27003872 C27.03991488 32.27291648 21.68845511 32.27094351 16.33697414 32.26514447 C14.36684871 32.26381635 12.3967213 32.26421185 10.42659664 32.26640713 C7.74917682 32.26911664 5.07183447 32.26573998 2.39441967 32.26072705 C1.60426118 32.26295777 0.81410269 32.26518849 0 32.26748681 C-5.34958479 32.24789324 -5.34958479 32.24789324 -6.46373463 31.13374341 C-6.56385864 28.92723685 -6.59454642 26.71751954 -6.59654713 24.50874341 C-6.59750385 23.84664868 -6.59846058 23.18455395 -6.5994463 22.50239575 C-6.60012789 21.1002138 -6.59827505 19.6980287 -6.59410572 18.29585278 C-6.58875709 16.14278627 -6.59405132 13.98992838 -6.60045338 11.83686841 C-6.59979259 10.47749294 -6.59851142 9.11811761 -6.59654713 7.75874341 C-6.5954192 6.51350903 -6.59429127 5.26827466 -6.59312916 3.98530591 C-6.36996045 -0.93282719 -4.41207763 0.01615982 0 0 Z " fill="#FBA762" transform="translate(159.46373462677002,14.866256594657898)"/>
<path d="M0 0 C2.95303092 1.15028046 3.82278839 2.27169874 5.51171875 4.9296875 C5.98867188 5.6515625 6.465625 6.3734375 6.95703125 7.1171875 C10.7169587 14.51376609 12.11430861 22.13591425 13.0546875 30.3203125 C13.18103073 31.40475647 13.30737396 32.48920044 13.43754578 33.60650635 C14.76140124 45.96027511 14.80536828 58.26899206 14.69921875 70.6796875 C14.69328705 71.85935089 14.68735535 73.03901428 14.6812439 74.25442505 C14.44408128 120.79296729 13.78802252 194.52838373 -21.61328125 229.9296875 C-28.2621352 229.16845914 -32.27685508 224.72026641 -36.61328125 219.9296875 C-38.36072258 217.02638654 -39.5847215 214.15121426 -40.61328125 210.9296875 C-40.94328125 209.9396875 -41.27328125 208.9496875 -41.61328125 207.9296875 C-42.69442607 199.54000369 -40.12129332 192.94958259 -36.92578125 185.3046875 C-36.0004019 182.99619333 -35.07851061 180.68629781 -34.16015625 178.375 C-33.4959668 176.71259277 -33.4959668 176.71259277 -32.81835938 175.01660156 C-28.05981495 162.8271697 -24.27481918 149.98183325 -23.15234375 136.9140625 C-21.98701091 124.46685823 -19.1831953 117.41641957 -11.1953125 107.91943359 C-8.22540441 104.18413253 -5.71823286 100.14993298 -3.17578125 96.1171875 C-2.68021729 95.3526123 -2.18465332 94.58803711 -1.67407227 93.80029297 C6.27787101 81.22090172 9.75308986 67.51920386 6.73828125 52.75390625 C3.00669545 41.47941413 -5.52023197 31.83541871 -16.11328125 26.4921875 C-17.26828125 25.9765625 -18.42328125 25.4609375 -19.61328125 24.9296875 C-19.37439612 17.40480606 -17.69710325 12.5647673 -12.61328125 6.9296875 C-4.61383307 -0.12413901 -4.61383307 -0.12413901 0 0 Z " fill="#148D5C" transform="translate(331.61328125,216.0703125)"/>
<path d="M0 0 C9.37241433 1.73489372 15.98292491 6.34710567 21.515625 14.1328125 C25.12530457 21.02170802 25.10890756 29.01772518 23.4453125 36.4921875 C13.38087392 64.9601709 -13.02325171 92.13036186 -33 114 C-33.87527344 114.96808594 -34.75054687 115.93617188 -35.65234375 116.93359375 C-43.98993996 126.13187352 -52.59559804 134.88326923 -62 143 C-62.62592041 143.54325928 -63.25184082 144.08651855 -63.89672852 144.64624023 C-109.48876743 183.94766401 -109.48876743 183.94766401 -131.9921875 183.35546875 C-138.74915244 182.55691835 -143.38476251 179.90368983 -148 175 C-147.34257812 174.76667969 -146.68515625 174.53335938 -146.0078125 174.29296875 C-114.41579218 162.17841353 -87.88336326 136.85033741 -64.25 113.4375 C-63.37448486 112.57511719 -62.49896973 111.71273437 -61.59692383 110.82421875 C-55.62814452 104.86277833 -50.26800059 98.58206901 -45 92 C-44.05243733 90.87568911 -43.09922024 89.75608012 -42.13671875 88.64453125 C-9.85427379 52.4827541 -9.85427379 52.4827541 2 8 C1.53248125 5.1948875 0.86864954 2.71452981 0 0 Z " fill="#148E5D" transform="translate(301,253)"/>
<path d="M0 0 C7.39164475 4.31939735 13.74201828 10.76015545 16.8125 18.875 C19.58637048 30.80264305 16.99092419 43.75878913 15.5625 55.75 C15.47572998 56.48436279 15.38895996 57.21872559 15.29956055 57.9753418 C15.04417775 60.10321501 14.7782431 62.22946021 14.5078125 64.35546875 C14.35070801 65.5983667 14.19360352 66.84126465 14.03173828 68.12182617 C13.46000396 71.43220078 12.59035598 74.41250654 11.4375 77.5625 C-9.51488722 81.32881044 -32.70594454 83.04940494 -53.5625 77.5625 C-53.83225708 69.62265004 -52.92206229 61.88079655 -51.96337891 54.01635742 C-51.68946614 51.76615193 -51.4241578 49.51505939 -51.16015625 47.26367188 C-47.20584805 13.94069536 -47.20584805 13.94069536 -36.5625 4.5625 C-25.65782943 -3.04425348 -12.49509103 -5.78417257 0 0 Z " fill="#25CE90" transform="translate(217.5625,128.4375)"/>
<path d="M0 0 C0.95377184 4.00320153 1.1157616 7.72211747 1.09765625 11.83203125 C1.09443359 13.12431641 1.09121094 14.41660156 1.08789062 15.74804688 C1.07953665 17.10286526 1.07107172 18.45768297 1.0625 19.8125 C1.05748 21.18684735 1.05291797 22.56119645 1.04882812 23.93554688 C1.03705668 27.29040924 1.02061283 30.64518221 1 34 C-2.27163959 33.27028673 -4.09501579 32.33431606 -6.6875 30.1875 C-17.13423158 22.07958892 -29.11649373 20.64775194 -42 22 C-54.50563882 25.14403321 -63.65851286 33.1151501 -70.18359375 43.96875 C-72.79377041 48.78753767 -74.05389066 53.62211536 -75 59 C-75.70382812 59.06316406 -76.40765625 59.12632812 -77.1328125 59.19140625 C-88.83099655 60.64222542 -99.68923829 65.31999949 -107.7734375 74.0703125 C-111.79693788 79.36439195 -115.16732679 85.0575516 -118.51953125 90.79296875 C-120.56983184 94.28989217 -122.59720911 97.7319959 -125 101 C-125.66 101 -126.32 101 -127 101 C-128.21829141 94.36052259 -128.1268941 87.80078189 -128.09765625 81.06640625 C-128.0962413 79.83333237 -128.09482635 78.60025848 -128.09336853 77.32981873 C-128.08778941 73.40735405 -128.07524068 69.48494731 -128.0625 65.5625 C-128.05691698 62.89648521 -128.05291987 60.23047096 -128.04882812 57.56445312 C-128.03782681 51.04294912 -128.02110945 44.5214787 -128 38 C-127.21584213 37.71617462 -126.43168427 37.43234924 -125.62376404 37.1399231 C-113.22813045 32.64945046 -100.9269059 28.11165445 -88.875 22.75 C-73.13639693 15.78393064 -57.44672732 10.86785483 -40.74780273 6.70678711 C-37.97722419 5.99414163 -35.23123476 5.21495973 -32.48046875 4.4296875 C-27.09328155 2.95012817 -21.71947936 2.051983 -16.1875 1.3125 C-15.28580078 1.18294922 -14.38410156 1.05339844 -13.45507812 0.91992188 C-8.93437244 0.29305953 -4.57662579 -0.15885809 0 0 Z " fill="#DEF0C3" transform="translate(372,179)"/>
<path d="M0 0 C0.029729 1.92525513 0.029729 1.92525513 0.06005859 3.8894043 C0.13749558 8.7596851 0.22596894 13.62971906 0.31738281 18.49975586 C0.3551138 20.58727056 0.39005112 22.67483806 0.421875 24.76245117 C0.65859595 40.11602433 1.6213331 55.24353711 3.40966797 70.4934082 C4.02033025 76.27752838 2.62277591 79.08561814 -1 83.625 C-2.6448675 85.43670034 -4.31182393 87.22858566 -6 89 C-7.52508172 90.72542086 -9.04627854 92.45428799 -10.5625 94.1875 C-11.70607392 95.46036688 -12.85099953 96.73202945 -14 98 C-16.31076883 94.53384676 -16.74100211 91.95873863 -17.5 87.875 C-17.7371875 86.61429687 -17.974375 85.35359375 -18.21875 84.0546875 C-18.3420166 83.39428467 -18.4652832 82.73388184 -18.59228516 82.0534668 C-19.01132756 79.94294843 -19.49824895 77.85587642 -19.9921875 75.76171875 C-25.30842994 51.95507879 -24.32890006 27.21678967 -24 3 C-31.26 3 -38.52 3 -46 3 C-46 2.67 -46 2.34 -46 2 C-45.04222656 1.97494385 -44.08445313 1.9498877 -43.09765625 1.92407227 C-39.51176755 1.82922028 -35.92603789 1.72919627 -32.34033203 1.62768555 C-30.79447169 1.58462851 -29.24857269 1.54293574 -27.70263672 1.50268555 C-25.46830639 1.44426697 -23.23416556 1.38078733 -21 1.31640625 C-20.31945557 1.29969376 -19.63891113 1.28298126 -18.93774414 1.26576233 C-15.53171572 1.16284461 -12.18753811 0.92852124 -8.8125 0.48022461 C-5.80413287 0.10128902 -3.0202603 -0.09438313 0 0 Z " fill="#0B6640" transform="translate(229,221)"/>
<path d="M0 0 C-1.49639708 16.73601997 -3.70883069 33.35817345 -6 50 C-11.97575435 49.46837321 -16.95013558 48.17820096 -22.5 45.9375 C-23.26812012 45.63384521 -24.03624023 45.33019043 -24.82763672 45.01733398 C-32.78184522 41.80452471 -40.40804931 37.98215397 -48 34 C-48.05847045 30.14589793 -48.09375405 26.29191135 -48.125 22.4375 C-48.14175781 21.35146484 -48.15851563 20.26542969 -48.17578125 19.14648438 C-48.21098659 13.35520558 -47.98923674 8.45865358 -46 3 C-30.6125158 0.96545459 -15.52762644 -0.16736364 0 0 Z " fill="#B8E671" transform="translate(155,151)"/>
<path d="M0 0 C9.39197244 -0.8992314 16.17671168 0.62977666 24 6 C30.63824691 11.79219583 35.3349261 18.34687185 36.375 27.1875 C36.71577994 37.58128827 35.35234328 47.88430559 34.125 58.1875 C33.99484497 59.28904419 33.99484497 59.28904419 33.86206055 60.4128418 C33.60667775 62.54071501 33.3407431 64.66696021 33.0703125 66.79296875 C32.91320801 68.0358667 32.75610352 69.27876465 32.59423828 70.55932617 C32.02250396 73.86970078 31.15285598 76.85000654 30 80 C22.2472493 81.51537186 14.89957062 82.27990605 7 82 C6.82600741 75.36455537 7.50318203 69.01070595 8.375 62.4375 C8.51075439 61.3762793 8.64650879 60.31505859 8.78637695 59.22167969 C9.37440677 54.64958265 9.9795452 50.0811022 10.64453125 45.51953125 C13.07771315 28.62729717 12.25309879 17.06139263 2 3 C1.34 2.01 0.68 1.02 0 0 Z " fill="#1DAE7B" transform="translate(199,126)"/>
<path d="M0 0 C5.094375 -0.020625 10.18875 -0.04125 15.4375 -0.0625 C17.04681396 -0.071604 18.65612793 -0.08070801 20.31420898 -0.09008789 C21.57048096 -0.09258545 22.82675293 -0.09508301 24.12109375 -0.09765625 C26.06133423 -0.10551147 26.06133423 -0.10551147 28.04077148 -0.11352539 C31 0 31 0 32 1 C32.10012401 3.20650656 32.1308118 5.41622386 32.1328125 7.625 C32.13376923 8.28709473 32.13472595 8.94918945 32.13571167 9.63134766 C32.13639326 11.03352961 32.13454042 12.4357147 32.13037109 13.83789062 C32.12502246 15.99095713 32.1303167 18.14381502 32.13671875 20.296875 C32.13605796 21.65625046 32.13477679 23.0156258 32.1328125 24.375 C32.13168457 25.62023437 32.13055664 26.86546875 32.12939453 28.1484375 C32 31 32 31 31 32 C28.36976027 32.09780783 25.7657945 32.12994389 23.13511658 32.12025452 C22.30121747 32.12110894 21.46731836 32.12196337 20.60814959 32.12284368 C17.79204911 32.12450104 14.97600717 32.11897295 12.15991211 32.11352539 C10.14993796 32.11324355 8.13996371 32.11340119 6.12998962 32.1139679 C0.6550079 32.11425599 -4.81995213 32.10835743 -10.29492879 32.10139394 C-16.00980473 32.09516228 -21.72468112 32.09455675 -27.43955994 32.09336853 C-38.26973426 32.09025466 -49.09989854 32.08204052 -59.93006843 32.07201904 C-72.25633702 32.06085964 -84.58260607 32.05534789 -96.90887845 32.05032361 C-122.27259121 32.03985795 -147.63629504 32.02225743 -173 32 C-173 31.67 -173 31.34 -173 31 C-115.91 31 -58.82 31 0 31 C0 20.77 0 10.54 0 0 Z " fill="#E67D28" transform="translate(327,15)"/>
<path d="M0 0 C5.20347737 0.63457041 9.58980751 2.99647969 14.25 5.25 C15.05824219 5.63285156 15.86648438 6.01570312 16.69921875 6.41015625 C22.25412612 9.06762394 27.65065687 11.95103506 33 15 C33 15.66 33 16.32 33 17 C29.01950214 18.6797517 25.03587637 20.35179372 21.04931641 22.01708984 C19.69656648 22.58339473 18.34465792 23.15171417 16.99365234 23.72216797 C3.17485784 29.55404651 3.17485784 29.55404651 -4 31 C-2.90498782 20.62068247 -1.71043032 10.29897408 0 0 Z " fill="#B7E470" transform="translate(249,170)"/>
<path d="M0 0 C3.5 0.8125 3.5 0.8125 5.4375 1.9375 C7.17693881 5.00709789 6.91635013 7.36274176 6.5 10.8125 C4.4027053 14.18315219 2.37314981 16.67333829 -1.5 17.8125 C-4.92908225 17.67253746 -6.79875435 17.44362109 -9.375 15.125 C-10.86633241 12.05948338 -10.98231822 10.18872756 -10.5 6.8125 C-7.65227829 2.49181879 -5.42382552 -0.29056208 0 0 Z " fill="#000503" transform="translate(327.5,352.1875)"/>
<path d="M0 0 C3.95449178 1.13634821 6.05526268 4.1305189 8.0390625 7.5859375 C8.7265625 10.2109375 8.7265625 10.2109375 8.0390625 12.5859375 C5.63582236 15.76669651 4.02092831 17.30845368 0.1640625 18.3984375 C-4.63015049 17.15194212 -7.47479671 13.80060813 -9.9609375 9.5859375 C-10.32277932 6.30002257 -10.27669797 5.07273488 -8.4609375 2.2734375 C-5.62774686 0.36103382 -3.42730163 -0.16687236 0 0 Z " fill="#000503" transform="translate(192.9609375,270.4140625)"/>
<path d="M0 0 C2.57334699 2.0156044 4.44064666 4.12255176 6 7 C6.06409201 10.33278427 5.55851189 12.01439078 3.9375 14.875 C0.67655301 16.76845309 -2.43659853 16.93103911 -6 16 C-8.74631784 14.07644267 -10.50372634 11.99836939 -12 9 C-12.13156684 5.05299487 -11.87232815 3.07363464 -9.375 0 C-5.74369678 -1.52896978 -3.75194529 -1.16439681 0 0 Z " fill="#000403" transform="translate(186,246)"/>
<path d="M0 0 C4.47515127 1.38884005 7.04124494 3.21297649 9.625 7.125 C10.3125 10.1875 10.3125 10.1875 9.625 13.125 C7.5625 16.0625 7.5625 16.0625 4.625 18.125 C-0.07108649 18.37657606 -1.80090392 17.63802203 -5.3125 14.5 C-7.71379209 10.57061294 -8.12865276 8.64691656 -7.375 4.125 C-5.18733166 0.62473066 -4.13883901 0.15329033 0 0 Z " fill="#010705" transform="translate(192.375,153.875)"/>
<path d="M0 0 C3.125 1.5 3.125 1.5 5 4 C5.42501288 7.84057097 4.82284003 10.90287996 2.5 14 C-1.35024812 15.54009925 -4.91818729 15.65159212 -9 15 C-11.5625 13.5 -11.5625 13.5 -13 11 C-13.56701749 8.03360325 -13.39370923 6.10046016 -13 3 C-9.99805775 -1.1766153 -4.67562596 -0.72252124 0 0 Z " fill="#000503" transform="translate(179,388)"/>
<path d="M0 0 C2.4375 1.625 2.4375 1.625 4 4 C4.60417093 7.08798473 4.64425395 8.97537471 2.94140625 11.68359375 C0.18187387 15.09820801 -1.49575832 16.83649547 -5.875 17.3125 C-9 17 -9 17 -11.375 15.4375 C-13.67837564 11.98243655 -13.70310804 10.07802665 -13 6 C-9.77259911 0.78826075 -6.19069523 -1.14642504 0 0 Z " fill="#000302" transform="translate(323,387)"/>
<path d="M0 0 C3.0625 1.5625 3.0625 1.5625 5 4 C5.625 7.5 5.625 7.5 5 11 C2.84181001 13.71514225 1.22242866 14.76943516 -2.1953125 15.4140625 C-6.32412706 15.67296506 -8.31062378 15.57167784 -11.5625 12.875 C-13.2431765 9.51364699 -13.63069292 7.70532093 -13 4 C-9.94931495 -1.04026226 -5.33865962 -0.92144125 0 0 Z " fill="#000302" transform="translate(203,375)"/>
<path d="M0 0 C2.75 1.5625 2.75 1.5625 4 4 C3.94018843 7.40925936 3.81612769 9.87259284 1.78125 12.68359375 C-1.34780947 14.99607849 -4.62965663 14.52353981 -8.38671875 14.4140625 C-11 14 -11 14 -13.75 11.875 C-15.29099524 8.33071095 -15.19110371 6.65271806 -14 3 C-10.5778586 -1.63963401 -5.21770478 -0.68633486 0 0 Z " fill="#000402" transform="translate(280,293)"/>
<path d="M0 0 C0.33 0 0.66 0 1 0 C1 16.5 1 33 1 50 C0.67 50 0.34 50 0 50 C-0.03758423 48.11510864 -0.03758423 48.11510864 -0.07592773 46.19213867 C-0.17002295 41.53480643 -0.27023859 36.87762259 -0.37231445 32.22045898 C-0.41565529 30.20389271 -0.45733098 28.18728993 -0.49731445 26.1706543 C-0.55503747 23.27381383 -0.61872622 20.37715694 -0.68359375 17.48046875 C-0.70030624 16.57725388 -0.71701874 15.674039 -0.73423767 14.74345398 C-0.75418289 13.90280899 -0.77412811 13.062164 -0.79467773 12.19604492 C-0.81022202 11.45658127 -0.8257663 10.71711761 -0.84178162 9.95524597 C-0.93912225 7.7848329 -0.93912225 7.7848329 -2 5 C-1.0625 2.3125 -1.0625 2.3125 0 0 Z " fill="#CEEAA3" transform="translate(372,399)"/>
</svg>
