<?xml version="1.0" encoding="UTF-8"?>
<svg version="1.1" xmlns="http://www.w3.org/2000/svg" width="512" height="512">
<path d="M0 0 C4.59160411 2.93523686 8.47832082 6.65485922 12.328125 10.48828125 C13.029375 10.15054688 13.730625 9.8128125 14.453125 9.46484375 C26.58043535 3.7636897 36.09282831 1.76318072 49.07421875 6.03515625 C57.84804227 9.95335835 63.59785542 17.35452502 68.328125 25.48828125 C69.194375 25.15828125 70.060625 24.82828125 70.953125 24.48828125 C80.67459379 21.7725673 91.49860388 22.5697342 100.328125 27.48828125 C108.0546934 32.92344613 113.83071461 39.48902208 115.84375 48.8984375 C116.0922158 50.75212317 116.22438144 52.62089723 116.328125 54.48828125 C117.45347656 54.43607422 117.45347656 54.43607422 118.6015625 54.3828125 C129.7444619 54.08810105 138.69091432 56.14168826 147.328125 63.48828125 C154.41686525 71.10325986 157.50460601 79.42850963 157.390625 89.80078125 C157.38160156 90.86941406 157.37257813 91.93804687 157.36328125 93.0390625 C157.34587891 94.25142578 157.34587891 94.25142578 157.328125 95.48828125 C158.441875 95.55015625 159.555625 95.61203125 160.703125 95.67578125 C168.56901273 96.69208179 175.43585306 100.68198455 180.79296875 106.45703125 C187.96201748 115.94279547 188.89392211 124.89601951 188.328125 136.48828125 C187.86997099 139.01012028 187.24249587 141.08805771 186.328125 143.48828125 C186.9571875 143.88917969 187.58625 144.29007813 188.234375 144.703125 C198.24423209 151.35123791 204.58143649 157.55889253 207.71484375 169.40234375 C208.90238576 175.3778736 208.36397611 180.50055652 207.328125 186.48828125 C208.15014404 186.49239014 208.97216309 186.49649902 209.8190918 186.50073242 C213.55199542 186.53367368 217.28326834 186.60432229 221.015625 186.67578125 C222.30919922 186.68158203 223.60277344 186.68738281 224.93554688 186.69335938 C226.18271484 186.72236328 227.42988281 186.75136719 228.71484375 186.78125 C229.86170654 186.79696045 231.00856934 186.8126709 232.19018555 186.82885742 C236.31142183 187.69491665 237.80284018 189.16173759 240.328125 192.48828125 C240.95922852 195.13769531 240.95922852 195.13769531 240.95703125 198.00390625 C240.96452393 199.61446899 240.96452393 199.61446899 240.97216797 201.25756836 C240.94525879 202.40620361 240.91834961 203.55483887 240.890625 204.73828125 C240.87402832 205.93396729 240.85743164 207.12965332 240.84033203 208.36157227 C239.84916721 247.36878678 226.81911598 283.72825464 200.328125 312.48828125 C199.61398437 313.28492188 198.89984375 314.0815625 198.1640625 314.90234375 C174.07271014 340.48196498 136.97455574 357.1595613 103.328125 365.48828125 C102.338125 365.48828125 101.348125 365.48828125 100.328125 365.48828125 C100.35430908 366.58293701 100.38049316 367.67759277 100.4074707 368.80541992 C100.49815719 372.87731383 100.55544049 376.94911901 100.6027832 381.02172852 C100.62788561 382.78229801 100.66197528 384.54276372 100.70532227 386.30297852 C100.76616615 388.83766304 100.79437613 391.370967 100.81640625 393.90625 C100.84221268 394.68977341 100.8680191 395.47329681 100.89460754 396.28056335 C100.8949852 397.02095352 100.89536285 397.76134369 100.89575195 398.52416992 C100.90685501 399.17036789 100.91795807 399.81656586 100.92939758 400.48234558 C99.91529847 403.86553258 98.06288594 405.30535969 95.328125 407.48828125 C92.32904374 408.2166423 89.40715354 408.16374407 86.33251953 408.12319946 C85.42522661 408.13099942 84.51793369 408.13879937 83.58314705 408.14683568 C80.54199786 408.16678442 77.50209604 408.15097962 74.4609375 408.13525391 C72.28114084 408.14202873 70.1013499 408.15093109 67.92156982 408.1618042 C62.00008899 408.18461995 56.07904318 408.17575153 50.15755463 408.15990877 C43.96456213 408.14726172 37.77160722 408.15898657 31.57861328 408.1668396 C20.51154353 408.17652272 9.44466651 408.1609714 -1.62237239 408.13554291 C-11.65524746 408.11320423 -21.68783327 408.11708442 -31.72070312 408.14013672 C-43.37367649 408.166805 -55.02646884 408.17685199 -66.67946815 408.1620754 C-72.84723482 408.15427481 -79.01480224 408.15325621 -85.18255615 408.16975784 C-90.9808005 408.18418687 -96.77849787 408.17420889 -102.57668304 408.14528656 C-104.70637859 408.13866746 -106.83612006 408.1405874 -108.96579742 408.15159988 C-111.8699124 408.16523397 -114.77226719 408.14816503 -117.67626953 408.12319946 C-118.9449931 408.13992988 -118.9449931 408.13992988 -120.23934746 408.15699828 C-124.57827753 408.08448455 -126.1837166 407.8779356 -129.69652081 405.07396984 C-131.63222365 402.54018386 -132.29274611 401.62297991 -132.23950195 398.52416992 C-132.2391243 397.78377975 -132.23874664 397.04338959 -132.23835754 396.28056335 C-132.21255112 395.49703995 -132.18674469 394.71351654 -132.16015625 393.90625 C-132.14954414 392.68498161 -132.14954414 392.68498161 -132.13871765 391.43904114 C-132.11083098 388.85033482 -132.04810816 386.26382852 -131.984375 383.67578125 C-131.9592845 381.91604697 -131.93647264 380.15627862 -131.91601562 378.39648438 C-131.86102372 374.09290829 -131.77479492 369.79096715 -131.671875 365.48828125 C-132.26758301 365.38523682 -132.86329102 365.28219238 -133.47705078 365.17602539 C-140.05495452 363.9596687 -146.24382439 362.15022766 -152.546875 359.92578125 C-153.54211182 359.57572021 -154.53734863 359.22565918 -155.56274414 358.86499023 C-183.50553322 348.83612328 -209.61226996 334.6628091 -230.671875 313.48828125 C-231.55359375 312.6065625 -232.4353125 311.72484375 -233.34375 310.81640625 C-260.09292214 282.7380827 -271.45585032 243.34783858 -272.109375 205.36328125 C-272.16121948 203.58219971 -272.16121948 203.58219971 -272.21411133 201.76513672 C-272.21950928 200.63994629 -272.22490723 199.51475586 -272.23046875 198.35546875 C-272.24392334 197.34597168 -272.25737793 196.33647461 -272.27124023 195.29638672 C-271.42915538 191.3511077 -269.86015646 189.90017967 -266.671875 187.48828125 C-263.53393555 186.82885742 -263.53393555 186.82885742 -260.05859375 186.78125 C-258.81142578 186.75224609 -257.56425781 186.72324219 -256.27929688 186.69335938 C-254.98572266 186.68755859 -253.69214844 186.68175781 -252.359375 186.67578125 C-251.04646484 186.65064453 -249.73355469 186.62550781 -248.38085938 186.59960938 C-245.14423011 186.54076157 -241.90895282 186.50446188 -238.671875 186.48828125 C-238.83196045 185.70976807 -238.9920459 184.93125488 -239.15698242 184.12915039 C-240.84828697 175.45449826 -239.56266923 167.41629744 -235.671875 159.48828125 C-230.83893863 152.6255116 -224.88951869 147.68577616 -217.671875 143.48828125 C-218.001875 142.62203125 -218.331875 141.75578125 -218.671875 140.86328125 C-221.38758895 131.14181246 -220.59042205 120.31780237 -215.671875 111.48828125 C-210.23671012 103.76171285 -203.67113417 97.98569164 -194.26171875 95.97265625 C-192.40803308 95.72419045 -190.53925902 95.59202481 -188.671875 95.48828125 C-188.70667969 94.73804688 -188.74148437 93.9878125 -188.77734375 93.21484375 C-189.0720552 82.07194435 -187.01846799 73.12549193 -179.671875 64.48828125 C-172.05689639 57.399541 -163.73164662 54.31180024 -153.359375 54.42578125 C-151.75642578 54.43931641 -151.75642578 54.43931641 -150.12109375 54.453125 C-149.31285156 54.46472656 -148.50460938 54.47632813 -147.671875 54.48828125 C-147.5790625 52.81765625 -147.5790625 52.81765625 -147.484375 51.11328125 C-146.46807446 43.24739352 -142.4781717 36.38055319 -136.703125 31.0234375 C-127.21736078 23.85438877 -118.26413674 22.92248414 -106.671875 23.48828125 C-104.15003597 23.94643526 -102.07209854 24.57391038 -99.671875 25.48828125 C-99.27097656 24.85921875 -98.87007812 24.23015625 -98.45703125 23.58203125 C-91.04748491 12.42570751 -84.02864676 6.21763435 -70.671875 3.48828125 C-61.46226156 1.8837025 -51.66367131 6.30038799 -43.671875 10.48828125 C-43.28257812 10.04097656 -42.89328125 9.59367187 -42.4921875 9.1328125 C-31.900724 -2.31280129 -14.50279297 -6.78276882 0 0 Z " fill="#000000" transform="translate(271.671875,53.51171875)"/>
<path d="M0 0 C155.1 0 310.2 0 470 0 C470 16 470 16 469 20 C467.87505127 20.00410889 466.75010254 20.00821777 465.59106445 20.01245117 C461.40668275 20.03426678 457.22323815 20.08858097 453.03930664 20.15258789 C451.23047892 20.17574685 449.42151675 20.19015869 447.61254883 20.19555664 C445.00777617 20.20486196 442.40511176 20.24588355 439.80078125 20.29296875 C438.99538406 20.2890361 438.18998688 20.28510345 437.36018372 20.28105164 C433.12983581 20.39033088 431.4442426 20.65880762 427.97729492 23.3215332 C425.40845564 26.8013129 425.46058625 28.76174909 426 33 C427.18767855 36.38031589 427.89825225 36.93216817 431 39 C433.53586848 39.23993655 435.97216031 39.37253219 438.51171875 39.4140625 C439.60405571 39.44311172 439.60405571 39.44311172 440.71846008 39.4727478 C443.04135475 39.53246376 445.36429919 39.57889617 447.6875 39.625 C449.26369332 39.66318721 450.83986595 39.70223938 452.41601562 39.7421875 C456.27717535 39.83815848 460.13843276 39.92221849 464 40 C463.41161801 44.84111765 461.92346884 48.96071195 459.9375 53.375 C459.65583984 54.01566406 459.37417969 54.65632813 459.08398438 55.31640625 C458.39540579 56.88029659 457.69855289 58.44053941 457 60 C455.60767513 60.00081715 455.60767513 60.00081715 454.18722248 60.00165081 C431.61159761 60.01604013 409.03616568 60.05903142 386.46065235 60.13209057 C375.54332554 60.16675776 364.62612522 60.19209836 353.70874023 60.19555664 C344.19419189 60.19859412 334.67986871 60.21905556 325.16540736 60.26052457 C320.1265508 60.28187582 315.08801454 60.29444425 310.04911232 60.28615379 C305.30721849 60.27862714 300.56597438 60.2943799 295.82419968 60.32806015 C294.08314491 60.33631016 292.34202574 60.33602368 290.60097694 60.32659721 C288.22412709 60.31500149 285.84941593 60.3340499 283.47273254 60.36076355 C282.78303511 60.35009029 282.09333768 60.33941703 281.38274032 60.32842034 C277.56664504 60.40849394 276.060523 60.95071641 273.05858898 63.39517689 C270.85337566 65.76273774 270.85337566 65.76273774 270.58984375 68.31640625 C270.70457031 69.05761719 270.81929688 69.79882812 270.9375 70.5625 C271.02902344 71.30628906 271.12054688 72.05007813 271.21484375 72.81640625 C272.27850864 75.77455884 273.53705997 77.0376464 276 79 C279.20546153 79.60658356 279.20546153 79.60658356 282.85894775 79.51898193 C283.54840225 79.52648319 284.23785675 79.53398444 284.9482038 79.541713 C287.25776724 79.56200831 289.56635065 79.55388453 291.87597656 79.54589844 C293.53172783 79.55463251 295.18747065 79.56511771 296.84320068 79.57722473 C301.33875516 79.60512589 305.83403478 79.60848851 310.32966328 79.60750484 C315.02759801 79.61063042 319.7254083 79.63624119 324.42327881 79.65948486 C333.31963492 79.70007569 342.21591767 79.72039281 351.11235213 79.73345876 C361.2404922 79.74931837 371.36850725 79.7877296 381.49657488 79.82805204 C402.33100871 79.91049316 423.1654367 79.96455895 444 80 C436.73945834 95.4117207 419.19540214 106.66576565 405 115 C404.32678711 115.39687012 403.65357422 115.79374023 402.95996094 116.20263672 C385.03225383 126.59246422 365.09610813 134.01516195 345 139 C344.04860213 139.26230337 344.04860213 139.26230337 343.07798409 139.5299058 C339.62648427 140.31072508 336.11668187 140.15916746 332.59417725 140.1673584 C331.73789647 140.17315178 330.8816157 140.17894517 329.99938703 140.18491411 C327.12427128 140.2029794 324.24917515 140.21384757 321.37402344 140.22460938 C319.31387657 140.23578616 317.2537315 140.24729954 315.19358826 140.25912476 C308.41554293 140.29570586 301.63747903 140.32092476 294.859375 140.34375 C293.12564432 140.3496688 293.12564432 140.3496688 291.35688877 140.35570717 C280.43784575 140.39215861 269.51879613 140.42358104 258.59971237 140.44481659 C244.67619387 140.47230032 230.75318974 140.52287193 216.82988524 140.60529089 C207.01974961 140.66137041 197.20975214 140.69009493 187.39946198 140.6992898 C181.55337881 140.70550671 175.70789826 140.72326215 169.86199188 140.77067566 C123.40767408 141.13046151 123.40767408 141.13046151 104 133 C102.71045199 132.52074226 101.41819304 132.04868078 100.12266541 131.58583069 C97.25865809 130.54734616 94.47861509 129.40667314 91.6875 128.1875 C90.70587891 127.76645996 89.72425781 127.34541992 88.71289062 126.91162109 C65.65587466 116.85873224 40.96209194 103.02068551 26 82 C26 81.34 26 80.68 26 80 C26.8509106 79.99668985 27.70182119 79.99337971 28.57851696 79.98996925 C49.27642874 79.90877343 69.97426708 79.81669217 90.67207623 79.71247292 C100.68135231 79.66233633 110.69062015 79.6158935 120.69995117 79.578125 C129.42337443 79.54519931 138.14673399 79.50536485 146.87008697 79.45720994 C151.48966405 79.43195074 156.1091989 79.41016771 160.72882652 79.39665604 C165.07656655 79.38383049 169.42416172 79.36177066 173.77182198 79.33261681 C175.36775014 79.32354491 176.96370162 79.3178517 178.55965424 79.31578636 C180.73884251 79.31246107 182.91762081 79.29697675 185.09672546 79.2784729 C186.31625758 79.27294214 187.5357897 79.26741138 188.79227734 79.26171303 C191.97581241 79.00197343 194.1780576 78.47386678 197 77 C199.10053204 73.39908794 199.52544593 70.11599315 199 66 C196.76793569 63.15219381 195.45007001 62.15002334 192 61 C189.61627232 60.8955525 187.22969046 60.85346944 184.84370422 60.84178162 C184.11018508 60.83684364 183.37666593 60.83190566 182.62091893 60.82681805 C180.15654266 60.81142767 177.69219248 60.80307827 175.2277832 60.79467773 C173.46381398 60.78510042 171.69984706 60.77509043 169.93588257 60.76467896 C165.14077331 60.73760794 160.34565418 60.71661026 155.55051064 60.69667697 C150.54164593 60.67483097 145.53281169 60.64743551 140.52397156 60.62062073 C131.03615049 60.57067508 121.54831252 60.52574319 112.06045836 60.48259836 C101.26009049 60.43324199 90.45975319 60.37831793 79.65941489 60.32291877 C57.43963841 60.20906998 35.21983274 60.10223725 13 60 C11.82421696 57.42047597 10.659209 54.83696062 9.5 52.25 C9.16613281 51.52039063 8.83226562 50.79078125 8.48828125 50.0390625 C8.01455078 48.97558594 8.01455078 48.97558594 7.53125 47.890625 C7.23798828 47.24125977 6.94472656 46.59189453 6.64257812 45.92285156 C6 44 6 44 6 40 C6.91289795 39.98018066 7.8257959 39.96036133 8.76635742 39.93994141 C12.16782472 39.86163736 15.56886604 39.77493775 18.9699707 39.68261719 C20.43928862 39.64444048 21.90869639 39.60956818 23.37817383 39.578125 C25.49593114 39.53222711 27.6130759 39.47427628 29.73046875 39.4140625 C31.00301514 39.3826416 32.27556152 39.3512207 33.58666992 39.31884766 C36.83480734 39.01543106 39.10610168 38.468367 42 37 C44.60756392 33.64741781 44.43949492 30.10195255 44 26 C41.78136971 23.09282927 40.48055071 22.16018357 37 21 C34.27116927 20.84629652 31.56302858 20.74271735 28.83203125 20.68359375 C28.03721848 20.66281265 27.2424057 20.64203156 26.42350769 20.62062073 C23.88659237 20.55527913 21.34957427 20.49631192 18.8125 20.4375 C17.09178628 20.39430014 15.37108292 20.35068537 13.65039062 20.30664062 C9.43369887 20.19961352 5.2169038 20.09830276 1 20 C-0.61892404 13.52430386 0 6.6749948 0 0 Z " fill="#FED98E" transform="translate(21,261)"/>
<path d="M0 0 C7.81428052 2.71107691 11.88647746 9.41311693 15.82421875 16.30078125 C17.05538317 18.30312359 17.05538317 18.30312359 20 20 C24.01940383 20.34207692 26.55789486 20.07339404 30 18 C31.49336213 16.42467843 31.49336213 16.42467843 32.8125 14.625 C36.33010201 10.41267159 39.71227416 7.55753393 45.234375 6.62109375 C49.16443756 6.41667774 51.64250251 6.83500116 55.25 8.5 C61.22818859 13.9347169 63.53010099 19.77169873 65.2265625 27.58203125 C66.07755654 30.24246213 66.75029345 31.36672358 69 33 C73.05624922 34.07005348 76.74012291 33.71022483 80.390625 31.65234375 C81.18984375 31.10707031 81.9890625 30.56179687 82.8125 30 C88.337419 26.34837385 93.51352527 25.81647066 100 27 C104.52733129 29.01591813 106.74385591 31.61077422 109 36 C109.61129288 39.56236194 109.50728146 43.11894916 109.48828125 46.72265625 C109.59059404 51.92200606 110.56973961 54.85296879 114 59 C116.79884246 60.39942123 118.88570077 60.17967111 122 60 C122.86625 59.67 123.7325 59.34 124.625 59 C130.353178 57.30276208 137.09149271 56.66061289 142.62109375 59.20703125 C146.41635616 62.06749996 148.75023709 64.30880877 149.4609375 69.12109375 C149.43257813 70.21550781 149.40421875 71.30992187 149.375 72.4375 C149.35566406 74.07525391 149.35566406 74.07525391 149.3359375 75.74609375 C148.99072323 79.0898552 148.09453155 81.83508949 147 85 C147.07344818 89.18654614 147.49126438 91.31904649 150.0078125 94.6875 C154.04660735 97.80886625 156.86762181 97.54670892 161.8125 97.4375 C168.37087073 97.5223831 172.76616565 97.8953048 177.78515625 102.52734375 C180.6568237 106.00843258 180.43930636 109.49674931 180.43359375 113.85546875 C179.78766906 118.53987757 177.59596142 122.09466814 175.35546875 126.203125 C173.37500637 130.28961222 173.1396485 132.54181495 174 137 C177.45237233 142.62608824 182.79097825 143.26053069 188.890625 144.96484375 C194.15351814 146.71693757 196.92010067 149.380151 200 154 C200.83218738 159.67400484 200.06874967 164.09000053 197 169 C195.15350511 170.84649489 192.14026537 170.13056007 189.66961861 170.13422108 C188.66127693 170.13774942 188.66127693 170.13774942 187.63256472 170.14134905 C185.35179858 170.14807225 183.07108897 170.14757983 180.79031372 170.14717102 C179.14991731 170.15046758 177.50952171 170.1541927 175.86912715 170.1583125 C171.33935075 170.1683642 166.80958759 170.17205436 162.27980161 170.17470181 C157.40309154 170.17859546 152.52639206 170.18817437 147.64968872 170.19691467 C135.86207925 170.21670499 124.07446888 170.22674822 112.28684694 170.23564246 C106.74239725 170.24002088 101.19794853 170.24538881 95.6534996 170.25063133 C77.23401398 170.26764564 58.81452897 170.28214148 40.3950367 170.28938007 C35.61182784 170.29129012 30.82861899 170.29321043 26.04541016 170.29516602 C24.85649791 170.29564976 23.66758566 170.2961335 22.44264577 170.2966319 C3.16799101 170.30493839 -16.10660181 170.33028484 -35.3812295 170.36274669 C-55.14858383 170.3957683 -74.91590663 170.41382436 -94.68328869 170.41702431 C-105.79069744 170.41919389 -116.89801585 170.42800773 -128.0053978 170.45348549 C-137.46182396 170.47512563 -146.91813786 170.48327601 -156.37458597 170.47351871 C-161.20328771 170.4689546 -166.0317575 170.47098192 -170.86042786 170.49028015 C-175.27578731 170.5077749 -179.69074326 170.50702677 -184.10610618 170.49138286 C-185.70841193 170.48898579 -187.31074463 170.49343767 -188.91300891 170.50521151 C-191.0818176 170.52016871 -193.24916628 170.51077325 -195.41793633 170.49498463 C-196.62528462 170.49596144 -197.83263292 170.49693824 -199.07656753 170.49794465 C-202 170 -202 170 -203.84887898 168.15656346 C-206.31094674 163.54401164 -206.86951949 159.12334521 -206 154 C-202.85789297 147.84770646 -197.33124983 145.08546236 -191 143 C-189.5458 142.64907326 -188.08750078 142.3145452 -186.625 142 C-183.07239145 141.28099976 -183.07239145 141.28099976 -181 139.375 C-179.49572177 135.8023392 -179.16263826 132.74540872 -180 129 C-180.94236441 127.40207774 -181.94871441 125.84096487 -183 124.3125 C-186.76937896 118.54231324 -187.35923094 112.73437148 -186 106 C-183.58329624 102.22185001 -181.11443407 99.80295425 -177 98 C-173.42603759 97.48838984 -169.84233882 97.51622862 -166.23828125 97.47265625 C-161.67171102 97.33525502 -158.75731915 96.8787065 -155 94 C-153.34686823 91.97115647 -152.97398463 90.67639972 -153.07421875 88.0703125 C-153.42669761 84.9153378 -153.9958826 82.01235221 -155 79 C-156.1568041 68.16411351 -156.1568041 68.16411351 -153.73046875 63.625 C-151.66967999 61.21823941 -149.84152502 59.42076251 -147 58 C-144.91939575 57.8764282 -142.83423667 57.82439633 -140.75 57.8125 C-139.07164062 57.79123047 -139.07164062 57.79123047 -137.359375 57.76953125 C-133.91218878 58.00602426 -131.24433568 58.86583808 -128 60 C-123.95175408 59.86040531 -121.78651624 59.64163167 -118.625 57.0625 C-115.14777655 52.649101 -115.72760388 47.86740858 -115.65820312 42.47265625 C-115.42515803 36.26173337 -113.64031509 32.60164939 -109.1328125 28.16015625 C-104.50013885 25.64018542 -99.07180034 26.24537227 -94 27 C-91.22325666 28.33982721 -88.82304951 29.90735983 -86.28125 31.64453125 C-82.52003474 33.87936292 -80.28415873 33.79874146 -76 33 C-73.02775047 30.99696227 -71.40434364 29.45674488 -70.4296875 25.9453125 C-70.13809955 24.41315038 -69.85585087 22.8791871 -69.58203125 21.34375 C-68.31380477 16.23679772 -65.21502861 12.35003179 -61.75 8.5 C-57.75302227 6.31983033 -54.45259203 6.27775681 -50 7 C-44.35453057 8.73469879 -40.86443052 11.76816854 -37.32421875 16.4140625 C-34.97610475 19.22625803 -33.2368398 19.97368447 -29.625 20.375 C-25.22985438 19.92032976 -23.99010293 19.22616369 -21 16 C-20.179086 14.55792773 -19.38984602 13.09757692 -18.625 11.625 C-14.51154045 3.71148734 -9.00994289 -0.60066286 0 0 Z " fill="#FEF4F4" transform="translate(259,71)"/>
<path d="M0 0 C4.46083326 0.78194907 6.80900392 2.39232802 9.5 6.125 C9.5 7.445 9.5 8.765 9.5 10.125 C17.75 10.125 26 10.125 34.5 10.125 C35.49 12.435 36.48 14.745 37.5 17.125 C41.14976953 19.55817968 42.88772405 19.38400548 47.23869324 19.4034729 C48.27159334 19.4121615 48.27159334 19.4121615 49.32536012 19.42102563 C51.63777095 19.43806049 53.94998262 19.44090508 56.26245117 19.44384766 C57.91805004 19.45314344 59.57364421 19.46331159 61.22923279 19.47428894 C65.72890164 19.50164248 70.2285391 19.51675418 74.72826934 19.52971697 C79.42885306 19.54532412 84.12937243 19.57212201 88.82991028 19.5977478 C97.7333604 19.64457844 106.63682256 19.68130179 115.54033309 19.71442068 C125.6756788 19.75261182 135.81095994 19.80202983 145.94625127 19.85240483 C166.79745321 19.95578841 187.648696 20.04502788 208.5 20.125 C201.23945834 35.5367207 183.69540214 46.79076565 169.5 55.125 C168.82678711 55.52187012 168.15357422 55.91874023 167.45996094 56.32763672 C149.53225383 66.71746422 129.59610813 74.14016195 109.5 79.125 C108.54860213 79.38730337 108.54860213 79.38730337 107.57798409 79.6549058 C104.12648427 80.43572508 100.61668187 80.28416746 97.09417725 80.2923584 C96.23789647 80.29815178 95.3816157 80.30394517 94.49938703 80.30991411 C91.62427128 80.3279794 88.74917515 80.33884757 85.87402344 80.34960938 C83.81387657 80.36078616 81.7537315 80.37229954 79.69358826 80.38412476 C72.91554293 80.42070586 66.13747903 80.44592476 59.359375 80.46875 C57.62564432 80.4746688 57.62564432 80.4746688 55.85688877 80.48070717 C44.93784575 80.51715861 34.01879613 80.54858104 23.09971237 80.56981659 C9.17619387 80.59730032 -4.74681026 80.64787193 -18.67011476 80.73029089 C-28.48025039 80.78637041 -38.29024786 80.81509493 -48.10053802 80.8242898 C-53.94662119 80.83050671 -59.79210174 80.84826215 -65.63800812 80.89567566 C-112.09232592 81.25546151 -112.09232592 81.25546151 -131.5 73.125 C-132.78954801 72.64574226 -134.08180696 72.17368078 -135.37733459 71.71083069 C-138.24134191 70.67234616 -141.02138491 69.53167314 -143.8125 68.3125 C-144.79412109 67.89145996 -145.77574219 67.47041992 -146.78710938 67.03662109 C-169.84412534 56.98373224 -194.53790806 43.14568551 -209.5 22.125 C-209.5 21.465 -209.5 20.805 -209.5 20.125 C-208.6490894 20.12168985 -207.79817881 20.11837971 -206.92148304 20.11496925 C-186.22357126 20.03377343 -165.52573292 19.94169217 -144.82792377 19.83747292 C-134.81864769 19.78733633 -124.80937985 19.7408935 -114.80004883 19.703125 C-106.07662557 19.67019931 -97.35326601 19.63036485 -88.62991303 19.58220994 C-84.01033595 19.55695074 -79.3908011 19.53516771 -74.77117348 19.52165604 C-70.42343345 19.50883049 -66.07583828 19.48677066 -61.72817802 19.45761681 C-60.13224986 19.44854491 -58.53629838 19.4428517 -56.94034576 19.44078636 C-54.76115749 19.43746107 -52.58237919 19.42197675 -50.40327454 19.4034729 C-49.18374242 19.39794214 -47.9642103 19.39241138 -46.70772266 19.38671303 C-43.3788464 19.11511527 -41.33051509 18.90670248 -38.5 17.125 C-37.51 14.815 -36.52 12.505 -35.5 10.125 C-27.25 10.125 -19 10.125 -10.5 10.125 C-10.17 8.475 -9.84 6.825 -9.5 5.125 C-6.72739272 1.13937703 -4.79134061 -0.28748044 0 0 Z " fill="#FE7A78" transform="translate(256.5,320.875)"/>
<path d="M0 0 C63.36 0 126.72 0 192 0 C192 6.6 192 13.2 192 20 C128.64 20 65.28 20 0 20 C0 13.4 0 6.8 0 0 Z " fill="#918787" transform="translate(160,421)"/>
<path d="M0 0 C5.91638757 0.12565779 9.11849845 4.07266587 13.05566406 8.09179688 C14.76282049 9.82882577 16.50089718 11.53158107 18.2421875 13.234375 C20.7234141 15.67512276 23.20068747 18.11934803 25.65625 20.5859375 C26.16865234 21.09946777 26.68105469 21.61299805 27.20898438 22.14208984 C29.12856364 24.24517867 30.51911181 25.83967377 30.6796875 28.74609375 C30.30419798 32.33746935 29.93896965 34.99755058 28.0625 38.125 C24.19456562 40.44576063 21.07333011 41.46588144 16.5625 40.625 C13.29013958 38.56115042 10.71477785 35.96764135 8.05322266 33.17431641 C6.36373685 31.41842434 4.62930572 29.71489486 2.88671875 28.01171875 C0.40324646 25.57315325 -2.07597725 23.13105164 -4.53125 20.6640625 C-5.04365234 20.15053223 -5.55605469 19.63700195 -6.08398438 19.10791016 C-9.17733953 15.71883382 -9.92009019 13.19839734 -9.8359375 8.62890625 C-9.17026198 5.28094997 -7.00506316 3.69157523 -4.4375 1.625 C-3.4375 0.625 -3.4375 0.625 0 0 Z " fill="#070707" transform="translate(375.4375,180.375)"/>
<path d="M0 0 C3.60672329 0.96642498 5.17070051 2.54122595 7.23046875 5.59765625 C7.99393347 10.263274 7.37496835 12.93810552 4.69067383 16.77563477 C1.37063878 20.91832354 -2.45062882 24.6054934 -6.20703125 28.34765625 C-7.05330078 29.21003906 -7.89957031 30.07242188 -8.77148438 30.9609375 C-9.59455078 31.78464844 -10.41761719 32.60835937 -11.265625 33.45703125 C-12.00997803 34.20436523 -12.75433105 34.95169922 -13.52124023 35.72167969 C-16.74970108 38.41551106 -19.64130431 39.43312315 -23.76953125 40.03515625 C-26.76953125 39.59765625 -26.76953125 39.59765625 -29.58203125 37.66015625 C-31.97762864 34.3063199 -33.05666797 32.1334102 -33.265625 28.03515625 C-32.29543009 23.26821434 -28.73681104 20.34510642 -25.31884766 17.08837891 C-23.56295559 15.3988931 -21.85942611 13.66446197 -20.15625 11.921875 C-17.7176845 9.43840271 -15.27558289 6.959179 -12.80859375 4.50390625 C-12.03829834 3.73530273 -12.03829834 3.73530273 -11.25244141 2.95117188 C-7.30879542 -0.64836276 -5.01982084 -0.71243787 0 0 Z " fill="#070606" transform="translate(158.76953125,181.40234375)"/>
<path d="M0 0 C3.60672329 0.96642498 5.17070051 2.54122595 7.23046875 5.59765625 C7.99393347 10.263274 7.37496835 12.93810552 4.69067383 16.77563477 C1.37063878 20.91832354 -2.45062882 24.6054934 -6.20703125 28.34765625 C-7.05330078 29.21003906 -7.89957031 30.07242188 -8.77148438 30.9609375 C-9.59455078 31.78464844 -10.41761719 32.60835937 -11.265625 33.45703125 C-12.00997803 34.20436523 -12.75433105 34.95169922 -13.52124023 35.72167969 C-16.74970108 38.41551106 -19.64130431 39.43312315 -23.76953125 40.03515625 C-26.76953125 39.59765625 -26.76953125 39.59765625 -29.58203125 37.66015625 C-31.97762864 34.3063199 -33.05666797 32.1334102 -33.265625 28.03515625 C-32.29543009 23.26821434 -28.73681104 20.34510642 -25.31884766 17.08837891 C-23.56295559 15.3988931 -21.85942611 13.66446197 -20.15625 11.921875 C-17.7176845 9.43840271 -15.27558289 6.959179 -12.80859375 4.50390625 C-12.03829834 3.73530273 -12.03829834 3.73530273 -11.25244141 2.95117188 C-7.30879542 -0.64836276 -5.01982084 -0.71243787 0 0 Z " fill="#070606" transform="translate(278.76953125,161.40234375)"/>
<path d="M0 0 C1.18529297 -0.020625 2.37058594 -0.04125 3.59179688 -0.0625 C14.70105919 -0.11234526 14.70105919 -0.11234526 19.3125 3.25 C21.79636059 6.97579089 21.6929212 8.83711402 21.3125 13.25 C19.98288044 16.39909896 19.1490543 17.83382154 16.07421875 19.36352539 C10.94957874 21.00846597 5.65127577 20.66115736 0.3125 20.6875 C-0.863125 20.72037109 -2.03875 20.75324219 -3.25 20.78710938 C-11.83474496 20.84076403 -11.83474496 20.84076403 -15.9296875 18.00390625 C-18.4313389 14.08465238 -19.29218676 10.88593186 -18.6875 6.25 C-16.3125 3.25 -16.3125 3.25 -13.6875 1.25 C-11.05722897 -1.38027103 -3.53583668 0.01513467 0 0 Z " fill="#030302" transform="translate(404.6875,280.75)"/>
<path d="M0 0 C1.18529297 -0.020625 2.37058594 -0.04125 3.59179688 -0.0625 C14.70105919 -0.11234526 14.70105919 -0.11234526 19.3125 3.25 C21.79636059 6.97579089 21.6929212 8.83711402 21.3125 13.25 C19.98288044 16.39909896 19.1490543 17.83382154 16.07421875 19.36352539 C10.94957874 21.00846597 5.65127577 20.66115736 0.3125 20.6875 C-0.863125 20.72037109 -2.03875 20.75324219 -3.25 20.78710938 C-11.83474496 20.84076403 -11.83474496 20.84076403 -15.9296875 18.00390625 C-18.4313389 14.08465238 -19.29218676 10.88593186 -18.6875 6.25 C-16.3125 3.25 -16.3125 3.25 -13.6875 1.25 C-11.05722897 -1.38027103 -3.53583668 0.01513467 0 0 Z " fill="#030302" transform="translate(344.6875,280.75)"/>
<path d="M0 0 C1.18529297 -0.020625 2.37058594 -0.04125 3.59179688 -0.0625 C14.70105919 -0.11234526 14.70105919 -0.11234526 19.3125 3.25 C21.79636059 6.97579089 21.6929212 8.83711402 21.3125 13.25 C19.98288044 16.39909896 19.1490543 17.83382154 16.07421875 19.36352539 C10.94957874 21.00846597 5.65127577 20.66115736 0.3125 20.6875 C-0.863125 20.72037109 -2.03875 20.75324219 -3.25 20.78710938 C-11.83474496 20.84076403 -11.83474496 20.84076403 -15.9296875 18.00390625 C-18.4313389 14.08465238 -19.29218676 10.88593186 -18.6875 6.25 C-16.3125 3.25 -16.3125 3.25 -13.6875 1.25 C-11.05722897 -1.38027103 -3.53583668 0.01513467 0 0 Z " fill="#030302" transform="translate(284.6875,280.75)"/>
<path d="M0 0 C1.18529297 -0.020625 2.37058594 -0.04125 3.59179688 -0.0625 C14.70105919 -0.11234526 14.70105919 -0.11234526 19.3125 3.25 C21.79636059 6.97579089 21.6929212 8.83711402 21.3125 13.25 C19.98288044 16.39909896 19.1490543 17.83382154 16.07421875 19.36352539 C10.94957874 21.00846597 5.65127577 20.66115736 0.3125 20.6875 C-0.863125 20.72037109 -2.03875 20.75324219 -3.25 20.78710938 C-11.83474496 20.84076403 -11.83474496 20.84076403 -15.9296875 18.00390625 C-18.4313389 14.08465238 -19.29218676 10.88593186 -18.6875 6.25 C-16.3125 3.25 -16.3125 3.25 -13.6875 1.25 C-11.05722897 -1.38027103 -3.53583668 0.01513467 0 0 Z " fill="#030302" transform="translate(224.6875,280.75)"/>
<path d="M0 0 C1.18529297 -0.020625 2.37058594 -0.04125 3.59179688 -0.0625 C14.70105919 -0.11234526 14.70105919 -0.11234526 19.3125 3.25 C21.79636059 6.97579089 21.6929212 8.83711402 21.3125 13.25 C19.98288044 16.39909896 19.1490543 17.83382154 16.07421875 19.36352539 C10.94957874 21.00846597 5.65127577 20.66115736 0.3125 20.6875 C-0.863125 20.72037109 -2.03875 20.75324219 -3.25 20.78710938 C-11.83474496 20.84076403 -11.83474496 20.84076403 -15.9296875 18.00390625 C-18.4313389 14.08465238 -19.29218676 10.88593186 -18.6875 6.25 C-16.3125 3.25 -16.3125 3.25 -13.6875 1.25 C-11.05722897 -1.38027103 -3.53583668 0.01513467 0 0 Z " fill="#030302" transform="translate(164.6875,280.75)"/>
<path d="M0 0 C1.18529297 -0.020625 2.37058594 -0.04125 3.59179688 -0.0625 C14.70105919 -0.11234526 14.70105919 -0.11234526 19.3125 3.25 C21.79636059 6.97579089 21.6929212 8.83711402 21.3125 13.25 C19.98288044 16.39909896 19.1490543 17.83382154 16.07421875 19.36352539 C10.94957874 21.00846597 5.65127577 20.66115736 0.3125 20.6875 C-0.863125 20.72037109 -2.03875 20.75324219 -3.25 20.78710938 C-11.83474496 20.84076403 -11.83474496 20.84076403 -15.9296875 18.00390625 C-18.4313389 14.08465238 -19.29218676 10.88593186 -18.6875 6.25 C-16.3125 3.25 -16.3125 3.25 -13.6875 1.25 C-11.05722897 -1.38027103 -3.53583668 0.01513467 0 0 Z " fill="#030302" transform="translate(104.6875,280.75)"/>
<path d="M0 0 C1.18529297 -0.020625 2.37058594 -0.04125 3.59179688 -0.0625 C14.70105919 -0.11234526 14.70105919 -0.11234526 19.3125 3.25 C21.79636059 6.97579089 21.6929212 8.83711402 21.3125 13.25 C19.98288044 16.39909896 19.1490543 17.83382154 16.07421875 19.36352539 C10.94957874 21.00846597 5.65127577 20.66115736 0.3125 20.6875 C-0.863125 20.72037109 -2.03875 20.75324219 -3.25 20.78710938 C-11.83474496 20.84076403 -11.83474496 20.84076403 -15.9296875 18.00390625 C-18.4313389 14.08465238 -19.29218676 10.88593186 -18.6875 6.25 C-16.3125 3.25 -16.3125 3.25 -13.6875 1.25 C-11.05722897 -1.38027103 -3.53583668 0.01513467 0 0 Z " fill="#030303" transform="translate(324.6875,200.75)"/>
<path d="M0 0 C1.18529297 -0.020625 2.37058594 -0.04125 3.59179688 -0.0625 C14.70105919 -0.11234526 14.70105919 -0.11234526 19.3125 3.25 C21.79636059 6.97579089 21.6929212 8.83711402 21.3125 13.25 C19.98288044 16.39909896 19.1490543 17.83382154 16.07421875 19.36352539 C10.94957874 21.00846597 5.65127577 20.66115736 0.3125 20.6875 C-0.863125 20.72037109 -2.03875 20.75324219 -3.25 20.78710938 C-11.83474496 20.84076403 -11.83474496 20.84076403 -15.9296875 18.00390625 C-18.4313389 14.08465238 -19.29218676 10.88593186 -18.6875 6.25 C-16.3125 3.25 -16.3125 3.25 -13.6875 1.25 C-11.05722897 -1.38027103 -3.53583668 0.01513467 0 0 Z " fill="#030303" transform="translate(204.6875,200.75)"/>
<path d="M0 0 C1.18529297 -0.020625 2.37058594 -0.04125 3.59179688 -0.0625 C14.70105919 -0.11234526 14.70105919 -0.11234526 19.3125 3.25 C21.79636059 6.97579089 21.6929212 8.83711402 21.3125 13.25 C19.98288044 16.39909896 19.1490543 17.83382154 16.07421875 19.36352539 C10.94957874 21.00846597 5.65127577 20.66115736 0.3125 20.6875 C-0.863125 20.72037109 -2.03875 20.75324219 -3.25 20.78710938 C-11.83474496 20.84076403 -11.83474496 20.84076403 -15.9296875 18.00390625 C-18.4313389 14.08465238 -19.29218676 10.88593186 -18.6875 6.25 C-16.3125 3.25 -16.3125 3.25 -13.6875 1.25 C-11.05722897 -1.38027103 -3.53583668 0.01513467 0 0 Z " fill="#030303" transform="translate(344.6875,140.75)"/>
<path d="M0 0 C1.18529297 -0.020625 2.37058594 -0.04125 3.59179688 -0.0625 C14.70105919 -0.11234526 14.70105919 -0.11234526 19.3125 3.25 C21.79636059 6.97579089 21.6929212 8.83711402 21.3125 13.25 C19.98288044 16.39909896 19.1490543 17.83382154 16.07421875 19.36352539 C10.94957874 21.00846597 5.65127577 20.66115736 0.3125 20.6875 C-0.863125 20.72037109 -2.03875 20.75324219 -3.25 20.78710938 C-11.83474496 20.84076403 -11.83474496 20.84076403 -15.9296875 18.00390625 C-18.4313389 14.08465238 -19.29218676 10.88593186 -18.6875 6.25 C-16.3125 3.25 -16.3125 3.25 -13.6875 1.25 C-11.05722897 -1.38027103 -3.53583668 0.01513467 0 0 Z " fill="#030303" transform="translate(264.6875,120.75)"/>
<path d="M0 0 C0.77859375 0.05929688 1.5571875 0.11859375 2.359375 0.1796875 C3.51179687 0.24542969 3.51179687 0.24542969 4.6875 0.3125 C8.52227745 1.48767373 9.81409293 2.71208267 12.109375 6.0546875 C12.8050728 10.37937848 12.7151916 14.62244301 12.609375 18.9921875 C12.61324219 20.74305664 12.61324219 20.74305664 12.6171875 22.52929688 C12.49452968 33.29252075 12.49452968 33.29252075 9.109375 38.0546875 C5.52471042 40.18610968 2.22314745 40.65461265 -1.890625 40.0546875 C-4.99227269 37.50444385 -6.61628916 35.87769503 -7.890625 32.0546875 C-8.20285105 27.76810053 -8.21453035 23.47628335 -8.265625 19.1796875 C-8.32169922 17.40271484 -8.32169922 17.40271484 -8.37890625 15.58984375 C-8.46562205 7.04351974 -8.46562205 7.04351974 -6.78613281 4.15527344 C-5.4296875 2.796875 -5.4296875 2.796875 -2.890625 1.0546875 C-1.890625 0.0546875 -1.890625 0.0546875 0 0 Z " fill="#030303" transform="translate(193.890625,120.9453125)"/>
<path d="M0 0 C4.15132171 0.31616026 6.66810634 0.77227556 10.234375 3.0546875 C12.5467856 6.75454446 12.51491886 8.75980585 11.73828125 12.96484375 C10.79141563 16.11126057 9.95175087 17.34926198 7.109375 19.0546875 C4.04031882 19.97827263 1.30593217 20.41365916 -1.890625 20.0546875 C-4.890625 17.6796875 -4.890625 17.6796875 -6.890625 15.0546875 C-7.220625 14.7246875 -7.550625 14.3946875 -7.890625 14.0546875 C-8.18385366 11.12240087 -8.39066747 8.90976867 -7.890625 6.0546875 C-5.453125 3.1171875 -5.453125 3.1171875 -2.890625 1.0546875 C-1.890625 0.0546875 -1.890625 0.0546875 0 0 Z " fill="#090604" transform="translate(253.890625,320.9453125)"/>
</svg>
