<?xml version="1.0" encoding="UTF-8"?>
<svg version="1.1" xmlns="http://www.w3.org/2000/svg" width="512" height="512">
<path d="M0 0 C2.96858157 2.20740681 3.82865791 3.48597373 5 7 C5.08878117 8.33888946 5.12376577 9.68177865 5.12304783 11.02360821 C5.12503888 11.84469592 5.12702993 12.66578363 5.12908131 13.51175278 C5.12616847 14.41349616 5.12325563 15.31523954 5.12025452 16.24430847 C5.12153615 17.68148026 5.12153615 17.68148026 5.12284368 19.14768583 C5.12449652 22.37215762 5.11898028 25.59657789 5.11352539 28.82104492 C5.11324345 31.12687682 5.11340139 33.43270881 5.1139679 35.73854065 C5.1142556 42.01089806 5.10836314 48.28323646 5.10139394 54.55558944 C5.095156 61.10593174 5.09455625 67.65627445 5.09336853 74.20661926 C5.09077701 85.20505097 5.08435799 96.203476 5.07543945 107.2019043 C5.06626232 118.5310055 5.05918296 129.86010481 5.05493164 141.18920898 C5.05453756 142.23646218 5.05453756 142.23646218 5.05413551 143.304872 C5.05283048 146.80733276 5.05156677 150.30979353 5.05032361 153.81225431 C5.03995463 182.87484076 5.02226521 211.93742028 5 241 C6.21259365 240.99631283 7.4251873 240.99262566 8.67452621 240.98882675 C37.44656968 240.90223148 66.21861088 240.83625606 94.99075447 240.79573868 C98.5306204 240.79073574 102.07048605 240.78555846 105.61035156 240.78027344 C106.31508741 240.7792242 107.01982325 240.77817495 107.74591473 240.77709392 C119.1631409 240.75967951 130.58028666 240.72813617 141.9974651 240.69138882 C153.70892792 240.65400812 165.42034857 240.63177024 177.1318686 240.62364602 C183.71160668 240.61842187 190.29116227 240.60610578 196.87084198 240.57707977 C203.0595724 240.54999874 209.24804457 240.54154027 215.43682861 240.54756927 C217.71209362 240.54646577 219.98736697 240.5384687 222.26258087 240.5231781 C225.3618777 240.50336503 228.46019113 240.50802945 231.55950928 240.51898193 C232.46612171 240.50733057 233.37273414 240.4956792 234.30681968 240.48367476 C240.38530435 240.54199714 240.38530435 240.54199714 243.55682755 242.90506363 C245.11653251 245.16916079 245.54253336 246.27786508 245.5 249 C245.51546875 249.99 245.51546875 249.99 245.53125 251 C244.71471701 254.07400655 243.56324791 255.09015263 241 257 C237.8577206 257.59882022 234.74979362 257.52201813 231.55950928 257.48101807 C230.59237322 257.48443577 229.62523716 257.48785347 228.62879395 257.49137473 C225.37950895 257.49797722 222.13104517 257.47593791 218.88183594 257.45410156 C216.55615254 257.4529736 214.23046772 257.45360594 211.90478516 257.45587158 C205.58278543 257.45702165 199.26108781 257.43346471 192.93915844 257.40557575 C187.00420666 257.38313913 181.06926679 257.37908533 175.13427833 257.37496826 C163.3788498 257.36621366 151.6235323 257.33959366 139.86816406 257.30175781 C128.44889888 257.26504196 117.02966385 257.23672814 105.61035156 257.21972656 C104.9064715 257.21867567 104.20259144 257.21762477 103.47738168 257.21654204 C99.94622359 257.21132189 96.41506529 257.20626705 92.88390684 257.20129442 C63.58919964 257.15982726 34.294601 257.08907702 5 257 C5.00276538 258.2004426 5.00553076 259.4008852 5.00837994 260.63770485 C5.0733522 289.13320422 5.12282091 317.62870257 5.15319599 346.12425927 C5.15694811 349.63150501 5.16083108 353.13875059 5.16479492 356.64599609 C5.16558185 357.34422609 5.16636878 358.04245608 5.16717956 358.76184456 C5.1802338 370.06777024 5.20388773 381.37365016 5.23145839 392.6795487 C5.25951211 404.28028309 5.27595163 415.8809908 5.28226548 427.48175752 C5.28618043 433.99780859 5.29539773 440.51375587 5.31719017 447.02977371 C5.33752994 453.16102658 5.34383882 459.29213274 5.33932304 465.42341614 C5.34014936 467.67525911 5.34612982 469.92710692 5.35761642 472.17892075 C5.37252099 475.25110409 5.36896076 478.32273204 5.36076355 481.39492798 C5.36950207 482.28793283 5.3782406 483.18093768 5.38724393 484.10100329 C5.35087893 489.13621764 4.83115122 492.64990952 2 497 C-1.19491759 498.59745879 -4.53209389 498.50816842 -8 498 C-10.96858157 495.79259319 -11.82865791 494.51402627 -13 491 C-13.08878117 489.66111054 -13.12376577 488.31822135 -13.12304783 486.97639179 C-13.12503888 486.15530408 -13.12702993 485.33421637 -13.12908131 484.48824722 C-13.12616847 483.58650384 -13.12325563 482.68476046 -13.12025452 481.75569153 C-13.12153615 480.31851974 -13.12153615 480.31851974 -13.12284368 478.85231417 C-13.12449652 475.62784238 -13.11898028 472.40342211 -13.11352539 469.17895508 C-13.11324345 466.87312318 -13.11340139 464.56729119 -13.1139679 462.26145935 C-13.1142556 455.98910194 -13.10836314 449.71676354 -13.10139394 443.44441056 C-13.095156 436.89406826 -13.09455625 430.34372555 -13.09336853 423.79338074 C-13.09077701 412.79494903 -13.08435799 401.796524 -13.07543945 390.7980957 C-13.06626232 379.4689945 -13.05918296 368.13989519 -13.05493164 356.81079102 C-13.05466892 356.11262222 -13.05440619 355.41445343 -13.05413551 354.695128 C-13.05283048 351.19266724 -13.05156677 347.69020647 -13.05032361 344.18774569 C-13.03995463 315.12515924 -13.02226521 286.06257972 -13 257 C-14.21259365 257.00368717 -15.4251873 257.00737434 -16.67452621 257.01117325 C-45.44656968 257.09776852 -74.21861088 257.16374394 -102.99075447 257.20426132 C-106.5306204 257.20926426 -110.07048605 257.21444154 -113.61035156 257.21972656 C-114.66745533 257.22130043 -114.66745533 257.22130043 -115.74591473 257.22290608 C-127.1631409 257.24032049 -138.58028666 257.27186383 -149.9974651 257.30861118 C-161.70892792 257.34599188 -173.42034857 257.36822976 -185.1318686 257.37635398 C-191.71160668 257.38157813 -198.29116227 257.39389422 -204.87084198 257.42292023 C-211.0595724 257.45000126 -217.24804457 257.45845973 -223.43682861 257.45243073 C-225.71209362 257.45353423 -227.98736697 257.4615313 -230.26258087 257.4768219 C-233.3618777 257.49663497 -236.46019113 257.49197055 -239.55950928 257.48101807 C-240.46612171 257.49266943 -241.37273414 257.5043208 -242.30681968 257.51632524 C-248.38530435 257.45800286 -248.38530435 257.45800286 -251.55682755 255.09493637 C-253.11653251 252.83083921 -253.54253336 251.72213492 -253.5 249 C-253.51546875 248.01 -253.51546875 248.01 -253.53125 247 C-252.71471701 243.92599345 -251.56324791 242.90984737 -249 241 C-245.8577206 240.40117978 -242.74979362 240.47798187 -239.55950928 240.51898193 C-238.59237322 240.51556423 -237.62523716 240.51214653 -236.62879395 240.50862527 C-233.37950895 240.50202278 -230.13104517 240.52406209 -226.88183594 240.54589844 C-224.55615254 240.5470264 -222.23046772 240.54639406 -219.90478516 240.54412842 C-213.58278543 240.54297835 -207.26108781 240.56653529 -200.93915844 240.59442425 C-195.00420666 240.61686087 -189.06926679 240.62091467 -183.13427833 240.62503174 C-171.3788498 240.63378634 -159.6235323 240.66040634 -147.86816406 240.69824219 C-136.44889888 240.73495804 -125.02966385 240.76327186 -113.61035156 240.78027344 C-112.9064715 240.78132433 -112.20259144 240.78237523 -111.47738168 240.78345796 C-107.94622359 240.78867811 -104.41506529 240.79373295 -100.88390684 240.79870558 C-71.58919964 240.84017274 -42.294601 240.91092298 -13 241 C-13.00276538 239.7995574 -13.00553076 238.5991148 -13.00837994 237.36229515 C-13.0733522 208.86679578 -13.12282091 180.37129743 -13.15319599 151.87574073 C-13.15694811 148.36849499 -13.16083108 144.86124941 -13.16479492 141.35400391 C-13.16558185 140.65577391 -13.16636878 139.95754392 -13.16717956 139.23815544 C-13.1802338 127.93222976 -13.20388773 116.62634984 -13.23145839 105.3204513 C-13.25951211 93.71971691 -13.27595163 82.1190092 -13.28226548 70.51824248 C-13.28618043 64.00219141 -13.29539773 57.48624413 -13.31719017 50.97022629 C-13.33752994 44.83897342 -13.34383882 38.70786726 -13.33932304 32.57658386 C-13.34014936 30.32474089 -13.34612982 28.07289308 -13.35761642 25.82107925 C-13.37252099 22.74889591 -13.36896076 19.67726796 -13.36076355 16.60507202 C-13.36950207 15.71206717 -13.3782406 14.81906232 -13.38724393 13.89899671 C-13.35087893 8.86378236 -12.83115122 5.35009048 -10 1 C-6.80508241 -0.59745879 -3.46790611 -0.50816842 0 0 Z " fill="#F37A1B" transform="translate(260,7)"/>
<path d="M0 0 C4.32129372 1.16493893 7.10527273 4.44823253 10.14453125 7.578125 C11.16353516 8.57972656 11.16353516 8.57972656 12.203125 9.6015625 C13.86862643 11.24360616 15.51386775 12.90159909 17.14453125 14.578125 C21.61062497 11.44235707 25.45884775 8.3001655 29.08203125 4.203125 C31.94306054 1.26309293 33.75377202 -0.01073334 37.89453125 -0.234375 C41.19379261 0.09042275 42.05789396 0.50627944 44.70703125 2.703125 C46.47486196 6.23878641 46.98487142 7.68200237 46.14453125 11.578125 C43.45698815 15.63221544 40.09087118 18.89998669 36.1484375 21.72509766 C31.60449253 25.1492228 27.89665964 28.59180472 26.46813965 34.26373291 C25.46117248 41.92570621 25.71189762 49.62076985 25.89453125 57.328125 C25.90652235 59.68227013 25.91308159 62.03644954 25.9140625 64.390625 C25.92817766 70.12168818 26.00965103 75.84869819 26.14453125 81.578125 C27.74494791 80.68647829 29.34516303 79.79446987 30.9453125 78.90234375 C31.9768042 78.32822754 33.0082959 77.75411133 34.07104492 77.16259766 C36.34669196 75.887684 38.61633866 74.60200605 40.88012695 73.30615234 C46.11592186 70.31859765 51.2877518 67.43655408 56.82421875 65.04296875 C65.65320743 61.18796418 65.65320743 61.18796418 71.44287109 53.84375 C73.17213246 48.60246661 74.17617259 43.37527823 75.01171875 37.9296875 C75.66256805 34.01993329 76.08532826 32.65629594 78.55859375 29.390625 C81.14453125 27.578125 81.14453125 27.578125 84.64453125 26.953125 C88.14453125 27.578125 88.14453125 27.578125 91.14453125 29.453125 C94.65487181 34.93803212 92.68760399 40.02877836 91.390625 46.1171875 C90.6772764 49.28073348 89.92872335 52.43149256 89.14453125 55.578125 C89.97645996 55.81934082 89.97645996 55.81934082 90.82519531 56.06542969 C93.35242458 56.80636976 95.87331064 57.5670018 98.39453125 58.328125 C99.26722656 58.58078125 100.13992187 58.8334375 101.0390625 59.09375 C109.22962823 61.5946861 109.22962823 61.5946861 112.14453125 65.578125 C113.30164933 69.20376166 113.47970215 70.84074902 111.89453125 74.328125 C110.14453125 76.578125 110.14453125 76.578125 107.14453125 78.578125 C100.10619721 78.45677441 93.72536917 76.38972072 87.08544922 74.21850586 C81.20067363 72.35702252 78.99226011 72.62786444 73.58984375 75.40625 C72.1465942 76.20790491 70.70670096 77.01562081 69.26953125 77.828125 C68.49883301 78.2597998 67.72813477 78.69147461 66.93408203 79.13623047 C56.90920076 84.78603957 47.02567128 90.68171956 37.14453125 96.578125 C40.73498864 99.59454244 44.3935781 101.99229423 48.4765625 104.29296875 C49.07200363 104.63058731 49.66744476 104.96820587 50.28092957 105.3160553 C52.17064795 106.38673754 54.06360122 107.45152264 55.95703125 108.515625 C57.83458577 109.57445452 59.71138781 110.63456814 61.58686829 111.69706726 C62.7975878 112.38181076 64.01012906 113.06334387 65.22453308 113.74153137 C68.4643445 115.56339292 71.50718988 117.51842566 74.52734375 119.6796875 C77.31328084 121.44965127 78.91727461 121.82812883 82.1796875 121.26171875 C83.53208814 120.88000334 84.87520274 120.46387378 86.20703125 120.015625 C86.87541016 119.81904297 87.54378906 119.62246094 88.23242188 119.41992188 C90.21258335 118.83299355 92.17737713 118.20705879 94.14453125 117.578125 C102.79025569 115.01017601 102.79025569 115.01017601 107.14453125 115.578125 C110.5609297 117.5520441 111.86721537 118.76350959 113.14453125 122.515625 C113.14453125 126.38451728 112.73586953 127.6819234 110.14453125 130.578125 C104.65636088 133.8757381 98.49683642 135.43220469 92.33203125 136.96484375 C90.18531876 137.37401329 90.18531876 137.37401329 89.14453125 138.578125 C89.90336545 142.09774292 90.77354759 145.57139618 91.67382812 149.05664062 C92.7307352 153.30268195 93.57712048 157.16702578 93.14453125 161.578125 C90.53663297 165.21337715 89.07429545 166.41209568 84.64453125 167.203125 C80.05245344 166.38311111 78.95590499 165.30525565 76.14453125 161.578125 C75.47924838 158.81857564 75.12277424 156.07735715 74.74389648 153.26464844 C73.77312443 146.74353834 72.7536017 140.20646998 67.96337891 135.38085938 C62.67392145 131.58966452 56.87475748 129.00339289 50.93701172 126.40039062 C42.36588907 122.4449024 34.28893514 117.33343819 26.14453125 112.578125 C23.0673454 142.41787531 23.0673454 142.41787531 31.18359375 169.8359375 C34.79737746 173.71508681 38.79418671 176.85657344 43.39453125 179.4921875 C45.14453125 180.578125 45.14453125 180.578125 46.14453125 182.578125 C46.67960224 186.5911574 46.47504753 188.11740533 44.08203125 191.453125 C41.14453125 193.578125 41.14453125 193.578125 37.83203125 194.328125 C32.52155835 193.24802882 29.93286483 190.28768416 26.14453125 186.578125 C24.65230011 185.25679897 23.1525761 183.94387363 21.64453125 182.640625 C20.47786458 181.61979167 19.31119792 180.59895833 18.14453125 179.578125 C13.74621594 183.25834801 9.60694713 187.032417 5.625 191.16015625 C2.7496772 193.91409339 0.02812295 193.92579683 -3.87890625 193.84765625 C-5.85546875 193.578125 -5.85546875 193.578125 -8.35546875 192.078125 C-10.04687462 189.25911522 -10.6127314 187.00972985 -10.41796875 183.7109375 C-9.03981419 178.48543479 -4.56858543 174.61082069 -0.08203125 171.90625 C4.4117434 168.8943367 7.50270228 166.2796183 8.76669312 160.95941162 C9.72041672 153.15079458 9.48454277 145.30238439 9.33203125 137.453125 C9.32506643 135.04167593 9.32306433 132.63020712 9.32617188 130.21875 C9.32299751 124.33709496 9.25798541 118.45863208 9.14453125 112.578125 C7.44783357 113.55454311 5.75124291 114.5311472 4.0546875 115.5078125 C2.96752441 116.13308838 1.88036133 116.75836426 0.76025391 117.40258789 C-1.62096272 118.77423113 -3.99703463 120.15427078 -6.36962891 121.54077148 C-11.59552662 124.58863353 -16.80916302 127.6077181 -22.2265625 130.30859375 C-30.20227371 134.21136653 -30.20227371 134.21136653 -35.66796875 140.9140625 C-36.72033383 144.48127062 -37.35138597 147.896668 -37.85546875 151.578125 C-38.32099171 153.62792771 -38.81825387 155.67093334 -39.35546875 157.703125 C-39.55140625 158.55132812 -39.74734375 159.39953125 -39.94921875 160.2734375 C-41.08692781 163.16674935 -42.43632086 164.64105368 -44.85546875 166.578125 C-48.69982847 167.59928305 -51.93820337 167.10555259 -55.35546875 165.140625 C-59.3607865 158.29820719 -56.14883587 149.96330228 -54.27929688 142.81152344 C-53.81171429 141.06516073 -53.33459026 139.32135728 -52.85546875 137.578125 C-53.94085938 137.32417969 -55.02625 137.07023438 -56.14453125 136.80859375 C-57.58993599 136.46132118 -59.0352434 136.11364336 -60.48046875 135.765625 C-61.54974609 135.5171582 -61.54974609 135.5171582 -62.640625 135.26367188 C-73.49027714 132.62591241 -73.49027714 132.62591241 -76.85546875 127.578125 C-77.4209825 123.21559037 -77.34869526 121.28059912 -74.79296875 117.640625 C-71.0216819 114.99270019 -69.43064272 115.20214536 -64.85546875 115.578125 C-60.5445476 116.68649367 -56.35287939 118.16124917 -52.15039062 119.62109375 C-47.02099263 121.29442669 -47.02099263 121.29442669 -41.70703125 121.03125 C-38.14570066 119.21643496 -34.70614731 117.28226384 -31.29296875 115.203125 C-29.80418719 114.3111604 -28.31456106 113.42060436 -26.82421875 112.53125 C-26.03144531 112.05751953 -25.23867187 111.58378906 -24.421875 111.09570312 C-19.74259798 108.32873338 -15.01657236 105.64348513 -10.29296875 102.953125 C-9.35831787 102.42025879 -8.42366699 101.88739258 -7.46069336 101.33837891 C-5.25948624 100.08401834 -3.05777132 98.83056095 -0.85546875 97.578125 C-4.21259388 94.77348153 -7.56218343 92.48233547 -11.390625 90.37109375 C-12.44830078 89.78392578 -13.50597656 89.19675781 -14.59570312 88.59179688 C-15.69205078 87.98916016 -16.78839844 87.38652344 -17.91796875 86.765625 C-20.07613055 85.572717 -22.23368433 84.37870831 -24.390625 83.18359375 C-25.99635376 82.30537964 -25.99635376 82.30537964 -27.63452148 81.40942383 C-29.80804574 80.17364687 -31.94635572 78.87409277 -34.04711914 77.51831055 C-40.17451783 73.31341673 -40.17451783 73.31341673 -47.28125 72.69921875 C-49.26183547 73.26216725 -49.26183547 73.26216725 -51.16796875 74.015625 C-51.81830078 74.22123047 -52.46863281 74.42683594 -53.13867188 74.63867188 C-55.05594341 75.24967049 -56.95613572 75.91345705 -58.85546875 76.578125 C-64.61547595 78.38910518 -68.02033293 78.93965669 -73.85546875 77.578125 C-76.70157012 75.26566764 -76.82609345 73.7800802 -77.35546875 70.140625 C-76.70800267 65.52742919 -75.44127356 64.49885836 -71.85546875 61.578125 C-69.03101178 60.33582547 -66.15099389 59.53731513 -63.16796875 58.765625 C-62.01071289 58.44174805 -62.01071289 58.44174805 -60.83007812 58.11132812 C-55.25700645 56.578125 -55.25700645 56.578125 -52.85546875 56.578125 C-53.14421875 55.52753906 -53.43296875 54.47695313 -53.73046875 53.39453125 C-57.75845344 38.35051015 -57.75845344 38.35051015 -56.85546875 31.578125 C-55.35546875 29.015625 -55.35546875 29.015625 -52.85546875 27.578125 C-50.07370267 27.03659267 -47.6047121 26.84785724 -44.85546875 27.578125 C-40.77006236 30.63277508 -39.94443915 33.84800738 -38.79296875 38.703125 C-38.32907481 40.61842958 -37.8638458 42.53361329 -37.36621094 44.44042969 C-36.85546875 46.578125 -36.85546875 46.578125 -36.49316406 49.03613281 C-35.66865565 53.25832306 -34.79019093 55.7849641 -31.4519043 58.61767578 C-28.28013281 60.60500388 -25.05752442 62.36373052 -21.73046875 64.078125 C-19.51879862 65.2746885 -17.30787447 66.47263174 -15.09765625 67.671875 C-13.9590918 68.27773438 -12.82052734 68.88359375 -11.64746094 69.5078125 C-4.59367397 73.31069906 2.26038979 77.47905936 9.14453125 81.578125 C9.43589307 74.60777767 9.5885034 67.64359624 9.65112305 60.66748047 C9.68795962 58.3025402 9.75494669 55.93784872 9.85424805 53.57470703 C10.73383577 38.48519027 10.73383577 38.48519027 4.28857422 25.421875 C0.72446945 21.87092244 -3.09534361 18.75018674 -7.20619202 15.85339355 C-8.85546875 14.578125 -8.85546875 14.578125 -9.85546875 12.578125 C-10.42418913 5.5259923 -10.42418913 5.5259923 -8.35546875 2.078125 C-5.54298177 0.39063281 -3.29122435 -0.17097269 0 0 Z " fill="#F79F14" transform="translate(115.85546875,277.421875)"/>
<path d="M0 0 C3.23635421 2.71154001 4.81306509 4.59798816 5.375 8.8125 C4.64918901 38.38929777 -29.35395081 82.04186331 -50.01171875 101.9375 C-51.28871211 103.0564881 -52.58311972 104.15592879 -53.89453125 105.234375 C-56.41021915 107.34400567 -58.74696701 109.61152918 -61.125 111.875 C-86.40611354 134.79144267 -118.82523854 140.42254329 -151.875 140.125 C-153.83463081 140.11494396 -155.79426665 140.10582278 -157.75390625 140.09765625 C-162.50273087 140.07586489 -167.25130823 140.04148165 -172 140 C-174.13481191 149.8774761 -175.37913711 159.03294433 -175 169.1875 C-174.92329251 171.32636062 -174.8602553 173.46576591 -174.8125 175.60546875 C-174.76029297 176.98448364 -174.76029297 176.98448364 -174.70703125 178.39135742 C-175.06587227 181.58653769 -176.12518653 183.41390364 -178 186 C-181.20270544 187.60135272 -184.52463384 187.48861584 -188 187 C-190.83629552 185.10913632 -191.78085134 183.90453978 -192.58203125 180.59765625 C-194.2984573 165.8235591 -195.39001056 146.57583375 -187.92578125 133.22265625 C-185.48565103 128.51588874 -185.45533625 124.21927345 -185.4375 119 C-184.68533376 91.88642379 -175.7176855 67.66078154 -155.84765625 48.60546875 C-134.53735304 30.08848224 -108.16902598 25.50448305 -81.29556274 20.58882141 C-78.48746618 20.07473069 -75.67975435 19.55857486 -72.87207031 19.04223633 C-69.17633702 18.3626751 -65.47900925 17.69303329 -61.78027344 17.0300293 C-52.79805573 15.4015852 -43.89126604 13.59544446 -35.02734375 11.40625 C-34.20235886 11.20427002 -33.37737396 11.00229004 -32.52738953 10.79418945 C-26.55246761 9.27517112 -21.32227342 7.13187931 -16 4 C-5.15871254 -2.08805031 -5.15871254 -2.08805031 0 0 Z M-26.89624023 27.13452148 C-44.38077568 31.32133574 -61.93366558 34.62894948 -79.6472168 37.67993164 C-113.77087395 43.37114885 -113.77087395 43.37114885 -143 61 C-143.82113281 61.72832031 -144.64226562 62.45664063 -145.48828125 63.20703125 C-159.40048777 76.27479428 -165.67161036 92.33813082 -168 111 C-167.071875 110.195625 -166.14375 109.39125 -165.1875 108.5625 C-126.97502668 75.90682061 -126.97502668 75.90682061 -113.5625 74.6875 C-110 75 -110 75 -107.5625 76.625 C-105.5620121 79.66574161 -105.6267591 81.41688738 -106 85 C-106.04125 85.7425 -106.0825 86.485 -106.125 87.25 C-107 89 -107 89 -109.375 89.875 C-110.57125 90.24625 -111.7675 90.6175 -113 91 C-128.44444947 98.24892709 -142.74677399 110.20319789 -155 122 C-155 122.33 -155 122.66 -155 123 C-124.80687104 123.81115869 -95.23290051 118.80353978 -72 98 C-71.43812988 97.50757813 -70.87625977 97.01515625 -70.29736328 96.5078125 C-49.99166658 78.64350053 -28.62253529 51.86760586 -20 26 C-22.44924191 26 -24.5124084 26.5541818 -26.89624023 27.13452148 Z " fill="#F27A1B" transform="translate(234,42)"/>
<path d="M0 0 C5.80036764 4.04980624 10.86718742 3.22041512 17.5078125 2.48046875 C31.33865944 1.00451506 44.30203778 6.74289579 55.03515625 15.04296875 C64.37232732 22.92999281 71.27438798 33.79031497 72.5 46.125 C73.386875 46.37121094 74.27375 46.61742187 75.1875 46.87109375 C83.67171476 50.0826892 90.41247531 58.19277388 94.5 66.125 C99.26145121 76.77037381 98.84344821 88.65704737 94.76171875 99.44140625 C92.84720903 103.51344395 90.49328637 106.78466594 87.5 110.125 C86.98695313 110.74117188 86.47390625 111.35734375 85.9453125 111.9921875 C78.07513037 120.76612261 66.8839079 123.61248938 55.45536995 124.31111908 C52.13809173 124.38296437 48.82609347 124.39539725 45.50805664 124.38378906 C43.63261421 124.38904602 43.63261421 124.38904602 41.71928406 124.39440918 C38.32245679 124.40165305 34.92587638 124.40002585 31.52906346 124.39365101 C27.95259503 124.38854346 24.37613626 124.39329565 20.79966736 124.39642334 C14.79554377 124.40004972 8.79146958 124.39529941 2.78735352 124.38574219 C-4.12512263 124.37486516 -11.03748069 124.3783831 -17.94995397 124.389395 C-23.91465535 124.39851185 -29.87932147 124.39973163 -35.84402758 124.39451766 C-39.3933671 124.39142137 -42.94265139 124.3909233 -46.49198723 124.39759064 C-50.45425777 124.40451529 -54.41639928 124.39487994 -58.37866211 124.38378906 C-59.53383331 124.38783752 -60.68900452 124.39188599 -61.87918091 124.39605713 C-76.06593916 124.32295272 -89.22123324 122.38538864 -99.9375 112.3125 C-108.12441628 103.36124506 -112.20622389 92.390694 -111.84765625 80.27734375 C-110.84445352 71.18088754 -108.03840473 62.69214497 -101.5 56.125 C-100.75878906 55.58746094 -100.01757812 55.04992187 -99.25390625 54.49609375 C-92.46364276 49.51210725 -91.38181569 45.02983743 -89.94116211 37.1171875 C-87.22627131 22.58217146 -79.32881958 11.08569254 -67.8046875 2 C-48.21829301 -11.24794029 -19.79866864 -14.67984495 0 0 Z M-59.5 18.125 C-60.40685547 18.87716797 -60.40685547 18.87716797 -61.33203125 19.64453125 C-70.51985999 27.8715413 -74.19755342 39.44040923 -74.875 51.375 C-74.91753906 52.86773437 -74.91753906 52.86773437 -74.9609375 54.390625 C-75.79961765 58.64479965 -78.23731452 60.27579956 -81.71875 62.6171875 C-82.84796875 63.30167969 -82.84796875 63.30167969 -84 64 C-89.10264172 67.34311009 -91.5238888 70.70796274 -93.8125 76.375 C-95.09665496 83.37948157 -94.34263837 90.02284486 -90.87109375 96.3046875 C-87.05576742 101.37004952 -80.93815465 105.44883412 -74.71458149 106.6727953 C-71.73753298 107.09158553 -68.94432258 107.25332566 -65.94169617 107.25871277 C-64.32069504 107.26511024 -64.32069504 107.26511024 -62.66694641 107.27163696 C-61.4964122 107.27118378 -60.32587799 107.27073059 -59.11987305 107.27026367 C-57.87524292 107.27362228 -56.63061279 107.2769809 -55.3482666 107.28044128 C-51.94521485 107.28829844 -48.54222414 107.29161799 -45.13916755 107.29225707 C-43.00934385 107.29296954 -40.87952648 107.29510761 -38.74970436 107.29775429 C-31.30879945 107.30699689 -23.86791241 107.31109058 -16.42700195 107.31030273 C-9.50832974 107.30970239 -2.58973561 107.3202485 4.32891685 107.3360464 C10.28327305 107.34915437 16.23760383 107.35448526 22.19197434 107.35384732 C25.74185986 107.35359327 29.29167596 107.35639285 32.84154701 107.36702538 C36.80495839 107.37857318 40.76826403 107.37393963 44.73168945 107.36791992 C45.89615097 107.37353943 47.06061249 107.37915894 48.26036072 107.38494873 C58.40303715 107.34588685 67.02019926 106.55591315 74.5 99.125 C79.36808165 92.84360432 81.2885909 87.14234077 80.5 79.125 C79.13907371 73.07003132 76.15774676 68.21880433 71.5 64.125 C69.55228247 62.93345516 67.62097127 61.95454174 65.52734375 61.046875 C58.84516531 58.0083507 58.84516531 58.0083507 57.3125 54.0859375 C57.044375 52.90257812 56.77625 51.71921875 56.5 50.5 C53.62874169 39.42514653 48.87726854 31.1021298 39.21875 24.5859375 C30.07984852 19.51206687 20.26258534 18.10856037 10.1328125 20.6171875 C5.11042553 21.58589715 1.75911227 21.8399959 -2.78125 19.26171875 C-3.86640288 18.4616484 -4.93934092 17.64476898 -6 16.8125 C-22.08925098 4.54004213 -44.13510177 4.35991764 -59.5 18.125 Z " fill="#F2781B" transform="translate(384.5,292.875)"/>
<path d="M0 0 C13.97635433 10.85132586 23.67025949 26.20320122 26.03515625 43.8984375 C27.37213467 63.73983941 24.16614227 81.74858702 10.66015625 97.2109375 C9.13774172 98.79220167 7.59652489 100.35562502 6.03515625 101.8984375 C5.34808594 102.60742188 4.66101563 103.31640625 3.953125 104.046875 C-8.72687626 116.32695044 -25.68253687 120.88080249 -42.96484375 120.8984375 C-62.01920288 119.75434388 -78.20355619 112.05556436 -91.1640625 98.20703125 C-104.13638539 83.48276248 -107.83907785 65.46375971 -107.14404297 46.43847656 C-105.98702646 30.03847687 -97.6727381 15.1269535 -85.96484375 3.8984375 C-61.05326869 -17.45543177 -26.53711584 -18.81023494 0 0 Z M-78.96484375 21.8984375 C-88.05491805 33.76175481 -91.0699358 46.08713439 -89.96484375 60.8984375 C-87.00861566 75.2457836 -79.96711968 87.43094123 -67.71484375 95.7109375 C-54.70163628 103.46846505 -41.62653216 105.36865961 -26.96484375 101.8984375 C-12.49712906 97.44130304 -2.2110268 88.15398765 4.84765625 74.8984375 C10.5814517 62.58209398 10.83482306 48.78507055 6.36328125 35.96875 C0.58941063 22.62091969 -8.48439544 13.31570028 -21.875 7.671875 C-43.04692358 -0.24978685 -63.604147 5.22933387 -78.96484375 21.8984375 Z " fill="#EE5521" transform="translate(422.96484375,78.1015625)"/>
<path d="M0 0 C0.7528125 0.01289063 1.505625 0.02578125 2.28125 0.0390625 C3.0340625 0.02617187 3.786875 0.01328125 4.5625 0 C7.87803211 0.99232475 8.89366382 2.81701206 10.78125 5.6640625 C11.58981377 10.30007484 11.38425843 14.96508458 11.34375 19.6640625 C11.36759766 20.93507813 11.39144531 22.20609375 11.41601562 23.515625 C11.39965739 33.87584355 11.39965739 33.87584355 8.46484375 37 C4.88577029 39.21933813 2.91980216 39.40308967 -1.21875 38.6640625 C-3.87970766 37.01403635 -4.8071845 36.35935613 -6.21875 33.6640625 C-6.95190631 28.98932191 -6.8698446 24.38591512 -6.78125 19.6640625 C-6.79220703 18.39304687 -6.80316406 17.12203125 -6.81445312 15.8125 C-6.70546168 2.00691635 -6.70546168 2.00691635 0 0 Z " fill="#F38419" transform="translate(375.21875,423.3359375)"/>
<path d="M0 0 C2.65709331 1.65003171 3.58497296 2.30957796 5 5 C5.75853209 9.67400984 5.6968848 14.27477255 5.625 19 C5.65400391 20.90652344 5.65400391 20.90652344 5.68359375 22.8515625 C5.62915466 33.19499013 5.62915466 33.19499013 2.6796875 36.3359375 C-0.89689926 38.5569666 -2.862877 38.73877196 -7 38 C-9.65709331 36.34996829 -10.58497296 35.69042204 -12 33 C-12.75853209 28.32599016 -12.6968848 23.72522745 -12.625 19 C-12.64433594 17.72898437 -12.66367187 16.45796875 -12.68359375 15.1484375 C-12.62915466 4.80500987 -12.62915466 4.80500987 -9.6796875 1.6640625 C-6.10310074 -0.5569666 -4.137123 -0.73877196 0 0 Z " fill="#EC4824" transform="translate(386,22)"/>
<path d="M0 0 C2.6495391 0.45700469 4.08458331 1.36494373 5.90234375 3.328125 C7.61043996 8.45241362 7.1291469 13.83885427 7.15234375 19.203125 C7.17296875 20.38777344 7.19359375 21.57242187 7.21484375 22.79296875 C7.22 23.93636719 7.22515625 25.07976562 7.23046875 26.2578125 C7.2444873 27.82378174 7.2444873 27.82378174 7.25878906 29.42138672 C6.84906565 32.76259693 5.88433642 34.63138451 3.90234375 37.328125 C0.76363187 38.89748094 -1.63621447 38.68013603 -5.09765625 38.328125 C-8.36187398 35.7746142 -9.9092876 34.27317452 -10.72875977 30.16186523 C-10.72803467 28.99856689 -10.72730957 27.83526855 -10.7265625 26.63671875 C-10.72849609 25.36248047 -10.73042969 24.08824219 -10.73242188 22.77539062 C-10.71993408 22.11708252 -10.70744629 21.45877441 -10.69458008 20.78051758 C-10.66017932 18.76697507 -10.67395232 16.75780643 -10.69335938 14.74414062 C-10.61918274 4.97755045 -10.61918274 4.97755045 -8.18725586 1.94921875 C-5.29575694 -0.29398172 -3.53144588 -0.18413498 0 0 Z " fill="#F37D1A" transform="translate(425.09765625,423.671875)"/>
<path d="M0 0 C3.68027525 1.6187013 6.99600514 3.70668758 10.375 5.875 C11.27605469 6.43058594 12.17710937 6.98617187 13.10546875 7.55859375 C19.5984623 11.5984623 19.5984623 11.5984623 22 14 C22.69878984 18.20898999 22.67076045 21.85411756 20.5 25.5625 C16.97492917 27.58941572 13.91930804 27.68320089 10 27 C6.33986343 25.42461892 3.04697028 23.38220992 -0.3125 21.25 C-1.20517578 20.71117188 -2.09785156 20.17234375 -3.01757812 19.6171875 C-10.40559392 15.05874284 -10.40559392 15.05874284 -13 11 C-13.39605565 7.24827287 -12.76300493 3.97664631 -10.4375 1 C-6.88203027 -0.45865425 -3.74163799 -0.63988899 0 0 Z " fill="#EE5A20" transform="translate(299,73)"/>
<path d="M0 0 C2.94498493 2.25140097 3.90571214 3.4441979 4.53344727 7.14453125 C4.54432373 8.35496094 4.5552002 9.56539063 4.56640625 10.8125 C4.57570412 11.78860229 4.57570412 11.78860229 4.58518982 12.78442383 C4.592273 14.15607207 4.58913995 15.52780655 4.57641602 16.89941406 C4.56253676 18.99445088 4.59664064 21.08502711 4.63476562 23.1796875 C4.63571683 24.51562609 4.63385789 25.85157025 4.62890625 27.1875 C4.62963135 28.39792969 4.63035645 29.60835938 4.63110352 30.85546875 C4 34 4 34 1.68334961 36.39453125 C-1.83652617 38.50050006 -3.96354688 38.58712045 -8 38 C-10.36497439 36.13291495 -11.66030715 34.67938569 -13 32 C-13.27118225 27.73463193 -13.23165107 23.46050806 -13.25 19.1875 C-13.270625 17.99833984 -13.29125 16.80917969 -13.3125 15.58398438 C-13.32023437 13.86211914 -13.32023437 13.86211914 -13.328125 12.10546875 C-13.3374707 11.05512451 -13.34681641 10.00478027 -13.35644531 8.92260742 C-12.94776859 5.57173822 -11.98880451 3.70328525 -10 1 C-6.87057535 -0.56471233 -3.38917777 -0.69701958 0 0 Z " fill="#F48B18" transform="translate(336,424)"/>
<path d="M0 0 C3.27941937 1.26781677 6.23084077 2.95863219 9.25 4.75 C10.03890625 5.1934375 10.8278125 5.636875 11.640625 6.09375 C15.53876817 8.33254844 19.15937465 10.43817961 22 14 C22.86646135 17.46584539 23.36181739 19.88439639 22.25 23.3125 C20.19650115 26.08472345 18.34540722 26.94400013 14.98828125 27.48828125 C9.41139898 27.31964032 4.84076319 23.97175065 0.1875 21.1875 C-1.24239258 20.36668945 -1.24239258 20.36668945 -2.70117188 19.52929688 C-9.7140498 15.4289253 -9.7140498 15.4289253 -12 12 C-12.65753425 5.09589041 -12.65753425 5.09589041 -10.5 1.5 C-7.01396731 -0.59161961 -3.92094507 -0.59959469 0 0 Z " fill="#ED5022" transform="translate(456,164)"/>
<path d="M0 0 C2.00569622 2.56729117 2.37732195 4.69448991 2.875 7.8671875 C2.3813942 11.23604708 0.95933888 12.5777401 -1.4375 15 C-4.40955041 17.14046192 -7.51696155 18.98296741 -10.6875 20.8125 C-11.91919922 21.56563477 -11.91919922 21.56563477 -13.17578125 22.33398438 C-18.56465945 25.47251487 -22.1970914 26.73537855 -28.4375 26 C-30.9375 24.5 -30.9375 24.5 -32.4375 22 C-33.21153846 16.58173077 -33.21153846 16.58173077 -32.4375 14 C-28.68531191 9.49155695 -24.10724439 6.6452968 -19.125 3.6875 C-18.0431543 3.0059082 -18.0431543 3.0059082 -16.93945312 2.31054688 C-11.32738513 -1.03656094 -6.37606429 -2.61582125 0 0 Z " fill="#EB4325" transform="translate(476.4375,74)"/>
<path d="M0 0 C2.5 1.5 2.5 1.5 4 4 C4.77403846 9.41826923 4.77403846 9.41826923 4 12 C0.14342501 16.72544761 -4.67873159 19.41481128 -9.9375 22.3125 C-11.11602539 22.9940918 -11.11602539 22.9940918 -12.31835938 23.68945312 C-16.69001072 26.12221308 -19.85744072 27.67891147 -25 27 C-27.55376992 26.14874336 -28.66416489 25.431788 -30.3125 23.3125 C-31.35748184 19.79756109 -30.98843204 17.52128915 -30 14 C-25.7776182 10.02146396 -21.1456403 7.06121888 -16.125 4.1875 C-15.45597656 3.78080078 -14.78695313 3.37410156 -14.09765625 2.95507812 C-9.14890578 0.11836663 -5.69858348 -0.55521531 0 0 Z " fill="#F0671E" transform="translate(317,164)"/>
<path d="M0 0 C2.67208195 2.59661273 3.87340043 4.2743217 4.51757812 7.96679688 C4.52208984 9.03994141 4.52660156 10.11308594 4.53125 11.21875 C4.53640625 12.39824219 4.5415625 13.57773438 4.546875 14.79296875 C4.53140625 16.01628906 4.5159375 17.23960937 4.5 18.5 C4.51546875 19.72332031 4.5309375 20.94664062 4.546875 22.20703125 C4.54171875 23.38652344 4.5365625 24.56601563 4.53125 25.78125 C4.52673828 26.85439453 4.52222656 27.92753906 4.51757812 29.03320312 C3.87552431 32.71350404 2.62490367 34.37979624 0 37 C-3.4375 38.0625 -3.4375 38.0625 -7 38 C-9.80189446 36.23358828 -11.51524911 34.96950178 -13 32 C-13.32542291 27.56889335 -13.32455369 23.12906855 -13.375 18.6875 C-13.41238281 17.45064453 -13.44976562 16.21378906 -13.48828125 14.93945312 C-13.58732237 4.75472509 -13.58732237 4.75472509 -10.73046875 1.68359375 C-6.54823982 -0.89514827 -4.85191834 -0.77014577 0 0 Z " fill="#EF621F" transform="translate(387,204)"/>
</svg>
