<?xml version="1.0" encoding="UTF-8"?>
<svg version="1.1" xmlns="http://www.w3.org/2000/svg" width="512" height="512">
<path d="M0 0 C8.27659267 5.68336382 13.94143444 13.77035248 15.83203125 23.6796875 C16.28094484 30.69026623 16.01098605 37.65571162 15.83203125 44.6796875 C23.42203125 44.6796875 31.01203125 44.6796875 38.83203125 44.6796875 C38.79078125 42.2459375 38.74953125 39.8121875 38.70703125 37.3046875 C38.66026359 24.78612315 40.70389413 13.8595806 49.51953125 4.3671875 C58.53758162 -4.10223623 68.39108288 -5.80360819 80.3046875 -5.5859375 C90.92299345 -5.14141987 97.73434906 0.0399088 104.83203125 7.6796875 C111.35949644 15.96513512 112.12910286 23.86522175 111.95703125 34.1171875 C111.91578125 37.6028125 111.87453125 41.0884375 111.83203125 44.6796875 C119.75203125 44.6796875 127.67203125 44.6796875 135.83203125 44.6796875 C135.71430112 37.84446954 135.71430112 37.84446954 135.56176758 31.01000977 C135.46343922 19.58171763 138.85407126 11.97904319 146.6484375 3.765625 C154.88841028 -4.05818754 163.13119526 -5.9431604 174.21826172 -5.78662109 C185.78940705 -5.31428001 192.98111174 -0.78480298 200.83203125 7.6796875 C207.69870594 16.54043165 209.02367859 26.1716649 208.89453125 37.1171875 C208.87390625 39.6128125 208.85328125 42.1084375 208.83203125 44.6796875 C216.42203125 44.6796875 224.01203125 44.6796875 231.83203125 44.6796875 C231.74953125 41.4415625 231.66703125 38.2034375 231.58203125 34.8671875 C231.48180397 22.98569933 233.42113596 13.53838509 241.83203125 4.6796875 C250.22482579 -3.1162057 259.15235512 -5.9624053 270.42895508 -5.86328125 C279.39191489 -5.48132846 287.74733426 -2.36266987 294.30859375 3.89453125 C304.94211461 16.35483646 305.26389809 29.10049126 304.83203125 44.6796875 C305.83621094 44.83824219 306.84039062 44.99679688 307.875 45.16015625 C330.6698932 48.96304168 349.43109527 59.2955139 363.83203125 77.6796875 C374.21169875 92.7822601 379.14736976 108.84027062 379.10668945 127.05834961 C379.11435585 128.85284546 379.11435585 128.85284546 379.12217712 130.68359375 C379.13361743 133.93314776 379.13616031 137.1825419 379.13361382 140.43211055 C379.13253776 143.15128804 379.13744264 145.87044243 379.14221925 148.58961493 C379.15326873 154.99994675 379.15377501 161.41021993 379.14770508 167.82055664 C379.1416428 174.43046942 379.15404346 181.04017055 379.17527515 187.65004724 C379.19287167 193.3377359 379.19889636 199.025357 379.1956374 204.71307188 C379.19382425 208.10512387 379.1964655 211.49702417 379.21035194 214.88905144 C379.22263106 218.66179892 379.21597768 222.43404815 379.2043457 226.20678711 C379.21198944 227.33043167 379.21963318 228.45407623 379.22750854 229.61177063 C379.22049423 230.63638397 379.21347992 231.66099731 379.20625305 232.71665955 C379.20650466 234.05359564 379.20650466 234.05359564 379.20676136 235.41754055 C378.75074752 238.17037596 378.03879347 239.01900992 375.83203125 240.6796875 C374.84203125 241.0096875 373.85203125 241.3396875 372.83203125 241.6796875 C372.50203125 246.2996875 372.17203125 250.9196875 371.83203125 255.6796875 C373.48203125 256.0096875 375.13203125 256.3396875 376.83203125 256.6796875 C379.30652506 260.39142822 379.08793822 262.2624832 379.09945679 266.69708252 C379.1039879 267.41593463 379.10851901 268.13478673 379.11318743 268.87542224 C379.12587562 271.29103643 379.12420817 273.70642642 379.12255859 276.12207031 C379.12854163 277.85185029 379.13534665 279.58162759 379.14291382 281.31140137 C379.16061716 286.01870654 379.16527139 290.72593903 379.16654539 295.43327427 C379.16796662 298.37840341 379.17223598 301.32351406 379.17753983 304.26863861 C379.19606375 314.55638297 379.20420865 324.84407546 379.20263672 335.13183594 C379.20143896 344.69687379 379.22246319 354.26168466 379.25412405 363.82666516 C379.28037238 372.05195584 379.29100024 380.27717288 379.2897259 388.50250506 C379.2892182 393.40860378 379.29479267 398.31450143 379.316082 403.22055817 C379.33560545 407.84666227 379.33549353 412.47237674 379.32104874 417.09849548 C379.31897596 418.78538845 379.32356875 420.47230668 379.33576965 422.1591568 C379.50230814 446.80583078 371.26792161 466.96556485 353.83203125 484.6796875 C340.86727425 497.67123119 322.01333722 506.78426301 303.44902992 506.81390858 C302.15250201 506.81836642 300.85597409 506.82282426 299.52015746 506.82741719 C298.08315062 506.8273279 296.64614378 506.82713806 295.20913696 506.82685852 C293.68108539 506.8301589 292.15303469 506.83388484 290.6249851 506.838 C286.42385427 506.84800864 282.22273773 506.85173498 278.02159667 506.85438931 C273.49101515 506.85829582 268.96044491 506.86787403 264.42987061 506.87660217 C253.48629301 506.89635845 242.54271451 506.90643247 231.59912354 506.91532996 C226.44275386 506.91971489 221.2863852 506.92508123 216.13001633 506.93031883 C198.98342159 506.94733151 181.83682748 506.96182444 164.6902256 506.96906757 C160.24123763 506.9709774 155.79224967 506.97289774 151.34326172 506.97485352 C150.23751519 506.97533726 149.13176866 506.975821 147.99251465 506.9763194 C130.09065568 506.98461502 112.18886364 507.00994389 94.28703387 507.04243419 C75.89811001 507.07553574 57.50922012 507.0935192 39.12026632 507.09671181 C28.7994817 507.09887422 18.47879463 507.10758319 8.15803909 507.13317299 C-0.6340652 507.15492241 -9.42604826 507.16290963 -18.21817641 507.15320621 C-22.70005398 507.14867357 -27.18168163 507.15048701 -31.66352463 507.16996765 C-35.77589161 507.18768703 -39.88782799 507.18653124 -44.00020011 507.17107036 C-45.47877872 507.16870749 -46.95738784 507.17294836 -48.43592004 507.18489901 C-72.34648101 507.36601072 -92.16446892 498.41611665 -109.16796875 481.6796875 C-122.81756947 468.05823029 -131.30006318 448.96090244 -131.32910156 429.63232422 C-131.33654892 428.43876816 -131.33654892 428.43876816 -131.34414673 427.22109985 C-131.35870097 424.600516 -131.3655566 421.97999255 -131.37109375 419.359375 C-131.3768477 417.53524779 -131.3826054 415.71112059 -131.3883667 413.88699341 C-131.39885534 410.0690279 -131.40471299 406.25108334 -131.40820312 402.43310547 C-131.41370461 397.53576214 -131.43777667 392.63869448 -131.46617508 387.74143791 C-131.48476865 383.97713398 -131.49000515 380.21289717 -131.491539 376.44855118 C-131.49456998 374.64239102 -131.50261344 372.83623216 -131.51572418 371.03011703 C-131.5327275 368.50928188 -131.53091949 365.98913051 -131.52441406 363.46826172 C-131.53362885 362.72014221 -131.54284363 361.97202271 -131.55233765 361.20123291 C-131.51158471 356.17506234 -131.51158471 356.17506234 -129.83319092 353.75540161 C-128.16796875 352.6796875 -128.16796875 352.6796875 -125.16796875 351.6796875 C-124.83796875 347.0596875 -124.50796875 342.4396875 -124.16796875 337.6796875 C-125.81796875 337.3496875 -127.46796875 337.0196875 -129.16796875 336.6796875 C-131.75597418 332.79767936 -131.45205402 329.57020579 -131.43539429 325.06781006 C-131.4399254 324.17744875 -131.44445651 323.28708745 -131.44912493 322.36974549 C-131.46182708 319.3737235 -131.46014476 316.37788195 -131.45849609 313.38183594 C-131.46447814 311.23826869 -131.47128293 309.09470359 -131.47885132 306.95114136 C-131.49656193 301.11577574 -131.50120912 295.28046874 -131.50248289 289.44507885 C-131.50390339 285.79641038 -131.50817129 282.14775686 -131.51347733 278.4990921 C-131.53200168 265.76045281 -131.54014585 253.02185544 -131.53857422 240.28320312 C-131.53737554 228.42785757 -131.55841793 216.57269488 -131.59006155 204.71739554 C-131.61627849 194.53033971 -131.62693908 184.34334334 -131.6256634 174.15625405 C-131.62515491 168.07645264 -131.63077431 161.99681328 -131.6520195 155.91704559 C-131.67149038 150.18784264 -131.67146596 144.45895469 -131.65698624 138.72974014 C-131.65490726 136.63648388 -131.65954412 134.54320746 -131.67170715 132.4499855 C-131.75307903 117.4646316 -130.61719649 103.92092321 -123.41796875 90.4296875 C-122.90363281 89.43775391 -122.90363281 89.43775391 -122.37890625 88.42578125 C-111.47064294 67.92302356 -94.43870348 54.45078098 -72.35546875 47.3046875 C-67.32728071 45.77696855 -62.37981437 45.16069152 -57.16796875 44.6796875 C-57.20277344 43.42414062 -57.23757812 42.16859375 -57.2734375 40.875 C-57.5390006 27.45065119 -56.65529938 16.7058048 -48.16796875 5.6796875 C-35.07755644 -7.43580223 -15.72827925 -9.57866376 0 0 Z " fill="#E9E9E9" transform="translate(132.16796875,5.3203125)"/>
<path d="M0 0 C8.27659267 5.68336382 13.94143444 13.77035248 15.83203125 23.6796875 C16.28094484 30.69026623 16.01098605 37.65571162 15.83203125 44.6796875 C23.42203125 44.6796875 31.01203125 44.6796875 38.83203125 44.6796875 C38.79078125 42.2459375 38.74953125 39.8121875 38.70703125 37.3046875 C38.66026359 24.78612315 40.70389413 13.8595806 49.51953125 4.3671875 C58.53758162 -4.10223623 68.39108288 -5.80360819 80.3046875 -5.5859375 C90.92299345 -5.14141987 97.73434906 0.0399088 104.83203125 7.6796875 C111.35949644 15.96513512 112.12910286 23.86522175 111.95703125 34.1171875 C111.91578125 37.6028125 111.87453125 41.0884375 111.83203125 44.6796875 C119.75203125 44.6796875 127.67203125 44.6796875 135.83203125 44.6796875 C135.71430112 37.84446954 135.71430112 37.84446954 135.56176758 31.01000977 C135.46343922 19.58171763 138.85407126 11.97904319 146.6484375 3.765625 C154.88841028 -4.05818754 163.13119526 -5.9431604 174.21826172 -5.78662109 C185.78940705 -5.31428001 192.98111174 -0.78480298 200.83203125 7.6796875 C207.69870594 16.54043165 209.02367859 26.1716649 208.89453125 37.1171875 C208.87390625 39.6128125 208.85328125 42.1084375 208.83203125 44.6796875 C216.42203125 44.6796875 224.01203125 44.6796875 231.83203125 44.6796875 C231.74953125 41.4415625 231.66703125 38.2034375 231.58203125 34.8671875 C231.48180397 22.98569933 233.42113596 13.53838509 241.83203125 4.6796875 C250.22482579 -3.1162057 259.15235512 -5.9624053 270.42895508 -5.86328125 C279.39191489 -5.48132846 287.74733426 -2.36266987 294.30859375 3.89453125 C304.94211461 16.35483646 305.26389809 29.10049126 304.83203125 44.6796875 C305.83621094 44.83824219 306.84039062 44.99679688 307.875 45.16015625 C330.6698932 48.96304168 349.43109527 59.2955139 363.83203125 77.6796875 C374.21169875 92.7822601 379.14736976 108.84027062 379.10668945 127.05834961 C379.11435585 128.85284546 379.11435585 128.85284546 379.12217712 130.68359375 C379.13361743 133.93314776 379.13616031 137.1825419 379.13361382 140.43211055 C379.13253776 143.15128804 379.13744264 145.87044243 379.14221925 148.58961493 C379.15326873 154.99994675 379.15377501 161.41021993 379.14770508 167.82055664 C379.1416428 174.43046942 379.15404346 181.04017055 379.17527515 187.65004724 C379.19287167 193.3377359 379.19889636 199.025357 379.1956374 204.71307188 C379.19382425 208.10512387 379.1964655 211.49702417 379.21035194 214.88905144 C379.22263106 218.66179892 379.21597768 222.43404815 379.2043457 226.20678711 C379.21198944 227.33043167 379.21963318 228.45407623 379.22750854 229.61177063 C379.22049423 230.63638397 379.21347992 231.66099731 379.20625305 232.71665955 C379.20650466 234.05359564 379.20650466 234.05359564 379.20676136 235.41754055 C378.7545622 238.14734777 377.98722108 239.00211594 375.83203125 240.6796875 C373.21644403 241.81310863 372.04672198 241.73728745 369.26953125 240.9921875 C366.83203125 239.6796875 366.83203125 239.6796875 363.83203125 235.6796875 C363.83203125 214.2296875 363.83203125 192.7796875 363.83203125 170.6796875 C205.43203125 170.6796875 47.03203125 170.6796875 -116.16796875 170.6796875 C-116.16796875 224.1396875 -116.16796875 277.5996875 -116.16796875 332.6796875 C-121.16796875 337.6796875 -121.16796875 337.6796875 -124.23046875 338.2421875 C-127.96007649 337.52800729 -128.91980019 336.73368738 -131.16796875 333.6796875 C-131.56071356 330.64758929 -131.70833558 327.97937383 -131.67590332 324.94755554 C-131.68214328 324.05633981 -131.68838325 323.16512408 -131.6948123 322.24690181 C-131.71079521 319.2537707 -131.69811677 316.26144803 -131.68554688 313.26831055 C-131.69096606 311.12459334 -131.69808756 308.98087986 -131.70678711 306.83717346 C-131.7250596 301.00591818 -131.71793345 295.17494528 -131.70527077 289.34368491 C-131.6951491 283.23544788 -131.70453547 277.12723517 -131.71081543 271.01899719 C-131.71810031 260.74854191 -131.70848837 250.47820152 -131.68945312 240.20776367 C-131.66774654 228.35976381 -131.67468716 216.51203995 -131.69675875 204.66404694 C-131.71496497 194.48120198 -131.71744368 184.29843972 -131.70700407 174.11558372 C-131.70078959 168.03917002 -131.69987574 161.96288556 -131.71315002 155.88648033 C-131.72478158 150.16133936 -131.71655008 144.4365501 -131.693573 138.71144676 C-131.68832199 136.61981284 -131.68973712 134.52814889 -131.69862366 132.43652725 C-131.75632369 117.46446442 -130.61032372 103.90804376 -123.41796875 90.4296875 C-122.90363281 89.43775391 -122.90363281 89.43775391 -122.37890625 88.42578125 C-111.47064294 67.92302356 -94.43870348 54.45078098 -72.35546875 47.3046875 C-67.32728071 45.77696855 -62.37981437 45.16069152 -57.16796875 44.6796875 C-57.20277344 43.42414062 -57.23757812 42.16859375 -57.2734375 40.875 C-57.5390006 27.45065119 -56.65529938 16.7058048 -48.16796875 5.6796875 C-35.07755644 -7.43580223 -15.72827925 -9.57866376 0 0 Z " fill="#020101" transform="translate(132.16796875,5.3203125)"/>
<path d="M0 0 C4.9046879 2.79252417 8.54265991 7.12078758 12.41162109 11.16113281 C19.10973937 17.97270004 28.33118862 23.23989999 38.046875 23.4921875 C39.6185499 23.48824187 41.19022978 23.47371284 42.76171875 23.44921875 C43.55126953 23.44857422 44.34082031 23.44792969 45.15429688 23.44726562 C49.14923691 23.41712777 52.78863601 23.14057794 56.69921875 22.26171875 C64.12722872 21.63161024 70.57402795 22.13054983 76.64453125 26.73828125 C83.07513811 32.63076202 84.56384629 38.744674 85.63671875 47.13671875 C87.27390262 59.50801942 92.10569534 68.82806724 101.76171875 76.88671875 C105.55813735 79.72424812 109.60782071 81.70964602 113.88671875 83.69921875 C119.81355741 86.46832194 123.58342661 89.44956803 126.69921875 95.26171875 C127.0653125 95.88691406 127.43140625 96.51210938 127.80859375 97.15625 C130.11083419 102.59882717 129.59441799 108.95396488 127.49609375 114.36328125 C125.95872635 117.36813571 124.35720564 120.32182492 122.69921875 123.26171875 C117.2709907 132.98318171 116.77933047 145.12508484 119.65234375 155.8046875 C121.22407882 159.64946981 123.10622792 163.21036203 125.14453125 166.82421875 C128.56332614 173.07572941 129.95929674 178.12805143 128.69921875 185.26171875 C125.7112007 194.14980635 120.45027582 199.08416755 112.24389648 203.18896484 C111.61040283 203.50172363 110.97690918 203.81448242 110.32421875 204.13671875 C98.696376 210.15820427 91.09455519 217.45432954 86.88671875 230.19921875 C85.9137875 233.75180772 85.52566036 237.08928332 85.32421875 240.76171875 C84.79973966 247.62850975 82.79859717 253.5864658 77.47265625 258.18359375 C72.23810059 261.76423443 68.28346792 263.4028112 61.88671875 263.38671875 C60.86964844 263.38929688 59.85257813 263.391875 58.8046875 263.39453125 C55.68816194 263.26124588 52.77311425 262.7753416 49.69921875 262.26171875 C36.26096462 261.3417036 25.18268506 263.44784152 14.69921875 272.26171875 C13.35739463 273.75674327 12.04524433 275.27885395 10.76171875 276.82421875 C5.99462488 282.39052954 1.00043964 285.69591319 -6.359375 286.6640625 C-14.94442896 286.9320105 -20.89976962 285.18265451 -27.30078125 279.26171875 C-28.36796963 277.97392296 -29.42998727 276.68183376 -30.48828125 275.38671875 C-36.74548754 268.04785098 -45.75936319 263.41611254 -55.30078125 262.26171875 C-57.84117657 262.17118055 -60.38377818 262.13162456 -62.92578125 262.13671875 C-64.21742188 262.13414062 -65.5090625 262.1315625 -66.83984375 262.12890625 C-69.62806417 262.23590342 -71.65858854 262.55427567 -74.30078125 263.26171875 C-81.62488104 263.94804671 -88.03144615 264.02805936 -94.359375 259.9609375 C-100.86827425 254.26401361 -103.17139116 247.82645756 -103.92578125 239.44921875 C-105.15118695 228.76993844 -109.92325602 217.32250312 -118.30078125 210.26171875 C-123.12504566 206.88892868 -128.21937976 204.28918902 -133.55078125 201.82421875 C-139.68561995 198.80976896 -142.80996988 194.84579178 -146.17578125 189.01171875 C-148.26307024 182.05408879 -148.45884478 175.88869988 -145.11328125 169.32421875 C-144.1870368 167.63051461 -143.24914301 165.94313853 -142.30078125 164.26171875 C-136.47355385 153.67821385 -135.27237623 142.02125551 -138 130.2421875 C-139.32934985 126.7701725 -141.07831369 123.65619172 -142.90234375 120.421875 C-146.81276501 113.22188134 -148.79124965 107.48773903 -147.30078125 99.26171875 C-144.94468719 92.25798708 -140.57808586 87.93901765 -134.30078125 84.26171875 C-132.32967778 83.28690872 -130.34991117 82.32948333 -128.36328125 81.38671875 C-117.1523118 75.9510972 -110.33055279 68.24191124 -106.11328125 56.63671875 C-104.65653153 52.06333717 -103.8783498 47.64789255 -103.30078125 42.88671875 C-102.26691816 34.84556137 -99.29090105 30.53703749 -93.078125 25.51953125 C-87.67398152 21.69506048 -81.67592832 21.80935683 -75.30078125 22.26171875 C-74.67324951 22.42526855 -74.04571777 22.58881836 -73.39916992 22.75732422 C-61.08797316 25.71659502 -48.42172084 23.13898001 -37.80078125 16.69921875 C-32.95620486 13.30714551 -28.99483674 9.05401819 -24.9765625 4.75 C-18.09360666 -1.65064653 -8.93775569 -2.86797254 0 0 Z " fill="#FCC075" transform="translate(265.30078125,193.73828125)"/>
<path d="M0 0 C8.25 0 16.5 0 25 0 C25.0825 1.8975 25.165 3.795 25.25 5.75 C26.0180938 15.53252793 28.18070835 23.80185882 35 31 C35 31.66 35 32.32 35 33 C35.58007812 33.2784375 36.16015625 33.556875 36.7578125 33.84375 C39.57726103 35.29768165 42.16423148 37.02807272 44.8046875 38.78125 C52.5096006 43.05871065 62.48221175 43.81622163 70.9765625 41.44921875 C80.31950163 38.00809508 87.88807308 32.28773503 92.33203125 23.30859375 C93.32722979 20.89268775 94.20512236 18.48792211 95 16 C95.33 15.01 95.66 14.02 96 13 C96.22451458 10.77425665 96.40782878 8.54418481 96.5625 6.3125 C96.706875 4.229375 96.85125 2.14625 97 0 C104.92 0 112.84 0 121 0 C121.0825 1.918125 121.165 3.83625 121.25 5.8125 C122.09891344 16.78859209 125.57872219 26.06018421 133.75 33.625 C142.99025568 41.43172069 152.17497625 42.84380744 164 42 C170.91308587 40.45817236 175.84262775 37.76065131 181 33 C181.66 33 182.32 33 183 33 C183.37125 32.195625 183.37125 32.195625 183.75 31.375 C185 29 185 29 186.9375 26.375 C191.97660661 18.12918918 192.49522552 9.48976013 193 0 C201.25 0 209.5 0 218 0 C218.061875 3.83625 218.061875 3.83625 218.125 7.75 C218.59924396 18.19837494 221.62656511 26.1939498 229.375 33.5 C238.64638806 41.02029959 247.16195856 42.92073656 259 42 C268.22557119 40.13238437 276.156022 36.21623681 281.81640625 28.53515625 C286.07076409 21.71793224 288.16819579 15.69520769 288.625 7.625 C288.69976562 6.37976563 288.77453125 5.13453125 288.8515625 3.8515625 C288.90054687 2.91054687 288.94953125 1.96953125 289 1 C305.45783864 1.85126752 320.83621878 10.02177923 332 22 C350.04938789 44.81324273 349 65.50094441 349 96 C190.6 96 32.2 96 -131 96 C-131 40.14539007 -131 40.14539007 -112 20 C-102.09050885 10.31719655 -87.55958317 1.13192106 -73.26171875 0.96875 C-72.51535156 0.9790625 -71.76898438 0.989375 -71 1 C-70.98582031 1.87140625 -70.97164062 2.7428125 -70.95703125 3.640625 C-70.5282744 14.34795811 -68.39142074 24.45050754 -60.80078125 32.47265625 C-51.35003841 40.48836222 -42.1579946 42.68790621 -30 42 C-21.4950666 41.09241675 -13.88842214 36.37052889 -8.125 30.1875 C-0.50547399 20.59121017 -0.37608952 11.94084221 0 0 Z " fill="#FE909D" transform="translate(147,65)"/>
<path d="M0 0 C1.43956055 -0.02416992 1.43956055 -0.02416992 2.90820312 -0.04882812 C9.88847654 -0.05352865 15.93777537 1.16017445 22.5625 3.3125 C24.31046875 3.87710937 24.31046875 3.87710937 26.09375 4.453125 C45.67555267 11.77053547 62.53881859 26.27421889 71.5625 45.3125 C79.8979696 66.39936494 81.46284909 88.20176424 72.9375 109.5625 C62.80197564 131.27438307 46.33552607 145.73178713 24.1171875 154.25 C6.31891422 160.52464549 -15.65479971 159.09780571 -32.7734375 151.4296875 C-42.4313837 146.80594176 -50.04844102 141.00383866 -57.4375 133.3125 C-58.55898437 132.18521484 -58.55898437 132.18521484 -59.703125 131.03515625 C-74.04966294 115.89463052 -79.83031671 95.98037769 -79.81054688 75.47412109 C-79.21606496 54.05739759 -68.70490022 34.46307921 -53.44140625 19.87890625 C-38.13806575 6.80440078 -20.15607337 -0.06741162 0 0 Z " fill="#FDE897" transform="translate(256.4375,257.6875)"/>
<path d="M0 0 C4.9046879 2.79252417 8.54265991 7.12078758 12.41162109 11.16113281 C19.10973937 17.97270004 28.33118862 23.23989999 38.046875 23.4921875 C39.6185499 23.48824187 41.19022978 23.47371284 42.76171875 23.44921875 C43.55126953 23.44857422 44.34082031 23.44792969 45.15429688 23.44726562 C49.14923691 23.41712777 52.78863601 23.14057794 56.69921875 22.26171875 C64.12722872 21.63161024 70.57402795 22.13054983 76.64453125 26.73828125 C83.07513811 32.63076202 84.56384629 38.744674 85.63671875 47.13671875 C87.27390262 59.50801942 92.10569534 68.82806724 101.76171875 76.88671875 C105.55813735 79.72424812 109.60782071 81.70964602 113.88671875 83.69921875 C119.81355741 86.46832194 123.58342661 89.44956803 126.69921875 95.26171875 C127.0653125 95.88691406 127.43140625 96.51210938 127.80859375 97.15625 C130.11083419 102.59882717 129.59441799 108.95396488 127.49609375 114.36328125 C125.95872635 117.36813571 124.35720564 120.32182492 122.69921875 123.26171875 C117.2709907 132.98318171 116.77933047 145.12508484 119.65234375 155.8046875 C121.22407882 159.64946981 123.10622792 163.21036203 125.14453125 166.82421875 C128.56332614 173.07572941 129.95929674 178.12805143 128.69921875 185.26171875 C125.7112007 194.14980635 120.45027582 199.08416755 112.24389648 203.18896484 C111.61040283 203.50172363 110.97690918 203.81448242 110.32421875 204.13671875 C98.696376 210.15820427 91.09455519 217.45432954 86.88671875 230.19921875 C85.9137875 233.75180772 85.52566036 237.08928332 85.32421875 240.76171875 C84.79973966 247.62850975 82.79859717 253.5864658 77.47265625 258.18359375 C72.23810059 261.76423443 68.28346792 263.4028112 61.88671875 263.38671875 C60.86964844 263.38929688 59.85257813 263.391875 58.8046875 263.39453125 C55.68816194 263.26124588 52.77311425 262.7753416 49.69921875 262.26171875 C36.26096462 261.3417036 25.18268506 263.44784152 14.69921875 272.26171875 C13.35739463 273.75674327 12.04524433 275.27885395 10.76171875 276.82421875 C5.99462488 282.39052954 1.00043964 285.69591319 -6.359375 286.6640625 C-14.94442896 286.9320105 -20.89976962 285.18265451 -27.30078125 279.26171875 C-28.36796963 277.97392296 -29.42998727 276.68183376 -30.48828125 275.38671875 C-36.74548754 268.04785098 -45.75936319 263.41611254 -55.30078125 262.26171875 C-57.84117657 262.17118055 -60.38377818 262.13162456 -62.92578125 262.13671875 C-64.21742188 262.13414062 -65.5090625 262.1315625 -66.83984375 262.12890625 C-69.62806417 262.23590342 -71.65858854 262.55427567 -74.30078125 263.26171875 C-81.62488104 263.94804671 -88.03144615 264.02805936 -94.359375 259.9609375 C-100.86827425 254.26401361 -103.17139116 247.82645756 -103.92578125 239.44921875 C-105.15118695 228.76993844 -109.92325602 217.32250312 -118.30078125 210.26171875 C-123.12504566 206.88892868 -128.21937976 204.28918902 -133.55078125 201.82421875 C-139.68561995 198.80976896 -142.80996988 194.84579178 -146.17578125 189.01171875 C-148.26307024 182.05408879 -148.45884478 175.88869988 -145.11328125 169.32421875 C-144.1870368 167.63051461 -143.24914301 165.94313853 -142.30078125 164.26171875 C-136.47355385 153.67821385 -135.27237623 142.02125551 -138 130.2421875 C-139.32934985 126.7701725 -141.07831369 123.65619172 -142.90234375 120.421875 C-146.81276501 113.22188134 -148.79124965 107.48773903 -147.30078125 99.26171875 C-144.94468719 92.25798708 -140.57808586 87.93901765 -134.30078125 84.26171875 C-132.32967778 83.28690872 -130.34991117 82.32948333 -128.36328125 81.38671875 C-117.1523118 75.9510972 -110.33055279 68.24191124 -106.11328125 56.63671875 C-104.65653153 52.06333717 -103.8783498 47.64789255 -103.30078125 42.88671875 C-102.26691816 34.84556137 -99.29090105 30.53703749 -93.078125 25.51953125 C-87.67398152 21.69506048 -81.67592832 21.80935683 -75.30078125 22.26171875 C-74.67324951 22.42526855 -74.04571777 22.58881836 -73.39916992 22.75732422 C-61.08797316 25.71659502 -48.42172084 23.13898001 -37.80078125 16.69921875 C-32.95620486 13.30714551 -28.99483674 9.05401819 -24.9765625 4.75 C-18.09360666 -1.65064653 -8.93775569 -2.86797254 0 0 Z M-19.55078125 20.32421875 C-28.37713182 29.87930305 -39.20146702 36.59831377 -52.30078125 38.26171875 C-55.8851703 38.40144549 -59.46408835 38.40143842 -63.05078125 38.38671875 C-64.00855469 38.39058594 -64.96632813 38.39445312 -65.953125 38.3984375 C-66.86707031 38.39714844 -67.78101563 38.39585937 -68.72265625 38.39453125 C-69.5537793 38.39340332 -70.38490234 38.39227539 -71.24121094 38.39111328 C-73.30078125 38.26171875 -73.30078125 38.26171875 -75.30078125 37.26171875 C-77.37424918 36.98828982 -77.37424918 36.98828982 -79.67578125 36.94921875 C-80.44664062 36.91183594 -81.2175 36.87445313 -82.01171875 36.8359375 C-85.34669551 37.45626594 -86.34097536 38.493172 -88.30078125 41.26171875 C-89.02393285 44.14634083 -89.26216835 47.05652253 -89.55078125 50.01171875 C-91.64841881 66.21946494 -99.29239543 79.08136317 -111.98828125 89.44921875 C-116.19970467 92.45615799 -120.86658455 94.65364981 -125.5534668 96.81518555 C-128.8296303 98.35682984 -130.23868571 99.16857544 -132.30078125 102.26171875 C-133.06180986 107.83989652 -131.01705881 111.46049837 -128.42578125 116.19921875 C-121.16107259 129.68898695 -119.62951288 145.57338951 -123.92578125 160.44921875 C-125.77343792 165.52695146 -128.27006594 170.14817221 -131.12890625 174.7265625 C-132.60195692 177.91326211 -132.86235159 179.78813449 -132.30078125 183.26171875 C-129.0306858 187.45650411 -125.48403457 189.3381459 -120.67578125 191.44921875 C-105.71839672 198.50142955 -96.90654614 210.56744046 -91.28515625 225.84375 C-89.92336003 230.57220909 -89.36293125 235.27274889 -88.953125 240.16796875 C-88.16760475 243.89331029 -87.06885736 245.6615502 -84.30078125 248.26171875 C-81.85983348 248.89900472 -81.85983348 248.89900472 -79.30078125 248.63671875 C-78.45515625 248.60320312 -77.60953125 248.5696875 -76.73828125 248.53515625 C-74.37945912 248.33635172 -74.37945912 248.33635172 -72.46875 247.75 C-57.52809409 244.38498741 -41.44899246 249.01926601 -28.73828125 256.88671875 C-23.86014575 260.24485551 -20.05193351 264.63711572 -16.171875 269.06640625 C-12.91586685 271.55603425 -11.25978751 272.06382002 -7.25268555 271.78613281 C-3.7650458 270.8491159 -1.73703077 268.34764148 0.51171875 265.69921875 C9.12520438 256.34259807 20.93466759 248.07259294 34.04248047 247.08520508 C36.61841807 247.02970866 39.18548248 247.03787986 41.76171875 247.07421875 C42.63376953 247.07486328 43.50582031 247.07550781 44.40429688 247.07617188 C48.95174509 247.10715373 53.22128155 247.39266723 57.69921875 248.26171875 C60.59997577 248.62302301 62.71090372 248.55091053 65.69921875 248.26171875 C70.23609871 244.14106631 70.63429158 239.57942694 71.51171875 233.82421875 C74.25955782 218.46889313 80.68021476 205.80459747 93.43359375 196.203125 C98.62612882 192.79277358 104.05075878 189.97077896 109.703125 187.40234375 C112.00842503 186.28239073 112.00842503 186.28239073 113.69921875 183.26171875 C114.31965204 178.09387442 112.8439276 175.00897056 110.38671875 170.51171875 C105.37974956 161.31653005 103.14561519 152.88856257 103.26171875 142.38671875 C103.27307861 140.93881958 103.27307861 140.93881958 103.28466797 139.46166992 C103.53982452 128.40333399 106.74543586 120.19185244 112.52734375 110.83203125 C113.96702599 107.67432821 114.19373051 105.69582821 113.69921875 102.26171875 C110.87072081 98.36009722 106.80397057 96.63712429 102.57421875 94.57421875 C89.13506601 87.67575724 79.85146606 77.37135714 73.74609375 63.53515625 C72.18260702 58.64634326 71.49186652 53.64105069 70.95019531 48.54296875 C70.4386093 44.47860374 69.9433412 42.57634735 67.359375 39.24609375 C63.3814279 36.27869709 61.5558218 36.79918513 56.69921875 37.26171875 C56.05210937 37.42953857 55.405 37.5973584 54.73828125 37.77026367 C43.72128213 40.42558207 29.78414909 39.17187434 19.69921875 34.26171875 C18.73242188 33.81054688 17.765625 33.359375 16.76953125 32.89453125 C9.71539083 29.21172028 4.54441164 24.52785529 -0.58569336 18.52954102 C-3.27045083 15.56386592 -5.21414657 13.84121423 -9.30078125 13.50390625 C-14.216594 13.90965401 -16.48778645 16.74105597 -19.55078125 20.32421875 Z " fill="#030302" transform="translate(265.30078125,193.73828125)"/>
<path d="M0 0 C3.67955265 0.70459519 4.67059184 1.60527863 6.9375 4.5625 C7.44086456 7.7926836 7.44086456 7.7926836 7.44543457 11.70014954 C7.45479451 12.77970933 7.45479451 12.77970933 7.46434355 13.88107842 C7.48030343 16.29385455 7.46765776 18.7056245 7.45507812 21.1184082 C7.46049847 22.84833872 7.46762063 24.57826462 7.47631836 26.30818176 C7.49458012 31.01139612 7.4874685 35.71426008 7.47480202 40.41748071 C7.4646713 45.34857642 7.47406955 50.27964223 7.48034668 55.21073914 C7.48763039 63.50391002 7.47802428 71.79693861 7.45898438 80.09008789 C7.43729313 89.64778432 7.44420747 99.20513838 7.46629 108.76282626 C7.48451794 116.9839097 7.486964 125.20489075 7.47653532 133.4259879 C7.47033067 138.32869412 7.46937906 143.23124029 7.48268127 148.13393593 C7.4943442 152.75598464 7.48602595 157.37759896 7.46310425 161.99960136 C7.45786895 163.68486947 7.45924062 165.37017489 7.46815491 167.05542755 C7.58633821 191.69475768 -0.6284875 211.85028518 -18.0625 229.5625 C-31.027257 242.55404369 -49.88119403 251.66707551 -68.44550133 251.69672108 C-70.3902932 251.70340784 -70.3902932 251.70340784 -72.37437379 251.71022969 C-73.81138063 251.7101404 -75.24838747 251.70995056 -76.68539429 251.70967102 C-78.21344586 251.7129714 -79.74149656 251.71669734 -81.26954615 251.7208125 C-85.47067698 251.73082114 -89.67179352 251.73454748 -93.87293458 251.73720181 C-98.4035161 251.74110832 -102.93408634 251.75068653 -107.46466064 251.75941467 C-118.40823824 251.77917095 -129.35181674 251.78924497 -140.29540771 251.79814246 C-145.45177739 251.80252739 -150.60814605 251.80789373 -155.76451492 251.81313133 C-172.91110966 251.83014401 -190.05770377 251.84463694 -207.20430565 251.85188007 C-211.65329362 251.8537899 -216.10228158 251.85571024 -220.55126953 251.85766602 C-222.20988933 251.85839163 -222.20988933 251.85839163 -223.9020166 251.8591319 C-241.80387557 251.86742752 -259.70566761 251.89275639 -277.60749738 251.92524669 C-295.99642124 251.95834824 -314.38531113 251.9763317 -332.77426493 251.97952431 C-343.09504955 251.98168672 -353.41573662 251.99039569 -363.73649216 252.01598549 C-372.52859645 252.03773491 -381.32057951 252.04572213 -390.11270766 252.03601871 C-394.59458523 252.03148607 -399.07621288 252.03329951 -403.55805588 252.05278015 C-407.67042286 252.07049953 -411.78235924 252.06934374 -415.89473136 252.05388286 C-417.37330997 252.05151999 -418.85191909 252.05576086 -420.33045129 252.06771151 C-444.24101226 252.24882322 -464.05900017 243.29892915 -481.0625 226.5625 C-494.71210072 212.94104279 -503.19459443 193.84371494 -503.22363281 174.51513672 C-503.22859772 173.71943268 -503.23356262 172.92372864 -503.23867798 172.10391235 C-503.25323222 169.4833285 -503.26008785 166.86280505 -503.265625 164.2421875 C-503.27137895 162.41806029 -503.27713665 160.59393309 -503.28289795 158.76980591 C-503.29338659 154.9518404 -503.29924424 151.13389584 -503.30273438 147.31591797 C-503.30823586 142.41857464 -503.33230792 137.52150698 -503.36070633 132.62425041 C-503.3792999 128.85994648 -503.3845364 125.09570967 -503.38607025 121.33136368 C-503.38910123 119.52520352 -503.39714469 117.71904466 -503.41025543 115.91292953 C-503.42725875 113.39209438 -503.42545074 110.87194301 -503.41894531 108.35107422 C-503.4281601 107.60295471 -503.43737488 106.85483521 -503.4468689 106.08404541 C-503.40591763 101.03341431 -503.40591763 101.03341431 -501.65350342 98.63040161 C-499.63613596 97.27631907 -498.51577763 96.70268729 -496.0625 96.5625 C-492.85283355 97.91055991 -490.52848569 99.09651431 -488.0625 101.5625 C-487.8109436 104.62528992 -487.8109436 104.62528992 -487.80712891 108.61987305 C-487.80350845 109.34709564 -487.799888 110.07431824 -487.79615784 110.82357788 C-487.78925261 112.40756156 -487.7867605 113.99156909 -487.78810501 115.57556725 C-487.78907092 118.09617944 -487.77611421 120.6163658 -487.75912476 123.13691711 C-487.71291631 130.30551692 -487.68831452 137.47407877 -487.68164062 144.64282227 C-487.67657345 149.02847688 -487.65204792 153.41369732 -487.61631393 157.79920387 C-487.60661931 159.45864036 -487.60412644 161.11813746 -487.60948563 162.77759361 C-487.67165246 183.00613799 -482.69110902 201.32188548 -468.5612793 216.40673828 C-455.35935691 229.57932807 -438.44475379 235.8435161 -420.00875783 235.97305441 C-418.61661631 235.96795243 -417.22447583 235.96256049 -415.83233643 235.95690918 C-414.32370132 235.96180761 -412.81506996 235.96800179 -411.30644488 235.97536707 C-407.19141363 235.99166913 -403.07657518 235.98946867 -398.96152306 235.9839921 C-394.51146508 235.9813098 -390.06145712 235.99587613 -385.61141968 236.00808716 C-376.90472637 236.02909305 -368.19809972 236.03368478 -359.49138406 236.03189927 C-352.41037282 236.03058917 -345.32938229 236.03440842 -338.24837494 236.04182434 C-336.20495057 236.04392365 -334.1615262 236.04602125 -332.11810184 236.04811716 C-330.59226191 236.04968245 -330.59226191 236.04968245 -329.03559694 236.05127937 C-309.8172139 236.07016231 -290.59886908 236.06913755 -271.38048062 236.06231004 C-253.82244015 236.05673635 -236.26454567 236.07755608 -218.7065393 236.11067051 C-200.65299148 236.14445371 -182.59951349 236.15957005 -164.54593349 236.15495348 C-154.42027016 236.15271343 -144.29474175 236.15788383 -134.16910553 236.18284607 C-125.548077 236.2039191 -116.92725737 236.20739186 -108.30622008 236.18854648 C-103.91323658 236.17942544 -99.52064193 236.17813326 -95.12768936 236.19890213 C-91.09563314 236.21775287 -87.06428039 236.21295325 -83.03224978 236.19035631 C-81.5841492 236.18620577 -80.13599317 236.19024922 -78.68795148 236.20395225 C-58.66306368 236.38034142 -41.51847394 229.21707855 -26.9375 215.57421875 C-12.31697255 200.41113266 -8.42402023 181.31141955 -8.59594727 161.05810547 C-8.59539703 159.3595922 -8.5930131 157.66107871 -8.58895874 155.96257019 C-8.58382603 152.33842707 -8.59072489 148.7145893 -8.60721016 145.0904808 C-8.63252136 139.35817505 -8.62599497 133.62616404 -8.61473083 127.89382935 C-8.59163595 113.67175901 -8.61002474 99.44977822 -8.63623047 85.22772217 C-8.6561742 74.14026522 -8.66478486 63.05304589 -8.63929409 51.96558869 C-8.62748425 46.26741111 -8.63911429 40.56991283 -8.6685468 34.87180591 C-8.6817916 31.33480868 -8.67439282 27.79807575 -8.66126633 24.26108742 C-8.65940876 22.62157796 -8.66613481 20.98203294 -8.68206978 19.34259987 C-8.7026382 17.10453979 -8.69250774 14.86862205 -8.67481995 12.63058472 C-8.67724984 11.37891447 -8.67967974 10.12724422 -8.68218327 8.83764458 C-7.72239182 3.76496322 -5.09808476 0.93638292 0 0 Z " fill="#000000" transform="translate(504.0625,260.4375)"/>
<path d="M0 0 C1.07378906 0.53625 2.14757812 1.0725 3.25390625 1.625 C11.29346929 5.98544097 17.50787833 11.66876181 24 18 C24.65742188 18.58394531 25.31484375 19.16789062 25.9921875 19.76953125 C41.43951922 33.82873869 50.24043989 57.55703504 51.34375 78.0234375 C52.09220661 103.15088274 44.37179723 125.81625287 28 145 C27.40703125 145.75023437 26.8140625 146.50046875 26.203125 147.2734375 C13.11229935 163.21739181 -8.81565523 174.1012405 -29 177 C-33.10880866 177.26657082 -37.19620503 177.28700181 -41.3125 177.25 C-42.97333618 177.23767334 -42.97333618 177.23767334 -44.66772461 177.22509766 C-70.35051123 176.87345994 -92.84356235 167.28663021 -111 149 C-129.12011615 129.55749727 -138.03394332 104.85364481 -137.37109375 78.359375 C-136.01032584 51.88009061 -123.08401177 29.0796686 -103.75 11.48681641 C-98.90181243 7.3677508 -93.5118923 4.14210867 -88 1 C-87.16082031 0.51015625 -86.32164062 0.0203125 -85.45703125 -0.484375 C-58.93469957 -14.87840426 -26.41839849 -13.20570197 0 0 Z M-96 25 C-97.13308594 25.99580078 -97.13308594 25.99580078 -98.2890625 27.01171875 C-112.1179349 39.86639223 -121.07926132 58.71573797 -122.21484375 77.56640625 C-122.77471469 100.47632526 -116.39694042 121.03348772 -100.46069336 138.05834961 C-93.98124751 144.70863553 -87.24343507 149.65101984 -79 154 C-78.07445312 154.49113281 -77.14890625 154.98226562 -76.1953125 155.48828125 C-65.40945753 160.78741869 -55.24652111 162.25445553 -43.375 162.3125 C-42.42141602 162.31805908 -41.46783203 162.32361816 -40.48535156 162.3293457 C-30.81030106 162.2319291 -21.81756792 160.89049794 -13 156.8125 C-12.31703857 156.50135254 -11.63407715 156.19020508 -10.93041992 155.86962891 C8.85399652 146.64667821 23.57335938 131.3550037 31.4375 110.9375 C38.88761396 90.18661762 37.44332166 68.92966227 28.52734375 48.9296875 C17.68700759 28.13620381 0.08883591 14.17475501 -22 7 C-47.83052597 -0.37752855 -76.38705558 7.00426328 -96 25 Z " fill="#040302" transform="translate(299,253)"/>
<path d="M0 0 C0.01417969 0.87140625 0.02835938 1.7428125 0.04296875 2.640625 C0.43940898 12.54091608 2.46479546 20.69719318 8 29 C6.68 29.33 5.36 29.66 4 30 C3.87181885 30.72606445 3.7436377 31.45212891 3.61157227 32.20019531 C3.02506759 34.88523948 2.22443965 37.24487612 1.21484375 39.796875 C-5.12434896 56.30894926 -9.42335408 72.91625168 -13.29492188 90.14038086 C-14 93 -14 93 -15 95 C-29.85 95 -44.7 95 -60 95 C-60.0825 89.225 -60.165 83.45 -60.25 77.5 C-60.30462402 74.82100586 -60.30462402 74.82100586 -60.36035156 72.08789062 C-60.60059562 51.79140059 -55.21836887 34.07550458 -41 19 C-30.23332929 8.47962568 -15.39074189 -0.21265274 0 0 Z " fill="#FD727C" transform="translate(76,66)"/>
<path d="M0 0 C4.89393132 3.01394551 8.67072792 7.93582878 10.921875 13.18359375 C11.18930054 15.39508057 11.18930054 15.39508057 11.21240234 17.82519531 C11.22516205 18.740047 11.23792175 19.65489868 11.25106812 20.59747314 C11.25329376 21.57979919 11.25551941 22.56212524 11.2578125 23.57421875 C11.2644693 24.59279968 11.2711261 25.61138062 11.27798462 26.66082764 C11.28810571 28.81602169 11.29280181 30.97124705 11.29248047 33.12646484 C11.29684067 36.40775939 11.33313112 39.68769452 11.37109375 42.96875 C11.37696475 45.06640167 11.38093225 47.16405971 11.3828125 49.26171875 C11.39718353 50.23594788 11.41155457 51.210177 11.42636108 52.21392822 C11.37891087 59.36594165 9.90094236 64.73134119 5.17578125 70.20703125 C4.61761719 70.65304688 4.05945313 71.0990625 3.484375 71.55859375 C2.65099609 72.25082031 2.65099609 72.25082031 1.80078125 72.95703125 C-3.83787756 76.63798524 -9.51570427 77.0763775 -16.078125 76.18359375 C-22.3798733 73.70752739 -26.98116298 69.0418381 -30.18994141 63.13793945 C-31.51045631 58.74553954 -31.40343013 54.47768051 -31.4140625 49.9140625 C-31.4207193 48.91909256 -31.4273761 47.92412262 -31.43423462 46.89900208 C-31.44434398 44.79686324 -31.44905217 42.69469242 -31.44873047 40.5925293 C-31.45309577 37.39252203 -31.48941261 34.19390337 -31.52734375 30.99414062 C-31.53321399 28.94661927 -31.537182 26.8990914 -31.5390625 24.8515625 C-31.56061905 23.42773506 -31.56061905 23.42773506 -31.58261108 21.97514343 C-31.53449853 14.90507812 -30.00055209 9.57020948 -25.33203125 4.16015625 C-17.52410787 -2.07896959 -9.54057658 -3.98796101 0 0 Z " fill="#FCE896" transform="translate(314.078125,16.81640625)"/>
<path d="M0 0 C6.85115767 3.1260035 10.86551024 8.37178371 13.6796875 15.3125 C14.12822704 18.67300741 14.14769758 22.00362547 14.1484375 25.390625 C14.15985779 26.8405484 14.15985779 26.8405484 14.17150879 28.31976318 C14.18228625 30.36044746 14.18517249 32.40118678 14.18066406 34.44189453 C14.17969484 37.53904063 14.2212796 40.63368182 14.265625 43.73046875 C14.27083515 45.72134905 14.27352014 47.71223788 14.2734375 49.703125 C14.2980304 51.07395233 14.2980304 51.07395233 14.32312012 52.47247314 C14.24531067 59.83759187 12.1855121 66.38064345 7.20153809 71.97027588 C1.81123732 76.7243508 -3.48329066 77.82721769 -10.46484375 77.6953125 C-16.33417811 76.90845235 -20.63702651 73.99578599 -24.7578125 69.875 C-28.5646829 63.63173254 -28.62771178 57.75984962 -28.62109375 50.65625 C-28.62537888 49.63575562 -28.629664 48.61526123 -28.63407898 47.56384277 C-28.63980669 45.41219828 -28.64033407 43.26053444 -28.63598633 41.10888672 C-28.63282315 37.82355683 -28.65631676 34.53912517 -28.68164062 31.25390625 C-28.6839135 29.1588553 -28.68461717 27.06380193 -28.68359375 24.96875 C-28.6928035 23.99047241 -28.70201324 23.01219482 -28.71150208 22.00427246 C-28.66841674 15.63251934 -27.91928522 11.10893061 -23.41796875 6.265625 C-22.74636719 5.70359375 -22.07476562 5.1415625 -21.3828125 4.5625 C-20.71378906 3.99015625 -20.04476562 3.4178125 -19.35546875 2.828125 C-13.51177499 -1.52380049 -7.00097321 -2.07436243 0 0 Z " fill="#FBE695" transform="translate(119.3203125,15.6875)"/>
<path d="M0 0 C5.19048612 2.59064971 8.59303611 6.33016471 11.3034668 11.41308594 C12.68747545 15.83534519 12.57519966 20.09814266 12.5859375 24.70703125 C12.5925943 25.70200119 12.5992511 26.69697113 12.60610962 27.72209167 C12.61621898 29.82423051 12.62092717 31.92640133 12.62060547 34.02856445 C12.62497077 37.22857172 12.66128761 40.42719038 12.69921875 43.62695312 C12.70508899 45.67447448 12.709057 47.72200235 12.7109375 49.76953125 C12.72530853 50.71874954 12.73967957 51.66796783 12.75448608 52.64595032 C12.70637353 59.71601563 11.17242709 65.05088427 6.50390625 70.4609375 C5.94574219 70.90695313 5.38757813 71.35296875 4.8125 71.8125 C3.97912109 72.50472656 3.97912109 72.50472656 3.12890625 73.2109375 C-2.50975256 76.89189149 -8.18757927 77.33028375 -14.75 76.4375 C-21.0503422 73.96198612 -25.64048375 69.30053714 -28.85961914 63.40551758 C-30.19788109 58.9445221 -30.09565938 54.58374265 -30.12109375 49.94921875 C-30.13012222 48.93205276 -30.1391507 47.91488678 -30.14845276 46.86689758 C-30.16293874 44.7176914 -30.17183788 42.56844127 -30.17553711 40.41918945 C-30.1874218 37.14653434 -30.23661538 33.87577251 -30.28710938 30.60351562 C-30.29657575 28.51042582 -30.30380976 26.41732449 -30.30859375 24.32421875 C-30.32812607 23.35312668 -30.34765839 22.38203461 -30.36778259 21.3815155 C-30.31966813 14.06480799 -28.42633882 9.13740866 -23.23631287 3.91410828 C-16.16539876 -2.2564926 -8.80088314 -3.46972212 0 0 Z " fill="#FDE896" transform="translate(216.75,16.5625)"/>
<path d="M0 0 C5.2639909 2.98506801 9.89039766 7.73369298 11.8125 13.5 C11.92331269 14.99605922 11.9812018 16.49637507 12.00537109 17.99633789 C12.02143402 18.90480972 12.03749695 19.81328156 12.05404663 20.74928284 C12.09876567 24.91870222 12.13959723 29.0879646 12.16259766 33.25756836 C12.1791056 35.44843201 12.20632671 37.63924297 12.24462891 39.82983398 C12.29977623 43.00272322 12.32133379 46.17435036 12.3359375 49.34765625 C12.35860687 50.31469986 12.38127625 51.28174347 12.40463257 52.27809143 C12.38335045 59.22670189 10.85865903 64.76682061 6.8125 70.5 C1.13288139 75.19915587 -4.23593513 76.87336237 -11.5546875 76.77734375 C-17.2481121 76.17759131 -20.97158293 73.68889669 -25 69.75 C-29.70048711 62.76641915 -30.65439708 56.62455386 -30.65625 48.41015625 C-30.66386353 47.46619492 -30.67147705 46.52223358 -30.67932129 45.54966736 C-30.69007163 43.56381866 -30.69299615 41.57791367 -30.68847656 39.59204102 C-30.68750373 36.57406352 -30.7291946 33.55862733 -30.7734375 30.54101562 C-30.77864523 28.60156774 -30.78133268 26.66211112 -30.78125 24.72265625 C-30.79764526 23.83175797 -30.81404053 22.94085968 -30.83093262 22.02296448 C-30.74948527 14.54457317 -28.35093663 8.69819967 -23.0546875 3.34375 C-22.39726562 2.9003125 -21.73984375 2.456875 -21.0625 2 C-20.39992188 1.5359375 -19.73734375 1.071875 -19.0546875 0.59375 C-13.37130476 -2.73542817 -5.95084939 -2.63836487 0 0 Z " fill="#FCE796" transform="translate(409.1875,16.5)"/>
<path d="M0 0 C3.76726509 1.77200988 6.49082946 3.53473281 8.609375 7.2421875 C7.949375 7.2421875 7.289375 7.2421875 6.609375 7.2421875 C6.21878906 8.11810547 6.21878906 8.11810547 5.8203125 9.01171875 C4.5287044 11.39077754 3.10810661 12.98084851 1.234375 14.9296875 C-7.60313384 24.69746043 -14.89455974 35.93524634 -21.44897461 47.33251953 C-23.51037786 50.90000515 -25.78830941 54.05421565 -28.390625 57.2421875 C-28.46495154 51.22821741 -28.51931088 45.21451654 -28.55541992 39.20019531 C-28.57047788 37.15555156 -28.59092857 35.11093995 -28.61694336 33.06640625 C-28.65345811 30.12231498 -28.67038151 27.17865193 -28.68359375 24.234375 C-28.70681953 22.8699678 -28.70681953 22.8699678 -28.73051453 21.47799683 C-28.73214724 15.2781104 -27.860983 10.90023183 -23.48828125 6.1953125 C-22.81667969 5.63328125 -22.14507812 5.07125 -21.453125 4.4921875 C-20.78410156 3.91984375 -20.11507812 3.3475 -19.42578125 2.7578125 C-13.58375254 -1.59287299 -6.97606855 -2.21136813 0 0 Z " fill="#FDDB54" transform="translate(119.390625,15.7578125)"/>
<path d="M0 0 C3.13874824 0.62774965 4.17538694 1.23653178 6.625 3.125 C9.01579147 4.96003732 10.08694144 5.61707113 13.125 6.25 C16.7180038 5.50145754 18.5414543 3.96033258 21.3984375 1.7578125 C23.125 0.625 23.125 0.625 26.25 0 C30.24318727 0.86808419 31.76006769 2.32842768 34.125 5.625 C34.28523148 9.47055558 33.4988891 11.13050152 31.1875 14.1875 C24.98581949 19.12353143 18.74512646 22.55977075 10.64453125 22.11328125 C3.8337323 20.79335897 -2.67474576 17.18017496 -6.875 11.625 C-8 8.625 -8 8.625 -7.875 5.625 C-5.51006769 2.32842768 -3.99318727 0.86808419 0 0 Z " fill="#060603" transform="translate(242.875,327.375)"/>
<path d="M0 0 C3.26378961 0.95219966 4.29063376 2.74742384 6.03515625 5.59375 C7.06588447 11.73546849 7.2735687 17.62685964 3.91015625 22.96875 C0.52286846 24.88330397 -1.14147999 25.32588349 -4.96484375 24.59375 C-7.35622676 22.93017921 -8.75881419 21.64555627 -9.33178711 18.72045898 C-9.46774895 16.47747413 -9.46110395 14.27740619 -9.40234375 12.03125 C-9.40943359 11.26361328 -9.41652344 10.49597656 -9.42382812 9.70507812 C-9.36156798 4.21181732 -9.36156798 4.21181732 -7.68359375 1.59765625 C-5.24078067 0.17083134 -2.78071999 0.12858821 0 0 Z " fill="#070704" transform="translate(207.96484375,318.40625)"/>
<path d="M0 0 C5.37520786 0.24856453 5.37520786 0.24856453 7.6796875 1.59765625 C9.76397391 4.83495217 9.47735985 8.3045801 9.46484375 12.03125 C9.49320312 12.79501953 9.5215625 13.55878906 9.55078125 14.34570312 C9.56496939 18.42124507 9.48957129 20.0165497 6.66015625 23.12890625 C3.96484375 24.59375 3.96484375 24.59375 0.33984375 24.59375 C-3.47751784 23.4626799 -4.15175491 22.9861079 -6.03515625 19.59375 C-6.46875 16.31640625 -6.46875 16.31640625 -6.47265625 12.65625 C-6.49199219 11.45097656 -6.51132812 10.24570312 -6.53125 9.00390625 C-5.90151425 4.67509276 -4.46416855 1.30240618 0 0 Z " fill="#070604" transform="translate(304.03515625,318.40625)"/>
</svg>
