<?xml version="1.0" encoding="UTF-8"?>
<svg version="1.1" xmlns="http://www.w3.org/2000/svg" width="512" height="512">
<path d="M0 0 C1.51427582 0.00081573 1.51427582 0.00081573 3.05914307 0.00164795 C19.57458953 0.04242844 35.47683935 0.97005679 51.6875 4.375 C52.70279785 4.58398926 53.7180957 4.79297852 54.76416016 5.00830078 C96.07616685 13.78619811 134.7080226 32.78886934 166.6875 60.375 C167.43257813 61.00921875 168.17765625 61.6434375 168.9453125 62.296875 C182.45029833 74.10801515 195.12168743 86.85860228 205.6875 101.375 C206.54399066 102.52494831 207.40076433 103.67468589 208.2578125 104.82421875 C214.2984414 113.01589526 219.65755071 121.53145078 224.6875 130.375 C225.05198242 131.00680176 225.41646484 131.63860352 225.79199219 132.28955078 C247.32231855 169.90586237 257.15009735 212.62765288 257.0625 255.6875 C257.06168427 257.20177582 257.06168427 257.20177582 257.06085205 258.74664307 C257.02008601 275.25623539 256.11279309 291.17282001 252.6875 307.375 C252.46787598 308.41688477 252.24825195 309.45876953 252.02197266 310.53222656 C241.92435215 356.82549311 219.56521242 399.23913721 186.6875 433.375 C186.05537598 434.03435547 185.42325195 434.69371094 184.77197266 435.37304688 C175.62752521 444.86130305 166.33015991 453.6012044 155.6875 461.375 C154.53644983 462.23306152 153.38540823 463.09113451 152.234375 463.94921875 C144.04474019 469.98677396 135.54211724 475.36957302 126.6875 480.375 C125.98028809 480.7771875 125.27307617 481.179375 124.54443359 481.59375 C98.34109344 496.34645525 69.40145458 505.87991108 39.6875 510.375 C38.56287354 510.55232666 37.43824707 510.72965332 36.27954102 510.91235352 C24.72559556 512.56375708 13.28284453 512.73170897 1.625 512.6875 C0.62893738 512.68567719 -0.36712524 512.68385437 -1.39337158 512.68197632 C-15.90580287 512.63723255 -30.03559519 512.17969043 -44.3125 509.375 C-45.20807617 509.21402832 -46.10365234 509.05305664 -47.02636719 508.88720703 C-95.71595832 500.07840196 -140.74129928 476.6351479 -176.3125 442.375 C-176.97185547 441.74287598 -177.63121094 441.11075195 -178.31054688 440.45947266 C-187.79880305 431.31502521 -196.5387044 422.01765991 -204.3125 411.375 C-205.17056152 410.22394983 -206.02863451 409.07290823 -206.88671875 407.921875 C-212.92486829 399.73069386 -218.28345521 391.21695895 -223.3125 382.375 C-223.67698242 381.74319824 -224.04146484 381.11139648 -224.41699219 380.46044922 C-239.34835402 354.37339649 -248.82170268 325.03999753 -253.3125 295.375 C-253.48982666 294.25617432 -253.66715332 293.13734863 -253.84985352 291.98461914 C-255.53126341 280.26264053 -255.66984341 268.64001024 -255.625 256.8125 C-255.62176727 255.28189438 -255.62176727 255.28189438 -255.61846924 253.72036743 C-255.56883352 239.09289476 -255.32169712 224.74236162 -252.3125 210.375 C-252.11382324 209.40014648 -251.91514648 208.42529297 -251.71044922 207.42089844 C-241.58982806 159.0390226 -219.6733123 115.05071731 -185.3125 79.375 C-184.68037598 78.71564453 -184.04825195 78.05628906 -183.39697266 77.37695312 C-174.25252521 67.88869695 -164.95515991 59.1487956 -154.3125 51.375 C-153.16144983 50.51693848 -152.01040823 49.65886549 -150.859375 48.80078125 C-142.66974019 42.76322604 -134.16711724 37.38042698 -125.3125 32.375 C-124.60528809 31.9728125 -123.89807617 31.570625 -123.16943359 31.15625 C-100.03404164 18.1308259 -74.86287591 9.38198539 -48.875 4.0625 C-48.15610596 3.91514404 -47.43721191 3.76778809 -46.6965332 3.6159668 C-31.16987908 0.66484793 -15.76936592 -0.03207988 0 0 Z " fill="#58BF93" transform="translate(255.3125,-0.375)"/>
<path d="M0 0 C1.53206507 0.48567949 3.06903216 0.95595208 4.60839844 1.41796875 C31.84956727 9.61350539 56.72990104 22.01884397 79.06396484 39.65429688 C79.95212891 40.34910156 80.84029297 41.04390625 81.75537109 41.75976562 C92.26224121 50.15608541 102.56213783 59.19863384 111.06396484 69.65429688 C112.0358627 70.80337626 113.00860676 71.95174016 113.98193359 73.09960938 C139.0615192 102.95839917 156.42823692 139.17229988 163.06396484 177.65429688 C163.27134277 178.84418213 163.27134277 178.84418213 163.48291016 180.05810547 C163.92691501 182.67051775 164.34295562 185.28611313 164.75146484 187.90429688 C164.88302979 188.68812744 165.01459473 189.47195801 165.15014648 190.27954102 C166.52356477 199.55911971 166.06396484 207.97045407 166.06396484 217.65429688 C95.11396484 217.65429688 24.16396484 217.65429688 -48.93603516 217.65429688 C-47.97587684 213.81366362 -47.04557848 212.07429623 -44.81103516 208.92382812 C-43.87517578 207.59641602 -43.87517578 207.59641602 -42.92041016 206.2421875 C-42.26556641 205.32630859 -41.61072266 204.41042969 -40.93603516 203.46679688 C-40.28119141 202.53931641 -39.62634766 201.61183594 -38.95166016 200.65625 C-34.13269869 193.85096041 -34.13269869 193.85096041 -32.93603516 192.65429688 C-31.58774778 192.49923726 -30.23270567 192.40205813 -28.87744141 192.33007812 C-5.22350395 190.7864087 15.72549111 182.87523008 34.06396484 167.65429688 C35.35560547 166.60822266 35.35560547 166.60822266 36.67333984 165.54101562 C57.52212631 147.83249669 70.20245922 120.57312403 73.06396484 93.65429688 C74.20694556 78.86557699 75.25837589 59.22065597 65.12646484 47.15429688 C60.22233954 42.24042182 55.64320923 41.34841878 48.81396484 41.27929688 C22.35846642 41.42307676 -2.56016959 55.27843131 -20.93603516 73.65429688 C-42.86752792 97.35189916 -52.01911652 127.32195656 -51.08544922 159.09619141 C-50.69462378 165.78748061 -50.00864556 173.87073963 -46.77197266 179.77929688 C-45.53108368 182.56259926 -45.92953092 183.76518147 -46.93603516 186.65429688 C-48.5922968 189.53846384 -50.46115936 192.24767551 -52.37353516 194.96679688 C-52.87691406 195.70736328 -53.38029297 196.44792969 -53.89892578 197.2109375 C-56.70234073 201.25038666 -56.70234073 201.25038666 -57.93603516 202.65429688 C-58.59603516 202.65429688 -59.25603516 202.65429688 -59.93603516 202.65429688 C-62.24152527 200.1415764 -64.14261253 197.30122082 -66.12353516 194.52929688 C-66.69523438 193.76875 -67.26693359 193.00820312 -67.85595703 192.22460938 C-71.9477665 186.51281758 -71.9477665 186.51281758 -71.89306641 182.50976562 C-71.57724609 181.56746094 -71.26142578 180.62515625 -70.93603516 179.65429688 C-70.58025391 178.04361328 -70.58025391 178.04361328 -70.21728516 176.40039062 C-69.95947266 175.30855469 -69.70166016 174.21671875 -69.43603516 173.09179688 C-68.930826 170.947184 -68.43049032 168.80141466 -67.93603516 166.65429688 C-67.74654297 165.90277344 -67.55705078 165.15125 -67.36181641 164.37695312 C-63.18814867 137.68845391 -71.00922982 109.53116604 -86.10009766 87.49414062 C-88.31229175 84.48753319 -90.59237376 81.55928976 -92.93603516 78.65429688 C-93.85642578 77.48447266 -93.85642578 77.48447266 -94.79541016 76.29101562 C-109.51465083 58.5838949 -131.5891532 47.08943514 -153.81103516 42.27929688 C-154.58342529 42.11139648 -155.35581543 41.94349609 -156.15161133 41.77050781 C-163.967425 40.21824112 -171.04807009 39.43062382 -178.15087891 43.45507812 C-185.66040374 48.49976987 -188.29689812 55.41848817 -190.00292969 64.00024414 C-192.63052186 79.08476821 -191.69353178 94.86830365 -187.93603516 109.65429688 C-187.66919922 110.73324219 -187.40236328 111.8121875 -187.12744141 112.92382812 C-182.92936955 128.0555449 -175.62813764 141.3979846 -165.93603516 153.65429688 C-165.25154297 154.53472656 -164.56705078 155.41515625 -163.86181641 156.32226562 C-149.67916973 173.31442707 -127.50522967 186.1034505 -105.93603516 190.65429688 C-102.23048015 190.98445033 -98.52882721 191.05462685 -94.81103516 191.15429688 C-89.27465463 191.36670814 -85.29232365 191.69760956 -81.35009766 195.85351562 C-78.90790074 198.95540874 -76.90867677 202.241171 -75.04150391 205.71435547 C-73.87911444 207.75418469 -72.56385989 209.57877868 -71.15478516 211.45507812 C-68.93603516 214.65429688 -68.93603516 214.65429688 -68.93603516 217.65429688 C-139.88603516 217.65429688 -210.83603516 217.65429688 -283.93603516 217.65429688 C-283.93603516 197.73185712 -283.93603516 197.73185712 -283.18603516 191.27929688 C-283.09805664 190.49804443 -283.01007813 189.71679199 -282.91943359 188.91186523 C-276.33969502 134.62902196 -247.81597783 81.89327721 -205.93603516 46.65429688 C-205.40171875 46.20231934 -204.86740234 45.7503418 -204.31689453 45.28466797 C-149.68684909 -0.62357728 -69.37198031 -22.07712633 0 0 Z " fill="#DAECFE" transform="translate(314.93603515625,38.345703125)"/>
<path d="M0 0 C2.13866764 0.01005974 4.27733991 0.01918024 6.41601562 0.02734375 C11.58996086 0.04909732 16.76367737 0.08345859 21.9375 0.125 C18.86704988 2.17196674 17.77166433 2.44048165 14.23828125 2.765625 C13.28864502 2.86327148 12.33900879 2.96091797 11.3605957 3.06152344 C9.82085083 3.21669434 9.82085083 3.21669434 8.25 3.375 C-42.3817259 9.13963893 -90.1647291 32.68802296 -127.609375 66.89453125 C-130.00179858 69.06980811 -132.43464273 71.19132853 -134.875 73.3125 C-138.30525165 76.34695338 -141.13615595 79.59838025 -144.0625 83.125 C-145.87713395 84.80845559 -147.75057496 86.41141027 -149.62890625 88.0234375 C-158.63535475 95.80107681 -166.76004769 103.68151455 -174.0625 113.125 C-174.9414049 114.20654964 -175.82303892 115.28588578 -176.70703125 116.36328125 C-198.48190659 143.09379142 -213.54656691 175.13157213 -220.57788086 208.83544922 C-221.06120069 211.11886151 -221.59242476 213.38780247 -222.125 215.66015625 C-223.11804454 220.12569101 -223.68046699 224.57549745 -224.125 229.125 C-224.20733887 229.93300049 -224.28967773 230.74100098 -224.37451172 231.57348633 C-225.17759205 239.74343726 -225.66360348 247.92662669 -226.0625 256.125 C-221.4425 256.125 -216.8225 256.125 -212.0625 256.125 C-211.97613281 257.95417969 -211.88976562 259.78335937 -211.80078125 261.66796875 C-210.46552674 286.75263698 -207.28778001 311.2731168 -199.0625 335.125 C-198.62381592 336.43210937 -198.62381592 336.43210937 -198.17626953 337.765625 C-193.82087959 350.67731567 -188.83977707 363.33057502 -182.45737463 375.39084077 C-181.0625 378.125 -181.0625 378.125 -179.77773231 381.18545127 C-176.81970145 387.57686225 -176.81970145 387.57686225 -171.10945427 391.23307848 C-167.33195577 391.65913678 -163.64816432 391.69617318 -159.85743713 391.60601807 C-158.39942421 391.61538772 -156.94143726 391.63002558 -155.48352379 391.64946246 C-151.48469006 391.68757794 -147.48949766 391.65111062 -143.49090827 391.60233045 C-139.17662407 391.56280664 -134.86275075 391.59261679 -130.54841614 391.6139679 C-123.07634048 391.64147474 -115.6053943 391.62514223 -108.13342476 391.5789566 C-97.33046497 391.512245 -86.52829916 391.51176743 -75.72518181 391.52740797 C-58.19784362 391.55098713 -40.67102172 391.52106882 -23.14379883 391.45751953 C-6.11868793 391.39590531 10.90616984 391.35947898 27.93139648 391.35693359 C28.98097986 391.35676791 30.03056324 391.35660222 31.11195218 391.35643151 C36.37745085 391.35575572 41.64294939 391.35557518 46.9084481 391.35564089 C90.58504348 391.35554524 134.26115667 391.2686338 177.9375 391.125 C171.317376 404.75456248 157.62711801 417.70721588 145.9375 427.125 C144.88749688 428.00979526 143.838075 428.8952805 142.7890625 429.78125 C121.22125047 447.76476884 96.39918009 460.9430897 69.9375 470.125 C69.23850586 470.37475586 68.53951172 470.62451172 67.81933594 470.88183594 C57.03496903 474.71025964 46.02848944 476.85280277 34.74414062 478.66650391 C32.82756556 478.97959785 30.91473606 479.31629978 29.00585938 479.67333984 C19.58165747 481.3372173 10.34833725 481.43906194 0.8125 481.375 C-0.00675964 481.37189819 -0.82601929 481.36879639 -1.67010498 481.36560059 C-13.54969749 481.31280111 -25.32711515 481.15204606 -37.0625 479.125 C-37.8148291 478.99609375 -38.5671582 478.8671875 -39.34228516 478.734375 C-72.6166557 472.79816683 -103.37509502 459.37717408 -131.0625 440.125 C-132.87202108 438.91221017 -134.68403155 437.7031144 -136.5 436.5 C-137.6875 435.70833333 -138.875 434.91666667 -140.0625 434.125 C-134.92898324 439.38139349 -129.69833351 444.41023313 -124.0625 449.125 C-123.57491211 449.5370166 -123.08732422 449.9490332 -122.58496094 450.37353516 C-99.98296293 469.36709632 -74.58570819 484.46980889 -47.0625 495.125 C-45.91265625 495.58261719 -44.7628125 496.04023438 -43.578125 496.51171875 C-25.6983562 503.29148754 -6.63015128 507.7506312 12.40820312 509.3359375 C13.21064453 509.41070312 14.01308594 509.48546875 14.83984375 509.5625 C15.55648193 509.62308594 16.27312012 509.68367188 17.01147461 509.74609375 C18.9375 510.125 18.9375 510.125 21.9375 512.125 C-27.60336924 512.75128652 -27.60336924 512.75128652 -46.0625 509.125 C-46.95807617 508.96402832 -47.85365234 508.80305664 -48.77636719 508.63720703 C-97.46595832 499.82840196 -142.49129928 476.3851479 -178.0625 442.125 C-178.72185547 441.49287598 -179.38121094 440.86075195 -180.06054688 440.20947266 C-189.54880305 431.06502521 -198.2887044 421.76765991 -206.0625 411.125 C-206.92056152 409.97394983 -207.77863451 408.82290823 -208.63671875 407.671875 C-214.67486829 399.48069386 -220.03345521 390.96695895 -225.0625 382.125 C-225.42698242 381.49319824 -225.79146484 380.86139648 -226.16699219 380.21044922 C-241.09835402 354.12339649 -250.57170268 324.78999753 -255.0625 295.125 C-255.23982666 294.00617432 -255.41715332 292.88734863 -255.59985352 291.73461914 C-257.28126341 280.01264053 -257.41984341 268.39001024 -257.375 256.5625 C-257.37176727 255.03189438 -257.37176727 255.03189438 -257.36846924 253.47036743 C-257.31883352 238.84289476 -257.07169712 224.49236162 -254.0625 210.125 C-253.86382324 209.15014648 -253.66514648 208.17529297 -253.46044922 207.17089844 C-243.33982806 158.7890226 -221.4233123 114.80071731 -187.0625 79.125 C-186.43037598 78.46564453 -185.79825195 77.80628906 -185.14697266 77.12695312 C-176.00252521 67.63869695 -166.70515991 58.8987956 -156.0625 51.125 C-154.91144983 50.26693848 -153.76040823 49.40886549 -152.609375 48.55078125 C-144.41974019 42.51322604 -135.91711724 37.13042698 -127.0625 32.125 C-126.35528809 31.7228125 -125.64807617 31.320625 -124.91943359 30.90625 C-101.78404164 17.8808259 -76.61287591 9.13198539 -50.625 3.8125 C-49.90610596 3.66514404 -49.18721191 3.51778809 -48.4465332 3.3659668 C-45.99110494 2.89926865 -43.53340353 2.50198694 -41.0625 2.125 C-39.8964624 1.94549805 -38.7304248 1.76599609 -37.52905273 1.58105469 C-25.03012562 -0.18706689 -12.59980243 -0.10428508 0 0 Z " fill="#1FB580" transform="translate(257.0625,-0.125)"/>
<path d="M0 0 C115.83 0 231.66 0 351 0 C344.18653787 13.62692426 330.77713437 26.511708 319 36 C317.94999688 36.88479526 316.900575 37.7702805 315.8515625 38.65625 C294.28375047 56.63976884 269.46168009 69.8180897 243 79 C242.30100586 79.24975586 241.60201172 79.49951172 240.88183594 79.75683594 C226.17201576 84.97878589 210.7481265 87.36633468 195.3125 89.375 C194.26171265 89.52038208 194.26171265 89.52038208 193.18969727 89.66870117 C189.41417337 90.11318609 188.28329105 90.1888607 185 88 C182.92916128 87.65090039 182.92916128 87.65090039 180.625 87.5625 C169.36869042 86.60278574 158.59439146 83.14447861 147.9140625 79.62646484 C146.19776046 79.06472619 144.47427597 78.52504504 142.75 77.98828125 C125.7628567 72.38835288 108.75723944 64.10960279 94 54 C93.43812988 53.61634277 92.87625977 53.23268555 92.29736328 52.83740234 C50.28484415 23.97881651 50.28484415 23.97881651 43.07226562 7.93652344 C41.63925613 5.17496911 40.57561352 3.79412956 38 2 C31.72756154 0.47222852 25.03205147 0.92665015 18.625 1 C16.82159468 0.99190427 15.01820166 0.9802235 13.21484375 0.96484375 C8.80895617 0.93506201 4.40572562 0.95435138 0 1 C0 0.67 0 0.34 0 0 Z " fill="#1FB580" transform="translate(84,391)"/>
<path d="M0 0 C1.53587769 0.26345215 1.53587769 0.26345215 3.1027832 0.53222656 C47.19197612 8.51368843 88.8848995 28.17087976 122.8125 57.4375 C123.55757813 58.07171875 124.30265625 58.7059375 125.0703125 59.359375 C138.57529833 71.17051515 151.24668743 83.92110228 161.8125 98.4375 C162.66899066 99.58744831 163.52576433 100.73718589 164.3828125 101.88671875 C170.4234414 110.07839526 175.78255071 118.59395078 180.8125 127.4375 C181.17698242 128.06930176 181.54146484 128.70110352 181.91699219 129.35205078 C196.69478768 155.17080292 206.00209364 184.14858516 210.8125 213.4375 C210.92964355 214.14358398 211.04678711 214.84966797 211.16748047 215.57714844 C213.16893103 228.19253223 212.96526504 240.68161933 212.8125 253.4375 C202.5825 253.4375 192.3525 253.4375 181.8125 253.4375 C181.73 250.859375 181.6475 248.28125 181.5625 245.625 C178.72713431 185.37481909 152.89812808 130.28046258 109.74609375 88.43359375 C107.81468812 86.70242024 105.83044654 85.06724539 103.8125 83.4375 C102.73800952 82.53938749 101.66381995 81.64091493 100.58984375 80.7421875 C77.97820795 62.02007007 52.53459445 48.91139627 24.8125 39.4375 C24.12945801 39.20063477 23.44641602 38.96376953 22.74267578 38.71972656 C14.94645442 36.04420034 7.02789356 34.22160334 -1.08837891 32.80957031 C-2.50190096 32.55902279 -3.91310461 32.29506835 -5.32177734 32.01855469 C-52.64059606 22.80235918 -105.02600223 31.57337071 -147.1875 54.4375 C-147.83348145 54.77861816 -148.47946289 55.11973633 -149.14501953 55.47119141 C-159.5712133 60.98067652 -169.15092335 67.3918574 -178.65380859 74.36523438 C-180.1875 75.4375 -180.1875 75.4375 -182.1875 76.4375 C-180.89885159 73.58896935 -179.57540071 71.58854931 -177.30859375 69.44140625 C-176.7261792 68.88952637 -176.14376465 68.33764648 -175.54370117 67.76904297 C-174.59394409 66.8933667 -174.59394409 66.8933667 -173.625 66 C-172.96024658 65.38527832 -172.29549316 64.77055664 -171.6105957 64.13720703 C-142.15331753 37.32665552 -105.63430508 16.2188663 -66.9375 6.375 C-65.93315918 6.11750977 -64.92881836 5.86001953 -63.89404297 5.59472656 C-42.84760233 0.264718 -21.65078632 -3.7493409 0 0 Z " fill="#99D6BA" transform="translate(299.1875,2.5625)"/>
<path d="M0 0 C25.49481168 12.91452825 45.14093144 35.34760972 55.16015625 62.09423828 C56.84660278 67.3491806 58.02043539 72.69917774 59.16015625 78.09423828 C59.38574219 78.97853516 59.61132812 79.86283203 59.84375 80.77392578 C63.20058575 95.26619596 63.51573276 116.48200092 56.6796875 130.02783203 C56.17824219 130.70974609 55.67679687 131.39166016 55.16015625 132.09423828 C54.50015625 132.09423828 53.84015625 132.09423828 53.16015625 132.09423828 C51.44854773 129.81516099 49.85617704 127.53067653 48.28515625 125.15673828 C47.28488648 123.67296892 46.28355001 122.1899182 45.28125 120.70751953 C44.7641748 119.94004395 44.24709961 119.17256836 43.71435547 118.38183594 C41.30540181 114.83614072 38.82868554 111.33970712 36.34765625 107.84423828 C31.9754432 101.66927116 27.62203445 95.48157804 23.28515625 89.28173828 C22.70016357 88.44545898 22.1151709 87.60917969 21.51245117 86.74755859 C20.32234218 85.04595873 19.1323197 83.34429835 17.94238281 81.64257812 C14.44172766 76.63712081 10.93822612 71.63365517 7.43481445 66.63012695 C4.37896678 62.26543038 1.32492752 57.89948278 -1.7265625 53.53173828 C-2.36271484 52.62166016 -2.99886719 51.71158203 -3.65429688 50.77392578 C-4.87360033 49.02952084 -6.09237781 47.28474809 -7.31054688 45.53955078 C-7.86033203 44.75322266 -8.41011719 43.96689453 -8.9765625 43.15673828 C-9.45826904 42.46708984 -9.93997559 41.77744141 -10.4362793 41.06689453 C-10.89945557 40.41591797 -11.36263184 39.76494141 -11.83984375 39.09423828 C-12.35393799 38.36068115 -12.86803223 37.62712402 -13.39770508 36.87133789 C-14.68036933 34.93002267 -14.68036933 34.93002267 -16.77734375 34.59814453 C-20.98719817 34.69060198 -20.98719817 34.69060198 -24.83984375 36.21923828 C-26.38069013 39.10832524 -26.23618774 40.81879169 -25.83984375 44.09423828 C-24.25975206 47.17936343 -22.24976121 49.91959739 -20.21484375 52.71923828 C-19.63017334 53.5475415 -19.04550293 54.37584473 -18.44311523 55.22924805 C-17.20681391 56.97909752 -15.96473334 58.72487633 -14.71728516 60.46679688 C-12.32776005 63.81088909 -9.97869259 67.1822758 -7.62939453 70.5546875 C-5.88287828 73.05965695 -4.12999314 75.56004543 -2.375 78.05908203 C1.14198529 83.06712154 4.65164565 88.08025945 8.16015625 93.09423828 C9.32419693 94.75701397 10.48825945 96.41977438 11.65234375 98.08251953 C14.01263749 101.4542736 16.37190535 104.82674238 18.73046875 108.19970703 C19.61387939 109.46258545 19.61387939 109.46258545 20.51513672 110.75097656 C21.68396195 112.42215481 22.8522666 114.09369729 24.02001953 115.765625 C26.89547436 119.87820362 29.78609831 123.97865168 32.70703125 128.05908203 C33.2676123 128.84452393 33.82819336 129.62996582 34.40576172 130.43920898 C35.46848732 131.92629235 36.53504594 133.41064617 37.60595703 134.8918457 C41.16015625 139.87150957 41.16015625 139.87150957 41.16015625 142.09423828 C15.50380285 143.53740816 -7.54182151 132.42076575 -26.83984375 116.09423828 C-27.50242188 115.57732422 -28.165 115.06041016 -28.84765625 114.52783203 C-48.21851782 98.88213615 -60.08888969 73.24461172 -63.83984375 49.09423828 C-64.02160156 48.18544922 -64.20335938 47.27666016 -64.390625 46.34033203 C-66.03291967 34.47296791 -65.69018899 21.79590354 -63.15234375 10.09423828 C-63.00385986 9.38428711 -62.85537598 8.67433594 -62.70239258 7.94287109 C-61.24675617 2.00643703 -58.46921186 -2.75796286 -53.70703125 -6.64794922 C-53.04960937 -7.02177734 -52.3921875 -7.39560547 -51.71484375 -7.78076172 C-50.72097656 -8.36470703 -50.72097656 -8.36470703 -49.70703125 -8.96044922 C-35.39378985 -16.20690198 -13.09964563 -6.3110857 0 0 Z " fill="#58BF93" transform="translate(187.83984375,88.90576171875)"/>
<path d="M0 0 C0.67426025 -0.01788574 1.34852051 -0.03577148 2.04321289 -0.05419922 C8.61726473 -0.04280712 13.28100838 2.2717088 17.875 6.875 C27.9664235 18.91897862 26.87007357 38.57403199 25.75 53.3125 C23.39270272 76.48849738 13.82853099 97.62816462 -1.25 115.3125 C-1.84167969 116.04984375 -2.43335938 116.7871875 -3.04296875 117.546875 C-18.25164096 135.8361951 -42.72979193 149.27571364 -66.25 152.3125 C-68.70754141 152.37828002 -71.16668778 152.39819162 -73.625 152.375 C-74.87023437 152.36597656 -76.11546875 152.35695312 -77.3984375 152.34765625 C-78.80996094 152.33025391 -78.80996094 152.33025391 -80.25 152.3125 C-78.61878983 147.17570774 -75.48539287 143.27093897 -72.3125 139 C-71.12352981 137.37737834 -69.93605441 135.75366042 -68.75 134.12890625 C-68.15703125 133.31695801 -67.5640625 132.50500977 -66.953125 131.66845703 C-64.51565901 128.29667567 -62.15612748 124.87490798 -59.8125 121.4375 C-53.96390074 112.87248463 -48.01320617 104.38064642 -42.05712891 95.89013672 C-40.2588917 93.32518287 -38.46299744 90.75860634 -36.66796875 88.19140625 C-35.48699746 86.50259138 -34.30600804 84.81378918 -33.125 83.125 C-32.55201172 82.30563965 -31.97902344 81.4862793 -31.38867188 80.64208984 C-28.51532235 76.5367224 -25.6341715 72.43716113 -22.73828125 68.34765625 C-22.18221191 67.56221436 -21.62614258 66.77677246 -21.05322266 65.9675293 C-20.0008008 64.48240272 -18.94715104 62.99814528 -17.89208984 61.51489258 C-13.62487615 55.49721284 -13.62487615 55.49721284 -13.25 48.3125 C-14.12129307 46.27367905 -14.12129307 46.27367905 -16.25 45.3125 C-19.28598192 44.94119286 -21.3257014 44.70136866 -24.25 45.3125 C-26.49007391 47.4564334 -27.81682277 49.07080756 -29.4375 51.625 C-29.89471436 52.2950708 -30.35192871 52.9651416 -30.82299805 53.65551758 C-31.80861037 55.1053183 -32.78227785 56.5632967 -33.74511719 58.02832031 C-35.25325407 60.31743918 -36.79557135 62.57911939 -38.3515625 64.8359375 C-40.53170644 67.99925086 -42.70025413 71.16995629 -44.859375 74.34765625 C-52.98937078 86.28534169 -61.35821892 98.0605074 -69.69360352 109.85522461 C-73.72460585 115.56160597 -77.74067975 121.2783659 -81.75 127 C-82.3378125 127.83789062 -82.925625 128.67578125 -83.53125 129.5390625 C-86.48952255 133.76418788 -89.41144295 138.00596369 -92.25 142.3125 C-95.25 141.3125 -95.25 141.3125 -96.3359375 139.6875 C-104.77607692 117.75756509 -101.39919423 88.48280867 -92.25 67.3125 C-87.42247927 56.76301943 -81.65378303 47.25927809 -74.25 38.3125 C-73.22326172 37.04019531 -73.22326172 37.04019531 -72.17578125 35.7421875 C-54.6677316 15.09498662 -27.20497059 0.48706916 0 0 Z " fill="#58BF93" transform="translate(363.25,78.6875)"/>
<path d="M0 0 C2.13866764 0.01005974 4.27733991 0.01918024 6.41601562 0.02734375 C11.58996086 0.04909732 16.76367737 0.08345859 21.9375 0.125 C18.86704988 2.17196674 17.77166433 2.44048165 14.23828125 2.765625 C13.28864502 2.86327148 12.33900879 2.96091797 11.3605957 3.06152344 C9.82085083 3.21669434 9.82085083 3.21669434 8.25 3.375 C-42.3817259 9.13963893 -90.1647291 32.68802296 -127.609375 66.89453125 C-130.00179858 69.06980811 -132.43464273 71.19132853 -134.875 73.3125 C-138.30525165 76.34695338 -141.13615595 79.59838025 -144.0625 83.125 C-145.87713395 84.80845559 -147.75057496 86.41141027 -149.62890625 88.0234375 C-158.63535475 95.80107681 -166.76004769 103.68151455 -174.0625 113.125 C-174.9414049 114.20654964 -175.82303892 115.28588578 -176.70703125 116.36328125 C-198.48190659 143.09379142 -213.54656691 175.13157213 -220.57788086 208.83544922 C-221.06120069 211.11886151 -221.59242476 213.38780247 -222.125 215.66015625 C-223.11804454 220.12569101 -223.68046699 224.57549745 -224.125 229.125 C-224.20733887 229.93300049 -224.28967773 230.74100098 -224.37451172 231.57348633 C-225.17793315 239.7469073 -225.64191545 247.92360124 -226.0625 256.125 C-236.2925 256.125 -246.5225 256.125 -257.0625 256.125 C-258.2901142 190.24303783 -232.76323328 126.57458958 -187.0625 79.125 C-186.43037598 78.46564453 -185.79825195 77.80628906 -185.14697266 77.12695312 C-176.00252521 67.63869695 -166.70515991 58.8987956 -156.0625 51.125 C-154.91144983 50.26693848 -153.76040823 49.40886549 -152.609375 48.55078125 C-144.41974019 42.51322604 -135.91711724 37.13042698 -127.0625 32.125 C-126.35528809 31.7228125 -125.64807617 31.320625 -124.91943359 30.90625 C-101.78404164 17.8808259 -76.61287591 9.13198539 -50.625 3.8125 C-49.90610596 3.66514404 -49.18721191 3.51778809 -48.4465332 3.3659668 C-45.99110494 2.89926865 -43.53340353 2.50198694 -41.0625 2.125 C-39.8964624 1.94549805 -38.7304248 1.76599609 -37.52905273 1.58105469 C-25.03012562 -0.18706689 -12.59980243 -0.10428508 0 0 Z " fill="#58BF93" transform="translate(257.0625,-0.125)"/>
<path d="M0 0 C-2.74558028 2.74558028 -5.61945434 2.75666533 -9.3125 3.3125 C-42.91259504 8.8775835 -76.57476025 20.85308503 -103.765625 41.87890625 C-113.95991318 49.721079 -113.95991318 49.721079 -118.8125 49.125 C-120.21344564 48.7695749 -121.60959336 48.39464549 -123 48 C-129.6292985 47.27992103 -134.43810281 48.26367081 -140 52 C-146.00509185 57.07096645 -148.1775501 62.64691153 -149.625 70.25 C-149.75777344 70.91257812 -149.89054687 71.57515625 -150.02734375 72.2578125 C-150.72926327 75.90212192 -151.03723938 79.30088835 -151 83 C-151.47098906 88.64263362 -154.94018325 92.40854921 -158.29052734 96.71020508 C-186.68884792 133.46708897 -196.93744867 179.62387068 -199 225 C-213.85 225 -228.7 225 -244 225 C-244 205.07756024 -244 205.07756024 -243.25 198.625 C-243.16202148 197.84374756 -243.07404297 197.06249512 -242.98339844 196.25756836 C-236.40365986 141.97472509 -207.87994267 89.23898034 -166 54 C-165.46568359 53.54802246 -164.93136719 53.09604492 -164.38085938 52.63037109 C-116.19445538 12.13702654 -61.3485633 -0.64834674 0 0 Z " fill="#B4DBFE" transform="translate(275,31)"/>
<path d="M0 0 C1.60279192 0.00015914 3.20558896 0.00585476 4.80834961 0.01586914 C5.65038437 0.01728409 6.49241913 0.01869904 7.35997009 0.02015686 C10.06024671 0.02577276 12.76044163 0.03832791 15.46069336 0.05102539 C17.28686404 0.05603834 19.11303602 0.06060161 20.93920898 0.06469727 C25.42556878 0.07574735 29.9118672 0.0930226 34.39819336 0.11352539 C31.26109585 6.05264079 27.85677343 11.53298897 23.77319336 16.86352539 C22.98126587 17.90246948 22.98126587 17.90246948 22.17333984 18.96240234 C20.59242805 21.02144587 18.99860168 23.06961192 17.39819336 25.11352539 C16.97328613 25.65992676 16.54837891 26.20632813 16.1105957 26.76928711 C3.35019787 43.00649118 -11.84028666 58.04863945 -28.60180664 70.11352539 C-29.74845536 70.9652934 -30.89427389 71.81818002 -32.03930664 72.67211914 C-40.23090866 78.71955672 -48.74084062 84.10450951 -57.60180664 89.11352539 C-58.66262451 89.71680664 -58.66262451 89.71680664 -59.74487305 90.33227539 C-106.68035495 116.75735427 -156.51478228 126.18394823 -208.60180664 112.11352539 C-246.61650827 101.42583976 -281.09893625 81.8725448 -310.20727539 55.28540039 C-313.05651568 52.70109762 -315.97315705 50.20246711 -318.91040039 47.71899414 C-320.72890029 45.99288916 -322.15340352 44.15546373 -323.60180664 42.11352539 C-320.84943718 43.42916409 -318.34715107 44.88737499 -315.83618164 46.61743164 C-267.52101355 79.57168963 -208.79052112 97.62404438 -150.10180664 87.30102539 C-146.58759538 86.62963009 -143.09459559 85.88753402 -139.60180664 85.11352539 C-138.43520508 84.88665039 -137.26860352 84.65977539 -136.06665039 84.42602539 C-132.87031149 83.76613607 -129.75040702 82.97447081 -126.60180664 82.11352539 C-125.79485352 81.8935791 -124.98790039 81.67363281 -124.15649414 81.44702148 C-110.01749974 77.53211118 -96.75722733 72.60168412 -83.60180664 66.11352539 C-82.93246094 65.78771484 -82.26311523 65.4619043 -81.57348633 65.1262207 C-63.71000806 56.34463307 -47.62713434 44.66043717 -32.96899414 31.25805664 C-30.88286178 29.36814465 -28.75530903 27.55040792 -26.60180664 25.73852539 C-18.89764541 19.01291689 -12.39086369 11.03960621 -6.09790039 3.01196289 C-3.81913913 0.1203755 -3.81913913 0.1203755 0 0 Z " fill="#98D5B9" transform="translate(439.601806640625,390.886474609375)"/>
<path d="M0 0 C5.19136903 -0.34972948 10.37572393 -0.60162605 15.57617188 -0.76904297 C17.33845496 -0.83887778 19.09994359 -0.93400619 20.859375 -1.05615234 C35.02385819 -2.01386456 35.02385819 -2.01386456 39.93527222 1.30953979 C43.41737475 4.52701868 46.09242573 8.2166009 48.70458984 12.15196228 C50.89114949 15.2713177 53.472321 18.02698899 56.0625 20.8125 C56.58288345 21.37507507 57.10326691 21.93765015 57.63941956 22.51727295 C61.61492407 26.7842431 65.90908115 30.43355889 70.52734375 34 C74.29091993 37.0441564 77.6106342 40.40495711 80.625 44.1875 C103.43785419 70.90784559 138.71492243 90.50132365 171 103 C172.14984375 103.45761719 173.2996875 103.91523438 174.484375 104.38671875 C192.3641438 111.16648754 211.43234872 115.6256312 230.47070312 117.2109375 C231.27314453 117.28570312 232.07558594 117.36046875 232.90234375 117.4375 C233.61898193 117.49808594 234.33562012 117.55867188 235.07397461 117.62109375 C237 118 237 118 240 120 C190.45913076 120.62628652 190.45913076 120.62628652 172 117 C171.10442383 116.83902832 170.20884766 116.67805664 169.28613281 116.51220703 C120.59654168 107.70340196 75.57120072 84.2601479 40 50 C39.34064453 49.36787598 38.68128906 48.73575195 38.00195312 48.08447266 C28.51494735 38.94123031 19.76778506 29.64562703 12 19 C11.53948242 18.37899414 11.07896484 17.75798828 10.60449219 17.11816406 C9.2062584 15.23117138 7.81905499 13.33673133 6.4375 11.4375 C5.81016968 10.57958862 5.81016968 10.57958862 5.17016602 9.7043457 C2.93347424 6.56907034 1.36041632 3.58869097 0 0 Z " fill="#58BF93" transform="translate(39,392)"/>
<path d="M0 0 C0 3 0 3 -1.75 5 C-12.27961133 19.03948177 -10.422627 42.6036911 -8.28173828 59.11962891 C-5.04749644 79.72243756 4.97360236 99.66383688 19 115 C19.76957031 115.85078125 20.53914063 116.7015625 21.33203125 117.578125 C30.7637478 127.51266327 41.95819225 134.26410122 53.99609375 140.55078125 C61.02356059 144.29219968 61.02356059 144.29219968 63 148 C63 148.66 63 149.32 63 150 C37.3436466 151.44316988 14.29802224 140.32652747 -5 124 C-5.66257813 123.48308594 -6.32515625 122.96617187 -7.0078125 122.43359375 C-26.37867407 106.78789787 -38.24904594 81.15037344 -42 57 C-42.18175781 56.09121094 -42.36351563 55.18242187 -42.55078125 54.24609375 C-44.19307592 42.37872963 -43.85034524 29.70166526 -41.3125 18 C-41.16401611 17.29004883 -41.01553223 16.58009766 -40.86254883 15.84863281 C-39.40691242 9.91219875 -36.62936811 5.14779886 -31.8671875 1.2578125 C-31.20976562 0.88398437 -30.55234375 0.51015625 -29.875 0.125 C-28.88113281 -0.45894531 -28.88113281 -0.45894531 -27.8671875 -1.0546875 C-19.05497646 -5.51609978 -9.03430118 -2.15897951 0 0 Z " fill="#20B581" transform="translate(166,81)"/>
<path d="M0 0 C4.66804353 1.81860942 7.06753157 6.63597312 9.72509766 10.66845703 C11.38381921 13.16016834 13.09419639 15.61150079 14.8125 18.0625 C17.56920968 21.99577986 20.31408708 25.93677738 23.046875 29.88671875 C26.82360609 35.34346528 30.61879065 40.78698665 34.42578125 46.22265625 C35.00030029 47.04314453 35.57481934 47.86363281 36.16674805 48.70898438 C40.30299038 54.61166701 44.45633493 60.50212804 48.61791992 66.38696289 C53.28494064 72.99070747 57.91840653 79.61782773 62.54492188 86.25 C63.10501953 87.05179687 63.66511719 87.85359375 64.2421875 88.6796875 C64.73662354 89.38843018 65.23105957 90.09717285 65.74047852 90.82739258 C66.74355822 92.23927973 67.78695672 93.62299371 68.85913086 94.9831543 C70.17578125 96.84765625 70.17578125 96.84765625 70.17578125 98.84765625 C70.83578125 98.84765625 71.49578125 98.84765625 72.17578125 98.84765625 C72.67078125 99.77578125 73.16578125 100.70390625 73.67578125 101.66015625 C76.25302606 106.21702388 79.41409562 110.32170354 82.56640625 114.4921875 C84.17578125 116.84765625 84.17578125 116.84765625 84.17578125 118.84765625 C84.83578125 118.84765625 85.49578125 118.84765625 86.17578125 118.84765625 C86.41167969 118.32300781 86.64757812 117.79835938 86.890625 117.2578125 C88.91576606 113.45990358 91.4894496 110.0343023 93.98632812 106.53710938 C95.78901884 103.97911781 97.1796862 101.83594141 98.17578125 98.84765625 C98.83578125 98.84765625 99.49578125 98.84765625 100.17578125 98.84765625 C100.40394531 98.16316406 100.63210938 97.47867188 100.8671875 96.7734375 C102.48739505 93.1509436 104.72576731 90.17359849 107.11328125 87.03515625 C111.0598843 81.75347154 114.90070647 76.42149693 118.61328125 70.97265625 C122.3601602 65.48172453 126.14693184 60.02296949 129.98828125 54.59765625 C134.31580209 48.4830933 138.62979845 42.35942864 142.92578125 36.22265625 C143.4969165 35.40716309 144.06805176 34.59166992 144.65649414 33.75146484 C147.96633179 29.02077651 151.26349066 24.28154248 154.55078125 19.53515625 C155.27942383 18.48408691 156.00806641 17.43301758 156.75878906 16.35009766 C158.18182879 14.29634159 159.60310994 12.24136567 161.02246094 10.18505859 C161.66602539 9.2564502 162.30958984 8.3278418 162.97265625 7.37109375 C163.54338867 6.54528809 164.11412109 5.71948242 164.70214844 4.86865234 C166.17578125 2.84765625 166.17578125 2.84765625 168.17578125 0.84765625 C175.13906419 0.17379016 175.13906419 0.17379016 178.67578125 2.47265625 C180.62118496 5.55287879 180.51213629 7.24069105 180.17578125 10.84765625 C178.84765625 13.4609375 178.84765625 13.4609375 176.92578125 16.16015625 C176.19101562 17.20816406 175.45625 18.25617188 174.69921875 19.3359375 C174.08965332 20.18406006 174.08965332 20.18406006 173.46777344 21.04931641 C172.12028013 22.92490894 170.79102078 24.81240764 169.46484375 26.703125 C167.46402596 29.55188568 165.4555342 32.39500974 163.44140625 35.234375 C160.0423584 40.02982733 156.66939425 44.84329308 153.30078125 49.66015625 C152.71603027 50.49611328 152.1312793 51.33207031 151.52880859 52.19335938 C150.33844437 53.895277 149.14817774 55.5972629 147.95800781 57.29931641 C145.03201392 61.48308685 142.10379815 65.66530149 139.17578125 69.84765625 C138.00910366 71.51431527 136.842437 73.18098194 135.67578125 74.84765625 C133.34244792 78.18098958 131.00911458 81.51432292 128.67578125 84.84765625 C128.09779785 85.67338135 127.51981445 86.49910645 126.92431641 87.34985352 C125.76266374 89.00928781 124.6008808 90.66863091 123.43896484 92.32788086 C120.4444855 96.60444783 117.45258325 100.88278361 114.46484375 105.1640625 C113.24361554 106.91284838 112.02226346 108.66154777 110.80078125 110.41015625 C109.92546753 111.66397095 109.92546753 111.66397095 109.0324707 112.94311523 C105.27866313 118.30792517 101.46144587 123.61409466 97.53125 128.8515625 C96.00686459 130.90217528 96.00686459 130.90217528 95.17578125 133.84765625 C88.57578125 133.84765625 81.97578125 133.84765625 75.17578125 133.84765625 C73.85578125 131.53765625 72.53578125 129.22765625 71.17578125 126.84765625 C70.3584756 125.59865401 69.52149525 124.36193278 68.65234375 123.1484375 C68.19617676 122.50737061 67.74000977 121.86630371 67.27001953 121.20581055 C66.7851709 120.53074463 66.30032227 119.85567871 65.80078125 119.16015625 C64.72743685 117.6526482 63.65453846 116.14482252 62.58203125 114.63671875 C62.02386719 113.85329102 61.46570313 113.06986328 60.890625 112.26269531 C58.00673763 108.20127535 55.1542444 104.11798177 52.30078125 100.03515625 C51.11589857 98.34113663 49.93100264 96.64712628 48.74609375 94.953125 C48.15602539 94.10927246 47.56595703 93.26541992 46.95800781 92.39599609 C44.03201392 88.21222565 41.10379815 84.03001101 38.17578125 79.84765625 C37.00910366 78.18099723 35.842437 76.51433056 34.67578125 74.84765625 C33.80953125 73.61015625 33.80953125 73.61015625 32.92578125 72.34765625 C31.17578125 69.84765625 29.42578125 67.34765625 27.67578125 64.84765625 C27.09820068 64.02257568 26.52062012 63.19749512 25.92553711 62.34741211 C24.75955314 60.681651 23.59370015 59.01579821 22.42797852 57.34985352 C19.50193672 53.16856798 16.57359641 48.98892823 13.640625 44.8125 C11.3084462 41.49157524 8.98363471 38.16567782 6.6640625 34.8359375 C4.26892717 31.39890813 1.84535976 27.9840664 -0.59375 24.578125 C-1.79593765 22.87655971 -2.99777315 21.17474557 -4.19921875 19.47265625 C-4.76519775 18.69398193 -5.33117676 17.91530762 -5.91430664 17.11303711 C-8.82880435 12.94927327 -10.72624139 10.13319241 -9.82421875 4.84765625 C-7.46603927 1.11387208 -4.49016633 -0.32013983 0 0 Z " fill="#98D5B9" transform="translate(170.82421875,122.15234375)"/>
<path d="M0 0 C0.69101807 -0.00950684 1.38203613 -0.01901367 2.09399414 -0.02880859 C5.76748825 -0.00449573 8.50407958 0.23340527 11.625 2.25 C11.625 2.91 11.625 3.57 11.625 4.25 C10.78839844 4.518125 9.95179688 4.78625 9.08984375 5.0625 C-20.96484403 15.18057872 -43.07796231 35.21677677 -57.296875 63.6640625 C-61.95068419 73.539531 -65.34726439 84.10292554 -65.77929688 95.04174805 C-66.3016469 107.09444193 -72.25864057 114.5289991 -79.51220703 123.81933594 C-82.41472032 127.60667831 -85.07836685 131.54814418 -87.75 135.5 C-88.65283982 136.81826071 -89.55639908 138.13602922 -90.4609375 139.453125 C-91.40839844 140.83757812 -91.40839844 140.83757812 -92.375 142.25 C-95.375 141.25 -95.375 141.25 -96.4609375 139.625 C-104.90107692 117.69506509 -101.52419423 88.42030867 -92.375 67.25 C-87.54747927 56.70051943 -81.77878303 47.19677809 -74.375 38.25 C-73.34826172 36.97769531 -73.34826172 36.97769531 -72.30078125 35.6796875 C-54.78417234 15.0223927 -27.24390264 0.31094082 0 0 Z " fill="#20B581" transform="translate(363.375,78.75)"/>
<path d="M0 0 C6.20866617 -0.17968926 12.41057377 -0.27200234 18.62182617 -0.28686523 C20.72956655 -0.30379941 22.83726199 -0.34373738 24.9440918 -0.40795898 C43.40835886 -0.94575317 43.40835886 -0.94575317 48.71264648 3.76757812 C51.13304401 6.40405557 53.06156896 9.24887276 54.90447998 12.30859375 C66.63640588 30.42186638 87.76826919 45.14406912 106 56 C107.02867187 56.62132812 108.05734375 57.24265625 109.1171875 57.8828125 C128.51900284 69.30882384 149.19155727 78.47864417 171.265625 83.17578125 C175 84 175 84 178.45703125 85.03515625 C182.44895568 86.12226246 186.33528032 86.66711272 190.4375 87.125 C191.53481445 87.25455078 191.53481445 87.25455078 192.65429688 87.38671875 C194.43560094 87.59628393 196.21772281 87.79887868 198 88 C194.33261875 90.44492083 192.5278899 90.25770946 188.15625 90.265625 C187.14088669 90.26985474 187.14088669 90.26985474 186.10501099 90.27416992 C183.90312869 90.27844487 181.70182415 90.26584432 179.5 90.25 C178.75047058 90.24689819 178.00094116 90.24379639 177.22869873 90.24060059 C127.36893649 89.99746695 78.86817669 73.6860136 40 42 C39.1646875 41.33742188 38.329375 40.67484375 37.46875 39.9921875 C23.71171293 28.96283881 9.88174834 16.74318723 0 2 C0 1.34 0 0.68 0 0 Z " fill="#01A96C" transform="translate(77,391)"/>
<path d="M0 0 C4.54278387 1.48563631 6.62761324 5.81896839 9.06640625 9.67578125 C9.42428223 10.23894043 9.7821582 10.80209961 10.15087891 11.38232422 C12.22973031 14.66291537 14.27656083 17.96218291 16.3125 21.26953125 C20.5388793 28.09073231 25.04794952 34.727268 29.52723694 41.38378906 C31.10489053 43.73308857 32.67594896 46.08667595 34.24511719 48.44165039 C34.7761908 49.23857803 35.3072644 50.03550568 35.85443115 50.85658264 C36.25438293 51.45691818 36.65433472 52.05725372 37.06640625 52.67578125 C37.07005188 52.08331604 37.07369751 51.49085083 37.07745361 50.88043213 C37.11925332 44.71578702 37.18858083 38.55188819 37.27392578 32.38769531 C37.30215729 30.08698998 37.32336091 27.78618726 37.33740234 25.48535156 C37.35880111 22.17852846 37.40543733 18.87287899 37.45703125 15.56640625 C37.45887421 14.02246185 37.45887421 14.02246185 37.46075439 12.44732666 C37.60652246 5.34548856 37.60652246 5.34548856 39.88574219 2.02636719 C43.11978054 0.02337792 45.34593519 0.14428538 49.06640625 0.67578125 C51.2518158 2.22363281 51.2518158 2.22363281 53.06640625 4.67578125 C53.46633903 7.3887173 53.62418341 9.69827372 53.59985352 12.41015625 C53.61277687 13.57182312 53.61277687 13.57182312 53.6259613 14.75695801 C53.64864024 17.31357364 53.64187977 19.86909493 53.6328125 22.42578125 C53.63804701 24.20410488 53.64432285 25.98242573 53.65159607 27.76074219 C53.66200361 31.4864611 53.65743348 35.21179815 53.64282227 38.9375 C53.6256277 43.71290891 53.6491355 48.4871154 53.68431187 53.26239014 C53.70626719 56.93416319 53.70484908 60.60564765 53.69654655 64.27746582 C53.69572612 66.03814005 53.70260713 67.79883528 53.71731758 69.55944824 C53.73473136 72.02085411 53.72025055 74.48008799 53.69750977 76.94140625 C53.70920197 77.66880005 53.72089417 78.39619385 53.73294067 79.14562988 C53.66293194 82.86821122 53.33599767 84.3918987 50.73399353 87.13183594 C48.06640625 88.67578125 48.06640625 88.67578125 44.75390625 89.11328125 C38.81717378 86.79896181 36.38997186 81.88639516 33.06640625 76.67578125 C32.25902588 75.44061226 31.45038224 74.20626831 30.640625 72.97265625 C28.8233004 70.1910649 27.02223702 67.39967903 25.23046875 64.6015625 C21.48052236 58.75003796 17.67865915 52.93253661 13.87890625 47.11328125 C12.87041626 45.56785645 12.87041626 45.56785645 11.84155273 43.99121094 C10.25013566 41.55253937 8.65841809 39.11406456 7.06640625 36.67578125 C7.06276062 37.2409697 7.05911499 37.80615814 7.05535889 38.38847351 C7.01350877 44.27754658 6.94414597 50.16584211 6.85888672 56.05444336 C6.83068235 58.25130431 6.80946518 60.44826664 6.79541016 62.64526367 C6.77397376 65.80570355 6.72731845 68.96492521 6.67578125 72.125 C6.67455261 73.10538742 6.67332397 74.08577484 6.67205811 75.09587097 C6.57985277 79.40053665 6.46472401 82.0009132 4.24316406 85.76489258 C1.16342728 88.46847039 -0.86419312 88.81856724 -4.93359375 88.67578125 C-8.46781885 86.01108884 -9.78764491 84.50602239 -10.56178284 80.10227966 C-10.58827532 78.70833041 -10.58751082 77.31369205 -10.56469727 75.91967773 C-10.57185257 75.1548407 -10.57900787 74.39000366 -10.58638 73.60198975 C-10.60323923 71.08300387 -10.58388442 68.56580461 -10.5625 66.046875 C-10.56332888 64.29240268 -10.56578897 62.53793044 -10.56980896 60.78346252 C-10.57266493 57.11069296 -10.55798432 53.43853393 -10.53051758 49.76586914 C-10.49640961 45.05896991 -10.50246305 40.35316041 -10.52118015 35.64620876 C-10.53174912 32.02503886 -10.52281376 28.40412248 -10.50779533 24.78297615 C-10.50261397 23.04744278 -10.50309478 21.31188294 -10.50934029 19.57635307 C-10.51479243 17.15115287 -10.49442061 14.72751264 -10.46704102 12.30249023 C-10.47356689 11.58601822 -10.48009277 10.8695462 -10.48681641 10.13136292 C-10.42280338 6.79604871 -10.14486474 4.96129816 -8.13853455 2.24989319 C-5.47925466 0.3514276 -3.27400657 -0.21103173 0 0 Z " fill="#D9ECFD" transform="translate(372.93359375,279.32421875)"/>
<path d="M0 0 C3.22198782 2.6312117 4.73006902 5.12074005 6.16308594 8.98608398 C6.72452301 10.47560829 6.72452301 10.47560829 7.29730225 11.995224 C7.68903625 13.06801102 8.08077026 14.14079803 8.484375 15.24609375 C9.11330658 16.92748192 9.11330658 16.92748192 9.75494385 18.64283752 C11.09693369 22.23731973 12.42377965 25.83717344 13.75 29.4375 C14.62658327 31.79530168 15.5041776 34.15272772 16.3828125 36.50976562 C17.68085929 39.9924818 18.97689502 43.47584858 20.26501465 46.96224976 C22.27601767 52.40231681 24.3104866 57.82972803 26.42382812 63.23095703 C26.79896545 64.19389175 27.17410278 65.15682648 27.56060791 66.14894104 C28.25892229 67.93427971 28.96399831 69.71699484 29.67718506 71.4964447 C32.63751572 79.08000483 32.63751572 79.08000483 32 83 C29.50115585 86.30729372 28.05629585 87.80598648 23.9375 88.5625 C21 88 21 88 17 84 C15.35 79.71 13.7 75.42 12 71 C1.77 71 -8.46 71 -19 71 C-20.65 75.29 -22.3 79.58 -24 84 C-29 88 -29 88 -32.625 88 C-36 87 -36 87 -38 85.5 C-40.55930504 79.10173741 -37.45077385 71.67027302 -35.0078125 65.609375 C-34.7058194 64.83421539 -34.40382629 64.05905579 -34.09268188 63.26040649 C-33.11341909 60.75289787 -32.11940255 58.25153833 -31.125 55.75 C-30.44320634 54.0129755 -29.76255243 52.27550324 -29.08300781 50.53759766 C-28.05312006 47.90412444 -27.02247184 45.27098179 -25.9876709 42.63943481 C-23.83582145 37.16366171 -21.72662497 31.67406799 -19.6640625 26.1640625 C-19.41194 25.49157471 -19.1598175 24.81908691 -18.90005493 24.1262207 C-17.73299157 21.01020339 -16.57110294 17.89240309 -15.41455078 14.77246094 C-15.00446777 13.6796582 -14.59438477 12.58685547 -14.171875 11.4609375 C-13.8222168 10.52040527 -13.47255859 9.57987305 -13.11230469 8.61083984 C-10.03976368 1.39886585 -8.07312761 -0.69595928 0 0 Z " fill="#D8ECFC" transform="translate(323,280)"/>
<path d="M0 0 C5.99011526 3.80124607 10.09965635 8.99101019 12.875 15.5 C13.33009332 18.55335865 13.33201236 21.44553765 12.875 24.5 C11.3125 26.5625 11.3125 26.5625 8.875 27.5 C2.69160011 28.1508842 2.69160011 28.1508842 0.27734375 26.2265625 C-1.2190704 24.38418073 -2.06807835 22.67723289 -3 20.5 C-4.79858121 16.82169858 -6.13696129 14.95019589 -10.125 13.5 C-15.01504676 12.95666147 -17.12003871 12.97890896 -21.5 15.25 C-24.14462136 17.51681831 -24.99179859 18.31014 -26.125 21.5 C-26.32971925 24.44777519 -26.42907061 27.29836847 -26.42578125 30.24609375 C-26.43006638 31.09422134 -26.4343515 31.94234894 -26.43876648 32.81617737 C-26.44450135 34.6073416 -26.44501625 36.39852912 -26.44067383 38.18969727 C-26.43751513 40.92439666 -26.46097845 43.65801251 -26.48632812 46.39257812 C-26.4886014 48.13541531 -26.48930449 49.87825539 -26.48828125 51.62109375 C-26.497491 52.4358165 -26.50670074 53.25053925 -26.51618958 54.08995056 C-26.47847 58.73781317 -26.0768709 61.69311689 -23.125 65.5 C-20.21090728 68.268691 -18.1825992 68.93134422 -14.1875 68.9375 C-10.65466049 68.82823692 -9.25348868 68.57495173 -6.125 66.75 C-2.64437527 62.83429718 -1.83128497 59.67942314 -1.125 54.5 C-2.02992188 54.58701172 -2.02992188 54.58701172 -2.953125 54.67578125 C-9.43553352 55.04172367 -9.43553352 55.04172367 -12.75 52.4375 C-14.55093997 48.59003735 -14.32323746 46.54405144 -13.125 42.5 C-10.66869485 39.75021423 -8.51357592 39.2814324 -4.97265625 39.06640625 C-3.37769645 39.04919921 -1.78249036 39.04840772 -0.1875 39.0625 C0.61107422 39.04251953 1.40964844 39.02253906 2.23242188 39.00195312 C5.96684163 39.00504709 8.47676069 39.31655299 11.90234375 40.89453125 C14.94952493 44.91922402 14.6229621 48.70566226 14.5 53.625 C14.48453125 54.57262207 14.4690625 55.52024414 14.453125 56.49658203 C14.11758151 65.85146991 11.92815298 71.84397313 5.125 78.375 C-1.89131418 83.91212854 -8.2009267 86.23305364 -17.203125 85.87890625 C-25.30832905 84.82783032 -31.72265029 80.51438061 -37.125 74.5 C-42.2972752 67.01752744 -43.28284063 60.51850161 -43.36328125 51.61328125 C-43.371353 50.75623093 -43.37942474 49.8991806 -43.38774109 49.01615906 C-43.40153902 47.20488481 -43.41228026 45.39358503 -43.42016602 43.58227539 C-43.43166647 41.74463184 -43.4520876 39.90702118 -43.48168945 38.06958008 C-43.69021981 25.10924352 -43.66949996 14.14763365 -34.14453125 4.26171875 C-24.68347701 -3.99154133 -11.30067399 -5.62721147 0 0 Z " fill="#D8ECFC" transform="translate(264.125,282.5)"/>
<path d="M0 0 C0.78391113 -0.00241196 1.56782227 -0.00482391 2.37548828 -0.00730896 C4.02967396 -0.00633128 5.68389266 0.00704374 7.33789062 0.03198242 C9.86701821 0.06629795 12.39265163 0.05263976 14.921875 0.03320312 C16.53126484 0.04010183 18.14064568 0.04977444 19.75 0.0625 C20.5042627 0.05754013 21.25852539 0.05258026 22.03564453 0.04747009 C25.52622354 0.12559773 27.51849584 0.36191533 30.34765625 2.48071289 C31.875 4.62890625 31.875 4.62890625 32.4375 7.56640625 C31.64531668 11.8794043 30.43305784 13.04280567 26.875 15.62890625 C22.92067814 16.24614606 19.05227252 16.09982727 15.0625 15.94140625 C13.45084961 15.90756836 13.45084961 15.90756836 11.80664062 15.87304688 C9.16216112 15.81428066 6.51840067 15.72460458 3.875 15.62890625 C3.875 22.55890625 3.875 29.48890625 3.875 36.62890625 C10.6061212 36.54999662 10.6061212 36.54999662 17.33691406 36.44873047 C18.17963867 36.44373535 19.02236328 36.43874023 19.890625 36.43359375 C20.74946289 36.42312012 21.60830078 36.41264648 22.49316406 36.40185547 C25.09230884 36.64962142 26.67951408 37.23361556 28.875 38.62890625 C30.44200442 41.7629151 30.72664561 45.2604572 29.875 48.62890625 C27.68172901 51.29050783 25.94587354 52.4876318 22.49511719 52.94287109 C19.67358358 53.02291822 16.88334975 52.97741813 14.0625 52.87890625 C12.59393555 52.85183594 12.59393555 52.85183594 11.09570312 52.82421875 C8.68837997 52.77724659 6.28156257 52.70550771 3.875 52.62890625 C3.875 59.22890625 3.875 65.82890625 3.875 72.62890625 C5.40511719 72.59410156 6.93523437 72.55929687 8.51171875 72.5234375 C10.52863484 72.49529448 12.54556282 72.46799488 14.5625 72.44140625 C15.56990234 72.41626953 16.57730469 72.39113281 17.61523438 72.36523438 C27.01435131 72.27217381 27.01435131 72.27217381 30.875 75.62890625 C32.31930855 78.51752334 32.25188506 80.42538326 31.875 83.62890625 C29.16882552 87.16285938 27.68454188 88.48797651 23.24975586 89.26000977 C21.86336272 89.28604419 20.47623642 89.28387188 19.08984375 89.2578125 C18.35173965 89.26022446 17.61363556 89.26263641 16.85316467 89.26512146 C15.29910893 89.26414551 13.74501735 89.25081167 12.19116211 89.22583008 C9.81569256 89.19145245 7.44393278 89.20519588 5.06835938 89.22460938 C3.55467171 89.217712 2.04099361 89.20804059 0.52734375 89.1953125 C-0.18003433 89.20027237 -0.88741241 89.20523224 -1.6162262 89.21034241 C-5.03761383 89.1287752 -6.82208445 88.86845291 -9.54077148 86.71850586 C-12.38524965 82.96663521 -12.28462705 79.9680913 -12.30200195 75.4128418 C-12.30857315 74.66955627 -12.31514435 73.92627075 -12.32191467 73.16046143 C-12.341659 70.69551497 -12.35331283 68.23062947 -12.36328125 65.765625 C-12.36735678 64.9241926 -12.3714323 64.0827602 -12.37563133 63.21582985 C-12.39649707 58.7621345 -12.4107965 54.30847 -12.42016602 49.85473633 C-12.43123069 45.25447226 -12.46562952 40.65469188 -12.50533772 36.05459881 C-12.53148354 32.51753337 -12.53985603 28.98058352 -12.54344749 25.44342995 C-12.54831886 23.74775743 -12.55994855 22.05209026 -12.57848549 20.35651207 C-12.60283423 17.98166976 -12.60192027 15.60808322 -12.5949707 13.2331543 C-12.60778076 12.5342659 -12.62059082 11.8353775 -12.63378906 11.11531067 C-12.59669164 7.63267233 -12.16082384 5.68738682 -10.32658386 2.69308472 C-7.15702437 -0.27865603 -4.12654238 -0.07253516 0 0 Z " fill="#D7EBFC" transform="translate(177.125,279.37109375)"/>
<path d="M0 0 C3.26598683 2.68368133 4.75682735 5.20106926 6.19824219 9.13574219 C6.76838043 10.66687653 6.76838043 10.66687653 7.35003662 12.22894287 C7.74499329 13.32386047 8.13994995 14.41877808 8.546875 15.546875 C8.96294006 16.6732135 9.37900513 17.799552 9.80767822 18.96002197 C11.13219052 22.55295547 12.44125037 26.15129872 13.75 29.75 C14.64612236 32.18917451 15.543246 34.6279814 16.44140625 37.06640625 C18.63923414 43.04005621 20.824407 49.01821882 23 55 C25.20211806 52.79788194 25.76035591 51.34613271 26.81591797 48.44604492 C27.16322968 47.50133835 27.51054138 46.55663177 27.86837769 45.58329773 C28.23923492 44.55936417 28.61009216 43.5354306 28.9921875 42.48046875 C29.78755659 40.3221905 30.58313613 38.16398979 31.37890625 36.00585938 C32.6285874 32.59685687 33.8752543 29.18680171 35.11767578 25.77514648 C36.31770957 22.48636791 37.52928181 19.20201787 38.7421875 15.91796875 C39.10899628 14.90010788 39.47580505 13.88224701 39.85372925 12.83354187 C41.6592022 7.96182948 43.24456375 3.74262747 47 0 C50.40772733 -0.994193 53.80066571 -0.59966715 57 1 C59.07380003 5.14760007 58.41811032 9.48961952 57.22210693 13.81005859 C56.08426033 17.12949673 54.86739509 20.40871678 53.6171875 23.6875 C53.1653006 24.9034082 52.7134137 26.11931641 52.24783325 27.37207031 C51.04835222 30.5990176 49.83336969 33.81990598 48.6149292 37.03973389 C47.3979378 40.26386264 46.19559157 43.49343703 44.9921875 46.72265625 C43.15613362 51.64697542 41.30490101 56.56535428 39.44433594 61.48046875 C37.96980538 65.38531977 36.52932074 69.29629753 35.15722656 73.23828125 C34.89273712 73.98625977 34.62824768 74.73423828 34.35574341 75.50488281 C33.69849257 77.37556035 33.05755746 79.25195027 32.41845703 81.12890625 C30.75968665 84.48641738 29.1644773 86.02664957 26 88 C22.375 88 22.375 88 19 87 C16.01887038 83.8389792 14.773849 80.18726598 13.28857422 76.15185547 C13.0361496 75.47173401 12.78372498 74.79161255 12.52365112 74.09088135 C11.69439122 71.85191118 10.87455807 69.60961098 10.0546875 67.3671875 C9.47905914 65.80805131 8.90280702 64.24914528 8.32595825 62.69046021 C6.81138066 58.59329263 5.30462221 54.49329405 3.79968262 50.39257812 C1.96727864 45.40360129 0.1264591 40.41772523 -1.71392632 35.43168831 C-3.14506058 31.55427335 -4.57464963 27.6763139 -5.99954224 23.79660034 C-6.2614032 23.08482635 -6.52326416 22.37305237 -6.7930603 21.63970947 C-7.50037202 19.7170876 -8.20665868 17.79408872 -8.91287231 15.87106323 C-9.90314687 13.1091181 -9.90314687 13.1091181 -11 11 C-11.35519903 7.16385043 -11.54724594 4.85370366 -9.4375 1.5625 C-6.05782196 -0.60396028 -3.94016013 -0.56288002 0 0 Z " fill="#D8ECFD" transform="translate(97,280)"/>
<path d="M0 0 C1.07696789 2.13417491 2.12950031 4.2748578 3.1484375 6.4375 C6.18259711 12.85487623 6.18259711 12.85487623 11 18 C4.8985755 20.69180493 -0.74851709 21.12501399 -7.375 21.0625 C-9.24285156 21.04896484 -9.24285156 21.04896484 -11.1484375 21.03515625 C-12.55996094 21.01775391 -12.55996094 21.01775391 -14 21 C-12.40277147 16.06485078 -9.51692784 12.34276068 -6.4375 8.25 C-5.93025391 7.56550781 -5.42300781 6.88101563 -4.90039062 6.17578125 C-1.20225024 1.20225024 -1.20225024 1.20225024 0 0 Z " fill="#22B581" transform="translate(297,210)"/>
<path d="M0 0 C3.1304684 3.60990951 4.56592875 7.57971689 6.1875 12 C6.46013672 12.7115625 6.73277344 13.423125 7.01367188 14.15625 C8.32172386 17.67061524 9 20.20712875 9 24 C3.06 24 -2.88 24 -9 24 C-3.0625 3.0625 -3.0625 3.0625 0 0 Z " fill="#5CC097" transform="translate(319,310)"/>
</svg>
