<?xml version="1.0" encoding="UTF-8"?>
<svg version="1.1" xmlns="http://www.w3.org/2000/svg" width="512" height="512">
<path d="M0 0 C0.92419739 -0.00701431 1.84839478 -0.01402863 2.80059814 -0.02125549 C5.77076125 -0.03868398 8.74072512 -0.04510876 11.7109375 -0.046875 C13.2312558 -0.04788712 13.2312558 -0.04788712 14.7822876 -0.04891968 C29.43420786 -0.03339335 43.67020883 0.3711627 58.0859375 3.203125 C58.98151367 3.36409668 59.87708984 3.52506836 60.79980469 3.69091797 C103.47773382 11.41210744 143.74543759 30.42471299 176.88671875 58.36328125 C177.61246094 58.97042969 178.33820313 59.57757813 179.0859375 60.203125 C179.69348373 60.729702 180.30102997 61.25627899 180.92698669 61.79881287 C183.48137124 63.46033901 184.80877711 63.55859173 187.82836914 63.51196289 C188.76777847 63.50528091 189.70718781 63.49859894 190.67506409 63.49171448 C191.68850388 63.46995651 192.70194366 63.44819855 193.74609375 63.42578125 C195.33471474 63.41229897 195.33471474 63.41229897 196.95542908 63.39854431 C200.35343076 63.3685201 203.75072613 63.31888369 207.1484375 63.265625 C232.56427377 62.89829612 232.56427377 62.89829612 243.89453125 63.94921875 C245.0411599 64.04215965 245.0411599 64.04215965 246.21095276 64.13697815 C250.96087939 64.65984595 253.69731439 65.83364891 257.0859375 69.203125 C259.30706533 72.83769782 259.38070546 76.04020345 258.66796875 80.23046875 C256.98671593 85.92867463 252.46079182 88.7144315 247.8359375 91.953125 C239.09754089 98.13595279 232.72202774 105.55819355 228.0859375 115.203125 C228.61960937 116.06550781 229.15328125 116.92789063 229.703125 117.81640625 C248.56007117 148.57037118 261.66496366 181.39363187 267.0859375 217.203125 C267.26326416 218.32195068 267.44059082 219.44077637 267.62329102 220.59350586 C269.30470091 232.31548447 269.44328091 243.93811476 269.3984375 255.765625 C269.39628235 256.78602875 269.3941272 257.8064325 269.39190674 258.85775757 C269.34227102 273.48523024 269.09513462 287.83576338 266.0859375 302.203125 C265.78792236 303.66540527 265.78792236 303.66540527 265.48388672 305.15722656 C255.63169745 352.25585722 234.64573001 395.36047983 201.59375 430.484375 C199.82091217 432.40633003 198.14650341 434.31989739 196.49609375 436.33984375 C194.54723824 438.65509673 192.70282778 440.58113685 190.3984375 442.515625 C187.38912494 445.07270321 184.47601888 447.69969208 181.5859375 450.390625 C148.32840801 480.25659516 106.21611279 499.59771216 62.6484375 508.515625 C61.92954346 508.66298096 61.21064941 508.81033691 60.4699707 508.9621582 C45.79433252 511.75152625 31.26924912 512.55205119 16.35864258 512.51879883 C13.41905263 512.5156471 10.4804817 512.53917426 7.54101562 512.56445312 C-5.83212442 512.60911237 -18.72822961 511.40364042 -31.9140625 509.203125 C-33.61961304 508.92094116 -33.61961304 508.92094116 -35.35961914 508.63305664 C-37.9553247 508.16679902 -40.52681189 507.6480668 -43.1015625 507.078125 C-44.49048706 506.77116699 -44.49048706 506.77116699 -45.9074707 506.45800781 C-79.08258273 498.74401709 -110.4595401 484.31170762 -137.9140625 464.203125 C-138.48705078 463.78708008 -139.06003906 463.37103516 -139.65039062 462.94238281 C-147.21199869 457.4179403 -154.15061202 451.40105017 -160.94140625 444.96484375 C-162.93137827 443.08444157 -164.96991594 441.30661877 -167.08984375 439.57421875 C-169.37295128 437.65741893 -171.26229539 435.85023624 -173.1640625 433.578125 C-175.10532142 431.28930444 -177.05778674 429.05178287 -179.125 426.875 C-217.92149367 385.9440714 -242.83522575 325.4556606 -243.1171875 268.97265625 C-243.12777695 267.55532448 -243.12777695 267.55532448 -243.13858032 266.10935974 C-243.36451803 227.00588241 -243.36451803 227.00588241 -239.9140625 210.203125 C-239.71538574 209.19056641 -239.51670898 208.17800781 -239.31201172 207.13476562 C-229.89622748 160.04879141 -208.31246912 117.17247507 -175.52734375 82.0625 C-173.71996497 80.08491963 -172.00014278 78.1164596 -170.30859375 76.046875 C-168.38234092 73.75925337 -166.56824995 71.86081494 -164.2890625 69.953125 C-161.05331946 67.20545493 -157.94595534 64.35900356 -154.8515625 61.453125 C-117.84820722 27.77189416 -68.08687978 7.51199209 -18.9140625 1.203125 C-18.244319 1.11579605 -17.5745755 1.0284671 -16.88453674 0.93849182 C-11.24305837 0.25331693 -5.67988913 0.02886835 0 0 Z " fill="#010201" transform="translate(242.9140625,-0.203125)"/>
<path d="M0 0 C6.6 0 13.2 0 20 0 C20.99 1.98 21.98 3.96 23 6 C25.90366166 7.45183083 28.70178868 7.39160899 31.9375 7.6875 C63.4008069 11.14304733 95.52780319 21.35186879 122 39 C122 39.66 122 40.32 122 41 C120.9584375 41.40089844 119.916875 41.80179688 118.84375 42.21484375 C97.16968986 50.73502671 78.54765093 62.59989328 62 79 C61.21109375 79.77601562 60.4221875 80.55203125 59.609375 81.3515625 C38.57935624 103.3649994 22.00043044 137.84974395 20.625 168.625 C21.13356491 173.20208418 22.60649296 175.50327022 25.6875 178.8125 C29.03091305 180.52938778 32.36081464 180.69124191 36 180 C41.16671419 177.62490669 44.73658008 173.40194575 48.625 169.375 C59.08564548 158.74818064 71.6564066 146.05466114 86 141 C85.21625 141.9075 84.4325 142.815 83.625 143.75 C82.80128906 144.71679688 82.80128906 144.71679688 81.9609375 145.703125 C80.55827123 147.34608868 79.14566003 148.98058265 77.7265625 150.609375 C54.75867016 177.41732505 39.59794519 210.93440402 28 244 C27.60965576 245.09731445 27.60965576 245.09731445 27.21142578 246.21679688 C23.32384871 257.19174496 20.25710786 268.30069479 17.390625 279.58203125 C15.73374775 286.09657135 13.8996316 292.55242686 12 299 C10.11038932 295.84786183 9.41045772 292.63365002 8.65820312 289.06469727 C2.61535893 260.70704611 -7.61175996 233.15654863 -20 207 C-20.43521973 206.08105957 -20.87043945 205.16211914 -21.31884766 204.21533203 C-29.63986344 186.95656247 -40.25459598 170.33290985 -53 156 C-53.84820312 155.0203125 -54.69640625 154.040625 -55.5703125 153.03125 C-70.0137814 136.59055674 -93.31208764 117.12316698 -116.25 115.5 C-120.06031801 115.73658605 -120.06031801 115.73658605 -123 117.9375 C-125.29739319 121.45538332 -125.85166769 123.51537402 -125.6171875 127.66015625 C-124.13058614 133.29606899 -119.3141623 136.90486475 -115 140.5 C-111.19300238 143.67249802 -108.13877794 147.17617132 -105 151 C-104.2471875 151.91523438 -103.494375 152.83046875 -102.71875 153.7734375 C-78.15370975 184.63521275 -65.24515469 222.09829564 -55.56298828 259.87695312 C-54.78154943 262.82378411 -53.86746366 265.7220546 -52.9375 268.625 C-51.02812848 274.67660314 -49.49747679 280.80208735 -48.01342773 286.96923828 C-46.85347799 291.74468651 -45.59344137 296.48236416 -44.25892639 301.2114563 C-41.66483019 310.40644926 -39.33951233 319.63858598 -37.17584229 328.94366455 C-36.4127328 332.22533127 -35.64137263 335.50504418 -34.87057495 338.78491211 C-34.47916682 340.45067184 -34.08815224 342.11652409 -33.69754028 343.7824707 C-31.87051169 351.57072536 -30.00476557 359.34932667 -28.125 367.125 C-27.85123535 368.25977783 -27.5774707 369.39455566 -27.29541016 370.5637207 C-26.78274324 372.68351734 -26.26718637 374.80261782 -25.74829102 376.92089844 C-25.23176586 379.04631941 -24.72781281 381.17482134 -24.23413086 383.30566406 C-23.98284424 384.3675293 -23.73155762 385.42939453 -23.47265625 386.5234375 C-23.25359619 387.46880371 -23.03453613 388.41416992 -22.80883789 389.38818359 C-21.00121889 395.22516159 -17.77706875 399.17424123 -12.45385742 402.07202148 C-7.84133066 404.32521271 -3.82265973 404.59752279 1.25 404.56640625 C2.10754883 404.57260483 2.96509766 404.57880341 3.84863281 404.58518982 C5.65037916 404.59225095 7.45219127 404.58917924 9.25390625 404.57641602 C11.9934199 404.56253335 14.72952302 404.59669351 17.46875 404.63476562 C19.22916749 404.63571689 20.98958921 404.63385761 22.75 404.62890625 C23.96284668 404.64879356 23.96284668 404.64879356 25.20019531 404.66908264 C30.65899156 404.58073641 33.94827718 403.26650788 38.37988281 400.07164001 C40 399 40 399 42 399 C42.68774405 397.67741528 43.34711373 396.34013497 44 395 C44.4640625 394.06671875 44.928125 393.1334375 45.40625 392.171875 C47.75751957 386.63404466 48.59003563 380.69708011 49.6875 374.8125 C50.20197178 372.1320069 50.7189955 369.45222218 51.2421875 366.7734375 C51.44727684 365.72188728 51.44727684 365.72188728 51.6565094 364.64909363 C52.72529253 359.2369683 53.90624286 353.85494425 55.1328125 348.4765625 C55.404067 347.28310463 55.404067 347.28310463 55.68080139 346.0655365 C56.39584502 342.92715982 57.11259138 339.78934747 57.84799194 336.65567017 C61.48160559 322.94703784 61.48160559 322.94703784 62 309 C60.6996817 307.95743101 59.36661752 306.95400961 58 306 C58.05157827 302.75056887 58.36783469 300.15166475 59 297 C59.17789062 295.948125 59.35578125 294.89625 59.5390625 293.8125 C60.15450085 290.72789335 60.79989101 287.9086611 62 285 C65.0625 283.375 65.0625 283.375 68 283 C70.32652939 280.67347061 70.55308321 279.4534926 71.296875 276.29296875 C71.64661377 274.84083984 71.64661377 274.84083984 72.00341797 273.359375 C72.24979004 272.31265625 72.49616211 271.2659375 72.75 270.1875 C75.54523501 258.69845075 78.55604483 247.31217477 82 236 C82.31759277 234.95585937 82.63518555 233.91171875 82.96240234 232.8359375 C83.97462933 229.55020502 85.01373637 226.2742371 86.0625 223 C86.37880371 221.97841797 86.69510742 220.95683594 87.02099609 219.90429688 C90.26378229 210.00789243 90.26378229 210.00789243 95 207 C99.21037966 205.94672743 103.44109027 205.47402423 107.75 205 C132.88978357 201.74785489 155.53214574 194.10766562 174 176 C174.54140625 175.48308594 175.0828125 174.96617187 175.640625 174.43359375 C185.72266189 163.82529669 191.37318549 148.2528277 197.08959961 135.03613281 C198.00334782 132.99251252 198.98442843 130.99470254 200 129 C202.43413651 131.18364563 203.65152856 133.07427302 204.83203125 136.11328125 C205.15276611 136.93787842 205.47350098 137.76247559 205.80395508 138.61206055 C206.30318481 139.94877808 206.30318481 139.94877808 206.8125 141.3125 C207.33589966 142.70625854 207.33589966 142.70625854 207.86987305 144.12817383 C223.72562182 187.35892906 226.09137126 234.85603258 212 279 C211.75411133 279.78955078 211.50822266 280.57910156 211.25488281 281.39257812 C201.17458251 313.34093265 184.0791914 340.88920233 161 365 C160.52981445 365.49741699 160.05962891 365.99483398 159.57519531 366.50732422 C138.19204602 389.04142839 111.61282456 404.46981141 83 416 C81.79859375 416.495 80.5971875 416.99 79.359375 417.5 C48.23110819 429.53024804 11.79432305 432.00373541 -21 427 C-22.25941406 426.81695312 -23.51882812 426.63390625 -24.81640625 426.4453125 C-79.35853126 417.38292865 -129.35789047 385.84202043 -161.47167969 340.94238281 C-173.80829488 323.47145378 -183.053964 305.2173822 -190 285 C-190.42539063 283.77676025 -190.42539063 283.77676025 -190.859375 282.52880859 C-195.60806906 268.63271861 -198.07520682 254.53447219 -200 240 C-200.10530029 239.23026855 -200.21060059 238.46053711 -200.3190918 237.66748047 C-202.296825 221.91945018 -201.47754161 205.64010495 -199 190 C-198.86577637 189.1145752 -198.73155273 188.22915039 -198.59326172 187.31689453 C-191.54153525 141.3283927 -170.75301809 102.69321741 -139 69 C-138.31035156 68.2678125 -137.62070313 67.535625 -136.91015625 66.78125 C-131.66276638 61.37289725 -125.95998878 56.6008726 -120 52 C-119.37367676 51.51370117 -118.74735352 51.02740234 -118.10205078 50.52636719 C-94.89856016 32.68266584 -69.16467238 20.63809195 -41 13 C-39.34677734 12.53980469 -39.34677734 12.53980469 -37.66015625 12.0703125 C-32.54622531 10.76662971 -27.47216771 9.9117025 -22.234375 9.296875 C-21.19966064 9.17401123 -20.16494629 9.05114746 -19.09887695 8.92456055 C-17.0238479 8.68691532 -14.94676519 8.46644451 -12.86791992 8.26489258 C-7.25552572 7.69876081 -7.25552572 7.69876081 -2.37890625 5.08984375 C-0.84169784 2.95596412 -0.84169784 2.95596412 0 0 Z " fill="#DAECFE" transform="translate(246,38)"/>
<path d="M0 0 C-4.79150391 4.80908203 -4.79150391 4.80908203 -6.66796875 6.52734375 C-21.56296553 20.35020708 -30.67553048 40.19187564 -38.0625 58.75 C-38.66972933 60.25024495 -39.27797738 61.75007795 -39.88720703 63.24951172 C-42.42656861 69.51379709 -44.92541299 75.79363349 -47.39453125 82.0859375 C-57.16657663 106.98371312 -67.19108957 128.75642086 -92.609375 140.6953125 C-104.95504381 146.02285639 -117.59680911 148.75597728 -130.875 150.4375 C-139.84591082 151.61621826 -148.01215782 152.85081014 -153.95703125 160.32421875 C-157.958718 165.87405374 -159.77061378 172.14741606 -161.75 178.625 C-162.17018603 179.96553954 -162.59051841 181.30603322 -163.01098633 182.64648438 C-166.22938469 193.02290763 -169.17702194 203.4810459 -172.00524902 213.96990967 C-172.45758371 215.64736806 -172.91351879 217.32386001 -173.37316895 218.99932861 C-174.01730841 221.3605248 -174.64237403 223.72594492 -175.26171875 226.09375 C-175.45386459 226.79047821 -175.64601044 227.48720642 -175.84397888 228.20504761 C-177.00763297 232.7749675 -177.08303278 236.40831386 -176 241 C-174.08261145 242.96287824 -174.08261145 242.96287824 -172 244 C-173.12276571 251.05909078 -174.37563401 258.03843148 -176 265 C-176.7425 264.9175 -177.485 264.835 -178.25 264.75 C-181.07942173 264.75394607 -181.07942173 264.75394607 -183.07641602 266.64746094 C-185.35782733 269.43762206 -185.85481083 271.36453355 -186.52734375 274.890625 C-186.75945557 276.06294678 -186.99156738 277.23526855 -187.23071289 278.44311523 C-187.46395264 279.69938721 -187.69719238 280.95565918 -187.9375 282.25 C-188.19294972 283.56159788 -188.45005003 284.87287529 -188.70874023 286.18383789 C-189.23282842 288.84737638 -189.74976079 291.51213945 -190.26074219 294.17822266 C-191.87097543 302.50272436 -193.62917885 310.79734244 -195.38671875 319.09179688 C-195.80799971 321.08952729 -196.22440397 323.08829042 -196.63671875 325.08789062 C-197.2649166 328.12418024 -197.9115821 331.1560104 -198.5625 334.1875 C-198.84105835 335.56023071 -198.84105835 335.56023071 -199.12524414 336.96069336 C-199.31207764 337.81284424 -199.49891113 338.66499512 -199.69140625 339.54296875 C-199.84810791 340.28571045 -200.00480957 341.02845215 -200.16625977 341.79370117 C-201.33763928 344.89348351 -202.57619442 346.71557866 -205 349 C-207.7711356 349.49801067 -209.92197107 349.68051101 -212.6875 349.62890625 C-213.42701904 349.63131821 -214.16653809 349.63373016 -214.9284668 349.63621521 C-216.48849868 349.63523782 -218.04856571 349.62186956 -219.60839844 349.59692383 C-221.99273797 349.56260453 -224.37337127 349.57626742 -226.7578125 349.59570312 C-228.2760574 349.58880438 -229.79429276 349.57913172 -231.3125 349.56640625 C-232.37827271 349.57384605 -232.37827271 349.57384605 -233.46557617 349.58143616 C-236.67981539 349.50517799 -238.6822463 349.21843508 -241.35498047 347.38110352 C-243.40228091 344.4177136 -244.15425625 341.83698895 -245.0078125 338.3359375 C-245.17064728 337.68072113 -245.33348206 337.02550476 -245.50125122 336.35043335 C-246.01926694 334.23753599 -246.51302683 332.12025445 -247 330 C-247.16028687 329.30765259 -247.32057373 328.61530518 -247.48571777 327.90197754 C-248.47982288 323.57891678 -249.4355437 319.24804802 -250.37722778 314.91329956 C-251.23838371 310.95449538 -252.11322401 306.99871974 -252.98828125 303.04296875 C-253.16127243 302.26065384 -253.33426361 301.47833893 -253.51249695 300.6723175 C-257.64091259 282.05291142 -262.30669313 263.56960466 -267.17382812 245.13085938 C-267.69075624 243.17190957 -268.2054454 241.21236601 -268.71679688 239.25195312 C-281.36496136 190.82231462 -295.5637764 140.16827001 -328 101 C-329.00974346 99.67403019 -330.01453397 98.34411104 -331 97 C-326.67934 98.46151715 -323.35690165 100.76618432 -319.8125 103.5625 C-319.24515137 104.00577637 -318.67780273 104.44905273 -318.09326172 104.90576172 C-310.01389611 111.28253553 -302.49111228 117.99058034 -296 126 C-295.27554688 126.87527344 -294.55109375 127.75054687 -293.8046875 128.65234375 C-271.38907037 156.65384618 -256.15920208 190.78335516 -246 225 C-245.74831055 225.83869629 -245.49662109 226.67739258 -245.23730469 227.54150391 C-240.98873501 241.83282181 -237.45803675 256.22117868 -234.39697266 270.80664062 C-234.12675293 272.06154297 -233.8565332 273.31644531 -233.578125 274.609375 C-233.34512695 275.72280273 -233.11212891 276.83623047 -232.87207031 277.98339844 C-231.52676306 282.63698645 -230.05022376 285.29985082 -226 288 C-221.91701774 288.55909461 -221.91701774 288.55909461 -218 288 C-213.31780003 284.20201196 -211.92528877 280.55878971 -210.7890625 274.82421875 C-210.61551239 274.03067993 -210.44196228 273.23714111 -210.26315308 272.41955566 C-209.89358078 270.72393658 -209.5319049 269.02658024 -209.17749023 267.32772827 C-208.24592072 262.87596422 -207.24873557 258.43885969 -206.2578125 254 C-206.06394958 253.12530563 -205.87008667 252.25061127 -205.67034912 251.34941101 C-203.30228229 240.73598457 -200.34105373 230.34591692 -197 220 C-196.67064453 218.97229492 -196.34128906 217.94458984 -196.00195312 216.88574219 C-184.08691242 180.10887072 -167.68119024 142.59028335 -141 114 C-140.49645996 113.45408203 -139.99291992 112.90816406 -139.47412109 112.34570312 C-131.99868138 104.31610132 -124.24089855 97.91368935 -115 92 C-110.77405066 89.27786033 -110.77405066 89.27786033 -107 86 C-106.43176945 81.697683 -106.53237147 79.6868294 -109 76.0625 C-112.90506529 73.37776761 -115.48530403 73.25445388 -120 74 C-149.80161717 80.38121188 -174.95193988 97.47357487 -196 119 C-196.33 119 -196.66 119 -197 119 C-196.46919591 112.80728566 -195.45003514 107.31034797 -193.4375 101.4375 C-193.17501465 100.66446533 -192.9125293 99.89143066 -192.64208984 99.0949707 C-182.47666561 70.19460472 -163.03513914 44.33632681 -137 28 C-136.08661865 27.42475586 -136.08661865 27.42475586 -135.15478516 26.83789062 C-120.24733339 17.61774175 -103.94630128 11.32963304 -87 7 C-85.25009766 6.49533203 -85.25009766 6.49533203 -83.46484375 5.98046875 C-56.15250014 -1.56078848 -28.06278422 -0.34919552 0 0 Z " fill="#6AC943" transform="translate(480,79)"/>
<path d="M0 0 C1.09248047 0.35336426 1.09248047 0.35336426 2.20703125 0.71386719 C29.46324859 9.60224903 57.06468048 22.16732452 79 41 C79.33 41.66 79.66 42.32 80 43 C77.6498281 43.7047491 75.29658167 44.3887943 72.9375 45.0625 C72.28072266 45.26166016 71.62394531 45.46082031 70.94726562 45.66601562 C66.32136836 46.96491289 62.7683194 47.16926492 58 46 C55.83203125 44.7578125 55.83203125 44.7578125 53.8125 43.125 C27.6484462 23.91445599 -5.6879623 12.66070774 -37.625 8.25 C-38.54909668 8.12230225 -39.47319336 7.99460449 -40.42529297 7.86303711 C-45.31368471 7.22846482 -50.07188815 6.67915939 -55 7 C-57.36497439 8.86708505 -58.66030715 10.32061431 -60 13 C-63.27036728 13.14510162 -66.53991007 13.23399373 -69.8125 13.3125 C-70.74126953 13.35439453 -71.67003906 13.39628906 -72.62695312 13.43945312 C-75.17695924 13.48548212 -77.49477771 13.48415402 -80 13 C-82.01171875 10.54296875 -82.01171875 10.54296875 -83 8 C-97.35414822 0.82292589 -127.54771144 12.55924459 -141.625 17.125 C-171.92742699 27.52825202 -199.02005746 43.63602935 -222.32421875 65.51171875 C-224.56621418 67.59661085 -226.8467535 69.59110206 -229.1875 71.5625 C-269.38455705 106.83746843 -291.41755341 164.6852811 -295 217 C-295.67209445 231.77530713 -295.2068862 246.3786105 -293 261 C-292.88172852 261.85029785 -292.76345703 262.7005957 -292.64160156 263.57666016 C-287.28996283 301.56240124 -272.31746684 339.10221895 -248 369 C-246.96359375 370.32064453 -246.96359375 370.32064453 -245.90625 371.66796875 C-237.53733865 382.17459115 -228.47924222 392.54783054 -218 401 C-216.90217952 401.90995815 -215.80454106 402.82013593 -214.70703125 403.73046875 C-181.97186026 430.64345266 -143.83181018 447.36003013 -102 454 C-100.88625 454.17789063 -100.88625 454.17789063 -99.75 454.359375 C-80.06471296 457.35496216 -59.65671927 457.00713893 -40 454 C-39.11779785 453.87109375 -38.2355957 453.7421875 -37.32666016 453.609375 C6.65424084 447.0723892 47.96730161 428.31594675 80.7421875 398.0703125 C82.76475254 396.21571134 84.83483984 394.44964839 86.9375 392.6875 C118.17319776 365.3484084 139.33026554 323.74466905 149 284 C149.24121582 283.02901367 149.48243164 282.05802734 149.73095703 281.05761719 C153.67191188 264.43763248 154.4555423 248.26252672 154.4375 231.25 C154.43772156 230.27194397 154.43794312 229.29388794 154.43817139 228.28619385 C154.39810568 211.69376639 153.31239772 195.70990054 149.25 179.5625 C148.98469482 178.49394775 148.71938965 177.42539551 148.44604492 176.32446289 C144.59159217 161.1199643 139.45241189 147.22960876 132.69458008 133.05639648 C132.23204834 132.08259033 131.7695166 131.10878418 131.29296875 130.10546875 C130.66684692 128.80838989 130.66684692 128.80838989 130.02807617 127.48510742 C128.27537608 123.24840966 127.70399377 120.90923417 129.14453125 116.484375 C129.68681802 115.23355296 130.24322928 113.98877421 130.8125 112.75 C131.08642578 112.11320312 131.36035156 111.47640625 131.64257812 110.8203125 C133.71851504 106.14074248 133.71851504 106.14074248 136 105 C150.44082404 130.36587402 161.63084881 156.1359135 167 185 C167.29197266 186.4859668 167.29197266 186.4859668 167.58984375 188.00195312 C172.59501176 214.02555541 173.19018866 241.64526068 168.40576172 267.76855469 C168.02639557 269.85484022 167.6951155 271.94242386 167.37890625 274.0390625 C163.2447765 299.25468621 154.01746382 323.53594363 142 346 C141.38640625 347.15628906 140.7728125 348.31257813 140.140625 349.50390625 C109.86295809 404.49165255 57.02092186 444.93731689 -2.79638672 462.69848633 C-34.22472894 471.76913891 -68.46073936 475.17702308 -100.91064453 470.30761719 C-103.08175524 469.98796312 -105.25576603 469.71511511 -107.43359375 469.4453125 C-128.10787734 466.72159609 -147.9514251 460.35663666 -167 452 C-167.7312207 451.68450195 -168.46244141 451.36900391 -169.21582031 451.04394531 C-227.12222203 425.86157593 -271.53276374 376.06954031 -295.05078125 318.125 C-300.85530435 303.25615679 -305.08638056 287.68431023 -308 272 C-308.14953125 271.24154785 -308.2990625 270.4830957 -308.453125 269.70166016 C-319.86510516 210.02241478 -303.76936319 145.78457792 -270 96 C-256.18188815 75.84352753 -239.37317672 56.96891496 -220 42 C-219.11441406 41.29746094 -218.22882813 40.59492187 -217.31640625 39.87109375 C-191.07277647 19.52409091 -161.17002737 5.0924603 -129 -3 C-127.24947023 -3.53995214 -125.49940512 -4.08141513 -123.75 -4.625 C-85.03636301 -15.1887211 -37.93625612 -12.45298842 0 0 Z " fill="#4BBF20" transform="translate(326,25)"/>
<path d="M0 0 C-0.54599854 0.20979492 -1.09199707 0.41958984 -1.65454102 0.63574219 C-33.7801455 13.09472129 -61.58944284 29.51375119 -86 54 C-86.804375 54.75796875 -87.60875 55.5159375 -88.4375 56.296875 C-101.73712038 69.02882866 -111.9079031 84.06859056 -121 100 C-121.40202637 100.70092773 -121.80405273 101.40185547 -122.21826172 102.12402344 C-131.46395329 118.41931653 -138.18553731 135.44966575 -142.45751953 153.68847656 C-142.99337279 155.97176127 -143.55576175 158.24729731 -144.12109375 160.5234375 C-157.21277133 214.52072097 -146.10903486 273.2117751 -117.5 320.4375 C-113.05174996 327.60772147 -108.26221136 334.39865959 -103 341 C-101.89011719 342.41539062 -101.89011719 342.41539062 -100.7578125 343.859375 C-96.37029522 349.35515789 -91.76379655 354.39080429 -86.65234375 359.22265625 C-85 361 -85 361 -85 363 C-84.40735352 363.26321045 -83.81470703 363.5264209 -83.20410156 363.79760742 C-80.90467663 365.05200128 -79.51522292 366.33288158 -77.734375 368.23828125 C-58.38684079 388.12553148 -30.87516421 402.79649848 -5 412 C-5 412.66 -5 413.32 -5 414 C-51.77682569 409.52665539 -98.22030916 377.67230667 -127.96484375 342.5703125 C-144.82162358 321.9765147 -157.36779029 299.12522003 -166 274 C-166.42539063 272.77676025 -166.42539063 272.77676025 -166.859375 271.52880859 C-171.60806906 257.63271861 -174.07520682 243.53447219 -176 229 C-176.10530029 228.23026855 -176.21060059 227.46053711 -176.3190918 226.66748047 C-178.296825 210.91945018 -177.47754161 194.64010495 -175 179 C-174.86577637 178.1145752 -174.73155273 177.22915039 -174.59326172 176.31689453 C-167.54153525 130.3283927 -146.75301809 91.69321741 -115 58 C-114.31035156 57.2678125 -113.62070313 56.535625 -112.91015625 55.78125 C-107.66276638 50.37289725 -101.95998878 45.6008726 -96 41 C-95.37367676 40.51370117 -94.74735352 40.02740234 -94.10205078 39.52636719 C-70.92482029 21.70286012 -45.16057566 9.57371914 -17 2 C-15.97277832 1.7230127 -15.97277832 1.7230127 -14.92480469 1.44042969 C-4.57280252 -1.29534451 -4.57280252 -1.29534451 0 0 Z " fill="#B3DAFC" transform="translate(222,49)"/>
<path d="M0 0 C22.17556253 25.01993397 30.50557037 65.88952619 35 98 C35.1045752 98.69053467 35.20915039 99.38106934 35.31689453 100.0925293 C36.38801401 108.06844131 36.24206552 116.15450667 36.25 124.1875 C36.25133942 124.98724243 36.25267883 125.78698486 36.25405884 126.61096191 C36.24962393 138.84213849 35.61411069 150.71082026 33.40576172 162.76855469 C33.02639557 164.85484022 32.6951155 166.94242386 32.37890625 169.0390625 C28.2447765 194.25468621 19.01746382 218.53594363 7 241 C6.07960938 242.73443359 6.07960938 242.73443359 5.140625 244.50390625 C-25.13704191 299.49165255 -77.97907814 339.93731689 -137.79638672 357.69848633 C-169.59860291 366.87704409 -208.53306947 373.57471592 -240 361 C-240.94681641 360.63551758 -241.89363281 360.27103516 -242.86914062 359.89550781 C-258.84424754 353.71509315 -274.85462831 346.77235457 -289 337 C-287 336 -287 336 -285.19433594 336.44970703 C-284.10040527 336.84971924 -284.10040527 336.84971924 -282.984375 337.2578125 C-282.15615234 337.55147705 -281.32792969 337.8451416 -280.47460938 338.14770508 C-279.57548828 338.4702124 -278.67636719 338.79271973 -277.75 339.125 C-244.86980857 350.50375648 -209.46197072 354.27208698 -175 349 C-174.11779785 348.87109375 -173.2355957 348.7421875 -172.32666016 348.609375 C-128.34575916 342.0723892 -87.03269839 323.31594675 -54.2578125 293.0703125 C-52.23524746 291.21571134 -50.16516016 289.44964839 -48.0625 287.6875 C-16.82680224 260.3484084 4.33026554 218.74466905 14 179 C14.36182373 177.54352051 14.36182373 177.54352051 14.73095703 176.05761719 C18.67191188 159.43763248 19.4555423 143.26252672 19.4375 126.25 C19.43772156 125.27194397 19.43794312 124.29388794 19.43817139 123.28619385 C19.39810568 106.69376639 18.31239772 90.70990054 14.25 74.5625 C13.85204224 72.95967163 13.85204224 72.95967163 13.44604492 71.32446289 C9.59159217 56.1199643 4.45241189 42.22960876 -2.30541992 28.05639648 C-2.99921753 26.59568726 -2.99921753 26.59568726 -3.70703125 25.10546875 C-4.33315308 23.80838989 -4.33315308 23.80838989 -4.97192383 22.48510742 C-6.73146458 18.23187415 -7.30747703 15.91632228 -5.8203125 11.484375 C-5.26877261 10.23351419 -4.70324987 8.98873972 -4.125 7.75 C-3.84269531 7.11320313 -3.56039063 6.47640625 -3.26953125 5.8203125 C-1.19148166 1.19148166 -1.19148166 1.19148166 0 0 Z " fill="#69C742" transform="translate(461,130)"/>
<path d="M0 0 C4.32066 1.46151715 7.64309835 3.76618432 11.1875 6.5625 C11.75484863 7.00577637 12.32219727 7.44905273 12.90673828 7.90576172 C24.37382838 16.95635348 36.45613283 27.14033207 42 41 C42.67877706 42.40592594 43.36888406 43.80640425 44.06640625 45.203125 C58.46050058 74.17178562 67.48926616 105.46082681 75.390625 136.73828125 C76.79123977 142.25800712 78.33217554 147.72442748 79.9375 153.1875 C86.33520382 175.16615277 91.41758561 197.5088582 96.39453125 219.84375 C98.79309863 230.59347079 101.31850826 241.31709133 104 252 C102.08458862 252.10841951 100.16740227 252.18578079 98.25 252.25 C97.18265625 252.29640625 96.1153125 252.3428125 95.015625 252.390625 C91.19779986 251.89608807 90.39778434 250.96111558 88 248 C86.87060547 244.93896484 86.87060547 244.93896484 85.9921875 241.3359375 C85.82935272 240.68072113 85.66651794 240.02550476 85.49874878 239.35043335 C84.98073306 237.23753599 84.48697317 235.12025445 84 233 C83.83971313 232.30765259 83.67942627 231.61530518 83.51428223 230.90197754 C82.52017712 226.57891678 81.5644563 222.24804802 80.62277222 217.91329956 C79.76161629 213.95449538 78.88677599 209.99871974 78.01171875 206.04296875 C77.83872757 205.26065384 77.66573639 204.47833893 77.48750305 203.6723175 C73.35908741 185.05291142 68.69330687 166.56960466 63.82617188 148.13085938 C63.30924376 146.17190957 62.7945546 144.21236601 62.28320312 142.25195312 C49.63503864 93.82231462 35.4362236 43.16827001 3 4 C1.99025654 2.67403019 0.98546603 1.34411104 0 0 Z " fill="#4CC020" transform="translate(149,176)"/>
<path d="M0 0 C0.72832031 0.23557617 1.45664062 0.47115234 2.20703125 0.71386719 C29.46324859 9.60224903 57.06468048 22.16732452 79 41 C79.33 41.66 79.66 42.32 80 43 C77.6498281 43.7047491 75.29658167 44.3887943 72.9375 45.0625 C71.95233398 45.36124023 71.95233398 45.36124023 70.94726562 45.66601562 C66.32136836 46.96491289 62.7683194 47.16926492 58 46 C55.83203125 44.7578125 55.83203125 44.7578125 53.8125 43.125 C27.6484462 23.91445599 -5.6879623 12.66070774 -37.625 8.25 C-38.54909668 8.12230225 -39.47319336 7.99460449 -40.42529297 7.86303711 C-45.31368471 7.22846482 -50.07188815 6.67915939 -55 7 C-57.36497439 8.86708505 -58.66030715 10.32061431 -60 13 C-63.27036728 13.14510162 -66.53991007 13.23399373 -69.8125 13.3125 C-70.74126953 13.35439453 -71.67003906 13.39628906 -72.62695312 13.43945312 C-75.17695924 13.48548212 -77.49477771 13.48415402 -80 13 C-82.01171875 10.54296875 -82.01171875 10.54296875 -83 8 C-96.34322364 1.32838818 -124.3996826 11.79908548 -137.39453125 15.98828125 C-140.20377978 16.92586068 -142.99716336 17.89102891 -145.78051758 18.90283203 C-147.83762385 19.64780773 -149.91706256 20.33063715 -152 21 C-152.66 20.67 -153.32 20.34 -154 20 C-135.13458002 8.42953115 -116.0563406 -0.0502052 -95.10693359 -7.203125 C-93.04500976 -7.81791103 -93.04500976 -7.81791103 -92 -9 C-62.6658566 -13.94159405 -28.10310147 -9.22514852 0 0 Z " fill="#69C742" transform="translate(326,25)"/>
<path d="M0 0 C0.99 0.99 0.99 0.99 2 2 C1.9609375 4.390625 1.9609375 4.390625 1 7 C-1.3359375 8.921875 -1.3359375 8.921875 -4.375 10.75 C-28.38255086 26.00185584 -45.66863651 47.79411869 -60 72 C-60.39896484 72.6609668 -60.79792969 73.32193359 -61.20898438 74.00292969 C-80.55353176 106.22826667 -92.96553468 143.82983291 -100.36328125 180.578125 C-100.56985352 181.58456055 -100.77642578 182.59099609 -100.98925781 183.62792969 C-101.35741391 185.47247327 -101.70136716 187.32210561 -102.01464844 189.17675781 C-103.10588069 194.70697478 -104.82069599 197.48795298 -109.26757812 200.98486328 C-111.59717296 202.34992181 -113.3637463 202.47931886 -116 202 C-110.11034774 145.56891325 -85.05627599 78.85083151 -46 37 C-45.49645996 36.45408203 -44.99291992 35.90816406 -44.47412109 35.34570312 C-36.99868138 27.31610132 -29.24089855 20.91368935 -20 15 C-15.77405066 12.27786033 -15.77405066 12.27786033 -12 9 C-11.75787127 7.01871492 -11.75787127 7.01871492 -11.875 4.875 C-11.91625 3.59625 -11.9575 2.3175 -12 1 C-3.63741339 -0.31177829 -3.63741339 -0.31177829 0 0 Z " fill="#4CBF20" transform="translate(385,156)"/>
<path d="M0 0 C-0.50748779 0.30591064 -1.01497559 0.61182129 -1.5378418 0.92700195 C-12.4486713 7.54646036 -22.6294725 14.32032909 -32 23 C-33.41152344 24.28970703 -33.41152344 24.28970703 -34.8515625 25.60546875 C-42.27867948 32.6873817 -48.22016123 40.55292189 -54 49 C-54.56332031 49.80566406 -55.12664062 50.61132812 -55.70703125 51.44140625 C-59.43119998 57.1764209 -62.08151571 63.43805654 -64.8125 69.6875 C-65.21033691 70.59129395 -65.60817383 71.49508789 -66.01806641 72.42626953 C-67.69160841 76.36021763 -68.95275668 79.58972903 -69.4453125 83.8671875 C-70.18124285 88.02363917 -71.69745282 88.98893059 -75.0625 91.4375 C-79.59835401 94.87930839 -83.60951599 98.45241164 -87.5390625 102.56640625 C-89 104 -89 104 -90 104 C-89.46919591 97.80728566 -88.45003514 92.31034797 -86.4375 86.4375 C-86.17501465 85.66446533 -85.9125293 84.89143066 -85.64208984 84.0949707 C-73.07564488 48.36848743 -47.50817385 20.95169923 -14 4 C-2.69410456 -1.34705228 -2.69410456 -1.34705228 0 0 Z " fill="#4BBF20" transform="translate(373,94)"/>
<path d="M0 0 C6.6 0 13.2 0 20 0 C20 0.33 20 0.66 20 1 C17.6263603 1.50734284 15.25142575 2.00602386 12.875 2.5 C11.87726563 2.71462891 11.87726563 2.71462891 10.859375 2.93359375 C6.83943578 3.7612283 3.10095101 4.15330658 -1 4 C-0.67 2.68 -0.34 1.36 0 0 Z " fill="#B5DBFD" transform="translate(246,38)"/>
<path d="M0 0 C2.96404505 2.80804268 5.44499019 5.18315774 7 9 C6.01 9 5.02 9 4 9 C0 2.25 0 2.25 0 0 Z " fill="#60BB3B" transform="translate(188,212)"/>
</svg>
