<?xml version="1.0" encoding="UTF-8"?>
<svg version="1.1" xmlns="http://www.w3.org/2000/svg" width="512" height="512">
<path d="M0 0 C8.17109004 7.42701102 13.92946349 18.15350431 15.62890625 29.10546875 C15.75464276 31.7971615 15.7252464 34.40794443 15.62890625 37.10546875 C16.33660156 37.21890625 17.04429687 37.33234375 17.7734375 37.44921875 C28.21097051 39.84799515 38.3918748 46.67515042 44.2890625 55.625 C51.22381596 68.78687901 50.64137608 81.14159624 46.31787109 95.11572266 C42.21192009 106.97380227 35.06697675 116.41071656 23.8828125 122.20703125 C20.4413044 123.5788629 17.31838817 123.90422428 13.62890625 124.10546875 C13.78488281 124.6571875 13.94085938 125.20890625 14.1015625 125.77734375 C16.94987585 138.35211973 13.32661039 155.71006047 7.62890625 167.10546875 C8.51674805 167.08452148 9.40458984 167.06357422 10.31933594 167.04199219 C13.6218508 166.97371198 16.92361295 166.92362005 20.2265625 166.88574219 C21.65441746 166.86565893 23.0821905 166.83838623 24.50976562 166.80371094 C26.56530993 166.75504206 28.6197648 166.73246908 30.67578125 166.71484375 C31.91166992 166.69389648 33.14755859 166.67294922 34.42089844 166.65136719 C37.62890625 167.10546875 37.62890625 167.10546875 39.96240234 168.68286133 C42.13872114 171.84658993 42.61651658 174.47153256 43.24609375 178.2578125 C43.36483856 178.95865463 43.48358337 179.65949677 43.60592651 180.38157654 C44.80812158 187.70369174 45.70041842 195.06758222 46.50927734 202.44213867 C46.75426951 204.67127399 47.00926918 206.89909894 47.265625 209.12695312 C49.15677465 225.7846153 49.83994783 242.27752922 49.86914062 259.0378418 C49.8788576 262.40112952 49.90998645 265.76380755 49.94140625 269.12695312 C50.02073965 285.19067199 48.83002526 300.48446361 44.06640625 315.91796875 C43.69177246 317.14036255 43.69177246 317.14036255 43.30957031 318.38745117 C30.6076395 357.8198062 1.98339799 389.25064336 -34.3984375 408.234375 C-41.81853613 411.97383779 -49.36800309 414.97214589 -57.30859375 417.41796875 C-58.41400513 417.76347778 -58.41400513 417.76347778 -59.54174805 418.1159668 C-76.02279251 422.89524169 -92.30417651 423.54362222 -109.34375 423.49365234 C-111.7014083 423.49772686 -114.05906469 423.50307363 -116.41671753 423.50958252 C-122.76794573 423.52315727 -129.11902631 423.51799841 -135.47025681 423.50844526 C-141.4691863 423.50157499 -147.46810289 423.50684512 -153.46703207 423.51122685 C-166.07196466 423.51974667 -178.6768314 423.51000047 -191.28175318 423.49382575 C-202.05733452 423.48042567 -212.83281885 423.48275473 -223.60839844 423.49658203 C-236.17347906 423.51269848 -248.73850221 423.51892302 -261.30359173 423.50974524 C-267.9359848 423.5050308 -274.56832409 423.50437866 -281.20071411 423.51435471 C-287.43897201 423.52308418 -293.67704851 423.51689415 -299.91528702 423.49967194 C-302.19111964 423.49573883 -304.4669678 423.49678589 -306.74279404 423.50345993 C-323.30974569 423.54752758 -339.25023164 422.4608708 -355.18359375 417.54296875 C-355.99852295 417.29321289 -356.81345215 417.04345703 -357.65307617 416.78613281 C-373.42243102 411.70651598 -388.0925755 403.97254224 -401.37109375 394.10546875 C-402.30695313 393.41195313 -403.2428125 392.7184375 -404.20703125 392.00390625 C-431.60337595 370.55280937 -451.61167637 340.15124979 -459.37109375 306.10546875 C-459.76385498 304.39955566 -459.76385498 304.39955566 -460.16455078 302.65917969 C-462.8673916 289.90013127 -462.83791034 277.22416475 -462.74609375 264.23046875 C-462.74210571 263.08884277 -462.73811768 261.9472168 -462.73400879 260.77099609 C-462.65359316 241.07810194 -461.72974421 221.65486417 -459.37109375 202.10546875 C-459.29141357 201.43326294 -459.2117334 200.76105713 -459.12963867 200.06848145 C-458.58062886 195.45061376 -457.99034884 190.83954728 -457.37109375 186.23046875 C-457.21737305 185.0703125 -457.06365234 183.91015625 -456.90527344 182.71484375 C-456.67179199 181.11769531 -456.67179199 181.11769531 -456.43359375 179.48828125 C-456.23443359 178.10213623 -456.23443359 178.10213623 -456.03125 176.68798828 C-455.02689909 172.75898534 -453.22238061 169.95675561 -450.37109375 167.10546875 C-447.28584436 166.92993456 -444.29145173 166.87424078 -441.20703125 166.91015625 C-439.84621933 166.91440109 -439.84621933 166.91440109 -438.45791626 166.91873169 C-435.55384252 166.92994722 -432.65007463 166.95505412 -429.74609375 166.98046875 C-427.77995236 166.99049678 -425.81380615 166.99962294 -423.84765625 167.0078125 C-419.02201716 167.02989103 -414.19660735 167.0644301 -409.37109375 167.10546875 C-409.38333984 165.84323486 -409.39558594 164.58100098 -409.40820312 163.28051758 C-409.50786259 153.00838083 -403.76116925 144.72782521 -397.37109375 137.10546875 C-396.42234375 136.32171875 -395.47359375 135.53796875 -394.49609375 134.73046875 C-391.43995966 130.95524428 -391.53019355 127.18933383 -390.9375 122.453125 C-389.32896993 112.94615761 -383.75769449 106.02757702 -376.37109375 100.10546875 C-367.30848429 93.9147343 -357.96169485 90.01788405 -347.37109375 87.10546875 C-346.23671875 86.78578125 -345.10234375 86.46609375 -343.93359375 86.13671875 C-335.96653201 84.21608779 -328.29212868 83.83121855 -320.12109375 83.79296875 C-318.63041382 83.78463013 -318.63041382 83.78463013 -317.10961914 83.77612305 C-312.02074929 83.82553775 -307.42750487 84.24911114 -302.4609375 85.38671875 C-298.30757016 86.25643022 -298.30757016 86.25643022 -294.453125 84.5 C-293.70417969 83.64792969 -292.95523438 82.79585938 -292.18359375 81.91796875 C-287.75705791 77.35090796 -283.26272613 73.67623952 -277.99609375 70.10546875 C-276.97866089 69.40321167 -276.97866089 69.40321167 -275.94067383 68.68676758 C-272.52369879 66.37529693 -269.30798653 64.44310027 -265.37109375 63.10546875 C-267.33846203 59.59231111 -269.30899319 56.19773244 -271.55859375 52.85546875 C-274.49651493 48.39793317 -274.9079217 44.33457065 -274.37109375 39.10546875 C-272.36812707 33.4303965 -268.75759196 29.79871786 -263.37109375 27.10546875 C-260.69873165 26.97131403 -258.04858887 27.06228334 -255.37109375 27.10546875 C-255.2009375 26.52539062 -255.03078125 25.9453125 -254.85546875 25.34765625 C-252.91112809 19.0802603 -250.71465035 14.33184752 -245.87109375 9.73046875 C-240.7040171 7.33146888 -235.97318217 7.35594795 -230.37109375 8.10546875 C-227.08239665 9.65674097 -225.12919378 11.22101871 -222.77734375 13.96484375 C-219.64921809 17.8110821 -219.64921809 17.8110821 -215.171875 19.26171875 C-213.63332804 19.03185095 -212.09993222 18.76452334 -210.57421875 18.4609375 C-207.06796327 17.89521188 -204.59622247 18.74099122 -201.37109375 20.10546875 C-196.57917085 24.02613294 -193.71324121 28.14019075 -192.99609375 34.35546875 C-193.47828935 39.17742474 -194.82395719 43.52852309 -196.37109375 48.10546875 C-195.69046875 48.13125 -195.00984375 48.15703125 -194.30859375 48.18359375 C-181.32055803 48.94353201 -168.8903762 51.97857202 -157.37109375 58.10546875 C-156.53191406 58.54632813 -155.69273437 58.9871875 -154.828125 59.44140625 C-141.86308229 66.71791084 -132.12859452 76.96637153 -127.1953125 91.07421875 C-125.05675245 98.93925478 -123.98361078 106.45188481 -123.99609375 114.60546875 C-123.99552979 115.55164063 -123.99496582 116.4978125 -123.99438477 117.47265625 C-124.11575974 125.38922282 -125.40158053 132.71563518 -127.3984375 140.35546875 C-128.7066688 145.17921356 -128.7066688 145.17921356 -129.37109375 150.10546875 C-128.14186864 152.31836079 -128.14186864 152.31836079 -126.18359375 154.10546875 C-123.10753969 157.21390232 -120.7679743 160.44548108 -118.37109375 164.10546875 C-118.24057617 162.80512695 -118.11005859 161.50478516 -117.97558594 160.16503906 C-117.48238603 155.28806786 -116.97107408 150.41312985 -116.45458984 145.53857422 C-116.23456278 143.43849156 -116.01928955 141.33790467 -115.80908203 139.23681641 C-114.52684501 126.45698489 -113.34342641 114.67146558 -107.37109375 103.10546875 C-107.87898438 102.76515625 -108.386875 102.42484375 -108.91015625 102.07421875 C-118.51707897 95.30979376 -123.86156759 86.59500779 -126.37109375 75.10546875 C-127.63929362 59.51798043 -126.8168322 44.5745948 -116.37109375 32.10546875 C-110.3541904 25.34611974 -101.26635713 21.36663731 -92.37109375 20.10546875 C-89.9344261 20.03845369 -87.49607633 20.02018854 -85.05859375 20.04296875 C-83.80433594 20.05199219 -82.55007813 20.06101562 -81.2578125 20.0703125 C-80.30519531 20.08191406 -79.35257812 20.09351562 -78.37109375 20.10546875 C-78.09523438 19.20570312 -77.819375 18.3059375 -77.53515625 17.37890625 C-73.69565231 6.58191194 -65.47105061 -1.70022467 -55.37109375 -6.76953125 C-36.44521466 -15.76359197 -16.43260963 -13.12984459 0 0 Z " fill="#472B3C" transform="translate(462.37109375,88.89453125)"/>
<path d="M0 0 C0.85207031 0.48339844 1.70414063 0.96679688 2.58203125 1.46484375 C22.60759293 13.91316588 35.36357223 34.4224447 41 57 C46.50508718 80.91304043 40.73201134 104.44719923 28.2421875 124.875 C15.05083347 144.5086432 -4.06596882 157.46958649 -27 163 C-42.70028418 165.93904974 -59.90931085 165.28521832 -75 160 C-76.03640625 159.649375 -77.0728125 159.29875 -78.140625 158.9375 C-101.48819588 150.13632145 -118.01426408 132.39066308 -128.15869141 109.98681641 C-136.31343344 90.7287518 -137.61499084 65.63306297 -130 46 C-127.65159027 40.48946572 -124.95462244 35.20791795 -122 30 C-121.51660156 29.14792969 -121.03320312 28.29585937 -120.53515625 27.41796875 C-108.08683412 7.39240707 -87.5775553 -5.36357223 -65 -11 C-42.31331267 -16.22276504 -19.78055435 -11.22215638 0 0 Z " fill="#FCC83A" transform="translate(134,12)"/>
<path d="M0 0 C25.08 0 50.16 0 76 0 C80.29973677 15.04907868 80.29973677 15.04907868 81.97705078 22.19042969 C85.15532907 35.66517997 89.30362979 48.75341134 93.6328125 61.890625 C94.02629883 63.08751953 94.41978516 64.28441406 94.82519531 65.51757812 C95.59613239 67.80283301 96.39673486 70.07833733 97.22949219 72.34179688 C100.29569537 80.81136068 99.83348414 85.81138525 96.9375 94.3125 C91.97381116 111.32309788 95.25121992 128.31344521 103 144 C103.54527344 144.7115625 104.09054687 145.423125 104.65234375 146.15625 C106 148 106 148 106.0625 151 C104.05021389 160.99720868 97.61200472 169.54030237 91 177 C90.48050781 177.61359375 89.96101563 178.2271875 89.42578125 178.859375 C76.88481802 192.63232202 58.1928735 199.22647318 40 200.25390625 C19.76183687 201.02097736 1.87932947 193.55371648 -13 180 C-13.86141602 179.27586914 -14.72283203 178.55173828 -15.61035156 177.80566406 C-18.60204152 174.29314863 -18.55500533 172.70135966 -18.3828125 168.15234375 C-18.36862274 167.49980118 -18.35443298 166.84725861 -18.33981323 166.17494202 C-18.29222151 164.09428467 -18.2115499 162.01687337 -18.125 159.9375 C-17.6291267 146.59787654 -18.67767438 135.36610741 -25.0625 123.4375 C-25.41376953 122.75365234 -25.76503906 122.06980469 -26.12695312 121.36523438 C-27.62763863 118.46882624 -29.18920791 115.71618813 -31 113 C-30.64245136 103.42254749 -27.52698688 93.95662828 -24.875 84.8125 C-24.47462307 83.41034985 -24.07464583 82.00808551 -23.67504883 80.60571289 C-20.80848436 70.5928305 -17.77355407 60.63422197 -14.67602539 50.69042969 C-12.23552617 42.83983822 -10.02624662 34.96876823 -8 27 C-7.36840925 24.5315242 -6.73386771 22.06388144 -6.09448242 19.59741211 C-5.67112063 17.96390579 -5.251705 16.3293691 -4.8371582 14.69360352 C-4.64210693 13.94006592 -4.44705566 13.18652832 -4.24609375 12.41015625 C-4.07779053 11.75152588 -3.9094873 11.09289551 -3.73608398 10.41430664 C-2.66053066 6.88656308 -1.29496446 3.45323857 0 0 Z " fill="#89C726" transform="translate(258,272)"/>
<path d="M0 0 C7.92 0 15.84 0 24 0 C33.49137355 55.31179759 40.36535154 117.23308957 7 166 C4.15682391 169.81713607 1.14065581 173.42558229 -2 177 C-2.69609375 177.82886719 -3.3921875 178.65773438 -4.109375 179.51171875 C-21.07865531 199.23695881 -43.71925161 211.94514711 -68.4375 219.3125 C-69.23454346 219.55524658 -70.03158691 219.79799316 -70.8527832 220.0480957 C-84.85263541 223.98264011 -99.37460552 224.29543004 -113.81079102 224.22705078 C-115.5177103 224.2264848 -117.22463007 224.22680687 -118.93154907 224.22793579 C-123.50688683 224.22850301 -128.08211691 224.21685255 -132.65742993 224.20278788 C-137.46065535 224.19017371 -142.26388399 224.18910168 -147.06712341 224.18673706 C-156.13660996 224.18055338 -165.20604753 224.16418527 -174.27551264 224.14403808 C-184.61185809 224.12158146 -194.94820604 224.11066125 -205.28456986 224.10064721 C-226.52307377 224.07981582 -247.76153378 224.04470123 -269 224 C-266.67140603 221.67140603 -264.55737911 220.80447343 -261.5625 219.4375 C-248.57316987 213.01283731 -239.64367298 203.10248221 -232 191 C-228.74881061 192.45312754 -226.37085741 194.29849668 -223.6875 196.625 C-213.29776215 205.01612455 -201.97866355 209.97058222 -189 213 C-187.79730469 213.33644531 -187.79730469 213.33644531 -186.5703125 213.6796875 C-164.64388427 219.21819705 -141.74797082 213.13138061 -122.75 202 C-121.78320312 201.38125 -121.78320312 201.38125 -120.796875 200.75 C-118.39481024 199.74739906 -117.42706987 200.10274681 -115 201 C-113.13224057 201.80240463 -111.27865088 202.63829129 -109.4375 203.5 C-98.8532434 208.44027716 -85.69143837 208.91167095 -74.4375 205.4375 C-65.24173396 201.73581452 -56.49443337 196.44093002 -51 188 C-50.18060143 185.91937029 -49.36846238 183.8358712 -48.5625 181.75 C-46.64402702 177.65074273 -45.71407612 176.30103988 -41.48828125 174.51953125 C-38.02593666 173.62123186 -34.51116047 173.01196251 -30.98925781 172.39648438 C-16.5165639 169.51189246 -4.39077256 159.24651908 3.80078125 147.39453125 C13.30488561 132.31414297 17.08460235 115.15200819 13.11328125 97.59375 C8.91772754 81.90554699 -0.20865837 67.80298402 -14 59 C-13.37434266 51.28630365 -11.67516112 44.04799732 -9.75 36.5625 C-9.43788574 35.33144531 -9.12577148 34.10039062 -8.80419922 32.83203125 C-6.6288148 24.30443511 -4.35450122 15.80815787 -1.9453125 7.34375 C-1.25639452 4.90691615 -0.61418369 2.45673474 0 0 Z " fill="#72BBE3" transform="translate(465,272)"/>
<path d="M0 0 C7.58476323 6.64983582 12.7527398 16.44935248 14.0625 26.47265625 C14.14799676 27.97152134 14.20937051 29.47190461 14.25 30.97265625 C14.311875 31.82730469 14.37375 32.68195313 14.4375 33.5625 C14.85300973 43.02833104 12.51874069 51.85718027 10.25 60.97265625 C7.11852874 60.41655015 4.4146815 59.65672458 1.5 58.41015625 C-9.51698031 54.69491414 -22.36885989 56.1341162 -32.75 60.97265625 C-38.95508592 64.11596255 -44.04885157 67.82746282 -48.9609375 72.75 C-50.75 73.97265625 -50.75 73.97265625 -52.64501953 73.65795898 C-55.31164448 72.78980586 -57.70833536 71.50059491 -60.18164062 70.19165039 C-70.0816815 64.95533273 -79.57045104 62.04761288 -90.75 60.97265625 C-90.83636719 60.35519531 -90.92273438 59.73773438 -91.01171875 59.1015625 C-92.63092563 49.34175591 -96.67229037 40.97915828 -104.75 34.97265625 C-110.43564199 31.68449345 -116.14623705 28.64710878 -122.53515625 26.9921875 C-125.75 25.97265625 -125.75 25.97265625 -127.30859375 24.31640625 C-129.75 19.19487847 -129.75 19.19487847 -129.75 16.97265625 C-127.81107372 15.2303881 -125.87173481 13.62566921 -123.8125 12.03515625 C-123.18786865 11.55079102 -122.5632373 11.06642578 -121.91967773 10.56738281 C-87.18621414 -15.9393964 -38.30457473 -28.23874188 0 0 Z " fill="#ED2D02" transform="translate(307.75,168.02734375)"/>
<path d="M0 0 C11.10173062 8.43304538 15.69839813 22.46225474 17.90625 35.66796875 C19.75061971 49.90419744 14.47737006 65.11668392 5.87109375 76.31640625 C-3.21906014 86.99372986 -15.00144691 94.60467401 -29.09375 96.66796875 C-47.28983408 98.12881683 -61.89206444 94.45875809 -76.09375 82.66796875 C-84.48289011 75.07542355 -90.12625067 66.26141724 -90.71875 54.73046875 C-89.86960512 37.59114973 -77.93817503 23.12977892 -66.09375 11.66796875 C-59.22217009 5.82930037 -51.40746744 2.0460249 -43.09375 -1.33203125 C-42.07539063 -1.74839844 -41.05703125 -2.16476562 -40.0078125 -2.59375 C-26.81726326 -7.32839299 -12.01769859 -7.6455881 0 0 Z " fill="#ED2D02" transform="translate(208.09375,387.33203125)"/>
<path d="M0 0 C0.85207031 0.48339844 1.70414063 0.96679688 2.58203125 1.46484375 C22.60759293 13.91316588 35.36357223 34.4224447 41 57 C46.50508718 80.91304043 40.73201134 104.44719923 28.2421875 124.875 C15.05083347 144.5086432 -4.06596882 157.46958649 -27 163 C-42.70028418 165.93904974 -59.90931085 165.28521832 -75 160 C-76.03640625 159.649375 -77.0728125 159.29875 -78.140625 158.9375 C-101.48819588 150.13632145 -118.01426408 132.39066308 -128.15869141 109.98681641 C-136.31343344 90.7287518 -137.61499084 65.63306297 -130 46 C-127.65159027 40.48946572 -124.95462244 35.20791795 -122 30 C-121.51660156 29.14792969 -121.03320312 28.29585937 -120.53515625 27.41796875 C-108.08683412 7.39240707 -87.5775553 -5.36357223 -65 -11 C-42.31331267 -16.22276504 -19.78055435 -11.22215638 0 0 Z M-99 27 C-99.59039062 27.58265625 -100.18078125 28.1653125 -100.7890625 28.765625 C-114.20111231 42.96661892 -118.54706945 61.66179805 -118.2734375 80.55859375 C-117.71111318 96.59040438 -110.64037539 112.10781575 -100 124 C-99.34515625 124.74765625 -98.6903125 125.4953125 -98.015625 126.265625 C-90.12743351 134.72959689 -79.89812465 141.10377927 -69 145 C-68.18144531 145.29777344 -67.36289063 145.59554687 -66.51953125 145.90234375 C-47.43248288 151.74421892 -27.42514529 147.99893805 -10.15234375 138.84765625 C-5.72803123 136.25447184 -1.81870317 133.41673442 2 130 C2.74765625 129.34515625 3.4953125 128.6903125 4.265625 128.015625 C14.36160045 118.6064506 20.10912561 107.10610321 24 94 C24.36931641 92.7934375 24.36931641 92.7934375 24.74609375 91.5625 C29.5590478 72.44345495 24.66305107 53.67029529 15 37 C12.87470934 33.78016012 10.57104308 30.87351874 8 28 C7.01773438 26.87851562 7.01773438 26.87851562 6.015625 25.734375 C-3.3935494 15.63839955 -14.89389679 9.89087439 -28 6 C-28.804375 5.75378906 -29.60875 5.50757812 -30.4375 5.25390625 C-55.81759402 -1.13517992 -81.39381114 8.67179078 -99 27 Z " fill="#472B3B" transform="translate(134,12)"/>
<path d="M0 0 C8.1589485 4.91591321 13.33679888 11.09459636 16.171875 20.30859375 C16.69789294 24.25114976 16.85954269 28.18991071 16.85913086 32.1652832 C16.87570902 35.26539958 16.96188583 37.82884322 18.21484375 40.69140625 C21.07576417 43.05552013 24.27600657 43.77186818 27.796875 44.68359375 C35.59920485 46.91971276 42.76802011 49.57855716 47.671875 56.43359375 C51.27893339 63.34712233 51.25480341 71.25228 49.265625 78.703125 C46.48550309 86.35737089 43.21465464 93.32463735 36.546875 98.24609375 C34.32262127 99.24115463 32.57613418 99.95502622 30.171875 100.30859375 C28.563125 100.67984375 28.563125 100.67984375 26.921875 101.05859375 C21.49630438 99.97347963 20.30315436 96.78585356 17.33203125 92.33203125 C8.18125726 79.52425717 -7.02880438 71.41092259 -22.3359375 68.68359375 C-41.51703774 66.62387829 -57.05153972 70.58994373 -73.13671875 81.05078125 C-75.828125 82.30859375 -75.828125 82.30859375 -78.421875 82.1875 C-84.34042913 80.02569045 -88.67759918 75.45864701 -91.328125 69.80859375 C-94.51058162 60.47433483 -94.06494018 49.7391525 -90.2109375 40.68359375 C-87.00918391 35.18453673 -82.49754054 31.64055165 -76.578125 29.37109375 C-70.43435521 27.75075886 -63.99378842 28.19054379 -57.69628906 28.50610352 C-52.8765296 28.84082025 -52.8765296 28.84082025 -48.84375 26.6328125 C-47.75127598 24.13272773 -46.8305445 21.66335927 -46.015625 19.05859375 C-42.36280406 8.74555417 -36.24814441 2.99336529 -26.53125 -1.83203125 C-18.38664796 -4.4213556 -7.66031925 -3.71448367 0 0 Z " fill="#89C826" transform="translate(444.828125,96.69140625)"/>
<path d="M0 0 C9.51174951 8.75786717 14.85329882 19.70916175 15.91015625 32.46484375 C16.44427878 45.43066825 12.83875625 56.95985284 4.62890625 67.0703125 C4.07847656 67.75609375 3.52804687 68.441875 2.9609375 69.1484375 C-4.84428524 77.86898487 -16.94967163 83.51640654 -28.578125 84.28125 C-43.2989504 84.69592114 -55.68555904 80.64556309 -66.62109375 70.5703125 C-76.7225245 59.921989 -80.87904682 47.0422229 -80.6171875 32.59375 C-79.69806144 19.43419909 -73.72919793 8.3657032 -64.21484375 -0.6328125 C-44.75916282 -16.34701633 -19.32901913 -15.7307009 0 0 Z " fill="#694B92" transform="translate(448.37109375,347.9296875)"/>
<path d="M0 0 C3.51378592 2.69141049 5.01645855 4.98181466 6.6171875 8.9765625 C8.21349052 12.21717211 9.40205599 13.59571487 12.79296875 14.8828125 C14.25015971 15.32305046 15.71571237 15.73634058 17.1875 16.125 C25.42464782 18.65399488 33.12288662 21.44190032 38 29 C39.78372049 33.62372239 38.86550597 38.83633405 38.64453125 43.6875 C38.76348232 46.98984 38.76348232 46.98984 40.44921875 49.40625 C44.22476095 51.76524115 47.63397117 51.50468687 52 51.5 C64.14998485 51.82794258 74.01715492 54.82206935 84 62 C84 62.33 84 62.66 84 63 C76.95259884 63.10137004 69.90538548 63.17145284 62.85742188 63.21972656 C60.45956394 63.23984936 58.06175512 63.26715059 55.6640625 63.30175781 C52.21862677 63.3502449 48.77383948 63.37296241 45.328125 63.390625 C43.71855927 63.42159271 43.71855927 63.42159271 42.07647705 63.45318604 C40.57537384 63.45363922 40.57537384 63.45363922 39.04394531 63.45410156 C38.16458313 63.46298401 37.28522095 63.47186646 36.37921143 63.48101807 C33.24932696 62.84823236 32.16218034 61.27504883 30 59 C26.5 58.33333333 26.5 58.33333333 23 59 C22.42926758 59.66225586 21.85853516 60.32451172 21.27050781 61.00683594 C18.08902299 63.79970068 15.197149 63.50555594 11.171875 63.390625 C10.04836639 63.38213531 10.04836639 63.38213531 8.90216064 63.37347412 C6.517448 63.35114057 4.13425592 63.30095386 1.75 63.25 C0.13023009 63.22993091 -1.48956346 63.21168085 -3.109375 63.1953125 C-7.07349966 63.15128624 -11.03649232 63.08228298 -15 63 C-15.36351562 61.64455078 -15.36351562 61.64455078 -15.734375 60.26171875 C-16.06953125 59.08222656 -16.4046875 57.90273437 -16.75 56.6875 C-17.07484375 55.51574219 -17.3996875 54.34398437 -17.734375 53.13671875 C-19.07280419 49.81956244 -19.89408289 48.67423722 -23 47 C-26.04230823 46.49989476 -26.04230823 46.49989476 -29 47 C-29.99 47.99 -30.98 48.98 -32 50 C-32 54.29 -32 58.58 -32 63 C-52.13 63 -72.26 63 -93 63 C-91.70687595 52.65500762 -88.20786856 46.38467268 -80.125 39.8125 C-77.13983028 37.32908207 -75.45504858 35.85286752 -74.9375 31.9375 C-74.9497087 28.07843048 -74.9497087 28.07843048 -75.3125 24.5625 C-74.76778604 18.3527609 -71.38697881 14.11611597 -66.796875 10.046875 C-50.05540201 -2.37421787 -19.44630962 -10.86286526 0 0 Z " fill="#79A722" transform="translate(162,193)"/>
<path d="M0 0 C16.73016207 9.29741205 24.66543655 28.33209797 29.875 45.875 C32.83364268 59.02058605 32.38252041 73.83133806 25.4921875 85.6484375 C19.79942986 93.6182982 11.30826256 99.21592832 1.8046875 101.6171875 C-12.08701888 103.82283447 -24.44297295 101.97598192 -36 93.6796875 C-43.7406883 87.42061532 -46.84377366 79.65173647 -49 70.0625 C-50.45863974 46.79600051 -43.38345625 25.78132446 -28.25390625 8.01171875 C-20.25554198 -0.6146926 -11.25012668 -4.99039622 0 0 Z " fill="#482D3B" transform="translate(305,329.9375)"/>
<path d="M0 0 C4.9734721 0.55932665 7.60243899 2.43707822 11.54296875 5.37109375 C12.23414795 5.86673828 12.92532715 6.36238281 13.63745117 6.87304688 C15.72314642 8.376268 17.79046128 9.90212169 19.85546875 11.43359375 C21.05572082 12.31026392 22.2562245 13.18658976 23.45703125 14.0625 C26.28713563 16.15237027 29.10298408 18.24256118 31.85546875 20.43359375 C32.45746094 20.88734375 33.05945313 21.34109375 33.6796875 21.80859375 C35.60473953 24.46913077 35.32737774 26.22614725 34.85546875 29.43359375 C33.3853991 32.03788547 31.92961514 34.29494603 30.16796875 36.68359375 C29.67611084 37.37396729 29.18425293 38.06434082 28.67749023 38.77563477 C27.0838756 41.00519538 25.47067901 43.21964175 23.85546875 45.43359375 C22.78674899 46.91593799 21.71903961 48.3990112 20.65234375 49.8828125 C18.477963 52.90328017 16.29590675 55.91800684 14.109375 58.9296875 C10.98747441 63.23841101 7.91518109 67.58057486 4.85546875 71.93359375 C0.55734753 78.04250749 -3.77644964 84.12448281 -8.14453125 90.18359375 C-8.68464844 90.93447266 -9.22476563 91.68535156 -9.78125 92.45898438 C-10.78556244 93.84908434 -11.79933698 95.23241688 -12.82421875 96.60742188 C-14.29462555 98.58689343 -14.29462555 98.58689343 -15.95703125 101.44921875 C-18.3917816 103.65788514 -19.18837835 103.87683027 -22.37109375 104.12890625 C-28.06184121 103.78732198 -31.33645187 100.92600671 -35.51953125 97.30859375 C-37.08771633 96.01954296 -38.65810367 94.73316752 -40.23046875 93.44921875 C-41.03452148 92.78470703 -41.83857422 92.12019531 -42.66699219 91.43554688 C-46.71800951 88.16215881 -50.93004318 85.11664702 -55.14453125 82.05859375 C-71.39593944 70.18218556 -71.39593944 70.18218556 -75.14453125 66.43359375 C-76.03172443 59.85357769 -74.5269908 56.7084136 -70.57250977 51.47998047 C-69.6181604 50.28139404 -69.6181604 50.28139404 -68.64453125 49.05859375 C-68.00249756 48.22730957 -67.36046387 47.39602539 -66.69897461 46.53955078 C-65.4292539 44.89992912 -64.15203529 43.26608118 -62.86669922 41.63867188 C-61.42336619 39.79061632 -60.03618624 37.92360197 -58.6796875 36.01171875 C-58.02871094 35.1196875 -57.37773438 34.22765625 -56.70703125 33.30859375 C-56.17207031 32.56351563 -55.63710938 31.8184375 -55.0859375 31.05078125 C-52.09591416 28.56009783 -50.00828179 28.3811629 -46.14453125 28.43359375 C-43.37014358 29.72024536 -41.09116759 31.47135337 -38.70703125 33.37109375 C-38.07087891 33.85255859 -37.43472656 34.33402344 -36.77929688 34.83007812 C-35.22080713 36.01359289 -33.68071451 37.22126605 -32.14453125 38.43359375 C-28.30321798 34.91920076 -25.52055518 30.87980332 -22.58203125 26.62109375 C-21.52194046 25.10209134 -20.46071672 23.58387904 -19.3984375 22.06640625 C-18.59237061 20.91446777 -18.59237061 20.91446777 -17.77001953 19.73925781 C-15.22530099 16.12971712 -12.62964286 12.5585256 -10.01953125 8.99609375 C-9.55861084 8.36405029 -9.09769043 7.73200684 -8.62280273 7.08081055 C-3.80856473 0.52515613 -3.80856473 0.52515613 0 0 Z " fill="#492D3B" transform="translate(106.14453125,38.56640625)"/>
<path d="M0 0 C8.91 0 17.82 0 27 0 C22 5 22 5 20.26171875 6.5625 C9.35684062 16.52030434 2.59532357 31.05520515 1.796875 45.734375 C1.46589438 62.67513612 6.46426952 72.32298905 17.7578125 84.73828125 C19.69360738 86.69093846 21.60290135 88.25810485 23.8125 89.875 C27.77978173 93.09614159 28.586311 97.13055554 29.98828125 101.8984375 C32.20957606 108.70812121 35.1005994 113.82718619 41.1796875 117.65234375 C43.63629559 119.43107238 44.81380274 120.31343454 45.61523438 123.26855469 C45.71674773 125.94622829 45.59366596 128.51707455 45.375 131.1875 C45.29941772 133.07657142 45.23033189 134.96591474 45.16796875 136.85546875 C45.13106934 137.75185059 45.09416992 138.64823242 45.05615234 139.57177734 C44.67770975 155.93695121 53.69969199 172.03497155 64.6015625 183.625 C71.26348859 190.22182583 78.15385902 194.69719241 86.46240234 198.85766602 C91.79422935 201.63834409 95.51090037 205.1784754 99.59375 209.6015625 C105.03589702 215.02604021 112.04839681 218.80602016 119 222 C119 222.33 119 222.66 119 223 C89.9980169 222.16660968 63.09049141 210.64705946 41 192 C40.03449219 191.18660156 39.06898437 190.37320313 38.07421875 189.53515625 C23.05868633 176.38877725 12.23844698 160.02077093 4 142 C3.57243408 141.08395996 3.57243408 141.08395996 3.13623047 140.14941406 C-5.79533125 120.74763811 -7.24909957 99.87697931 -7.3125 78.8125 C-7.31545074 77.94727722 -7.31840149 77.08205444 -7.32144165 76.19061279 C-7.33173581 62.75013176 -6.60809534 49.4886739 -5.1875 36.125 C-5.10472809 35.33904449 -5.02195618 34.55308899 -4.93667603 33.74331665 C-3.71756762 22.41524046 -1.94523242 11.22549596 0 0 Z " fill="#B7DAEC" transform="translate(23,272)"/>
<path d="M0 0 C0.9015683 0.00444122 1.8031366 0.00888245 2.73202515 0.01345825 C3.75293243 0.01360931 4.77383972 0.01376038 5.82568359 0.01391602 C7.48354385 0.02939987 7.48354385 0.02939987 9.17489624 0.04519653 C10.30406464 0.04802643 11.43323303 0.05085632 12.59661865 0.05377197 C16.21396345 0.06499441 19.8310634 0.09010281 23.44833374 0.11550903 C25.89624684 0.12553616 28.34416381 0.13466247 30.79208374 0.14285278 C36.80258438 0.16494047 42.81294157 0.19843829 48.82333374 0.24050903 C45.78427721 16.47183367 41.32083991 32.10732516 36.36425781 47.84207153 C31.86467578 62.13518332 27.48375557 76.41681379 23.82797241 90.95266724 C23.46409424 92.37905518 23.46409424 92.37905518 23.09286499 93.83425903 C22.8928186 94.64572388 22.69277222 95.45718872 22.48666382 96.29324341 C21.82333374 98.24050903 21.82333374 98.24050903 19.82333374 100.24050903 C18.70184937 99.82478638 18.70184937 99.82478638 17.55770874 99.40066528 C16.57286499 99.03843872 15.58802124 98.67621216 14.57333374 98.30300903 C13.59880249 97.9433606 12.62427124 97.58371216 11.62020874 97.21316528 C7.30132648 95.71120763 3.77738384 95.11841302 -0.81729126 95.14285278 C-1.88721313 95.14607544 -2.95713501 95.1492981 -4.05947876 95.15261841 C-5.17065063 95.16099731 -6.28182251 95.16937622 -7.42666626 95.17800903 C-8.55330688 95.18252075 -9.67994751 95.18703247 -10.84072876 95.19168091 C-13.61942843 95.20345506 -16.39802035 95.21990064 -19.17666626 95.24050903 C-19.14186157 94.34589966 -19.10705688 93.45129028 -19.07119751 92.52957153 C-18.91541597 85.5713295 -19.30449986 79.91532027 -21.56338501 73.34207153 C-22.84688574 68.94383337 -21.41703096 65.77892595 -19.61416626 61.74050903 C-17.34585558 55.86095746 -17.17609987 49.40847421 -18.17666626 43.24050903 C-19.2043599 41.93199114 -20.23737234 40.62764123 -21.27432251 39.32644653 C-22.64395142 37.02688599 -22.64395142 37.02688599 -23.17666626 34.24050903 C-20.99833591 28.24632564 -17.58284509 23.12401558 -14.11416626 17.80300903 C-13.18952446 16.32141263 -12.26825926 14.83770324 -11.35049438 13.35183716 C-3.25878007 0.36007635 -3.25878007 0.36007635 0 0 Z " fill="#79A722" transform="translate(192.17666625976563,271.7594909667969)"/>
<path d="M0 0 C29.7 0 59.4 0 90 0 C87.63065664 10.66204513 85.26907931 21.18045542 82.375 31.6875 C82.0759375 32.78771484 81.776875 33.88792969 81.46875 35.02148438 C80.01472193 40.35828208 78.52479185 45.68306322 77 51 C61.35272706 49.23770324 45.89265175 46.8969946 30.41918945 43.98339844 C27.11737398 43.36179806 23.81377238 42.75046145 20.50976562 42.140625 C18.39572718 41.74796695 16.2817906 41.3547599 14.16796875 40.9609375 C13.18692673 40.77864594 12.2058847 40.59635437 11.19511414 40.40853882 C10.29178848 40.23811066 9.38846283 40.0676825 8.45776367 39.89208984 C7.66633469 39.74347504 6.8749057 39.59486023 6.05949402 39.44174194 C4 39 4 39 1 38 C-2 27 -2 27 0 0 Z " fill="#F16907" transform="translate(359,272)"/>
<path d="M0 0 C4.29505141 2.21959032 8.30408704 4.34123779 10.703125 8.703125 C12.52845092 11.51131872 13.70876441 12.08536403 16.640625 13.578125 C21.26997248 15.99869884 24.68808858 18.62772353 27.328125 23.203125 C28.61808006 29.18382573 25.93983437 33.91559492 23.421875 39.23828125 C21.13439 45.43899953 22.68313918 49.3841562 25.328125 55.203125 C26.88336048 60.7171417 27.10260006 66.08350905 25.140625 71.453125 C22.78913291 75.0209061 20.14370343 77.29533579 16.328125 79.203125 C10.40848653 80.04878764 7.13827554 78.40884651 2.47265625 75.0546875 C-1.43126128 71.68409203 -4.35017033 67.5865991 -6.84375 63.08984375 C-9.5677437 60.27854256 -12.84010917 59.88531759 -16.546875 59.140625 C-25.9449269 57.18055771 -25.9449269 57.18055771 -29.671875 54.203125 C-32.28332978 49.92065004 -31.83812217 45.48257383 -31.671875 40.640625 C-31.43178567 34.17161296 -31.43178567 34.17161296 -33.671875 28.203125 C-34.77195783 19.36408741 -33.33189827 12.47725965 -28.28125 5.19921875 C-20.60960581 -4.47109063 -10.78808434 -4.81732068 0 0 Z " fill="#89C826" transform="translate(131.671875,295.796875)"/>
<path d="M0 0 C0.99 0.495 0.99 0.495 2 1 C3.22385988 17.04616283 -1.87223373 32.06024279 -12.25 44.25 C-22.76279487 55.30595594 -36.10173693 61.87690944 -51.43310547 62.34399414 C-68.71893961 62.56348034 -81.80765197 57.22452863 -94.6328125 45.6171875 C-101.82946166 38.2305278 -106.205038 30.0599609 -106.4375 19.625 C-106.25703721 15.45795004 -105.71185794 11.85168036 -104 8 C-100.76926869 9.41836984 -98.68410917 11.15301222 -96.1875 13.625 C-81.61782148 26.80251814 -64.72901722 30.14170152 -45.59667969 29.21142578 C-28.80177385 27.84395789 -15.31994941 18.51685489 -4.5 6.125 C-2.84449366 4.13261737 -1.44559812 2.16839717 0 0 Z " fill="#C82206" transform="translate(224,422)"/>
<path d="M0 0 C0.66 0.33 1.32 0.66 2 1 C1.67 1.66 1.34 2.32 1 3 C1.825 3.20625 2.65 3.4125 3.5 3.625 C10.53365467 6.38822148 16.94875402 11.56925713 21 18 C21.71597654 19.8567302 22.38061779 21.73385349 23 23.625 C24.31886371 27.46599352 25.392949 30.58166524 28.85546875 33.02734375 C32.46021149 34.66228172 36.26609121 35.54920258 40.10424805 36.47998047 C47.24435788 38.22010295 54.29981627 40.61390021 60.5078125 44.6171875 C64.86885442 47.03695057 69.16463677 46.82034438 74 46 C77.32513772 44.40063624 80.08448747 42.24387613 83 40 C93.67496596 32.73823686 104.01641513 29.69830383 117 31 C119.89766357 31.75704724 122.27705918 32.71861608 125 34 C125 32.02 125 30.04 125 28 C125.33 28 125.66 28 126 28 C126.73974749 38.47975609 124.50963452 47.91664703 122 58 C118.86852874 57.4438939 116.1646815 56.68406833 113.25 55.4375 C102.23301969 51.72225789 89.38114011 53.16145995 79 58 C72.79491408 61.1433063 67.70114843 64.85480657 62.7890625 69.77734375 C61 71 61 71 59.10498047 70.68530273 C56.43835552 69.81714961 54.04166464 68.52793866 51.56835938 67.21899414 C41.6683185 61.98267648 32.17954896 59.07495663 21 58 C20.91363281 57.38253906 20.82726562 56.76507813 20.73828125 56.12890625 C19.11907437 46.36909966 15.07770963 38.00650203 7 32 C1.31435801 28.7118372 -4.39623705 25.67445253 -10.78515625 24.01953125 C-14 23 -14 23 -15.55859375 21.34375 C-18 16.22222222 -18 16.22222222 -18 14 C-15.78581383 12.1084693 -13.56433016 10.32350321 -11.25 8.5625 C-10.61578125 8.07201172 -9.9815625 7.58152344 -9.328125 7.07617188 C-6.2383922 4.69128437 -3.13007343 2.33174662 0 0 Z " fill="#C82206" transform="translate(196,171)"/>
<path d="M0 0 C7.36527534 6.75519982 13.55629682 15.22780715 14.76953125 25.37890625 C14.77962535 28.23217241 14.67060331 30.9836776 14.34375 33.81640625 C4.65867556 33.04555339 -4.84216529 31.34763874 -14.40625 29.69140625 C-16.21060886 29.38132949 -18.01497088 29.07127118 -19.81933594 28.76123047 C-39.79277005 25.31586933 -59.79043237 21.84377522 -79.65625 17.81640625 C-79.26629474 10.21227864 -74.48524457 4.29119675 -69.15625 -0.80859375 C-48.21191489 -18.05450501 -20.69408801 -17.01175764 0 0 Z " fill="#EF6908" transform="translate(445.65625,193.18359375)"/>
<path d="M0 0 C3 1 3 1 5 4 C5 15.11871879 -2.96626889 25.06450849 -10 33 C-10.51949219 33.61359375 -11.03898437 34.2271875 -11.57421875 34.859375 C-24.11518198 48.63232202 -42.8071265 55.22647318 -61 56.25390625 C-81.23816313 57.02097736 -99.12067053 49.55371648 -114 36 C-115.37865234 35.0409375 -115.37865234 35.0409375 -116.78515625 34.0625 C-120.36208216 29.11662714 -119.27124705 24.07860415 -118.8125 18.1875 C-118.74224609 17.01767578 -118.67199219 15.84785156 -118.59960938 14.64257812 C-118.42308695 11.75937857 -118.22246294 8.87995889 -118 6 C-117.67 6 -117.34 6 -117 6 C-116.80019531 7.06089844 -116.60039062 8.12179687 -116.39453125 9.21484375 C-115.14398001 13.54870704 -112.4729054 15.37634715 -108.6875 17.5625 C-108.06230469 17.94035645 -107.43710938 18.31821289 -106.79296875 18.70751953 C-87.75286984 29.9885862 -66.63734497 34.835694 -44.75463867 29.56103516 C-27.0771601 24.67221217 -13.40657913 15.46507696 -1 2 C-0.67 1.34 -0.34 0.68 0 0 Z " fill="#79A622" transform="translate(359,416)"/>
<path d="M0 0 C8.32047195 2.77349065 12.78484966 11.84709262 16.63818359 19.26220703 C22.77421649 31.69777697 25.94304046 45.38921026 22.375 59.125 C19.95197715 65.17112778 15.03053129 68.90345561 9.25 71.5625 C1.19792549 72.73134953 -7.7102752 73.86246104 -14.9453125 69.453125 C-20.49061997 65.06846328 -23.00691736 61.06591559 -24.625 54.125 C-26.45458022 37.35063815 -20.79773219 20.62222305 -10.46875 7.35546875 C-4.25066006 0.20241238 -4.25066006 0.20241238 0 0 Z " fill="#7C5934" transform="translate(296.625,343.875)"/>
<path d="M0 0 C1.828125 1.296875 1.828125 1.296875 3.4375 2.75 C4.8296875 3.9875 4.8296875 3.9875 6.25 5.25 C11.81716741 11.61247704 12.86393192 15.92215707 12.78125 24.38671875 C11.86074104 33.39306213 7.75905753 42.2444818 1.4375 48.75 C-1.46033246 50.88887634 -4.00021965 52.22613524 -7.5625 52.75 C-8.635 52.9975 -9.7075 53.245 -10.8125 53.5 C-16.23807062 52.41488588 -17.43122064 49.22725981 -20.40234375 44.7734375 C-29.55311774 31.96566342 -44.76317938 23.85232884 -60.0703125 21.125 C-79.25141274 19.06528454 -94.78591472 23.03134998 -110.87109375 33.4921875 C-113.5625 34.75 -113.5625 34.75 -116.15625 34.62890625 C-122.07480413 32.4670967 -126.41197418 27.90005326 -129.0625 22.25 C-131.40044942 15.62580997 -130.89451044 8.66688416 -130.5625 1.75 C-130.2325 1.75 -129.9025 1.75 -129.5625 1.75 C-129.5625 5.38 -129.5625 9.01 -129.5625 12.75 C-89.78508048 20.45467223 -47.10513924 21.91033935 -10.5625 1.5 C-4.18320226 -1.91056015 -4.18320226 -1.91056015 0 0 Z " fill="#79A622" transform="translate(482.5625,144.25)"/>
<path d="M0 0 C0.68964844 0.71027344 1.37929688 1.42054688 2.08984375 2.15234375 C4.04382615 4.11183227 6.06162443 5.9252301 8.19140625 7.69140625 C14.83293813 13.28581035 18.98805483 17.44614814 21.19921875 26.109375 C23.07767664 32.89014983 26.25738211 37.92583891 32.1796875 41.65234375 C34.63629559 43.43107238 35.81380274 44.31343454 36.61523438 47.26855469 C36.71674773 49.94622829 36.59366596 52.51707455 36.375 55.1875 C36.29941772 57.07657142 36.23033189 58.96591474 36.16796875 60.85546875 C36.13106934 61.75185059 36.09416992 62.64823242 36.05615234 63.57177734 C35.67770975 79.93695121 44.69969199 96.03497155 55.6015625 107.625 C62.26348859 114.22182583 69.15385902 118.69719241 77.46240234 122.85766602 C82.79422935 125.63834409 86.51090037 129.1784754 90.59375 133.6015625 C96.03589702 139.02604021 103.04839681 142.80602016 110 146 C110 146.33 110 146.66 110 147 C99.17356249 146.68889547 89.3852233 145.0209486 79 142 C77.87722656 141.68933594 76.75445312 141.37867188 75.59765625 141.05859375 C74.74042969 140.70925781 73.88320312 140.35992187 73 140 C72.67 139.01 72.34 138.02 72 137 C69.78960128 135.3673663 69.78960128 135.3673663 67.0625 133.8125 C40.08681342 117.18794897 15.82098988 88.99396991 7 58 C7.33 57.34 7.66 56.68 8 56 C8.33 56.33 8.66 56.66 9 57 C13.62162923 57.39377821 13.62162923 57.39377821 17.9375 56 C19.66149757 52.75482811 19.65498416 49.58008387 19 46 C17.5771736 43.74536751 17.5771736 43.74536751 15 43 C10.87326713 43.07369166 8.74054585 43.37338428 5.5625 46.0625 C5.046875 46.701875 4.53125 47.34125 4 48 C3.67 45.03 3.34 42.06 3 39 C4.258125 38.5875 5.51625 38.175 6.8125 37.75 C10.29085164 36.44715451 12.20268822 35.38317512 14 32 C15.24217258 28.27348227 15.5341253 24.87057926 15 21 C13.37968664 17.87510994 12.04286176 15.75517576 9.1875 13.6875 C6.1634343 12.73707935 3.14256736 12.36260393 0 12 C0 8.04 0 4.08 0 0 Z " fill="#99C0D6" transform="translate(32,348)"/>
<path d="M0 0 C6.27 0 12.54 0 19 0 C27.58876518 81.9983996 27.58876518 81.9983996 16 117 C15.67 117 15.34 117 15 117 C14.98582031 116.1028125 14.97164063 115.205625 14.95703125 114.28125 C14.20650137 94.64576553 7.37670027 77.82083488 -7 64 C-9.27222719 62.15303367 -11.52719454 60.57838646 -14 59 C-13.37434266 51.28630365 -11.67516112 44.04799732 -9.75 36.5625 C-9.43788574 35.33144531 -9.12577148 34.10039062 -8.80419922 32.83203125 C-6.6288148 24.30443511 -4.35450122 15.80815787 -1.9453125 7.34375 C-1.25639452 4.90691615 -0.61418369 2.45673474 0 0 Z " fill="#99C1D7" transform="translate(465,272)"/>
<path d="M0 0 C1.06863281 0.01804687 2.13726562 0.03609375 3.23828125 0.0546875 C4.04652344 0.07789063 4.85476562 0.10109375 5.6875 0.125 C6.94857566 6.36916102 7.76300783 12.48979398 7.98168945 18.85107422 C8.31488214 28.48447016 9.63623695 36.13202409 14.75 44.5 C20.05995305 49.24506442 26.47549057 51.58525551 33.3125 53.3125 C38.47458922 54.90368162 41.21873318 58.56612519 44.546875 62.65234375 C46.73409342 65.1788205 49.03757411 67.10117973 51.6875 69.125 C52.7048873 70.10730498 53.71346117 71.09969597 54.6875 72.125 C52.44925791 74.59478438 50.56808033 75.96502319 47.2578125 76.56640625 C40.02546866 76.88397376 34.68115647 75.13400201 28.6875 71.125 C27.39574865 69.85425274 26.10408335 68.58341801 24.8125 67.3125 C19.49410948 62.83738582 13.4420041 63.68863509 6.86962891 64.20776367 C2.58868316 64.47671283 -0.31992974 64.64551621 -3.78515625 61.90234375 C-5.9709899 59.50029163 -7.36672448 57.78563276 -8.5625 54.8125 C-9.03623047 53.64654297 -9.03623047 53.64654297 -9.51953125 52.45703125 C-10.25007417 50.30858728 -10.7806662 48.21749455 -11.25 46 C-11.91176497 43.00433178 -12.87597458 41.11369362 -14.75 38.6875 C-20.28401794 31.41796164 -21.40930717 23.08225856 -20.3125 14.125 C-18.68983054 8.75972193 -16.09347796 5.15683968 -11.3125 2.125 C-7.39858035 0.23552155 -4.32824079 -0.09512617 0 0 Z " fill="#88C626" transform="translate(76.3125,315.875)"/>
<path d="M0 0 C10.94666331 1.14499781 21.71936742 2.72972741 32.52819824 4.80047607 C36.62328337 5.58487925 40.72180184 6.35091712 44.8203125 7.1171875 C45.6563501 7.27381866 46.4923877 7.43044983 47.35375977 7.59182739 C57.98205379 9.57219065 68.64385346 11.35897291 79.30810547 13.13378906 C80.01532745 13.25269501 80.72254944 13.37160095 81.45120239 13.49411011 C83.35474859 13.81414404 85.25889671 14.13059195 87.16308594 14.44677734 C90 15 90 15 92 16 C91.01 20.29 90.02 24.58 89 29 C58.64 29 28.28 29 -3 29 C-1 5 -1 5 0 0 Z " fill="#F16907" transform="translate(364,227)"/>
<path d="M0 0 C4.4777405 4.4777405 4.21843909 12.17897217 4.4375 18.1875 C4.26461267 29.67874436 0.22976871 40.09651395 -7 49 C-7.55042969 49.68578125 -8.10085938 50.3715625 -8.66796875 51.078125 C-16.47319149 59.79867237 -28.57857788 65.44609404 -40.20703125 66.2109375 C-55.04709777 66.62896754 -67.47120589 62.53995088 -78.375 52.25 C-82.76821795 47.64691495 -85.62333415 42.8791208 -88 37 C-85.38951811 38.02707484 -82.80501376 39.08604768 -80.23828125 40.21875 C-65.91655292 46.4904815 -52.02403474 48.25093751 -37 43 C-20.26503782 36.13866551 -10.20383982 25.98651162 -3.03515625 9.59765625 C-1.7724083 6.42887365 -0.8095014 3.31159663 0 0 Z " fill="#5B3C97" transform="translate(460,366)"/>
<path d="M0 0 C5.74148025 3.25119966 10.66915599 7.67921155 13.31640625 13.8046875 C15.11358334 20.36829077 14.99319622 26.86908718 11.8828125 32.9765625 C7.55030952 39.69437611 1.83823665 44.38076282 -6.0546875 46.1015625 C-12.8709928 46.98213783 -18.48349731 46.27995514 -24.0546875 42.1015625 C-30.68913654 35.90235214 -34.00272204 30.86864646 -34.4296875 21.7265625 C-34.25680824 15.00246918 -32.59983783 10.77492003 -27.9609375 5.90234375 C-19.7156089 -1.75206963 -10.78488932 -4.67199659 0 0 Z " fill="#472B3D" transform="translate(418.0546875,345.8984375)"/>
<path d="M0 0 C0.90500244 -0.01836914 1.81000488 -0.03673828 2.74243164 -0.05566406 C6.90430202 0.00910093 11.04316817 0.21042791 15.19140625 0.55078125 C11.6152092 17.74318197 7.0657207 34.68372282 2.19140625 51.55078125 C-17.31053229 49.43859595 -36.52577939 46.09157601 -55.80859375 42.55078125 C-55.80859375 42.22078125 -55.80859375 41.89078125 -55.80859375 41.55078125 C-55.23753906 41.42703125 -54.66648437 41.30328125 -54.078125 41.17578125 C-39.03978398 37.35044808 -26.39070109 26.71542477 -15.99609375 15.55078125 C-15.52276611 15.04546875 -15.04943848 14.54015625 -14.56176758 14.01953125 C-11.78377419 10.94705968 -10.05749338 8.05095665 -8.37109375 4.30078125 C-5.77378139 0.95752373 -4.22212055 0.06968272 0 0 Z " fill="#E05A00" transform="translate(433.80859375,271.44921875)"/>
<path d="M0 0 C5.54085085 1.94864737 9.48252764 5.35905213 14 9 C10.09711423 14.94030679 6.06400309 20.75851055 1.875 26.5 C-2.54958525 32.59113652 -6.92616472 38.71196306 -11.25 44.875 C-16.0341079 51.68751297 -20.95028874 58.38181782 -26 65 C-31.82080711 61.89608557 -36.84612828 58.16570828 -42 54.0625 C-47.25027663 49.9089674 -52.51676154 45.84264185 -58 42 C-56.40956621 36.91061189 -53.2553049 33.12543357 -50 29 C-46.03822523 29.58452415 -43.76339732 31.59569125 -40.6875 34.0625 C-37.25375617 36.60465921 -35.34960961 37.92669476 -31.125 38.8125 C-24.19090638 37.00963566 -20.57073118 29.70687624 -16.8125 24.0625 C-15.67045732 22.36899094 -14.52721491 20.67629035 -13.3828125 18.984375 C-12.53444824 17.72850586 -12.53444824 17.72850586 -11.66894531 16.44726562 C-9.2262639 12.86542852 -6.71689073 9.33344526 -4.1875 5.8125 C-3.76122314 5.21896729 -3.33494629 4.62543457 -2.89575195 4.01391602 C-1.93212633 2.67477317 -0.96634721 1.33718023 0 0 Z " fill="#88C626" transform="translate(108,58)"/>
<path d="M0 0 C19.47 0 38.94 0 59 0 C59.495 3.96 59.495 3.96 60 8 C52.45606129 7.11987382 52.45606129 7.11987382 50.0234375 6.48046875 C40.67338894 4.26028347 31.2708509 6.75675916 23.25 11.6875 C18.12910443 15.3246025 14.31819053 19.92422209 11.83984375 25.70703125 C10 28 10 28 6.33984375 28.6015625 C4.87262849 28.6288354 3.40493033 28.63561404 1.9375 28.625 C-10.58891814 28.96932808 -18.70919553 31.70919553 -27.6875 40.6875 C-31.02383132 44.92032851 -32.93631298 50.06471444 -35 55 C-35.33 55 -35.66 55 -36 55 C-36.83969458 40.32866964 -32.83386985 28.87942618 -23.0390625 17.77734375 C-17.65396678 12.58242799 -11.72385586 9.68685427 -4.94140625 6.73828125 C-1.4388005 5.0720801 -1.4388005 5.0720801 0 0 Z " fill="#79A622" transform="translate(76,272)"/>
<path d="M0 0 C3.59896461 4.54606057 7.15949723 9.47849169 9 15 C11.37625345 16.18391223 11.37625345 16.18391223 14 17 C14.99 17.33 15.98 17.66 17 18 C18.33363703 18.14403348 19.67218046 18.24590423 21.01171875 18.31640625 C21.76904297 18.35830078 22.52636719 18.40019531 23.30664062 18.44335938 C24.48516602 18.50233398 24.48516602 18.50233398 25.6875 18.5625 C26.48478516 18.60568359 27.28207031 18.64886719 28.10351562 18.69335938 C30.06881447 18.79927368 32.03438496 18.90012551 34 19 C34.33 18.34 34.66 17.68 35 17 C35.76183594 17.39832031 36.52367187 17.79664063 37.30859375 18.20703125 C44.27101468 21.81401818 44.27101468 21.81401818 51.6875 24.25 C56.83315648 25.79089532 59.55338405 29.46832153 62.859375 33.52734375 C65.04659342 36.0538205 67.35007411 37.97617973 70 40 C71.0173873 40.98230498 72.02596117 41.97469597 73 43 C70.76175791 45.46978438 68.88058033 46.84002319 65.5703125 47.44140625 C58.33796866 47.75897376 52.99365647 46.00900201 47 42 C45.70824865 40.72925274 44.41658335 39.45841801 43.125 38.1875 C37.80660948 33.71238582 31.7545041 34.56363509 25.18212891 35.08276367 C20.90118316 35.35171283 17.99257026 35.52051621 14.52734375 32.77734375 C12.3415101 30.37529163 10.94577552 28.66063276 9.75 25.6875 C9.27626953 24.52154297 9.27626953 24.52154297 8.79296875 23.33203125 C8.06242583 21.18358728 7.5318338 19.09249455 7.0625 16.875 C6.23227388 13.07105486 4.4791057 10.70764259 2.109375 7.67578125 C0.49843307 5.24235137 0.2098904 2.86850218 0 0 Z " fill="#79A622" transform="translate(58,345)"/>
<path d="M0 0 C6.53333048 -0.71272696 9.50719507 0.56731641 14.765625 4.40234375 C19.38895634 7.70818731 24.30738647 10.28842331 30 11 C28.54035177 14.79229181 26.84105717 18.41034825 25.0625 22.0625 C20.72239595 31.441359 18.65979074 40.71636502 18 51 C10.73736147 48.17924307 5.9012469 38.84709868 2.80859375 31.98828125 C2.54175781 31.33214844 2.27492188 30.67601562 2 30 C1.55333984 28.96939453 1.55333984 28.96939453 1.09765625 27.91796875 C-1.9654022 19.63218391 -1.46749316 10.70256503 -1 2 C-0.67 1.34 -0.34 0.68 0 0 Z " fill="#5F7D0A" transform="translate(84,396)"/>
<path d="M0 0 C2.45848434 0.45753431 4.91678628 0.91601575 7.375 1.375 C8.05433594 1.50132812 8.73367187 1.62765625 9.43359375 1.7578125 C10.12324219 1.88671875 10.81289062 2.015625 11.5234375 2.1484375 C12.24837402 2.28362793 12.97331055 2.41881836 13.72021484 2.55810547 C15.27064533 2.85862798 16.81788033 3.17602097 18.36181641 3.50830078 C24.76172894 4.87397249 31.1064815 5.59411932 37.625 6.125 C38.62917969 6.21136719 39.63335937 6.29773438 40.66796875 6.38671875 C43.11159966 6.59617283 45.55553841 6.80051757 48 7 C47.37798054 9.54242904 46.75248241 12.08391875 46.125 14.625 C45.95097656 15.33785156 45.77695313 16.05070312 45.59765625 16.78515625 C44.57145662 20.92796216 43.41209271 24.96726678 42 29 C41.1234375 28.6390625 40.246875 28.278125 39.34375 27.90625 C26.97522448 23.24311639 15.07812226 23.46763656 2 24 C2.02320313 23.10539062 2.04640625 22.21078125 2.0703125 21.2890625 C2.18043474 13.91087242 1.84659266 7.15554657 0 0 Z " fill="#5F7E0A" transform="translate(171,343)"/>
<path d="M0 0 C3.25118939 1.45312754 5.62914259 3.29849668 8.3125 5.625 C21.50803406 16.2821861 36.42771889 21.09794156 53 24 C53 24.33 53 24.66 53 25 C28.58 25 4.16 25 -21 25 C-17 20 -17 20 -13.875 17.5625 C-8.09424589 12.8144732 -4.17337923 6.12991316 0 0 Z " fill="#98C0D5" transform="translate(233,463)"/>
<path d="M0 0 C4.10589882 1.5464779 7.92251678 3.47566474 11.8125 5.5 C16.80478192 8.05636781 21.46505964 10.00371074 27 11 C25.92161338 17.27424943 20.77350622 21.62462783 15.9375 25.375 C10.10133073 28.60351917 5.03560044 29.34121529 -1.5 29.3125 C-2.23347656 29.32861328 -2.96695312 29.34472656 -3.72265625 29.36132812 C-8.55831515 29.3656534 -11.75457847 28.54590943 -16 26 C-14.16150693 23.20549054 -12.31548923 20.43510599 -10.3515625 17.7265625 C-6.25920598 12.06159736 -2.92931585 6.34460114 0 0 Z " fill="#DE5A01" transform="translate(376,435)"/>
<path d="M0 0 C0.33 0 0.66 0 1 0 C1.69990513 19.67511089 1.69990513 19.67511089 -3.734375 26.02734375 C-10.8868434 32.80555508 -18.02385822 33.4816086 -27.62109375 33.30859375 C-34.0552453 32.72096604 -37.99897956 30.3357131 -42.375 25.6875 C-46.4491196 20.50628268 -47.09035663 15.44242769 -47 9 C-46.18015625 9.42152344 -45.3603125 9.84304688 -44.515625 10.27734375 C-43.43796875 10.82519531 -42.3603125 11.37304688 -41.25 11.9375 C-40.18265625 12.48277344 -39.1153125 13.02804687 -38.015625 13.58984375 C-29.27808977 17.67566009 -17.68893415 17.36214677 -8.6875 14.125 C-5.83092794 12.94387526 -3.5891455 11.726097 -1 10 C-0.41810734 7.57478506 -0.41810734 7.57478506 -0.3125 4.875 C-0.24675781 3.96492188 -0.18101562 3.05484375 -0.11328125 2.1171875 C-0.07589844 1.41851562 -0.03851563 0.71984375 0 0 Z " fill="#764C23" transform="translate(319,383)"/>
<path d="M0 0 C5.20891303 3.41659887 9.18938367 6.37876734 12 12 C-7.47 12 -26.94 12 -47 12 C-34.20577019 -2.92660144 -18.71883801 -9.05750226 0 0 Z " fill="#88C626" transform="translate(313,244)"/>
<path d="M0 0 C4.01199253 1.79106809 6.79747482 4.3914221 10 7.34375 C14.30884322 10.91201079 17.41401958 11.29924895 23 11 C24.33921233 10.69113237 25.67452962 10.36334166 27 10 C26.68817931 11.41681634 26.37551263 12.83344651 26.0625 14.25 C25.88847656 15.03890625 25.71445313 15.8278125 25.53515625 16.640625 C25.0524228 18.76888049 24.53292972 20.88389811 24 23 C23.42668945 23.03963867 22.85337891 23.07927734 22.26269531 23.12011719 C11.29995477 23.91604821 1.23457317 24.7631068 -9 29 C-9.99 29.33 -10.98 29.66 -12 30 C-13.33918806 28.37982158 -14.6711969 26.75370657 -16 25.125 C-16.7425 24.22007812 -17.485 23.31515625 -18.25 22.3828125 C-20 20 -20 20 -20 18 C-19.41992188 17.91363281 -18.83984375 17.82726562 -18.2421875 17.73828125 C-12.85940441 16.77009089 -8.44000785 15.51376752 -5 11 C-3.09487767 7.42159563 -1.49129521 3.76782994 0 0 Z " fill="#88C426" transform="translate(225,114)"/>
<path d="M0 0 C3.12763265 1.72184904 5.43430605 3.78501012 8.02734375 6.23828125 C12.55500008 10.47462992 12.55500008 10.47462992 17.27734375 14.48828125 C18.04046875 15.12765625 18.80359375 15.76703125 19.58984375 16.42578125 C19.58984375 16.75578125 19.58984375 17.08578125 19.58984375 17.42578125 C18.47867188 17.46316406 17.3675 17.50054687 16.22265625 17.5390625 C2.12064005 18.11494639 -7.79832506 19.81395006 -18.09765625 30.11328125 C-21.43398757 34.34610976 -23.34646923 39.49049569 -25.41015625 44.42578125 C-25.74015625 44.42578125 -26.07015625 44.42578125 -26.41015625 44.42578125 C-27.19797585 30.66082209 -23.8760353 20.3718983 -15.41015625 9.42578125 C-5.14112379 -1.22487066 -5.14112379 -1.22487066 0 0 Z " fill="#5F7C0B" transform="translate(66.41015625,282.57421875)"/>
<path d="M0 0 C0.66 0.99 1.32 1.98 2 3 C7.21802208 9.16675337 13.30618163 11.73794357 21.1875 12.6875 C24.25121082 13.21621435 25.58674265 13.5397598 27.68359375 15.875 C28.65656207 17.43596815 29.59885783 19.0164175 30.51171875 20.61328125 C34.3260362 26.73020503 40.19899976 30.81396421 47 33 C49.67715754 33.47688344 52.28559343 33.76189416 55 34 C53.48603365 38.23910579 50.90612165 39.93638856 47 42 C42.23922795 42.89825888 39.4495781 41.96379293 35.4375 39.5 C30.37297254 35.85906203 26.8393551 31.31697037 23.828125 25.88671875 C21.1041313 23.07541756 17.83176583 22.68219259 14.125 21.9375 C9.22962221 20.91651502 5.13142388 20.00325728 1 17 C-1.82328941 12.56340236 -1.38732538 7.08927536 -1 2 C-0.67 1.34 -0.34 0.68 0 0 Z " fill="#78A522" transform="translate(101,333)"/>
<path d="M0 0 C4.38410756 2.19205378 7.13092657 4.43115383 9 9 C9.54066369 14.67696875 9.10049582 18.06217333 6 23 C3.65760686 25.83039171 1.66339664 26.80672915 -2.05078125 27.23828125 C-7.55326265 27.41884627 -10.69893505 26.77654483 -15 23 C-17.90128125 18.35192657 -17.88112787 13.2942344 -17 8 C-12.89854331 0.7909979 -8.00512602 -0.97031831 0 0 Z " fill="#E6F6F8" transform="translate(39,360)"/>
<path d="M0 0 C1.86775943 0.80240463 3.72134912 1.63829129 5.5625 2.5 C10.466779 4.78910716 14.1000394 6.12645482 19.54296875 6.09765625 C21.15268555 6.09282227 21.15268555 6.09282227 22.79492188 6.08789062 C23.91447266 6.07951172 25.03402344 6.07113281 26.1875 6.0625 C27.31865234 6.05798828 28.44980469 6.05347656 29.61523438 6.04882812 C32.41020927 6.03703498 35.2050782 6.0205765 38 6 C34.70781129 10.93828307 29.1439146 11.34380044 23.53704834 12.5140686 C8.4235701 15.19445777 -6.57267922 15.36858581 -21.875 15.1875 C-24.13540757 15.17239814 -26.3958251 15.15871964 -28.65625 15.14648438 C-34.10439046 15.11397879 -39.55214577 15.06423234 -45 15 C-45 14.67 -45 14.34 -45 14 C-44.030625 13.86464844 -43.06125 13.72929687 -42.0625 13.58984375 C-28.8541984 11.54449426 -17.07835658 6.97014821 -5.796875 -0.25 C-3.39481024 -1.25260094 -2.42706987 -0.89725319 0 0 Z " fill="#97BDD3" transform="translate(350,473)"/>
<path d="M0 0 C0.495 0.99 0.495 0.99 1 2 C0.34 2 -0.32 2 -1 2 C-1.33064453 2.81597656 -1.33064453 2.81597656 -1.66796875 3.6484375 C-3.43295869 6.76434349 -5.78640703 9.12708655 -8.3125 11.625 C-8.84447998 12.15134033 -9.37645996 12.67768066 -9.92456055 13.2199707 C-23.08120553 25.987901 -45.10330734 43.68353955 -64 45 C-64.66 44.34 -65.32 43.68 -66 43 C-65.23816406 42.72027344 -64.47632813 42.44054687 -63.69140625 42.15234375 C-53.24922301 38.09801293 -44.80133303 32.82710655 -39 23 C-38.69835937 22.14535156 -38.39671875 21.29070312 -38.0859375 20.41015625 C-37.00778123 17.42550413 -36.09967052 15.39901255 -34 13 C-29.42831884 11.21378256 -24.83806885 10.36475747 -20.03173828 9.45068359 C-12.80827957 7.84836386 -5.89810503 4.42357878 0 0 Z " fill="#97BFD5" transform="translate(454,435)"/>
<path d="M0 0 C3.07469523 1.70251719 5.40613254 3.81226508 7 7 C7.53118252 11.91996928 7.75105553 15.77327597 5.125 20.0625 C1.4009977 23.45791386 -1.62516626 23.39393795 -6.51953125 23.3515625 C-9 23 -9 23 -12 20.75 C-15.48904805 15.95255893 -16.73812956 13.1159306 -16 7 C-12.02449969 0.37909241 -7.38991577 -1.14072525 0 0 Z " fill="#F9E3DD" transform="translate(60,31)"/>
<path d="M0 0 C6.6 0 13.2 0 20 0 C17.19205942 5.8791256 14.18324253 11.55391166 10.8125 17.125 C10.13832031 18.24132812 9.46414062 19.35765625 8.76953125 20.5078125 C8.18558594 21.33023437 7.60164062 22.15265625 7 23 C6.34 23 5.68 23 5 23 C4.16301505 19.54253984 3.33103324 16.08389511 2.5 12.625 C2.26152344 11.64015625 2.02304688 10.6553125 1.77734375 9.640625 C1.55175781 8.69960938 1.32617188 7.75859375 1.09375 6.7890625 C0.88427734 5.91975098 0.67480469 5.05043945 0.45898438 4.15478516 C0 2 0 2 0 0 Z " fill="#78A522" transform="translate(151,272)"/>
<path d="M0 0 C4.0743356 0.84881992 5.54405875 2.30225596 8 5.625 C8.625 8.625 8.625 8.625 8 11.625 C5.54405875 14.94774404 4.0743356 16.40118008 0 17.25 C-4.0743356 16.40118008 -5.54405875 14.94774404 -8 11.625 C-8.625 8.625 -8.625 8.625 -8 5.625 C-5.54405875 2.30225596 -4.0743356 0.84881992 0 0 Z " fill="#F8DDD4" transform="translate(402,186.375)"/>
<path d="M0 0 C2.0625 1.5625 2.0625 1.5625 3 4 C3.17821261 6.85140177 2.92914963 9.292848 2 12 C-0.93837168 14.85194898 -2.53597436 15 -6.625 15 C-10 14 -10 14 -12 11.875 C-13.30782688 8.11499772 -13.06090617 5.81926223 -12 2 C-8.81688665 -2.07438508 -4.54417813 -1.38635943 0 0 Z " fill="#7F7E7F" transform="translate(413,361)"/>
<path d="M0 0 C5.4368932 0.77669903 5.4368932 0.77669903 7.5 3.5 C8.12729175 6.62462307 8.14150063 9.37690481 7.5 12.5 C5.4375 15.125 5.4375 15.125 2.5 16.5 C-1.3137751 16.5 -3.52424548 16.34985071 -6.4375 13.8125 C-7.84589562 10.74716836 -7.97772045 8.84404315 -7.5 5.5 C-5.38646148 1.61108912 -4.4319997 0.63314281 0 0 Z " fill="#F4D9BF" transform="translate(291.5,357.5)"/>
<path d="M0 0 C1.9375 1.0625 1.9375 1.0625 3 3 C3.75471698 9.79245283 3.75471698 9.79245283 1.4375 13.5 C-1.97532932 15.60020266 -4.06688873 15.63210717 -8 15 C-10.5 13 -10.5 13 -12 10 C-12.30575115 6.07109778 -11.83231086 3.05639455 -9.375 -0.0625 C-5.91568392 -1.42801951 -3.55940268 -0.90602977 0 0 Z " fill="#E5F5F8" transform="translate(49,391)"/>
<path d="M0 0 C2.875 1.5625 2.875 1.5625 5 4 C5.625 7.4375 5.625 7.4375 5 11 C2.52942103 14.41521211 1.08849737 15.77785768 -3.0625 16.625 C-6 16 -6 16 -8.375 13.9375 C-10.40553614 10.26691544 -10.60190112 8.13807018 -10 4 C-7.25657347 -0.1151398 -4.81370572 -0.78591114 0 0 Z " fill="#F8DFDB" transform="translate(285,161)"/>
<path d="M0 0 C3.3 0.66 6.6 1.32 10 2 C9.01 6.29 8.02 10.58 7 15 C2.38 15 -2.24 15 -7 15 C-3.535 7.575 -3.535 7.575 0 0 Z " fill="#E15A00" transform="translate(446,241)"/>
<path d="M0 0 C3.94195198 0.3349638 7.87661545 0.72541781 11.8125 1.125 C12.91271484 1.2178125 14.01292969 1.310625 15.14648438 1.40625 C23.24387215 2.26614959 29.15615571 4.60831105 36 9 C36 9.33 36 9.66 36 10 C23.00816892 9.62667152 11.2994345 7.22615392 -1 3 C-0.67 2.01 -0.34 1.02 0 0 Z " fill="#76B8DD" transform="translate(106,485)"/>
<path d="M0 0 C2 2 2 2 2.3125 5.5 C2.1578125 7.2325 2.1578125 7.2325 2 9 C-1 11 -1 11 -3.5625 10.75 C-6 10 -6 10 -8 8 C-8.36487512 5.15397406 -8.40199375 3.6135694 -6.8125 1.1875 C-4.3864306 -0.40199375 -2.84602594 -0.36487512 0 0 Z " fill="#E5DCF1" transform="translate(444,352)"/>
<path d="M0 0 C5.4185766 -0.22577402 9.77487721 0.53329887 15 2 C11.83525695 5.25516428 8.67247209 8.32008793 5 11 C4.34 11 3.68 11 3 11 C2.01 7.37 1.02 3.74 0 0 Z " fill="#DA5802" transform="translate(366,328)"/>
<path d="M0 0 C2.58548628 2.58548628 2.97641847 4.29538385 3.09765625 7.91796875 C3.08605469 8.99691406 3.07445312 10.07585937 3.0625 11.1875 C3.05347656 12.27417969 3.04445313 13.36085937 3.03515625 14.48046875 C3.02355469 15.31191406 3.01195312 16.14335937 3 17 C-0.3 16.67 -3.6 16.34 -7 16 C-6.01 15.67 -5.02 15.34 -4 15 C-3.26343968 13.09639193 -3.26343968 13.09639193 -2.9375 10.8125 C-2.22774895 7.07885164 -1.28711733 3.58554114 0 0 Z " fill="#DB5903" transform="translate(457,210)"/>
<path d="M0 0 C3 0.25 3 0.25 5 2.25 C5.36796448 5.12012296 5.37509409 6.65774618 3.8125 9.125 C2 10.25 2 10.25 -0.5625 10.0625 C-3 9.25 -3 9.25 -5 7.25 C-5.25 4.75 -5.25 4.75 -5 2.25 C-3 0.25 -3 0.25 0 0 Z " fill="#F8DBD7" transform="translate(195,392.75)"/>
<path d="M0 0 C3.63 0 7.26 0 11 0 C7 4 3 8 -1 12 C-2.45606519 7.47907032 -1.27032841 4.48351204 0 0 Z " fill="#97BDD3" transform="translate(39,272)"/>
<path d="M0 0 C12.20465154 1.81680452 12.20465154 1.81680452 16 5 C17.3125 7.1875 17.3125 7.1875 18 9 C12.09945195 8.53416726 6.97607336 6.09662119 2 3 C1.34 2.01 0.68 1.02 0 0 Z " fill="#86C026" transform="translate(99,367)"/>
<path d="M0 0 C3.69230769 0.69230769 3.69230769 0.69230769 5 2 C5.04063832 3.66617115 5.042721 5.33388095 5 7 C2.625 7.625 2.625 7.625 0 8 C-0.66 7.34 -1.32 6.68 -2 6 C-1.44444444 1.44444444 -1.44444444 1.44444444 0 0 Z " fill="#F9E3DA" transform="translate(39,50)"/>
<path d="M0 0 C2.5 0.125 2.5 0.125 3.5 1.125 C3.625 3.625 3.625 3.625 3.5 6.125 C2.5 7.125 2.5 7.125 0 7.25 C-2.5 7.125 -2.5 7.125 -3.5 6.125 C-3.625 3.625 -3.625 3.625 -3.5 1.125 C-2.5 0.125 -2.5 0.125 0 0 Z " fill="#F8E1DB" transform="translate(387.5,197.875)"/>
<path d="M0 0 C2.5 0.125 2.5 0.125 3.5 1.125 C3.625 3.625 3.625 3.625 3.5 6.125 C2.5 7.125 2.5 7.125 0 7.25 C-2.5 7.125 -2.5 7.125 -3.5 6.125 C-3.625 3.625 -3.625 3.625 -3.5 1.125 C-2.5 0.125 -2.5 0.125 0 0 Z " fill="#F8DFDB" transform="translate(294.5,173.875)"/>
<path d="M0 0 C0.33 0 0.66 0 1 0 C1.97040422 5.93024803 1.89316269 11.06390334 1 17 C-1 15 -1 15 -1.23046875 12.28515625 C-1.21628906 11.22167969 -1.20210938 10.15820312 -1.1875 9.0625 C-1.18105469 8.00160156 -1.17460938 6.94070313 -1.16796875 5.84765625 C-1 3 -1 3 0 0 Z " fill="#739627" transform="translate(99,309)"/>
<path d="M0 0 C-2.29149113 2.7321625 -3.64386075 3.90028101 -7.125 4.875 C-8.07375 4.91625 -9.0225 4.9575 -10 5 C-10.66 4.34 -11.32 3.68 -12 3 C-10.3789897 2.30314502 -8.75303934 1.61777139 -7.125 0.9375 C-6.22007812 0.55464844 -5.31515625 0.17179687 -4.3828125 -0.22265625 C-2 -1 -2 -1 0 0 Z " fill="#8EAFC5" transform="translate(400,475)"/>
</svg>
