<?xml version="1.0" encoding="UTF-8"?>
<svg version="1.1" xmlns="http://www.w3.org/2000/svg" width="512" height="512">
<path d="M0 0 C9.23639921 6.7320694 14.87155137 14.05042978 18 25 C18 35.23 18 45.46 18 56 C84.33 56 150.66 56 219 56 C219 45.77 219 35.54 219 25 C223.46452015 12.72256958 229.05378859 3.91317488 241 -2 C251.05256961 -5.49549783 263.64919096 -5.70821393 273.5078125 -1.453125 C282.21709782 3.62501629 289.83830796 11.51641745 293.06005859 21.17944336 C294.02643314 25.10744212 294.22881466 28.4278337 294.1953125 32.46484375 C294.19106766 33.48210289 294.19106766 33.48210289 294.18673706 34.51991272 C294.17565416 36.65929766 294.1505736 38.7982443 294.125 40.9375 C294.11495476 42.39908244 294.10583163 43.86067153 294.09765625 45.32226562 C294.07575425 48.88164979 294.04130866 52.44078203 294 56 C294.66418945 55.98428955 295.32837891 55.9685791 296.01269531 55.95239258 C318.60141974 55.48816021 336.85928228 58.02592799 354 74 C367.06719338 86.71016624 374.05320394 102.93953112 374.375 121.0625 C374.41238281 121.86494141 374.44976563 122.66738281 374.48828125 123.49414062 C374.57628104 129.38523765 374.57628104 129.38523765 371.6015625 132.55859375 C369 134 369 134 367 134 C367 138.62 367 143.24 367 148 C368.65 148.33 370.3 148.66 372 149 C374.18723688 152.28085533 374.25082875 153.21871358 374.25447559 157.02083492 C374.26030779 158.06442635 374.26613998 159.10801779 374.27214891 160.1832332 C374.26836958 161.33359373 374.26459026 162.48395426 374.26069641 163.66917419 C374.26452196 164.88833639 374.26834751 166.10749858 374.27228898 167.36360508 C374.28084316 170.7542058 374.28037735 174.14459048 374.27610838 177.53518522 C374.27364794 181.18980459 374.28264717 184.84439816 374.29014587 188.49900818 C374.30291694 195.66352016 374.30468333 202.82799471 374.30234561 209.99251615 C374.30056387 215.81900552 374.30230902 221.64548351 374.30657005 227.47197151 C374.30716524 228.30070874 374.30776043 229.12944597 374.30837366 229.98329644 C374.30958541 231.66688307 374.31079954 233.35046969 374.31201603 235.03405631 C374.32290222 250.83772025 374.32072482 266.64136287 374.31463119 282.44502801 C374.3094691 296.88944412 374.32069679 311.33379264 374.33972941 325.77819537 C374.3591264 340.61315748 374.36736003 355.44808765 374.36360615 370.28306252 C374.3616959 378.61011702 374.36416389 386.9371141 374.37832069 395.26415825 C374.39025968 402.35862276 374.39161176 409.45299458 374.37953053 416.54746043 C374.37365755 420.16412904 374.37249799 423.78062831 374.38453293 427.39728546 C374.39745875 431.32759768 374.38688856 435.2576558 374.3742218 439.18797302 C374.38159609 440.31825705 374.38897037 441.44854109 374.39656812 442.61307615 C374.27552143 460.53626261 367.40590612 476.11617775 355 489 C339.52953143 503.89660265 322.45398118 508.47748566 301.45214844 508.38095093 C299.8004208 508.38441327 298.14869549 508.38918168 296.49697495 508.39513266 C291.98656127 508.4075932 287.47633935 508.40149493 282.96592522 508.39217401 C278.09059257 508.38536349 273.21529202 508.39587465 268.33996582 508.40411377 C258.80040661 508.41743196 249.26091834 508.41458189 239.72135639 508.40587585 C231.96620923 508.39909218 224.2110819 508.39818554 216.45593262 508.4014473 C215.35087867 508.401907 214.24582473 508.40236669 213.10728431 508.40284032 C210.86217149 508.40379953 208.61705867 508.40477217 206.37194586 508.4057581 C185.33480981 508.41430639 164.29771301 508.40448666 143.2605834 508.388357 C125.22187969 508.37495434 107.18323391 508.37728259 89.14453125 508.39111328 C68.1810778 508.407179 47.21765873 508.41348247 26.25419998 508.40427649 C24.01748912 508.40332087 21.78077825 508.40237776 19.54406738 508.4014473 C17.89344382 508.40075306 17.89344382 508.40075306 16.20947433 508.40004479 C8.46642336 508.39745788 0.72339426 508.40181946 -7.01965332 508.40888596 C-16.4598161 508.41731216 -25.89990408 508.41499724 -35.34005833 508.39904372 C-40.15370359 508.39117612 -44.96722427 508.38804362 -49.78086853 508.39799118 C-54.19251286 508.4069699 -58.6039178 508.40195315 -63.0155406 508.38605852 C-64.60623041 508.38272413 -66.1969407 508.38437436 -67.78761721 508.39168589 C-89.21334524 508.48256789 -105.48568611 502.11605317 -120.98828125 487.0703125 C-133.26544668 473.94926208 -138.16304943 457.93901571 -138.25 440.375 C-138.270625 439.32570313 -138.29125 438.27640625 -138.3125 437.1953125 C-138.31765625 436.18984375 -138.3228125 435.184375 -138.328125 434.1484375 C-138.34214355 432.77437744 -138.34214355 432.77437744 -138.35644531 431.37255859 C-138 429 -138 429 -136.72949219 427.17822266 C-135 426 -135 426 -131 426 C-131 421.05 -131 416.1 -131 411 C-132.65 410.67 -134.3 410.34 -136 410 C-138.52213204 407.47786796 -138.25108385 406.65478294 -138.25447559 403.16468239 C-138.26030779 402.13701559 -138.26613998 401.10934879 -138.27214891 400.05054057 C-138.26836958 398.91283099 -138.26459026 397.77512141 -138.26069641 396.60293579 C-138.26452196 395.40096223 -138.26834751 394.19898867 -138.27228898 392.96059167 C-138.28085207 389.61333709 -138.28037399 386.26630098 -138.27610838 382.91905236 C-138.2736503 379.31281376 -138.28264426 375.70660142 -138.29014587 372.10037231 C-138.30292406 365.02863487 -138.30468241 357.95693534 -138.30234561 350.8851883 C-138.30056448 345.13399915 -138.30230771 339.38282153 -138.30657005 333.63163376 C-138.30716524 332.81386249 -138.30776043 331.99609121 -138.30837366 331.15353899 C-138.3095854 329.49225884 -138.31079953 327.83097868 -138.31201603 326.16969852 C-138.32290518 310.57110291 -138.32072356 294.97252889 -138.31463119 279.37393205 C-138.30947016 265.11698127 -138.32069346 250.860099 -138.33972941 236.60316177 C-138.35912737 221.96259337 -138.36735978 207.32205733 -138.36360615 192.681476 C-138.36169588 184.46283555 -138.364164 176.24425328 -138.37832069 168.02562332 C-138.39026101 161.02262867 -138.39161038 154.01972793 -138.37953053 147.01673193 C-138.37365815 143.44665062 -138.37249624 139.87674084 -138.38453293 136.30667114 C-138.39746164 132.42666357 -138.38688695 128.54691328 -138.3742218 124.66690063 C-138.38528323 122.9937971 -138.38528323 122.9937971 -138.39656812 121.28689349 C-138.26953384 102.71187902 -130.76161964 87.06391233 -117.9140625 73.85546875 C-106.66076131 63.23186492 -91.70848149 55.82200779 -76.04296875 55.90234375 C-74.93115234 55.90556641 -73.81933594 55.90878906 -72.67382812 55.91210938 C-71.52333984 55.92048828 -70.37285156 55.92886719 -69.1875 55.9375 C-68.01767578 55.94201172 -66.84785156 55.94652344 -65.64257812 55.95117188 C-62.76166642 55.9629307 -59.88085956 55.97936574 -57 56 C-57.0314209 54.67778442 -57.0314209 54.67778442 -57.06347656 53.32885742 C-57.13233289 50.0056681 -57.18212462 46.68325484 -57.21972656 43.35961914 C-57.23963609 41.93111076 -57.26677429 40.50268162 -57.30175781 39.07446289 C-57.56992207 27.83128192 -56.97912422 17.30038784 -48.8125 8.6875 C-36.33477476 -4.20000275 -16.35565364 -9.53652532 0 0 Z " fill="#EEECFE" transform="translate(138,4)"/>
<path d="M0 0 C9.23639921 6.7320694 14.87155137 14.05042978 18 25 C18 35.23 18 45.46 18 56 C84.33 56 150.66 56 219 56 C219 45.77 219 35.54 219 25 C223.46452015 12.72256958 229.05378859 3.91317488 241 -2 C251.05256961 -5.49549783 263.64919096 -5.70821393 273.5078125 -1.453125 C282.21709782 3.62501629 289.83830796 11.51641745 293.06005859 21.17944336 C294.02643314 25.10744212 294.22881466 28.4278337 294.1953125 32.46484375 C294.19106766 33.48210289 294.19106766 33.48210289 294.18673706 34.51991272 C294.17565416 36.65929766 294.1505736 38.7982443 294.125 40.9375 C294.11495476 42.39908244 294.10583163 43.86067153 294.09765625 45.32226562 C294.07575425 48.88164979 294.04130866 52.44078203 294 56 C294.66418945 55.98428955 295.32837891 55.9685791 296.01269531 55.95239258 C318.60141974 55.48816021 336.85928228 58.02592799 354 74 C367.06719338 86.71016624 374.05320394 102.93953112 374.375 121.0625 C374.41238281 121.86494141 374.44976563 122.66738281 374.48828125 123.49414062 C374.57628104 129.38523765 374.57628104 129.38523765 371.6015625 132.55859375 C369 134 369 134 367 134 C367 138.62 367 143.24 367 148 C368.65 148.33 370.3 148.66 372 149 C374.18723688 152.28085533 374.25082875 153.21871358 374.25447559 157.02083492 C374.26030779 158.06442635 374.26613998 159.10801779 374.27214891 160.1832332 C374.26836958 161.33359373 374.26459026 162.48395426 374.26069641 163.66917419 C374.26452196 164.88833639 374.26834751 166.10749858 374.27228898 167.36360508 C374.28084316 170.7542058 374.28037735 174.14459048 374.27610838 177.53518522 C374.27364794 181.18980459 374.28264717 184.84439816 374.29014587 188.49900818 C374.30291694 195.66352016 374.30468333 202.82799471 374.30234561 209.99251615 C374.30056387 215.81900552 374.30230902 221.64548351 374.30657005 227.47197151 C374.30716524 228.30070874 374.30776043 229.12944597 374.30837366 229.98329644 C374.30958541 231.66688307 374.31079954 233.35046969 374.31201603 235.03405631 C374.32290222 250.83772025 374.32072482 266.64136287 374.31463119 282.44502801 C374.3094691 296.88944412 374.32069679 311.33379264 374.33972941 325.77819537 C374.3591264 340.61315748 374.36736003 355.44808765 374.36360615 370.28306252 C374.3616959 378.61011702 374.36416389 386.9371141 374.37832069 395.26415825 C374.39025968 402.35862276 374.39161176 409.45299458 374.37953053 416.54746043 C374.37365755 420.16412904 374.37249799 423.78062831 374.38453293 427.39728546 C374.39745875 431.32759768 374.38688856 435.2576558 374.3742218 439.18797302 C374.38159609 440.31825705 374.38897037 441.44854109 374.39656812 442.61307615 C374.27552143 460.53626261 367.40590612 476.11617775 355 489 C339.52953143 503.89660265 322.45398118 508.47748566 301.45214844 508.38095093 C299.8004208 508.38441327 298.14869549 508.38918168 296.49697495 508.39513266 C291.98656127 508.4075932 287.47633935 508.40149493 282.96592522 508.39217401 C278.09059257 508.38536349 273.21529202 508.39587465 268.33996582 508.40411377 C258.80040661 508.41743196 249.26091834 508.41458189 239.72135639 508.40587585 C231.96620923 508.39909218 224.2110819 508.39818554 216.45593262 508.4014473 C215.35087867 508.401907 214.24582473 508.40236669 213.10728431 508.40284032 C210.86217149 508.40379953 208.61705867 508.40477217 206.37194586 508.4057581 C185.33480981 508.41430639 164.29771301 508.40448666 143.2605834 508.388357 C125.22187969 508.37495434 107.18323391 508.37728259 89.14453125 508.39111328 C68.1810778 508.407179 47.21765873 508.41348247 26.25419998 508.40427649 C24.01748912 508.40332087 21.78077825 508.40237776 19.54406738 508.4014473 C17.89344382 508.40075306 17.89344382 508.40075306 16.20947433 508.40004479 C8.46642336 508.39745788 0.72339426 508.40181946 -7.01965332 508.40888596 C-16.4598161 508.41731216 -25.89990408 508.41499724 -35.34005833 508.39904372 C-40.15370359 508.39117612 -44.96722427 508.38804362 -49.78086853 508.39799118 C-54.19251286 508.4069699 -58.6039178 508.40195315 -63.0155406 508.38605852 C-64.60623041 508.38272413 -66.1969407 508.38437436 -67.78761721 508.39168589 C-89.21334524 508.48256789 -105.48568611 502.11605317 -120.98828125 487.0703125 C-133.26544668 473.94926208 -138.16304943 457.93901571 -138.25 440.375 C-138.270625 439.32570313 -138.29125 438.27640625 -138.3125 437.1953125 C-138.31765625 436.18984375 -138.3228125 435.184375 -138.328125 434.1484375 C-138.34214355 432.77437744 -138.34214355 432.77437744 -138.35644531 431.37255859 C-138 429 -138 429 -136.69042969 427.20947266 C-133.77755387 425.12536133 -131.44824693 425.52437973 -128 426 C-124.54102369 428.66075101 -123.14686938 430.10257742 -122.43359375 434.4609375 C-122.43488281 435.75257813 -122.43617187 437.04421875 -122.4375 438.375 C-122.11143824 450.70269735 -119.31347345 461.86043237 -112 472 C-111.39865234 472.85658203 -111.39865234 472.85658203 -110.78515625 473.73046875 C-103.18403659 483.686144 -90.18998643 490.22045955 -78 492 C-72.71438329 492.29336778 -67.43513392 492.28338204 -62.14353943 492.27415466 C-60.53025076 492.27861159 -58.91696427 492.28392713 -57.30368096 492.29002339 C-52.88547099 492.30415933 -48.46733152 492.30586752 -44.04910219 492.30542648 C-39.27793392 492.30707859 -34.50679437 492.32015248 -29.73564148 492.33161926 C-19.30981318 492.35443815 -8.88400528 492.36238656 1.54184461 492.36744571 C8.05664131 492.37070641 14.57143213 492.37723116 21.08622551 492.3844471 C39.13799759 492.40400914 57.18976422 492.42041561 75.24154758 492.42332363 C76.97324138 492.42360499 76.97324138 492.42360499 78.73991888 492.42389202 C81.08010828 492.42425827 83.42029769 492.42462196 85.76048709 492.42498314 C86.92209715 492.42516595 88.08370721 492.42534876 89.28051758 492.42553711 C90.44355209 492.42571766 91.6065866 492.42589821 92.80486458 492.42608423 C111.64345933 492.42962468 130.48193969 492.45664081 149.32049478 492.494035 C168.68023553 492.53215495 188.03991957 492.55148138 207.39969867 492.55178314 C218.26205791 492.55236689 229.12428068 492.56080545 239.98660469 492.58978081 C249.23717556 492.61434403 258.48756019 492.62154425 267.7381549 492.60653328 C272.45313134 492.59938457 277.16774037 492.60013349 281.88267517 492.62294388 C286.20904283 492.64367285 290.53476386 492.64080515 294.86112558 492.62006903 C296.41631757 492.61660055 297.97155757 492.6213705 299.52668674 492.63577347 C313.89240345 492.76012096 327.50179217 490.21839076 339 481 C340.03125 480.2575 341.0625 479.515 342.125 478.75 C348.83498342 472.33175499 353.12842319 464.77804287 356 456 C356.51188401 454.51861746 356.51188401 454.51861746 357.03410912 453.00730801 C358.39881181 448.16466345 358.28831349 443.36239108 358.2784729 438.36354065 C358.28425858 437.30654968 358.29004425 436.24955872 358.29600525 435.16053772 C358.3130112 431.61423725 358.31587153 428.06806652 358.31884766 424.52172852 C358.32825884 421.93769738 358.33853804 419.35366927 358.3496151 416.76964474 C358.37476295 410.55171035 358.38976929 404.33379304 358.40119901 398.11581996 C358.41486436 390.92088837 358.44119987 383.72602551 358.4675293 376.53112793 C358.53077992 357.54161808 358.57683937 338.55205412 358.625 319.5625 C358.74875 277.136875 358.8725 234.71125 359 191 C199.94 191 40.88 191 -123 191 C-123 261.95 -123 332.9 -123 406 C-128 411 -128 411 -131.625 411.5 C-135 411 -135 411 -136.68734229 409.77864784 C-138.42924977 407.41836767 -138.37592766 405.96260645 -138.37752342 403.04163456 C-138.38534666 402.01197671 -138.39316991 400.98231886 -138.40123022 399.92145926 C-138.39453805 398.78666252 -138.38784589 397.65186579 -138.38095093 396.48268127 C-138.3856309 395.27985329 -138.39031087 394.07702531 -138.39513266 392.83774799 C-138.40505213 389.49264988 -138.40144996 386.14805466 -138.39217401 382.80298674 C-138.38540339 379.1974414 -138.39585528 375.59194093 -138.40411377 371.98640442 C-138.41747827 364.9181251 -138.41456026 357.84994117 -138.40587585 350.78165806 C-138.39910554 345.03334957 -138.39817977 339.28506785 -138.4014473 333.53675652 C-138.401907 332.71912073 -138.40236669 331.90148495 -138.40284032 331.05907233 C-138.4037995 329.3980337 -138.40477214 327.73699507 -138.4057581 326.07595646 C-138.41432119 310.48401922 -138.40446599 294.89213481 -138.388357 279.30020624 C-138.37497556 265.93521835 -138.37726215 252.57030871 -138.39111328 239.20532227 C-138.40719189 223.68380363 -138.41347333 208.16233147 -138.40427649 192.64080566 C-138.40332087 190.98306557 -138.40237776 189.32532548 -138.4014473 187.66758537 C-138.40098447 186.85198224 -138.40052164 186.03637911 -138.40004479 185.19606074 C-138.39746005 179.46238179 -138.40181524 173.72873242 -138.40888596 167.99505806 C-138.4173275 160.99574085 -138.41496624 153.99652449 -138.39904372 146.99721874 C-138.39119305 143.42916039 -138.38801388 139.86126976 -138.39799118 136.29321289 C-138.40866974 132.41543891 -138.39586448 128.53793572 -138.38095093 124.66017151 C-138.38764309 123.54545127 -138.39433526 122.43073103 -138.40123022 121.28223139 C-138.26325388 102.70851397 -130.76183657 87.06413535 -117.9140625 73.85546875 C-106.66076131 63.23186492 -91.70848149 55.82200779 -76.04296875 55.90234375 C-74.93115234 55.90556641 -73.81933594 55.90878906 -72.67382812 55.91210938 C-71.52333984 55.92048828 -70.37285156 55.92886719 -69.1875 55.9375 C-68.01767578 55.94201172 -66.84785156 55.94652344 -65.64257812 55.95117188 C-62.76166642 55.9629307 -59.88085956 55.97936574 -57 56 C-57.0314209 54.67778442 -57.0314209 54.67778442 -57.06347656 53.32885742 C-57.13233289 50.0056681 -57.18212462 46.68325484 -57.21972656 43.35961914 C-57.23963609 41.93111076 -57.26677429 40.50268162 -57.30175781 39.07446289 C-57.56992207 27.83128192 -56.97912422 17.30038784 -48.8125 8.6875 C-36.33477476 -4.20000275 -16.35565364 -9.53652532 0 0 Z " fill="#000000" transform="translate(138,4)"/>
<path d="M0 0 C5.01217918 3.57625758 8.80788973 7.10870364 11 13 C11 13.66 11 14.32 11 15 C11.99 14.67 12.98 14.34 14 14 C22.22937501 13.15458956 28.93291945 13.27741132 35.87109375 18.078125 C41.32194212 22.99889086 45.03595768 29.02721895 45.4375 36.4375 C45.12407814 47.42490792 38.55522486 54.97481215 30.99494934 62.19718933 C28.6083194 64.44281375 26.19968919 66.66319681 23.77880859 68.87182617 C15.64013225 75.6451838 15.64013225 75.6451838 11.8359375 84.94921875 C12.46692223 88.818523 14.1731123 91.02454299 17.23046875 93.39453125 C17.81441406 93.80058594 18.39835938 94.20664062 19 94.625 C19.55300781 95.06972656 20.10601562 95.51445312 20.67578125 95.97265625 C23.90530224 98.35582002 26.14421421 99.31664378 30.1875 98.8984375 C35.95142436 97.64150381 35.95142436 97.64150381 39.64404297 93.34545898 C40.17143066 92.24016846 40.69881836 91.13487793 41.2421875 89.99609375 C41.5330423 89.39877945 41.82389709 88.80146515 42.12356567 88.18605042 C43.05232596 86.27522197 43.96471998 84.35719229 44.875 82.4375 C55.76994895 59.63989235 55.76994895 59.63989235 62.75 55.5 C63.50796875 55.0359375 64.2659375 54.571875 65.046875 54.09375 C70.84674087 50.84582511 77.98093605 50.96896562 84.390625 52.61328125 C90.76328005 55.46090467 95.45435329 60.77430251 98.4375 67 C99.14281406 70.76167499 99.13188702 74.17527632 99 78 C99.70125 77.95359375 100.4025 77.9071875 101.125 77.859375 C107.70498554 77.60904946 112.65231679 77.94975048 118 82 C122.95870446 86.69410956 126.51713217 91.07606351 127.37109375 98.015625 C127.52641709 105.58078515 126.82372846 111.00461656 122 117 C120.08341879 118.90760425 118.20413195 120.41097464 116 122 C116.535101 124.675505 117.32605837 126.65211675 118.5625 129.125 C120.8602796 134.44856858 120.94542609 139.94069814 119.23828125 145.46484375 C116.06119233 153.01199963 112.30212942 157.34893529 105 161 C91.25529102 165.20131793 79.34828804 157.33121382 67.4375 151.3125 C66.23909429 150.71256691 65.04052747 150.11295555 63.84179688 149.51367188 C55.14067 145.14067 55.14067 145.14067 54 144 C47.62927305 144.36349852 47.62927305 144.36349852 42 147 C40.88006035 149.43734235 40.03072235 151.6464697 39.25 154.1875 C39.02957031 154.83525391 38.80914062 155.48300781 38.58203125 156.15039062 C37.1763282 160.52029358 36.61763508 164.36663685 37 169 C38.90356987 172.27310553 38.90356987 172.27310553 41 175 C41 175.66 41 176.32 41 177 C41.63276855 177.06993164 42.26553711 177.13986328 42.91748047 177.21191406 C53.71254566 178.42633449 64.49432366 179.65965966 75.125 181.9375 C75.83897949 182.0828418 76.55295898 182.22818359 77.28857422 182.37792969 C83.50309202 183.79079531 88.19225175 186.59502959 92.25 191.5 C92.72953125 192.0671875 93.2090625 192.634375 93.703125 193.21875 C98.28101021 199.50644776 97.75513819 206.53514431 97 214 C94.98050987 219.88717435 90.22311536 224.7126445 85 228 C81.5625 228.875 81.5625 228.875 79 229 C79.32097656 229.52335938 79.64195312 230.04671875 79.97265625 230.5859375 C82.46419942 236.44059027 81.8516824 243.89921457 80.1953125 249.9296875 C77.36458815 256.35250345 73.19836311 259.85438876 67 263 C61.00459058 264.99846981 53.2403598 265.37703254 47.37109375 262.8828125 C45.25 261.5 45.25 261.5 43.453125 260.09375 C42.03680282 258.79954211 42.03680282 258.79954211 40 259 C39.505 259.721875 39.01 260.44375 38.5 261.1875 C34.47216008 265.71881991 29.4671444 268.37741679 23.4765625 269.453125 C16.27039599 269.77137841 9.31195327 267.98749204 3.88671875 263.09375 C-3.10932169 255.3300281 -3.68702464 249.02076558 -3.22167969 238.75732422 C-2.70525896 232.33391481 -1.55468453 225.98306509 -0.42333984 219.64379883 C1.28269531 210.03272899 2.04774781 203.62789872 -3.671875 195.24609375 C-6.49479395 192.52264007 -8.11646116 191.98115369 -12 191.625 C-15.73801769 191.99645081 -17.5065814 192.57508911 -20.36328125 195.03515625 C-24.79004024 201.05874213 -25.67853026 206.0070125 -24.66796875 213.296875 C-24.44753906 214.51890625 -24.22710937 215.7409375 -24 217 C-18.32968387 249.84770287 -18.32968387 249.84770287 -23.6875 258.3125 C-28.82575192 264.52870687 -34.37978964 268.15374901 -42.38671875 269.359375 C-49.18658582 269.7436689 -54.38610986 267.79040028 -60 264 C-62.625 261.1875 -62.625 261.1875 -64 259 C-66.63965199 259.98044217 -68.90131932 260.93149584 -71.22265625 262.54296875 C-77.12857614 265.6412924 -85.45721608 265.03435299 -91.76953125 263.19140625 C-97.65669668 260.29295513 -100.99608163 255.72890146 -104 250 C-105.15795477 246.52613568 -105.16829849 243.72230696 -105.1875 240.0625 C-105.20167969 238.83660156 -105.21585938 237.61070312 -105.23046875 236.34765625 C-105.01676797 233.24356188 -104.63998182 231.58637449 -103 229 C-103.804375 229 -104.60875 229 -105.4375 229 C-111.9080432 227.18370717 -116.41956844 222.39459328 -120.0625 216.875 C-121.81700455 209.62304785 -122.84757422 201.19745386 -118.9375 194.5 C-110.66826803 183.65244009 -100.36749926 181.62361572 -87.42651367 179.63745117 C-85.30551461 179.31142626 -83.18694662 178.97217237 -81.06835938 178.63085938 C-69.83553475 176.85523722 -69.83553475 176.85523722 -65 177 C-64.71125 176.236875 -64.4225 175.47375 -64.125 174.6875 C-63 172 -63 172 -61 169 C-60.40085872 161.20165316 -62.45984572 153.88453967 -66 147 C-68.88501349 144.80287229 -71.38906548 144.05167706 -75 144 C-79.08797324 144.66877938 -82.60443632 146.69434684 -86.25 148.5625 C-86.94512695 148.9138501 -87.64025391 149.2652002 -88.35644531 149.62719727 C-90.57293072 150.74763213 -92.78675884 151.87317157 -95 153 C-97.91435416 154.4837864 -100.83131337 155.96225749 -103.75 157.4375 C-104.41676758 157.77918213 -105.08353516 158.12086426 -105.77050781 158.47290039 C-112.77977304 162.01443335 -119.43081296 163.24522316 -127.21875 161.50390625 C-133.55419894 159.3474169 -138.22430217 155.90750115 -141.3125 149.875 C-143.9372749 144.18245021 -144.71130298 139.24468593 -144 133 C-143.13128815 130.73907308 -142.12144997 128.76449491 -140.875 126.69140625 C-139.77026064 124.87329427 -139.77026064 124.87329427 -140 122 C-141.41080458 120.60002714 -141.41080458 120.60002714 -143.25 119.3125 C-148.21608063 115.18249379 -150.59304071 111.35216986 -151.37890625 104.87890625 C-151.62163952 98.10586496 -151.27277655 92.44569561 -147 87 C-142.28395344 81.93613222 -136.9411766 77.38344228 -129.78515625 76.828125 C-127.85596763 76.81456304 -125.92656975 76.89860159 -124 77 C-123.98582031 76.443125 -123.97164062 75.88625 -123.95703125 75.3125 C-123.45392628 67.2628204 -120.46135754 62.00063464 -114.5 56.625 C-109.18697175 52.13899973 -103.91389647 51.48719405 -97.13671875 51.62890625 C-90.32890597 52.43431374 -85.32433981 55.10715589 -81.09375 60.46875 C-77.46421858 65.51572473 -74.68128497 70.96637925 -71.875 76.5 C-71.36324219 77.49386719 -70.85148437 78.48773438 -70.32421875 79.51171875 C-66.32647756 87.29138477 -66.32647756 87.29138477 -64.8815918 90.42749023 C-63.07629098 94.32073332 -62.0026694 96.34726425 -58.0625 98.0625 C-54.71660405 99.18666782 -52.37175387 99.04640637 -49 98 C-46.08026296 96.20452353 -46.08026296 96.20452353 -43.25 94 C-41.80367187 92.9171875 -41.80367187 92.9171875 -40.328125 91.8125 C-37.59917142 89.95758199 -37.59917142 89.95758199 -36.70857239 87.15332031 C-36.48235481 82.60136741 -36.59676177 80.57070305 -39.30737305 76.734375 C-40.35347466 75.71645947 -41.42318392 74.72240555 -42.51171875 73.75 C-43.07695755 73.20698242 -43.64219635 72.66396484 -44.2245636 72.10449219 C-46.02536913 70.38008691 -47.85341787 68.68891113 -49.6875 67 C-52.08023359 64.76426657 -54.45910356 62.51492984 -56.82421875 60.25 C-57.38720673 59.71101074 -57.9501947 59.17202148 -58.53024292 58.61669922 C-64.54466985 52.71453195 -69.01441629 46.07764033 -69.375 37.4375 C-69.2785187 31.4205752 -67.53279853 26.8565828 -64 22 C-58.16718099 16.38169798 -53.72421667 13.8564717 -45.5625 13.875 C-44.42941406 13.87242187 -43.29632813 13.86984375 -42.12890625 13.8671875 C-39.54778817 13.97674807 -37.45055595 14.24135123 -35 15 C-34.92007813 14.28070313 -34.84015625 13.56140625 -34.7578125 12.8203125 C-33.19731741 7.01269674 -27.98031213 2.17220146 -23.19921875 -1.3125 C-16.04756882 -4.8627224 -6.78661973 -3.86252506 0 0 Z " fill="#020404" transform="translate(268,213)"/>
<path d="M0 0 C1.44149414 0.01353516 1.44149414 0.01353516 2.91210938 0.02734375 C5.25417805 0.05064792 7.59569792 0.08335942 9.9375 0.125 C9.94296844 1.19709465 9.94296844 1.19709465 9.94854736 2.29084778 C9.98662999 9.07181006 10.0437094 15.85238413 10.12140274 22.63300037 C10.16068269 26.11789978 10.19296519 29.6025539 10.20849609 33.08764648 C10.22672994 37.10700763 10.27676461 41.1254558 10.328125 45.14453125 C10.32935364 46.37831009 10.33058228 47.61208893 10.33184814 48.883255 C10.55183228 62.0519123 14.49441772 72.28754545 24.01171875 81.51953125 C31.52872762 87.78624656 40.6336724 89.6616143 50.19921875 89.5 C60.12698557 88.50411117 68.1583682 84.34149514 74.9375 77.125 C76.05125 75.9803125 76.05125 75.9803125 77.1875 74.8125 C90.88771073 53.77289067 84.57813642 20.60872426 84.9375 0.125 C151.2675 0.125 217.5975 0.125 285.9375 0.125 C286.2675 19.595 286.5975 39.065 286.9375 59.125 C291.35037647 71.26041029 295.86701646 80.7030616 307.84765625 86.30078125 C318.90023129 90.65983421 329.06780484 90.39243592 340.01953125 85.68359375 C344.30031098 83.39707285 347.62689629 80.64919105 350.9375 77.125 C352.05125 75.9803125 352.05125 75.9803125 353.1875 74.8125 C357.86497558 67.62923392 360.01067175 59.83921979 360.14282227 51.32495117 C360.16276749 50.18414597 360.18271271 49.04334076 360.20326233 47.8679657 C360.21997482 46.64696671 360.23668732 45.42596771 360.25390625 44.16796875 C360.2850779 42.28081902 360.2850779 42.28081902 360.31687927 40.35554504 C360.37110465 37.02327714 360.42137945 33.69099761 360.46972656 30.35864258 C360.52011084 26.95323445 360.57570823 23.5479118 360.63085938 20.14257812 C360.73786699 13.47012033 360.83966524 6.79759826 360.9375 0.125 C364.08975245 0.06239967 367.24184139 0.02523194 370.39453125 -0.0078125 C371.27564575 -0.02561768 372.15676025 -0.04342285 373.0645752 -0.06176758 C385.25052263 -0.15721153 396.38684083 3.40107813 405.9375 11.125 C406.85208984 11.79982422 406.85208984 11.79982422 407.78515625 12.48828125 C417.87140604 20.35777284 424.11343526 32.59446832 425.9375 45.125 C426.17239304 48.22558811 426.37018999 51.31880131 426.49609375 54.42578125 C427.00328574 57.52728274 427.71886856 58.91647622 429.9375 61.125 C431.2575 61.455 432.5775 61.785 433.9375 62.125 C433.9375 67.075 433.9375 72.025 433.9375 77.125 C431.9575 78.115 429.9775 79.105 427.9375 80.125 C424.19881336 87.60237328 426.30063335 96.77293301 425.9375 105.125 C266.8775 105.125 107.8175 105.125 -56.0625 105.125 C-56.0625 31.27411417 -56.0625 31.27411417 -41.63671875 15.63671875 C-29.8071941 4.27685265 -16.10087435 -0.29131714 0 0 Z " fill="#FE8D9D" transform="translate(71.0625,74.875)"/>
<path d="M0 0 C37.29 0 74.58 0 113 0 C113.33 16.190625 113.66 32.38125 114 49.0625 C114.12503906 54.16726807 114.25007813 59.27203613 114.37890625 64.53149414 C114.47851562 70.78405762 114.47851562 70.78405762 114.51489258 73.71482849 C114.54785287 75.75398263 114.5967721 77.79291792 114.65844727 79.83140564 C114.74897715 82.92740053 114.78818996 86.02032373 114.81640625 89.11743164 C114.85455948 90.01971276 114.89271271 90.92199389 114.93202209 91.85161686 C114.91996197 95.71727925 114.81110236 98.05562786 112.2338562 101.05633354 C110.07397461 102.92234802 110.07397461 102.92234802 107.91661072 104.51100826 C104.92021006 106.83887577 103.6806177 109.3722416 103 113 C102.22760922 120.63591395 102.08483447 127.7533487 107 134 C109.20341592 136.19397945 111.50347534 138.14864463 114 140 C113.4014716 142.68466135 112.69205708 144.61588584 111.4375 147.125 C109.45125904 151.73661886 109.35612546 156.06071721 110 161 C110.63005213 162.37488869 111.30487596 163.72980452 112.01391602 165.06567383 C115.09615601 172.51836306 114.42543791 180.34568333 114.27009392 188.2664547 C114.21380051 191.19091548 114.18440198 194.11460109 114.16175842 197.039505 C114.10066639 204.30421298 113.99993876 211.56822056 113.88983154 218.83233643 C113.7970488 224.97814579 113.72489984 231.12348228 113.68136787 237.26984596 C113.65307268 240.1256482 113.59510325 242.97982244 113.53611755 245.83512878 C113.31435032 263.81842317 117.69246886 278.53768686 130.4375 291.875 C134.32011612 295.59750824 138.36258875 298.30186982 143 301 C143 301.33 143 301.66 143 302 C130.41240054 302.06968735 117.82484743 302.12290626 105.23709393 302.15543652 C99.39131007 302.17105393 93.54565876 302.19222036 87.69995117 302.22631836 C82.05244974 302.25905191 76.40507536 302.2768825 70.75748634 302.28463173 C68.60904759 302.29015017 66.46061534 302.30092603 64.31223106 302.31719017 C42.7166112 302.47409049 42.7166112 302.47409049 34 299 C32.88367187 298.56300781 31.76734375 298.12601562 30.6171875 297.67578125 C17.36556627 291.08772454 7.86081832 281.4765468 2.7734375 267.41015625 C0.44012113 260.13916533 -0.32170841 253.2208362 -0.39526367 245.58349609 C-0.50622553 242.18864073 -0.76142457 240.31155737 -2.8515625 237.58203125 C-5.00253946 235.828108 -5.00253946 235.828108 -8 235 C-8 230.05 -8 225.1 -8 220 C-6.02 219.01 -4.04 218.02 -2 217 C-0.37441525 213.7488305 -0.84598873 210.1704576 -0.84178162 206.59725952 C-0.83437465 205.27775061 -0.83437465 205.27775061 -0.82681805 203.93158495 C-0.81138798 200.96659898 -0.80306756 198.00163475 -0.79467773 195.03662109 C-0.78510354 192.91812446 -0.77509373 190.79962975 -0.76467896 188.68113708 C-0.73757415 182.91492279 -0.71659484 177.14870026 -0.69667697 171.38245726 C-0.67485172 165.36194059 -0.64744614 159.34144946 -0.62062073 153.32095337 C-0.57064692 141.91355086 -0.52572552 130.50613421 -0.48259836 119.09870398 C-0.42404849 103.68859566 -0.35773651 88.2785209 -0.29184818 72.86844254 C-0.18820018 48.57898428 -0.09495977 24.28949737 0 0 Z " fill="#D3D3FE" transform="translate(15,195)"/>
<path d="M0 0 C2.69990662 1.79993774 4.5418865 3.083773 6 6 C6.19847422 9.13883296 6.34537322 12.27034433 6.4296875 15.4140625 C6.57058001 18.39628725 6.88875633 20.76332722 8.1640625 23.4765625 C9.98350406 25.24344606 9.98350406 25.24344606 12.8828125 25.5 C16.70811284 24.88641799 18.08236213 23.63698265 20.875 21 C26.28764393 16.40251329 26.28764393 16.40251329 30.375 16.25 C34 17 34 17 36.4375 18.5625 C38.63624632 21.99254426 39.20546215 23.89075703 39 28 C34.05464423 35.41590479 26.52737938 41.5555594 20.1875 47.8125 C18.11558341 49.85776815 16.04705557 51.90637956 13.98046875 53.95703125 C13.07192139 54.85397705 12.16337402 55.75092285 11.22729492 56.67504883 C6.86887919 61.22456028 6.63476808 64.64594081 6.625 70.6875 C6.60050781 71.46544922 6.57601562 72.24339844 6.55078125 73.04492188 C6.52198076 78.8002204 7.47176062 83.35336377 11 88 C13.64241328 90.44136764 16.49302563 92.40949044 19.5 94.375 C20.25925781 94.89449219 21.01851562 95.41398437 21.80078125 95.94921875 C28.39880007 100.42108089 32.79960743 102.82674258 41 102 C42.19367188 101.96648437 43.38734375 101.93296875 44.6171875 101.8984375 C49.47034115 101.3638088 53.24989838 100.2283861 57 97 C62.23273251 89.7378752 65.86708317 81.50472455 69.53872681 73.37461853 C76.47481743 58.01678838 76.47481743 58.01678838 81 55 C85.32351988 54.43954372 87.29704773 54.5213942 90.9375 57 C93.12713165 60.18491876 93.60640309 62.16522352 93.375 66.01953125 C92.81861353 68.9579473 91.37564027 71.36335615 90 74 C89.4830496 77.69250287 89.54321652 79.28741777 91.5625 82.4375 C93.99166088 84.32163035 93.99166088 84.32163035 97.375 83.875 C100.90568192 83.10207025 100.90568192 83.10207025 103.8125 81.9375 C108.25339918 80.63135318 112.41395283 80.24612923 117 81 C120.38318343 83.65821555 120.88402829 85.27839823 121.5625 89.5 C121 93 121 93 119.25 95.6875 C115.30114127 98.49726487 111.47361716 99.6872163 106.83984375 101.0078125 C104.00901158 101.99685152 102.1791442 102.95385521 100 105 C99.24939151 107.91382729 99.24939151 107.91382729 100 111 C102.51006987 114.19463438 105.17706929 116.18618471 108.6875 118.125 C112 120 112 120 114 123 C114.50835292 126.8973724 114.32962183 128.50556726 112.125 131.8125 C109.47730441 134.53806899 108.66168153 134.93822657 104.86450195 135.29272461 C100.19263413 134.93884442 97.22783393 133.51963329 93.16796875 131.31640625 C92.45014725 130.94144516 91.73232574 130.56648407 90.99275208 130.18016052 C88.7170391 128.98756252 86.45237808 127.7755264 84.1875 126.5625 C82.64717772 125.75063631 81.10616791 124.94007561 79.56445312 124.13085938 C76.7537094 122.65329247 73.94705341 121.16854737 71.14526367 119.67407227 C63.54942291 115.63117231 56.98973697 116.74885475 48.83984375 118.96875 C42.95870069 121.1044058 39.50069319 124.44922303 36.8125 130.0625 C36.17890499 131.69722997 35.57741088 133.34459026 35 135 C34.62746094 136.00546875 34.25492188 137.0109375 33.87109375 138.046875 C31.04168075 146.28864944 28.83016928 154.55740136 32.17578125 162.94921875 C33.65134048 165.74401182 35.26202008 168.36192069 37 171 C37.40605469 171.71671875 37.81210937 172.4334375 38.23046875 173.171875 C40.36742243 176.70185991 41.68930717 177.90637729 45.67504883 179.10742188 C49.69620973 179.99466163 53.74701474 180.64983063 57.82421875 181.21875 C59.27931187 181.43088673 60.73438955 181.64312941 62.18945312 181.85546875 C64.44705598 182.17998839 66.70492682 182.50247165 68.96313477 182.82275391 C71.16762975 183.13696656 73.37092629 183.45872886 75.57421875 183.78125 C76.87963623 183.96751953 78.18505371 184.15378906 79.5300293 184.34570312 C83.34408688 185.06488094 86.51664109 186.07929447 89.8125 188.125 C91.38575245 190.60908282 91.45763963 192.97484209 91.59375 195.8671875 C90.61670055 199.37685197 88.87291504 200.82834768 86 203 C83.08128777 203.28776036 80.74646855 203.34990555 77.875 203.125 C72.72704097 202.57192029 72.72704097 202.57192029 68.05078125 204.3046875 C66.71983891 206.45200711 66.29410305 208.32921887 66.36328125 210.8515625 C67.26725255 213.90177241 69.03314017 215.88944616 71 218.375 C74.36487414 222.71234663 76.11133692 225.5770666 75.515625 231.1171875 C74.66773823 234.21325888 73.79416537 235.39335491 71 237 C67.8227169 237.45389759 66.01423962 237.67790128 63 237 C60.18517928 234.87172092 58.39900946 232.61815455 56.4921875 229.6640625 C53.37433756 224.75385697 53.37433756 224.75385697 48.328125 222.421875 C45.82496031 222.43601717 43.46879191 222.59764156 41 223 C40.85304688 223.95261719 40.70609375 224.90523437 40.5546875 225.88671875 C38.49279696 237.41671584 38.49279696 237.41671584 35.1875 240.375 C31.61988427 242.19378449 29.92362875 242.83481463 26 242 C23.125 240.25 23.125 240.25 21 237 C19.87185718 227.82754626 21.84977008 218.61598423 23.5 209.625 C23.97530682 206.99326758 24.4420941 204.3603157 24.90625 201.7265625 C25.11572266 200.57752441 25.32519531 199.42848633 25.54101562 198.24462891 C26.233988 193.345904 26.76610083 189.44128773 24.0234375 185.16015625 C23.59933594 184.48919922 23.17523438 183.81824219 22.73828125 183.12695312 C22.06345703 182.10504883 22.06345703 182.10504883 21.375 181.0625 C20.94832031 180.38509766 20.52164063 179.70769531 20.08203125 179.00976562 C18.7707315 176.96844378 17.3895593 174.98859193 16 173 C15.59813477 172.32936523 15.19626953 171.65873047 14.78222656 170.96777344 C12.58832568 167.74666092 11.04779064 166.24527207 7.18505859 165.34106445 C3.76151389 165.05564038 0.43398856 165.04505126 -3 165.125 C-4.16273438 165.09792969 -5.32546875 165.07085937 -6.5234375 165.04296875 C-12.56458846 164.99932652 -12.56458846 164.99932652 -17.95727539 167.34765625 C-19.5360264 169.14235048 -20.75911449 170.95895899 -22 173 C-22.93392338 174.26730434 -23.87013382 175.53292637 -24.80859375 176.796875 C-25.69090496 178.11056732 -26.56721425 179.42831043 -27.4375 180.75 C-27.89576172 181.389375 -28.35402344 182.02875 -28.82617188 182.6875 C-32.6908502 188.60984265 -32.18460141 193.21295067 -31 200 C-30.84313721 200.99854004 -30.68627441 201.99708008 -30.5246582 203.02587891 C-29.85020704 207.22356758 -29.12104488 211.41053784 -28.37304688 215.59570312 C-25.24159411 234.09765665 -25.24159411 234.09765665 -28.38891602 239.29248047 C-30.90901531 241.96342675 -33.23360965 241.99383099 -36.77734375 242.20703125 C-39 242 -39 242 -41.9375 240.25 C-44.41265232 236.34975999 -45.01989444 233.05477056 -45.640625 228.5234375 C-45.93997065 225.8812349 -45.93997065 225.8812349 -47 223 C-50.6106748 222.10117244 -53.41182775 221.93035515 -57 223 C-60.23832374 225.86715005 -62.56561147 229.49418399 -64.96875 233.05859375 C-67 236 -67 236 -69 237 C-76.01599016 237.56580566 -76.01599016 237.56580566 -79.5 235.5625 C-81.35610523 232.39165357 -81.79230333 230.22140604 -81.671875 226.56640625 C-80.52497508 222.18551529 -77.56450323 219.08963707 -74.796875 215.5859375 C-73.10706154 213.15407553 -72.37267072 211.90729615 -72.25 209 C-72.74538318 206.0096453 -72.74538318 206.0096453 -74.546875 204.3046875 C-78.54028101 202.18080596 -82.77403849 202.95160082 -87.15625 203.29296875 C-90.9812108 203.45709953 -92.58923591 203.37501721 -95.46875 200.74609375 C-97.76045876 196.63621808 -97.59232784 194.66458171 -97 190 C-93.97192656 185.96012478 -91.18972596 185.28781971 -86.3125 184.5 C-85.63985107 184.38599854 -84.96720215 184.27199707 -84.27416992 184.15454102 C-81.8522257 183.75003703 -79.42691298 183.37354206 -77 183 C-73.72840748 182.49048128 -70.45706737 181.97950387 -67.1862793 181.46484375 C-64.96492503 181.11763156 -62.74243506 180.77759703 -60.51879883 180.4453125 C-59.48779053 180.28675781 -58.45678223 180.12820313 -57.39453125 179.96484375 C-56.47518799 179.8268335 -55.55584473 179.68882324 -54.60864258 179.54663086 C-49.88369357 178.55653626 -47.57548792 177.7490625 -44.578125 173.84765625 C-43.78842689 172.59443968 -43.01267595 171.33234262 -42.25 170.0625 C-41.85167969 169.42892578 -41.45335937 168.79535156 -41.04296875 168.14257812 C-36.80686733 161.31455703 -36.11384295 155.92572239 -37 148 C-37.75624093 144.81792253 -38.71660152 141.72709448 -39.75 138.625 C-40.00209229 137.86437256 -40.25418457 137.10374512 -40.51391602 136.32006836 C-42.50945792 130.66572184 -45.09684225 124.70894602 -50 121 C-53.13164774 119.75864284 -53.13164774 119.75864284 -56.6875 118.8125 C-58.45673828 118.29623047 -58.45673828 118.29623047 -60.26171875 117.76953125 C-67.58026966 116.26299569 -72.55874673 116.66106451 -79.1328125 120.17578125 C-79.77314423 120.5016069 -80.41347595 120.82743256 -81.07321167 121.16313171 C-83.09857481 122.19799161 -85.11161142 123.25456461 -87.125 124.3125 C-88.48230832 125.01125283 -89.8403765 125.70853173 -91.19921875 126.40429688 C-93.70160923 127.6879644 -96.19919651 128.98008833 -98.69189453 130.2824707 C-99.78356934 130.84925537 -100.87524414 131.41604004 -102 132 C-103.05815918 132.5571167 -104.11631836 133.1142334 -105.20654297 133.68823242 C-108.82096661 135.38551421 -111.05450362 135.64562668 -115 135 C-118.22341676 132.11949992 -119.75697586 130.19081827 -120.625 125.9375 C-119.62772092 121.25028833 -116.84380698 119.1991677 -112.921875 116.6484375 C-111.51683761 115.78418788 -110.1006131 114.93775982 -108.671875 114.11328125 C-106.83951553 113.09287037 -106.83951553 113.09287037 -106 111 C-105.4161804 108.0850745 -105.4161804 108.0850745 -106 105 C-109.43677886 101.83454579 -112.58860239 100.76623927 -117.0625 99.5625 C-121.56905889 98.29141929 -124.27477892 96.99699092 -127 93 C-127.65622237 88.91683857 -127.37781677 86.77206035 -125.5625 83.0625 C-122.32763504 80.4588282 -120.4860555 80.4148108 -116.43359375 80.62109375 C-113.16124627 81.13059248 -110.24055997 82.2426521 -107.14453125 83.38671875 C-103.83979051 84.33179033 -101.26099788 83.93171368 -98 83 C-95.64726432 79.47089647 -95.59246507 78.15685632 -96 74 C-96.495 73.071875 -96.99 72.14375 -97.5 71.1875 C-99.44961881 67.04456003 -99.90639941 63.50634423 -99 59 C-96.4848174 55.96698569 -94.90690056 55.17366181 -91.0625 54.4375 C-87.07409451 55.17006427 -84.74821592 57.15140627 -82 60 C-80.00537109 63.21044922 -80.00537109 63.21044922 -78.2734375 66.8046875 C-77.80099106 67.76799484 -77.80099106 67.76799484 -77.31900024 68.75076294 C-76.32410906 70.78591504 -75.34900516 72.82978262 -74.375 74.875 C-73.38973905 76.91085108 -72.40044809 78.94468819 -71.40957642 80.97781372 C-70.5115632 82.82552249 -69.62340209 84.67801007 -68.73583984 86.53076172 C-65.49879704 94.0078015 -65.49879704 94.0078015 -59.390625 98.77734375 C-58.01836616 99.19138737 -56.6374783 99.57773564 -55.25 99.9375 C-54.57195312 100.14439453 -53.89390625 100.35128906 -53.1953125 100.56445312 C-45.30353434 102.82246189 -39.01032634 102.67109988 -31.7265625 98.6796875 C-19.91421813 91.50416706 -19.91421813 91.50416706 -13 80 C-12.37660442 77.01703873 -12.21639586 74.16694589 -12.1875 71.125 C-12.13013672 70.38636719 -12.07277344 69.64773438 -12.01367188 68.88671875 C-11.93733029 63.70447245 -13.41882709 60.99911968 -16.83203125 57.12890625 C-18.53005196 55.39480029 -20.25448153 53.68628678 -22 52 C-22.91934326 51.09604492 -23.83868652 50.19208984 -24.78588867 49.26074219 C-28.17503607 45.94400488 -31.57104777 42.63328958 -35.01953125 39.37817383 C-36.49583215 37.98079018 -37.95202534 36.56482882 -39.40625 35.14453125 C-40.69499023 33.91246948 -40.69499023 33.91246948 -42.00976562 32.65551758 C-44.46891516 29.37433879 -44.84167075 27.06309471 -45 23 C-43.65437601 20.05244268 -42.91445456 18.45722728 -40 17 C-35.74062387 16.41249984 -33.35456412 16.08840865 -29.73046875 18.52734375 C-27.73567965 20.28491468 -25.84237701 22.08411168 -24 24 C-22.90076459 25.30746709 -22.90076459 25.30746709 -20.1875 25.3125 C-16.9912755 25.26769248 -16.9912755 25.26769248 -14.83203125 23.4453125 C-12.32444742 20.09830295 -12.53284771 17.70541802 -12.5 13.5625 C-12.45510732 7.91163402 -12.06618232 5.05859616 -8 1 C-5.14675563 -0.42662219 -3.16545451 -0.31033868 0 0 Z " fill="#2DCDF9" transform="translate(259,225)"/>
<path d="M0 0 C2.9375 2 2.9375 2 5 5 C5.75067025 10.91152824 4.75283433 13.7237342 2 19 C1.4830496 22.69250287 1.54321652 24.28741777 3.5625 27.4375 C5.99166088 29.32163035 5.99166088 29.32163035 9.375 28.875 C12.90568192 28.10207025 12.90568192 28.10207025 15.8125 26.9375 C20.25339918 25.63135318 24.41395283 25.24612923 29 26 C32.38318343 28.65821555 32.88402829 30.27839823 33.5625 34.5 C33 38 33 38 31.25 40.6875 C27.30114127 43.49726487 23.47361716 44.6872163 18.83984375 46.0078125 C16.00901158 46.99685152 14.1791442 47.95385521 12 50 C11.24939151 52.91382729 11.24939151 52.91382729 12 56 C14.51006987 59.19463438 17.17706929 61.18618471 20.6875 63.125 C24 65 24 65 26 68 C26.50835292 71.8973724 26.32962183 73.50556726 24.125 76.8125 C21.47730441 79.53806899 20.66168153 79.93822657 16.86450195 80.29272461 C12.19263413 79.93884442 9.22783393 78.51963329 5.16796875 76.31640625 C4.45014725 75.94144516 3.73232574 75.56648407 2.99275208 75.18016052 C0.7170391 73.98756252 -1.54762192 72.7755264 -3.8125 71.5625 C-5.35282228 70.75063631 -6.89383209 69.94007561 -8.43554688 69.13085938 C-11.2462906 67.65329247 -14.05294659 66.16854737 -16.85473633 64.67407227 C-24.45057709 60.63117231 -31.01026303 61.74885475 -39.16015625 63.96875 C-45.04129931 66.1044058 -48.49930681 69.44922303 -51.1875 75.0625 C-51.82109501 76.69722997 -52.42258912 78.34459026 -53 80 C-53.37253906 81.00546875 -53.74507813 82.0109375 -54.12890625 83.046875 C-56.95831925 91.28864944 -59.16983072 99.55740136 -55.82421875 107.94921875 C-54.34865952 110.74401182 -52.73797992 113.36192069 -51 116 C-50.59394531 116.71671875 -50.18789063 117.4334375 -49.76953125 118.171875 C-47.63257757 121.70185991 -46.31069283 122.90637729 -42.32495117 124.10742188 C-38.30379027 124.99466163 -34.25298526 125.64983063 -30.17578125 126.21875 C-28.72068813 126.43088673 -27.26561045 126.64312941 -25.81054688 126.85546875 C-23.55294402 127.17998839 -21.29507318 127.50247165 -19.03686523 127.82275391 C-16.83237025 128.13696656 -14.62907371 128.45872886 -12.42578125 128.78125 C-11.12036377 128.96751953 -9.81494629 129.15378906 -8.4699707 129.34570312 C-4.65591312 130.06488094 -1.48335891 131.07929447 1.8125 133.125 C3.38575245 135.60908282 3.45763963 137.97484209 3.59375 140.8671875 C2.61670055 144.37685197 0.87291504 145.82834768 -2 148 C-4.91871223 148.28776036 -7.25353145 148.34990555 -10.125 148.125 C-15.27295903 147.57192029 -15.27295903 147.57192029 -19.94921875 149.3046875 C-21.28016109 151.45200711 -21.70589695 153.32921887 -21.63671875 155.8515625 C-20.73274745 158.90177241 -18.96685983 160.88944616 -17 163.375 C-13.63512586 167.71234663 -11.88866308 170.5770666 -12.484375 176.1171875 C-13.33226177 179.21325888 -14.20583463 180.39335491 -17 182 C-20.1772831 182.45389759 -21.98576038 182.67790128 -25 182 C-27.81482072 179.87172092 -29.60099054 177.61815455 -31.5078125 174.6640625 C-34.62566244 169.75385697 -34.62566244 169.75385697 -39.671875 167.421875 C-42.17503969 167.43601717 -44.53120809 167.59764156 -47 168 C-47.14695312 168.95261719 -47.29390625 169.90523437 -47.4453125 170.88671875 C-49.50720304 182.41671584 -49.50720304 182.41671584 -52.8125 185.375 C-56.38011573 187.19378449 -58.07637125 187.83481463 -62 187 C-64.875 185.25 -64.875 185.25 -67 182 C-68.12814282 172.82754626 -66.15022992 163.61598423 -64.5 154.625 C-64.02469318 151.99326758 -63.5579059 149.3603157 -63.09375 146.7265625 C-62.88427734 145.57752441 -62.67480469 144.42848633 -62.45898438 143.24462891 C-61.766012 138.345904 -61.23389917 134.44128773 -63.9765625 130.16015625 C-64.61271484 129.1537207 -64.61271484 129.1537207 -65.26171875 128.12695312 C-65.71160156 127.44568359 -66.16148437 126.76441406 -66.625 126.0625 C-67.05167969 125.38509766 -67.47835938 124.70769531 -67.91796875 124.00976562 C-72.75037874 115.68443473 -72.75037874 115.68443473 -80.14453125 110.34423828 C-82.59984991 109.99323532 -82.59984991 109.99323532 -86 110 C-86.83986084 108.06532058 -87.67168027 106.12714871 -88.5 104.1875 C-89.19609375 102.56908203 -89.19609375 102.56908203 -89.90625 100.91796875 C-91 98 -91 98 -91 95 C-90.34773438 94.82984375 -89.69546875 94.6596875 -89.0234375 94.484375 C-80.74727402 92.18950961 -74.825824 89.28854934 -70.14453125 81.828125 C-67.57199721 75.47141973 -67.60094122 67.87840344 -69.92578125 61.43359375 C-74.18794313 54.11711391 -80.0096458 50.61984382 -88.0234375 48.48046875 C-89.00183594 48.24263672 -89.00183594 48.24263672 -90 48 C-89.46199791 43.01400883 -87.88255471 39.48164295 -85.4375 35.125 C-84.79683594 33.97257812 -84.15617187 32.82015625 -83.49609375 31.6328125 C-83.00238281 30.76398438 -82.50867188 29.89515625 -82 29 C-78.15338606 30.56713901 -75.90458331 33.08688634 -73 36 C-70.83161633 37.62164311 -68.67699765 39.17474382 -66.4375 40.6875 C-65.87353516 41.07744141 -65.30957031 41.46738281 -64.72851562 41.86914062 C-58.52562749 46.11322198 -54.58528974 47.76472948 -47 47 C-45.80632812 46.96648437 -44.61265625 46.93296875 -43.3828125 46.8984375 C-38.52965885 46.3638088 -34.75010162 45.2283861 -31 42 C-25.76726749 34.7378752 -22.13291683 26.50472455 -18.46127319 18.37461853 C-9.63739508 -1.16313389 -9.63739508 -1.16313389 0 0 Z " fill="#7AE0FC" transform="translate(347,280)"/>
<path d="M0 0 C1.44149414 0.01353516 1.44149414 0.01353516 2.91210938 0.02734375 C5.25417805 0.05064792 7.59569792 0.08335942 9.9375 0.125 C9.94296844 1.19709465 9.94296844 1.19709465 9.94854736 2.29084778 C9.98662999 9.07181006 10.0437094 15.85238413 10.12140274 22.63300037 C10.16068269 26.11789978 10.19296519 29.6025539 10.20849609 33.08764648 C10.22672994 37.10700763 10.27676461 41.1254558 10.328125 45.14453125 C10.32935364 46.37831009 10.33058228 47.61208893 10.33184814 48.883255 C10.55183228 62.0519123 14.49441772 72.28754545 24.01171875 81.51953125 C32.72499344 88.78353915 42.99144047 89.77181261 53.9375 89.125 C56.73910665 88.65263609 59.22550445 87.99283857 61.9375 87.125 C60.9475 88.445 59.9575 89.765 58.9375 91.125 C58.2775 95.745 57.6175 100.365 56.9375 105.125 C19.6475 105.125 -17.6425 105.125 -56.0625 105.125 C-56.124375 95.4725 -56.18625 85.82 -56.25 75.875 C-56.27731201 72.85182617 -56.30462402 69.82865234 -56.33276367 66.71386719 C-56.34153605 64.28320717 -56.3491782 61.85254271 -56.35546875 59.421875 C-56.37081665 58.18775879 -56.38616455 56.95364258 -56.40197754 55.68212891 C-56.40656388 40.29036791 -52.22465358 27.11392895 -41.63671875 15.63671875 C-29.8071941 4.27685265 -16.10087435 -0.29131714 0 0 Z " fill="#E95A6F" transform="translate(71.0625,74.875)"/>
<path d="M0 0 C5.97714013 3.45591847 10.6905498 8.90946133 12.75 15.5 C13.05077746 18.70116468 13.043753 21.89098153 13.04052734 25.10449219 C13.04724457 26.06612274 13.05396179 27.0277533 13.06088257 28.01852417 C13.07986536 31.19469384 13.08378717 34.37065215 13.0859375 37.546875 C13.09236607 39.76019375 13.09909448 41.97351165 13.10610962 44.18682861 C13.1180837 48.8270464 13.12179039 53.46718973 13.12060547 58.10742188 C13.12040247 64.04005767 13.14768473 69.97221341 13.18214989 75.90473557 C13.20444019 80.47737805 13.20844232 85.0499055 13.20738602 89.62259674 C13.20973952 91.80896913 13.21854885 93.99534481 13.23405075 96.18166351 C13.25374987 99.24742241 13.2478565 102.31215255 13.23583984 105.37792969 C13.24707886 106.27279083 13.25831787 107.16765198 13.26989746 108.08963013 C13.19912654 115.23137656 11.43401399 121.30372887 6.78515625 126.83984375 C6.13417969 127.36707031 5.48320312 127.89429688 4.8125 128.4375 C4.16410156 128.98277344 3.51570313 129.52804688 2.84765625 130.08984375 C-2.91011546 133.96052455 -8.49620895 134.24092222 -15.25 133.5 C-21.82419515 131.69352551 -26.55626452 127.1104847 -30.25 121.5 C-32.49241252 116.2110263 -32.54620399 111.4086993 -32.54052734 105.76611328 C-32.54724457 104.80273041 -32.55396179 103.83934753 -32.56088257 102.84677124 C-32.57983535 99.67123211 -32.5837853 96.49590462 -32.5859375 93.3203125 C-32.59236692 91.10602736 -32.59909539 88.89174308 -32.60610962 86.67745972 C-32.6180753 82.03902212 -32.62179113 77.40065897 -32.62060547 72.76220703 C-32.62040223 66.82838094 -32.64771263 60.89503354 -32.68214989 54.96132088 C-32.70442233 50.38872092 -32.70844291 45.81623614 -32.70738602 41.24358749 C-32.70974113 39.05638859 -32.71855954 36.86918648 -32.73405075 34.68204117 C-32.7537187 31.61858125 -32.74786925 28.55615349 -32.73583984 25.49267578 C-32.74707886 24.59579041 -32.75831787 23.69890503 -32.76989746 22.77484131 C-32.70050121 15.79514432 -30.91740202 10.54391403 -26.28515625 5.2578125 C-25.63417969 4.71898437 -24.98320312 4.18015625 -24.3125 3.625 C-23.66410156 3.07070313 -23.01570313 2.51640625 -22.34765625 1.9453125 C-15.79678148 -2.56832561 -7.3027131 -3.21717965 0 0 Z " fill="#D3D3FE" transform="translate(404.25,16.5)"/>
<path d="M0 0 C5.97714013 3.45591847 10.6905498 8.90946133 12.75 15.5 C13.05077746 18.70116468 13.043753 21.89098153 13.04052734 25.10449219 C13.04724457 26.06612274 13.05396179 27.0277533 13.06088257 28.01852417 C13.07986536 31.19469384 13.08378717 34.37065215 13.0859375 37.546875 C13.09236607 39.76019375 13.09909448 41.97351165 13.10610962 44.18682861 C13.1180837 48.8270464 13.12179039 53.46718973 13.12060547 58.10742188 C13.12040247 64.04005767 13.14768473 69.97221341 13.18214989 75.90473557 C13.20444019 80.47737805 13.20844232 85.0499055 13.20738602 89.62259674 C13.20973952 91.80896913 13.21854885 93.99534481 13.23405075 96.18166351 C13.25374987 99.24742241 13.2478565 102.31215255 13.23583984 105.37792969 C13.24707886 106.27279083 13.25831787 107.16765198 13.26989746 108.08963013 C13.19912654 115.23137656 11.43401399 121.30372887 6.78515625 126.83984375 C6.13417969 127.36707031 5.48320312 127.89429688 4.8125 128.4375 C4.16410156 128.98277344 3.51570313 129.52804688 2.84765625 130.08984375 C-2.91011546 133.96052455 -8.49620895 134.24092222 -15.25 133.5 C-21.82419515 131.69352551 -26.55626452 127.1104847 -30.25 121.5 C-32.49241252 116.2110263 -32.54620399 111.4086993 -32.54052734 105.76611328 C-32.54724457 104.80273041 -32.55396179 103.83934753 -32.56088257 102.84677124 C-32.57983535 99.67123211 -32.5837853 96.49590462 -32.5859375 93.3203125 C-32.59236692 91.10602736 -32.59909539 88.89174308 -32.60610962 86.67745972 C-32.6180753 82.03902212 -32.62179113 77.40065897 -32.62060547 72.76220703 C-32.62040223 66.82838094 -32.64771263 60.89503354 -32.68214989 54.96132088 C-32.70442233 50.38872092 -32.70844291 45.81623614 -32.70738602 41.24358749 C-32.70974113 39.05638859 -32.71855954 36.86918648 -32.73405075 34.68204117 C-32.7537187 31.61858125 -32.74786925 28.55615349 -32.73583984 25.49267578 C-32.74707886 24.59579041 -32.75831787 23.69890503 -32.76989746 22.77484131 C-32.70050121 15.79514432 -30.91740202 10.54391403 -26.28515625 5.2578125 C-25.63417969 4.71898437 -24.98320313 4.18015625 -24.3125 3.625 C-23.66410156 3.07070313 -23.01570313 2.51640625 -22.34765625 1.9453125 C-15.79678148 -2.56832561 -7.3027131 -3.21717965 0 0 Z " fill="#D3D3FE" transform="translate(128.25,16.5)"/>
<path d="M0 0 C5.4267535 3.17221499 10.44043727 8.58833497 12.6875 14.5 C13.54049646 21.54542269 13.98465024 28.54150992 10 34.6875 C5.31338224 40.52387212 -0.11274521 44.69465077 -7.6328125 45.859375 C-14.4706826 46.24521093 -19.69981516 44.37081713 -25.3125 40.5 C-29.75061925 36.3919888 -33.01453192 32.22248729 -33.68359375 26.109375 C-33.81596393 18.41633154 -33.86680762 12.36056017 -28.3125 6.5 C-20.64746013 -1.26980123 -10.55829622 -4.66049794 0 0 Z " fill="#020304" transform="translate(266.3125,329.5)"/>
<path d="M0 0 C2.20703125 1.3515625 2.20703125 1.3515625 4.5 3 C7.56006912 5.19763878 8.85981113 5.97861526 12.6875 6.5625 C17.17358033 5.80071277 20.49964226 4.30676319 23.9375 1.3125 C27.06517233 -0.67783694 29.38257464 -0.45217817 33 0 C35.4375 1.625 35.4375 1.625 37 4 C37.61966115 7.64050926 37.36847866 9.37051562 35.5 12.5625 C28.53048178 19.35778026 21.20800341 21.92532823 11.625 22.4375 C3.65223444 22.29354729 -3.24660852 18.39380451 -9 13 C-11.32749345 9.50875983 -11.50299316 8.10777749 -11 4 C-8.03583913 -0.50552452 -5.16382672 -0.84652897 0 0 Z " fill="#060303" transform="translate(243,118)"/>
<path d="M0 0 C2.65234375 1.47265625 2.65234375 1.47265625 5 4 C5.74442966 6.99358166 5.69899101 9.86687295 5.625 12.9375 C5.64433594 13.73607422 5.66367187 14.53464844 5.68359375 15.35742188 C5.64781366 19.67607828 5.36433103 21.51750755 2.6875 25.0625 C0 27 0 27 -3.625 27.0625 C-7.46173978 25.85463748 -8.16355599 25.48215942 -10 22 C-10.4611039 18.99265327 -10.46418843 16.03762826 -10.4375 13 C-10.45748047 12.19304687 -10.47746094 11.38609375 -10.49804688 10.5546875 C-10.4948629 6.69570691 -10.4755464 4.65286879 -8.15625 1.46875 C-5.18560187 -0.55473495 -3.5281866 -0.57603047 0 0 Z " fill="#050203" transform="translate(321,106)"/>
<path d="M0 0 C2.65234375 1.47265625 2.65234375 1.47265625 5 4 C5.74442966 6.99358166 5.69899101 9.86687295 5.625 12.9375 C5.64433594 13.73607422 5.66367188 14.53464844 5.68359375 15.35742188 C5.64781366 19.67607828 5.36433103 21.51750755 2.6875 25.0625 C0 27 0 27 -3.625 27.0625 C-7.46173978 25.85463748 -8.16355599 25.48215942 -10 22 C-10.4611039 18.99265327 -10.46418843 16.03762826 -10.4375 13 C-10.45748047 12.19304687 -10.47746094 11.38609375 -10.49804688 10.5546875 C-10.4948629 6.69570691 -10.4755464 4.65286879 -8.15625 1.46875 C-5.18560187 -0.55473495 -3.5281866 -0.57603047 0 0 Z " fill="#050203" transform="translate(196,106)"/>
<path d="M0 0 C2.875 1.5 2.875 1.5 5 4 C5.81653107 7.75912419 5.45215366 10.89787544 4 14.4375 C0.90909579 16.85226892 -2.11445435 17.42332793 -6 17 C-9.05192694 15.02896385 -10.6087082 13.6228988 -11.4765625 10.0234375 C-11.74309726 6.2779227 -11.30430418 4.35800492 -8.875 1.5 C-5.48749667 -0.26739304 -3.7664742 -0.6277457 0 0 Z " fill="#E8E6F7" transform="translate(259,343)"/>
</svg>
